  0
SECTION
  2
HEADER
  9
$ANGBASE
  50
0.0
  9
$ANGDIR
  70
1
  9
$MEASUREMENT
  70
1
  0
ENDSEC
  0
SECTION
  2
TABLES
  0
TABLE
  2
LTYPE
  70
4
  0
LTYPE
  5
40F
  2
CONTINUOUS
  70
0
  3
Solid line
  72
65
  73
0
  40
0.0
  0
LTYPE
  5
410
  2
DASHDOT
 70
0
  3
Dash Dot ____ _ ____ _
 72
65
 73
4
 40
2.0
 49
1.25
 49
-0.25
 49
0.25
 49
-0.25
  0
LTYPE
  5
411
  2
DASHED
 70
0
  3
Dashed __ __ __ __ __
 72
65
 73
2
 40
0.75
 49
0.5
 49
-0.25
  0
LTYPE
  5
43B
  2
DOTTED
 70
0
  3
Dotted .  .  .  .
 72
65
 73
2
 40
0.2
 49
0.0
 49
-0.2
  0
ENDTAB
  0
TABLE
  2
STYLE
  70
4
  0
STYLE
  2
KICAD
  70
0
  40
0
  41
1
  42
1
  50
0
  71
0
  3
isocp.shx
  0
STYLE
  2
KICADB
  70
0
  40
0
  41
1
  42
1
  50
0
  71
0
  3
isocp.shx
  0
STYLE
  2
KICADI
  70
0
  40
0
  41
1
  42
1
  50
15
  71
0
  3
isocp.shx
  0
STYLE
  2
KICADBI
  70
0
  40
0
  41
1
  42
1
  50
15
  71
0
  3
isocp.shx
  0
ENDTAB
  0
TABLE
  2
LAYER
  70
1
  0
LAYER
  2
BLACK
  70
0
  62
7
  6
CONTINUOUS
  0
ENDTAB
  0
ENDSEC
  0
SECTION
  2
ENTITIES
0
LINE
8
BLACK
6
CONTINUOUS
10
184.382
20
-106.816
11
184.569
21
-106.874
0
LINE
8
BLACK
6
CONTINUOUS
10
184.569
20
-106.874
11
184.742
21
-106.967
0
LINE
8
BLACK
6
CONTINUOUS
10
184.742
20
-106.967
11
184.893
21
-107.092
0
LINE
8
BLACK
6
CONTINUOUS
10
184.893
20
-107.092
11
185.017
21
-107.244
0
LINE
8
BLACK
6
CONTINUOUS
10
185.017
20
-107.244
11
185.109
21
-107.417
0
LINE
8
BLACK
6
CONTINUOUS
10
185.109
20
-107.417
11
185.166
21
-107.605
0
LINE
8
BLACK
6
CONTINUOUS
10
185.166
20
-107.605
11
185.185
21
-107.8
0
LINE
8
BLACK
6
CONTINUOUS
10
185.185
20
-107.8
11
185.185
21
-107.828
0
LINE
8
BLACK
6
CONTINUOUS
10
185.185
20
-107.828
11
185.16
21
-108.023
0
LINE
8
BLACK
6
CONTINUOUS
10
185.16
20
-108.023
11
185.098
21
-108.209
0
LINE
8
BLACK
6
CONTINUOUS
10
185.098
20
-108.209
11
185.001
21
-108.379
0
LINE
8
BLACK
6
CONTINUOUS
10
185.001
20
-108.379
11
184.873
21
-108.528
0
LINE
8
BLACK
6
CONTINUOUS
10
184.873
20
-108.528
11
184.719
21
-108.649
0
LINE
8
BLACK
6
CONTINUOUS
10
184.719
20
-108.649
11
184.543
21
-108.737
0
LINE
8
BLACK
6
CONTINUOUS
10
184.543
20
-108.737
11
184.355
21
-108.79
0
LINE
8
BLACK
6
CONTINUOUS
10
184.355
20
-108.79
11
184.159
21
-108.805
0
LINE
8
BLACK
6
CONTINUOUS
10
184.159
20
-108.805
11
183.964
21
-108.782
0
LINE
8
BLACK
6
CONTINUOUS
10
183.964
20
-108.782
11
183.778
21
-108.721
0
LINE
8
BLACK
6
CONTINUOUS
10
183.778
20
-108.721
11
183.606
21
-108.625
0
LINE
8
BLACK
6
CONTINUOUS
10
183.606
20
-108.625
11
183.457
21
-108.498
0
LINE
8
BLACK
6
CONTINUOUS
10
183.457
20
-108.498
11
183.335
21
-108.344
0
LINE
8
BLACK
6
CONTINUOUS
10
183.335
20
-108.344
11
183.246
21
-108.17
0
LINE
8
BLACK
6
CONTINUOUS
10
183.246
20
-108.17
11
183.192
21
-107.981
0
LINE
8
BLACK
6
CONTINUOUS
10
183.192
20
-107.981
11
183.175
21
-107.786
0
LINE
8
BLACK
6
CONTINUOUS
10
183.175
20
-107.786
11
183.197
21
-107.591
0
LINE
8
BLACK
6
CONTINUOUS
10
183.197
20
-107.591
11
183.256
21
-107.404
0
LINE
8
BLACK
6
CONTINUOUS
10
183.256
20
-107.404
11
183.351
21
-107.232
0
LINE
8
BLACK
6
CONTINUOUS
10
183.351
20
-107.232
11
183.477
21
-107.082
0
LINE
8
BLACK
6
CONTINUOUS
10
183.477
20
-107.082
11
183.63
21
-106.959
0
LINE
8
BLACK
6
CONTINUOUS
10
183.63
20
-106.959
11
183.804
21
-106.868
0
LINE
8
BLACK
6
CONTINUOUS
10
183.804
20
-106.868
11
183.992
21
-106.813
0
LINE
8
BLACK
6
CONTINUOUS
10
183.992
20
-106.813
11
184.187
21
-106.795
0
LINE
8
BLACK
6
CONTINUOUS
10
184.187
20
-106.795
11
184.382
21
-106.816
0
LINE
8
BLACK
6
CONTINUOUS
10
193.022
20
-106.816
11
193.209
21
-106.874
0
LINE
8
BLACK
6
CONTINUOUS
10
193.209
20
-106.874
11
193.382
21
-106.967
0
LINE
8
BLACK
6
CONTINUOUS
10
193.382
20
-106.967
11
193.533
21
-107.092
0
LINE
8
BLACK
6
CONTINUOUS
10
193.533
20
-107.092
11
193.657
21
-107.244
0
LINE
8
BLACK
6
CONTINUOUS
10
193.657
20
-107.244
11
193.749
21
-107.417
0
LINE
8
BLACK
6
CONTINUOUS
10
193.749
20
-107.417
11
193.806
21
-107.605
0
LINE
8
BLACK
6
CONTINUOUS
10
193.806
20
-107.605
11
193.825
21
-107.8
0
LINE
8
BLACK
6
CONTINUOUS
10
193.825
20
-107.8
11
193.825
21
-107.828
0
LINE
8
BLACK
6
CONTINUOUS
10
193.825
20
-107.828
11
193.8
21
-108.023
0
LINE
8
BLACK
6
CONTINUOUS
10
193.8
20
-108.023
11
193.738
21
-108.209
0
LINE
8
BLACK
6
CONTINUOUS
10
193.738
20
-108.209
11
193.641
21
-108.379
0
LINE
8
BLACK
6
CONTINUOUS
10
193.641
20
-108.379
11
193.513
21
-108.528
0
LINE
8
BLACK
6
CONTINUOUS
10
193.513
20
-108.528
11
193.359
21
-108.649
0
LINE
8
BLACK
6
CONTINUOUS
10
193.359
20
-108.649
11
193.183
21
-108.737
0
LINE
8
BLACK
6
CONTINUOUS
10
193.183
20
-108.737
11
192.995
21
-108.79
0
LINE
8
BLACK
6
CONTINUOUS
10
192.995
20
-108.79
11
192.799
21
-108.805
0
LINE
8
BLACK
6
CONTINUOUS
10
192.799
20
-108.805
11
192.604
21
-108.782
0
LINE
8
BLACK
6
CONTINUOUS
10
192.604
20
-108.782
11
192.418
21
-108.721
0
LINE
8
BLACK
6
CONTINUOUS
10
192.418
20
-108.721
11
192.246
21
-108.625
0
LINE
8
BLACK
6
CONTINUOUS
10
192.246
20
-108.625
11
192.097
21
-108.498
0
LINE
8
BLACK
6
CONTINUOUS
10
192.097
20
-108.498
11
191.975
21
-108.344
0
LINE
8
BLACK
6
CONTINUOUS
10
191.975
20
-108.344
11
191.886
21
-108.17
0
LINE
8
BLACK
6
CONTINUOUS
10
191.886
20
-108.17
11
191.832
21
-107.981
0
LINE
8
BLACK
6
CONTINUOUS
10
191.832
20
-107.981
11
191.815
21
-107.786
0
LINE
8
BLACK
6
CONTINUOUS
10
191.815
20
-107.786
11
191.837
21
-107.591
0
LINE
8
BLACK
6
CONTINUOUS
10
191.837
20
-107.591
11
191.896
21
-107.404
0
LINE
8
BLACK
6
CONTINUOUS
10
191.896
20
-107.404
11
191.991
21
-107.232
0
LINE
8
BLACK
6
CONTINUOUS
10
191.991
20
-107.232
11
192.117
21
-107.082
0
LINE
8
BLACK
6
CONTINUOUS
10
192.117
20
-107.082
11
192.27
21
-106.959
0
LINE
8
BLACK
6
CONTINUOUS
10
192.27
20
-106.959
11
192.444
21
-106.868
0
LINE
8
BLACK
6
CONTINUOUS
10
192.444
20
-106.868
11
192.632
21
-106.813
0
LINE
8
BLACK
6
CONTINUOUS
10
192.632
20
-106.813
11
192.827
21
-106.795
0
LINE
8
BLACK
6
CONTINUOUS
10
192.827
20
-106.795
11
193.022
21
-106.816
0
LINE
8
BLACK
6
CONTINUOUS
10
184.382
20
-103.016
11
184.569
21
-103.074
0
LINE
8
BLACK
6
CONTINUOUS
10
184.569
20
-103.074
11
184.742
21
-103.167
0
LINE
8
BLACK
6
CONTINUOUS
10
184.742
20
-103.167
11
184.893
21
-103.292
0
LINE
8
BLACK
6
CONTINUOUS
10
184.893
20
-103.292
11
185.017
21
-103.444
0
LINE
8
BLACK
6
CONTINUOUS
10
185.017
20
-103.444
11
185.109
21
-103.617
0
LINE
8
BLACK
6
CONTINUOUS
10
185.109
20
-103.617
11
185.166
21
-103.805
0
LINE
8
BLACK
6
CONTINUOUS
10
185.166
20
-103.805
11
185.185
21
-104
0
LINE
8
BLACK
6
CONTINUOUS
10
185.185
20
-104
11
185.185
21
-104.028
0
LINE
8
BLACK
6
CONTINUOUS
10
185.185
20
-104.028
11
185.16
21
-104.223
0
LINE
8
BLACK
6
CONTINUOUS
10
185.16
20
-104.223
11
185.098
21
-104.409
0
LINE
8
BLACK
6
CONTINUOUS
10
185.098
20
-104.409
11
185.001
21
-104.579
0
LINE
8
BLACK
6
CONTINUOUS
10
185.001
20
-104.579
11
184.873
21
-104.728
0
LINE
8
BLACK
6
CONTINUOUS
10
184.873
20
-104.728
11
184.719
21
-104.849
0
LINE
8
BLACK
6
CONTINUOUS
10
184.719
20
-104.849
11
184.543
21
-104.937
0
LINE
8
BLACK
6
CONTINUOUS
10
184.543
20
-104.937
11
184.355
21
-104.99
0
LINE
8
BLACK
6
CONTINUOUS
10
184.355
20
-104.99
11
184.159
21
-105.005
0
LINE
8
BLACK
6
CONTINUOUS
10
184.159
20
-105.005
11
183.964
21
-104.982
0
LINE
8
BLACK
6
CONTINUOUS
10
183.964
20
-104.982
11
183.778
21
-104.921
0
LINE
8
BLACK
6
CONTINUOUS
10
183.778
20
-104.921
11
183.606
21
-104.825
0
LINE
8
BLACK
6
CONTINUOUS
10
183.606
20
-104.825
11
183.457
21
-104.698
0
LINE
8
BLACK
6
CONTINUOUS
10
183.457
20
-104.698
11
183.335
21
-104.544
0
LINE
8
BLACK
6
CONTINUOUS
10
183.335
20
-104.544
11
183.246
21
-104.37
0
LINE
8
BLACK
6
CONTINUOUS
10
183.246
20
-104.37
11
183.192
21
-104.181
0
LINE
8
BLACK
6
CONTINUOUS
10
183.192
20
-104.181
11
183.175
21
-103.986
0
LINE
8
BLACK
6
CONTINUOUS
10
183.175
20
-103.986
11
183.197
21
-103.791
0
LINE
8
BLACK
6
CONTINUOUS
10
183.197
20
-103.791
11
183.256
21
-103.604
0
LINE
8
BLACK
6
CONTINUOUS
10
183.256
20
-103.604
11
183.351
21
-103.432
0
LINE
8
BLACK
6
CONTINUOUS
10
183.351
20
-103.432
11
183.477
21
-103.282
0
LINE
8
BLACK
6
CONTINUOUS
10
183.477
20
-103.282
11
183.63
21
-103.159
0
LINE
8
BLACK
6
CONTINUOUS
10
183.63
20
-103.159
11
183.804
21
-103.068
0
LINE
8
BLACK
6
CONTINUOUS
10
183.804
20
-103.068
11
183.992
21
-103.013
0
LINE
8
BLACK
6
CONTINUOUS
10
183.992
20
-103.013
11
184.187
21
-102.995
0
LINE
8
BLACK
6
CONTINUOUS
10
184.187
20
-102.995
11
184.382
21
-103.016
0
LINE
8
BLACK
6
CONTINUOUS
10
193.022
20
-103.016
11
193.209
21
-103.074
0
LINE
8
BLACK
6
CONTINUOUS
10
193.209
20
-103.074
11
193.382
21
-103.167
0
LINE
8
BLACK
6
CONTINUOUS
10
193.382
20
-103.167
11
193.533
21
-103.292
0
LINE
8
BLACK
6
CONTINUOUS
10
193.533
20
-103.292
11
193.657
21
-103.444
0
LINE
8
BLACK
6
CONTINUOUS
10
193.657
20
-103.444
11
193.749
21
-103.617
0
LINE
8
BLACK
6
CONTINUOUS
10
193.749
20
-103.617
11
193.806
21
-103.805
0
LINE
8
BLACK
6
CONTINUOUS
10
193.806
20
-103.805
11
193.825
21
-104
0
LINE
8
BLACK
6
CONTINUOUS
10
193.825
20
-104
11
193.825
21
-104.028
0
LINE
8
BLACK
6
CONTINUOUS
10
193.825
20
-104.028
11
193.8
21
-104.223
0
LINE
8
BLACK
6
CONTINUOUS
10
193.8
20
-104.223
11
193.738
21
-104.409
0
LINE
8
BLACK
6
CONTINUOUS
10
193.738
20
-104.409
11
193.641
21
-104.579
0
LINE
8
BLACK
6
CONTINUOUS
10
193.641
20
-104.579
11
193.513
21
-104.728
0
LINE
8
BLACK
6
CONTINUOUS
10
193.513
20
-104.728
11
193.359
21
-104.849
0
LINE
8
BLACK
6
CONTINUOUS
10
193.359
20
-104.849
11
193.183
21
-104.937
0
LINE
8
BLACK
6
CONTINUOUS
10
193.183
20
-104.937
11
192.995
21
-104.99
0
LINE
8
BLACK
6
CONTINUOUS
10
192.995
20
-104.99
11
192.799
21
-105.005
0
LINE
8
BLACK
6
CONTINUOUS
10
192.799
20
-105.005
11
192.604
21
-104.982
0
LINE
8
BLACK
6
CONTINUOUS
10
192.604
20
-104.982
11
192.418
21
-104.921
0
LINE
8
BLACK
6
CONTINUOUS
10
192.418
20
-104.921
11
192.246
21
-104.825
0
LINE
8
BLACK
6
CONTINUOUS
10
192.246
20
-104.825
11
192.097
21
-104.698
0
LINE
8
BLACK
6
CONTINUOUS
10
192.097
20
-104.698
11
191.975
21
-104.544
0
LINE
8
BLACK
6
CONTINUOUS
10
191.975
20
-104.544
11
191.886
21
-104.37
0
LINE
8
BLACK
6
CONTINUOUS
10
191.886
20
-104.37
11
191.832
21
-104.181
0
LINE
8
BLACK
6
CONTINUOUS
10
191.832
20
-104.181
11
191.815
21
-103.986
0
LINE
8
BLACK
6
CONTINUOUS
10
191.815
20
-103.986
11
191.837
21
-103.791
0
LINE
8
BLACK
6
CONTINUOUS
10
191.837
20
-103.791
11
191.896
21
-103.604
0
LINE
8
BLACK
6
CONTINUOUS
10
191.896
20
-103.604
11
191.991
21
-103.432
0
LINE
8
BLACK
6
CONTINUOUS
10
191.991
20
-103.432
11
192.117
21
-103.282
0
LINE
8
BLACK
6
CONTINUOUS
10
192.117
20
-103.282
11
192.27
21
-103.159
0
LINE
8
BLACK
6
CONTINUOUS
10
192.27
20
-103.159
11
192.444
21
-103.068
0
LINE
8
BLACK
6
CONTINUOUS
10
192.444
20
-103.068
11
192.632
21
-103.013
0
LINE
8
BLACK
6
CONTINUOUS
10
192.632
20
-103.013
11
192.827
21
-102.995
0
LINE
8
BLACK
6
CONTINUOUS
10
192.827
20
-102.995
11
193.022
21
-103.016
0
LINE
8
BLACK
6
CONTINUOUS
10
177.688
20
-90.7611
11
177.856
21
-90.821
0
LINE
8
BLACK
6
CONTINUOUS
10
177.856
20
-90.821
11
178.006
21
-90.9165
0
LINE
8
BLACK
6
CONTINUOUS
10
178.006
20
-90.9165
11
178.132
21
-91.0431
0
LINE
8
BLACK
6
CONTINUOUS
10
178.132
20
-91.0431
11
178.226
21
-91.1943
0
LINE
8
BLACK
6
CONTINUOUS
10
178.226
20
-91.1943
11
178.285
21
-91.3628
0
LINE
8
BLACK
6
CONTINUOUS
10
178.285
20
-91.3628
11
178.305
21
-91.54
0
LINE
8
BLACK
6
CONTINUOUS
10
178.305
20
-91.54
11
178.305
21
-91.5623
0
LINE
8
BLACK
6
CONTINUOUS
10
178.305
20
-91.5623
11
178.28
21
-91.739
0
LINE
8
BLACK
6
CONTINUOUS
10
178.28
20
-91.739
11
178.217
21
-91.9057
0
LINE
8
BLACK
6
CONTINUOUS
10
178.217
20
-91.9057
11
178.118
21
-92.0542
0
LINE
8
BLACK
6
CONTINUOUS
10
178.118
20
-92.0542
11
177.989
21
-92.1772
0
LINE
8
BLACK
6
CONTINUOUS
10
177.989
20
-92.1772
11
177.835
21
-92.2685
0
LINE
8
BLACK
6
CONTINUOUS
10
177.835
20
-92.2685
11
177.666
21
-92.3237
0
LINE
8
BLACK
6
CONTINUOUS
10
177.666
20
-92.3237
11
177.488
21
-92.3398
0
LINE
8
BLACK
6
CONTINUOUS
10
177.488
20
-92.3398
11
177.311
21
-92.3162
0
LINE
8
BLACK
6
CONTINUOUS
10
177.311
20
-92.3162
11
177.144
21
-92.2541
0
LINE
8
BLACK
6
CONTINUOUS
10
177.144
20
-92.2541
11
176.995
21
-92.1564
0
LINE
8
BLACK
6
CONTINUOUS
10
176.995
20
-92.1564
11
176.871
21
-92.0281
0
LINE
8
BLACK
6
CONTINUOUS
10
176.871
20
-92.0281
11
176.779
21
-91.8756
0
LINE
8
BLACK
6
CONTINUOUS
10
176.779
20
-91.8756
11
176.722
21
-91.7063
0
LINE
8
BLACK
6
CONTINUOUS
10
176.722
20
-91.7063
11
176.705
21
-91.5288
0
LINE
8
BLACK
6
CONTINUOUS
10
176.705
20
-91.5288
11
176.727
21
-91.3519
0
LINE
8
BLACK
6
CONTINUOUS
10
176.727
20
-91.3519
11
176.788
21
-91.1843
0
LINE
8
BLACK
6
CONTINUOUS
10
176.788
20
-91.1843
11
176.885
21
-91.0344
0
LINE
8
BLACK
6
CONTINUOUS
10
176.885
20
-91.0344
11
177.012
21
-90.9096
0
LINE
8
BLACK
6
CONTINUOUS
10
177.012
20
-90.9096
11
177.164
21
-90.8161
0
LINE
8
BLACK
6
CONTINUOUS
10
177.164
20
-90.8161
11
177.333
21
-90.7587
0
LINE
8
BLACK
6
CONTINUOUS
10
177.333
20
-90.7587
11
177.511
21
-90.74
0
LINE
8
BLACK
6
CONTINUOUS
10
177.511
20
-90.74
11
177.688
21
-90.7611
0
LINE
8
BLACK
6
CONTINUOUS
10
189.841
20
-90.5431
11
189.918
21
-90.5946
0
LINE
8
BLACK
6
CONTINUOUS
10
189.918
20
-90.5946
11
189.969
21
-90.6716
0
LINE
8
BLACK
6
CONTINUOUS
10
189.969
20
-90.6716
11
189.987
21
-90.7625
0
LINE
8
BLACK
6
CONTINUOUS
10
189.987
20
-90.7625
11
189.987
21
-91.2375
0
LINE
8
BLACK
6
CONTINUOUS
10
189.987
20
-91.2375
11
189.969
21
-91.3284
0
LINE
8
BLACK
6
CONTINUOUS
10
189.969
20
-91.3284
11
189.918
21
-91.4054
0
LINE
8
BLACK
6
CONTINUOUS
10
189.918
20
-91.4054
11
189.841
21
-91.4569
0
LINE
8
BLACK
6
CONTINUOUS
10
189.841
20
-91.4569
11
189.75
21
-91.475
0
LINE
8
BLACK
6
CONTINUOUS
10
189.75
20
-91.475
11
189.25
21
-91.475
0
LINE
8
BLACK
6
CONTINUOUS
10
189.25
20
-91.475
11
189.159
21
-91.4569
0
LINE
8
BLACK
6
CONTINUOUS
10
189.159
20
-91.4569
11
189.082
21
-91.4054
0
LINE
8
BLACK
6
CONTINUOUS
10
189.082
20
-91.4054
11
189.031
21
-91.3284
0
LINE
8
BLACK
6
CONTINUOUS
10
189.031
20
-91.3284
11
189.012
21
-91.2375
0
LINE
8
BLACK
6
CONTINUOUS
10
189.012
20
-91.2375
11
189.012
21
-90.7625
0
LINE
8
BLACK
6
CONTINUOUS
10
189.012
20
-90.7625
11
189.031
21
-90.6716
0
LINE
8
BLACK
6
CONTINUOUS
10
189.031
20
-90.6716
11
189.082
21
-90.5946
0
LINE
8
BLACK
6
CONTINUOUS
10
189.082
20
-90.5946
11
189.159
21
-90.5431
0
LINE
8
BLACK
6
CONTINUOUS
10
189.159
20
-90.5431
11
189.25
21
-90.525
0
LINE
8
BLACK
6
CONTINUOUS
10
189.25
20
-90.525
11
189.75
21
-90.525
0
LINE
8
BLACK
6
CONTINUOUS
10
189.75
20
-90.525
11
189.841
21
-90.5431
0
LINE
8
BLACK
6
CONTINUOUS
10
188.016
20
-90.5431
11
188.093
21
-90.5946
0
LINE
8
BLACK
6
CONTINUOUS
10
188.093
20
-90.5946
11
188.144
21
-90.6716
0
LINE
8
BLACK
6
CONTINUOUS
10
188.144
20
-90.6716
11
188.162
21
-90.7625
0
LINE
8
BLACK
6
CONTINUOUS
10
188.162
20
-90.7625
11
188.162
21
-91.2375
0
LINE
8
BLACK
6
CONTINUOUS
10
188.162
20
-91.2375
11
188.144
21
-91.3284
0
LINE
8
BLACK
6
CONTINUOUS
10
188.144
20
-91.3284
11
188.093
21
-91.4054
0
LINE
8
BLACK
6
CONTINUOUS
10
188.093
20
-91.4054
11
188.016
21
-91.4569
0
LINE
8
BLACK
6
CONTINUOUS
10
188.016
20
-91.4569
11
187.925
21
-91.475
0
LINE
8
BLACK
6
CONTINUOUS
10
187.925
20
-91.475
11
187.425
21
-91.475
0
LINE
8
BLACK
6
CONTINUOUS
10
187.425
20
-91.475
11
187.334
21
-91.4569
0
LINE
8
BLACK
6
CONTINUOUS
10
187.334
20
-91.4569
11
187.257
21
-91.4054
0
LINE
8
BLACK
6
CONTINUOUS
10
187.257
20
-91.4054
11
187.206
21
-91.3284
0
LINE
8
BLACK
6
CONTINUOUS
10
187.206
20
-91.3284
11
187.188
21
-91.2375
0
LINE
8
BLACK
6
CONTINUOUS
10
187.188
20
-91.2375
11
187.188
21
-90.7625
0
LINE
8
BLACK
6
CONTINUOUS
10
187.188
20
-90.7625
11
187.206
21
-90.6716
0
LINE
8
BLACK
6
CONTINUOUS
10
187.206
20
-90.6716
11
187.257
21
-90.5946
0
LINE
8
BLACK
6
CONTINUOUS
10
187.257
20
-90.5946
11
187.334
21
-90.5431
0
LINE
8
BLACK
6
CONTINUOUS
10
187.334
20
-90.5431
11
187.425
21
-90.525
0
LINE
8
BLACK
6
CONTINUOUS
10
187.425
20
-90.525
11
187.925
21
-90.525
0
LINE
8
BLACK
6
CONTINUOUS
10
187.925
20
-90.525
11
188.016
21
-90.5431
0
LINE
8
BLACK
6
CONTINUOUS
10
177.688
20
-88.2211
11
177.856
21
-88.281
0
LINE
8
BLACK
6
CONTINUOUS
10
177.856
20
-88.281
11
178.006
21
-88.3765
0
LINE
8
BLACK
6
CONTINUOUS
10
178.006
20
-88.3765
11
178.132
21
-88.5031
0
LINE
8
BLACK
6
CONTINUOUS
10
178.132
20
-88.5031
11
178.226
21
-88.6543
0
LINE
8
BLACK
6
CONTINUOUS
10
178.226
20
-88.6543
11
178.285
21
-88.8228
0
LINE
8
BLACK
6
CONTINUOUS
10
178.285
20
-88.8228
11
178.305
21
-89
0
LINE
8
BLACK
6
CONTINUOUS
10
178.305
20
-89
11
178.305
21
-89.0223
0
LINE
8
BLACK
6
CONTINUOUS
10
178.305
20
-89.0223
11
178.28
21
-89.199
0
LINE
8
BLACK
6
CONTINUOUS
10
178.28
20
-89.199
11
178.217
21
-89.3657
0
LINE
8
BLACK
6
CONTINUOUS
10
178.217
20
-89.3657
11
178.118
21
-89.5142
0
LINE
8
BLACK
6
CONTINUOUS
10
178.118
20
-89.5142
11
177.989
21
-89.6372
0
LINE
8
BLACK
6
CONTINUOUS
10
177.989
20
-89.6372
11
177.835
21
-89.7285
0
LINE
8
BLACK
6
CONTINUOUS
10
177.835
20
-89.7285
11
177.666
21
-89.7837
0
LINE
8
BLACK
6
CONTINUOUS
10
177.666
20
-89.7837
11
177.488
21
-89.7998
0
LINE
8
BLACK
6
CONTINUOUS
10
177.488
20
-89.7998
11
177.311
21
-89.7762
0
LINE
8
BLACK
6
CONTINUOUS
10
177.311
20
-89.7762
11
177.144
21
-89.7141
0
LINE
8
BLACK
6
CONTINUOUS
10
177.144
20
-89.7141
11
176.995
21
-89.6164
0
LINE
8
BLACK
6
CONTINUOUS
10
176.995
20
-89.6164
11
176.871
21
-89.4881
0
LINE
8
BLACK
6
CONTINUOUS
10
176.871
20
-89.4881
11
176.779
21
-89.3356
0
LINE
8
BLACK
6
CONTINUOUS
10
176.779
20
-89.3356
11
176.722
21
-89.1663
0
LINE
8
BLACK
6
CONTINUOUS
10
176.722
20
-89.1663
11
176.705
21
-88.9888
0
LINE
8
BLACK
6
CONTINUOUS
10
176.705
20
-88.9888
11
176.727
21
-88.8119
0
LINE
8
BLACK
6
CONTINUOUS
10
176.727
20
-88.8119
11
176.788
21
-88.6443
0
LINE
8
BLACK
6
CONTINUOUS
10
176.788
20
-88.6443
11
176.885
21
-88.4944
0
LINE
8
BLACK
6
CONTINUOUS
10
176.885
20
-88.4944
11
177.012
21
-88.3696
0
LINE
8
BLACK
6
CONTINUOUS
10
177.012
20
-88.3696
11
177.164
21
-88.2761
0
LINE
8
BLACK
6
CONTINUOUS
10
177.164
20
-88.2761
11
177.333
21
-88.2187
0
LINE
8
BLACK
6
CONTINUOUS
10
177.333
20
-88.2187
11
177.511
21
-88.2
0
LINE
8
BLACK
6
CONTINUOUS
10
177.511
20
-88.2
11
177.688
21
-88.2211
0
LINE
8
BLACK
6
CONTINUOUS
10
190.63
20
-87.775
11
189.07
21
-87.775
0
LINE
8
BLACK
6
CONTINUOUS
10
189.07
20
-87.775
11
189.07
21
-87.125
0
LINE
8
BLACK
6
CONTINUOUS
10
189.07
20
-87.125
11
190.63
21
-87.125
0
LINE
8
BLACK
6
CONTINUOUS
10
190.63
20
-87.125
11
190.63
21
-87.775
0
LINE
8
BLACK
6
CONTINUOUS
10
187.93
20
-87.775
11
186.37
21
-87.775
0
LINE
8
BLACK
6
CONTINUOUS
10
186.37
20
-87.775
11
186.37
21
-87.125
0
LINE
8
BLACK
6
CONTINUOUS
10
186.37
20
-87.125
11
187.93
21
-87.125
0
LINE
8
BLACK
6
CONTINUOUS
10
187.93
20
-87.125
11
187.93
21
-87.775
0
LINE
8
BLACK
6
CONTINUOUS
10
193.707
20
-87.1614
11
193.756
21
-87.1939
0
LINE
8
BLACK
6
CONTINUOUS
10
193.756
20
-87.1939
11
193.789
21
-87.2426
0
LINE
8
BLACK
6
CONTINUOUS
10
193.789
20
-87.2426
11
193.8
21
-87.3
0
LINE
8
BLACK
6
CONTINUOUS
10
193.8
20
-87.3
11
193.8
21
-87.6
0
LINE
8
BLACK
6
CONTINUOUS
10
193.8
20
-87.6
11
193.789
21
-87.6574
0
LINE
8
BLACK
6
CONTINUOUS
10
193.789
20
-87.6574
11
193.756
21
-87.7061
0
LINE
8
BLACK
6
CONTINUOUS
10
193.756
20
-87.7061
11
193.707
21
-87.7386
0
LINE
8
BLACK
6
CONTINUOUS
10
193.707
20
-87.7386
11
193.65
21
-87.75
0
LINE
8
BLACK
6
CONTINUOUS
10
193.65
20
-87.75
11
192.475
21
-87.75
0
LINE
8
BLACK
6
CONTINUOUS
10
192.475
20
-87.75
11
192.418
21
-87.7386
0
LINE
8
BLACK
6
CONTINUOUS
10
192.418
20
-87.7386
11
192.369
21
-87.7061
0
LINE
8
BLACK
6
CONTINUOUS
10
192.369
20
-87.7061
11
192.336
21
-87.6574
0
LINE
8
BLACK
6
CONTINUOUS
10
192.336
20
-87.6574
11
192.325
21
-87.6
0
LINE
8
BLACK
6
CONTINUOUS
10
192.325
20
-87.6
11
192.325
21
-87.3
0
LINE
8
BLACK
6
CONTINUOUS
10
192.325
20
-87.3
11
192.336
21
-87.2426
0
LINE
8
BLACK
6
CONTINUOUS
10
192.336
20
-87.2426
11
192.369
21
-87.1939
0
LINE
8
BLACK
6
CONTINUOUS
10
192.369
20
-87.1939
11
192.418
21
-87.1614
0
LINE
8
BLACK
6
CONTINUOUS
10
192.418
20
-87.1614
11
192.475
21
-87.15
0
LINE
8
BLACK
6
CONTINUOUS
10
192.475
20
-87.15
11
193.65
21
-87.15
0
LINE
8
BLACK
6
CONTINUOUS
10
193.65
20
-87.15
11
193.707
21
-87.1614
0
LINE
8
BLACK
6
CONTINUOUS
10
190.63
20
-86.825
11
189.07
21
-86.825
0
LINE
8
BLACK
6
CONTINUOUS
10
189.07
20
-86.825
11
189.07
21
-86.175
0
LINE
8
BLACK
6
CONTINUOUS
10
189.07
20
-86.175
11
190.63
21
-86.175
0
LINE
8
BLACK
6
CONTINUOUS
10
190.63
20
-86.175
11
190.63
21
-86.825
0
LINE
8
BLACK
6
CONTINUOUS
10
187.93
20
-86.825
11
186.37
21
-86.825
0
LINE
8
BLACK
6
CONTINUOUS
10
186.37
20
-86.825
11
186.37
21
-86.175
0
LINE
8
BLACK
6
CONTINUOUS
10
186.37
20
-86.175
11
187.93
21
-86.175
0
LINE
8
BLACK
6
CONTINUOUS
10
187.93
20
-86.175
11
187.93
21
-86.825
0
LINE
8
BLACK
6
CONTINUOUS
10
195.582
20
-86.2114
11
195.631
21
-86.2439
0
LINE
8
BLACK
6
CONTINUOUS
10
195.631
20
-86.2439
11
195.664
21
-86.2926
0
LINE
8
BLACK
6
CONTINUOUS
10
195.664
20
-86.2926
11
195.675
21
-86.35
0
LINE
8
BLACK
6
CONTINUOUS
10
195.675
20
-86.35
11
195.675
21
-86.65
0
LINE
8
BLACK
6
CONTINUOUS
10
195.675
20
-86.65
11
195.664
21
-86.7074
0
LINE
8
BLACK
6
CONTINUOUS
10
195.664
20
-86.7074
11
195.631
21
-86.7561
0
LINE
8
BLACK
6
CONTINUOUS
10
195.631
20
-86.7561
11
195.582
21
-86.7886
0
LINE
8
BLACK
6
CONTINUOUS
10
195.582
20
-86.7886
11
195.525
21
-86.8
0
LINE
8
BLACK
6
CONTINUOUS
10
195.525
20
-86.8
11
194.35
21
-86.8
0
LINE
8
BLACK
6
CONTINUOUS
10
194.35
20
-86.8
11
194.293
21
-86.7886
0
LINE
8
BLACK
6
CONTINUOUS
10
194.293
20
-86.7886
11
194.244
21
-86.7561
0
LINE
8
BLACK
6
CONTINUOUS
10
194.244
20
-86.7561
11
194.211
21
-86.7074
0
LINE
8
BLACK
6
CONTINUOUS
10
194.211
20
-86.7074
11
194.2
21
-86.65
0
LINE
8
BLACK
6
CONTINUOUS
10
194.2
20
-86.65
11
194.2
21
-86.35
0
LINE
8
BLACK
6
CONTINUOUS
10
194.2
20
-86.35
11
194.211
21
-86.2926
0
LINE
8
BLACK
6
CONTINUOUS
10
194.211
20
-86.2926
11
194.244
21
-86.2439
0
LINE
8
BLACK
6
CONTINUOUS
10
194.244
20
-86.2439
11
194.293
21
-86.2114
0
LINE
8
BLACK
6
CONTINUOUS
10
194.293
20
-86.2114
11
194.35
21
-86.2
0
LINE
8
BLACK
6
CONTINUOUS
10
194.35
20
-86.2
11
195.525
21
-86.2
0
LINE
8
BLACK
6
CONTINUOUS
10
195.525
20
-86.2
11
195.582
21
-86.2114
0
LINE
8
BLACK
6
CONTINUOUS
10
190.63
20
-85.875
11
189.07
21
-85.875
0
LINE
8
BLACK
6
CONTINUOUS
10
189.07
20
-85.875
11
189.07
21
-85.225
0
LINE
8
BLACK
6
CONTINUOUS
10
189.07
20
-85.225
11
190.63
21
-85.225
0
LINE
8
BLACK
6
CONTINUOUS
10
190.63
20
-85.225
11
190.63
21
-85.875
0
LINE
8
BLACK
6
CONTINUOUS
10
187.93
20
-85.875
11
186.37
21
-85.875
0
LINE
8
BLACK
6
CONTINUOUS
10
186.37
20
-85.875
11
186.37
21
-85.225
0
LINE
8
BLACK
6
CONTINUOUS
10
186.37
20
-85.225
11
187.93
21
-85.225
0
LINE
8
BLACK
6
CONTINUOUS
10
187.93
20
-85.225
11
187.93
21
-85.875
0
LINE
8
BLACK
6
CONTINUOUS
10
193.707
20
-85.2614
11
193.756
21
-85.2939
0
LINE
8
BLACK
6
CONTINUOUS
10
193.756
20
-85.2939
11
193.789
21
-85.3426
0
LINE
8
BLACK
6
CONTINUOUS
10
193.789
20
-85.3426
11
193.8
21
-85.4
0
LINE
8
BLACK
6
CONTINUOUS
10
193.8
20
-85.4
11
193.8
21
-85.7
0
LINE
8
BLACK
6
CONTINUOUS
10
193.8
20
-85.7
11
193.789
21
-85.7574
0
LINE
8
BLACK
6
CONTINUOUS
10
193.789
20
-85.7574
11
193.756
21
-85.8061
0
LINE
8
BLACK
6
CONTINUOUS
10
193.756
20
-85.8061
11
193.707
21
-85.8386
0
LINE
8
BLACK
6
CONTINUOUS
10
193.707
20
-85.8386
11
193.65
21
-85.85
0
LINE
8
BLACK
6
CONTINUOUS
10
193.65
20
-85.85
11
192.475
21
-85.85
0
LINE
8
BLACK
6
CONTINUOUS
10
192.475
20
-85.85
11
192.418
21
-85.8386
0
LINE
8
BLACK
6
CONTINUOUS
10
192.418
20
-85.8386
11
192.369
21
-85.8061
0
LINE
8
BLACK
6
CONTINUOUS
10
192.369
20
-85.8061
11
192.336
21
-85.7574
0
LINE
8
BLACK
6
CONTINUOUS
10
192.336
20
-85.7574
11
192.325
21
-85.7
0
LINE
8
BLACK
6
CONTINUOUS
10
192.325
20
-85.7
11
192.325
21
-85.4
0
LINE
8
BLACK
6
CONTINUOUS
10
192.325
20
-85.4
11
192.336
21
-85.3426
0
LINE
8
BLACK
6
CONTINUOUS
10
192.336
20
-85.3426
11
192.369
21
-85.2939
0
LINE
8
BLACK
6
CONTINUOUS
10
192.369
20
-85.2939
11
192.418
21
-85.2614
0
LINE
8
BLACK
6
CONTINUOUS
10
192.418
20
-85.2614
11
192.475
21
-85.25
0
LINE
8
BLACK
6
CONTINUOUS
10
192.475
20
-85.25
11
193.65
21
-85.25
0
LINE
8
BLACK
6
CONTINUOUS
10
193.65
20
-85.25
11
193.707
21
-85.2614
0
LINE
8
BLACK
6
CONTINUOUS
10
188.207
20
-82.1614
11
188.256
21
-82.1939
0
LINE
8
BLACK
6
CONTINUOUS
10
188.256
20
-82.1939
11
188.289
21
-82.2426
0
LINE
8
BLACK
6
CONTINUOUS
10
188.289
20
-82.2426
11
188.3
21
-82.3
0
LINE
8
BLACK
6
CONTINUOUS
10
188.3
20
-82.3
11
188.3
21
-82.6
0
LINE
8
BLACK
6
CONTINUOUS
10
188.3
20
-82.6
11
188.289
21
-82.6574
0
LINE
8
BLACK
6
CONTINUOUS
10
188.289
20
-82.6574
11
188.256
21
-82.7061
0
LINE
8
BLACK
6
CONTINUOUS
10
188.256
20
-82.7061
11
188.207
21
-82.7386
0
LINE
8
BLACK
6
CONTINUOUS
10
188.207
20
-82.7386
11
188.15
21
-82.75
0
LINE
8
BLACK
6
CONTINUOUS
10
188.15
20
-82.75
11
186.975
21
-82.75
0
LINE
8
BLACK
6
CONTINUOUS
10
186.975
20
-82.75
11
186.918
21
-82.7386
0
LINE
8
BLACK
6
CONTINUOUS
10
186.918
20
-82.7386
11
186.869
21
-82.7061
0
LINE
8
BLACK
6
CONTINUOUS
10
186.869
20
-82.7061
11
186.836
21
-82.6574
0
LINE
8
BLACK
6
CONTINUOUS
10
186.836
20
-82.6574
11
186.825
21
-82.6
0
LINE
8
BLACK
6
CONTINUOUS
10
186.825
20
-82.6
11
186.825
21
-82.3
0
LINE
8
BLACK
6
CONTINUOUS
10
186.825
20
-82.3
11
186.836
21
-82.2426
0
LINE
8
BLACK
6
CONTINUOUS
10
186.836
20
-82.2426
11
186.869
21
-82.1939
0
LINE
8
BLACK
6
CONTINUOUS
10
186.869
20
-82.1939
11
186.918
21
-82.1614
0
LINE
8
BLACK
6
CONTINUOUS
10
186.918
20
-82.1614
11
186.975
21
-82.15
0
LINE
8
BLACK
6
CONTINUOUS
10
186.975
20
-82.15
11
188.15
21
-82.15
0
LINE
8
BLACK
6
CONTINUOUS
10
188.15
20
-82.15
11
188.207
21
-82.1614
0
LINE
8
BLACK
6
CONTINUOUS
10
190.082
20
-81.2114
11
190.131
21
-81.2439
0
LINE
8
BLACK
6
CONTINUOUS
10
190.131
20
-81.2439
11
190.164
21
-81.2926
0
LINE
8
BLACK
6
CONTINUOUS
10
190.164
20
-81.2926
11
190.175
21
-81.35
0
LINE
8
BLACK
6
CONTINUOUS
10
190.175
20
-81.35
11
190.175
21
-81.65
0
LINE
8
BLACK
6
CONTINUOUS
10
190.175
20
-81.65
11
190.164
21
-81.7074
0
LINE
8
BLACK
6
CONTINUOUS
10
190.164
20
-81.7074
11
190.131
21
-81.7561
0
LINE
8
BLACK
6
CONTINUOUS
10
190.131
20
-81.7561
11
190.082
21
-81.7886
0
LINE
8
BLACK
6
CONTINUOUS
10
190.082
20
-81.7886
11
190.025
21
-81.8
0
LINE
8
BLACK
6
CONTINUOUS
10
190.025
20
-81.8
11
188.85
21
-81.8
0
LINE
8
BLACK
6
CONTINUOUS
10
188.85
20
-81.8
11
188.793
21
-81.7886
0
LINE
8
BLACK
6
CONTINUOUS
10
188.793
20
-81.7886
11
188.744
21
-81.7561
0
LINE
8
BLACK
6
CONTINUOUS
10
188.744
20
-81.7561
11
188.711
21
-81.7074
0
LINE
8
BLACK
6
CONTINUOUS
10
188.711
20
-81.7074
11
188.7
21
-81.65
0
LINE
8
BLACK
6
CONTINUOUS
10
188.7
20
-81.65
11
188.7
21
-81.35
0
LINE
8
BLACK
6
CONTINUOUS
10
188.7
20
-81.35
11
188.711
21
-81.2926
0
LINE
8
BLACK
6
CONTINUOUS
10
188.711
20
-81.2926
11
188.744
21
-81.2439
0
LINE
8
BLACK
6
CONTINUOUS
10
188.744
20
-81.2439
11
188.793
21
-81.2114
0
LINE
8
BLACK
6
CONTINUOUS
10
188.793
20
-81.2114
11
188.85
21
-81.2
0
LINE
8
BLACK
6
CONTINUOUS
10
188.85
20
-81.2
11
190.025
21
-81.2
0
LINE
8
BLACK
6
CONTINUOUS
10
190.025
20
-81.2
11
190.082
21
-81.2114
0
LINE
8
BLACK
6
CONTINUOUS
10
188.207
20
-80.2614
11
188.256
21
-80.2939
0
LINE
8
BLACK
6
CONTINUOUS
10
188.256
20
-80.2939
11
188.289
21
-80.3426
0
LINE
8
BLACK
6
CONTINUOUS
10
188.289
20
-80.3426
11
188.3
21
-80.4
0
LINE
8
BLACK
6
CONTINUOUS
10
188.3
20
-80.4
11
188.3
21
-80.7
0
LINE
8
BLACK
6
CONTINUOUS
10
188.3
20
-80.7
11
188.289
21
-80.7574
0
LINE
8
BLACK
6
CONTINUOUS
10
188.289
20
-80.7574
11
188.256
21
-80.8061
0
LINE
8
BLACK
6
CONTINUOUS
10
188.256
20
-80.8061
11
188.207
21
-80.8386
0
LINE
8
BLACK
6
CONTINUOUS
10
188.207
20
-80.8386
11
188.15
21
-80.85
0
LINE
8
BLACK
6
CONTINUOUS
10
188.15
20
-80.85
11
186.975
21
-80.85
0
LINE
8
BLACK
6
CONTINUOUS
10
186.975
20
-80.85
11
186.918
21
-80.8386
0
LINE
8
BLACK
6
CONTINUOUS
10
186.918
20
-80.8386
11
186.869
21
-80.8061
0
LINE
8
BLACK
6
CONTINUOUS
10
186.869
20
-80.8061
11
186.836
21
-80.7574
0
LINE
8
BLACK
6
CONTINUOUS
10
186.836
20
-80.7574
11
186.825
21
-80.7
0
LINE
8
BLACK
6
CONTINUOUS
10
186.825
20
-80.7
11
186.825
21
-80.4
0
LINE
8
BLACK
6
CONTINUOUS
10
186.825
20
-80.4
11
186.836
21
-80.3426
0
LINE
8
BLACK
6
CONTINUOUS
10
186.836
20
-80.3426
11
186.869
21
-80.2939
0
LINE
8
BLACK
6
CONTINUOUS
10
186.869
20
-80.2939
11
186.918
21
-80.2614
0
LINE
8
BLACK
6
CONTINUOUS
10
186.918
20
-80.2614
11
186.975
21
-80.25
0
LINE
8
BLACK
6
CONTINUOUS
10
186.975
20
-80.25
11
188.15
21
-80.25
0
LINE
8
BLACK
6
CONTINUOUS
10
188.15
20
-80.25
11
188.207
21
-80.2614
0
LINE
8
BLACK
6
CONTINUOUS
10
177.763
20
-77.4566
11
177.925
21
-77.5289
0
LINE
8
BLACK
6
CONTINUOUS
10
177.925
20
-77.5289
11
178.069
21
-77.6333
0
LINE
8
BLACK
6
CONTINUOUS
10
178.069
20
-77.6333
11
178.188
21
-77.7654
0
LINE
8
BLACK
6
CONTINUOUS
10
178.188
20
-77.7654
11
178.277
21
-77.9193
0
LINE
8
BLACK
6
CONTINUOUS
10
178.277
20
-77.9193
11
178.331
21
-78.0883
0
LINE
8
BLACK
6
CONTINUOUS
10
178.331
20
-78.0883
11
178.35
21
-78.265
0
LINE
8
BLACK
6
CONTINUOUS
10
178.35
20
-78.265
11
178.331
21
-78.4417
0
LINE
8
BLACK
6
CONTINUOUS
10
178.331
20
-78.4417
11
178.277
21
-78.6107
0
LINE
8
BLACK
6
CONTINUOUS
10
178.277
20
-78.6107
11
178.188
21
-78.7646
0
LINE
8
BLACK
6
CONTINUOUS
10
178.188
20
-78.7646
11
178.069
21
-78.8967
0
LINE
8
BLACK
6
CONTINUOUS
10
178.069
20
-78.8967
11
177.925
21
-79.0011
0
LINE
8
BLACK
6
CONTINUOUS
10
177.925
20
-79.0011
11
177.763
21
-79.0734
0
LINE
8
BLACK
6
CONTINUOUS
10
177.763
20
-79.0734
11
177.589
21
-79.1103
0
LINE
8
BLACK
6
CONTINUOUS
10
177.589
20
-79.1103
11
177.411
21
-79.1103
0
LINE
8
BLACK
6
CONTINUOUS
10
177.411
20
-79.1103
11
177.237
21
-79.0734
0
LINE
8
BLACK
6
CONTINUOUS
10
177.237
20
-79.0734
11
177.075
21
-79.0011
0
LINE
8
BLACK
6
CONTINUOUS
10
177.075
20
-79.0011
11
176.931
21
-78.8967
0
LINE
8
BLACK
6
CONTINUOUS
10
176.931
20
-78.8967
11
176.812
21
-78.7646
0
LINE
8
BLACK
6
CONTINUOUS
10
176.812
20
-78.7646
11
176.723
21
-78.6107
0
LINE
8
BLACK
6
CONTINUOUS
10
176.723
20
-78.6107
11
176.669
21
-78.4417
0
LINE
8
BLACK
6
CONTINUOUS
10
176.669
20
-78.4417
11
176.65
21
-78.265
0
LINE
8
BLACK
6
CONTINUOUS
10
176.65
20
-78.265
11
176.669
21
-78.0883
0
LINE
8
BLACK
6
CONTINUOUS
10
176.669
20
-78.0883
11
176.723
21
-77.9193
0
LINE
8
BLACK
6
CONTINUOUS
10
176.723
20
-77.9193
11
176.812
21
-77.7654
0
LINE
8
BLACK
6
CONTINUOUS
10
176.812
20
-77.7654
11
176.931
21
-77.6333
0
LINE
8
BLACK
6
CONTINUOUS
10
176.931
20
-77.6333
11
177.075
21
-77.5289
0
LINE
8
BLACK
6
CONTINUOUS
10
177.075
20
-77.5289
11
177.237
21
-77.4566
0
LINE
8
BLACK
6
CONTINUOUS
10
177.237
20
-77.4566
11
177.411
21
-77.4197
0
LINE
8
BLACK
6
CONTINUOUS
10
177.411
20
-77.4197
11
177.589
21
-77.4197
0
LINE
8
BLACK
6
CONTINUOUS
10
177.589
20
-77.4197
11
177.763
21
-77.4566
0
LINE
8
BLACK
6
CONTINUOUS
10
193.253
20
-78.0431
11
193.33
21
-78.0946
0
LINE
8
BLACK
6
CONTINUOUS
10
193.33
20
-78.0946
11
193.382
21
-78.1716
0
LINE
8
BLACK
6
CONTINUOUS
10
193.382
20
-78.1716
11
193.4
21
-78.2625
0
LINE
8
BLACK
6
CONTINUOUS
10
193.4
20
-78.2625
11
193.4
21
-78.7375
0
LINE
8
BLACK
6
CONTINUOUS
10
193.4
20
-78.7375
11
193.382
21
-78.8284
0
LINE
8
BLACK
6
CONTINUOUS
10
193.382
20
-78.8284
11
193.33
21
-78.9054
0
LINE
8
BLACK
6
CONTINUOUS
10
193.33
20
-78.9054
11
193.253
21
-78.9569
0
LINE
8
BLACK
6
CONTINUOUS
10
193.253
20
-78.9569
11
193.162
21
-78.975
0
LINE
8
BLACK
6
CONTINUOUS
10
193.162
20
-78.975
11
192.662
21
-78.975
0
LINE
8
BLACK
6
CONTINUOUS
10
192.662
20
-78.975
11
192.572
21
-78.9569
0
LINE
8
BLACK
6
CONTINUOUS
10
192.572
20
-78.9569
11
192.495
21
-78.9054
0
LINE
8
BLACK
6
CONTINUOUS
10
192.495
20
-78.9054
11
192.443
21
-78.8284
0
LINE
8
BLACK
6
CONTINUOUS
10
192.443
20
-78.8284
11
192.425
21
-78.7375
0
LINE
8
BLACK
6
CONTINUOUS
10
192.425
20
-78.7375
11
192.425
21
-78.2625
0
LINE
8
BLACK
6
CONTINUOUS
10
192.425
20
-78.2625
11
192.443
21
-78.1716
0
LINE
8
BLACK
6
CONTINUOUS
10
192.443
20
-78.1716
11
192.495
21
-78.0946
0
LINE
8
BLACK
6
CONTINUOUS
10
192.495
20
-78.0946
11
192.572
21
-78.0431
0
LINE
8
BLACK
6
CONTINUOUS
10
192.572
20
-78.0431
11
192.662
21
-78.025
0
LINE
8
BLACK
6
CONTINUOUS
10
192.662
20
-78.025
11
193.162
21
-78.025
0
LINE
8
BLACK
6
CONTINUOUS
10
193.162
20
-78.025
11
193.253
21
-78.0431
0
LINE
8
BLACK
6
CONTINUOUS
10
191.428
20
-78.0431
11
191.505
21
-78.0946
0
LINE
8
BLACK
6
CONTINUOUS
10
191.505
20
-78.0946
11
191.557
21
-78.1716
0
LINE
8
BLACK
6
CONTINUOUS
10
191.557
20
-78.1716
11
191.575
21
-78.2625
0
LINE
8
BLACK
6
CONTINUOUS
10
191.575
20
-78.2625
11
191.575
21
-78.7375
0
LINE
8
BLACK
6
CONTINUOUS
10
191.575
20
-78.7375
11
191.557
21
-78.8284
0
LINE
8
BLACK
6
CONTINUOUS
10
191.557
20
-78.8284
11
191.505
21
-78.9054
0
LINE
8
BLACK
6
CONTINUOUS
10
191.505
20
-78.9054
11
191.428
21
-78.9569
0
LINE
8
BLACK
6
CONTINUOUS
10
191.428
20
-78.9569
11
191.337
21
-78.975
0
LINE
8
BLACK
6
CONTINUOUS
10
191.337
20
-78.975
11
190.837
21
-78.975
0
LINE
8
BLACK
6
CONTINUOUS
10
190.837
20
-78.975
11
190.747
21
-78.9569
0
LINE
8
BLACK
6
CONTINUOUS
10
190.747
20
-78.9569
11
190.67
21
-78.9054
0
LINE
8
BLACK
6
CONTINUOUS
10
190.67
20
-78.9054
11
190.618
21
-78.8284
0
LINE
8
BLACK
6
CONTINUOUS
10
190.618
20
-78.8284
11
190.6
21
-78.7375
0
LINE
8
BLACK
6
CONTINUOUS
10
190.6
20
-78.7375
11
190.6
21
-78.2625
0
LINE
8
BLACK
6
CONTINUOUS
10
190.6
20
-78.2625
11
190.618
21
-78.1716
0
LINE
8
BLACK
6
CONTINUOUS
10
190.618
20
-78.1716
11
190.67
21
-78.0946
0
LINE
8
BLACK
6
CONTINUOUS
10
190.67
20
-78.0946
11
190.747
21
-78.0431
0
LINE
8
BLACK
6
CONTINUOUS
10
190.747
20
-78.0431
11
190.837
21
-78.025
0
LINE
8
BLACK
6
CONTINUOUS
10
190.837
20
-78.025
11
191.337
21
-78.025
0
LINE
8
BLACK
6
CONTINUOUS
10
191.337
20
-78.025
11
191.428
21
-78.0431
0
LINE
8
BLACK
6
CONTINUOUS
10
187.753
20
-78.0431
11
187.83
21
-78.0946
0
LINE
8
BLACK
6
CONTINUOUS
10
187.83
20
-78.0946
11
187.882
21
-78.1716
0
LINE
8
BLACK
6
CONTINUOUS
10
187.882
20
-78.1716
11
187.9
21
-78.2625
0
LINE
8
BLACK
6
CONTINUOUS
10
187.9
20
-78.2625
11
187.9
21
-78.7375
0
LINE
8
BLACK
6
CONTINUOUS
10
187.9
20
-78.7375
11
187.882
21
-78.8284
0
LINE
8
BLACK
6
CONTINUOUS
10
187.882
20
-78.8284
11
187.83
21
-78.9054
0
LINE
8
BLACK
6
CONTINUOUS
10
187.83
20
-78.9054
11
187.753
21
-78.9569
0
LINE
8
BLACK
6
CONTINUOUS
10
187.753
20
-78.9569
11
187.662
21
-78.975
0
LINE
8
BLACK
6
CONTINUOUS
10
187.662
20
-78.975
11
187.062
21
-78.975
0
LINE
8
BLACK
6
CONTINUOUS
10
187.062
20
-78.975
11
186.972
21
-78.9569
0
LINE
8
BLACK
6
CONTINUOUS
10
186.972
20
-78.9569
11
186.895
21
-78.9054
0
LINE
8
BLACK
6
CONTINUOUS
10
186.895
20
-78.9054
11
186.843
21
-78.8284
0
LINE
8
BLACK
6
CONTINUOUS
10
186.843
20
-78.8284
11
186.825
21
-78.7375
0
LINE
8
BLACK
6
CONTINUOUS
10
186.825
20
-78.7375
11
186.825
21
-78.2625
0
LINE
8
BLACK
6
CONTINUOUS
10
186.825
20
-78.2625
11
186.843
21
-78.1716
0
LINE
8
BLACK
6
CONTINUOUS
10
186.843
20
-78.1716
11
186.895
21
-78.0946
0
LINE
8
BLACK
6
CONTINUOUS
10
186.895
20
-78.0946
11
186.972
21
-78.0431
0
LINE
8
BLACK
6
CONTINUOUS
10
186.972
20
-78.0431
11
187.062
21
-78.025
0
LINE
8
BLACK
6
CONTINUOUS
10
187.062
20
-78.025
11
187.662
21
-78.025
0
LINE
8
BLACK
6
CONTINUOUS
10
187.662
20
-78.025
11
187.753
21
-78.0431
0
LINE
8
BLACK
6
CONTINUOUS
10
186.028
20
-78.0431
11
186.105
21
-78.0946
0
LINE
8
BLACK
6
CONTINUOUS
10
186.105
20
-78.0946
11
186.157
21
-78.1716
0
LINE
8
BLACK
6
CONTINUOUS
10
186.157
20
-78.1716
11
186.175
21
-78.2625
0
LINE
8
BLACK
6
CONTINUOUS
10
186.175
20
-78.2625
11
186.175
21
-78.7375
0
LINE
8
BLACK
6
CONTINUOUS
10
186.175
20
-78.7375
11
186.157
21
-78.8284
0
LINE
8
BLACK
6
CONTINUOUS
10
186.157
20
-78.8284
11
186.105
21
-78.9054
0
LINE
8
BLACK
6
CONTINUOUS
10
186.105
20
-78.9054
11
186.028
21
-78.9569
0
LINE
8
BLACK
6
CONTINUOUS
10
186.028
20
-78.9569
11
185.938
21
-78.975
0
LINE
8
BLACK
6
CONTINUOUS
10
185.938
20
-78.975
11
185.338
21
-78.975
0
LINE
8
BLACK
6
CONTINUOUS
10
185.338
20
-78.975
11
185.247
21
-78.9569
0
LINE
8
BLACK
6
CONTINUOUS
10
185.247
20
-78.9569
11
185.17
21
-78.9054
0
LINE
8
BLACK
6
CONTINUOUS
10
185.17
20
-78.9054
11
185.118
21
-78.8284
0
LINE
8
BLACK
6
CONTINUOUS
10
185.118
20
-78.8284
11
185.1
21
-78.7375
0
LINE
8
BLACK
6
CONTINUOUS
10
185.1
20
-78.7375
11
185.1
21
-78.2625
0
LINE
8
BLACK
6
CONTINUOUS
10
185.1
20
-78.2625
11
185.118
21
-78.1716
0
LINE
8
BLACK
6
CONTINUOUS
10
185.118
20
-78.1716
11
185.17
21
-78.0946
0
LINE
8
BLACK
6
CONTINUOUS
10
185.17
20
-78.0946
11
185.247
21
-78.0431
0
LINE
8
BLACK
6
CONTINUOUS
10
185.247
20
-78.0431
11
185.338
21
-78.025
0
LINE
8
BLACK
6
CONTINUOUS
10
185.338
20
-78.025
11
185.938
21
-78.025
0
LINE
8
BLACK
6
CONTINUOUS
10
185.938
20
-78.025
11
186.028
21
-78.0431
0
LINE
8
BLACK
6
CONTINUOUS
10
200.263
20
-76.2466
11
200.425
21
-76.3189
0
LINE
8
BLACK
6
CONTINUOUS
10
200.425
20
-76.3189
11
200.569
21
-76.4233
0
LINE
8
BLACK
6
CONTINUOUS
10
200.569
20
-76.4233
11
200.688
21
-76.5554
0
LINE
8
BLACK
6
CONTINUOUS
10
200.688
20
-76.5554
11
200.777
21
-76.7093
0
LINE
8
BLACK
6
CONTINUOUS
10
200.777
20
-76.7093
11
200.831
21
-76.8783
0
LINE
8
BLACK
6
CONTINUOUS
10
200.831
20
-76.8783
11
200.85
21
-77.055
0
LINE
8
BLACK
6
CONTINUOUS
10
200.85
20
-77.055
11
200.831
21
-77.2317
0
LINE
8
BLACK
6
CONTINUOUS
10
200.831
20
-77.2317
11
200.777
21
-77.4007
0
LINE
8
BLACK
6
CONTINUOUS
10
200.777
20
-77.4007
11
200.688
21
-77.5546
0
LINE
8
BLACK
6
CONTINUOUS
10
200.688
20
-77.5546
11
200.569
21
-77.6867
0
LINE
8
BLACK
6
CONTINUOUS
10
200.569
20
-77.6867
11
200.425
21
-77.7911
0
LINE
8
BLACK
6
CONTINUOUS
10
200.425
20
-77.7911
11
200.263
21
-77.8634
0
LINE
8
BLACK
6
CONTINUOUS
10
200.263
20
-77.8634
11
200.089
21
-77.9003
0
LINE
8
BLACK
6
CONTINUOUS
10
200.089
20
-77.9003
11
199.911
21
-77.9003
0
LINE
8
BLACK
6
CONTINUOUS
10
199.911
20
-77.9003
11
199.737
21
-77.8634
0
LINE
8
BLACK
6
CONTINUOUS
10
199.737
20
-77.8634
11
199.575
21
-77.7911
0
LINE
8
BLACK
6
CONTINUOUS
10
199.575
20
-77.7911
11
199.431
21
-77.6867
0
LINE
8
BLACK
6
CONTINUOUS
10
199.431
20
-77.6867
11
199.312
21
-77.5546
0
LINE
8
BLACK
6
CONTINUOUS
10
199.312
20
-77.5546
11
199.223
21
-77.4007
0
LINE
8
BLACK
6
CONTINUOUS
10
199.223
20
-77.4007
11
199.169
21
-77.2317
0
LINE
8
BLACK
6
CONTINUOUS
10
199.169
20
-77.2317
11
199.15
21
-77.055
0
LINE
8
BLACK
6
CONTINUOUS
10
199.15
20
-77.055
11
199.169
21
-76.8783
0
LINE
8
BLACK
6
CONTINUOUS
10
199.169
20
-76.8783
11
199.223
21
-76.7093
0
LINE
8
BLACK
6
CONTINUOUS
10
199.223
20
-76.7093
11
199.312
21
-76.5554
0
LINE
8
BLACK
6
CONTINUOUS
10
199.312
20
-76.5554
11
199.431
21
-76.4233
0
LINE
8
BLACK
6
CONTINUOUS
10
199.431
20
-76.4233
11
199.575
21
-76.3189
0
LINE
8
BLACK
6
CONTINUOUS
10
199.575
20
-76.3189
11
199.737
21
-76.2466
0
LINE
8
BLACK
6
CONTINUOUS
10
199.737
20
-76.2466
11
199.911
21
-76.2097
0
LINE
8
BLACK
6
CONTINUOUS
10
199.911
20
-76.2097
11
200.089
21
-76.2097
0
LINE
8
BLACK
6
CONTINUOUS
10
200.089
20
-76.2097
11
200.263
21
-76.2466
0
LINE
8
BLACK
6
CONTINUOUS
10
178.35
20
-76.575
11
176.65
21
-76.575
0
LINE
8
BLACK
6
CONTINUOUS
10
176.65
20
-76.575
11
176.65
21
-74.875
0
LINE
8
BLACK
6
CONTINUOUS
10
176.65
20
-74.875
11
178.35
21
-74.875
0
LINE
8
BLACK
6
CONTINUOUS
10
178.35
20
-74.875
11
178.35
21
-76.575
0
LINE
8
BLACK
6
CONTINUOUS
10
200.263
20
-73.7066
11
200.425
21
-73.7789
0
LINE
8
BLACK
6
CONTINUOUS
10
200.425
20
-73.7789
11
200.569
21
-73.8833
0
LINE
8
BLACK
6
CONTINUOUS
10
200.569
20
-73.8833
11
200.688
21
-74.0154
0
LINE
8
BLACK
6
CONTINUOUS
10
200.688
20
-74.0154
11
200.777
21
-74.1693
0
LINE
8
BLACK
6
CONTINUOUS
10
200.777
20
-74.1693
11
200.831
21
-74.3383
0
LINE
8
BLACK
6
CONTINUOUS
10
200.831
20
-74.3383
11
200.85
21
-74.515
0
LINE
8
BLACK
6
CONTINUOUS
10
200.85
20
-74.515
11
200.831
21
-74.6917
0
LINE
8
BLACK
6
CONTINUOUS
10
200.831
20
-74.6917
11
200.777
21
-74.8607
0
LINE
8
BLACK
6
CONTINUOUS
10
200.777
20
-74.8607
11
200.688
21
-75.0146
0
LINE
8
BLACK
6
CONTINUOUS
10
200.688
20
-75.0146
11
200.569
21
-75.1467
0
LINE
8
BLACK
6
CONTINUOUS
10
200.569
20
-75.1467
11
200.425
21
-75.2511
0
LINE
8
BLACK
6
CONTINUOUS
10
200.425
20
-75.2511
11
200.263
21
-75.3234
0
LINE
8
BLACK
6
CONTINUOUS
10
200.263
20
-75.3234
11
200.089
21
-75.3603
0
LINE
8
BLACK
6
CONTINUOUS
10
200.089
20
-75.3603
11
199.911
21
-75.3603
0
LINE
8
BLACK
6
CONTINUOUS
10
199.911
20
-75.3603
11
199.737
21
-75.3234
0
LINE
8
BLACK
6
CONTINUOUS
10
199.737
20
-75.3234
11
199.575
21
-75.2511
0
LINE
8
BLACK
6
CONTINUOUS
10
199.575
20
-75.2511
11
199.431
21
-75.1467
0
LINE
8
BLACK
6
CONTINUOUS
10
199.431
20
-75.1467
11
199.312
21
-75.0146
0
LINE
8
BLACK
6
CONTINUOUS
10
199.312
20
-75.0146
11
199.223
21
-74.8607
0
LINE
8
BLACK
6
CONTINUOUS
10
199.223
20
-74.8607
11
199.169
21
-74.6917
0
LINE
8
BLACK
6
CONTINUOUS
10
199.169
20
-74.6917
11
199.15
21
-74.515
0
LINE
8
BLACK
6
CONTINUOUS
10
199.15
20
-74.515
11
199.169
21
-74.3383
0
LINE
8
BLACK
6
CONTINUOUS
10
199.169
20
-74.3383
11
199.223
21
-74.1693
0
LINE
8
BLACK
6
CONTINUOUS
10
199.223
20
-74.1693
11
199.312
21
-74.0154
0
LINE
8
BLACK
6
CONTINUOUS
10
199.312
20
-74.0154
11
199.431
21
-73.8833
0
LINE
8
BLACK
6
CONTINUOUS
10
199.431
20
-73.8833
11
199.575
21
-73.7789
0
LINE
8
BLACK
6
CONTINUOUS
10
199.575
20
-73.7789
11
199.737
21
-73.7066
0
LINE
8
BLACK
6
CONTINUOUS
10
199.737
20
-73.7066
11
199.911
21
-73.6697
0
LINE
8
BLACK
6
CONTINUOUS
10
199.911
20
-73.6697
11
200.089
21
-73.6697
0
LINE
8
BLACK
6
CONTINUOUS
10
200.089
20
-73.6697
11
200.263
21
-73.7066
0
LINE
8
BLACK
6
CONTINUOUS
10
200.85
20
-72.825
11
199.15
21
-72.825
0
LINE
8
BLACK
6
CONTINUOUS
10
199.15
20
-72.825
11
199.15
21
-71.125
0
LINE
8
BLACK
6
CONTINUOUS
10
199.15
20
-71.125
11
200.85
21
-71.125
0
LINE
8
BLACK
6
CONTINUOUS
10
200.85
20
-71.125
11
200.85
21
-72.825
  0
ENDSEC
  0
EOF
