  0
SECTION
  2
HEADER
  9
$ANGBASE
  50
0.0
  9
$ANGDIR
  70
1
  9
$MEASUREMENT
  70
1
  0
ENDSEC
  0
SECTION
  2
TABLES
  0
TABLE
  2
LTYPE
  70
4
  0
LTYPE
  5
40F
  2
CONTINUOUS
  70
0
  3
Solid line
  72
65
  73
0
  40
0.0
  0
LTYPE
  5
410
  2
DASHDOT
 70
0
  3
Dash Dot ____ _ ____ _
 72
65
 73
4
 40
2.0
 49
1.25
 49
-0.25
 49
0.25
 49
-0.25
  0
LTYPE
  5
411
  2
DASHED
 70
0
  3
Dashed __ __ __ __ __
 72
65
 73
2
 40
0.75
 49
0.5
 49
-0.25
  0
LTYPE
  5
43B
  2
DOTTED
 70
0
  3
Dotted .  .  .  .
 72
65
 73
2
 40
0.2
 49
0.0
 49
-0.2
  0
ENDTAB
  0
TABLE
  2
STYLE
  70
4
  0
STYLE
  2
KICAD
  70
0
  40
0
  41
1
  42
1
  50
0
  71
0
  3
isocp.shx
  0
STYLE
  2
KICADB
  70
0
  40
0
  41
1
  42
1
  50
0
  71
0
  3
isocp.shx
  0
STYLE
  2
KICADI
  70
0
  40
0
  41
1
  42
1
  50
15
  71
0
  3
isocp.shx
  0
STYLE
  2
KICADBI
  70
0
  40
0
  41
1
  42
1
  50
15
  71
0
  3
isocp.shx
  0
ENDTAB
  0
TABLE
  2
LAYER
  70
1
  0
LAYER
  2
BLACK
  70
0
  62
7
  6
CONTINUOUS
  0
ENDTAB
  0
ENDSEC
  0
SECTION
  2
ENTITIES
0
LINE
8
BLACK
6
CONTINUOUS
10
188.885
20
-91.4801
11
188.902
21
-91.5225
0
LINE
8
BLACK
6
CONTINUOUS
10
188.902
20
-91.5225
11
188.885
21
-91.5649
0
LINE
8
BLACK
6
CONTINUOUS
10
188.885
20
-91.5649
11
188.842
21
-91.5825
0
LINE
8
BLACK
6
CONTINUOUS
10
188.842
20
-91.5825
11
188.333
21
-91.5825
0
LINE
8
BLACK
6
CONTINUOUS
10
188.333
20
-91.5825
11
188.29
21
-91.5649
0
LINE
8
BLACK
6
CONTINUOUS
10
188.29
20
-91.5649
11
188.273
21
-91.5225
0
LINE
8
BLACK
6
CONTINUOUS
10
188.273
20
-91.5225
11
188.29
21
-91.4801
0
LINE
8
BLACK
6
CONTINUOUS
10
188.29
20
-91.4801
11
188.333
21
-91.4625
0
LINE
8
BLACK
6
CONTINUOUS
10
188.333
20
-91.4625
11
188.842
21
-91.4625
0
LINE
8
BLACK
6
CONTINUOUS
10
188.842
20
-91.4625
11
188.885
21
-91.4801
0
LINE
8
BLACK
6
CONTINUOUS
10
188.885
20
-90.4351
11
188.902
21
-90.4775
0
LINE
8
BLACK
6
CONTINUOUS
10
188.902
20
-90.4775
11
188.885
21
-90.5199
0
LINE
8
BLACK
6
CONTINUOUS
10
188.885
20
-90.5199
11
188.842
21
-90.5375
0
LINE
8
BLACK
6
CONTINUOUS
10
188.842
20
-90.5375
11
188.333
21
-90.5375
0
LINE
8
BLACK
6
CONTINUOUS
10
188.333
20
-90.5375
11
188.29
21
-90.5199
0
LINE
8
BLACK
6
CONTINUOUS
10
188.29
20
-90.5199
11
188.273
21
-90.4775
0
LINE
8
BLACK
6
CONTINUOUS
10
188.273
20
-90.4775
11
188.29
21
-90.4351
0
LINE
8
BLACK
6
CONTINUOUS
10
188.29
20
-90.4351
11
188.333
21
-90.4175
0
LINE
8
BLACK
6
CONTINUOUS
10
188.333
20
-90.4175
11
188.842
21
-90.4175
0
LINE
8
BLACK
6
CONTINUOUS
10
188.842
20
-90.4175
11
188.885
21
-90.4351
0
LINE
8
BLACK
6
CONTINUOUS
10
188.208
20
-88.9519
11
188.212
21
-88.9548
0
LINE
8
BLACK
6
CONTINUOUS
10
188.212
20
-88.9548
11
188.216
21
-88.9553
0
LINE
8
BLACK
6
CONTINUOUS
10
188.216
20
-88.9553
11
188.312
21
-89.0029
0
LINE
8
BLACK
6
CONTINUOUS
10
188.312
20
-89.0029
11
188.33
21
-89.0163
0
LINE
8
BLACK
6
CONTINUOUS
10
188.33
20
-89.0163
11
188.331
21
-89.017
0
LINE
8
BLACK
6
CONTINUOUS
10
188.331
20
-89.017
11
188.379
21
-89.0646
0
LINE
8
BLACK
6
CONTINUOUS
10
188.379
20
-89.0646
11
188.391
21
-89.083
0
LINE
8
BLACK
6
CONTINUOUS
10
188.391
20
-89.083
11
188.393
21
-89.0841
0
LINE
8
BLACK
6
CONTINUOUS
10
188.393
20
-89.0841
11
188.44
21
-89.1793
0
LINE
8
BLACK
6
CONTINUOUS
10
188.44
20
-89.1793
11
188.448
21
-89.2043
0
LINE
8
BLACK
6
CONTINUOUS
10
188.448
20
-89.2043
11
188.447
21
-89.2086
0
LINE
8
BLACK
6
CONTINUOUS
10
188.447
20
-89.2086
11
188.448
21
-89.2129
0
LINE
8
BLACK
6
CONTINUOUS
10
188.448
20
-89.2129
11
188.448
21
-89.2605
0
LINE
8
BLACK
6
CONTINUOUS
10
188.448
20
-89.2605
11
188.444
21
-89.2861
0
LINE
8
BLACK
6
CONTINUOUS
10
188.444
20
-89.2861
11
188.441
21
-89.2896
0
LINE
8
BLACK
6
CONTINUOUS
10
188.441
20
-89.2896
11
188.44
21
-89.294
0
LINE
8
BLACK
6
CONTINUOUS
10
188.44
20
-89.294
11
188.393
21
-89.3893
0
LINE
8
BLACK
6
CONTINUOUS
10
188.393
20
-89.3893
11
188.379
21
-89.4073
0
LINE
8
BLACK
6
CONTINUOUS
10
188.379
20
-89.4073
11
188.379
21
-89.4087
0
LINE
8
BLACK
6
CONTINUOUS
10
188.379
20
-89.4087
11
188.336
21
-89.451
0
LINE
8
BLACK
6
CONTINUOUS
10
188.336
20
-89.451
11
188.379
21
-89.4932
0
LINE
8
BLACK
6
CONTINUOUS
10
188.379
20
-89.4932
11
188.391
21
-89.5115
0
LINE
8
BLACK
6
CONTINUOUS
10
188.391
20
-89.5115
11
188.393
21
-89.5126
0
LINE
8
BLACK
6
CONTINUOUS
10
188.393
20
-89.5126
11
188.44
21
-89.6079
0
LINE
8
BLACK
6
CONTINUOUS
10
188.44
20
-89.6079
11
188.448
21
-89.6329
0
LINE
8
BLACK
6
CONTINUOUS
10
188.448
20
-89.6329
11
188.447
21
-89.6372
0
LINE
8
BLACK
6
CONTINUOUS
10
188.447
20
-89.6372
11
188.448
21
-89.6414
0
LINE
8
BLACK
6
CONTINUOUS
10
188.448
20
-89.6414
11
188.448
21
-89.8319
0
LINE
8
BLACK
6
CONTINUOUS
10
188.448
20
-89.8319
11
188.444
21
-89.8576
0
LINE
8
BLACK
6
CONTINUOUS
10
188.444
20
-89.8576
11
188.441
21
-89.861
0
LINE
8
BLACK
6
CONTINUOUS
10
188.441
20
-89.861
11
188.44
21
-89.8654
0
LINE
8
BLACK
6
CONTINUOUS
10
188.44
20
-89.8654
11
188.393
21
-89.9607
0
LINE
8
BLACK
6
CONTINUOUS
10
188.393
20
-89.9607
11
188.379
21
-89.9787
0
LINE
8
BLACK
6
CONTINUOUS
10
188.379
20
-89.9787
11
188.379
21
-89.9802
0
LINE
8
BLACK
6
CONTINUOUS
10
188.379
20
-89.9802
11
188.331
21
-90.0278
0
LINE
8
BLACK
6
CONTINUOUS
10
188.331
20
-90.0278
11
188.313
21
-90.0407
0
LINE
8
BLACK
6
CONTINUOUS
10
188.313
20
-90.0407
11
188.312
21
-90.0418
0
LINE
8
BLACK
6
CONTINUOUS
10
188.312
20
-90.0418
11
188.216
21
-90.0895
0
LINE
8
BLACK
6
CONTINUOUS
10
188.216
20
-90.0895
11
188.191
21
-90.0969
0
LINE
8
BLACK
6
CONTINUOUS
10
188.191
20
-90.0969
11
188.187
21
-90.0958
0
LINE
8
BLACK
6
CONTINUOUS
10
188.187
20
-90.0958
11
188.183
21
-90.0974
0
LINE
8
BLACK
6
CONTINUOUS
10
188.183
20
-90.0974
11
187.992
21
-90.0974
0
LINE
8
BLACK
6
CONTINUOUS
10
187.992
20
-90.0974
11
187.967
21
-90.0929
0
LINE
8
BLACK
6
CONTINUOUS
10
187.967
20
-90.0929
11
187.963
21
-90.09
0
LINE
8
BLACK
6
CONTINUOUS
10
187.963
20
-90.09
11
187.959
21
-90.0895
0
LINE
8
BLACK
6
CONTINUOUS
10
187.959
20
-90.0895
11
187.863
21
-90.0418
0
LINE
8
BLACK
6
CONTINUOUS
10
187.863
20
-90.0418
11
187.845
21
-90.0285
0
LINE
8
BLACK
6
CONTINUOUS
10
187.845
20
-90.0285
11
187.844
21
-90.0278
0
LINE
8
BLACK
6
CONTINUOUS
10
187.844
20
-90.0278
11
187.796
21
-89.9802
0
LINE
8
BLACK
6
CONTINUOUS
10
187.796
20
-89.9802
11
187.784
21
-89.9618
0
LINE
8
BLACK
6
CONTINUOUS
10
187.784
20
-89.9618
11
187.782
21
-89.9607
0
LINE
8
BLACK
6
CONTINUOUS
10
187.782
20
-89.9607
11
187.735
21
-89.8654
0
LINE
8
BLACK
6
CONTINUOUS
10
187.735
20
-89.8654
11
187.727
21
-89.8405
0
LINE
8
BLACK
6
CONTINUOUS
10
187.727
20
-89.8405
11
187.728
21
-89.8361
0
LINE
8
BLACK
6
CONTINUOUS
10
187.728
20
-89.8361
11
187.727
21
-89.8319
0
LINE
8
BLACK
6
CONTINUOUS
10
187.727
20
-89.8319
11
187.727
21
-89.6414
0
LINE
8
BLACK
6
CONTINUOUS
10
187.727
20
-89.6414
11
187.731
21
-89.6158
0
LINE
8
BLACK
6
CONTINUOUS
10
187.731
20
-89.6158
11
187.734
21
-89.6123
0
LINE
8
BLACK
6
CONTINUOUS
10
187.734
20
-89.6123
11
187.735
21
-89.6079
0
LINE
8
BLACK
6
CONTINUOUS
10
187.735
20
-89.6079
11
187.782
21
-89.5126
0
LINE
8
BLACK
6
CONTINUOUS
10
187.782
20
-89.5126
11
187.796
21
-89.4946
0
LINE
8
BLACK
6
CONTINUOUS
10
187.796
20
-89.4946
11
187.796
21
-89.4932
0
LINE
8
BLACK
6
CONTINUOUS
10
187.796
20
-89.4932
11
187.839
21
-89.451
0
LINE
8
BLACK
6
CONTINUOUS
10
187.839
20
-89.451
11
187.796
21
-89.4087
0
LINE
8
BLACK
6
CONTINUOUS
10
187.796
20
-89.4087
11
187.784
21
-89.3904
0
LINE
8
BLACK
6
CONTINUOUS
10
187.784
20
-89.3904
11
187.782
21
-89.3893
0
LINE
8
BLACK
6
CONTINUOUS
10
187.782
20
-89.3893
11
187.735
21
-89.294
0
LINE
8
BLACK
6
CONTINUOUS
10
187.735
20
-89.294
11
187.727
21
-89.269
0
LINE
8
BLACK
6
CONTINUOUS
10
187.727
20
-89.269
11
187.728
21
-89.2647
0
LINE
8
BLACK
6
CONTINUOUS
10
187.728
20
-89.2647
11
187.727
21
-89.2605
0
LINE
8
BLACK
6
CONTINUOUS
10
187.727
20
-89.2605
11
187.727
21
-89.2129
0
LINE
8
BLACK
6
CONTINUOUS
10
187.727
20
-89.2129
11
187.731
21
-89.1872
0
LINE
8
BLACK
6
CONTINUOUS
10
187.731
20
-89.1872
11
187.734
21
-89.1838
0
LINE
8
BLACK
6
CONTINUOUS
10
187.734
20
-89.1838
11
187.735
21
-89.1793
0
LINE
8
BLACK
6
CONTINUOUS
10
187.735
20
-89.1793
11
187.782
21
-89.0841
0
LINE
8
BLACK
6
CONTINUOUS
10
187.782
20
-89.0841
11
187.796
21
-89.0661
0
LINE
8
BLACK
6
CONTINUOUS
10
187.796
20
-89.0661
11
187.796
21
-89.0646
0
LINE
8
BLACK
6
CONTINUOUS
10
187.796
20
-89.0646
11
187.844
21
-89.017
0
LINE
8
BLACK
6
CONTINUOUS
10
187.844
20
-89.017
11
187.862
21
-89.0041
0
LINE
8
BLACK
6
CONTINUOUS
10
187.862
20
-89.0041
11
187.863
21
-89.0029
0
LINE
8
BLACK
6
CONTINUOUS
10
187.863
20
-89.0029
11
187.959
21
-88.9553
0
LINE
8
BLACK
6
CONTINUOUS
10
187.959
20
-88.9553
11
187.984
21
-88.9479
0
LINE
8
BLACK
6
CONTINUOUS
10
187.984
20
-88.9479
11
187.988
21
-88.9489
0
LINE
8
BLACK
6
CONTINUOUS
10
187.988
20
-88.9489
11
187.992
21
-88.9474
0
LINE
8
BLACK
6
CONTINUOUS
10
187.992
20
-88.9474
11
188.183
21
-88.9474
0
LINE
8
BLACK
6
CONTINUOUS
10
188.183
20
-88.9474
11
188.208
21
-88.9519
0
LINE
8
BLACK
6
CONTINUOUS
10
188.01
20
-89.526
11
187.941
21
-89.5602
0
LINE
8
BLACK
6
CONTINUOUS
10
187.941
20
-89.5602
11
187.911
21
-89.5906
0
LINE
8
BLACK
6
CONTINUOUS
10
187.911
20
-89.5906
11
187.877
21
-89.6591
0
LINE
8
BLACK
6
CONTINUOUS
10
187.877
20
-89.6591
11
187.877
21
-89.8142
0
LINE
8
BLACK
6
CONTINUOUS
10
187.877
20
-89.8142
11
187.911
21
-89.8827
0
LINE
8
BLACK
6
CONTINUOUS
10
187.911
20
-89.8827
11
187.941
21
-89.9131
0
LINE
8
BLACK
6
CONTINUOUS
10
187.941
20
-89.9131
11
188.01
21
-89.9474
0
LINE
8
BLACK
6
CONTINUOUS
10
188.01
20
-89.9474
11
188.165
21
-89.9474
0
LINE
8
BLACK
6
CONTINUOUS
10
188.165
20
-89.9474
11
188.234
21
-89.9131
0
LINE
8
BLACK
6
CONTINUOUS
10
188.234
20
-89.9131
11
188.264
21
-89.8827
0
LINE
8
BLACK
6
CONTINUOUS
10
188.264
20
-89.8827
11
188.298
21
-89.8142
0
LINE
8
BLACK
6
CONTINUOUS
10
188.298
20
-89.8142
11
188.298
21
-89.6591
0
LINE
8
BLACK
6
CONTINUOUS
10
188.298
20
-89.6591
11
188.264
21
-89.5906
0
LINE
8
BLACK
6
CONTINUOUS
10
188.264
20
-89.5906
11
188.234
21
-89.5602
0
LINE
8
BLACK
6
CONTINUOUS
10
188.234
20
-89.5602
11
188.165
21
-89.526
0
LINE
8
BLACK
6
CONTINUOUS
10
188.165
20
-89.526
11
188.01
21
-89.526
0
LINE
8
BLACK
6
CONTINUOUS
10
188.01
20
-89.0974
11
187.941
21
-89.1316
0
LINE
8
BLACK
6
CONTINUOUS
10
187.941
20
-89.1316
11
187.911
21
-89.162
0
LINE
8
BLACK
6
CONTINUOUS
10
187.911
20
-89.162
11
187.877
21
-89.2306
0
LINE
8
BLACK
6
CONTINUOUS
10
187.877
20
-89.2306
11
187.877
21
-89.2428
0
LINE
8
BLACK
6
CONTINUOUS
10
187.877
20
-89.2428
11
187.911
21
-89.3113
0
LINE
8
BLACK
6
CONTINUOUS
10
187.911
20
-89.3113
11
187.941
21
-89.3417
0
LINE
8
BLACK
6
CONTINUOUS
10
187.941
20
-89.3417
11
188.01
21
-89.376
0
LINE
8
BLACK
6
CONTINUOUS
10
188.01
20
-89.376
11
188.165
21
-89.376
0
LINE
8
BLACK
6
CONTINUOUS
10
188.165
20
-89.376
11
188.234
21
-89.3417
0
LINE
8
BLACK
6
CONTINUOUS
10
188.234
20
-89.3417
11
188.264
21
-89.3113
0
LINE
8
BLACK
6
CONTINUOUS
10
188.264
20
-89.3113
11
188.298
21
-89.2428
0
LINE
8
BLACK
6
CONTINUOUS
10
188.298
20
-89.2428
11
188.298
21
-89.2306
0
LINE
8
BLACK
6
CONTINUOUS
10
188.298
20
-89.2306
11
188.264
21
-89.162
0
LINE
8
BLACK
6
CONTINUOUS
10
188.264
20
-89.162
11
188.234
21
-89.1316
0
LINE
8
BLACK
6
CONTINUOUS
10
188.234
20
-89.1316
11
188.165
21
-89.0974
0
LINE
8
BLACK
6
CONTINUOUS
10
188.165
20
-89.0974
11
188.01
21
-89.0974
0
LINE
8
BLACK
6
CONTINUOUS
10
189.335
20
-88.9491
11
189.339
21
-88.9485
0
LINE
8
BLACK
6
CONTINUOUS
10
189.339
20
-88.9485
11
189.342
21
-88.9502
0
LINE
8
BLACK
6
CONTINUOUS
10
189.342
20
-88.9502
11
189.351
21
-88.9519
0
LINE
8
BLACK
6
CONTINUOUS
10
189.351
20
-88.9519
11
189.366
21
-88.9644
0
LINE
8
BLACK
6
CONTINUOUS
10
189.366
20
-88.9644
11
189.383
21
-88.9742
0
LINE
8
BLACK
6
CONTINUOUS
10
189.383
20
-88.9742
11
189.385
21
-88.9805
0
LINE
8
BLACK
6
CONTINUOUS
10
189.385
20
-88.9805
11
189.391
21
-88.9849
0
LINE
8
BLACK
6
CONTINUOUS
10
189.391
20
-88.9849
11
189.394
21
-89.0041
0
LINE
8
BLACK
6
CONTINUOUS
10
189.394
20
-89.0041
11
189.401
21
-89.0224
0
LINE
8
BLACK
6
CONTINUOUS
10
189.401
20
-89.0224
11
189.401
21
-90.0224
0
LINE
8
BLACK
6
CONTINUOUS
10
189.401
20
-90.0224
11
189.396
21
-90.048
0
LINE
8
BLACK
6
CONTINUOUS
10
189.396
20
-90.048
11
189.363
21
-90.0873
0
LINE
8
BLACK
6
CONTINUOUS
10
189.363
20
-90.0873
11
189.313
21
-90.0962
0
LINE
8
BLACK
6
CONTINUOUS
10
189.313
20
-90.0962
11
189.268
21
-90.0706
0
LINE
8
BLACK
6
CONTINUOUS
10
189.268
20
-90.0706
11
189.251
21
-90.0224
0
LINE
8
BLACK
6
CONTINUOUS
10
189.251
20
-90.0224
11
189.251
21
-89.6212
0
LINE
8
BLACK
6
CONTINUOUS
10
189.251
20
-89.6212
11
189.127
21
-89.6212
0
LINE
8
BLACK
6
CONTINUOUS
10
189.127
20
-89.6212
11
188.816
21
-90.0654
0
LINE
8
BLACK
6
CONTINUOUS
10
188.816
20
-90.0654
11
188.797
21
-90.0838
0
LINE
8
BLACK
6
CONTINUOUS
10
188.797
20
-90.0838
11
188.748
21
-90.0971
0
LINE
8
BLACK
6
CONTINUOUS
10
188.748
20
-90.0971
11
188.701
21
-90.0754
0
LINE
8
BLACK
6
CONTINUOUS
10
188.701
20
-90.0754
11
188.679
21
-90.0289
0
LINE
8
BLACK
6
CONTINUOUS
10
188.679
20
-90.0289
11
188.693
21
-89.9794
0
LINE
8
BLACK
6
CONTINUOUS
10
188.693
20
-89.9794
11
188.944
21
-89.621
0
LINE
8
BLACK
6
CONTINUOUS
10
188.944
20
-89.621
11
188.919
21
-89.6167
0
LINE
8
BLACK
6
CONTINUOUS
10
188.919
20
-89.6167
11
188.916
21
-89.6138
0
LINE
8
BLACK
6
CONTINUOUS
10
188.916
20
-89.6138
11
188.911
21
-89.6133
0
LINE
8
BLACK
6
CONTINUOUS
10
188.911
20
-89.6133
11
188.816
21
-89.5657
0
LINE
8
BLACK
6
CONTINUOUS
10
188.816
20
-89.5657
11
188.798
21
-89.5523
0
LINE
8
BLACK
6
CONTINUOUS
10
188.798
20
-89.5523
11
188.796
21
-89.5516
0
LINE
8
BLACK
6
CONTINUOUS
10
188.796
20
-89.5516
11
188.749
21
-89.504
0
LINE
8
BLACK
6
CONTINUOUS
10
188.749
20
-89.504
11
188.736
21
-89.4856
0
LINE
8
BLACK
6
CONTINUOUS
10
188.736
20
-89.4856
11
188.735
21
-89.4845
0
LINE
8
BLACK
6
CONTINUOUS
10
188.735
20
-89.4845
11
188.687
21
-89.3893
0
LINE
8
BLACK
6
CONTINUOUS
10
188.687
20
-89.3893
11
188.68
21
-89.3643
0
LINE
8
BLACK
6
CONTINUOUS
10
188.68
20
-89.3643
11
188.681
21
-89.3599
0
LINE
8
BLACK
6
CONTINUOUS
10
188.681
20
-89.3599
11
188.679
21
-89.3557
0
LINE
8
BLACK
6
CONTINUOUS
10
188.679
20
-89.3557
11
188.679
21
-89.2129
0
LINE
8
BLACK
6
CONTINUOUS
10
188.679
20
-89.2129
11
188.684
21
-89.1872
0
LINE
8
BLACK
6
CONTINUOUS
10
188.684
20
-89.1872
11
188.687
21
-89.1838
0
LINE
8
BLACK
6
CONTINUOUS
10
188.687
20
-89.1838
11
188.687
21
-89.1793
0
LINE
8
BLACK
6
CONTINUOUS
10
188.687
20
-89.1793
11
188.735
21
-89.0841
0
LINE
8
BLACK
6
CONTINUOUS
10
188.735
20
-89.0841
11
188.748
21
-89.0661
0
LINE
8
BLACK
6
CONTINUOUS
10
188.748
20
-89.0661
11
188.749
21
-89.0646
0
LINE
8
BLACK
6
CONTINUOUS
10
188.749
20
-89.0646
11
188.796
21
-89.017
0
LINE
8
BLACK
6
CONTINUOUS
10
188.796
20
-89.017
11
188.815
21
-89.0041
0
LINE
8
BLACK
6
CONTINUOUS
10
188.815
20
-89.0041
11
188.816
21
-89.0029
0
LINE
8
BLACK
6
CONTINUOUS
10
188.816
20
-89.0029
11
188.911
21
-88.9553
0
LINE
8
BLACK
6
CONTINUOUS
10
188.911
20
-88.9553
11
188.936
21
-88.9479
0
LINE
8
BLACK
6
CONTINUOUS
10
188.936
20
-88.9479
11
188.94
21
-88.9489
0
LINE
8
BLACK
6
CONTINUOUS
10
188.94
20
-88.9489
11
188.945
21
-88.9474
0
LINE
8
BLACK
6
CONTINUOUS
10
188.945
20
-88.9474
11
189.326
21
-88.9474
0
LINE
8
BLACK
6
CONTINUOUS
10
189.326
20
-88.9474
11
189.335
21
-88.9491
0
LINE
8
BLACK
6
CONTINUOUS
10
188.962
20
-89.0974
11
188.894
21
-89.1316
0
LINE
8
BLACK
6
CONTINUOUS
10
188.894
20
-89.1316
11
188.863
21
-89.162
0
LINE
8
BLACK
6
CONTINUOUS
10
188.863
20
-89.162
11
188.829
21
-89.2306
0
LINE
8
BLACK
6
CONTINUOUS
10
188.829
20
-89.2306
11
188.829
21
-89.338
0
LINE
8
BLACK
6
CONTINUOUS
10
188.829
20
-89.338
11
188.863
21
-89.4065
0
LINE
8
BLACK
6
CONTINUOUS
10
188.863
20
-89.4065
11
188.894
21
-89.4369
0
LINE
8
BLACK
6
CONTINUOUS
10
188.894
20
-89.4369
11
188.962
21
-89.4712
0
LINE
8
BLACK
6
CONTINUOUS
10
188.962
20
-89.4712
11
189.251
21
-89.4712
0
LINE
8
BLACK
6
CONTINUOUS
10
189.251
20
-89.4712
11
189.251
21
-89.0974
0
LINE
8
BLACK
6
CONTINUOUS
10
189.251
20
-89.0974
11
188.962
21
-89.0974
0
LINE
8
BLACK
6
CONTINUOUS
10
186.236
20
-88.3813
11
186.238
21
-88.3812
0
LINE
8
BLACK
6
CONTINUOUS
10
186.238
20
-88.3812
11
186.381
21
-88.4288
0
LINE
8
BLACK
6
CONTINUOUS
10
186.381
20
-88.4288
11
186.404
21
-88.4413
0
LINE
8
BLACK
6
CONTINUOUS
10
186.404
20
-88.4413
11
186.406
21
-88.4451
0
LINE
8
BLACK
6
CONTINUOUS
10
186.406
20
-88.4451
11
186.41
21
-88.447
0
LINE
8
BLACK
6
CONTINUOUS
10
186.41
20
-88.447
11
186.505
21
-88.5422
0
LINE
8
BLACK
6
CONTINUOUS
10
186.505
20
-88.5422
11
186.518
21
-88.5606
0
LINE
8
BLACK
6
CONTINUOUS
10
186.518
20
-88.5606
11
186.519
21
-88.5617
0
LINE
8
BLACK
6
CONTINUOUS
10
186.519
20
-88.5617
11
186.567
21
-88.6569
0
LINE
8
BLACK
6
CONTINUOUS
10
186.567
20
-88.6569
11
186.571
21
-88.6693
0
LINE
8
BLACK
6
CONTINUOUS
10
186.571
20
-88.6693
11
186.573
21
-88.6723
0
LINE
8
BLACK
6
CONTINUOUS
10
186.573
20
-88.6723
11
186.62
21
-88.8628
0
LINE
8
BLACK
6
CONTINUOUS
10
186.62
20
-88.8628
11
186.621
21
-88.8777
0
LINE
8
BLACK
6
CONTINUOUS
10
186.621
20
-88.8777
11
186.623
21
-88.881
0
LINE
8
BLACK
6
CONTINUOUS
10
186.623
20
-88.881
11
186.623
21
-89.0238
0
LINE
8
BLACK
6
CONTINUOUS
10
186.623
20
-89.0238
11
186.62
21
-89.0386
0
LINE
8
BLACK
6
CONTINUOUS
10
186.62
20
-89.0386
11
186.62
21
-89.042
0
LINE
8
BLACK
6
CONTINUOUS
10
186.62
20
-89.042
11
186.573
21
-89.2325
0
LINE
8
BLACK
6
CONTINUOUS
10
186.573
20
-89.2325
11
186.567
21
-89.2443
0
LINE
8
BLACK
6
CONTINUOUS
10
186.567
20
-89.2443
11
186.567
21
-89.2478
0
LINE
8
BLACK
6
CONTINUOUS
10
186.567
20
-89.2478
11
186.519
21
-89.3431
0
LINE
8
BLACK
6
CONTINUOUS
10
186.519
20
-89.3431
11
186.506
21
-89.3611
0
LINE
8
BLACK
6
CONTINUOUS
10
186.506
20
-89.3611
11
186.505
21
-89.3626
0
LINE
8
BLACK
6
CONTINUOUS
10
186.505
20
-89.3626
11
186.41
21
-89.4578
0
LINE
8
BLACK
6
CONTINUOUS
10
186.41
20
-89.4578
11
186.389
21
-89.4727
0
LINE
8
BLACK
6
CONTINUOUS
10
186.389
20
-89.4727
11
186.384
21
-89.4731
0
LINE
8
BLACK
6
CONTINUOUS
10
186.384
20
-89.4731
11
186.381
21
-89.4759
0
LINE
8
BLACK
6
CONTINUOUS
10
186.381
20
-89.4759
11
186.238
21
-89.5235
0
LINE
8
BLACK
6
CONTINUOUS
10
186.238
20
-89.5235
11
186.216
21
-89.5268
0
LINE
8
BLACK
6
CONTINUOUS
10
186.216
20
-89.5268
11
186.214
21
-89.5274
0
LINE
8
BLACK
6
CONTINUOUS
10
186.214
20
-89.5274
11
186.119
21
-89.5274
0
LINE
8
BLACK
6
CONTINUOUS
10
186.119
20
-89.5274
11
186.097
21
-89.5235
0
LINE
8
BLACK
6
CONTINUOUS
10
186.097
20
-89.5235
11
186.095
21
-89.5235
0
LINE
8
BLACK
6
CONTINUOUS
10
186.095
20
-89.5235
11
185.952
21
-89.4759
0
LINE
8
BLACK
6
CONTINUOUS
10
185.952
20
-89.4759
11
185.93
21
-89.4635
0
LINE
8
BLACK
6
CONTINUOUS
10
185.93
20
-89.4635
11
185.927
21
-89.4597
0
LINE
8
BLACK
6
CONTINUOUS
10
185.927
20
-89.4597
11
185.923
21
-89.4578
0
LINE
8
BLACK
6
CONTINUOUS
10
185.923
20
-89.4578
11
185.876
21
-89.4102
0
LINE
8
BLACK
6
CONTINUOUS
10
185.876
20
-89.4102
11
185.861
21
-89.3888
0
LINE
8
BLACK
6
CONTINUOUS
10
185.861
20
-89.3888
11
185.856
21
-89.3377
0
LINE
8
BLACK
6
CONTINUOUS
10
185.856
20
-89.3377
11
185.886
21
-89.2957
0
LINE
8
BLACK
6
CONTINUOUS
10
185.886
20
-89.2957
11
185.935
21
-89.2824
0
LINE
8
BLACK
6
CONTINUOUS
10
185.935
20
-89.2824
11
185.982
21
-89.3041
0
LINE
8
BLACK
6
CONTINUOUS
10
185.982
20
-89.3041
11
186.017
21
-89.3392
0
LINE
8
BLACK
6
CONTINUOUS
10
186.017
20
-89.3392
11
186.131
21
-89.3774
0
LINE
8
BLACK
6
CONTINUOUS
10
186.131
20
-89.3774
11
186.202
21
-89.3774
0
LINE
8
BLACK
6
CONTINUOUS
10
186.202
20
-89.3774
11
186.317
21
-89.3392
0
LINE
8
BLACK
6
CONTINUOUS
10
186.317
20
-89.3392
11
186.391
21
-89.2651
0
LINE
8
BLACK
6
CONTINUOUS
10
186.391
20
-89.2651
11
186.429
21
-89.1881
0
LINE
8
BLACK
6
CONTINUOUS
10
186.429
20
-89.1881
11
186.473
21
-89.0146
0
LINE
8
BLACK
6
CONTINUOUS
10
186.473
20
-89.0146
11
186.473
21
-88.8902
0
LINE
8
BLACK
6
CONTINUOUS
10
186.473
20
-88.8902
11
186.429
21
-88.7167
0
LINE
8
BLACK
6
CONTINUOUS
10
186.429
20
-88.7167
11
186.391
21
-88.6397
0
LINE
8
BLACK
6
CONTINUOUS
10
186.391
20
-88.6397
11
186.317
21
-88.5656
0
LINE
8
BLACK
6
CONTINUOUS
10
186.317
20
-88.5656
11
186.202
21
-88.5274
0
LINE
8
BLACK
6
CONTINUOUS
10
186.202
20
-88.5274
11
186.131
21
-88.5274
0
LINE
8
BLACK
6
CONTINUOUS
10
186.131
20
-88.5274
11
186.017
21
-88.5656
0
LINE
8
BLACK
6
CONTINUOUS
10
186.017
20
-88.5656
11
185.982
21
-88.6007
0
LINE
8
BLACK
6
CONTINUOUS
10
185.982
20
-88.6007
11
185.96
21
-88.6156
0
LINE
8
BLACK
6
CONTINUOUS
10
185.96
20
-88.6156
11
185.909
21
-88.6201
0
LINE
8
BLACK
6
CONTINUOUS
10
185.909
20
-88.6201
11
185.867
21
-88.5906
0
LINE
8
BLACK
6
CONTINUOUS
10
185.867
20
-88.5906
11
185.854
21
-88.5411
0
LINE
8
BLACK
6
CONTINUOUS
10
185.854
20
-88.5411
11
185.876
21
-88.4946
0
LINE
8
BLACK
6
CONTINUOUS
10
185.876
20
-88.4946
11
185.923
21
-88.447
0
LINE
8
BLACK
6
CONTINUOUS
10
185.923
20
-88.447
11
185.944
21
-88.432
0
LINE
8
BLACK
6
CONTINUOUS
10
185.944
20
-88.432
11
185.949
21
-88.4316
0
LINE
8
BLACK
6
CONTINUOUS
10
185.949
20
-88.4316
11
185.952
21
-88.4288
0
LINE
8
BLACK
6
CONTINUOUS
10
185.952
20
-88.4288
11
186.095
21
-88.3812
0
LINE
8
BLACK
6
CONTINUOUS
10
186.095
20
-88.3812
11
186.118
21
-88.3779
0
LINE
8
BLACK
6
CONTINUOUS
10
186.118
20
-88.3779
11
186.119
21
-88.3774
0
LINE
8
BLACK
6
CONTINUOUS
10
186.119
20
-88.3774
11
186.214
21
-88.3774
0
LINE
8
BLACK
6
CONTINUOUS
10
186.214
20
-88.3774
11
186.236
21
-88.3813
0
LINE
8
BLACK
6
CONTINUOUS
10
185.279
20
-88.3807
11
185.283
21
-88.3804
0
LINE
8
BLACK
6
CONTINUOUS
10
185.283
20
-88.3804
11
185.301
21
-88.3933
0
LINE
8
BLACK
6
CONTINUOUS
10
185.301
20
-88.3933
11
185.319
21
-88.4042
0
LINE
8
BLACK
6
CONTINUOUS
10
185.319
20
-88.4042
11
185.321
21
-88.4082
0
LINE
8
BLACK
6
CONTINUOUS
10
185.321
20
-88.4082
11
185.324
21
-88.4108
0
LINE
8
BLACK
6
CONTINUOUS
10
185.324
20
-88.4108
11
185.415
21
-88.5475
0
LINE
8
BLACK
6
CONTINUOUS
10
185.415
20
-88.5475
11
185.497
21
-88.6288
0
LINE
8
BLACK
6
CONTINUOUS
10
185.497
20
-88.6288
11
185.581
21
-88.671
0
LINE
8
BLACK
6
CONTINUOUS
10
185.581
20
-88.671
11
185.602
21
-88.6865
0
LINE
8
BLACK
6
CONTINUOUS
10
185.602
20
-88.6865
11
185.622
21
-88.7336
0
LINE
8
BLACK
6
CONTINUOUS
10
185.622
20
-88.7336
11
185.608
21
-88.7828
0
LINE
8
BLACK
6
CONTINUOUS
10
185.608
20
-88.7828
11
185.565
21
-88.811
0
LINE
8
BLACK
6
CONTINUOUS
10
185.565
20
-88.811
11
185.514
21
-88.8052
0
LINE
8
BLACK
6
CONTINUOUS
10
185.514
20
-88.8052
11
185.419
21
-88.7576
0
LINE
8
BLACK
6
CONTINUOUS
10
185.419
20
-88.7576
11
185.401
21
-88.7442
0
LINE
8
BLACK
6
CONTINUOUS
10
185.401
20
-88.7442
11
185.399
21
-88.7435
0
LINE
8
BLACK
6
CONTINUOUS
10
185.399
20
-88.7435
11
185.337
21
-88.6811
0
LINE
8
BLACK
6
CONTINUOUS
10
185.337
20
-88.6811
11
185.337
21
-89.3774
0
LINE
8
BLACK
6
CONTINUOUS
10
185.337
20
-89.3774
11
185.548
21
-89.3774
0
LINE
8
BLACK
6
CONTINUOUS
10
185.548
20
-89.3774
11
185.573
21
-89.3819
0
LINE
8
BLACK
6
CONTINUOUS
10
185.573
20
-89.3819
11
185.613
21
-89.4149
0
LINE
8
BLACK
6
CONTINUOUS
10
185.613
20
-89.4149
11
185.621
21
-89.4654
0
LINE
8
BLACK
6
CONTINUOUS
10
185.621
20
-89.4654
11
185.596
21
-89.5098
0
LINE
8
BLACK
6
CONTINUOUS
10
185.596
20
-89.5098
11
185.548
21
-89.5274
0
LINE
8
BLACK
6
CONTINUOUS
10
185.548
20
-89.5274
11
184.976
21
-89.5274
0
LINE
8
BLACK
6
CONTINUOUS
10
184.976
20
-89.5274
11
184.951
21
-89.5229
0
LINE
8
BLACK
6
CONTINUOUS
10
184.951
20
-89.5229
11
184.911
21
-89.4899
0
LINE
8
BLACK
6
CONTINUOUS
10
184.911
20
-89.4899
11
184.902
21
-89.4394
0
LINE
8
BLACK
6
CONTINUOUS
10
184.902
20
-89.4394
11
184.928
21
-89.3949
0
LINE
8
BLACK
6
CONTINUOUS
10
184.928
20
-89.3949
11
184.976
21
-89.3774
0
LINE
8
BLACK
6
CONTINUOUS
10
184.976
20
-89.3774
11
185.187
21
-89.3774
0
LINE
8
BLACK
6
CONTINUOUS
10
185.187
20
-89.3774
11
185.187
21
-88.4524
0
LINE
8
BLACK
6
CONTINUOUS
10
185.187
20
-88.4524
11
185.191
21
-88.4267
0
LINE
8
BLACK
6
CONTINUOUS
10
185.191
20
-88.4267
11
185.194
21
-88.4234
0
LINE
8
BLACK
6
CONTINUOUS
10
185.194
20
-88.4234
11
185.195
21
-88.4191
0
LINE
8
BLACK
6
CONTINUOUS
10
185.195
20
-88.4191
11
185.21
21
-88.4041
0
LINE
8
BLACK
6
CONTINUOUS
10
185.21
20
-88.4041
11
185.224
21
-88.3874
0
LINE
8
BLACK
6
CONTINUOUS
10
185.224
20
-88.3874
11
185.229
21
-88.3867
0
LINE
8
BLACK
6
CONTINUOUS
10
185.229
20
-88.3867
11
185.232
21
-88.3837
0
LINE
8
BLACK
6
CONTINUOUS
10
185.232
20
-88.3837
11
185.253
21
-88.3823
0
LINE
8
BLACK
6
CONTINUOUS
10
185.253
20
-88.3823
11
185.275
21
-88.3785
0
LINE
8
BLACK
6
CONTINUOUS
10
185.275
20
-88.3785
11
185.279
21
-88.3807
0
LINE
8
BLACK
6
CONTINUOUS
10
187.034
20
-88.4042
11
187.051
21
-88.4524
0
LINE
8
BLACK
6
CONTINUOUS
10
187.051
20
-88.4524
11
187.051
21
-89.4524
0
LINE
8
BLACK
6
CONTINUOUS
10
187.051
20
-89.4524
11
187.047
21
-89.478
0
LINE
8
BLACK
6
CONTINUOUS
10
187.047
20
-89.478
11
187.014
21
-89.5173
0
LINE
8
BLACK
6
CONTINUOUS
10
187.014
20
-89.5173
11
186.963
21
-89.5262
0
LINE
8
BLACK
6
CONTINUOUS
10
186.963
20
-89.5262
11
186.919
21
-89.5006
0
LINE
8
BLACK
6
CONTINUOUS
10
186.919
20
-89.5006
11
186.901
21
-89.4524
0
LINE
8
BLACK
6
CONTINUOUS
10
186.901
20
-89.4524
11
186.901
21
-88.4524
0
LINE
8
BLACK
6
CONTINUOUS
10
186.901
20
-88.4524
11
186.906
21
-88.4267
0
LINE
8
BLACK
6
CONTINUOUS
10
186.906
20
-88.4267
11
186.939
21
-88.3874
0
LINE
8
BLACK
6
CONTINUOUS
10
186.939
20
-88.3874
11
186.989
21
-88.3785
0
LINE
8
BLACK
6
CONTINUOUS
10
186.989
20
-88.3785
11
187.034
21
-88.4042
0
LINE
8
BLACK
6
CONTINUOUS
10
194.597
20
-88.2819
11
194.601
21
-88.2848
0
LINE
8
BLACK
6
CONTINUOUS
10
194.601
20
-88.2848
11
194.605
21
-88.2853
0
LINE
8
BLACK
6
CONTINUOUS
10
194.605
20
-88.2853
11
194.7
21
-88.3329
0
LINE
8
BLACK
6
CONTINUOUS
10
194.7
20
-88.3329
11
194.718
21
-88.3463
0
LINE
8
BLACK
6
CONTINUOUS
10
194.718
20
-88.3463
11
194.72
21
-88.347
0
LINE
8
BLACK
6
CONTINUOUS
10
194.72
20
-88.347
11
194.815
21
-88.4422
0
LINE
8
BLACK
6
CONTINUOUS
10
194.815
20
-88.4422
11
194.83
21
-88.4635
0
LINE
8
BLACK
6
CONTINUOUS
10
194.83
20
-88.4635
11
194.831
21
-88.4709
0
LINE
8
BLACK
6
CONTINUOUS
10
194.831
20
-88.4709
11
194.835
21
-88.477
0
LINE
8
BLACK
6
CONTINUOUS
10
194.835
20
-88.477
11
194.882
21
-88.6675
0
LINE
8
BLACK
6
CONTINUOUS
10
194.882
20
-88.6675
11
194.883
21
-88.6825
0
LINE
8
BLACK
6
CONTINUOUS
10
194.883
20
-88.6825
11
194.885
21
-88.6857
0
LINE
8
BLACK
6
CONTINUOUS
10
194.885
20
-88.6857
11
194.885
21
-89.019
0
LINE
8
BLACK
6
CONTINUOUS
10
194.885
20
-89.019
11
194.882
21
-89.0338
0
LINE
8
BLACK
6
CONTINUOUS
10
194.882
20
-89.0338
11
194.882
21
-89.0372
0
LINE
8
BLACK
6
CONTINUOUS
10
194.882
20
-89.0372
11
194.835
21
-89.2277
0
LINE
8
BLACK
6
CONTINUOUS
10
194.835
20
-89.2277
11
194.824
21
-89.2515
0
LINE
8
BLACK
6
CONTINUOUS
10
194.824
20
-89.2515
11
194.818
21
-89.2558
0
LINE
8
BLACK
6
CONTINUOUS
10
194.818
20
-89.2558
11
194.815
21
-89.2626
0
LINE
8
BLACK
6
CONTINUOUS
10
194.815
20
-89.2626
11
194.72
21
-89.3578
0
LINE
8
BLACK
6
CONTINUOUS
10
194.72
20
-89.3578
11
194.701
21
-89.3707
0
LINE
8
BLACK
6
CONTINUOUS
10
194.701
20
-89.3707
11
194.7
21
-89.3718
0
LINE
8
BLACK
6
CONTINUOUS
10
194.7
20
-89.3718
11
194.605
21
-89.4195
0
LINE
8
BLACK
6
CONTINUOUS
10
194.605
20
-89.4195
11
194.58
21
-89.4269
0
LINE
8
BLACK
6
CONTINUOUS
10
194.58
20
-89.4269
11
194.576
21
-89.4258
0
LINE
8
BLACK
6
CONTINUOUS
10
194.576
20
-89.4258
11
194.571
21
-89.4274
0
LINE
8
BLACK
6
CONTINUOUS
10
194.571
20
-89.4274
11
194.381
21
-89.4274
0
LINE
8
BLACK
6
CONTINUOUS
10
194.381
20
-89.4274
11
194.355
21
-89.4229
0
LINE
8
BLACK
6
CONTINUOUS
10
194.355
20
-89.4229
11
194.352
21
-89.42
0
LINE
8
BLACK
6
CONTINUOUS
10
194.352
20
-89.42
11
194.347
21
-89.4195
0
LINE
8
BLACK
6
CONTINUOUS
10
194.347
20
-89.4195
11
194.301
21
-89.396
0
LINE
8
BLACK
6
CONTINUOUS
10
194.301
20
-89.396
11
194.244
21
-89.453
0
LINE
8
BLACK
6
CONTINUOUS
10
194.244
20
-89.453
11
194.225
21
-89.4659
0
LINE
8
BLACK
6
CONTINUOUS
10
194.225
20
-89.4659
11
194.224
21
-89.4671
0
LINE
8
BLACK
6
CONTINUOUS
10
194.224
20
-89.4671
11
194.129
21
-89.5147
0
LINE
8
BLACK
6
CONTINUOUS
10
194.129
20
-89.5147
11
194.104
21
-89.5221
0
LINE
8
BLACK
6
CONTINUOUS
10
194.104
20
-89.5221
11
194.054
21
-89.5102
0
LINE
8
BLACK
6
CONTINUOUS
10
194.054
20
-89.5102
11
194.023
21
-89.469
0
LINE
8
BLACK
6
CONTINUOUS
10
194.023
20
-89.469
11
194.026
21
-89.4178
0
LINE
8
BLACK
6
CONTINUOUS
10
194.026
20
-89.4178
11
194.062
21
-89.3805
0
LINE
8
BLACK
6
CONTINUOUS
10
194.062
20
-89.3805
11
194.146
21
-89.3384
0
LINE
8
BLACK
6
CONTINUOUS
10
194.146
20
-89.3384
11
194.18
21
-89.3048
0
LINE
8
BLACK
6
CONTINUOUS
10
194.18
20
-89.3048
11
194.137
21
-89.2626
0
LINE
8
BLACK
6
CONTINUOUS
10
194.137
20
-89.2626
11
194.123
21
-89.2412
0
LINE
8
BLACK
6
CONTINUOUS
10
194.123
20
-89.2412
11
194.122
21
-89.2338
0
LINE
8
BLACK
6
CONTINUOUS
10
194.122
20
-89.2338
11
194.118
21
-89.2277
0
LINE
8
BLACK
6
CONTINUOUS
10
194.118
20
-89.2277
11
194.07
21
-89.0372
0
LINE
8
BLACK
6
CONTINUOUS
10
194.07
20
-89.0372
11
194.069
21
-89.0223
0
LINE
8
BLACK
6
CONTINUOUS
10
194.069
20
-89.0223
11
194.068
21
-89.019
0
LINE
8
BLACK
6
CONTINUOUS
10
194.068
20
-89.019
11
194.068
21
-88.6857
0
LINE
8
BLACK
6
CONTINUOUS
10
194.068
20
-88.6857
11
194.07
21
-88.671
0
LINE
8
BLACK
6
CONTINUOUS
10
194.07
20
-88.671
11
194.07
21
-88.6675
0
LINE
8
BLACK
6
CONTINUOUS
10
194.07
20
-88.6675
11
194.118
21
-88.477
0
LINE
8
BLACK
6
CONTINUOUS
10
194.118
20
-88.477
11
194.128
21
-88.4533
0
LINE
8
BLACK
6
CONTINUOUS
10
194.128
20
-88.4533
11
194.134
21
-88.4489
0
LINE
8
BLACK
6
CONTINUOUS
10
194.134
20
-88.4489
11
194.137
21
-88.4422
0
LINE
8
BLACK
6
CONTINUOUS
10
194.137
20
-88.4422
11
194.233
21
-88.347
0
LINE
8
BLACK
6
CONTINUOUS
10
194.233
20
-88.347
11
194.251
21
-88.3341
0
LINE
8
BLACK
6
CONTINUOUS
10
194.251
20
-88.3341
11
194.252
21
-88.3329
0
LINE
8
BLACK
6
CONTINUOUS
10
194.252
20
-88.3329
11
194.347
21
-88.2853
0
LINE
8
BLACK
6
CONTINUOUS
10
194.347
20
-88.2853
11
194.372
21
-88.2779
0
LINE
8
BLACK
6
CONTINUOUS
10
194.372
20
-88.2779
11
194.377
21
-88.2789
0
LINE
8
BLACK
6
CONTINUOUS
10
194.377
20
-88.2789
11
194.381
21
-88.2774
0
LINE
8
BLACK
6
CONTINUOUS
10
194.381
20
-88.2774
11
194.571
21
-88.2774
0
LINE
8
BLACK
6
CONTINUOUS
10
194.571
20
-88.2774
11
194.597
21
-88.2819
0
LINE
8
BLACK
6
CONTINUOUS
10
194.399
20
-88.4274
11
194.33
21
-88.4616
0
LINE
8
BLACK
6
CONTINUOUS
10
194.33
20
-88.4616
11
194.258
21
-88.5336
0
LINE
8
BLACK
6
CONTINUOUS
10
194.258
20
-88.5336
11
194.218
21
-88.6949
0
LINE
8
BLACK
6
CONTINUOUS
10
194.218
20
-88.6949
11
194.218
21
-89.0098
0
LINE
8
BLACK
6
CONTINUOUS
10
194.218
20
-89.0098
11
194.258
21
-89.1712
0
LINE
8
BLACK
6
CONTINUOUS
10
194.258
20
-89.1712
11
194.286
21
-89.1987
0
LINE
8
BLACK
6
CONTINUOUS
10
194.286
20
-89.1987
11
194.376
21
-89.1089
0
LINE
8
BLACK
6
CONTINUOUS
10
194.376
20
-89.1089
11
194.394
21
-89.096
0
LINE
8
BLACK
6
CONTINUOUS
10
194.394
20
-89.096
11
194.395
21
-89.0948
0
LINE
8
BLACK
6
CONTINUOUS
10
194.395
20
-89.0948
11
194.49
21
-89.0472
0
LINE
8
BLACK
6
CONTINUOUS
10
194.49
20
-89.0472
11
194.515
21
-89.0398
0
LINE
8
BLACK
6
CONTINUOUS
10
194.515
20
-89.0398
11
194.52
21
-89.0408
0
LINE
8
BLACK
6
CONTINUOUS
10
194.52
20
-89.0408
11
194.524
21
-89.0393
0
LINE
8
BLACK
6
CONTINUOUS
10
194.524
20
-89.0393
11
194.619
21
-89.0393
0
LINE
8
BLACK
6
CONTINUOUS
10
194.619
20
-89.0393
11
194.645
21
-89.0438
0
LINE
8
BLACK
6
CONTINUOUS
10
194.645
20
-89.0438
11
194.684
21
-89.0768
0
LINE
8
BLACK
6
CONTINUOUS
10
194.684
20
-89.0768
11
194.693
21
-89.1273
0
LINE
8
BLACK
6
CONTINUOUS
10
194.693
20
-89.1273
11
194.667
21
-89.1717
0
LINE
8
BLACK
6
CONTINUOUS
10
194.667
20
-89.1717
11
194.619
21
-89.1893
0
LINE
8
BLACK
6
CONTINUOUS
10
194.619
20
-89.1893
11
194.542
21
-89.1893
0
LINE
8
BLACK
6
CONTINUOUS
10
194.542
20
-89.1893
11
194.473
21
-89.2235
0
LINE
8
BLACK
6
CONTINUOUS
10
194.473
20
-89.2235
11
194.419
21
-89.2774
0
LINE
8
BLACK
6
CONTINUOUS
10
194.419
20
-89.2774
11
194.554
21
-89.2774
0
LINE
8
BLACK
6
CONTINUOUS
10
194.554
20
-89.2774
11
194.622
21
-89.2431
0
LINE
8
BLACK
6
CONTINUOUS
10
194.622
20
-89.2431
11
194.694
21
-89.1712
0
LINE
8
BLACK
6
CONTINUOUS
10
194.694
20
-89.1712
11
194.735
21
-89.0098
0
LINE
8
BLACK
6
CONTINUOUS
10
194.735
20
-89.0098
11
194.735
21
-88.6949
0
LINE
8
BLACK
6
CONTINUOUS
10
194.735
20
-88.6949
11
194.694
21
-88.5336
0
LINE
8
BLACK
6
CONTINUOUS
10
194.694
20
-88.5336
11
194.622
21
-88.4616
0
LINE
8
BLACK
6
CONTINUOUS
10
194.622
20
-88.4616
11
194.554
21
-88.4274
0
LINE
8
BLACK
6
CONTINUOUS
10
194.554
20
-88.4274
11
194.399
21
-88.4274
0
LINE
8
BLACK
6
CONTINUOUS
10
193.835
20
-88.2819
11
193.874
21
-88.3149
0
LINE
8
BLACK
6
CONTINUOUS
10
193.874
20
-88.3149
11
193.883
21
-88.3654
0
LINE
8
BLACK
6
CONTINUOUS
10
193.883
20
-88.3654
11
193.858
21
-88.4098
0
LINE
8
BLACK
6
CONTINUOUS
10
193.858
20
-88.4098
11
193.81
21
-88.4274
0
LINE
8
BLACK
6
CONTINUOUS
10
193.81
20
-88.4274
11
193.356
21
-88.4274
0
LINE
8
BLACK
6
CONTINUOUS
10
193.356
20
-88.4274
11
193.58
21
-88.6839
0
LINE
8
BLACK
6
CONTINUOUS
10
193.58
20
-88.6839
11
193.586
21
-88.6936
0
LINE
8
BLACK
6
CONTINUOUS
10
193.586
20
-88.6936
11
193.589
21
-88.6958
0
LINE
8
BLACK
6
CONTINUOUS
10
193.589
20
-88.6958
11
193.589
21
-88.6989
0
LINE
8
BLACK
6
CONTINUOUS
10
193.589
20
-88.6989
11
193.594
21
-88.7062
0
LINE
8
BLACK
6
CONTINUOUS
10
193.594
20
-88.7062
11
193.594
21
-88.7264
0
LINE
8
BLACK
6
CONTINUOUS
10
193.594
20
-88.7264
11
193.598
21
-88.7464
0
LINE
8
BLACK
6
CONTINUOUS
10
193.598
20
-88.7464
11
193.595
21
-88.7515
0
LINE
8
BLACK
6
CONTINUOUS
10
193.595
20
-88.7515
11
193.595
21
-88.7575
0
LINE
8
BLACK
6
CONTINUOUS
10
193.595
20
-88.7575
11
193.582
21
-88.7733
0
LINE
8
BLACK
6
CONTINUOUS
10
193.582
20
-88.7733
11
193.572
21
-88.7908
0
LINE
8
BLACK
6
CONTINUOUS
10
193.572
20
-88.7908
11
193.566
21
-88.7928
0
LINE
8
BLACK
6
CONTINUOUS
10
193.566
20
-88.7928
11
193.563
21
-88.7975
0
LINE
8
BLACK
6
CONTINUOUS
10
193.563
20
-88.7975
11
193.543
21
-88.8014
0
LINE
8
BLACK
6
CONTINUOUS
10
193.543
20
-88.8014
11
193.524
21
-88.8083
0
LINE
8
BLACK
6
CONTINUOUS
10
193.524
20
-88.8083
11
193.399
21
-88.8083
0
LINE
8
BLACK
6
CONTINUOUS
10
193.399
20
-88.8083
11
193.33
21
-88.8426
0
LINE
8
BLACK
6
CONTINUOUS
10
193.33
20
-88.8426
11
193.3
21
-88.873
0
LINE
8
BLACK
6
CONTINUOUS
10
193.3
20
-88.873
11
193.265
21
-88.9415
0
LINE
8
BLACK
6
CONTINUOUS
10
193.265
20
-88.9415
11
193.265
21
-89.1442
0
LINE
8
BLACK
6
CONTINUOUS
10
193.265
20
-89.1442
11
193.3
21
-89.2127
0
LINE
8
BLACK
6
CONTINUOUS
10
193.3
20
-89.2127
11
193.33
21
-89.2431
0
LINE
8
BLACK
6
CONTINUOUS
10
193.33
20
-89.2431
11
193.399
21
-89.2774
0
LINE
8
BLACK
6
CONTINUOUS
10
193.399
20
-89.2774
11
193.649
21
-89.2774
0
LINE
8
BLACK
6
CONTINUOUS
10
193.649
20
-89.2774
11
193.717
21
-89.2431
0
LINE
8
BLACK
6
CONTINUOUS
10
193.717
20
-89.2431
11
193.756
21
-89.2041
0
LINE
8
BLACK
6
CONTINUOUS
10
193.756
20
-89.2041
11
193.778
21
-89.1892
0
LINE
8
BLACK
6
CONTINUOUS
10
193.778
20
-89.1892
11
193.829
21
-89.1847
0
LINE
8
BLACK
6
CONTINUOUS
10
193.829
20
-89.1847
11
193.871
21
-89.2141
0
LINE
8
BLACK
6
CONTINUOUS
10
193.871
20
-89.2141
11
193.884
21
-89.2637
0
LINE
8
BLACK
6
CONTINUOUS
10
193.884
20
-89.2637
11
193.863
21
-89.3102
0
LINE
8
BLACK
6
CONTINUOUS
10
193.863
20
-89.3102
11
193.815
21
-89.3578
0
LINE
8
BLACK
6
CONTINUOUS
10
193.815
20
-89.3578
11
193.797
21
-89.3707
0
LINE
8
BLACK
6
CONTINUOUS
10
193.797
20
-89.3707
11
193.795
21
-89.3718
0
LINE
8
BLACK
6
CONTINUOUS
10
193.795
20
-89.3718
11
193.7
21
-89.4195
0
LINE
8
BLACK
6
CONTINUOUS
10
193.7
20
-89.4195
11
193.675
21
-89.4269
0
LINE
8
BLACK
6
CONTINUOUS
10
193.675
20
-89.4269
11
193.671
21
-89.4258
0
LINE
8
BLACK
6
CONTINUOUS
10
193.671
20
-89.4258
11
193.667
21
-89.4274
0
LINE
8
BLACK
6
CONTINUOUS
10
193.667
20
-89.4274
11
193.381
21
-89.4274
0
LINE
8
BLACK
6
CONTINUOUS
10
193.381
20
-89.4274
11
193.355
21
-89.4229
0
LINE
8
BLACK
6
CONTINUOUS
10
193.355
20
-89.4229
11
193.352
21
-89.42
0
LINE
8
BLACK
6
CONTINUOUS
10
193.352
20
-89.42
11
193.347
21
-89.4195
0
LINE
8
BLACK
6
CONTINUOUS
10
193.347
20
-89.4195
11
193.252
21
-89.3718
0
LINE
8
BLACK
6
CONTINUOUS
10
193.252
20
-89.3718
11
193.234
21
-89.3585
0
LINE
8
BLACK
6
CONTINUOUS
10
193.234
20
-89.3585
11
193.233
21
-89.3578
0
LINE
8
BLACK
6
CONTINUOUS
10
193.233
20
-89.3578
11
193.185
21
-89.3102
0
LINE
8
BLACK
6
CONTINUOUS
10
193.185
20
-89.3102
11
193.172
21
-89.2918
0
LINE
8
BLACK
6
CONTINUOUS
10
193.172
20
-89.2918
11
193.171
21
-89.2907
0
LINE
8
BLACK
6
CONTINUOUS
10
193.171
20
-89.2907
11
193.123
21
-89.1954
0
LINE
8
BLACK
6
CONTINUOUS
10
193.123
20
-89.1954
11
193.116
21
-89.1705
0
LINE
8
BLACK
6
CONTINUOUS
10
193.116
20
-89.1705
11
193.117
21
-89.1661
0
LINE
8
BLACK
6
CONTINUOUS
10
193.117
20
-89.1661
11
193.115
21
-89.1619
0
LINE
8
BLACK
6
CONTINUOUS
10
193.115
20
-89.1619
11
193.115
21
-88.9238
0
LINE
8
BLACK
6
CONTINUOUS
10
193.115
20
-88.9238
11
193.12
21
-88.8982
0
LINE
8
BLACK
6
CONTINUOUS
10
193.12
20
-88.8982
11
193.123
21
-88.8947
0
LINE
8
BLACK
6
CONTINUOUS
10
193.123
20
-88.8947
11
193.123
21
-88.8903
0
LINE
8
BLACK
6
CONTINUOUS
10
193.123
20
-88.8903
11
193.171
21
-88.795
0
LINE
8
BLACK
6
CONTINUOUS
10
193.171
20
-88.795
11
193.184
21
-88.777
0
LINE
8
BLACK
6
CONTINUOUS
10
193.184
20
-88.777
11
193.185
21
-88.7755
0
LINE
8
BLACK
6
CONTINUOUS
10
193.185
20
-88.7755
11
193.233
21
-88.7279
0
LINE
8
BLACK
6
CONTINUOUS
10
193.233
20
-88.7279
11
193.251
21
-88.7151
0
LINE
8
BLACK
6
CONTINUOUS
10
193.251
20
-88.7151
11
193.252
21
-88.7139
0
LINE
8
BLACK
6
CONTINUOUS
10
193.252
20
-88.7139
11
193.347
21
-88.6663
0
LINE
8
BLACK
6
CONTINUOUS
10
193.347
20
-88.6663
11
193.362
21
-88.662
0
LINE
8
BLACK
6
CONTINUOUS
10
193.362
20
-88.662
11
193.134
21
-88.4018
0
LINE
8
BLACK
6
CONTINUOUS
10
193.134
20
-88.4018
11
193.128
21
-88.3921
0
LINE
8
BLACK
6
CONTINUOUS
10
193.128
20
-88.3921
11
193.126
21
-88.3899
0
LINE
8
BLACK
6
CONTINUOUS
10
193.126
20
-88.3899
11
193.125
21
-88.3868
0
LINE
8
BLACK
6
CONTINUOUS
10
193.125
20
-88.3868
11
193.121
21
-88.3795
0
LINE
8
BLACK
6
CONTINUOUS
10
193.121
20
-88.3795
11
193.12
21
-88.3593
0
LINE
8
BLACK
6
CONTINUOUS
10
193.12
20
-88.3593
11
193.117
21
-88.3394
0
LINE
8
BLACK
6
CONTINUOUS
10
193.117
20
-88.3394
11
193.12
21
-88.3342
0
LINE
8
BLACK
6
CONTINUOUS
10
193.12
20
-88.3342
11
193.119
21
-88.3282
0
LINE
8
BLACK
6
CONTINUOUS
10
193.119
20
-88.3282
11
193.132
21
-88.3124
0
LINE
8
BLACK
6
CONTINUOUS
10
193.132
20
-88.3124
11
193.142
21
-88.2949
0
LINE
8
BLACK
6
CONTINUOUS
10
193.142
20
-88.2949
11
193.148
21
-88.2929
0
LINE
8
BLACK
6
CONTINUOUS
10
193.148
20
-88.2929
11
193.152
21
-88.2882
0
LINE
8
BLACK
6
CONTINUOUS
10
193.152
20
-88.2882
11
193.171
21
-88.2843
0
LINE
8
BLACK
6
CONTINUOUS
10
193.171
20
-88.2843
11
193.19
21
-88.2774
0
LINE
8
BLACK
6
CONTINUOUS
10
193.19
20
-88.2774
11
193.81
21
-88.2774
0
LINE
8
BLACK
6
CONTINUOUS
10
193.81
20
-88.2774
11
193.835
21
-88.2819
0
LINE
8
BLACK
6
CONTINUOUS
10
189.442
20
-88.0676
11
189.46
21
-88.11
0
LINE
8
BLACK
6
CONTINUOUS
10
189.46
20
-88.11
11
189.442
21
-88.1524
0
LINE
8
BLACK
6
CONTINUOUS
10
189.442
20
-88.1524
11
189.4
21
-88.17
0
LINE
8
BLACK
6
CONTINUOUS
10
189.4
20
-88.17
11
187.6
21
-88.17
0
LINE
8
BLACK
6
CONTINUOUS
10
187.6
20
-88.17
11
187.558
21
-88.1524
0
LINE
8
BLACK
6
CONTINUOUS
10
187.558
20
-88.1524
11
187.54
21
-88.11
0
LINE
8
BLACK
6
CONTINUOUS
10
187.54
20
-88.11
11
187.558
21
-88.0676
0
LINE
8
BLACK
6
CONTINUOUS
10
187.558
20
-88.0676
11
187.6
21
-88.05
0
LINE
8
BLACK
6
CONTINUOUS
10
187.6
20
-88.05
11
189.4
21
-88.05
0
LINE
8
BLACK
6
CONTINUOUS
10
189.4
20
-88.05
11
189.442
21
-88.0676
0
LINE
8
BLACK
6
CONTINUOUS
10
192.283
20
-88.1024
11
192.265
21
-88.06
0
LINE
8
BLACK
6
CONTINUOUS
10
192.265
20
-88.06
11
192.283
21
-88.0176
0
LINE
8
BLACK
6
CONTINUOUS
10
192.283
20
-88.0176
11
192.325
21
-88
0
LINE
8
BLACK
6
CONTINUOUS
10
192.325
20
-88
11
194.65
21
-88
0
LINE
8
BLACK
6
CONTINUOUS
10
194.65
20
-88
11
194.692
21
-88.0176
0
LINE
8
BLACK
6
CONTINUOUS
10
194.692
20
-88.0176
11
194.71
21
-88.06
0
LINE
8
BLACK
6
CONTINUOUS
10
194.71
20
-88.06
11
194.692
21
-88.1024
0
LINE
8
BLACK
6
CONTINUOUS
10
194.692
20
-88.1024
11
194.65
21
-88.12
0
LINE
8
BLACK
6
CONTINUOUS
10
194.65
20
-88.12
11
192.325
21
-88.12
0
LINE
8
BLACK
6
CONTINUOUS
10
192.325
20
-88.12
11
192.283
21
-88.1024
0
LINE
8
BLACK
6
CONTINUOUS
10
193.308
20
-84.9824
11
193.29
21
-84.94
0
LINE
8
BLACK
6
CONTINUOUS
10
193.29
20
-84.94
11
193.308
21
-84.8976
0
LINE
8
BLACK
6
CONTINUOUS
10
193.308
20
-84.8976
11
193.35
21
-84.88
0
LINE
8
BLACK
6
CONTINUOUS
10
193.35
20
-84.88
11
194.65
21
-84.88
0
LINE
8
BLACK
6
CONTINUOUS
10
194.65
20
-84.88
11
194.692
21
-84.8976
0
LINE
8
BLACK
6
CONTINUOUS
10
194.692
20
-84.8976
11
194.71
21
-84.94
0
LINE
8
BLACK
6
CONTINUOUS
10
194.71
20
-84.94
11
194.692
21
-84.9824
0
LINE
8
BLACK
6
CONTINUOUS
10
194.692
20
-84.9824
11
194.65
21
-85
0
LINE
8
BLACK
6
CONTINUOUS
10
194.65
20
-85
11
193.35
21
-85
0
LINE
8
BLACK
6
CONTINUOUS
10
193.35
20
-85
11
193.308
21
-84.9824
0
LINE
8
BLACK
6
CONTINUOUS
10
190.592
20
-84.8476
11
190.61
21
-84.89
0
LINE
8
BLACK
6
CONTINUOUS
10
190.61
20
-84.89
11
190.592
21
-84.9324
0
LINE
8
BLACK
6
CONTINUOUS
10
190.592
20
-84.9324
11
190.55
21
-84.95
0
LINE
8
BLACK
6
CONTINUOUS
10
190.55
20
-84.95
11
187.6
21
-84.95
0
LINE
8
BLACK
6
CONTINUOUS
10
187.6
20
-84.95
11
187.558
21
-84.9324
0
LINE
8
BLACK
6
CONTINUOUS
10
187.558
20
-84.9324
11
187.54
21
-84.89
0
LINE
8
BLACK
6
CONTINUOUS
10
187.54
20
-84.89
11
187.558
21
-84.8476
0
LINE
8
BLACK
6
CONTINUOUS
10
187.558
20
-84.8476
11
187.6
21
-84.83
0
LINE
8
BLACK
6
CONTINUOUS
10
187.6
20
-84.83
11
190.55
21
-84.83
0
LINE
8
BLACK
6
CONTINUOUS
10
190.55
20
-84.83
11
190.592
21
-84.8476
0
LINE
8
BLACK
6
CONTINUOUS
10
189.097
20
-83.2819
11
189.101
21
-83.2848
0
LINE
8
BLACK
6
CONTINUOUS
10
189.101
20
-83.2848
11
189.105
21
-83.2853
0
LINE
8
BLACK
6
CONTINUOUS
10
189.105
20
-83.2853
11
189.2
21
-83.3329
0
LINE
8
BLACK
6
CONTINUOUS
10
189.2
20
-83.3329
11
189.218
21
-83.3463
0
LINE
8
BLACK
6
CONTINUOUS
10
189.218
20
-83.3463
11
189.22
21
-83.347
0
LINE
8
BLACK
6
CONTINUOUS
10
189.22
20
-83.347
11
189.315
21
-83.4422
0
LINE
8
BLACK
6
CONTINUOUS
10
189.315
20
-83.4422
11
189.33
21
-83.4635
0
LINE
8
BLACK
6
CONTINUOUS
10
189.33
20
-83.4635
11
189.331
21
-83.4709
0
LINE
8
BLACK
6
CONTINUOUS
10
189.331
20
-83.4709
11
189.335
21
-83.477
0
LINE
8
BLACK
6
CONTINUOUS
10
189.335
20
-83.477
11
189.382
21
-83.6675
0
LINE
8
BLACK
6
CONTINUOUS
10
189.382
20
-83.6675
11
189.383
21
-83.6825
0
LINE
8
BLACK
6
CONTINUOUS
10
189.383
20
-83.6825
11
189.385
21
-83.6857
0
LINE
8
BLACK
6
CONTINUOUS
10
189.385
20
-83.6857
11
189.385
21
-84.019
0
LINE
8
BLACK
6
CONTINUOUS
10
189.385
20
-84.019
11
189.382
21
-84.0338
0
LINE
8
BLACK
6
CONTINUOUS
10
189.382
20
-84.0338
11
189.382
21
-84.0372
0
LINE
8
BLACK
6
CONTINUOUS
10
189.382
20
-84.0372
11
189.335
21
-84.2277
0
LINE
8
BLACK
6
CONTINUOUS
10
189.335
20
-84.2277
11
189.324
21
-84.2515
0
LINE
8
BLACK
6
CONTINUOUS
10
189.324
20
-84.2515
11
189.318
21
-84.2558
0
LINE
8
BLACK
6
CONTINUOUS
10
189.318
20
-84.2558
11
189.315
21
-84.2626
0
LINE
8
BLACK
6
CONTINUOUS
10
189.315
20
-84.2626
11
189.22
21
-84.3578
0
LINE
8
BLACK
6
CONTINUOUS
10
189.22
20
-84.3578
11
189.201
21
-84.3707
0
LINE
8
BLACK
6
CONTINUOUS
10
189.201
20
-84.3707
11
189.2
21
-84.3718
0
LINE
8
BLACK
6
CONTINUOUS
10
189.2
20
-84.3718
11
189.105
21
-84.4195
0
LINE
8
BLACK
6
CONTINUOUS
10
189.105
20
-84.4195
11
189.08
21
-84.4269
0
LINE
8
BLACK
6
CONTINUOUS
10
189.08
20
-84.4269
11
189.076
21
-84.4258
0
LINE
8
BLACK
6
CONTINUOUS
10
189.076
20
-84.4258
11
189.071
21
-84.4274
0
LINE
8
BLACK
6
CONTINUOUS
10
189.071
20
-84.4274
11
188.881
21
-84.4274
0
LINE
8
BLACK
6
CONTINUOUS
10
188.881
20
-84.4274
11
188.855
21
-84.4229
0
LINE
8
BLACK
6
CONTINUOUS
10
188.855
20
-84.4229
11
188.852
21
-84.42
0
LINE
8
BLACK
6
CONTINUOUS
10
188.852
20
-84.42
11
188.847
21
-84.4195
0
LINE
8
BLACK
6
CONTINUOUS
10
188.847
20
-84.4195
11
188.801
21
-84.396
0
LINE
8
BLACK
6
CONTINUOUS
10
188.801
20
-84.396
11
188.744
21
-84.453
0
LINE
8
BLACK
6
CONTINUOUS
10
188.744
20
-84.453
11
188.725
21
-84.4659
0
LINE
8
BLACK
6
CONTINUOUS
10
188.725
20
-84.4659
11
188.724
21
-84.4671
0
LINE
8
BLACK
6
CONTINUOUS
10
188.724
20
-84.4671
11
188.629
21
-84.5147
0
LINE
8
BLACK
6
CONTINUOUS
10
188.629
20
-84.5147
11
188.604
21
-84.5221
0
LINE
8
BLACK
6
CONTINUOUS
10
188.604
20
-84.5221
11
188.554
21
-84.5102
0
LINE
8
BLACK
6
CONTINUOUS
10
188.554
20
-84.5102
11
188.523
21
-84.469
0
LINE
8
BLACK
6
CONTINUOUS
10
188.523
20
-84.469
11
188.526
21
-84.4178
0
LINE
8
BLACK
6
CONTINUOUS
10
188.526
20
-84.4178
11
188.562
21
-84.3805
0
LINE
8
BLACK
6
CONTINUOUS
10
188.562
20
-84.3805
11
188.646
21
-84.3384
0
LINE
8
BLACK
6
CONTINUOUS
10
188.646
20
-84.3384
11
188.68
21
-84.3048
0
LINE
8
BLACK
6
CONTINUOUS
10
188.68
20
-84.3048
11
188.637
21
-84.2626
0
LINE
8
BLACK
6
CONTINUOUS
10
188.637
20
-84.2626
11
188.623
21
-84.2412
0
LINE
8
BLACK
6
CONTINUOUS
10
188.623
20
-84.2412
11
188.622
21
-84.2338
0
LINE
8
BLACK
6
CONTINUOUS
10
188.622
20
-84.2338
11
188.618
21
-84.2277
0
LINE
8
BLACK
6
CONTINUOUS
10
188.618
20
-84.2277
11
188.57
21
-84.0372
0
LINE
8
BLACK
6
CONTINUOUS
10
188.57
20
-84.0372
11
188.569
21
-84.0223
0
LINE
8
BLACK
6
CONTINUOUS
10
188.569
20
-84.0223
11
188.568
21
-84.019
0
LINE
8
BLACK
6
CONTINUOUS
10
188.568
20
-84.019
11
188.568
21
-83.6857
0
LINE
8
BLACK
6
CONTINUOUS
10
188.568
20
-83.6857
11
188.57
21
-83.671
0
LINE
8
BLACK
6
CONTINUOUS
10
188.57
20
-83.671
11
188.57
21
-83.6675
0
LINE
8
BLACK
6
CONTINUOUS
10
188.57
20
-83.6675
11
188.618
21
-83.477
0
LINE
8
BLACK
6
CONTINUOUS
10
188.618
20
-83.477
11
188.628
21
-83.4533
0
LINE
8
BLACK
6
CONTINUOUS
10
188.628
20
-83.4533
11
188.634
21
-83.4489
0
LINE
8
BLACK
6
CONTINUOUS
10
188.634
20
-83.4489
11
188.637
21
-83.4422
0
LINE
8
BLACK
6
CONTINUOUS
10
188.637
20
-83.4422
11
188.733
21
-83.347
0
LINE
8
BLACK
6
CONTINUOUS
10
188.733
20
-83.347
11
188.751
21
-83.3341
0
LINE
8
BLACK
6
CONTINUOUS
10
188.751
20
-83.3341
11
188.752
21
-83.3329
0
LINE
8
BLACK
6
CONTINUOUS
10
188.752
20
-83.3329
11
188.847
21
-83.2853
0
LINE
8
BLACK
6
CONTINUOUS
10
188.847
20
-83.2853
11
188.872
21
-83.2779
0
LINE
8
BLACK
6
CONTINUOUS
10
188.872
20
-83.2779
11
188.877
21
-83.2789
0
LINE
8
BLACK
6
CONTINUOUS
10
188.877
20
-83.2789
11
188.881
21
-83.2774
0
LINE
8
BLACK
6
CONTINUOUS
10
188.881
20
-83.2774
11
189.071
21
-83.2774
0
LINE
8
BLACK
6
CONTINUOUS
10
189.071
20
-83.2774
11
189.097
21
-83.2819
0
LINE
8
BLACK
6
CONTINUOUS
10
188.899
20
-83.4274
11
188.83
21
-83.4616
0
LINE
8
BLACK
6
CONTINUOUS
10
188.83
20
-83.4616
11
188.758
21
-83.5336
0
LINE
8
BLACK
6
CONTINUOUS
10
188.758
20
-83.5336
11
188.718
21
-83.6949
0
LINE
8
BLACK
6
CONTINUOUS
10
188.718
20
-83.6949
11
188.718
21
-84.0098
0
LINE
8
BLACK
6
CONTINUOUS
10
188.718
20
-84.0098
11
188.758
21
-84.1712
0
LINE
8
BLACK
6
CONTINUOUS
10
188.758
20
-84.1712
11
188.786
21
-84.1987
0
LINE
8
BLACK
6
CONTINUOUS
10
188.786
20
-84.1987
11
188.876
21
-84.1089
0
LINE
8
BLACK
6
CONTINUOUS
10
188.876
20
-84.1089
11
188.894
21
-84.096
0
LINE
8
BLACK
6
CONTINUOUS
10
188.894
20
-84.096
11
188.895
21
-84.0948
0
LINE
8
BLACK
6
CONTINUOUS
10
188.895
20
-84.0948
11
188.99
21
-84.0472
0
LINE
8
BLACK
6
CONTINUOUS
10
188.99
20
-84.0472
11
189.015
21
-84.0398
0
LINE
8
BLACK
6
CONTINUOUS
10
189.015
20
-84.0398
11
189.02
21
-84.0408
0
LINE
8
BLACK
6
CONTINUOUS
10
189.02
20
-84.0408
11
189.024
21
-84.0393
0
LINE
8
BLACK
6
CONTINUOUS
10
189.024
20
-84.0393
11
189.119
21
-84.0393
0
LINE
8
BLACK
6
CONTINUOUS
10
189.119
20
-84.0393
11
189.145
21
-84.0438
0
LINE
8
BLACK
6
CONTINUOUS
10
189.145
20
-84.0438
11
189.184
21
-84.0768
0
LINE
8
BLACK
6
CONTINUOUS
10
189.184
20
-84.0768
11
189.193
21
-84.1273
0
LINE
8
BLACK
6
CONTINUOUS
10
189.193
20
-84.1273
11
189.167
21
-84.1717
0
LINE
8
BLACK
6
CONTINUOUS
10
189.167
20
-84.1717
11
189.119
21
-84.1893
0
LINE
8
BLACK
6
CONTINUOUS
10
189.119
20
-84.1893
11
189.042
21
-84.1893
0
LINE
8
BLACK
6
CONTINUOUS
10
189.042
20
-84.1893
11
188.973
21
-84.2235
0
LINE
8
BLACK
6
CONTINUOUS
10
188.973
20
-84.2235
11
188.919
21
-84.2774
0
LINE
8
BLACK
6
CONTINUOUS
10
188.919
20
-84.2774
11
189.054
21
-84.2774
0
LINE
8
BLACK
6
CONTINUOUS
10
189.054
20
-84.2774
11
189.122
21
-84.2431
0
LINE
8
BLACK
6
CONTINUOUS
10
189.122
20
-84.2431
11
189.194
21
-84.1712
0
LINE
8
BLACK
6
CONTINUOUS
10
189.194
20
-84.1712
11
189.235
21
-84.0098
0
LINE
8
BLACK
6
CONTINUOUS
10
189.235
20
-84.0098
11
189.235
21
-83.6949
0
LINE
8
BLACK
6
CONTINUOUS
10
189.235
20
-83.6949
11
189.194
21
-83.5336
0
LINE
8
BLACK
6
CONTINUOUS
10
189.194
20
-83.5336
11
189.122
21
-83.4616
0
LINE
8
BLACK
6
CONTINUOUS
10
189.122
20
-83.4616
11
189.054
21
-83.4274
0
LINE
8
BLACK
6
CONTINUOUS
10
189.054
20
-83.4274
11
188.899
21
-83.4274
0
LINE
8
BLACK
6
CONTINUOUS
10
188.145
20
-83.2819
11
188.148
21
-83.2848
0
LINE
8
BLACK
6
CONTINUOUS
10
188.148
20
-83.2848
11
188.153
21
-83.2853
0
LINE
8
BLACK
6
CONTINUOUS
10
188.153
20
-83.2853
11
188.248
21
-83.3329
0
LINE
8
BLACK
6
CONTINUOUS
10
188.248
20
-83.3329
11
188.266
21
-83.3463
0
LINE
8
BLACK
6
CONTINUOUS
10
188.266
20
-83.3463
11
188.267
21
-83.347
0
LINE
8
BLACK
6
CONTINUOUS
10
188.267
20
-83.347
11
188.315
21
-83.3946
0
LINE
8
BLACK
6
CONTINUOUS
10
188.315
20
-83.3946
11
188.33
21
-83.4159
0
LINE
8
BLACK
6
CONTINUOUS
10
188.33
20
-83.4159
11
188.334
21
-83.467
0
LINE
8
BLACK
6
CONTINUOUS
10
188.334
20
-83.467
11
188.305
21
-83.5091
0
LINE
8
BLACK
6
CONTINUOUS
10
188.305
20
-83.5091
11
188.255
21
-83.5223
0
LINE
8
BLACK
6
CONTINUOUS
10
188.255
20
-83.5223
11
188.209
21
-83.5007
0
LINE
8
BLACK
6
CONTINUOUS
10
188.209
20
-83.5007
11
188.17
21
-83.4616
0
LINE
8
BLACK
6
CONTINUOUS
10
188.17
20
-83.4616
11
188.101
21
-83.4274
0
LINE
8
BLACK
6
CONTINUOUS
10
188.101
20
-83.4274
11
187.899
21
-83.4274
0
LINE
8
BLACK
6
CONTINUOUS
10
187.899
20
-83.4274
11
187.83
21
-83.4616
0
LINE
8
BLACK
6
CONTINUOUS
10
187.83
20
-83.4616
11
187.8
21
-83.492
0
LINE
8
BLACK
6
CONTINUOUS
10
187.8
20
-83.492
11
187.765
21
-83.5606
0
LINE
8
BLACK
6
CONTINUOUS
10
187.765
20
-83.5606
11
187.765
21
-83.6259
0
LINE
8
BLACK
6
CONTINUOUS
10
187.765
20
-83.6259
11
187.804
21
-83.7404
0
LINE
8
BLACK
6
CONTINUOUS
10
187.804
20
-83.7404
11
188.363
21
-84.2993
0
LINE
8
BLACK
6
CONTINUOUS
10
188.363
20
-84.2993
11
188.372
21
-84.3128
0
LINE
8
BLACK
6
CONTINUOUS
10
188.372
20
-84.3128
11
188.374
21
-84.3149
0
LINE
8
BLACK
6
CONTINUOUS
10
188.374
20
-84.3149
11
188.375
21
-84.3169
0
LINE
8
BLACK
6
CONTINUOUS
10
188.375
20
-84.3169
11
188.377
21
-84.3207
0
LINE
8
BLACK
6
CONTINUOUS
10
188.377
20
-84.3207
11
188.379
21
-84.3432
0
LINE
8
BLACK
6
CONTINUOUS
10
188.379
20
-84.3432
11
188.383
21
-84.3654
0
LINE
8
BLACK
6
CONTINUOUS
10
188.383
20
-84.3654
11
188.382
21
-84.3684
0
LINE
8
BLACK
6
CONTINUOUS
10
188.382
20
-84.3684
11
188.382
21
-84.3718
0
LINE
8
BLACK
6
CONTINUOUS
10
188.382
20
-84.3718
11
188.369
21
-84.3903
0
LINE
8
BLACK
6
CONTINUOUS
10
188.369
20
-84.3903
11
188.358
21
-84.4098
0
LINE
8
BLACK
6
CONTINUOUS
10
188.358
20
-84.4098
11
188.355
21
-84.411
0
LINE
8
BLACK
6
CONTINUOUS
10
188.355
20
-84.411
11
188.353
21
-84.4138
0
LINE
8
BLACK
6
CONTINUOUS
10
188.353
20
-84.4138
11
188.331
21
-84.4197
0
LINE
8
BLACK
6
CONTINUOUS
10
188.331
20
-84.4197
11
188.31
21
-84.4274
0
LINE
8
BLACK
6
CONTINUOUS
10
188.31
20
-84.4274
11
187.69
21
-84.4274
0
LINE
8
BLACK
6
CONTINUOUS
10
187.69
20
-84.4274
11
187.665
21
-84.4229
0
LINE
8
BLACK
6
CONTINUOUS
10
187.665
20
-84.4229
11
187.626
21
-84.3899
0
LINE
8
BLACK
6
CONTINUOUS
10
187.626
20
-84.3899
11
187.617
21
-84.3394
0
LINE
8
BLACK
6
CONTINUOUS
10
187.617
20
-84.3394
11
187.642
21
-84.2949
0
LINE
8
BLACK
6
CONTINUOUS
10
187.642
20
-84.2949
11
187.69
21
-84.2774
0
LINE
8
BLACK
6
CONTINUOUS
10
187.69
20
-84.2774
11
188.128
21
-84.2774
0
LINE
8
BLACK
6
CONTINUOUS
10
188.128
20
-84.2774
11
187.685
21
-83.834
0
LINE
8
BLACK
6
CONTINUOUS
10
187.685
20
-83.834
11
187.67
21
-83.8126
0
LINE
8
BLACK
6
CONTINUOUS
10
187.67
20
-83.8126
11
187.67
21
-83.8082
0
LINE
8
BLACK
6
CONTINUOUS
10
187.67
20
-83.8082
11
187.667
21
-83.8047
0
LINE
8
BLACK
6
CONTINUOUS
10
187.667
20
-83.8047
11
187.619
21
-83.6618
0
LINE
8
BLACK
6
CONTINUOUS
10
187.619
20
-83.6618
11
187.616
21
-83.6396
0
LINE
8
BLACK
6
CONTINUOUS
10
187.616
20
-83.6396
11
187.615
21
-83.6381
0
LINE
8
BLACK
6
CONTINUOUS
10
187.615
20
-83.6381
11
187.615
21
-83.5429
0
LINE
8
BLACK
6
CONTINUOUS
10
187.615
20
-83.5429
11
187.62
21
-83.5172
0
LINE
8
BLACK
6
CONTINUOUS
10
187.62
20
-83.5172
11
187.623
21
-83.5138
0
LINE
8
BLACK
6
CONTINUOUS
10
187.623
20
-83.5138
11
187.623
21
-83.5093
0
LINE
8
BLACK
6
CONTINUOUS
10
187.623
20
-83.5093
11
187.671
21
-83.4141
0
LINE
8
BLACK
6
CONTINUOUS
10
187.671
20
-83.4141
11
187.684
21
-83.3961
0
LINE
8
BLACK
6
CONTINUOUS
10
187.684
20
-83.3961
11
187.685
21
-83.3946
0
LINE
8
BLACK
6
CONTINUOUS
10
187.685
20
-83.3946
11
187.733
21
-83.347
0
LINE
8
BLACK
6
CONTINUOUS
10
187.733
20
-83.347
11
187.751
21
-83.3341
0
LINE
8
BLACK
6
CONTINUOUS
10
187.751
20
-83.3341
11
187.752
21
-83.3329
0
LINE
8
BLACK
6
CONTINUOUS
10
187.752
20
-83.3329
11
187.847
21
-83.2853
0
LINE
8
BLACK
6
CONTINUOUS
10
187.847
20
-83.2853
11
187.872
21
-83.2779
0
LINE
8
BLACK
6
CONTINUOUS
10
187.872
20
-83.2779
11
187.877
21
-83.2789
0
LINE
8
BLACK
6
CONTINUOUS
10
187.877
20
-83.2789
11
187.881
21
-83.2774
0
LINE
8
BLACK
6
CONTINUOUS
10
187.881
20
-83.2774
11
188.119
21
-83.2774
0
LINE
8
BLACK
6
CONTINUOUS
10
188.119
20
-83.2774
11
188.145
21
-83.2819
0
LINE
8
BLACK
6
CONTINUOUS
10
186.783
20
-83.1024
11
186.765
21
-83.06
0
LINE
8
BLACK
6
CONTINUOUS
10
186.765
20
-83.06
11
186.783
21
-83.0176
0
LINE
8
BLACK
6
CONTINUOUS
10
186.783
20
-83.0176
11
186.825
21
-83
0
LINE
8
BLACK
6
CONTINUOUS
10
186.825
20
-83
11
189.15
21
-83
0
LINE
8
BLACK
6
CONTINUOUS
10
189.15
20
-83
11
189.192
21
-83.0176
0
LINE
8
BLACK
6
CONTINUOUS
10
189.192
20
-83.0176
11
189.21
21
-83.06
0
LINE
8
BLACK
6
CONTINUOUS
10
189.21
20
-83.06
11
189.192
21
-83.1024
0
LINE
8
BLACK
6
CONTINUOUS
10
189.192
20
-83.1024
11
189.15
21
-83.12
0
LINE
8
BLACK
6
CONTINUOUS
10
189.15
20
-83.12
11
186.825
21
-83.12
0
LINE
8
BLACK
6
CONTINUOUS
10
186.825
20
-83.12
11
186.783
21
-83.1024
0
LINE
8
BLACK
6
CONTINUOUS
10
187.808
20
-79.9824
11
187.79
21
-79.94
0
LINE
8
BLACK
6
CONTINUOUS
10
187.79
20
-79.94
11
187.808
21
-79.8976
0
LINE
8
BLACK
6
CONTINUOUS
10
187.808
20
-79.8976
11
187.85
21
-79.88
0
LINE
8
BLACK
6
CONTINUOUS
10
187.85
20
-79.88
11
189.15
21
-79.88
0
LINE
8
BLACK
6
CONTINUOUS
10
189.15
20
-79.88
11
189.192
21
-79.8976
0
LINE
8
BLACK
6
CONTINUOUS
10
189.192
20
-79.8976
11
189.21
21
-79.94
0
LINE
8
BLACK
6
CONTINUOUS
10
189.21
20
-79.94
11
189.192
21
-79.9824
0
LINE
8
BLACK
6
CONTINUOUS
10
189.192
20
-79.9824
11
189.15
21
-80
0
LINE
8
BLACK
6
CONTINUOUS
10
189.15
20
-80
11
187.85
21
-80
0
LINE
8
BLACK
6
CONTINUOUS
10
187.85
20
-80
11
187.808
21
-79.9824
0
LINE
8
BLACK
6
CONTINUOUS
10
192.297
20
-78.9801
11
192.315
21
-79.0225
0
LINE
8
BLACK
6
CONTINUOUS
10
192.315
20
-79.0225
11
192.297
21
-79.0649
0
LINE
8
BLACK
6
CONTINUOUS
10
192.297
20
-79.0649
11
192.255
21
-79.0825
0
LINE
8
BLACK
6
CONTINUOUS
10
192.255
20
-79.0825
11
191.745
21
-79.0825
0
LINE
8
BLACK
6
CONTINUOUS
10
191.745
20
-79.0825
11
191.703
21
-79.0649
0
LINE
8
BLACK
6
CONTINUOUS
10
191.703
20
-79.0649
11
191.685
21
-79.0225
0
LINE
8
BLACK
6
CONTINUOUS
10
191.685
20
-79.0225
11
191.703
21
-78.9801
0
LINE
8
BLACK
6
CONTINUOUS
10
191.703
20
-78.9801
11
191.745
21
-78.9625
0
LINE
8
BLACK
6
CONTINUOUS
10
191.745
20
-78.9625
11
192.255
21
-78.9625
0
LINE
8
BLACK
6
CONTINUOUS
10
192.255
20
-78.9625
11
192.297
21
-78.9801
0
LINE
8
BLACK
6
CONTINUOUS
10
186.689
20
-78.9676
11
186.706
21
-79.01
0
LINE
8
BLACK
6
CONTINUOUS
10
186.706
20
-79.01
11
186.689
21
-79.0524
0
LINE
8
BLACK
6
CONTINUOUS
10
186.689
20
-79.0524
11
186.646
21
-79.07
0
LINE
8
BLACK
6
CONTINUOUS
10
186.646
20
-79.07
11
186.354
21
-79.07
0
LINE
8
BLACK
6
CONTINUOUS
10
186.354
20
-79.07
11
186.311
21
-79.0524
0
LINE
8
BLACK
6
CONTINUOUS
10
186.311
20
-79.0524
11
186.294
21
-79.01
0
LINE
8
BLACK
6
CONTINUOUS
10
186.294
20
-79.01
11
186.311
21
-78.9676
0
LINE
8
BLACK
6
CONTINUOUS
10
186.311
20
-78.9676
11
186.354
21
-78.95
0
LINE
8
BLACK
6
CONTINUOUS
10
186.354
20
-78.95
11
186.646
21
-78.95
0
LINE
8
BLACK
6
CONTINUOUS
10
186.646
20
-78.95
11
186.689
21
-78.9676
0
LINE
8
BLACK
6
CONTINUOUS
10
186.689
20
-77.9476
11
186.706
21
-77.99
0
LINE
8
BLACK
6
CONTINUOUS
10
186.706
20
-77.99
11
186.689
21
-78.0324
0
LINE
8
BLACK
6
CONTINUOUS
10
186.689
20
-78.0324
11
186.646
21
-78.05
0
LINE
8
BLACK
6
CONTINUOUS
10
186.646
20
-78.05
11
186.354
21
-78.05
0
LINE
8
BLACK
6
CONTINUOUS
10
186.354
20
-78.05
11
186.311
21
-78.0324
0
LINE
8
BLACK
6
CONTINUOUS
10
186.311
20
-78.0324
11
186.294
21
-77.99
0
LINE
8
BLACK
6
CONTINUOUS
10
186.294
20
-77.99
11
186.311
21
-77.9476
0
LINE
8
BLACK
6
CONTINUOUS
10
186.311
20
-77.9476
11
186.354
21
-77.93
0
LINE
8
BLACK
6
CONTINUOUS
10
186.354
20
-77.93
11
186.646
21
-77.93
0
LINE
8
BLACK
6
CONTINUOUS
10
186.646
20
-77.93
11
186.689
21
-77.9476
0
LINE
8
BLACK
6
CONTINUOUS
10
192.297
20
-77.9351
11
192.315
21
-77.9775
0
LINE
8
BLACK
6
CONTINUOUS
10
192.315
20
-77.9775
11
192.297
21
-78.0199
0
LINE
8
BLACK
6
CONTINUOUS
10
192.297
20
-78.0199
11
192.255
21
-78.0375
0
LINE
8
BLACK
6
CONTINUOUS
10
192.255
20
-78.0375
11
191.745
21
-78.0375
0
LINE
8
BLACK
6
CONTINUOUS
10
191.745
20
-78.0375
11
191.703
21
-78.0199
0
LINE
8
BLACK
6
CONTINUOUS
10
191.703
20
-78.0199
11
191.685
21
-77.9775
0
LINE
8
BLACK
6
CONTINUOUS
10
191.685
20
-77.9775
11
191.703
21
-77.9351
0
LINE
8
BLACK
6
CONTINUOUS
10
191.703
20
-77.9351
11
191.745
21
-77.9175
0
LINE
8
BLACK
6
CONTINUOUS
10
191.745
20
-77.9175
11
192.255
21
-77.9175
0
LINE
8
BLACK
6
CONTINUOUS
10
192.255
20
-77.9175
11
192.297
21
-77.9351
0
LINE
8
BLACK
6
CONTINUOUS
10
186.359
20
-76.4519
11
186.398
21
-76.4849
0
LINE
8
BLACK
6
CONTINUOUS
10
186.398
20
-76.4849
11
186.407
21
-76.5354
0
LINE
8
BLACK
6
CONTINUOUS
10
186.407
20
-76.5354
11
186.382
21
-76.5798
0
LINE
8
BLACK
6
CONTINUOUS
10
186.382
20
-76.5798
11
186.333
21
-76.5974
0
LINE
8
BLACK
6
CONTINUOUS
10
186.333
20
-76.5974
11
185.88
21
-76.5974
0
LINE
8
BLACK
6
CONTINUOUS
10
185.88
20
-76.5974
11
186.104
21
-76.8539
0
LINE
8
BLACK
6
CONTINUOUS
10
186.104
20
-76.8539
11
186.11
21
-76.8636
0
LINE
8
BLACK
6
CONTINUOUS
10
186.11
20
-76.8636
11
186.113
21
-76.8658
0
LINE
8
BLACK
6
CONTINUOUS
10
186.113
20
-76.8658
11
186.113
21
-76.8689
0
LINE
8
BLACK
6
CONTINUOUS
10
186.113
20
-76.8689
11
186.118
21
-76.8762
0
LINE
8
BLACK
6
CONTINUOUS
10
186.118
20
-76.8762
11
186.118
21
-76.8964
0
LINE
8
BLACK
6
CONTINUOUS
10
186.118
20
-76.8964
11
186.121
21
-76.9164
0
LINE
8
BLACK
6
CONTINUOUS
10
186.121
20
-76.9164
11
186.118
21
-76.9215
0
LINE
8
BLACK
6
CONTINUOUS
10
186.118
20
-76.9215
11
186.119
21
-76.9275
0
LINE
8
BLACK
6
CONTINUOUS
10
186.119
20
-76.9275
11
186.106
21
-76.9433
0
LINE
8
BLACK
6
CONTINUOUS
10
186.106
20
-76.9433
11
186.096
21
-76.9608
0
LINE
8
BLACK
6
CONTINUOUS
10
186.096
20
-76.9608
11
186.09
21
-76.9628
0
LINE
8
BLACK
6
CONTINUOUS
10
186.09
20
-76.9628
11
186.086
21
-76.9675
0
LINE
8
BLACK
6
CONTINUOUS
10
186.086
20
-76.9675
11
186.067
21
-76.9714
0
LINE
8
BLACK
6
CONTINUOUS
10
186.067
20
-76.9714
11
186.048
21
-76.9783
0
LINE
8
BLACK
6
CONTINUOUS
10
186.048
20
-76.9783
11
185.922
21
-76.9783
0
LINE
8
BLACK
6
CONTINUOUS
10
185.922
20
-76.9783
11
185.854
21
-77.0126
0
LINE
8
BLACK
6
CONTINUOUS
10
185.854
20
-77.0126
11
185.824
21
-77.043
0
LINE
8
BLACK
6
CONTINUOUS
10
185.824
20
-77.043
11
185.789
21
-77.1115
0
LINE
8
BLACK
6
CONTINUOUS
10
185.789
20
-77.1115
11
185.789
21
-77.3142
0
LINE
8
BLACK
6
CONTINUOUS
10
185.789
20
-77.3142
11
185.824
21
-77.3827
0
LINE
8
BLACK
6
CONTINUOUS
10
185.824
20
-77.3827
11
185.854
21
-77.4131
0
LINE
8
BLACK
6
CONTINUOUS
10
185.854
20
-77.4131
11
185.922
21
-77.4474
0
LINE
8
BLACK
6
CONTINUOUS
10
185.922
20
-77.4474
11
186.173
21
-77.4474
0
LINE
8
BLACK
6
CONTINUOUS
10
186.173
20
-77.4474
11
186.241
21
-77.4131
0
LINE
8
BLACK
6
CONTINUOUS
10
186.241
20
-77.4131
11
186.28
21
-77.3741
0
LINE
8
BLACK
6
CONTINUOUS
10
186.28
20
-77.3741
11
186.302
21
-77.3592
0
LINE
8
BLACK
6
CONTINUOUS
10
186.302
20
-77.3592
11
186.353
21
-77.3547
0
LINE
8
BLACK
6
CONTINUOUS
10
186.353
20
-77.3547
11
186.395
21
-77.3841
0
LINE
8
BLACK
6
CONTINUOUS
10
186.395
20
-77.3841
11
186.408
21
-77.4337
0
LINE
8
BLACK
6
CONTINUOUS
10
186.408
20
-77.4337
11
186.386
21
-77.4802
0
LINE
8
BLACK
6
CONTINUOUS
10
186.386
20
-77.4802
11
186.339
21
-77.5278
0
LINE
8
BLACK
6
CONTINUOUS
10
186.339
20
-77.5278
11
186.32
21
-77.5407
0
LINE
8
BLACK
6
CONTINUOUS
10
186.32
20
-77.5407
11
186.319
21
-77.5418
0
LINE
8
BLACK
6
CONTINUOUS
10
186.319
20
-77.5418
11
186.224
21
-77.5895
0
LINE
8
BLACK
6
CONTINUOUS
10
186.224
20
-77.5895
11
186.199
21
-77.5969
0
LINE
8
BLACK
6
CONTINUOUS
10
186.199
20
-77.5969
11
186.195
21
-77.5958
0
LINE
8
BLACK
6
CONTINUOUS
10
186.195
20
-77.5958
11
186.19
21
-77.5974
0
LINE
8
BLACK
6
CONTINUOUS
10
186.19
20
-77.5974
11
185.905
21
-77.5974
0
LINE
8
BLACK
6
CONTINUOUS
10
185.905
20
-77.5974
11
185.879
21
-77.5929
0
LINE
8
BLACK
6
CONTINUOUS
10
185.879
20
-77.5929
11
185.876
21
-77.59
0
LINE
8
BLACK
6
CONTINUOUS
10
185.876
20
-77.59
11
185.871
21
-77.5895
0
LINE
8
BLACK
6
CONTINUOUS
10
185.871
20
-77.5895
11
185.776
21
-77.5418
0
LINE
8
BLACK
6
CONTINUOUS
10
185.776
20
-77.5418
11
185.758
21
-77.5285
0
LINE
8
BLACK
6
CONTINUOUS
10
185.758
20
-77.5285
11
185.756
21
-77.5278
0
LINE
8
BLACK
6
CONTINUOUS
10
185.756
20
-77.5278
11
185.709
21
-77.4802
0
LINE
8
BLACK
6
CONTINUOUS
10
185.709
20
-77.4802
11
185.696
21
-77.4618
0
LINE
8
BLACK
6
CONTINUOUS
10
185.696
20
-77.4618
11
185.695
21
-77.4607
0
LINE
8
BLACK
6
CONTINUOUS
10
185.695
20
-77.4607
11
185.647
21
-77.3654
0
LINE
8
BLACK
6
CONTINUOUS
10
185.647
20
-77.3654
11
185.64
21
-77.3405
0
LINE
8
BLACK
6
CONTINUOUS
10
185.64
20
-77.3405
11
185.641
21
-77.3361
0
LINE
8
BLACK
6
CONTINUOUS
10
185.641
20
-77.3361
11
185.639
21
-77.3319
0
LINE
8
BLACK
6
CONTINUOUS
10
185.639
20
-77.3319
11
185.639
21
-77.0938
0
LINE
8
BLACK
6
CONTINUOUS
10
185.639
20
-77.0938
11
185.644
21
-77.0682
0
LINE
8
BLACK
6
CONTINUOUS
10
185.644
20
-77.0682
11
185.647
21
-77.0647
0
LINE
8
BLACK
6
CONTINUOUS
10
185.647
20
-77.0647
11
185.647
21
-77.0603
0
LINE
8
BLACK
6
CONTINUOUS
10
185.647
20
-77.0603
11
185.695
21
-76.965
0
LINE
8
BLACK
6
CONTINUOUS
10
185.695
20
-76.965
11
185.708
21
-76.947
0
LINE
8
BLACK
6
CONTINUOUS
10
185.708
20
-76.947
11
185.709
21
-76.9455
0
LINE
8
BLACK
6
CONTINUOUS
10
185.709
20
-76.9455
11
185.756
21
-76.8979
0
LINE
8
BLACK
6
CONTINUOUS
10
185.756
20
-76.8979
11
185.775
21
-76.8851
0
LINE
8
BLACK
6
CONTINUOUS
10
185.775
20
-76.8851
11
185.776
21
-76.8839
0
LINE
8
BLACK
6
CONTINUOUS
10
185.776
20
-76.8839
11
185.871
21
-76.8363
0
LINE
8
BLACK
6
CONTINUOUS
10
185.871
20
-76.8363
11
185.886
21
-76.832
0
LINE
8
BLACK
6
CONTINUOUS
10
185.886
20
-76.832
11
185.658
21
-76.5718
0
LINE
8
BLACK
6
CONTINUOUS
10
185.658
20
-76.5718
11
185.652
21
-76.5621
0
LINE
8
BLACK
6
CONTINUOUS
10
185.652
20
-76.5621
11
185.649
21
-76.5599
0
LINE
8
BLACK
6
CONTINUOUS
10
185.649
20
-76.5599
11
185.649
21
-76.5568
0
LINE
8
BLACK
6
CONTINUOUS
10
185.649
20
-76.5568
11
185.644
21
-76.5495
0
LINE
8
BLACK
6
CONTINUOUS
10
185.644
20
-76.5495
11
185.644
21
-76.5293
0
LINE
8
BLACK
6
CONTINUOUS
10
185.644
20
-76.5293
11
185.64
21
-76.5094
0
LINE
8
BLACK
6
CONTINUOUS
10
185.64
20
-76.5094
11
185.643
21
-76.5042
0
LINE
8
BLACK
6
CONTINUOUS
10
185.643
20
-76.5042
11
185.643
21
-76.4982
0
LINE
8
BLACK
6
CONTINUOUS
10
185.643
20
-76.4982
11
185.656
21
-76.4824
0
LINE
8
BLACK
6
CONTINUOUS
10
185.656
20
-76.4824
11
185.666
21
-76.4649
0
LINE
8
BLACK
6
CONTINUOUS
10
185.666
20
-76.4649
11
185.672
21
-76.4629
0
LINE
8
BLACK
6
CONTINUOUS
10
185.672
20
-76.4629
11
185.675
21
-76.4582
0
LINE
8
BLACK
6
CONTINUOUS
10
185.675
20
-76.4582
11
185.695
21
-76.4543
0
LINE
8
BLACK
6
CONTINUOUS
10
185.695
20
-76.4543
11
185.714
21
-76.4474
0
LINE
8
BLACK
6
CONTINUOUS
10
185.714
20
-76.4474
11
186.333
21
-76.4474
0
LINE
8
BLACK
6
CONTINUOUS
10
186.333
20
-76.4474
11
186.359
21
-76.4519
0
LINE
8
BLACK
6
CONTINUOUS
10
191.621
20
-76.4519
11
191.624
21
-76.4548
0
LINE
8
BLACK
6
CONTINUOUS
10
191.624
20
-76.4548
11
191.629
21
-76.4553
0
LINE
8
BLACK
6
CONTINUOUS
10
191.629
20
-76.4553
11
191.724
21
-76.5029
0
LINE
8
BLACK
6
CONTINUOUS
10
191.724
20
-76.5029
11
191.742
21
-76.5163
0
LINE
8
BLACK
6
CONTINUOUS
10
191.742
20
-76.5163
11
191.744
21
-76.517
0
LINE
8
BLACK
6
CONTINUOUS
10
191.744
20
-76.517
11
191.791
21
-76.5646
0
LINE
8
BLACK
6
CONTINUOUS
10
191.791
20
-76.5646
11
191.804
21
-76.583
0
LINE
8
BLACK
6
CONTINUOUS
10
191.804
20
-76.583
11
191.805
21
-76.5841
0
LINE
8
BLACK
6
CONTINUOUS
10
191.805
20
-76.5841
11
191.853
21
-76.6793
0
LINE
8
BLACK
6
CONTINUOUS
10
191.853
20
-76.6793
11
191.86
21
-76.7043
0
LINE
8
BLACK
6
CONTINUOUS
10
191.86
20
-76.7043
11
191.859
21
-76.7086
0
LINE
8
BLACK
6
CONTINUOUS
10
191.859
20
-76.7086
11
191.861
21
-76.7129
0
LINE
8
BLACK
6
CONTINUOUS
10
191.861
20
-76.7129
11
191.861
21
-76.951
0
LINE
8
BLACK
6
CONTINUOUS
10
191.861
20
-76.951
11
191.856
21
-76.9766
0
LINE
8
BLACK
6
CONTINUOUS
10
191.856
20
-76.9766
11
191.853
21
-76.98
0
LINE
8
BLACK
6
CONTINUOUS
10
191.853
20
-76.98
11
191.853
21
-76.9845
0
LINE
8
BLACK
6
CONTINUOUS
10
191.853
20
-76.9845
11
191.805
21
-77.0797
0
LINE
8
BLACK
6
CONTINUOUS
10
191.805
20
-77.0797
11
191.792
21
-77.0977
0
LINE
8
BLACK
6
CONTINUOUS
10
191.792
20
-77.0977
11
191.791
21
-77.0992
0
LINE
8
BLACK
6
CONTINUOUS
10
191.791
20
-77.0992
11
191.744
21
-77.1468
0
LINE
8
BLACK
6
CONTINUOUS
10
191.744
20
-77.1468
11
191.725
21
-77.1597
0
LINE
8
BLACK
6
CONTINUOUS
10
191.725
20
-77.1597
11
191.724
21
-77.1609
0
LINE
8
BLACK
6
CONTINUOUS
10
191.724
20
-77.1609
11
191.629
21
-77.2085
0
LINE
8
BLACK
6
CONTINUOUS
10
191.629
20
-77.2085
11
191.604
21
-77.2159
0
LINE
8
BLACK
6
CONTINUOUS
10
191.604
20
-77.2159
11
191.599
21
-77.2149
0
LINE
8
BLACK
6
CONTINUOUS
10
191.599
20
-77.2149
11
191.595
21
-77.2164
0
LINE
8
BLACK
6
CONTINUOUS
10
191.595
20
-77.2164
11
191.405
21
-77.2164
0
LINE
8
BLACK
6
CONTINUOUS
10
191.405
20
-77.2164
11
191.379
21
-77.2119
0
LINE
8
BLACK
6
CONTINUOUS
10
191.379
20
-77.2119
11
191.376
21
-77.209
0
LINE
8
BLACK
6
CONTINUOUS
10
191.376
20
-77.209
11
191.371
21
-77.2085
0
LINE
8
BLACK
6
CONTINUOUS
10
191.371
20
-77.2085
11
191.313
21
-77.1794
0
LINE
8
BLACK
6
CONTINUOUS
10
191.313
20
-77.1794
11
191.332
21
-77.2535
0
LINE
8
BLACK
6
CONTINUOUS
10
191.332
20
-77.2535
11
191.415
21
-77.3794
0
LINE
8
BLACK
6
CONTINUOUS
10
191.415
20
-77.3794
11
191.449
21
-77.4131
0
LINE
8
BLACK
6
CONTINUOUS
10
191.449
20
-77.4131
11
191.518
21
-77.4474
0
LINE
8
BLACK
6
CONTINUOUS
10
191.518
20
-77.4474
11
191.69
21
-77.4474
0
LINE
8
BLACK
6
CONTINUOUS
10
191.69
20
-77.4474
11
191.716
21
-77.4519
0
LINE
8
BLACK
6
CONTINUOUS
10
191.716
20
-77.4519
11
191.755
21
-77.4849
0
LINE
8
BLACK
6
CONTINUOUS
10
191.755
20
-77.4849
11
191.764
21
-77.5354
0
LINE
8
BLACK
6
CONTINUOUS
10
191.764
20
-77.5354
11
191.739
21
-77.5798
0
LINE
8
BLACK
6
CONTINUOUS
10
191.739
20
-77.5798
11
191.69
21
-77.5974
0
LINE
8
BLACK
6
CONTINUOUS
10
191.69
20
-77.5974
11
191.5
21
-77.5974
0
LINE
8
BLACK
6
CONTINUOUS
10
191.5
20
-77.5974
11
191.474
21
-77.5929
0
LINE
8
BLACK
6
CONTINUOUS
10
191.474
20
-77.5929
11
191.471
21
-77.59
0
LINE
8
BLACK
6
CONTINUOUS
10
191.471
20
-77.59
11
191.466
21
-77.5895
0
LINE
8
BLACK
6
CONTINUOUS
10
191.466
20
-77.5895
11
191.371
21
-77.5418
0
LINE
8
BLACK
6
CONTINUOUS
10
191.371
20
-77.5418
11
191.353
21
-77.5285
0
LINE
8
BLACK
6
CONTINUOUS
10
191.353
20
-77.5285
11
191.352
21
-77.5278
0
LINE
8
BLACK
6
CONTINUOUS
10
191.352
20
-77.5278
11
191.304
21
-77.4802
0
LINE
8
BLACK
6
CONTINUOUS
10
191.304
20
-77.4802
11
191.298
21
-77.4708
0
LINE
8
BLACK
6
CONTINUOUS
10
191.298
20
-77.4708
11
191.295
21
-77.4687
0
LINE
8
BLACK
6
CONTINUOUS
10
191.295
20
-77.4687
11
191.2
21
-77.3259
0
LINE
8
BLACK
6
CONTINUOUS
10
191.2
20
-77.3259
11
191.189
21
-77.3028
0
LINE
8
BLACK
6
CONTINUOUS
10
191.189
20
-77.3028
11
191.189
21
-77.3025
0
LINE
8
BLACK
6
CONTINUOUS
10
191.189
20
-77.3025
11
191.142
21
-77.112
0
LINE
8
BLACK
6
CONTINUOUS
10
191.142
20
-77.112
11
191.14
21
-77.0971
0
LINE
8
BLACK
6
CONTINUOUS
10
191.14
20
-77.0971
11
191.139
21
-77.0938
0
LINE
8
BLACK
6
CONTINUOUS
10
191.139
20
-77.0938
11
191.139
21
-76.7129
0
LINE
8
BLACK
6
CONTINUOUS
10
191.139
20
-76.7129
11
191.144
21
-76.6872
0
LINE
8
BLACK
6
CONTINUOUS
10
191.144
20
-76.6872
11
191.147
21
-76.6838
0
LINE
8
BLACK
6
CONTINUOUS
10
191.147
20
-76.6838
11
191.147
21
-76.6793
0
LINE
8
BLACK
6
CONTINUOUS
10
191.147
20
-76.6793
11
191.195
21
-76.5841
0
LINE
8
BLACK
6
CONTINUOUS
10
191.195
20
-76.5841
11
191.208
21
-76.5661
0
LINE
8
BLACK
6
CONTINUOUS
10
191.208
20
-76.5661
11
191.209
21
-76.5646
0
LINE
8
BLACK
6
CONTINUOUS
10
191.209
20
-76.5646
11
191.256
21
-76.517
0
LINE
8
BLACK
6
CONTINUOUS
10
191.256
20
-76.517
11
191.275
21
-76.5041
0
LINE
8
BLACK
6
CONTINUOUS
10
191.275
20
-76.5041
11
191.276
21
-76.5029
0
LINE
8
BLACK
6
CONTINUOUS
10
191.276
20
-76.5029
11
191.371
21
-76.4553
0
LINE
8
BLACK
6
CONTINUOUS
10
191.371
20
-76.4553
11
191.396
21
-76.4479
0
LINE
8
BLACK
6
CONTINUOUS
10
191.396
20
-76.4479
11
191.401
21
-76.4489
0
LINE
8
BLACK
6
CONTINUOUS
10
191.401
20
-76.4489
11
191.405
21
-76.4474
0
LINE
8
BLACK
6
CONTINUOUS
10
191.405
20
-76.4474
11
191.595
21
-76.4474
0
LINE
8
BLACK
6
CONTINUOUS
10
191.595
20
-76.4474
11
191.621
21
-76.4519
0
LINE
8
BLACK
6
CONTINUOUS
10
191.422
20
-76.5974
11
191.354
21
-76.6316
0
LINE
8
BLACK
6
CONTINUOUS
10
191.354
20
-76.6316
11
191.324
21
-76.662
0
LINE
8
BLACK
6
CONTINUOUS
10
191.324
20
-76.662
11
191.289
21
-76.7306
0
LINE
8
BLACK
6
CONTINUOUS
10
191.289
20
-76.7306
11
191.289
21
-76.9332
0
LINE
8
BLACK
6
CONTINUOUS
10
191.289
20
-76.9332
11
191.324
21
-77.0018
0
LINE
8
BLACK
6
CONTINUOUS
10
191.324
20
-77.0018
11
191.354
21
-77.0322
0
LINE
8
BLACK
6
CONTINUOUS
10
191.354
20
-77.0322
11
191.422
21
-77.0664
0
LINE
8
BLACK
6
CONTINUOUS
10
191.422
20
-77.0664
11
191.578
21
-77.0664
0
LINE
8
BLACK
6
CONTINUOUS
10
191.578
20
-77.0664
11
191.646
21
-77.0322
0
LINE
8
BLACK
6
CONTINUOUS
10
191.646
20
-77.0322
11
191.676
21
-77.0018
0
LINE
8
BLACK
6
CONTINUOUS
10
191.676
20
-77.0018
11
191.711
21
-76.9332
0
LINE
8
BLACK
6
CONTINUOUS
10
191.711
20
-76.9332
11
191.711
21
-76.7306
0
LINE
8
BLACK
6
CONTINUOUS
10
191.711
20
-76.7306
11
191.676
21
-76.662
0
LINE
8
BLACK
6
CONTINUOUS
10
191.676
20
-76.662
11
191.646
21
-76.6316
0
LINE
8
BLACK
6
CONTINUOUS
10
191.646
20
-76.6316
11
191.578
21
-76.5974
0
LINE
8
BLACK
6
CONTINUOUS
10
191.578
20
-76.5974
11
191.422
21
-76.5974
0
LINE
8
BLACK
6
CONTINUOUS
10
186.974
20
-76.4513
11
186.976
21
-76.4512
0
LINE
8
BLACK
6
CONTINUOUS
10
186.976
20
-76.4512
11
187.119
21
-76.4988
0
LINE
8
BLACK
6
CONTINUOUS
10
187.119
20
-76.4988
11
187.142
21
-76.5113
0
LINE
8
BLACK
6
CONTINUOUS
10
187.142
20
-76.5113
11
187.144
21
-76.5151
0
LINE
8
BLACK
6
CONTINUOUS
10
187.144
20
-76.5151
11
187.148
21
-76.517
0
LINE
8
BLACK
6
CONTINUOUS
10
187.148
20
-76.517
11
187.244
21
-76.6122
0
LINE
8
BLACK
6
CONTINUOUS
10
187.244
20
-76.6122
11
187.256
21
-76.6306
0
LINE
8
BLACK
6
CONTINUOUS
10
187.256
20
-76.6306
11
187.258
21
-76.6317
0
LINE
8
BLACK
6
CONTINUOUS
10
187.258
20
-76.6317
11
187.305
21
-76.7269
0
LINE
8
BLACK
6
CONTINUOUS
10
187.305
20
-76.7269
11
187.309
21
-76.7393
0
LINE
8
BLACK
6
CONTINUOUS
10
187.309
20
-76.7393
11
187.311
21
-76.7423
0
LINE
8
BLACK
6
CONTINUOUS
10
187.311
20
-76.7423
11
187.358
21
-76.9328
0
LINE
8
BLACK
6
CONTINUOUS
10
187.358
20
-76.9328
11
187.36
21
-76.9477
0
LINE
8
BLACK
6
CONTINUOUS
10
187.36
20
-76.9477
11
187.361
21
-76.951
0
LINE
8
BLACK
6
CONTINUOUS
10
187.361
20
-76.951
11
187.361
21
-77.0938
0
LINE
8
BLACK
6
CONTINUOUS
10
187.361
20
-77.0938
11
187.358
21
-77.1086
0
LINE
8
BLACK
6
CONTINUOUS
10
187.358
20
-77.1086
11
187.358
21
-77.112
0
LINE
8
BLACK
6
CONTINUOUS
10
187.358
20
-77.112
11
187.311
21
-77.3025
0
LINE
8
BLACK
6
CONTINUOUS
10
187.311
20
-77.3025
11
187.306
21
-77.3143
0
LINE
8
BLACK
6
CONTINUOUS
10
187.306
20
-77.3143
11
187.305
21
-77.3178
0
LINE
8
BLACK
6
CONTINUOUS
10
187.305
20
-77.3178
11
187.258
21
-77.4131
0
LINE
8
BLACK
6
CONTINUOUS
10
187.258
20
-77.4131
11
187.244
21
-77.4311
0
LINE
8
BLACK
6
CONTINUOUS
10
187.244
20
-77.4311
11
187.244
21
-77.4326
0
LINE
8
BLACK
6
CONTINUOUS
10
187.244
20
-77.4326
11
187.148
21
-77.5278
0
LINE
8
BLACK
6
CONTINUOUS
10
187.148
20
-77.5278
11
187.127
21
-77.5427
0
LINE
8
BLACK
6
CONTINUOUS
10
187.127
20
-77.5427
11
187.122
21
-77.5431
0
LINE
8
BLACK
6
CONTINUOUS
10
187.122
20
-77.5431
11
187.119
21
-77.5459
0
LINE
8
BLACK
6
CONTINUOUS
10
187.119
20
-77.5459
11
186.976
21
-77.5935
0
LINE
8
BLACK
6
CONTINUOUS
10
186.976
20
-77.5935
11
186.954
21
-77.5968
0
LINE
8
BLACK
6
CONTINUOUS
10
186.954
20
-77.5968
11
186.952
21
-77.5974
0
LINE
8
BLACK
6
CONTINUOUS
10
186.952
20
-77.5974
11
186.857
21
-77.5974
0
LINE
8
BLACK
6
CONTINUOUS
10
186.857
20
-77.5974
11
186.835
21
-77.5935
0
LINE
8
BLACK
6
CONTINUOUS
10
186.835
20
-77.5935
11
186.833
21
-77.5935
0
LINE
8
BLACK
6
CONTINUOUS
10
186.833
20
-77.5935
11
186.691
21
-77.5459
0
LINE
8
BLACK
6
CONTINUOUS
10
186.691
20
-77.5459
11
186.668
21
-77.5335
0
LINE
8
BLACK
6
CONTINUOUS
10
186.668
20
-77.5335
11
186.665
21
-77.5297
0
LINE
8
BLACK
6
CONTINUOUS
10
186.665
20
-77.5297
11
186.661
21
-77.5278
0
LINE
8
BLACK
6
CONTINUOUS
10
186.661
20
-77.5278
11
186.614
21
-77.4802
0
LINE
8
BLACK
6
CONTINUOUS
10
186.614
20
-77.4802
11
186.599
21
-77.4588
0
LINE
8
BLACK
6
CONTINUOUS
10
186.599
20
-77.4588
11
186.594
21
-77.4077
0
LINE
8
BLACK
6
CONTINUOUS
10
186.594
20
-77.4077
11
186.624
21
-77.3657
0
LINE
8
BLACK
6
CONTINUOUS
10
186.624
20
-77.3657
11
186.673
21
-77.3524
0
LINE
8
BLACK
6
CONTINUOUS
10
186.673
20
-77.3524
11
186.72
21
-77.3741
0
LINE
8
BLACK
6
CONTINUOUS
10
186.72
20
-77.3741
11
186.755
21
-77.4092
0
LINE
8
BLACK
6
CONTINUOUS
10
186.755
20
-77.4092
11
186.869
21
-77.4474
0
LINE
8
BLACK
6
CONTINUOUS
10
186.869
20
-77.4474
11
186.94
21
-77.4474
0
LINE
8
BLACK
6
CONTINUOUS
10
186.94
20
-77.4474
11
187.055
21
-77.4092
0
LINE
8
BLACK
6
CONTINUOUS
10
187.055
20
-77.4092
11
187.129
21
-77.3351
0
LINE
8
BLACK
6
CONTINUOUS
10
187.129
20
-77.3351
11
187.167
21
-77.2581
0
LINE
8
BLACK
6
CONTINUOUS
10
187.167
20
-77.2581
11
187.211
21
-77.0846
0
LINE
8
BLACK
6
CONTINUOUS
10
187.211
20
-77.0846
11
187.211
21
-76.9602
0
LINE
8
BLACK
6
CONTINUOUS
10
187.211
20
-76.9602
11
187.167
21
-76.7867
0
LINE
8
BLACK
6
CONTINUOUS
10
187.167
20
-76.7867
11
187.129
21
-76.7097
0
LINE
8
BLACK
6
CONTINUOUS
10
187.129
20
-76.7097
11
187.055
21
-76.6356
0
LINE
8
BLACK
6
CONTINUOUS
10
187.055
20
-76.6356
11
186.94
21
-76.5974
0
LINE
8
BLACK
6
CONTINUOUS
10
186.94
20
-76.5974
11
186.869
21
-76.5974
0
LINE
8
BLACK
6
CONTINUOUS
10
186.869
20
-76.5974
11
186.755
21
-76.6356
0
LINE
8
BLACK
6
CONTINUOUS
10
186.755
20
-76.6356
11
186.72
21
-76.6707
0
LINE
8
BLACK
6
CONTINUOUS
10
186.72
20
-76.6707
11
186.698
21
-76.6856
0
LINE
8
BLACK
6
CONTINUOUS
10
186.698
20
-76.6856
11
186.647
21
-76.6901
0
LINE
8
BLACK
6
CONTINUOUS
10
186.647
20
-76.6901
11
186.605
21
-76.6606
0
LINE
8
BLACK
6
CONTINUOUS
10
186.605
20
-76.6606
11
186.592
21
-76.6111
0
LINE
8
BLACK
6
CONTINUOUS
10
186.592
20
-76.6111
11
186.614
21
-76.5646
0
LINE
8
BLACK
6
CONTINUOUS
10
186.614
20
-76.5646
11
186.661
21
-76.517
0
LINE
8
BLACK
6
CONTINUOUS
10
186.661
20
-76.517
11
186.683
21
-76.502
0
LINE
8
BLACK
6
CONTINUOUS
10
186.683
20
-76.502
11
186.687
21
-76.5016
0
LINE
8
BLACK
6
CONTINUOUS
10
186.687
20
-76.5016
11
186.691
21
-76.4988
0
LINE
8
BLACK
6
CONTINUOUS
10
186.691
20
-76.4988
11
186.833
21
-76.4512
0
LINE
8
BLACK
6
CONTINUOUS
10
186.833
20
-76.4512
11
186.856
21
-76.4479
0
LINE
8
BLACK
6
CONTINUOUS
10
186.856
20
-76.4479
11
186.857
21
-76.4474
0
LINE
8
BLACK
6
CONTINUOUS
10
186.857
20
-76.4474
11
186.952
21
-76.4474
0
LINE
8
BLACK
6
CONTINUOUS
10
186.952
20
-76.4474
11
186.974
21
-76.4513
0
LINE
8
BLACK
6
CONTINUOUS
10
192.748
20
-76.4491
11
192.751
21
-76.4485
0
LINE
8
BLACK
6
CONTINUOUS
10
192.751
20
-76.4485
11
192.754
21
-76.4502
0
LINE
8
BLACK
6
CONTINUOUS
10
192.754
20
-76.4502
11
192.764
21
-76.4519
0
LINE
8
BLACK
6
CONTINUOUS
10
192.764
20
-76.4519
11
192.779
21
-76.4644
0
LINE
8
BLACK
6
CONTINUOUS
10
192.779
20
-76.4644
11
192.796
21
-76.4742
0
LINE
8
BLACK
6
CONTINUOUS
10
192.796
20
-76.4742
11
192.798
21
-76.4805
0
LINE
8
BLACK
6
CONTINUOUS
10
192.798
20
-76.4805
11
192.803
21
-76.4849
0
LINE
8
BLACK
6
CONTINUOUS
10
192.803
20
-76.4849
11
192.806
21
-76.5041
0
LINE
8
BLACK
6
CONTINUOUS
10
192.806
20
-76.5041
11
192.813
21
-76.5224
0
LINE
8
BLACK
6
CONTINUOUS
10
192.813
20
-76.5224
11
192.813
21
-77.5224
0
LINE
8
BLACK
6
CONTINUOUS
10
192.813
20
-77.5224
11
192.809
21
-77.548
0
LINE
8
BLACK
6
CONTINUOUS
10
192.809
20
-77.548
11
192.776
21
-77.5873
0
LINE
8
BLACK
6
CONTINUOUS
10
192.776
20
-77.5873
11
192.725
21
-77.5962
0
LINE
8
BLACK
6
CONTINUOUS
10
192.725
20
-77.5962
11
192.681
21
-77.5706
0
LINE
8
BLACK
6
CONTINUOUS
10
192.681
20
-77.5706
11
192.663
21
-77.5224
0
LINE
8
BLACK
6
CONTINUOUS
10
192.663
20
-77.5224
11
192.663
21
-77.1212
0
LINE
8
BLACK
6
CONTINUOUS
10
192.663
20
-77.1212
11
192.539
21
-77.1212
0
LINE
8
BLACK
6
CONTINUOUS
10
192.539
20
-77.1212
11
192.228
21
-77.5654
0
LINE
8
BLACK
6
CONTINUOUS
10
192.228
20
-77.5654
11
192.21
21
-77.5838
0
LINE
8
BLACK
6
CONTINUOUS
10
192.21
20
-77.5838
11
192.16
21
-77.5971
0
LINE
8
BLACK
6
CONTINUOUS
10
192.16
20
-77.5971
11
192.114
21
-77.5754
0
LINE
8
BLACK
6
CONTINUOUS
10
192.114
20
-77.5754
11
192.092
21
-77.5289
0
LINE
8
BLACK
6
CONTINUOUS
10
192.092
20
-77.5289
11
192.105
21
-77.4794
0
LINE
8
BLACK
6
CONTINUOUS
10
192.105
20
-77.4794
11
192.356
21
-77.121
0
LINE
8
BLACK
6
CONTINUOUS
10
192.356
20
-77.121
11
192.331
21
-77.1167
0
LINE
8
BLACK
6
CONTINUOUS
10
192.331
20
-77.1167
11
192.328
21
-77.1138
0
LINE
8
BLACK
6
CONTINUOUS
10
192.328
20
-77.1138
11
192.324
21
-77.1133
0
LINE
8
BLACK
6
CONTINUOUS
10
192.324
20
-77.1133
11
192.228
21
-77.0657
0
LINE
8
BLACK
6
CONTINUOUS
10
192.228
20
-77.0657
11
192.21
21
-77.0523
0
LINE
8
BLACK
6
CONTINUOUS
10
192.21
20
-77.0523
11
192.209
21
-77.0516
0
LINE
8
BLACK
6
CONTINUOUS
10
192.209
20
-77.0516
11
192.161
21
-77.004
0
LINE
8
BLACK
6
CONTINUOUS
10
192.161
20
-77.004
11
192.148
21
-76.9856
0
LINE
8
BLACK
6
CONTINUOUS
10
192.148
20
-76.9856
11
192.147
21
-76.9845
0
LINE
8
BLACK
6
CONTINUOUS
10
192.147
20
-76.9845
11
192.1
21
-76.8893
0
LINE
8
BLACK
6
CONTINUOUS
10
192.1
20
-76.8893
11
192.092
21
-76.8643
0
LINE
8
BLACK
6
CONTINUOUS
10
192.092
20
-76.8643
11
192.093
21
-76.8599
0
LINE
8
BLACK
6
CONTINUOUS
10
192.093
20
-76.8599
11
192.092
21
-76.8557
0
LINE
8
BLACK
6
CONTINUOUS
10
192.092
20
-76.8557
11
192.092
21
-76.7129
0
LINE
8
BLACK
6
CONTINUOUS
10
192.092
20
-76.7129
11
192.096
21
-76.6872
0
LINE
8
BLACK
6
CONTINUOUS
10
192.096
20
-76.6872
11
192.099
21
-76.6838
0
LINE
8
BLACK
6
CONTINUOUS
10
192.099
20
-76.6838
11
192.1
21
-76.6793
0
LINE
8
BLACK
6
CONTINUOUS
10
192.1
20
-76.6793
11
192.147
21
-76.5841
0
LINE
8
BLACK
6
CONTINUOUS
10
192.147
20
-76.5841
11
192.161
21
-76.5661
0
LINE
8
BLACK
6
CONTINUOUS
10
192.161
20
-76.5661
11
192.161
21
-76.5646
0
LINE
8
BLACK
6
CONTINUOUS
10
192.161
20
-76.5646
11
192.209
21
-76.517
0
LINE
8
BLACK
6
CONTINUOUS
10
192.209
20
-76.517
11
192.227
21
-76.5041
0
LINE
8
BLACK
6
CONTINUOUS
10
192.227
20
-76.5041
11
192.228
21
-76.5029
0
LINE
8
BLACK
6
CONTINUOUS
10
192.228
20
-76.5029
11
192.324
21
-76.4553
0
LINE
8
BLACK
6
CONTINUOUS
10
192.324
20
-76.4553
11
192.349
21
-76.4479
0
LINE
8
BLACK
6
CONTINUOUS
10
192.349
20
-76.4479
11
192.353
21
-76.4489
0
LINE
8
BLACK
6
CONTINUOUS
10
192.353
20
-76.4489
11
192.357
21
-76.4474
0
LINE
8
BLACK
6
CONTINUOUS
10
192.357
20
-76.4474
11
192.738
21
-76.4474
0
LINE
8
BLACK
6
CONTINUOUS
10
192.738
20
-76.4474
11
192.748
21
-76.4491
0
LINE
8
BLACK
6
CONTINUOUS
10
192.375
20
-76.5974
11
192.306
21
-76.6316
0
LINE
8
BLACK
6
CONTINUOUS
10
192.306
20
-76.6316
11
192.276
21
-76.662
0
LINE
8
BLACK
6
CONTINUOUS
10
192.276
20
-76.662
11
192.242
21
-76.7306
0
LINE
8
BLACK
6
CONTINUOUS
10
192.242
20
-76.7306
11
192.242
21
-76.838
0
LINE
8
BLACK
6
CONTINUOUS
10
192.242
20
-76.838
11
192.276
21
-76.9065
0
LINE
8
BLACK
6
CONTINUOUS
10
192.276
20
-76.9065
11
192.306
21
-76.9369
0
LINE
8
BLACK
6
CONTINUOUS
10
192.306
20
-76.9369
11
192.375
21
-76.9712
0
LINE
8
BLACK
6
CONTINUOUS
10
192.375
20
-76.9712
11
192.663
21
-76.9712
0
LINE
8
BLACK
6
CONTINUOUS
10
192.663
20
-76.9712
11
192.663
21
-76.5974
0
LINE
8
BLACK
6
CONTINUOUS
10
192.663
20
-76.5974
11
192.375
21
-76.5974
  0
ENDSEC
  0
EOF
