  0
SECTION
  2
HEADER
  9
$ANGBASE
  50
0.0
  9
$ANGDIR
  70
1
  9
$MEASUREMENT
  70
1
  0
ENDSEC
  0
SECTION
  2
TABLES
  0
TABLE
  2
LTYPE
  70
4
  0
LTYPE
  5
40F
  2
CONTINUOUS
  70
0
  3
Solid line
  72
65
  73
0
  40
0.0
  0
LTYPE
  5
410
  2
DASHDOT
 70
0
  3
Dash Dot ____ _ ____ _
 72
65
 73
4
 40
2.0
 49
1.25
 49
-0.25
 49
0.25
 49
-0.25
  0
LTYPE
  5
411
  2
DASHED
 70
0
  3
Dashed __ __ __ __ __
 72
65
 73
2
 40
0.75
 49
0.5
 49
-0.25
  0
LTYPE
  5
43B
  2
DOTTED
 70
0
  3
Dotted .  .  .  .
 72
65
 73
2
 40
0.2
 49
0.0
 49
-0.2
  0
ENDTAB
  0
TABLE
  2
STYLE
  70
4
  0
STYLE
  2
KICAD
  70
0
  40
0
  41
1
  42
1
  50
0
  71
0
  3
isocp.shx
  0
STYLE
  2
KICADB
  70
0
  40
0
  41
1
  42
1
  50
0
  71
0
  3
isocp.shx
  0
STYLE
  2
KICADI
  70
0
  40
0
  41
1
  42
1
  50
15
  71
0
  3
isocp.shx
  0
STYLE
  2
KICADBI
  70
0
  40
0
  41
1
  42
1
  50
15
  71
0
  3
isocp.shx
  0
ENDTAB
  0
TABLE
  2
LAYER
  70
1
  0
LAYER
  2
BLACK
  70
0
  62
7
  6
CONTINUOUS
  0
ENDTAB
  0
ENDSEC
  0
SECTION
  2
ENTITIES
0
LINE
8
BLACK
6
CONTINUOUS
10
189.841
20
-90.5431
11
189.918
21
-90.5946
0
LINE
8
BLACK
6
CONTINUOUS
10
189.918
20
-90.5946
11
189.969
21
-90.6716
0
LINE
8
BLACK
6
CONTINUOUS
10
189.969
20
-90.6716
11
189.987
21
-90.7625
0
LINE
8
BLACK
6
CONTINUOUS
10
189.987
20
-90.7625
11
189.987
21
-91.2375
0
LINE
8
BLACK
6
CONTINUOUS
10
189.987
20
-91.2375
11
189.969
21
-91.3284
0
LINE
8
BLACK
6
CONTINUOUS
10
189.969
20
-91.3284
11
189.918
21
-91.4054
0
LINE
8
BLACK
6
CONTINUOUS
10
189.918
20
-91.4054
11
189.841
21
-91.4569
0
LINE
8
BLACK
6
CONTINUOUS
10
189.841
20
-91.4569
11
189.75
21
-91.475
0
LINE
8
BLACK
6
CONTINUOUS
10
189.75
20
-91.475
11
189.25
21
-91.475
0
LINE
8
BLACK
6
CONTINUOUS
10
189.25
20
-91.475
11
189.159
21
-91.4569
0
LINE
8
BLACK
6
CONTINUOUS
10
189.159
20
-91.4569
11
189.082
21
-91.4054
0
LINE
8
BLACK
6
CONTINUOUS
10
189.082
20
-91.4054
11
189.031
21
-91.3284
0
LINE
8
BLACK
6
CONTINUOUS
10
189.031
20
-91.3284
11
189.012
21
-91.2375
0
LINE
8
BLACK
6
CONTINUOUS
10
189.012
20
-91.2375
11
189.012
21
-90.7625
0
LINE
8
BLACK
6
CONTINUOUS
10
189.012
20
-90.7625
11
189.031
21
-90.6716
0
LINE
8
BLACK
6
CONTINUOUS
10
189.031
20
-90.6716
11
189.082
21
-90.5946
0
LINE
8
BLACK
6
CONTINUOUS
10
189.082
20
-90.5946
11
189.159
21
-90.5431
0
LINE
8
BLACK
6
CONTINUOUS
10
189.159
20
-90.5431
11
189.25
21
-90.525
0
LINE
8
BLACK
6
CONTINUOUS
10
189.25
20
-90.525
11
189.75
21
-90.525
0
LINE
8
BLACK
6
CONTINUOUS
10
189.75
20
-90.525
11
189.841
21
-90.5431
0
LINE
8
BLACK
6
CONTINUOUS
10
188.016
20
-90.5431
11
188.093
21
-90.5946
0
LINE
8
BLACK
6
CONTINUOUS
10
188.093
20
-90.5946
11
188.144
21
-90.6716
0
LINE
8
BLACK
6
CONTINUOUS
10
188.144
20
-90.6716
11
188.162
21
-90.7625
0
LINE
8
BLACK
6
CONTINUOUS
10
188.162
20
-90.7625
11
188.162
21
-91.2375
0
LINE
8
BLACK
6
CONTINUOUS
10
188.162
20
-91.2375
11
188.144
21
-91.3284
0
LINE
8
BLACK
6
CONTINUOUS
10
188.144
20
-91.3284
11
188.093
21
-91.4054
0
LINE
8
BLACK
6
CONTINUOUS
10
188.093
20
-91.4054
11
188.016
21
-91.4569
0
LINE
8
BLACK
6
CONTINUOUS
10
188.016
20
-91.4569
11
187.925
21
-91.475
0
LINE
8
BLACK
6
CONTINUOUS
10
187.925
20
-91.475
11
187.425
21
-91.475
0
LINE
8
BLACK
6
CONTINUOUS
10
187.425
20
-91.475
11
187.334
21
-91.4569
0
LINE
8
BLACK
6
CONTINUOUS
10
187.334
20
-91.4569
11
187.257
21
-91.4054
0
LINE
8
BLACK
6
CONTINUOUS
10
187.257
20
-91.4054
11
187.206
21
-91.3284
0
LINE
8
BLACK
6
CONTINUOUS
10
187.206
20
-91.3284
11
187.188
21
-91.2375
0
LINE
8
BLACK
6
CONTINUOUS
10
187.188
20
-91.2375
11
187.188
21
-90.7625
0
LINE
8
BLACK
6
CONTINUOUS
10
187.188
20
-90.7625
11
187.206
21
-90.6716
0
LINE
8
BLACK
6
CONTINUOUS
10
187.206
20
-90.6716
11
187.257
21
-90.5946
0
LINE
8
BLACK
6
CONTINUOUS
10
187.257
20
-90.5946
11
187.334
21
-90.5431
0
LINE
8
BLACK
6
CONTINUOUS
10
187.334
20
-90.5431
11
187.425
21
-90.525
0
LINE
8
BLACK
6
CONTINUOUS
10
187.425
20
-90.525
11
187.925
21
-90.525
0
LINE
8
BLACK
6
CONTINUOUS
10
187.925
20
-90.525
11
188.016
21
-90.5431
0
LINE
8
BLACK
6
CONTINUOUS
10
190.63
20
-87.775
11
189.07
21
-87.775
0
LINE
8
BLACK
6
CONTINUOUS
10
189.07
20
-87.775
11
189.07
21
-87.125
0
LINE
8
BLACK
6
CONTINUOUS
10
189.07
20
-87.125
11
190.63
21
-87.125
0
LINE
8
BLACK
6
CONTINUOUS
10
190.63
20
-87.125
11
190.63
21
-87.775
0
LINE
8
BLACK
6
CONTINUOUS
10
187.93
20
-87.775
11
186.37
21
-87.775
0
LINE
8
BLACK
6
CONTINUOUS
10
186.37
20
-87.775
11
186.37
21
-87.125
0
LINE
8
BLACK
6
CONTINUOUS
10
186.37
20
-87.125
11
187.93
21
-87.125
0
LINE
8
BLACK
6
CONTINUOUS
10
187.93
20
-87.125
11
187.93
21
-87.775
0
LINE
8
BLACK
6
CONTINUOUS
10
193.707
20
-87.1614
11
193.756
21
-87.1939
0
LINE
8
BLACK
6
CONTINUOUS
10
193.756
20
-87.1939
11
193.789
21
-87.2426
0
LINE
8
BLACK
6
CONTINUOUS
10
193.789
20
-87.2426
11
193.8
21
-87.3
0
LINE
8
BLACK
6
CONTINUOUS
10
193.8
20
-87.3
11
193.8
21
-87.6
0
LINE
8
BLACK
6
CONTINUOUS
10
193.8
20
-87.6
11
193.789
21
-87.6574
0
LINE
8
BLACK
6
CONTINUOUS
10
193.789
20
-87.6574
11
193.756
21
-87.7061
0
LINE
8
BLACK
6
CONTINUOUS
10
193.756
20
-87.7061
11
193.707
21
-87.7386
0
LINE
8
BLACK
6
CONTINUOUS
10
193.707
20
-87.7386
11
193.65
21
-87.75
0
LINE
8
BLACK
6
CONTINUOUS
10
193.65
20
-87.75
11
192.475
21
-87.75
0
LINE
8
BLACK
6
CONTINUOUS
10
192.475
20
-87.75
11
192.418
21
-87.7386
0
LINE
8
BLACK
6
CONTINUOUS
10
192.418
20
-87.7386
11
192.369
21
-87.7061
0
LINE
8
BLACK
6
CONTINUOUS
10
192.369
20
-87.7061
11
192.336
21
-87.6574
0
LINE
8
BLACK
6
CONTINUOUS
10
192.336
20
-87.6574
11
192.325
21
-87.6
0
LINE
8
BLACK
6
CONTINUOUS
10
192.325
20
-87.6
11
192.325
21
-87.3
0
LINE
8
BLACK
6
CONTINUOUS
10
192.325
20
-87.3
11
192.336
21
-87.2426
0
LINE
8
BLACK
6
CONTINUOUS
10
192.336
20
-87.2426
11
192.369
21
-87.1939
0
LINE
8
BLACK
6
CONTINUOUS
10
192.369
20
-87.1939
11
192.418
21
-87.1614
0
LINE
8
BLACK
6
CONTINUOUS
10
192.418
20
-87.1614
11
192.475
21
-87.15
0
LINE
8
BLACK
6
CONTINUOUS
10
192.475
20
-87.15
11
193.65
21
-87.15
0
LINE
8
BLACK
6
CONTINUOUS
10
193.65
20
-87.15
11
193.707
21
-87.1614
0
LINE
8
BLACK
6
CONTINUOUS
10
190.63
20
-86.825
11
189.07
21
-86.825
0
LINE
8
BLACK
6
CONTINUOUS
10
189.07
20
-86.825
11
189.07
21
-86.175
0
LINE
8
BLACK
6
CONTINUOUS
10
189.07
20
-86.175
11
190.63
21
-86.175
0
LINE
8
BLACK
6
CONTINUOUS
10
190.63
20
-86.175
11
190.63
21
-86.825
0
LINE
8
BLACK
6
CONTINUOUS
10
187.93
20
-86.825
11
186.37
21
-86.825
0
LINE
8
BLACK
6
CONTINUOUS
10
186.37
20
-86.825
11
186.37
21
-86.175
0
LINE
8
BLACK
6
CONTINUOUS
10
186.37
20
-86.175
11
187.93
21
-86.175
0
LINE
8
BLACK
6
CONTINUOUS
10
187.93
20
-86.175
11
187.93
21
-86.825
0
LINE
8
BLACK
6
CONTINUOUS
10
195.582
20
-86.2114
11
195.631
21
-86.2439
0
LINE
8
BLACK
6
CONTINUOUS
10
195.631
20
-86.2439
11
195.664
21
-86.2926
0
LINE
8
BLACK
6
CONTINUOUS
10
195.664
20
-86.2926
11
195.675
21
-86.35
0
LINE
8
BLACK
6
CONTINUOUS
10
195.675
20
-86.35
11
195.675
21
-86.65
0
LINE
8
BLACK
6
CONTINUOUS
10
195.675
20
-86.65
11
195.664
21
-86.7074
0
LINE
8
BLACK
6
CONTINUOUS
10
195.664
20
-86.7074
11
195.631
21
-86.7561
0
LINE
8
BLACK
6
CONTINUOUS
10
195.631
20
-86.7561
11
195.582
21
-86.7886
0
LINE
8
BLACK
6
CONTINUOUS
10
195.582
20
-86.7886
11
195.525
21
-86.8
0
LINE
8
BLACK
6
CONTINUOUS
10
195.525
20
-86.8
11
194.35
21
-86.8
0
LINE
8
BLACK
6
CONTINUOUS
10
194.35
20
-86.8
11
194.293
21
-86.7886
0
LINE
8
BLACK
6
CONTINUOUS
10
194.293
20
-86.7886
11
194.244
21
-86.7561
0
LINE
8
BLACK
6
CONTINUOUS
10
194.244
20
-86.7561
11
194.211
21
-86.7074
0
LINE
8
BLACK
6
CONTINUOUS
10
194.211
20
-86.7074
11
194.2
21
-86.65
0
LINE
8
BLACK
6
CONTINUOUS
10
194.2
20
-86.65
11
194.2
21
-86.35
0
LINE
8
BLACK
6
CONTINUOUS
10
194.2
20
-86.35
11
194.211
21
-86.2926
0
LINE
8
BLACK
6
CONTINUOUS
10
194.211
20
-86.2926
11
194.244
21
-86.2439
0
LINE
8
BLACK
6
CONTINUOUS
10
194.244
20
-86.2439
11
194.293
21
-86.2114
0
LINE
8
BLACK
6
CONTINUOUS
10
194.293
20
-86.2114
11
194.35
21
-86.2
0
LINE
8
BLACK
6
CONTINUOUS
10
194.35
20
-86.2
11
195.525
21
-86.2
0
LINE
8
BLACK
6
CONTINUOUS
10
195.525
20
-86.2
11
195.582
21
-86.2114
0
LINE
8
BLACK
6
CONTINUOUS
10
190.63
20
-85.875
11
189.07
21
-85.875
0
LINE
8
BLACK
6
CONTINUOUS
10
189.07
20
-85.875
11
189.07
21
-85.225
0
LINE
8
BLACK
6
CONTINUOUS
10
189.07
20
-85.225
11
190.63
21
-85.225
0
LINE
8
BLACK
6
CONTINUOUS
10
190.63
20
-85.225
11
190.63
21
-85.875
0
LINE
8
BLACK
6
CONTINUOUS
10
187.93
20
-85.875
11
186.37
21
-85.875
0
LINE
8
BLACK
6
CONTINUOUS
10
186.37
20
-85.875
11
186.37
21
-85.225
0
LINE
8
BLACK
6
CONTINUOUS
10
186.37
20
-85.225
11
187.93
21
-85.225
0
LINE
8
BLACK
6
CONTINUOUS
10
187.93
20
-85.225
11
187.93
21
-85.875
0
LINE
8
BLACK
6
CONTINUOUS
10
193.707
20
-85.2614
11
193.756
21
-85.2939
0
LINE
8
BLACK
6
CONTINUOUS
10
193.756
20
-85.2939
11
193.789
21
-85.3426
0
LINE
8
BLACK
6
CONTINUOUS
10
193.789
20
-85.3426
11
193.8
21
-85.4
0
LINE
8
BLACK
6
CONTINUOUS
10
193.8
20
-85.4
11
193.8
21
-85.7
0
LINE
8
BLACK
6
CONTINUOUS
10
193.8
20
-85.7
11
193.789
21
-85.7574
0
LINE
8
BLACK
6
CONTINUOUS
10
193.789
20
-85.7574
11
193.756
21
-85.8061
0
LINE
8
BLACK
6
CONTINUOUS
10
193.756
20
-85.8061
11
193.707
21
-85.8386
0
LINE
8
BLACK
6
CONTINUOUS
10
193.707
20
-85.8386
11
193.65
21
-85.85
0
LINE
8
BLACK
6
CONTINUOUS
10
193.65
20
-85.85
11
192.475
21
-85.85
0
LINE
8
BLACK
6
CONTINUOUS
10
192.475
20
-85.85
11
192.418
21
-85.8386
0
LINE
8
BLACK
6
CONTINUOUS
10
192.418
20
-85.8386
11
192.369
21
-85.8061
0
LINE
8
BLACK
6
CONTINUOUS
10
192.369
20
-85.8061
11
192.336
21
-85.7574
0
LINE
8
BLACK
6
CONTINUOUS
10
192.336
20
-85.7574
11
192.325
21
-85.7
0
LINE
8
BLACK
6
CONTINUOUS
10
192.325
20
-85.7
11
192.325
21
-85.4
0
LINE
8
BLACK
6
CONTINUOUS
10
192.325
20
-85.4
11
192.336
21
-85.3426
0
LINE
8
BLACK
6
CONTINUOUS
10
192.336
20
-85.3426
11
192.369
21
-85.2939
0
LINE
8
BLACK
6
CONTINUOUS
10
192.369
20
-85.2939
11
192.418
21
-85.2614
0
LINE
8
BLACK
6
CONTINUOUS
10
192.418
20
-85.2614
11
192.475
21
-85.25
0
LINE
8
BLACK
6
CONTINUOUS
10
192.475
20
-85.25
11
193.65
21
-85.25
0
LINE
8
BLACK
6
CONTINUOUS
10
193.65
20
-85.25
11
193.707
21
-85.2614
0
LINE
8
BLACK
6
CONTINUOUS
10
188.207
20
-82.1614
11
188.256
21
-82.1939
0
LINE
8
BLACK
6
CONTINUOUS
10
188.256
20
-82.1939
11
188.289
21
-82.2426
0
LINE
8
BLACK
6
CONTINUOUS
10
188.289
20
-82.2426
11
188.3
21
-82.3
0
LINE
8
BLACK
6
CONTINUOUS
10
188.3
20
-82.3
11
188.3
21
-82.6
0
LINE
8
BLACK
6
CONTINUOUS
10
188.3
20
-82.6
11
188.289
21
-82.6574
0
LINE
8
BLACK
6
CONTINUOUS
10
188.289
20
-82.6574
11
188.256
21
-82.7061
0
LINE
8
BLACK
6
CONTINUOUS
10
188.256
20
-82.7061
11
188.207
21
-82.7386
0
LINE
8
BLACK
6
CONTINUOUS
10
188.207
20
-82.7386
11
188.15
21
-82.75
0
LINE
8
BLACK
6
CONTINUOUS
10
188.15
20
-82.75
11
186.975
21
-82.75
0
LINE
8
BLACK
6
CONTINUOUS
10
186.975
20
-82.75
11
186.918
21
-82.7386
0
LINE
8
BLACK
6
CONTINUOUS
10
186.918
20
-82.7386
11
186.869
21
-82.7061
0
LINE
8
BLACK
6
CONTINUOUS
10
186.869
20
-82.7061
11
186.836
21
-82.6574
0
LINE
8
BLACK
6
CONTINUOUS
10
186.836
20
-82.6574
11
186.825
21
-82.6
0
LINE
8
BLACK
6
CONTINUOUS
10
186.825
20
-82.6
11
186.825
21
-82.3
0
LINE
8
BLACK
6
CONTINUOUS
10
186.825
20
-82.3
11
186.836
21
-82.2426
0
LINE
8
BLACK
6
CONTINUOUS
10
186.836
20
-82.2426
11
186.869
21
-82.1939
0
LINE
8
BLACK
6
CONTINUOUS
10
186.869
20
-82.1939
11
186.918
21
-82.1614
0
LINE
8
BLACK
6
CONTINUOUS
10
186.918
20
-82.1614
11
186.975
21
-82.15
0
LINE
8
BLACK
6
CONTINUOUS
10
186.975
20
-82.15
11
188.15
21
-82.15
0
LINE
8
BLACK
6
CONTINUOUS
10
188.15
20
-82.15
11
188.207
21
-82.1614
0
LINE
8
BLACK
6
CONTINUOUS
10
190.082
20
-81.2114
11
190.131
21
-81.2439
0
LINE
8
BLACK
6
CONTINUOUS
10
190.131
20
-81.2439
11
190.164
21
-81.2926
0
LINE
8
BLACK
6
CONTINUOUS
10
190.164
20
-81.2926
11
190.175
21
-81.35
0
LINE
8
BLACK
6
CONTINUOUS
10
190.175
20
-81.35
11
190.175
21
-81.65
0
LINE
8
BLACK
6
CONTINUOUS
10
190.175
20
-81.65
11
190.164
21
-81.7074
0
LINE
8
BLACK
6
CONTINUOUS
10
190.164
20
-81.7074
11
190.131
21
-81.7561
0
LINE
8
BLACK
6
CONTINUOUS
10
190.131
20
-81.7561
11
190.082
21
-81.7886
0
LINE
8
BLACK
6
CONTINUOUS
10
190.082
20
-81.7886
11
190.025
21
-81.8
0
LINE
8
BLACK
6
CONTINUOUS
10
190.025
20
-81.8
11
188.85
21
-81.8
0
LINE
8
BLACK
6
CONTINUOUS
10
188.85
20
-81.8
11
188.793
21
-81.7886
0
LINE
8
BLACK
6
CONTINUOUS
10
188.793
20
-81.7886
11
188.744
21
-81.7561
0
LINE
8
BLACK
6
CONTINUOUS
10
188.744
20
-81.7561
11
188.711
21
-81.7074
0
LINE
8
BLACK
6
CONTINUOUS
10
188.711
20
-81.7074
11
188.7
21
-81.65
0
LINE
8
BLACK
6
CONTINUOUS
10
188.7
20
-81.65
11
188.7
21
-81.35
0
LINE
8
BLACK
6
CONTINUOUS
10
188.7
20
-81.35
11
188.711
21
-81.2926
0
LINE
8
BLACK
6
CONTINUOUS
10
188.711
20
-81.2926
11
188.744
21
-81.2439
0
LINE
8
BLACK
6
CONTINUOUS
10
188.744
20
-81.2439
11
188.793
21
-81.2114
0
LINE
8
BLACK
6
CONTINUOUS
10
188.793
20
-81.2114
11
188.85
21
-81.2
0
LINE
8
BLACK
6
CONTINUOUS
10
188.85
20
-81.2
11
190.025
21
-81.2
0
LINE
8
BLACK
6
CONTINUOUS
10
190.025
20
-81.2
11
190.082
21
-81.2114
0
LINE
8
BLACK
6
CONTINUOUS
10
188.207
20
-80.2614
11
188.256
21
-80.2939
0
LINE
8
BLACK
6
CONTINUOUS
10
188.256
20
-80.2939
11
188.289
21
-80.3426
0
LINE
8
BLACK
6
CONTINUOUS
10
188.289
20
-80.3426
11
188.3
21
-80.4
0
LINE
8
BLACK
6
CONTINUOUS
10
188.3
20
-80.4
11
188.3
21
-80.7
0
LINE
8
BLACK
6
CONTINUOUS
10
188.3
20
-80.7
11
188.289
21
-80.7574
0
LINE
8
BLACK
6
CONTINUOUS
10
188.289
20
-80.7574
11
188.256
21
-80.8061
0
LINE
8
BLACK
6
CONTINUOUS
10
188.256
20
-80.8061
11
188.207
21
-80.8386
0
LINE
8
BLACK
6
CONTINUOUS
10
188.207
20
-80.8386
11
188.15
21
-80.85
0
LINE
8
BLACK
6
CONTINUOUS
10
188.15
20
-80.85
11
186.975
21
-80.85
0
LINE
8
BLACK
6
CONTINUOUS
10
186.975
20
-80.85
11
186.918
21
-80.8386
0
LINE
8
BLACK
6
CONTINUOUS
10
186.918
20
-80.8386
11
186.869
21
-80.8061
0
LINE
8
BLACK
6
CONTINUOUS
10
186.869
20
-80.8061
11
186.836
21
-80.7574
0
LINE
8
BLACK
6
CONTINUOUS
10
186.836
20
-80.7574
11
186.825
21
-80.7
0
LINE
8
BLACK
6
CONTINUOUS
10
186.825
20
-80.7
11
186.825
21
-80.4
0
LINE
8
BLACK
6
CONTINUOUS
10
186.825
20
-80.4
11
186.836
21
-80.3426
0
LINE
8
BLACK
6
CONTINUOUS
10
186.836
20
-80.3426
11
186.869
21
-80.2939
0
LINE
8
BLACK
6
CONTINUOUS
10
186.869
20
-80.2939
11
186.918
21
-80.2614
0
LINE
8
BLACK
6
CONTINUOUS
10
186.918
20
-80.2614
11
186.975
21
-80.25
0
LINE
8
BLACK
6
CONTINUOUS
10
186.975
20
-80.25
11
188.15
21
-80.25
0
LINE
8
BLACK
6
CONTINUOUS
10
188.15
20
-80.25
11
188.207
21
-80.2614
0
LINE
8
BLACK
6
CONTINUOUS
10
193.253
20
-78.0431
11
193.33
21
-78.0946
0
LINE
8
BLACK
6
CONTINUOUS
10
193.33
20
-78.0946
11
193.382
21
-78.1716
0
LINE
8
BLACK
6
CONTINUOUS
10
193.382
20
-78.1716
11
193.4
21
-78.2625
0
LINE
8
BLACK
6
CONTINUOUS
10
193.4
20
-78.2625
11
193.4
21
-78.7375
0
LINE
8
BLACK
6
CONTINUOUS
10
193.4
20
-78.7375
11
193.382
21
-78.8284
0
LINE
8
BLACK
6
CONTINUOUS
10
193.382
20
-78.8284
11
193.33
21
-78.9054
0
LINE
8
BLACK
6
CONTINUOUS
10
193.33
20
-78.9054
11
193.253
21
-78.9569
0
LINE
8
BLACK
6
CONTINUOUS
10
193.253
20
-78.9569
11
193.162
21
-78.975
0
LINE
8
BLACK
6
CONTINUOUS
10
193.162
20
-78.975
11
192.662
21
-78.975
0
LINE
8
BLACK
6
CONTINUOUS
10
192.662
20
-78.975
11
192.572
21
-78.9569
0
LINE
8
BLACK
6
CONTINUOUS
10
192.572
20
-78.9569
11
192.495
21
-78.9054
0
LINE
8
BLACK
6
CONTINUOUS
10
192.495
20
-78.9054
11
192.443
21
-78.8284
0
LINE
8
BLACK
6
CONTINUOUS
10
192.443
20
-78.8284
11
192.425
21
-78.7375
0
LINE
8
BLACK
6
CONTINUOUS
10
192.425
20
-78.7375
11
192.425
21
-78.2625
0
LINE
8
BLACK
6
CONTINUOUS
10
192.425
20
-78.2625
11
192.443
21
-78.1716
0
LINE
8
BLACK
6
CONTINUOUS
10
192.443
20
-78.1716
11
192.495
21
-78.0946
0
LINE
8
BLACK
6
CONTINUOUS
10
192.495
20
-78.0946
11
192.572
21
-78.0431
0
LINE
8
BLACK
6
CONTINUOUS
10
192.572
20
-78.0431
11
192.662
21
-78.025
0
LINE
8
BLACK
6
CONTINUOUS
10
192.662
20
-78.025
11
193.162
21
-78.025
0
LINE
8
BLACK
6
CONTINUOUS
10
193.162
20
-78.025
11
193.253
21
-78.0431
0
LINE
8
BLACK
6
CONTINUOUS
10
191.428
20
-78.0431
11
191.505
21
-78.0946
0
LINE
8
BLACK
6
CONTINUOUS
10
191.505
20
-78.0946
11
191.557
21
-78.1716
0
LINE
8
BLACK
6
CONTINUOUS
10
191.557
20
-78.1716
11
191.575
21
-78.2625
0
LINE
8
BLACK
6
CONTINUOUS
10
191.575
20
-78.2625
11
191.575
21
-78.7375
0
LINE
8
BLACK
6
CONTINUOUS
10
191.575
20
-78.7375
11
191.557
21
-78.8284
0
LINE
8
BLACK
6
CONTINUOUS
10
191.557
20
-78.8284
11
191.505
21
-78.9054
0
LINE
8
BLACK
6
CONTINUOUS
10
191.505
20
-78.9054
11
191.428
21
-78.9569
0
LINE
8
BLACK
6
CONTINUOUS
10
191.428
20
-78.9569
11
191.337
21
-78.975
0
LINE
8
BLACK
6
CONTINUOUS
10
191.337
20
-78.975
11
190.837
21
-78.975
0
LINE
8
BLACK
6
CONTINUOUS
10
190.837
20
-78.975
11
190.747
21
-78.9569
0
LINE
8
BLACK
6
CONTINUOUS
10
190.747
20
-78.9569
11
190.67
21
-78.9054
0
LINE
8
BLACK
6
CONTINUOUS
10
190.67
20
-78.9054
11
190.618
21
-78.8284
0
LINE
8
BLACK
6
CONTINUOUS
10
190.618
20
-78.8284
11
190.6
21
-78.7375
0
LINE
8
BLACK
6
CONTINUOUS
10
190.6
20
-78.7375
11
190.6
21
-78.2625
0
LINE
8
BLACK
6
CONTINUOUS
10
190.6
20
-78.2625
11
190.618
21
-78.1716
0
LINE
8
BLACK
6
CONTINUOUS
10
190.618
20
-78.1716
11
190.67
21
-78.0946
0
LINE
8
BLACK
6
CONTINUOUS
10
190.67
20
-78.0946
11
190.747
21
-78.0431
0
LINE
8
BLACK
6
CONTINUOUS
10
190.747
20
-78.0431
11
190.837
21
-78.025
0
LINE
8
BLACK
6
CONTINUOUS
10
190.837
20
-78.025
11
191.337
21
-78.025
0
LINE
8
BLACK
6
CONTINUOUS
10
191.337
20
-78.025
11
191.428
21
-78.0431
0
LINE
8
BLACK
6
CONTINUOUS
10
187.753
20
-78.0431
11
187.83
21
-78.0946
0
LINE
8
BLACK
6
CONTINUOUS
10
187.83
20
-78.0946
11
187.882
21
-78.1716
0
LINE
8
BLACK
6
CONTINUOUS
10
187.882
20
-78.1716
11
187.9
21
-78.2625
0
LINE
8
BLACK
6
CONTINUOUS
10
187.9
20
-78.2625
11
187.9
21
-78.7375
0
LINE
8
BLACK
6
CONTINUOUS
10
187.9
20
-78.7375
11
187.882
21
-78.8284
0
LINE
8
BLACK
6
CONTINUOUS
10
187.882
20
-78.8284
11
187.83
21
-78.9054
0
LINE
8
BLACK
6
CONTINUOUS
10
187.83
20
-78.9054
11
187.753
21
-78.9569
0
LINE
8
BLACK
6
CONTINUOUS
10
187.753
20
-78.9569
11
187.662
21
-78.975
0
LINE
8
BLACK
6
CONTINUOUS
10
187.662
20
-78.975
11
187.062
21
-78.975
0
LINE
8
BLACK
6
CONTINUOUS
10
187.062
20
-78.975
11
186.972
21
-78.9569
0
LINE
8
BLACK
6
CONTINUOUS
10
186.972
20
-78.9569
11
186.895
21
-78.9054
0
LINE
8
BLACK
6
CONTINUOUS
10
186.895
20
-78.9054
11
186.843
21
-78.8284
0
LINE
8
BLACK
6
CONTINUOUS
10
186.843
20
-78.8284
11
186.825
21
-78.7375
0
LINE
8
BLACK
6
CONTINUOUS
10
186.825
20
-78.7375
11
186.825
21
-78.2625
0
LINE
8
BLACK
6
CONTINUOUS
10
186.825
20
-78.2625
11
186.843
21
-78.1716
0
LINE
8
BLACK
6
CONTINUOUS
10
186.843
20
-78.1716
11
186.895
21
-78.0946
0
LINE
8
BLACK
6
CONTINUOUS
10
186.895
20
-78.0946
11
186.972
21
-78.0431
0
LINE
8
BLACK
6
CONTINUOUS
10
186.972
20
-78.0431
11
187.062
21
-78.025
0
LINE
8
BLACK
6
CONTINUOUS
10
187.062
20
-78.025
11
187.662
21
-78.025
0
LINE
8
BLACK
6
CONTINUOUS
10
187.662
20
-78.025
11
187.753
21
-78.0431
0
LINE
8
BLACK
6
CONTINUOUS
10
186.028
20
-78.0431
11
186.105
21
-78.0946
0
LINE
8
BLACK
6
CONTINUOUS
10
186.105
20
-78.0946
11
186.157
21
-78.1716
0
LINE
8
BLACK
6
CONTINUOUS
10
186.157
20
-78.1716
11
186.175
21
-78.2625
0
LINE
8
BLACK
6
CONTINUOUS
10
186.175
20
-78.2625
11
186.175
21
-78.7375
0
LINE
8
BLACK
6
CONTINUOUS
10
186.175
20
-78.7375
11
186.157
21
-78.8284
0
LINE
8
BLACK
6
CONTINUOUS
10
186.157
20
-78.8284
11
186.105
21
-78.9054
0
LINE
8
BLACK
6
CONTINUOUS
10
186.105
20
-78.9054
11
186.028
21
-78.9569
0
LINE
8
BLACK
6
CONTINUOUS
10
186.028
20
-78.9569
11
185.938
21
-78.975
0
LINE
8
BLACK
6
CONTINUOUS
10
185.938
20
-78.975
11
185.338
21
-78.975
0
LINE
8
BLACK
6
CONTINUOUS
10
185.338
20
-78.975
11
185.247
21
-78.9569
0
LINE
8
BLACK
6
CONTINUOUS
10
185.247
20
-78.9569
11
185.17
21
-78.9054
0
LINE
8
BLACK
6
CONTINUOUS
10
185.17
20
-78.9054
11
185.118
21
-78.8284
0
LINE
8
BLACK
6
CONTINUOUS
10
185.118
20
-78.8284
11
185.1
21
-78.7375
0
LINE
8
BLACK
6
CONTINUOUS
10
185.1
20
-78.7375
11
185.1
21
-78.2625
0
LINE
8
BLACK
6
CONTINUOUS
10
185.1
20
-78.2625
11
185.118
21
-78.1716
0
LINE
8
BLACK
6
CONTINUOUS
10
185.118
20
-78.1716
11
185.17
21
-78.0946
0
LINE
8
BLACK
6
CONTINUOUS
10
185.17
20
-78.0946
11
185.247
21
-78.0431
0
LINE
8
BLACK
6
CONTINUOUS
10
185.247
20
-78.0431
11
185.338
21
-78.025
0
LINE
8
BLACK
6
CONTINUOUS
10
185.338
20
-78.025
11
185.938
21
-78.025
0
LINE
8
BLACK
6
CONTINUOUS
10
185.938
20
-78.025
11
186.028
21
-78.0431
  0
ENDSEC
  0
EOF
