%TF.GenerationSoftware,KiCad,Pcbnew,7.0.7*%
%TF.CreationDate,2023-12-17T16:56:00-07:00*%
%TF.ProjectId,Blank Cu Board,426c616e-6b20-4437-9520-426f6172642e,rev?*%
%TF.SameCoordinates,Original*%
%TF.FileFunction,Legend,Bot*%
%TF.FilePolarity,Positive*%
%FSLAX46Y46*%
G04 Gerber Fmt 4.6, Leading zero omitted, Abs format (unit mm)*
G04 Created by KiCad (PCBNEW 7.0.7) date 2023-12-17 16:56:00*
%MOMM*%
%LPD*%
G01*
G04 APERTURE LIST*
%ADD10C,0.254000*%
%ADD11C,0.150000*%
%ADD12C,0.100000*%
%ADD13C,0.120000*%
G04 APERTURE END LIST*
D10*
X171372143Y-94054318D02*
X171372143Y-92784318D01*
X171372143Y-92784318D02*
X171069762Y-92784318D01*
X171069762Y-92784318D02*
X170888333Y-92844794D01*
X170888333Y-92844794D02*
X170767381Y-92965746D01*
X170767381Y-92965746D02*
X170706904Y-93086699D01*
X170706904Y-93086699D02*
X170646428Y-93328603D01*
X170646428Y-93328603D02*
X170646428Y-93510032D01*
X170646428Y-93510032D02*
X170706904Y-93751937D01*
X170706904Y-93751937D02*
X170767381Y-93872889D01*
X170767381Y-93872889D02*
X170888333Y-93993842D01*
X170888333Y-93993842D02*
X171069762Y-94054318D01*
X171069762Y-94054318D02*
X171372143Y-94054318D01*
X170162619Y-93993842D02*
X169981190Y-94054318D01*
X169981190Y-94054318D02*
X169678809Y-94054318D01*
X169678809Y-94054318D02*
X169557857Y-93993842D01*
X169557857Y-93993842D02*
X169497381Y-93933365D01*
X169497381Y-93933365D02*
X169436904Y-93812413D01*
X169436904Y-93812413D02*
X169436904Y-93691461D01*
X169436904Y-93691461D02*
X169497381Y-93570508D01*
X169497381Y-93570508D02*
X169557857Y-93510032D01*
X169557857Y-93510032D02*
X169678809Y-93449556D01*
X169678809Y-93449556D02*
X169920714Y-93389080D01*
X169920714Y-93389080D02*
X170041666Y-93328603D01*
X170041666Y-93328603D02*
X170102143Y-93268127D01*
X170102143Y-93268127D02*
X170162619Y-93147175D01*
X170162619Y-93147175D02*
X170162619Y-93026222D01*
X170162619Y-93026222D02*
X170102143Y-92905270D01*
X170102143Y-92905270D02*
X170041666Y-92844794D01*
X170041666Y-92844794D02*
X169920714Y-92784318D01*
X169920714Y-92784318D02*
X169618333Y-92784318D01*
X169618333Y-92784318D02*
X169436904Y-92844794D01*
X168227380Y-94054318D02*
X168953095Y-94054318D01*
X168590238Y-94054318D02*
X168590238Y-92784318D01*
X168590238Y-92784318D02*
X168711190Y-92965746D01*
X168711190Y-92965746D02*
X168832142Y-93086699D01*
X168832142Y-93086699D02*
X168953095Y-93147175D01*
D11*
X108173332Y-95197200D02*
X108030475Y-95244819D01*
X108030475Y-95244819D02*
X107792380Y-95244819D01*
X107792380Y-95244819D02*
X107697142Y-95197200D01*
X107697142Y-95197200D02*
X107649523Y-95149580D01*
X107649523Y-95149580D02*
X107601904Y-95054342D01*
X107601904Y-95054342D02*
X107601904Y-94959104D01*
X107601904Y-94959104D02*
X107649523Y-94863866D01*
X107649523Y-94863866D02*
X107697142Y-94816247D01*
X107697142Y-94816247D02*
X107792380Y-94768628D01*
X107792380Y-94768628D02*
X107982856Y-94721009D01*
X107982856Y-94721009D02*
X108078094Y-94673390D01*
X108078094Y-94673390D02*
X108125713Y-94625771D01*
X108125713Y-94625771D02*
X108173332Y-94530533D01*
X108173332Y-94530533D02*
X108173332Y-94435295D01*
X108173332Y-94435295D02*
X108125713Y-94340057D01*
X108125713Y-94340057D02*
X108078094Y-94292438D01*
X108078094Y-94292438D02*
X107982856Y-94244819D01*
X107982856Y-94244819D02*
X107744761Y-94244819D01*
X107744761Y-94244819D02*
X107601904Y-94292438D01*
X107268570Y-94244819D02*
X107030475Y-95244819D01*
X107030475Y-95244819D02*
X106839999Y-94530533D01*
X106839999Y-94530533D02*
X106649523Y-95244819D01*
X106649523Y-95244819D02*
X106411428Y-94244819D01*
X105506666Y-95244819D02*
X106078094Y-95244819D01*
X105792380Y-95244819D02*
X105792380Y-94244819D01*
X105792380Y-94244819D02*
X105887618Y-94387676D01*
X105887618Y-94387676D02*
X105982856Y-94482914D01*
X105982856Y-94482914D02*
X106078094Y-94530533D01*
D12*
%TO.C,DS1*%
X208330000Y-116980000D02*
X208330000Y-69980000D01*
X208330000Y-69980000D02*
X131330000Y-69980000D01*
X131330000Y-116980000D02*
X208330000Y-116980000D01*
X131330000Y-69980000D02*
X131330000Y-116980000D01*
D13*
%TO.C,SW1*%
X109940000Y-97890000D02*
X109340000Y-97890000D01*
X109640000Y-98190000D02*
X109940000Y-97890000D01*
X109340000Y-97890000D02*
X109640000Y-98190000D01*
X108840000Y-108290000D02*
X108840000Y-105490000D01*
X108840000Y-95690000D02*
X108840000Y-98190000D01*
X104040000Y-95690000D02*
X108840000Y-95690000D01*
X103940000Y-108290000D02*
X108840000Y-108290000D01*
X102640000Y-101990000D02*
X101640000Y-101990000D01*
X102140000Y-101490000D02*
X102140000Y-102490000D01*
X100340000Y-95690000D02*
X95440000Y-95690000D01*
X95440000Y-108290000D02*
X100340000Y-108290000D01*
X95440000Y-95690000D02*
X95440000Y-108290000D01*
X105140000Y-101990000D02*
G75*
G03*
X105140000Y-101990000I-3000000J0D01*
G01*
%TD*%
M02*
