%TF.GenerationSoftware,KiCad,Pcbnew,7.0.7*%
%TF.CreationDate,2023-12-17T16:56:00-07:00*%
%TF.ProjectId,Blank Cu Board,426c616e-6b20-4437-9520-426f6172642e,rev?*%
%TF.SameCoordinates,Original*%
%TF.FileFunction,Soldermask,Top*%
%TF.FilePolarity,Negative*%
%FSLAX46Y46*%
G04 Gerber Fmt 4.6, Leading zero omitted, Abs format (unit mm)*
G04 Created by KiCad (PCBNEW 7.0.7) date 2023-12-17 16:56:00*
%MOMM*%
%LPD*%
G01*
G04 APERTURE LIST*
G04 Aperture macros list*
%AMRoundRect*
0 Rectangle with rounded corners*
0 $1 Rounding radius*
0 $2 $3 $4 $5 $6 $7 $8 $9 X,Y pos of 4 corners*
0 Add a 4 corners polygon primitive as box body*
4,1,4,$2,$3,$4,$5,$6,$7,$8,$9,$2,$3,0*
0 Add four circle primitives for the rounded corners*
1,1,$1+$1,$2,$3*
1,1,$1+$1,$4,$5*
1,1,$1+$1,$6,$7*
1,1,$1+$1,$8,$9*
0 Add four rect primitives between the rounded corners*
20,1,$1+$1,$2,$3,$4,$5,0*
20,1,$1+$1,$4,$5,$6,$7,0*
20,1,$1+$1,$6,$7,$8,$9,0*
20,1,$1+$1,$8,$9,$2,$3,0*%
G04 Aperture macros list end*
%ADD10C,2.000000*%
%ADD11R,1.600000X1.600000*%
%ADD12O,1.600000X1.600000*%
%ADD13RoundRect,0.150000X0.587500X0.150000X-0.587500X0.150000X-0.587500X-0.150000X0.587500X-0.150000X0*%
%ADD14R,1.500000X1.500000*%
%ADD15C,1.950000*%
%ADD16C,1.500000*%
%ADD17R,1.750000X0.450000*%
%ADD18RoundRect,0.150000X-0.587500X-0.150000X0.587500X-0.150000X0.587500X0.150000X-0.587500X0.150000X0*%
%ADD19C,6.000000*%
%ADD20R,2.000000X2.000000*%
%ADD21R,3.000000X2.500000*%
G04 APERTURE END LIST*
D10*
%TO.C,PS1*%
X190320000Y-94480000D03*
X190320000Y-99480000D03*
X143330000Y-100790000D03*
X143320000Y-93170000D03*
%TD*%
D11*
%TO.C,D2*%
X98347500Y-78620000D03*
D12*
X105967500Y-78620000D03*
%TD*%
D13*
%TO.C,Q1*%
X200737500Y-81290000D03*
X200737500Y-79390000D03*
X198862500Y-80340000D03*
%TD*%
D14*
%TO.C,K1*%
X188000000Y-68360000D03*
D15*
X175800000Y-68360000D03*
D16*
X188000000Y-80360000D03*
D15*
X190000000Y-74360000D03*
%TD*%
D14*
%TO.C,K2*%
X163570000Y-68320000D03*
D15*
X151370000Y-68320000D03*
D16*
X163570000Y-80320000D03*
D15*
X165570000Y-74320000D03*
%TD*%
D17*
%TO.C,U1*%
X128090000Y-96780000D03*
X128090000Y-97430000D03*
X128090000Y-98080000D03*
X128090000Y-98730000D03*
X128090000Y-99380000D03*
X128090000Y-100030000D03*
X128090000Y-100680000D03*
X128090000Y-101330000D03*
X128090000Y-101980000D03*
X128090000Y-102630000D03*
X128090000Y-103280000D03*
X128090000Y-103930000D03*
X128090000Y-104580000D03*
X128090000Y-105230000D03*
X135290000Y-105230000D03*
X135290000Y-104580000D03*
X135290000Y-103930000D03*
X135290000Y-103280000D03*
X135290000Y-102630000D03*
X135290000Y-101980000D03*
X135290000Y-101330000D03*
X135290000Y-100680000D03*
X135290000Y-100030000D03*
X135290000Y-99380000D03*
X135290000Y-98730000D03*
X135290000Y-98080000D03*
X135290000Y-97430000D03*
X135290000Y-96780000D03*
%TD*%
D18*
%TO.C,Q2*%
X141930000Y-72330000D03*
X141930000Y-74230000D03*
X143805000Y-73280000D03*
%TD*%
D11*
%TO.C,D1*%
X98505000Y-69330000D03*
D12*
X106125000Y-69330000D03*
%TD*%
D19*
%TO.C,DS1*%
X204830000Y-73480000D03*
X204830000Y-113480000D03*
X134830000Y-113480000D03*
X134830000Y-73480000D03*
%TD*%
D20*
%TO.C,SW1*%
X109640000Y-99490000D03*
D10*
X109640000Y-104490000D03*
X109640000Y-101990000D03*
D21*
X102140000Y-107590000D03*
X102140000Y-96390000D03*
%TD*%
M02*
