  0
SECTION
  2
HEADER
  9
$ANGBASE
  50
0.0
  9
$ANGDIR
  70
1
  9
$MEASUREMENT
  70
1
  0
ENDSEC
  0
SECTION
  2
TABLES
  0
TABLE
  2
LTYPE
  70
4
  0
LTYPE
  5
40F
  2
CONTINUOUS
  70
0
  3
Solid line
  72
65
  73
0
  40
0.0
  0
LTYPE
  5
410
  2
DASHDOT
 70
0
  3
Dash Dot ____ _ ____ _
 72
65
 73
4
 40
2.0
 49
1.25
 49
-0.25
 49
0.25
 49
-0.25
  0
LTYPE
  5
411
  2
DASHED
 70
0
  3
Dashed __ __ __ __ __
 72
65
 73
2
 40
0.75
 49
0.5
 49
-0.25
  0
LTYPE
  5
43B
  2
DOTTED
 70
0
  3
Dotted .  .  .  .
 72
65
 73
2
 40
0.2
 49
0.0
 49
-0.2
  0
ENDTAB
  0
TABLE
  2
STYLE
  70
4
  0
STYLE
  2
KICAD
  70
0
  40
0
  41
1
  42
1
  50
0
  71
0
  3
isocp.shx
  0
STYLE
  2
KICADB
  70
0
  40
0
  41
1
  42
1
  50
0
  71
0
  3
isocp.shx
  0
STYLE
  2
KICADI
  70
0
  40
0
  41
1
  42
1
  50
15
  71
0
  3
isocp.shx
  0
STYLE
  2
KICADBI
  70
0
  40
0
  41
1
  42
1
  50
15
  71
0
  3
isocp.shx
  0
ENDTAB
  0
TABLE
  2
LAYER
  70
1
  0
LAYER
  2
BLACK
  70
0
  62
7
  6
CONTINUOUS
  0
ENDTAB
  0
ENDSEC
  0
SECTION
  2
ENTITIES
0
LINE
8
BLACK
6
CONTINUOUS
10
105.925
20
-72.47
11
104.175
21
-72.47
0
LINE
8
BLACK
6
CONTINUOUS
10
104.175
20
-72.47
11
104.175
21
-72.02
0
LINE
8
BLACK
6
CONTINUOUS
10
104.175
20
-72.02
11
105.925
21
-72.02
0
LINE
8
BLACK
6
CONTINUOUS
10
105.925
20
-72.02
11
105.925
21
-72.47
0
LINE
8
BLACK
6
CONTINUOUS
10
98.725
20
-72.47
11
96.975
21
-72.47
0
LINE
8
BLACK
6
CONTINUOUS
10
96.975
20
-72.47
11
96.975
21
-72.02
0
LINE
8
BLACK
6
CONTINUOUS
10
96.975
20
-72.02
11
98.725
21
-72.02
0
LINE
8
BLACK
6
CONTINUOUS
10
98.725
20
-72.02
11
98.725
21
-72.47
0
LINE
8
BLACK
6
CONTINUOUS
10
105.925
20
-71.82
11
104.175
21
-71.82
0
LINE
8
BLACK
6
CONTINUOUS
10
104.175
20
-71.82
11
104.175
21
-71.37
0
LINE
8
BLACK
6
CONTINUOUS
10
104.175
20
-71.37
11
105.925
21
-71.37
0
LINE
8
BLACK
6
CONTINUOUS
10
105.925
20
-71.37
11
105.925
21
-71.82
0
LINE
8
BLACK
6
CONTINUOUS
10
98.725
20
-71.82
11
96.975
21
-71.82
0
LINE
8
BLACK
6
CONTINUOUS
10
96.975
20
-71.82
11
96.975
21
-71.37
0
LINE
8
BLACK
6
CONTINUOUS
10
96.975
20
-71.37
11
98.725
21
-71.37
0
LINE
8
BLACK
6
CONTINUOUS
10
98.725
20
-71.37
11
98.725
21
-71.82
0
LINE
8
BLACK
6
CONTINUOUS
10
105.925
20
-71.17
11
104.175
21
-71.17
0
LINE
8
BLACK
6
CONTINUOUS
10
104.175
20
-71.17
11
104.175
21
-70.72
0
LINE
8
BLACK
6
CONTINUOUS
10
104.175
20
-70.72
11
105.925
21
-70.72
0
LINE
8
BLACK
6
CONTINUOUS
10
105.925
20
-70.72
11
105.925
21
-71.17
0
LINE
8
BLACK
6
CONTINUOUS
10
98.725
20
-71.17
11
96.975
21
-71.17
0
LINE
8
BLACK
6
CONTINUOUS
10
96.975
20
-71.17
11
96.975
21
-70.72
0
LINE
8
BLACK
6
CONTINUOUS
10
96.975
20
-70.72
11
98.725
21
-70.72
0
LINE
8
BLACK
6
CONTINUOUS
10
98.725
20
-70.72
11
98.725
21
-71.17
0
LINE
8
BLACK
6
CONTINUOUS
10
105.925
20
-70.52
11
104.175
21
-70.52
0
LINE
8
BLACK
6
CONTINUOUS
10
104.175
20
-70.52
11
104.175
21
-70.07
0
LINE
8
BLACK
6
CONTINUOUS
10
104.175
20
-70.07
11
105.925
21
-70.07
0
LINE
8
BLACK
6
CONTINUOUS
10
105.925
20
-70.07
11
105.925
21
-70.52
0
LINE
8
BLACK
6
CONTINUOUS
10
98.725
20
-70.52
11
96.975
21
-70.52
0
LINE
8
BLACK
6
CONTINUOUS
10
96.975
20
-70.52
11
96.975
21
-70.07
0
LINE
8
BLACK
6
CONTINUOUS
10
96.975
20
-70.07
11
98.725
21
-70.07
0
LINE
8
BLACK
6
CONTINUOUS
10
98.725
20
-70.07
11
98.725
21
-70.52
0
LINE
8
BLACK
6
CONTINUOUS
10
105.925
20
-69.87
11
104.175
21
-69.87
0
LINE
8
BLACK
6
CONTINUOUS
10
104.175
20
-69.87
11
104.175
21
-69.42
0
LINE
8
BLACK
6
CONTINUOUS
10
104.175
20
-69.42
11
105.925
21
-69.42
0
LINE
8
BLACK
6
CONTINUOUS
10
105.925
20
-69.42
11
105.925
21
-69.87
0
LINE
8
BLACK
6
CONTINUOUS
10
98.725
20
-69.87
11
96.975
21
-69.87
0
LINE
8
BLACK
6
CONTINUOUS
10
96.975
20
-69.87
11
96.975
21
-69.42
0
LINE
8
BLACK
6
CONTINUOUS
10
96.975
20
-69.42
11
98.725
21
-69.42
0
LINE
8
BLACK
6
CONTINUOUS
10
98.725
20
-69.42
11
98.725
21
-69.87
0
LINE
8
BLACK
6
CONTINUOUS
10
105.925
20
-69.22
11
104.175
21
-69.22
0
LINE
8
BLACK
6
CONTINUOUS
10
104.175
20
-69.22
11
104.175
21
-68.77
0
LINE
8
BLACK
6
CONTINUOUS
10
104.175
20
-68.77
11
105.925
21
-68.77
0
LINE
8
BLACK
6
CONTINUOUS
10
105.925
20
-68.77
11
105.925
21
-69.22
0
LINE
8
BLACK
6
CONTINUOUS
10
98.725
20
-69.22
11
96.975
21
-69.22
0
LINE
8
BLACK
6
CONTINUOUS
10
96.975
20
-69.22
11
96.975
21
-68.77
0
LINE
8
BLACK
6
CONTINUOUS
10
96.975
20
-68.77
11
98.725
21
-68.77
0
LINE
8
BLACK
6
CONTINUOUS
10
98.725
20
-68.77
11
98.725
21
-69.22
0
LINE
8
BLACK
6
CONTINUOUS
10
105.925
20
-68.57
11
104.175
21
-68.57
0
LINE
8
BLACK
6
CONTINUOUS
10
104.175
20
-68.57
11
104.175
21
-68.12
0
LINE
8
BLACK
6
CONTINUOUS
10
104.175
20
-68.12
11
105.925
21
-68.12
0
LINE
8
BLACK
6
CONTINUOUS
10
105.925
20
-68.12
11
105.925
21
-68.57
0
LINE
8
BLACK
6
CONTINUOUS
10
98.725
20
-68.57
11
96.975
21
-68.57
0
LINE
8
BLACK
6
CONTINUOUS
10
96.975
20
-68.57
11
96.975
21
-68.12
0
LINE
8
BLACK
6
CONTINUOUS
10
96.975
20
-68.12
11
98.725
21
-68.12
0
LINE
8
BLACK
6
CONTINUOUS
10
98.725
20
-68.12
11
98.725
21
-68.57
0
LINE
8
BLACK
6
CONTINUOUS
10
105.925
20
-67.92
11
104.175
21
-67.92
0
LINE
8
BLACK
6
CONTINUOUS
10
104.175
20
-67.92
11
104.175
21
-67.47
0
LINE
8
BLACK
6
CONTINUOUS
10
104.175
20
-67.47
11
105.925
21
-67.47
0
LINE
8
BLACK
6
CONTINUOUS
10
105.925
20
-67.47
11
105.925
21
-67.92
0
LINE
8
BLACK
6
CONTINUOUS
10
98.725
20
-67.92
11
96.975
21
-67.92
0
LINE
8
BLACK
6
CONTINUOUS
10
96.975
20
-67.92
11
96.975
21
-67.47
0
LINE
8
BLACK
6
CONTINUOUS
10
96.975
20
-67.47
11
98.725
21
-67.47
0
LINE
8
BLACK
6
CONTINUOUS
10
98.725
20
-67.47
11
98.725
21
-67.92
0
LINE
8
BLACK
6
CONTINUOUS
10
94.2434
20
-66.4731
11
94.3204
21
-66.5246
0
LINE
8
BLACK
6
CONTINUOUS
10
94.3204
20
-66.5246
11
94.3719
21
-66.6016
0
LINE
8
BLACK
6
CONTINUOUS
10
94.3719
20
-66.6016
11
94.39
21
-66.6925
0
LINE
8
BLACK
6
CONTINUOUS
10
94.39
20
-66.6925
11
94.39
21
-67.1675
0
LINE
8
BLACK
6
CONTINUOUS
10
94.39
20
-67.1675
11
94.3719
21
-67.2584
0
LINE
8
BLACK
6
CONTINUOUS
10
94.3719
20
-67.2584
11
94.3204
21
-67.3354
0
LINE
8
BLACK
6
CONTINUOUS
10
94.3204
20
-67.3354
11
94.2434
21
-67.3869
0
LINE
8
BLACK
6
CONTINUOUS
10
94.2434
20
-67.3869
11
94.1525
21
-67.405
0
LINE
8
BLACK
6
CONTINUOUS
10
94.1525
20
-67.405
11
93.6525
21
-67.405
0
LINE
8
BLACK
6
CONTINUOUS
10
93.6525
20
-67.405
11
93.5616
21
-67.3869
0
LINE
8
BLACK
6
CONTINUOUS
10
93.5616
20
-67.3869
11
93.4846
21
-67.3354
0
LINE
8
BLACK
6
CONTINUOUS
10
93.4846
20
-67.3354
11
93.4331
21
-67.2584
0
LINE
8
BLACK
6
CONTINUOUS
10
93.4331
20
-67.2584
11
93.415
21
-67.1675
0
LINE
8
BLACK
6
CONTINUOUS
10
93.415
20
-67.1675
11
93.415
21
-66.6925
0
LINE
8
BLACK
6
CONTINUOUS
10
93.415
20
-66.6925
11
93.4331
21
-66.6016
0
LINE
8
BLACK
6
CONTINUOUS
10
93.4331
20
-66.6016
11
93.4846
21
-66.5246
0
LINE
8
BLACK
6
CONTINUOUS
10
93.4846
20
-66.5246
11
93.5616
21
-66.4731
0
LINE
8
BLACK
6
CONTINUOUS
10
93.5616
20
-66.4731
11
93.6525
21
-66.455
0
LINE
8
BLACK
6
CONTINUOUS
10
93.6525
20
-66.455
11
94.1525
21
-66.455
0
LINE
8
BLACK
6
CONTINUOUS
10
94.1525
20
-66.455
11
94.2434
21
-66.4731
0
LINE
8
BLACK
6
CONTINUOUS
10
92.4184
20
-66.4731
11
92.4954
21
-66.5246
0
LINE
8
BLACK
6
CONTINUOUS
10
92.4954
20
-66.5246
11
92.5469
21
-66.6016
0
LINE
8
BLACK
6
CONTINUOUS
10
92.5469
20
-66.6016
11
92.565
21
-66.6925
0
LINE
8
BLACK
6
CONTINUOUS
10
92.565
20
-66.6925
11
92.565
21
-67.1675
0
LINE
8
BLACK
6
CONTINUOUS
10
92.565
20
-67.1675
11
92.5469
21
-67.2584
0
LINE
8
BLACK
6
CONTINUOUS
10
92.5469
20
-67.2584
11
92.4954
21
-67.3354
0
LINE
8
BLACK
6
CONTINUOUS
10
92.4954
20
-67.3354
11
92.4184
21
-67.3869
0
LINE
8
BLACK
6
CONTINUOUS
10
92.4184
20
-67.3869
11
92.3275
21
-67.405
0
LINE
8
BLACK
6
CONTINUOUS
10
92.3275
20
-67.405
11
91.8275
21
-67.405
0
LINE
8
BLACK
6
CONTINUOUS
10
91.8275
20
-67.405
11
91.7366
21
-67.3869
0
LINE
8
BLACK
6
CONTINUOUS
10
91.7366
20
-67.3869
11
91.6596
21
-67.3354
0
LINE
8
BLACK
6
CONTINUOUS
10
91.6596
20
-67.3354
11
91.6081
21
-67.2584
0
LINE
8
BLACK
6
CONTINUOUS
10
91.6081
20
-67.2584
11
91.59
21
-67.1675
0
LINE
8
BLACK
6
CONTINUOUS
10
91.59
20
-67.1675
11
91.59
21
-66.6925
0
LINE
8
BLACK
6
CONTINUOUS
10
91.59
20
-66.6925
11
91.6081
21
-66.6016
0
LINE
8
BLACK
6
CONTINUOUS
10
91.6081
20
-66.6016
11
91.6596
21
-66.5246
0
LINE
8
BLACK
6
CONTINUOUS
10
91.6596
20
-66.5246
11
91.7366
21
-66.4731
0
LINE
8
BLACK
6
CONTINUOUS
10
91.7366
20
-66.4731
11
91.8275
21
-66.455
0
LINE
8
BLACK
6
CONTINUOUS
10
91.8275
20
-66.455
11
92.3275
21
-66.455
0
LINE
8
BLACK
6
CONTINUOUS
10
92.3275
20
-66.455
11
92.4184
21
-66.4731
0
LINE
8
BLACK
6
CONTINUOUS
10
98.725
20
-67.27
11
96.975
21
-67.27
0
LINE
8
BLACK
6
CONTINUOUS
10
96.975
20
-67.27
11
96.975
21
-66.82
0
LINE
8
BLACK
6
CONTINUOUS
10
96.975
20
-66.82
11
98.725
21
-66.82
0
LINE
8
BLACK
6
CONTINUOUS
10
98.725
20
-66.82
11
98.725
21
-67.27
0
LINE
8
BLACK
6
CONTINUOUS
10
105.925
20
-67.27
11
104.175
21
-67.27
0
LINE
8
BLACK
6
CONTINUOUS
10
104.175
20
-67.27
11
104.175
21
-66.82
0
LINE
8
BLACK
6
CONTINUOUS
10
104.175
20
-66.82
11
105.925
21
-66.82
0
LINE
8
BLACK
6
CONTINUOUS
10
105.925
20
-66.82
11
105.925
21
-67.27
0
LINE
8
BLACK
6
CONTINUOUS
10
98.725
20
-66.62
11
96.975
21
-66.62
0
LINE
8
BLACK
6
CONTINUOUS
10
96.975
20
-66.62
11
96.975
21
-66.17
0
LINE
8
BLACK
6
CONTINUOUS
10
96.975
20
-66.17
11
98.725
21
-66.17
0
LINE
8
BLACK
6
CONTINUOUS
10
98.725
20
-66.17
11
98.725
21
-66.62
0
LINE
8
BLACK
6
CONTINUOUS
10
105.925
20
-66.62
11
104.175
21
-66.62
0
LINE
8
BLACK
6
CONTINUOUS
10
104.175
20
-66.62
11
104.175
21
-66.17
0
LINE
8
BLACK
6
CONTINUOUS
10
104.175
20
-66.17
11
105.925
21
-66.17
0
LINE
8
BLACK
6
CONTINUOUS
10
105.925
20
-66.17
11
105.925
21
-66.62
0
LINE
8
BLACK
6
CONTINUOUS
10
98.725
20
-65.97
11
96.975
21
-65.97
0
LINE
8
BLACK
6
CONTINUOUS
10
96.975
20
-65.97
11
96.975
21
-65.52
0
LINE
8
BLACK
6
CONTINUOUS
10
96.975
20
-65.52
11
98.725
21
-65.52
0
LINE
8
BLACK
6
CONTINUOUS
10
98.725
20
-65.52
11
98.725
21
-65.97
0
LINE
8
BLACK
6
CONTINUOUS
10
105.925
20
-65.97
11
104.175
21
-65.97
0
LINE
8
BLACK
6
CONTINUOUS
10
104.175
20
-65.97
11
104.175
21
-65.52
0
LINE
8
BLACK
6
CONTINUOUS
10
104.175
20
-65.52
11
105.925
21
-65.52
0
LINE
8
BLACK
6
CONTINUOUS
10
105.925
20
-65.52
11
105.925
21
-65.97
0
LINE
8
BLACK
6
CONTINUOUS
10
98.725
20
-65.32
11
96.975
21
-65.32
0
LINE
8
BLACK
6
CONTINUOUS
10
96.975
20
-65.32
11
96.975
21
-64.87
0
LINE
8
BLACK
6
CONTINUOUS
10
96.975
20
-64.87
11
98.725
21
-64.87
0
LINE
8
BLACK
6
CONTINUOUS
10
98.725
20
-64.87
11
98.725
21
-65.32
0
LINE
8
BLACK
6
CONTINUOUS
10
105.925
20
-65.32
11
104.175
21
-65.32
0
LINE
8
BLACK
6
CONTINUOUS
10
104.175
20
-65.32
11
104.175
21
-64.87
0
LINE
8
BLACK
6
CONTINUOUS
10
104.175
20
-64.87
11
105.925
21
-64.87
0
LINE
8
BLACK
6
CONTINUOUS
10
105.925
20
-64.87
11
105.925
21
-65.32
0
LINE
8
BLACK
6
CONTINUOUS
10
105.925
20
-64.67
11
104.175
21
-64.67
0
LINE
8
BLACK
6
CONTINUOUS
10
104.175
20
-64.67
11
104.175
21
-64.22
0
LINE
8
BLACK
6
CONTINUOUS
10
104.175
20
-64.22
11
105.925
21
-64.22
0
LINE
8
BLACK
6
CONTINUOUS
10
105.925
20
-64.22
11
105.925
21
-64.67
0
LINE
8
BLACK
6
CONTINUOUS
10
98.725
20
-64.67
11
96.975
21
-64.67
0
LINE
8
BLACK
6
CONTINUOUS
10
96.975
20
-64.67
11
96.975
21
-64.22
0
LINE
8
BLACK
6
CONTINUOUS
10
96.975
20
-64.22
11
98.725
21
-64.22
0
LINE
8
BLACK
6
CONTINUOUS
10
98.725
20
-64.22
11
98.725
21
-64.67
0
LINE
8
BLACK
6
CONTINUOUS
10
94.2459
20
-63.4931
11
94.3229
21
-63.5446
0
LINE
8
BLACK
6
CONTINUOUS
10
94.3229
20
-63.5446
11
94.3744
21
-63.6216
0
LINE
8
BLACK
6
CONTINUOUS
10
94.3744
20
-63.6216
11
94.3925
21
-63.7125
0
LINE
8
BLACK
6
CONTINUOUS
10
94.3925
20
-63.7125
11
94.3925
21
-64.1875
0
LINE
8
BLACK
6
CONTINUOUS
10
94.3925
20
-64.1875
11
94.3744
21
-64.2784
0
LINE
8
BLACK
6
CONTINUOUS
10
94.3744
20
-64.2784
11
94.3229
21
-64.3554
0
LINE
8
BLACK
6
CONTINUOUS
10
94.3229
20
-64.3554
11
94.2459
21
-64.4069
0
LINE
8
BLACK
6
CONTINUOUS
10
94.2459
20
-64.4069
11
94.155
21
-64.425
0
LINE
8
BLACK
6
CONTINUOUS
10
94.155
20
-64.425
11
93.655
21
-64.425
0
LINE
8
BLACK
6
CONTINUOUS
10
93.655
20
-64.425
11
93.5641
21
-64.4069
0
LINE
8
BLACK
6
CONTINUOUS
10
93.5641
20
-64.4069
11
93.4871
21
-64.3554
0
LINE
8
BLACK
6
CONTINUOUS
10
93.4871
20
-64.3554
11
93.4356
21
-64.2784
0
LINE
8
BLACK
6
CONTINUOUS
10
93.4356
20
-64.2784
11
93.4175
21
-64.1875
0
LINE
8
BLACK
6
CONTINUOUS
10
93.4175
20
-64.1875
11
93.4175
21
-63.7125
0
LINE
8
BLACK
6
CONTINUOUS
10
93.4175
20
-63.7125
11
93.4356
21
-63.6216
0
LINE
8
BLACK
6
CONTINUOUS
10
93.4356
20
-63.6216
11
93.4871
21
-63.5446
0
LINE
8
BLACK
6
CONTINUOUS
10
93.4871
20
-63.5446
11
93.5641
21
-63.4931
0
LINE
8
BLACK
6
CONTINUOUS
10
93.5641
20
-63.4931
11
93.655
21
-63.475
0
LINE
8
BLACK
6
CONTINUOUS
10
93.655
20
-63.475
11
94.155
21
-63.475
0
LINE
8
BLACK
6
CONTINUOUS
10
94.155
20
-63.475
11
94.2459
21
-63.4931
0
LINE
8
BLACK
6
CONTINUOUS
10
92.4209
20
-63.4931
11
92.4979
21
-63.5446
0
LINE
8
BLACK
6
CONTINUOUS
10
92.4979
20
-63.5446
11
92.5494
21
-63.6216
0
LINE
8
BLACK
6
CONTINUOUS
10
92.5494
20
-63.6216
11
92.5675
21
-63.7125
0
LINE
8
BLACK
6
CONTINUOUS
10
92.5675
20
-63.7125
11
92.5675
21
-64.1875
0
LINE
8
BLACK
6
CONTINUOUS
10
92.5675
20
-64.1875
11
92.5494
21
-64.2784
0
LINE
8
BLACK
6
CONTINUOUS
10
92.5494
20
-64.2784
11
92.4979
21
-64.3554
0
LINE
8
BLACK
6
CONTINUOUS
10
92.4979
20
-64.3554
11
92.4209
21
-64.4069
0
LINE
8
BLACK
6
CONTINUOUS
10
92.4209
20
-64.4069
11
92.33
21
-64.425
0
LINE
8
BLACK
6
CONTINUOUS
10
92.33
20
-64.425
11
91.83
21
-64.425
0
LINE
8
BLACK
6
CONTINUOUS
10
91.83
20
-64.425
11
91.7391
21
-64.4069
0
LINE
8
BLACK
6
CONTINUOUS
10
91.7391
20
-64.4069
11
91.6621
21
-64.3554
0
LINE
8
BLACK
6
CONTINUOUS
10
91.6621
20
-64.3554
11
91.6106
21
-64.2784
0
LINE
8
BLACK
6
CONTINUOUS
10
91.6106
20
-64.2784
11
91.5925
21
-64.1875
0
LINE
8
BLACK
6
CONTINUOUS
10
91.5925
20
-64.1875
11
91.5925
21
-63.7125
0
LINE
8
BLACK
6
CONTINUOUS
10
91.5925
20
-63.7125
11
91.6106
21
-63.6216
0
LINE
8
BLACK
6
CONTINUOUS
10
91.6106
20
-63.6216
11
91.6621
21
-63.5446
0
LINE
8
BLACK
6
CONTINUOUS
10
91.6621
20
-63.5446
11
91.7391
21
-63.4931
0
LINE
8
BLACK
6
CONTINUOUS
10
91.7391
20
-63.4931
11
91.83
21
-63.475
0
LINE
8
BLACK
6
CONTINUOUS
10
91.83
20
-63.475
11
92.33
21
-63.475
0
LINE
8
BLACK
6
CONTINUOUS
10
92.33
20
-63.475
11
92.4209
21
-63.4931
0
LINE
8
BLACK
6
CONTINUOUS
10
98.725
20
-64.02
11
96.975
21
-64.02
0
LINE
8
BLACK
6
CONTINUOUS
10
96.975
20
-64.02
11
96.975
21
-63.57
0
LINE
8
BLACK
6
CONTINUOUS
10
96.975
20
-63.57
11
98.725
21
-63.57
0
LINE
8
BLACK
6
CONTINUOUS
10
98.725
20
-63.57
11
98.725
21
-64.02
0
LINE
8
BLACK
6
CONTINUOUS
10
105.925
20
-64.02
11
104.175
21
-64.02
0
LINE
8
BLACK
6
CONTINUOUS
10
104.175
20
-64.02
11
104.175
21
-63.57
0
LINE
8
BLACK
6
CONTINUOUS
10
104.175
20
-63.57
11
105.925
21
-63.57
0
LINE
8
BLACK
6
CONTINUOUS
10
105.925
20
-63.57
11
105.925
21
-64.02
0
LINE
8
BLACK
6
CONTINUOUS
10
96.1434
20
-60.1231
11
96.2204
21
-60.1746
0
LINE
8
BLACK
6
CONTINUOUS
10
96.2204
20
-60.1746
11
96.2719
21
-60.2516
0
LINE
8
BLACK
6
CONTINUOUS
10
96.2719
20
-60.2516
11
96.29
21
-60.3425
0
LINE
8
BLACK
6
CONTINUOUS
10
96.29
20
-60.3425
11
96.29
21
-60.8175
0
LINE
8
BLACK
6
CONTINUOUS
10
96.29
20
-60.8175
11
96.2719
21
-60.9084
0
LINE
8
BLACK
6
CONTINUOUS
10
96.2719
20
-60.9084
11
96.2204
21
-60.9854
0
LINE
8
BLACK
6
CONTINUOUS
10
96.2204
20
-60.9854
11
96.1434
21
-61.0369
0
LINE
8
BLACK
6
CONTINUOUS
10
96.1434
20
-61.0369
11
96.0525
21
-61.055
0
LINE
8
BLACK
6
CONTINUOUS
10
96.0525
20
-61.055
11
95.5525
21
-61.055
0
LINE
8
BLACK
6
CONTINUOUS
10
95.5525
20
-61.055
11
95.4616
21
-61.0369
0
LINE
8
BLACK
6
CONTINUOUS
10
95.4616
20
-61.0369
11
95.3846
21
-60.9854
0
LINE
8
BLACK
6
CONTINUOUS
10
95.3846
20
-60.9854
11
95.3331
21
-60.9084
0
LINE
8
BLACK
6
CONTINUOUS
10
95.3331
20
-60.9084
11
95.315
21
-60.8175
0
LINE
8
BLACK
6
CONTINUOUS
10
95.315
20
-60.8175
11
95.315
21
-60.3425
0
LINE
8
BLACK
6
CONTINUOUS
10
95.315
20
-60.3425
11
95.3331
21
-60.2516
0
LINE
8
BLACK
6
CONTINUOUS
10
95.3331
20
-60.2516
11
95.3846
21
-60.1746
0
LINE
8
BLACK
6
CONTINUOUS
10
95.3846
20
-60.1746
11
95.4616
21
-60.1231
0
LINE
8
BLACK
6
CONTINUOUS
10
95.4616
20
-60.1231
11
95.5525
21
-60.105
0
LINE
8
BLACK
6
CONTINUOUS
10
95.5525
20
-60.105
11
96.0525
21
-60.105
0
LINE
8
BLACK
6
CONTINUOUS
10
96.0525
20
-60.105
11
96.1434
21
-60.1231
0
LINE
8
BLACK
6
CONTINUOUS
10
94.3184
20
-60.1231
11
94.3954
21
-60.1746
0
LINE
8
BLACK
6
CONTINUOUS
10
94.3954
20
-60.1746
11
94.4469
21
-60.2516
0
LINE
8
BLACK
6
CONTINUOUS
10
94.4469
20
-60.2516
11
94.465
21
-60.3425
0
LINE
8
BLACK
6
CONTINUOUS
10
94.465
20
-60.3425
11
94.465
21
-60.8175
0
LINE
8
BLACK
6
CONTINUOUS
10
94.465
20
-60.8175
11
94.4469
21
-60.9084
0
LINE
8
BLACK
6
CONTINUOUS
10
94.4469
20
-60.9084
11
94.3954
21
-60.9854
0
LINE
8
BLACK
6
CONTINUOUS
10
94.3954
20
-60.9854
11
94.3184
21
-61.0369
0
LINE
8
BLACK
6
CONTINUOUS
10
94.3184
20
-61.0369
11
94.2275
21
-61.055
0
LINE
8
BLACK
6
CONTINUOUS
10
94.2275
20
-61.055
11
93.7275
21
-61.055
0
LINE
8
BLACK
6
CONTINUOUS
10
93.7275
20
-61.055
11
93.6366
21
-61.0369
0
LINE
8
BLACK
6
CONTINUOUS
10
93.6366
20
-61.0369
11
93.5596
21
-60.9854
0
LINE
8
BLACK
6
CONTINUOUS
10
93.5596
20
-60.9854
11
93.5081
21
-60.9084
0
LINE
8
BLACK
6
CONTINUOUS
10
93.5081
20
-60.9084
11
93.49
21
-60.8175
0
LINE
8
BLACK
6
CONTINUOUS
10
93.49
20
-60.8175
11
93.49
21
-60.3425
0
LINE
8
BLACK
6
CONTINUOUS
10
93.49
20
-60.3425
11
93.5081
21
-60.2516
0
LINE
8
BLACK
6
CONTINUOUS
10
93.5081
20
-60.2516
11
93.5596
21
-60.1746
0
LINE
8
BLACK
6
CONTINUOUS
10
93.5596
20
-60.1746
11
93.6366
21
-60.1231
0
LINE
8
BLACK
6
CONTINUOUS
10
93.6366
20
-60.1231
11
93.7275
21
-60.105
0
LINE
8
BLACK
6
CONTINUOUS
10
93.7275
20
-60.105
11
94.2275
21
-60.105
0
LINE
8
BLACK
6
CONTINUOUS
10
94.2275
20
-60.105
11
94.3184
21
-60.1231
0
LINE
8
BLACK
6
CONTINUOUS
10
104.957
20
-56.9864
11
105.006
21
-57.0189
0
LINE
8
BLACK
6
CONTINUOUS
10
105.006
20
-57.0189
11
105.039
21
-57.0676
0
LINE
8
BLACK
6
CONTINUOUS
10
105.039
20
-57.0676
11
105.05
21
-57.125
0
LINE
8
BLACK
6
CONTINUOUS
10
105.05
20
-57.125
11
105.05
21
-57.425
0
LINE
8
BLACK
6
CONTINUOUS
10
105.05
20
-57.425
11
105.039
21
-57.4824
0
LINE
8
BLACK
6
CONTINUOUS
10
105.039
20
-57.4824
11
105.006
21
-57.5311
0
LINE
8
BLACK
6
CONTINUOUS
10
105.006
20
-57.5311
11
104.957
21
-57.5636
0
LINE
8
BLACK
6
CONTINUOUS
10
104.957
20
-57.5636
11
104.9
21
-57.575
0
LINE
8
BLACK
6
CONTINUOUS
10
104.9
20
-57.575
11
103.575
21
-57.575
0
LINE
8
BLACK
6
CONTINUOUS
10
103.575
20
-57.575
11
103.518
21
-57.5636
0
LINE
8
BLACK
6
CONTINUOUS
10
103.518
20
-57.5636
11
103.469
21
-57.5311
0
LINE
8
BLACK
6
CONTINUOUS
10
103.469
20
-57.5311
11
103.436
21
-57.4824
0
LINE
8
BLACK
6
CONTINUOUS
10
103.436
20
-57.4824
11
103.425
21
-57.425
0
LINE
8
BLACK
6
CONTINUOUS
10
103.425
20
-57.425
11
103.425
21
-57.125
0
LINE
8
BLACK
6
CONTINUOUS
10
103.425
20
-57.125
11
103.436
21
-57.0676
0
LINE
8
BLACK
6
CONTINUOUS
10
103.436
20
-57.0676
11
103.469
21
-57.0189
0
LINE
8
BLACK
6
CONTINUOUS
10
103.469
20
-57.0189
11
103.518
21
-56.9864
0
LINE
8
BLACK
6
CONTINUOUS
10
103.518
20
-56.9864
11
103.575
21
-56.975
0
LINE
8
BLACK
6
CONTINUOUS
10
103.575
20
-56.975
11
104.9
21
-56.975
0
LINE
8
BLACK
6
CONTINUOUS
10
104.9
20
-56.975
11
104.957
21
-56.9864
0
LINE
8
BLACK
6
CONTINUOUS
10
99.6824
20
-56.9864
11
99.7311
21
-57.0189
0
LINE
8
BLACK
6
CONTINUOUS
10
99.7311
20
-57.0189
11
99.7636
21
-57.0676
0
LINE
8
BLACK
6
CONTINUOUS
10
99.7636
20
-57.0676
11
99.775
21
-57.125
0
LINE
8
BLACK
6
CONTINUOUS
10
99.775
20
-57.125
11
99.775
21
-57.425
0
LINE
8
BLACK
6
CONTINUOUS
10
99.775
20
-57.425
11
99.7636
21
-57.4824
0
LINE
8
BLACK
6
CONTINUOUS
10
99.7636
20
-57.4824
11
99.7311
21
-57.5311
0
LINE
8
BLACK
6
CONTINUOUS
10
99.7311
20
-57.5311
11
99.6824
21
-57.5636
0
LINE
8
BLACK
6
CONTINUOUS
10
99.6824
20
-57.5636
11
99.625
21
-57.575
0
LINE
8
BLACK
6
CONTINUOUS
10
99.625
20
-57.575
11
98.3
21
-57.575
0
LINE
8
BLACK
6
CONTINUOUS
10
98.3
20
-57.575
11
98.2426
21
-57.5636
0
LINE
8
BLACK
6
CONTINUOUS
10
98.2426
20
-57.5636
11
98.1939
21
-57.5311
0
LINE
8
BLACK
6
CONTINUOUS
10
98.1939
20
-57.5311
11
98.1614
21
-57.4824
0
LINE
8
BLACK
6
CONTINUOUS
10
98.1614
20
-57.4824
11
98.15
21
-57.425
0
LINE
8
BLACK
6
CONTINUOUS
10
98.15
20
-57.425
11
98.15
21
-57.125
0
LINE
8
BLACK
6
CONTINUOUS
10
98.15
20
-57.125
11
98.1614
21
-57.0676
0
LINE
8
BLACK
6
CONTINUOUS
10
98.1614
20
-57.0676
11
98.1939
21
-57.0189
0
LINE
8
BLACK
6
CONTINUOUS
10
98.1939
20
-57.0189
11
98.2426
21
-56.9864
0
LINE
8
BLACK
6
CONTINUOUS
10
98.2426
20
-56.9864
11
98.3
21
-56.975
0
LINE
8
BLACK
6
CONTINUOUS
10
98.3
20
-56.975
11
99.625
21
-56.975
0
LINE
8
BLACK
6
CONTINUOUS
10
99.625
20
-56.975
11
99.6824
21
-56.9864
0
LINE
8
BLACK
6
CONTINUOUS
10
101.341
20
-55.519
11
101.422
21
-55.5732
0
LINE
8
BLACK
6
CONTINUOUS
10
101.422
20
-55.5732
11
101.476
21
-55.6543
0
LINE
8
BLACK
6
CONTINUOUS
10
101.476
20
-55.6543
11
101.495
21
-55.75
0
LINE
8
BLACK
6
CONTINUOUS
10
101.495
20
-55.75
11
101.495
21
-56.59
0
LINE
8
BLACK
6
CONTINUOUS
10
101.495
20
-56.59
11
101.476
21
-56.6857
0
LINE
8
BLACK
6
CONTINUOUS
10
101.476
20
-56.6857
11
101.422
21
-56.7668
0
LINE
8
BLACK
6
CONTINUOUS
10
101.422
20
-56.7668
11
101.341
21
-56.821
0
LINE
8
BLACK
6
CONTINUOUS
10
101.341
20
-56.821
11
101.245
21
-56.84
0
LINE
8
BLACK
6
CONTINUOUS
10
101.245
20
-56.84
11
100.695
21
-56.84
0
LINE
8
BLACK
6
CONTINUOUS
10
100.695
20
-56.84
11
100.599
21
-56.821
0
LINE
8
BLACK
6
CONTINUOUS
10
100.599
20
-56.821
11
100.518
21
-56.7668
0
LINE
8
BLACK
6
CONTINUOUS
10
100.518
20
-56.7668
11
100.464
21
-56.6857
0
LINE
8
BLACK
6
CONTINUOUS
10
100.464
20
-56.6857
11
100.445
21
-56.59
0
LINE
8
BLACK
6
CONTINUOUS
10
100.445
20
-56.59
11
100.445
21
-55.75
0
LINE
8
BLACK
6
CONTINUOUS
10
100.445
20
-55.75
11
100.464
21
-55.6543
0
LINE
8
BLACK
6
CONTINUOUS
10
100.464
20
-55.6543
11
100.518
21
-55.5732
0
LINE
8
BLACK
6
CONTINUOUS
10
100.518
20
-55.5732
11
100.599
21
-55.519
0
LINE
8
BLACK
6
CONTINUOUS
10
100.599
20
-55.519
11
100.695
21
-55.5
0
LINE
8
BLACK
6
CONTINUOUS
10
100.695
20
-55.5
11
101.245
21
-55.5
0
LINE
8
BLACK
6
CONTINUOUS
10
101.245
20
-55.5
11
101.341
21
-55.519
0
LINE
8
BLACK
6
CONTINUOUS
10
102.601
20
-55.519
11
102.682
21
-55.5732
0
LINE
8
BLACK
6
CONTINUOUS
10
102.682
20
-55.5732
11
102.736
21
-55.6543
0
LINE
8
BLACK
6
CONTINUOUS
10
102.736
20
-55.6543
11
102.755
21
-55.75
0
LINE
8
BLACK
6
CONTINUOUS
10
102.755
20
-55.75
11
102.755
21
-56.59
0
LINE
8
BLACK
6
CONTINUOUS
10
102.755
20
-56.59
11
102.736
21
-56.6857
0
LINE
8
BLACK
6
CONTINUOUS
10
102.736
20
-56.6857
11
102.682
21
-56.7668
0
LINE
8
BLACK
6
CONTINUOUS
10
102.682
20
-56.7668
11
102.601
21
-56.821
0
LINE
8
BLACK
6
CONTINUOUS
10
102.601
20
-56.821
11
102.505
21
-56.84
0
LINE
8
BLACK
6
CONTINUOUS
10
102.505
20
-56.84
11
101.955
21
-56.84
0
LINE
8
BLACK
6
CONTINUOUS
10
101.955
20
-56.84
11
101.859
21
-56.821
0
LINE
8
BLACK
6
CONTINUOUS
10
101.859
20
-56.821
11
101.778
21
-56.7668
0
LINE
8
BLACK
6
CONTINUOUS
10
101.778
20
-56.7668
11
101.724
21
-56.6857
0
LINE
8
BLACK
6
CONTINUOUS
10
101.724
20
-56.6857
11
101.705
21
-56.59
0
LINE
8
BLACK
6
CONTINUOUS
10
101.705
20
-56.59
11
101.705
21
-55.75
0
LINE
8
BLACK
6
CONTINUOUS
10
101.705
20
-55.75
11
101.724
21
-55.6543
0
LINE
8
BLACK
6
CONTINUOUS
10
101.724
20
-55.6543
11
101.778
21
-55.5732
0
LINE
8
BLACK
6
CONTINUOUS
10
101.778
20
-55.5732
11
101.859
21
-55.519
0
LINE
8
BLACK
6
CONTINUOUS
10
101.859
20
-55.519
11
101.955
21
-55.5
0
LINE
8
BLACK
6
CONTINUOUS
10
101.955
20
-55.5
11
102.505
21
-55.5
0
LINE
8
BLACK
6
CONTINUOUS
10
102.505
20
-55.5
11
102.601
21
-55.519
0
LINE
8
BLACK
6
CONTINUOUS
10
104.957
20
-55.7164
11
105.006
21
-55.7489
0
LINE
8
BLACK
6
CONTINUOUS
10
105.006
20
-55.7489
11
105.039
21
-55.7976
0
LINE
8
BLACK
6
CONTINUOUS
10
105.039
20
-55.7976
11
105.05
21
-55.855
0
LINE
8
BLACK
6
CONTINUOUS
10
105.05
20
-55.855
11
105.05
21
-56.155
0
LINE
8
BLACK
6
CONTINUOUS
10
105.05
20
-56.155
11
105.039
21
-56.2124
0
LINE
8
BLACK
6
CONTINUOUS
10
105.039
20
-56.2124
11
105.006
21
-56.2611
0
LINE
8
BLACK
6
CONTINUOUS
10
105.006
20
-56.2611
11
104.957
21
-56.2936
0
LINE
8
BLACK
6
CONTINUOUS
10
104.957
20
-56.2936
11
104.9
21
-56.305
0
LINE
8
BLACK
6
CONTINUOUS
10
104.9
20
-56.305
11
103.575
21
-56.305
0
LINE
8
BLACK
6
CONTINUOUS
10
103.575
20
-56.305
11
103.518
21
-56.2936
0
LINE
8
BLACK
6
CONTINUOUS
10
103.518
20
-56.2936
11
103.469
21
-56.2611
0
LINE
8
BLACK
6
CONTINUOUS
10
103.469
20
-56.2611
11
103.436
21
-56.2124
0
LINE
8
BLACK
6
CONTINUOUS
10
103.436
20
-56.2124
11
103.425
21
-56.155
0
LINE
8
BLACK
6
CONTINUOUS
10
103.425
20
-56.155
11
103.425
21
-55.855
0
LINE
8
BLACK
6
CONTINUOUS
10
103.425
20
-55.855
11
103.436
21
-55.7976
0
LINE
8
BLACK
6
CONTINUOUS
10
103.436
20
-55.7976
11
103.469
21
-55.7489
0
LINE
8
BLACK
6
CONTINUOUS
10
103.469
20
-55.7489
11
103.518
21
-55.7164
0
LINE
8
BLACK
6
CONTINUOUS
10
103.518
20
-55.7164
11
103.575
21
-55.705
0
LINE
8
BLACK
6
CONTINUOUS
10
103.575
20
-55.705
11
104.9
21
-55.705
0
LINE
8
BLACK
6
CONTINUOUS
10
104.9
20
-55.705
11
104.957
21
-55.7164
0
LINE
8
BLACK
6
CONTINUOUS
10
99.6824
20
-55.7164
11
99.7311
21
-55.7489
0
LINE
8
BLACK
6
CONTINUOUS
10
99.7311
20
-55.7489
11
99.7636
21
-55.7976
0
LINE
8
BLACK
6
CONTINUOUS
10
99.7636
20
-55.7976
11
99.775
21
-55.855
0
LINE
8
BLACK
6
CONTINUOUS
10
99.775
20
-55.855
11
99.775
21
-56.155
0
LINE
8
BLACK
6
CONTINUOUS
10
99.775
20
-56.155
11
99.7636
21
-56.2124
0
LINE
8
BLACK
6
CONTINUOUS
10
99.7636
20
-56.2124
11
99.7311
21
-56.2611
0
LINE
8
BLACK
6
CONTINUOUS
10
99.7311
20
-56.2611
11
99.6824
21
-56.2936
0
LINE
8
BLACK
6
CONTINUOUS
10
99.6824
20
-56.2936
11
99.625
21
-56.305
0
LINE
8
BLACK
6
CONTINUOUS
10
99.625
20
-56.305
11
98.3
21
-56.305
0
LINE
8
BLACK
6
CONTINUOUS
10
98.3
20
-56.305
11
98.2426
21
-56.2936
0
LINE
8
BLACK
6
CONTINUOUS
10
98.2426
20
-56.2936
11
98.1939
21
-56.2611
0
LINE
8
BLACK
6
CONTINUOUS
10
98.1939
20
-56.2611
11
98.1614
21
-56.2124
0
LINE
8
BLACK
6
CONTINUOUS
10
98.1614
20
-56.2124
11
98.15
21
-56.155
0
LINE
8
BLACK
6
CONTINUOUS
10
98.15
20
-56.155
11
98.15
21
-55.855
0
LINE
8
BLACK
6
CONTINUOUS
10
98.15
20
-55.855
11
98.1614
21
-55.7976
0
LINE
8
BLACK
6
CONTINUOUS
10
98.1614
20
-55.7976
11
98.1939
21
-55.7489
0
LINE
8
BLACK
6
CONTINUOUS
10
98.1939
20
-55.7489
11
98.2426
21
-55.7164
0
LINE
8
BLACK
6
CONTINUOUS
10
98.2426
20
-55.7164
11
98.3
21
-55.705
0
LINE
8
BLACK
6
CONTINUOUS
10
98.3
20
-55.705
11
99.625
21
-55.705
0
LINE
8
BLACK
6
CONTINUOUS
10
99.625
20
-55.705
11
99.6824
21
-55.7164
0
LINE
8
BLACK
6
CONTINUOUS
10
101.341
20
-53.919
11
101.422
21
-53.9732
0
LINE
8
BLACK
6
CONTINUOUS
10
101.422
20
-53.9732
11
101.476
21
-54.0543
0
LINE
8
BLACK
6
CONTINUOUS
10
101.476
20
-54.0543
11
101.495
21
-54.15
0
LINE
8
BLACK
6
CONTINUOUS
10
101.495
20
-54.15
11
101.495
21
-54.99
0
LINE
8
BLACK
6
CONTINUOUS
10
101.495
20
-54.99
11
101.476
21
-55.0857
0
LINE
8
BLACK
6
CONTINUOUS
10
101.476
20
-55.0857
11
101.422
21
-55.1668
0
LINE
8
BLACK
6
CONTINUOUS
10
101.422
20
-55.1668
11
101.341
21
-55.221
0
LINE
8
BLACK
6
CONTINUOUS
10
101.341
20
-55.221
11
101.245
21
-55.24
0
LINE
8
BLACK
6
CONTINUOUS
10
101.245
20
-55.24
11
100.695
21
-55.24
0
LINE
8
BLACK
6
CONTINUOUS
10
100.695
20
-55.24
11
100.599
21
-55.221
0
LINE
8
BLACK
6
CONTINUOUS
10
100.599
20
-55.221
11
100.518
21
-55.1668
0
LINE
8
BLACK
6
CONTINUOUS
10
100.518
20
-55.1668
11
100.464
21
-55.0857
0
LINE
8
BLACK
6
CONTINUOUS
10
100.464
20
-55.0857
11
100.445
21
-54.99
0
LINE
8
BLACK
6
CONTINUOUS
10
100.445
20
-54.99
11
100.445
21
-54.15
0
LINE
8
BLACK
6
CONTINUOUS
10
100.445
20
-54.15
11
100.464
21
-54.0543
0
LINE
8
BLACK
6
CONTINUOUS
10
100.464
20
-54.0543
11
100.518
21
-53.9732
0
LINE
8
BLACK
6
CONTINUOUS
10
100.518
20
-53.9732
11
100.599
21
-53.919
0
LINE
8
BLACK
6
CONTINUOUS
10
100.599
20
-53.919
11
100.695
21
-53.9
0
LINE
8
BLACK
6
CONTINUOUS
10
100.695
20
-53.9
11
101.245
21
-53.9
0
LINE
8
BLACK
6
CONTINUOUS
10
101.245
20
-53.9
11
101.341
21
-53.919
0
LINE
8
BLACK
6
CONTINUOUS
10
102.601
20
-53.919
11
102.682
21
-53.9732
0
LINE
8
BLACK
6
CONTINUOUS
10
102.682
20
-53.9732
11
102.736
21
-54.0543
0
LINE
8
BLACK
6
CONTINUOUS
10
102.736
20
-54.0543
11
102.755
21
-54.15
0
LINE
8
BLACK
6
CONTINUOUS
10
102.755
20
-54.15
11
102.755
21
-54.99
0
LINE
8
BLACK
6
CONTINUOUS
10
102.755
20
-54.99
11
102.736
21
-55.0857
0
LINE
8
BLACK
6
CONTINUOUS
10
102.736
20
-55.0857
11
102.682
21
-55.1668
0
LINE
8
BLACK
6
CONTINUOUS
10
102.682
20
-55.1668
11
102.601
21
-55.221
0
LINE
8
BLACK
6
CONTINUOUS
10
102.601
20
-55.221
11
102.505
21
-55.24
0
LINE
8
BLACK
6
CONTINUOUS
10
102.505
20
-55.24
11
101.955
21
-55.24
0
LINE
8
BLACK
6
CONTINUOUS
10
101.955
20
-55.24
11
101.859
21
-55.221
0
LINE
8
BLACK
6
CONTINUOUS
10
101.859
20
-55.221
11
101.778
21
-55.1668
0
LINE
8
BLACK
6
CONTINUOUS
10
101.778
20
-55.1668
11
101.724
21
-55.0857
0
LINE
8
BLACK
6
CONTINUOUS
10
101.724
20
-55.0857
11
101.705
21
-54.99
0
LINE
8
BLACK
6
CONTINUOUS
10
101.705
20
-54.99
11
101.705
21
-54.15
0
LINE
8
BLACK
6
CONTINUOUS
10
101.705
20
-54.15
11
101.724
21
-54.0543
0
LINE
8
BLACK
6
CONTINUOUS
10
101.724
20
-54.0543
11
101.778
21
-53.9732
0
LINE
8
BLACK
6
CONTINUOUS
10
101.778
20
-53.9732
11
101.859
21
-53.919
0
LINE
8
BLACK
6
CONTINUOUS
10
101.859
20
-53.919
11
101.955
21
-53.9
0
LINE
8
BLACK
6
CONTINUOUS
10
101.955
20
-53.9
11
102.505
21
-53.9
0
LINE
8
BLACK
6
CONTINUOUS
10
102.505
20
-53.9
11
102.601
21
-53.919
0
LINE
8
BLACK
6
CONTINUOUS
10
106.528
20
-54.2731
11
106.605
21
-54.3246
0
LINE
8
BLACK
6
CONTINUOUS
10
106.605
20
-54.3246
11
106.657
21
-54.4016
0
LINE
8
BLACK
6
CONTINUOUS
10
106.657
20
-54.4016
11
106.675
21
-54.4925
0
LINE
8
BLACK
6
CONTINUOUS
10
106.675
20
-54.4925
11
106.675
21
-54.9675
0
LINE
8
BLACK
6
CONTINUOUS
10
106.675
20
-54.9675
11
106.657
21
-55.0584
0
LINE
8
BLACK
6
CONTINUOUS
10
106.657
20
-55.0584
11
106.605
21
-55.1354
0
LINE
8
BLACK
6
CONTINUOUS
10
106.605
20
-55.1354
11
106.528
21
-55.1869
0
LINE
8
BLACK
6
CONTINUOUS
10
106.528
20
-55.1869
11
106.438
21
-55.205
0
LINE
8
BLACK
6
CONTINUOUS
10
106.438
20
-55.205
11
105.938
21
-55.205
0
LINE
8
BLACK
6
CONTINUOUS
10
105.938
20
-55.205
11
105.847
21
-55.1869
0
LINE
8
BLACK
6
CONTINUOUS
10
105.847
20
-55.1869
11
105.77
21
-55.1354
0
LINE
8
BLACK
6
CONTINUOUS
10
105.77
20
-55.1354
11
105.718
21
-55.0584
0
LINE
8
BLACK
6
CONTINUOUS
10
105.718
20
-55.0584
11
105.7
21
-54.9675
0
LINE
8
BLACK
6
CONTINUOUS
10
105.7
20
-54.9675
11
105.7
21
-54.4925
0
LINE
8
BLACK
6
CONTINUOUS
10
105.7
20
-54.4925
11
105.718
21
-54.4016
0
LINE
8
BLACK
6
CONTINUOUS
10
105.718
20
-54.4016
11
105.77
21
-54.3246
0
LINE
8
BLACK
6
CONTINUOUS
10
105.77
20
-54.3246
11
105.847
21
-54.2731
0
LINE
8
BLACK
6
CONTINUOUS
10
105.847
20
-54.2731
11
105.938
21
-54.255
0
LINE
8
BLACK
6
CONTINUOUS
10
105.938
20
-54.255
11
106.438
21
-54.255
0
LINE
8
BLACK
6
CONTINUOUS
10
106.438
20
-54.255
11
106.528
21
-54.2731
0
LINE
8
BLACK
6
CONTINUOUS
10
108.353
20
-54.2731
11
108.43
21
-54.3246
0
LINE
8
BLACK
6
CONTINUOUS
10
108.43
20
-54.3246
11
108.482
21
-54.4016
0
LINE
8
BLACK
6
CONTINUOUS
10
108.482
20
-54.4016
11
108.5
21
-54.4925
0
LINE
8
BLACK
6
CONTINUOUS
10
108.5
20
-54.4925
11
108.5
21
-54.9675
0
LINE
8
BLACK
6
CONTINUOUS
10
108.5
20
-54.9675
11
108.482
21
-55.0584
0
LINE
8
BLACK
6
CONTINUOUS
10
108.482
20
-55.0584
11
108.43
21
-55.1354
0
LINE
8
BLACK
6
CONTINUOUS
10
108.43
20
-55.1354
11
108.353
21
-55.1869
0
LINE
8
BLACK
6
CONTINUOUS
10
108.353
20
-55.1869
11
108.262
21
-55.205
0
LINE
8
BLACK
6
CONTINUOUS
10
108.262
20
-55.205
11
107.762
21
-55.205
0
LINE
8
BLACK
6
CONTINUOUS
10
107.762
20
-55.205
11
107.672
21
-55.1869
0
LINE
8
BLACK
6
CONTINUOUS
10
107.672
20
-55.1869
11
107.595
21
-55.1354
0
LINE
8
BLACK
6
CONTINUOUS
10
107.595
20
-55.1354
11
107.543
21
-55.0584
0
LINE
8
BLACK
6
CONTINUOUS
10
107.543
20
-55.0584
11
107.525
21
-54.9675
0
LINE
8
BLACK
6
CONTINUOUS
10
107.525
20
-54.9675
11
107.525
21
-54.4925
0
LINE
8
BLACK
6
CONTINUOUS
10
107.525
20
-54.4925
11
107.543
21
-54.4016
0
LINE
8
BLACK
6
CONTINUOUS
10
107.543
20
-54.4016
11
107.595
21
-54.3246
0
LINE
8
BLACK
6
CONTINUOUS
10
107.595
20
-54.3246
11
107.672
21
-54.2731
0
LINE
8
BLACK
6
CONTINUOUS
10
107.672
20
-54.2731
11
107.762
21
-54.255
0
LINE
8
BLACK
6
CONTINUOUS
10
107.762
20
-54.255
11
108.262
21
-54.255
0
LINE
8
BLACK
6
CONTINUOUS
10
108.262
20
-54.255
11
108.353
21
-54.2731
0
LINE
8
BLACK
6
CONTINUOUS
10
99.6824
20
-54.4464
11
99.7311
21
-54.4789
0
LINE
8
BLACK
6
CONTINUOUS
10
99.7311
20
-54.4789
11
99.7636
21
-54.5276
0
LINE
8
BLACK
6
CONTINUOUS
10
99.7636
20
-54.5276
11
99.775
21
-54.585
0
LINE
8
BLACK
6
CONTINUOUS
10
99.775
20
-54.585
11
99.775
21
-54.885
0
LINE
8
BLACK
6
CONTINUOUS
10
99.775
20
-54.885
11
99.7636
21
-54.9424
0
LINE
8
BLACK
6
CONTINUOUS
10
99.7636
20
-54.9424
11
99.7311
21
-54.9911
0
LINE
8
BLACK
6
CONTINUOUS
10
99.7311
20
-54.9911
11
99.6824
21
-55.0236
0
LINE
8
BLACK
6
CONTINUOUS
10
99.6824
20
-55.0236
11
99.625
21
-55.035
0
LINE
8
BLACK
6
CONTINUOUS
10
99.625
20
-55.035
11
98.3
21
-55.035
0
LINE
8
BLACK
6
CONTINUOUS
10
98.3
20
-55.035
11
98.2426
21
-55.0236
0
LINE
8
BLACK
6
CONTINUOUS
10
98.2426
20
-55.0236
11
98.1939
21
-54.9911
0
LINE
8
BLACK
6
CONTINUOUS
10
98.1939
20
-54.9911
11
98.1614
21
-54.9424
0
LINE
8
BLACK
6
CONTINUOUS
10
98.1614
20
-54.9424
11
98.15
21
-54.885
0
LINE
8
BLACK
6
CONTINUOUS
10
98.15
20
-54.885
11
98.15
21
-54.585
0
LINE
8
BLACK
6
CONTINUOUS
10
98.15
20
-54.585
11
98.1614
21
-54.5276
0
LINE
8
BLACK
6
CONTINUOUS
10
98.1614
20
-54.5276
11
98.1939
21
-54.4789
0
LINE
8
BLACK
6
CONTINUOUS
10
98.1939
20
-54.4789
11
98.2426
21
-54.4464
0
LINE
8
BLACK
6
CONTINUOUS
10
98.2426
20
-54.4464
11
98.3
21
-54.435
0
LINE
8
BLACK
6
CONTINUOUS
10
98.3
20
-54.435
11
99.625
21
-54.435
0
LINE
8
BLACK
6
CONTINUOUS
10
99.625
20
-54.435
11
99.6824
21
-54.4464
0
LINE
8
BLACK
6
CONTINUOUS
10
104.957
20
-54.4464
11
105.006
21
-54.4789
0
LINE
8
BLACK
6
CONTINUOUS
10
105.006
20
-54.4789
11
105.039
21
-54.5276
0
LINE
8
BLACK
6
CONTINUOUS
10
105.039
20
-54.5276
11
105.05
21
-54.585
0
LINE
8
BLACK
6
CONTINUOUS
10
105.05
20
-54.585
11
105.05
21
-54.885
0
LINE
8
BLACK
6
CONTINUOUS
10
105.05
20
-54.885
11
105.039
21
-54.9424
0
LINE
8
BLACK
6
CONTINUOUS
10
105.039
20
-54.9424
11
105.006
21
-54.9911
0
LINE
8
BLACK
6
CONTINUOUS
10
105.006
20
-54.9911
11
104.957
21
-55.0236
0
LINE
8
BLACK
6
CONTINUOUS
10
104.957
20
-55.0236
11
104.9
21
-55.035
0
LINE
8
BLACK
6
CONTINUOUS
10
104.9
20
-55.035
11
103.575
21
-55.035
0
LINE
8
BLACK
6
CONTINUOUS
10
103.575
20
-55.035
11
103.518
21
-55.0236
0
LINE
8
BLACK
6
CONTINUOUS
10
103.518
20
-55.0236
11
103.469
21
-54.9911
0
LINE
8
BLACK
6
CONTINUOUS
10
103.469
20
-54.9911
11
103.436
21
-54.9424
0
LINE
8
BLACK
6
CONTINUOUS
10
103.436
20
-54.9424
11
103.425
21
-54.885
0
LINE
8
BLACK
6
CONTINUOUS
10
103.425
20
-54.885
11
103.425
21
-54.585
0
LINE
8
BLACK
6
CONTINUOUS
10
103.425
20
-54.585
11
103.436
21
-54.5276
0
LINE
8
BLACK
6
CONTINUOUS
10
103.436
20
-54.5276
11
103.469
21
-54.4789
0
LINE
8
BLACK
6
CONTINUOUS
10
103.469
20
-54.4789
11
103.518
21
-54.4464
0
LINE
8
BLACK
6
CONTINUOUS
10
103.518
20
-54.4464
11
103.575
21
-54.435
0
LINE
8
BLACK
6
CONTINUOUS
10
103.575
20
-54.435
11
104.9
21
-54.435
0
LINE
8
BLACK
6
CONTINUOUS
10
104.9
20
-54.435
11
104.957
21
-54.4464
0
LINE
8
BLACK
6
CONTINUOUS
10
104.957
20
-53.1764
11
105.006
21
-53.2089
0
LINE
8
BLACK
6
CONTINUOUS
10
105.006
20
-53.2089
11
105.039
21
-53.2576
0
LINE
8
BLACK
6
CONTINUOUS
10
105.039
20
-53.2576
11
105.05
21
-53.315
0
LINE
8
BLACK
6
CONTINUOUS
10
105.05
20
-53.315
11
105.05
21
-53.615
0
LINE
8
BLACK
6
CONTINUOUS
10
105.05
20
-53.615
11
105.039
21
-53.6724
0
LINE
8
BLACK
6
CONTINUOUS
10
105.039
20
-53.6724
11
105.006
21
-53.7211
0
LINE
8
BLACK
6
CONTINUOUS
10
105.006
20
-53.7211
11
104.957
21
-53.7536
0
LINE
8
BLACK
6
CONTINUOUS
10
104.957
20
-53.7536
11
104.9
21
-53.765
0
LINE
8
BLACK
6
CONTINUOUS
10
104.9
20
-53.765
11
103.575
21
-53.765
0
LINE
8
BLACK
6
CONTINUOUS
10
103.575
20
-53.765
11
103.518
21
-53.7536
0
LINE
8
BLACK
6
CONTINUOUS
10
103.518
20
-53.7536
11
103.469
21
-53.7211
0
LINE
8
BLACK
6
CONTINUOUS
10
103.469
20
-53.7211
11
103.436
21
-53.6724
0
LINE
8
BLACK
6
CONTINUOUS
10
103.436
20
-53.6724
11
103.425
21
-53.615
0
LINE
8
BLACK
6
CONTINUOUS
10
103.425
20
-53.615
11
103.425
21
-53.315
0
LINE
8
BLACK
6
CONTINUOUS
10
103.425
20
-53.315
11
103.436
21
-53.2576
0
LINE
8
BLACK
6
CONTINUOUS
10
103.436
20
-53.2576
11
103.469
21
-53.2089
0
LINE
8
BLACK
6
CONTINUOUS
10
103.469
20
-53.2089
11
103.518
21
-53.1764
0
LINE
8
BLACK
6
CONTINUOUS
10
103.518
20
-53.1764
11
103.575
21
-53.165
0
LINE
8
BLACK
6
CONTINUOUS
10
103.575
20
-53.165
11
104.9
21
-53.165
0
LINE
8
BLACK
6
CONTINUOUS
10
104.9
20
-53.165
11
104.957
21
-53.1764
0
LINE
8
BLACK
6
CONTINUOUS
10
99.6824
20
-53.1764
11
99.7311
21
-53.2089
0
LINE
8
BLACK
6
CONTINUOUS
10
99.7311
20
-53.2089
11
99.7636
21
-53.2576
0
LINE
8
BLACK
6
CONTINUOUS
10
99.7636
20
-53.2576
11
99.775
21
-53.315
0
LINE
8
BLACK
6
CONTINUOUS
10
99.775
20
-53.315
11
99.775
21
-53.615
0
LINE
8
BLACK
6
CONTINUOUS
10
99.775
20
-53.615
11
99.7636
21
-53.6724
0
LINE
8
BLACK
6
CONTINUOUS
10
99.7636
20
-53.6724
11
99.7311
21
-53.7211
0
LINE
8
BLACK
6
CONTINUOUS
10
99.7311
20
-53.7211
11
99.6824
21
-53.7536
0
LINE
8
BLACK
6
CONTINUOUS
10
99.6824
20
-53.7536
11
99.625
21
-53.765
0
LINE
8
BLACK
6
CONTINUOUS
10
99.625
20
-53.765
11
98.3
21
-53.765
0
LINE
8
BLACK
6
CONTINUOUS
10
98.3
20
-53.765
11
98.2426
21
-53.7536
0
LINE
8
BLACK
6
CONTINUOUS
10
98.2426
20
-53.7536
11
98.1939
21
-53.7211
0
LINE
8
BLACK
6
CONTINUOUS
10
98.1939
20
-53.7211
11
98.1614
21
-53.6724
0
LINE
8
BLACK
6
CONTINUOUS
10
98.1614
20
-53.6724
11
98.15
21
-53.615
0
LINE
8
BLACK
6
CONTINUOUS
10
98.15
20
-53.615
11
98.15
21
-53.315
0
LINE
8
BLACK
6
CONTINUOUS
10
98.15
20
-53.315
11
98.1614
21
-53.2576
0
LINE
8
BLACK
6
CONTINUOUS
10
98.1614
20
-53.2576
11
98.1939
21
-53.2089
0
LINE
8
BLACK
6
CONTINUOUS
10
98.1939
20
-53.2089
11
98.2426
21
-53.1764
0
LINE
8
BLACK
6
CONTINUOUS
10
98.2426
20
-53.1764
11
98.3
21
-53.165
0
LINE
8
BLACK
6
CONTINUOUS
10
98.3
20
-53.165
11
99.625
21
-53.165
0
LINE
8
BLACK
6
CONTINUOUS
10
99.625
20
-53.165
11
99.6824
21
-53.1764
  0
ENDSEC
  0
EOF
