  0
SECTION
  2
HEADER
  9
$ANGBASE
  50
0.0
  9
$ANGDIR
  70
1
  9
$MEASUREMENT
  70
1
  0
ENDSEC
  0
SECTION
  2
TABLES
  0
TABLE
  2
LTYPE
  70
4
  0
LTYPE
  5
40F
  2
CONTINUOUS
  70
0
  3
Solid line
  72
65
  73
0
  40
0.0
  0
LTYPE
  5
410
  2
DASHDOT
 70
0
  3
Dash Dot ____ _ ____ _
 72
65
 73
4
 40
2.0
 49
1.25
 49
-0.25
 49
0.25
 49
-0.25
  0
LTYPE
  5
411
  2
DASHED
 70
0
  3
Dashed __ __ __ __ __
 72
65
 73
2
 40
0.75
 49
0.5
 49
-0.25
  0
LTYPE
  5
43B
  2
DOTTED
 70
0
  3
Dotted .  .  .  .
 72
65
 73
2
 40
0.2
 49
0.0
 49
-0.2
  0
ENDTAB
  0
TABLE
  2
STYLE
  70
4
  0
STYLE
  2
KICAD
  70
0
  40
0
  41
1
  42
1
  50
0
  71
0
  3
isocp.shx
  0
STYLE
  2
KICADB
  70
0
  40
0
  41
1
  42
1
  50
0
  71
0
  3
isocp.shx
  0
STYLE
  2
KICADI
  70
0
  40
0
  41
1
  42
1
  50
15
  71
0
  3
isocp.shx
  0
STYLE
  2
KICADBI
  70
0
  40
0
  41
1
  42
1
  50
15
  71
0
  3
isocp.shx
  0
ENDTAB
  0
TABLE
  2
LAYER
  70
1
  0
LAYER
  2
BLACK
  70
0
  62
7
  6
CONTINUOUS
  0
ENDTAB
  0
ENDSEC
  0
SECTION
  2
ENTITIES
0
LINE
8
BLACK
6
CONTINUOUS
10
97.4821
20
-86.5955
11
97.6695
21
-86.6535
0
LINE
8
BLACK
6
CONTINUOUS
10
97.6695
20
-86.6535
11
97.842
21
-86.7468
0
LINE
8
BLACK
6
CONTINUOUS
10
97.842
20
-86.7468
11
97.9931
21
-86.8718
0
LINE
8
BLACK
6
CONTINUOUS
10
97.9931
20
-86.8718
11
98.1171
21
-87.0238
0
LINE
8
BLACK
6
CONTINUOUS
10
98.1171
20
-87.0238
11
98.2092
21
-87.197
0
LINE
8
BLACK
6
CONTINUOUS
10
98.2092
20
-87.197
11
98.2659
21
-87.3848
0
LINE
8
BLACK
6
CONTINUOUS
10
98.2659
20
-87.3848
11
98.285
21
-87.58
0
LINE
8
BLACK
6
CONTINUOUS
10
98.285
20
-87.58
11
98.2846
21
-87.6081
0
LINE
8
BLACK
6
CONTINUOUS
10
98.2846
20
-87.6081
11
98.26
21
-87.8027
0
LINE
8
BLACK
6
CONTINUOUS
10
98.26
20
-87.8027
11
98.1981
21
-87.9888
0
LINE
8
BLACK
6
CONTINUOUS
10
98.1981
20
-87.9888
11
98.1012
21
-88.1593
0
LINE
8
BLACK
6
CONTINUOUS
10
98.1012
20
-88.1593
11
97.9731
21
-88.3078
0
LINE
8
BLACK
6
CONTINUOUS
10
97.9731
20
-88.3078
11
97.8185
21
-88.4286
0
LINE
8
BLACK
6
CONTINUOUS
10
97.8185
20
-88.4286
11
97.6434
21
-88.517
0
LINE
8
BLACK
6
CONTINUOUS
10
97.6434
20
-88.517
11
97.4545
21
-88.5697
0
LINE
8
BLACK
6
CONTINUOUS
10
97.4545
20
-88.5697
11
97.259
21
-88.5848
0
LINE
8
BLACK
6
CONTINUOUS
10
97.259
20
-88.5848
11
97.0642
21
-88.5616
0
LINE
8
BLACK
6
CONTINUOUS
10
97.0642
20
-88.5616
11
96.8776
21
-88.5009
0
LINE
8
BLACK
6
CONTINUOUS
10
96.8776
20
-88.5009
11
96.7064
21
-88.4053
0
LINE
8
BLACK
6
CONTINUOUS
10
96.7064
20
-88.4053
11
96.5571
21
-88.2781
0
LINE
8
BLACK
6
CONTINUOUS
10
96.5571
20
-88.2781
11
96.4352
21
-88.1244
0
LINE
8
BLACK
6
CONTINUOUS
10
96.4352
20
-88.1244
11
96.3456
21
-87.95
0
LINE
8
BLACK
6
CONTINUOUS
10
96.3456
20
-87.95
11
96.2915
21
-87.7614
0
LINE
8
BLACK
6
CONTINUOUS
10
96.2915
20
-87.7614
11
96.2751
21
-87.566
0
LINE
8
BLACK
6
CONTINUOUS
10
96.2751
20
-87.566
11
96.297
21
-87.371
0
LINE
8
BLACK
6
CONTINUOUS
10
96.297
20
-87.371
11
96.3563
21
-87.1841
0
LINE
8
BLACK
6
CONTINUOUS
10
96.3563
20
-87.1841
11
96.4508
21
-87.0122
0
LINE
8
BLACK
6
CONTINUOUS
10
96.4508
20
-87.0122
11
96.5768
21
-86.862
0
LINE
8
BLACK
6
CONTINUOUS
10
96.5768
20
-86.862
11
96.7297
21
-86.7391
0
LINE
8
BLACK
6
CONTINUOUS
10
96.7297
20
-86.7391
11
96.9035
21
-86.6482
0
LINE
8
BLACK
6
CONTINUOUS
10
96.9035
20
-86.6482
11
97.0917
21
-86.5928
0
LINE
8
BLACK
6
CONTINUOUS
10
97.0917
20
-86.5928
11
97.287
21
-86.575
0
LINE
8
BLACK
6
CONTINUOUS
10
97.287
20
-86.575
11
97.4821
21
-86.5955
0
LINE
8
BLACK
6
CONTINUOUS
10
106.122
20
-86.5955
11
106.309
21
-86.6535
0
LINE
8
BLACK
6
CONTINUOUS
10
106.309
20
-86.6535
11
106.482
21
-86.7468
0
LINE
8
BLACK
6
CONTINUOUS
10
106.482
20
-86.7468
11
106.633
21
-86.8718
0
LINE
8
BLACK
6
CONTINUOUS
10
106.633
20
-86.8718
11
106.757
21
-87.0238
0
LINE
8
BLACK
6
CONTINUOUS
10
106.757
20
-87.0238
11
106.849
21
-87.197
0
LINE
8
BLACK
6
CONTINUOUS
10
106.849
20
-87.197
11
106.906
21
-87.3848
0
LINE
8
BLACK
6
CONTINUOUS
10
106.906
20
-87.3848
11
106.925
21
-87.58
0
LINE
8
BLACK
6
CONTINUOUS
10
106.925
20
-87.58
11
106.925
21
-87.6081
0
LINE
8
BLACK
6
CONTINUOUS
10
106.925
20
-87.6081
11
106.9
21
-87.8027
0
LINE
8
BLACK
6
CONTINUOUS
10
106.9
20
-87.8027
11
106.838
21
-87.9888
0
LINE
8
BLACK
6
CONTINUOUS
10
106.838
20
-87.9888
11
106.741
21
-88.1593
0
LINE
8
BLACK
6
CONTINUOUS
10
106.741
20
-88.1593
11
106.613
21
-88.3078
0
LINE
8
BLACK
6
CONTINUOUS
10
106.613
20
-88.3078
11
106.459
21
-88.4286
0
LINE
8
BLACK
6
CONTINUOUS
10
106.459
20
-88.4286
11
106.283
21
-88.517
0
LINE
8
BLACK
6
CONTINUOUS
10
106.283
20
-88.517
11
106.095
21
-88.5697
0
LINE
8
BLACK
6
CONTINUOUS
10
106.095
20
-88.5697
11
105.899
21
-88.5848
0
LINE
8
BLACK
6
CONTINUOUS
10
105.899
20
-88.5848
11
105.704
21
-88.5616
0
LINE
8
BLACK
6
CONTINUOUS
10
105.704
20
-88.5616
11
105.518
21
-88.5009
0
LINE
8
BLACK
6
CONTINUOUS
10
105.518
20
-88.5009
11
105.346
21
-88.4053
0
LINE
8
BLACK
6
CONTINUOUS
10
105.346
20
-88.4053
11
105.197
21
-88.2781
0
LINE
8
BLACK
6
CONTINUOUS
10
105.197
20
-88.2781
11
105.075
21
-88.1244
0
LINE
8
BLACK
6
CONTINUOUS
10
105.075
20
-88.1244
11
104.986
21
-87.95
0
LINE
8
BLACK
6
CONTINUOUS
10
104.986
20
-87.95
11
104.932
21
-87.7614
0
LINE
8
BLACK
6
CONTINUOUS
10
104.932
20
-87.7614
11
104.915
21
-87.566
0
LINE
8
BLACK
6
CONTINUOUS
10
104.915
20
-87.566
11
104.937
21
-87.371
0
LINE
8
BLACK
6
CONTINUOUS
10
104.937
20
-87.371
11
104.996
21
-87.1841
0
LINE
8
BLACK
6
CONTINUOUS
10
104.996
20
-87.1841
11
105.091
21
-87.0122
0
LINE
8
BLACK
6
CONTINUOUS
10
105.091
20
-87.0122
11
105.217
21
-86.862
0
LINE
8
BLACK
6
CONTINUOUS
10
105.217
20
-86.862
11
105.37
21
-86.7391
0
LINE
8
BLACK
6
CONTINUOUS
10
105.37
20
-86.7391
11
105.544
21
-86.6482
0
LINE
8
BLACK
6
CONTINUOUS
10
105.544
20
-86.6482
11
105.732
21
-86.5928
0
LINE
8
BLACK
6
CONTINUOUS
10
105.732
20
-86.5928
11
105.927
21
-86.575
0
LINE
8
BLACK
6
CONTINUOUS
10
105.927
20
-86.575
11
106.122
21
-86.5955
0
LINE
8
BLACK
6
CONTINUOUS
10
97.4821
20
-82.7955
11
97.6695
21
-82.8535
0
LINE
8
BLACK
6
CONTINUOUS
10
97.6695
20
-82.8535
11
97.842
21
-82.9468
0
LINE
8
BLACK
6
CONTINUOUS
10
97.842
20
-82.9468
11
97.9931
21
-83.0718
0
LINE
8
BLACK
6
CONTINUOUS
10
97.9931
20
-83.0718
11
98.1171
21
-83.2238
0
LINE
8
BLACK
6
CONTINUOUS
10
98.1171
20
-83.2238
11
98.2092
21
-83.397
0
LINE
8
BLACK
6
CONTINUOUS
10
98.2092
20
-83.397
11
98.2659
21
-83.5848
0
LINE
8
BLACK
6
CONTINUOUS
10
98.2659
20
-83.5848
11
98.285
21
-83.78
0
LINE
8
BLACK
6
CONTINUOUS
10
98.285
20
-83.78
11
98.2846
21
-83.8081
0
LINE
8
BLACK
6
CONTINUOUS
10
98.2846
20
-83.8081
11
98.26
21
-84.0027
0
LINE
8
BLACK
6
CONTINUOUS
10
98.26
20
-84.0027
11
98.1981
21
-84.1888
0
LINE
8
BLACK
6
CONTINUOUS
10
98.1981
20
-84.1888
11
98.1012
21
-84.3593
0
LINE
8
BLACK
6
CONTINUOUS
10
98.1012
20
-84.3593
11
97.9731
21
-84.5078
0
LINE
8
BLACK
6
CONTINUOUS
10
97.9731
20
-84.5078
11
97.8185
21
-84.6285
0
LINE
8
BLACK
6
CONTINUOUS
10
97.8185
20
-84.6285
11
97.6434
21
-84.717
0
LINE
8
BLACK
6
CONTINUOUS
10
97.6434
20
-84.717
11
97.4545
21
-84.7697
0
LINE
8
BLACK
6
CONTINUOUS
10
97.4545
20
-84.7697
11
97.259
21
-84.7848
0
LINE
8
BLACK
6
CONTINUOUS
10
97.259
20
-84.7848
11
97.0642
21
-84.7616
0
LINE
8
BLACK
6
CONTINUOUS
10
97.0642
20
-84.7616
11
96.8776
21
-84.7009
0
LINE
8
BLACK
6
CONTINUOUS
10
96.8776
20
-84.7009
11
96.7064
21
-84.6053
0
LINE
8
BLACK
6
CONTINUOUS
10
96.7064
20
-84.6053
11
96.5571
21
-84.4781
0
LINE
8
BLACK
6
CONTINUOUS
10
96.5571
20
-84.4781
11
96.4352
21
-84.3244
0
LINE
8
BLACK
6
CONTINUOUS
10
96.4352
20
-84.3244
11
96.3456
21
-84.15
0
LINE
8
BLACK
6
CONTINUOUS
10
96.3456
20
-84.15
11
96.2915
21
-83.9614
0
LINE
8
BLACK
6
CONTINUOUS
10
96.2915
20
-83.9614
11
96.2751
21
-83.766
0
LINE
8
BLACK
6
CONTINUOUS
10
96.2751
20
-83.766
11
96.297
21
-83.571
0
LINE
8
BLACK
6
CONTINUOUS
10
96.297
20
-83.571
11
96.3563
21
-83.3841
0
LINE
8
BLACK
6
CONTINUOUS
10
96.3563
20
-83.3841
11
96.4508
21
-83.2122
0
LINE
8
BLACK
6
CONTINUOUS
10
96.4508
20
-83.2122
11
96.5768
21
-83.062
0
LINE
8
BLACK
6
CONTINUOUS
10
96.5768
20
-83.062
11
96.7297
21
-82.9391
0
LINE
8
BLACK
6
CONTINUOUS
10
96.7297
20
-82.9391
11
96.9035
21
-82.8482
0
LINE
8
BLACK
6
CONTINUOUS
10
96.9035
20
-82.8482
11
97.0917
21
-82.7928
0
LINE
8
BLACK
6
CONTINUOUS
10
97.0917
20
-82.7928
11
97.287
21
-82.775
0
LINE
8
BLACK
6
CONTINUOUS
10
97.287
20
-82.775
11
97.4821
21
-82.7955
0
LINE
8
BLACK
6
CONTINUOUS
10
106.122
20
-82.7955
11
106.309
21
-82.8535
0
LINE
8
BLACK
6
CONTINUOUS
10
106.309
20
-82.8535
11
106.482
21
-82.9468
0
LINE
8
BLACK
6
CONTINUOUS
10
106.482
20
-82.9468
11
106.633
21
-83.0718
0
LINE
8
BLACK
6
CONTINUOUS
10
106.633
20
-83.0718
11
106.757
21
-83.2238
0
LINE
8
BLACK
6
CONTINUOUS
10
106.757
20
-83.2238
11
106.849
21
-83.397
0
LINE
8
BLACK
6
CONTINUOUS
10
106.849
20
-83.397
11
106.906
21
-83.5848
0
LINE
8
BLACK
6
CONTINUOUS
10
106.906
20
-83.5848
11
106.925
21
-83.78
0
LINE
8
BLACK
6
CONTINUOUS
10
106.925
20
-83.78
11
106.925
21
-83.8081
0
LINE
8
BLACK
6
CONTINUOUS
10
106.925
20
-83.8081
11
106.9
21
-84.0027
0
LINE
8
BLACK
6
CONTINUOUS
10
106.9
20
-84.0027
11
106.838
21
-84.1888
0
LINE
8
BLACK
6
CONTINUOUS
10
106.838
20
-84.1888
11
106.741
21
-84.3593
0
LINE
8
BLACK
6
CONTINUOUS
10
106.741
20
-84.3593
11
106.613
21
-84.5078
0
LINE
8
BLACK
6
CONTINUOUS
10
106.613
20
-84.5078
11
106.459
21
-84.6285
0
LINE
8
BLACK
6
CONTINUOUS
10
106.459
20
-84.6285
11
106.283
21
-84.717
0
LINE
8
BLACK
6
CONTINUOUS
10
106.283
20
-84.717
11
106.095
21
-84.7697
0
LINE
8
BLACK
6
CONTINUOUS
10
106.095
20
-84.7697
11
105.899
21
-84.7848
0
LINE
8
BLACK
6
CONTINUOUS
10
105.899
20
-84.7848
11
105.704
21
-84.7616
0
LINE
8
BLACK
6
CONTINUOUS
10
105.704
20
-84.7616
11
105.518
21
-84.7009
0
LINE
8
BLACK
6
CONTINUOUS
10
105.518
20
-84.7009
11
105.346
21
-84.6053
0
LINE
8
BLACK
6
CONTINUOUS
10
105.346
20
-84.6053
11
105.197
21
-84.4781
0
LINE
8
BLACK
6
CONTINUOUS
10
105.197
20
-84.4781
11
105.075
21
-84.3244
0
LINE
8
BLACK
6
CONTINUOUS
10
105.075
20
-84.3244
11
104.986
21
-84.15
0
LINE
8
BLACK
6
CONTINUOUS
10
104.986
20
-84.15
11
104.932
21
-83.9614
0
LINE
8
BLACK
6
CONTINUOUS
10
104.932
20
-83.9614
11
104.915
21
-83.766
0
LINE
8
BLACK
6
CONTINUOUS
10
104.915
20
-83.766
11
104.937
21
-83.571
0
LINE
8
BLACK
6
CONTINUOUS
10
104.937
20
-83.571
11
104.996
21
-83.3841
0
LINE
8
BLACK
6
CONTINUOUS
10
104.996
20
-83.3841
11
105.091
21
-83.2122
0
LINE
8
BLACK
6
CONTINUOUS
10
105.091
20
-83.2122
11
105.217
21
-83.062
0
LINE
8
BLACK
6
CONTINUOUS
10
105.217
20
-83.062
11
105.37
21
-82.9391
0
LINE
8
BLACK
6
CONTINUOUS
10
105.37
20
-82.9391
11
105.544
21
-82.8482
0
LINE
8
BLACK
6
CONTINUOUS
10
105.544
20
-82.8482
11
105.732
21
-82.7928
0
LINE
8
BLACK
6
CONTINUOUS
10
105.732
20
-82.7928
11
105.927
21
-82.775
0
LINE
8
BLACK
6
CONTINUOUS
10
105.927
20
-82.775
11
106.122
21
-82.7955
0
LINE
8
BLACK
6
CONTINUOUS
10
91.7827
20
-80.6661
11
91.9507
21
-80.726
0
LINE
8
BLACK
6
CONTINUOUS
10
91.9507
20
-80.726
11
92.1013
21
-80.8215
0
LINE
8
BLACK
6
CONTINUOUS
10
92.1013
20
-80.8215
11
92.227
21
-80.9481
0
LINE
8
BLACK
6
CONTINUOUS
10
92.227
20
-80.9481
11
92.3215
21
-81.0993
0
LINE
8
BLACK
6
CONTINUOUS
10
92.3215
20
-81.0993
11
92.3801
21
-81.2678
0
LINE
8
BLACK
6
CONTINUOUS
10
92.3801
20
-81.2678
11
92.4
21
-81.445
0
LINE
8
BLACK
6
CONTINUOUS
10
92.4
20
-81.445
11
92.3997
21
-81.4673
0
LINE
8
BLACK
6
CONTINUOUS
10
92.3997
20
-81.4673
11
92.3749
21
-81.644
0
LINE
8
BLACK
6
CONTINUOUS
10
92.3749
20
-81.644
11
92.3115
21
-81.8107
0
LINE
8
BLACK
6
CONTINUOUS
10
92.3115
20
-81.8107
11
92.2128
21
-81.9592
0
LINE
8
BLACK
6
CONTINUOUS
10
92.2128
20
-81.9592
11
92.0837
21
-82.0822
0
LINE
8
BLACK
6
CONTINUOUS
10
92.0837
20
-82.0822
11
91.9305
21
-82.1735
0
LINE
8
BLACK
6
CONTINUOUS
10
91.9305
20
-82.1735
11
91.7609
21
-82.2287
0
LINE
8
BLACK
6
CONTINUOUS
10
91.7609
20
-82.2287
11
91.5832
21
-82.2448
0
LINE
8
BLACK
6
CONTINUOUS
10
91.5832
20
-82.2448
11
91.4065
21
-82.2212
0
LINE
8
BLACK
6
CONTINUOUS
10
91.4065
20
-82.2212
11
91.2393
21
-82.1591
0
LINE
8
BLACK
6
CONTINUOUS
10
91.2393
20
-82.1591
11
91.0901
21
-82.0614
0
LINE
8
BLACK
6
CONTINUOUS
10
91.0901
20
-82.0614
11
90.9662
21
-81.9331
0
LINE
8
BLACK
6
CONTINUOUS
10
90.9662
20
-81.9331
11
90.8738
21
-81.7806
0
LINE
8
BLACK
6
CONTINUOUS
10
90.8738
20
-81.7806
11
90.8175
21
-81.6113
0
LINE
8
BLACK
6
CONTINUOUS
10
90.8175
20
-81.6113
11
90.8001
21
-81.4338
0
LINE
8
BLACK
6
CONTINUOUS
10
90.8001
20
-81.4338
11
90.8224
21
-81.2569
0
LINE
8
BLACK
6
CONTINUOUS
10
90.8224
20
-81.2569
11
90.8834
21
-81.0893
0
LINE
8
BLACK
6
CONTINUOUS
10
90.8834
20
-81.0893
11
90.98
21
-80.9394
0
LINE
8
BLACK
6
CONTINUOUS
10
90.98
20
-80.9394
11
91.1075
21
-80.8146
0
LINE
8
BLACK
6
CONTINUOUS
10
91.1075
20
-80.8146
11
91.2594
21
-80.7211
0
LINE
8
BLACK
6
CONTINUOUS
10
91.2594
20
-80.7211
11
91.4282
21
-80.6637
0
LINE
8
BLACK
6
CONTINUOUS
10
91.4282
20
-80.6637
11
91.6056
21
-80.645
0
LINE
8
BLACK
6
CONTINUOUS
10
91.6056
20
-80.645
11
91.7827
21
-80.6661
0
LINE
8
BLACK
6
CONTINUOUS
10
91.7827
20
-78.1261
11
91.9507
21
-78.186
0
LINE
8
BLACK
6
CONTINUOUS
10
91.9507
20
-78.186
11
92.1013
21
-78.2815
0
LINE
8
BLACK
6
CONTINUOUS
10
92.1013
20
-78.2815
11
92.227
21
-78.4081
0
LINE
8
BLACK
6
CONTINUOUS
10
92.227
20
-78.4081
11
92.3215
21
-78.5593
0
LINE
8
BLACK
6
CONTINUOUS
10
92.3215
20
-78.5593
11
92.3801
21
-78.7278
0
LINE
8
BLACK
6
CONTINUOUS
10
92.3801
20
-78.7278
11
92.4
21
-78.905
0
LINE
8
BLACK
6
CONTINUOUS
10
92.4
20
-78.905
11
92.3997
21
-78.9273
0
LINE
8
BLACK
6
CONTINUOUS
10
92.3997
20
-78.9273
11
92.3749
21
-79.104
0
LINE
8
BLACK
6
CONTINUOUS
10
92.3749
20
-79.104
11
92.3115
21
-79.2707
0
LINE
8
BLACK
6
CONTINUOUS
10
92.3115
20
-79.2707
11
92.2128
21
-79.4192
0
LINE
8
BLACK
6
CONTINUOUS
10
92.2128
20
-79.4192
11
92.0837
21
-79.5422
0
LINE
8
BLACK
6
CONTINUOUS
10
92.0837
20
-79.5422
11
91.9305
21
-79.6335
0
LINE
8
BLACK
6
CONTINUOUS
10
91.9305
20
-79.6335
11
91.7609
21
-79.6887
0
LINE
8
BLACK
6
CONTINUOUS
10
91.7609
20
-79.6887
11
91.5832
21
-79.7048
0
LINE
8
BLACK
6
CONTINUOUS
10
91.5832
20
-79.7048
11
91.4065
21
-79.6812
0
LINE
8
BLACK
6
CONTINUOUS
10
91.4065
20
-79.6812
11
91.2393
21
-79.6191
0
LINE
8
BLACK
6
CONTINUOUS
10
91.2393
20
-79.6191
11
91.0901
21
-79.5214
0
LINE
8
BLACK
6
CONTINUOUS
10
91.0901
20
-79.5214
11
90.9662
21
-79.3931
0
LINE
8
BLACK
6
CONTINUOUS
10
90.9662
20
-79.3931
11
90.8738
21
-79.2406
0
LINE
8
BLACK
6
CONTINUOUS
10
90.8738
20
-79.2406
11
90.8175
21
-79.0713
0
LINE
8
BLACK
6
CONTINUOUS
10
90.8175
20
-79.0713
11
90.8001
21
-78.8938
0
LINE
8
BLACK
6
CONTINUOUS
10
90.8001
20
-78.8938
11
90.8224
21
-78.7169
0
LINE
8
BLACK
6
CONTINUOUS
10
90.8224
20
-78.7169
11
90.8834
21
-78.5493
0
LINE
8
BLACK
6
CONTINUOUS
10
90.8834
20
-78.5493
11
90.98
21
-78.3994
0
LINE
8
BLACK
6
CONTINUOUS
10
90.98
20
-78.3994
11
91.1075
21
-78.2746
0
LINE
8
BLACK
6
CONTINUOUS
10
91.1075
20
-78.2746
11
91.2594
21
-78.1811
0
LINE
8
BLACK
6
CONTINUOUS
10
91.2594
20
-78.1811
11
91.4282
21
-78.1237
0
LINE
8
BLACK
6
CONTINUOUS
10
91.4282
20
-78.1237
11
91.6056
21
-78.105
0
LINE
8
BLACK
6
CONTINUOUS
10
91.6056
20
-78.105
11
91.7827
21
-78.1261
0
LINE
8
BLACK
6
CONTINUOUS
10
105.925
20
-72.47
11
104.175
21
-72.47
0
LINE
8
BLACK
6
CONTINUOUS
10
104.175
20
-72.47
11
104.175
21
-72.02
0
LINE
8
BLACK
6
CONTINUOUS
10
104.175
20
-72.02
11
105.925
21
-72.02
0
LINE
8
BLACK
6
CONTINUOUS
10
105.925
20
-72.02
11
105.925
21
-72.47
0
LINE
8
BLACK
6
CONTINUOUS
10
98.725
20
-72.47
11
96.975
21
-72.47
0
LINE
8
BLACK
6
CONTINUOUS
10
96.975
20
-72.47
11
96.975
21
-72.02
0
LINE
8
BLACK
6
CONTINUOUS
10
96.975
20
-72.02
11
98.725
21
-72.02
0
LINE
8
BLACK
6
CONTINUOUS
10
98.725
20
-72.02
11
98.725
21
-72.47
0
LINE
8
BLACK
6
CONTINUOUS
10
98.725
20
-71.82
11
96.975
21
-71.82
0
LINE
8
BLACK
6
CONTINUOUS
10
96.975
20
-71.82
11
96.975
21
-71.37
0
LINE
8
BLACK
6
CONTINUOUS
10
96.975
20
-71.37
11
98.725
21
-71.37
0
LINE
8
BLACK
6
CONTINUOUS
10
98.725
20
-71.37
11
98.725
21
-71.82
0
LINE
8
BLACK
6
CONTINUOUS
10
105.925
20
-71.82
11
104.175
21
-71.82
0
LINE
8
BLACK
6
CONTINUOUS
10
104.175
20
-71.82
11
104.175
21
-71.37
0
LINE
8
BLACK
6
CONTINUOUS
10
104.175
20
-71.37
11
105.925
21
-71.37
0
LINE
8
BLACK
6
CONTINUOUS
10
105.925
20
-71.37
11
105.925
21
-71.82
0
LINE
8
BLACK
6
CONTINUOUS
10
98.725
20
-71.17
11
96.975
21
-71.17
0
LINE
8
BLACK
6
CONTINUOUS
10
96.975
20
-71.17
11
96.975
21
-70.72
0
LINE
8
BLACK
6
CONTINUOUS
10
96.975
20
-70.72
11
98.725
21
-70.72
0
LINE
8
BLACK
6
CONTINUOUS
10
98.725
20
-70.72
11
98.725
21
-71.17
0
LINE
8
BLACK
6
CONTINUOUS
10
105.925
20
-71.17
11
104.175
21
-71.17
0
LINE
8
BLACK
6
CONTINUOUS
10
104.175
20
-71.17
11
104.175
21
-70.72
0
LINE
8
BLACK
6
CONTINUOUS
10
104.175
20
-70.72
11
105.925
21
-70.72
0
LINE
8
BLACK
6
CONTINUOUS
10
105.925
20
-70.72
11
105.925
21
-71.17
0
LINE
8
BLACK
6
CONTINUOUS
10
98.725
20
-70.52
11
96.975
21
-70.52
0
LINE
8
BLACK
6
CONTINUOUS
10
96.975
20
-70.52
11
96.975
21
-70.07
0
LINE
8
BLACK
6
CONTINUOUS
10
96.975
20
-70.07
11
98.725
21
-70.07
0
LINE
8
BLACK
6
CONTINUOUS
10
98.725
20
-70.07
11
98.725
21
-70.52
0
LINE
8
BLACK
6
CONTINUOUS
10
105.925
20
-70.52
11
104.175
21
-70.52
0
LINE
8
BLACK
6
CONTINUOUS
10
104.175
20
-70.52
11
104.175
21
-70.07
0
LINE
8
BLACK
6
CONTINUOUS
10
104.175
20
-70.07
11
105.925
21
-70.07
0
LINE
8
BLACK
6
CONTINUOUS
10
105.925
20
-70.07
11
105.925
21
-70.52
0
LINE
8
BLACK
6
CONTINUOUS
10
105.925
20
-69.87
11
104.175
21
-69.87
0
LINE
8
BLACK
6
CONTINUOUS
10
104.175
20
-69.87
11
104.175
21
-69.42
0
LINE
8
BLACK
6
CONTINUOUS
10
104.175
20
-69.42
11
105.925
21
-69.42
0
LINE
8
BLACK
6
CONTINUOUS
10
105.925
20
-69.42
11
105.925
21
-69.87
0
LINE
8
BLACK
6
CONTINUOUS
10
98.725
20
-69.87
11
96.975
21
-69.87
0
LINE
8
BLACK
6
CONTINUOUS
10
96.975
20
-69.87
11
96.975
21
-69.42
0
LINE
8
BLACK
6
CONTINUOUS
10
96.975
20
-69.42
11
98.725
21
-69.42
0
LINE
8
BLACK
6
CONTINUOUS
10
98.725
20
-69.42
11
98.725
21
-69.87
0
LINE
8
BLACK
6
CONTINUOUS
10
105.925
20
-69.22
11
104.175
21
-69.22
0
LINE
8
BLACK
6
CONTINUOUS
10
104.175
20
-69.22
11
104.175
21
-68.77
0
LINE
8
BLACK
6
CONTINUOUS
10
104.175
20
-68.77
11
105.925
21
-68.77
0
LINE
8
BLACK
6
CONTINUOUS
10
105.925
20
-68.77
11
105.925
21
-69.22
0
LINE
8
BLACK
6
CONTINUOUS
10
98.725
20
-69.22
11
96.975
21
-69.22
0
LINE
8
BLACK
6
CONTINUOUS
10
96.975
20
-69.22
11
96.975
21
-68.77
0
LINE
8
BLACK
6
CONTINUOUS
10
96.975
20
-68.77
11
98.725
21
-68.77
0
LINE
8
BLACK
6
CONTINUOUS
10
98.725
20
-68.77
11
98.725
21
-69.22
0
LINE
8
BLACK
6
CONTINUOUS
10
105.925
20
-68.57
11
104.175
21
-68.57
0
LINE
8
BLACK
6
CONTINUOUS
10
104.175
20
-68.57
11
104.175
21
-68.12
0
LINE
8
BLACK
6
CONTINUOUS
10
104.175
20
-68.12
11
105.925
21
-68.12
0
LINE
8
BLACK
6
CONTINUOUS
10
105.925
20
-68.12
11
105.925
21
-68.57
0
LINE
8
BLACK
6
CONTINUOUS
10
98.725
20
-68.57
11
96.975
21
-68.57
0
LINE
8
BLACK
6
CONTINUOUS
10
96.975
20
-68.57
11
96.975
21
-68.12
0
LINE
8
BLACK
6
CONTINUOUS
10
96.975
20
-68.12
11
98.725
21
-68.12
0
LINE
8
BLACK
6
CONTINUOUS
10
98.725
20
-68.12
11
98.725
21
-68.57
0
LINE
8
BLACK
6
CONTINUOUS
10
105.925
20
-67.92
11
104.175
21
-67.92
0
LINE
8
BLACK
6
CONTINUOUS
10
104.175
20
-67.92
11
104.175
21
-67.47
0
LINE
8
BLACK
6
CONTINUOUS
10
104.175
20
-67.47
11
105.925
21
-67.47
0
LINE
8
BLACK
6
CONTINUOUS
10
105.925
20
-67.47
11
105.925
21
-67.92
0
LINE
8
BLACK
6
CONTINUOUS
10
98.725
20
-67.92
11
96.975
21
-67.92
0
LINE
8
BLACK
6
CONTINUOUS
10
96.975
20
-67.92
11
96.975
21
-67.47
0
LINE
8
BLACK
6
CONTINUOUS
10
96.975
20
-67.47
11
98.725
21
-67.47
0
LINE
8
BLACK
6
CONTINUOUS
10
98.725
20
-67.47
11
98.725
21
-67.92
0
LINE
8
BLACK
6
CONTINUOUS
10
94.2434
20
-66.4731
11
94.3204
21
-66.5246
0
LINE
8
BLACK
6
CONTINUOUS
10
94.3204
20
-66.5246
11
94.3719
21
-66.6016
0
LINE
8
BLACK
6
CONTINUOUS
10
94.3719
20
-66.6016
11
94.39
21
-66.6925
0
LINE
8
BLACK
6
CONTINUOUS
10
94.39
20
-66.6925
11
94.39
21
-67.1675
0
LINE
8
BLACK
6
CONTINUOUS
10
94.39
20
-67.1675
11
94.3719
21
-67.2584
0
LINE
8
BLACK
6
CONTINUOUS
10
94.3719
20
-67.2584
11
94.3204
21
-67.3354
0
LINE
8
BLACK
6
CONTINUOUS
10
94.3204
20
-67.3354
11
94.2434
21
-67.3869
0
LINE
8
BLACK
6
CONTINUOUS
10
94.2434
20
-67.3869
11
94.1525
21
-67.405
0
LINE
8
BLACK
6
CONTINUOUS
10
94.1525
20
-67.405
11
93.6525
21
-67.405
0
LINE
8
BLACK
6
CONTINUOUS
10
93.6525
20
-67.405
11
93.5616
21
-67.3869
0
LINE
8
BLACK
6
CONTINUOUS
10
93.5616
20
-67.3869
11
93.4846
21
-67.3354
0
LINE
8
BLACK
6
CONTINUOUS
10
93.4846
20
-67.3354
11
93.4331
21
-67.2584
0
LINE
8
BLACK
6
CONTINUOUS
10
93.4331
20
-67.2584
11
93.415
21
-67.1675
0
LINE
8
BLACK
6
CONTINUOUS
10
93.415
20
-67.1675
11
93.415
21
-66.6925
0
LINE
8
BLACK
6
CONTINUOUS
10
93.415
20
-66.6925
11
93.4331
21
-66.6016
0
LINE
8
BLACK
6
CONTINUOUS
10
93.4331
20
-66.6016
11
93.4846
21
-66.5246
0
LINE
8
BLACK
6
CONTINUOUS
10
93.4846
20
-66.5246
11
93.5616
21
-66.4731
0
LINE
8
BLACK
6
CONTINUOUS
10
93.5616
20
-66.4731
11
93.6525
21
-66.455
0
LINE
8
BLACK
6
CONTINUOUS
10
93.6525
20
-66.455
11
94.1525
21
-66.455
0
LINE
8
BLACK
6
CONTINUOUS
10
94.1525
20
-66.455
11
94.2434
21
-66.4731
0
LINE
8
BLACK
6
CONTINUOUS
10
92.4184
20
-66.4731
11
92.4954
21
-66.5246
0
LINE
8
BLACK
6
CONTINUOUS
10
92.4954
20
-66.5246
11
92.5469
21
-66.6016
0
LINE
8
BLACK
6
CONTINUOUS
10
92.5469
20
-66.6016
11
92.565
21
-66.6925
0
LINE
8
BLACK
6
CONTINUOUS
10
92.565
20
-66.6925
11
92.565
21
-67.1675
0
LINE
8
BLACK
6
CONTINUOUS
10
92.565
20
-67.1675
11
92.5469
21
-67.2584
0
LINE
8
BLACK
6
CONTINUOUS
10
92.5469
20
-67.2584
11
92.4954
21
-67.3354
0
LINE
8
BLACK
6
CONTINUOUS
10
92.4954
20
-67.3354
11
92.4184
21
-67.3869
0
LINE
8
BLACK
6
CONTINUOUS
10
92.4184
20
-67.3869
11
92.3275
21
-67.405
0
LINE
8
BLACK
6
CONTINUOUS
10
92.3275
20
-67.405
11
91.8275
21
-67.405
0
LINE
8
BLACK
6
CONTINUOUS
10
91.8275
20
-67.405
11
91.7366
21
-67.3869
0
LINE
8
BLACK
6
CONTINUOUS
10
91.7366
20
-67.3869
11
91.6596
21
-67.3354
0
LINE
8
BLACK
6
CONTINUOUS
10
91.6596
20
-67.3354
11
91.6081
21
-67.2584
0
LINE
8
BLACK
6
CONTINUOUS
10
91.6081
20
-67.2584
11
91.59
21
-67.1675
0
LINE
8
BLACK
6
CONTINUOUS
10
91.59
20
-67.1675
11
91.59
21
-66.6925
0
LINE
8
BLACK
6
CONTINUOUS
10
91.59
20
-66.6925
11
91.6081
21
-66.6016
0
LINE
8
BLACK
6
CONTINUOUS
10
91.6081
20
-66.6016
11
91.6596
21
-66.5246
0
LINE
8
BLACK
6
CONTINUOUS
10
91.6596
20
-66.5246
11
91.7366
21
-66.4731
0
LINE
8
BLACK
6
CONTINUOUS
10
91.7366
20
-66.4731
11
91.8275
21
-66.455
0
LINE
8
BLACK
6
CONTINUOUS
10
91.8275
20
-66.455
11
92.3275
21
-66.455
0
LINE
8
BLACK
6
CONTINUOUS
10
92.3275
20
-66.455
11
92.4184
21
-66.4731
0
LINE
8
BLACK
6
CONTINUOUS
10
105.925
20
-67.27
11
104.175
21
-67.27
0
LINE
8
BLACK
6
CONTINUOUS
10
104.175
20
-67.27
11
104.175
21
-66.82
0
LINE
8
BLACK
6
CONTINUOUS
10
104.175
20
-66.82
11
105.925
21
-66.82
0
LINE
8
BLACK
6
CONTINUOUS
10
105.925
20
-66.82
11
105.925
21
-67.27
0
LINE
8
BLACK
6
CONTINUOUS
10
98.725
20
-67.27
11
96.975
21
-67.27
0
LINE
8
BLACK
6
CONTINUOUS
10
96.975
20
-67.27
11
96.975
21
-66.82
0
LINE
8
BLACK
6
CONTINUOUS
10
96.975
20
-66.82
11
98.725
21
-66.82
0
LINE
8
BLACK
6
CONTINUOUS
10
98.725
20
-66.82
11
98.725
21
-67.27
0
LINE
8
BLACK
6
CONTINUOUS
10
105.925
20
-66.62
11
104.175
21
-66.62
0
LINE
8
BLACK
6
CONTINUOUS
10
104.175
20
-66.62
11
104.175
21
-66.17
0
LINE
8
BLACK
6
CONTINUOUS
10
104.175
20
-66.17
11
105.925
21
-66.17
0
LINE
8
BLACK
6
CONTINUOUS
10
105.925
20
-66.17
11
105.925
21
-66.62
0
LINE
8
BLACK
6
CONTINUOUS
10
98.725
20
-66.62
11
96.975
21
-66.62
0
LINE
8
BLACK
6
CONTINUOUS
10
96.975
20
-66.62
11
96.975
21
-66.17
0
LINE
8
BLACK
6
CONTINUOUS
10
96.975
20
-66.17
11
98.725
21
-66.17
0
LINE
8
BLACK
6
CONTINUOUS
10
98.725
20
-66.17
11
98.725
21
-66.62
0
LINE
8
BLACK
6
CONTINUOUS
10
98.725
20
-65.97
11
96.975
21
-65.97
0
LINE
8
BLACK
6
CONTINUOUS
10
96.975
20
-65.97
11
96.975
21
-65.52
0
LINE
8
BLACK
6
CONTINUOUS
10
96.975
20
-65.52
11
98.725
21
-65.52
0
LINE
8
BLACK
6
CONTINUOUS
10
98.725
20
-65.52
11
98.725
21
-65.97
0
LINE
8
BLACK
6
CONTINUOUS
10
105.925
20
-65.97
11
104.175
21
-65.97
0
LINE
8
BLACK
6
CONTINUOUS
10
104.175
20
-65.97
11
104.175
21
-65.52
0
LINE
8
BLACK
6
CONTINUOUS
10
104.175
20
-65.52
11
105.925
21
-65.52
0
LINE
8
BLACK
6
CONTINUOUS
10
105.925
20
-65.52
11
105.925
21
-65.97
0
LINE
8
BLACK
6
CONTINUOUS
10
105.925
20
-65.32
11
104.175
21
-65.32
0
LINE
8
BLACK
6
CONTINUOUS
10
104.175
20
-65.32
11
104.175
21
-64.87
0
LINE
8
BLACK
6
CONTINUOUS
10
104.175
20
-64.87
11
105.925
21
-64.87
0
LINE
8
BLACK
6
CONTINUOUS
10
105.925
20
-64.87
11
105.925
21
-65.32
0
LINE
8
BLACK
6
CONTINUOUS
10
98.725
20
-65.32
11
96.975
21
-65.32
0
LINE
8
BLACK
6
CONTINUOUS
10
96.975
20
-65.32
11
96.975
21
-64.87
0
LINE
8
BLACK
6
CONTINUOUS
10
96.975
20
-64.87
11
98.725
21
-64.87
0
LINE
8
BLACK
6
CONTINUOUS
10
98.725
20
-64.87
11
98.725
21
-65.32
0
LINE
8
BLACK
6
CONTINUOUS
10
98.725
20
-64.67
11
96.975
21
-64.67
0
LINE
8
BLACK
6
CONTINUOUS
10
96.975
20
-64.67
11
96.975
21
-64.22
0
LINE
8
BLACK
6
CONTINUOUS
10
96.975
20
-64.22
11
98.725
21
-64.22
0
LINE
8
BLACK
6
CONTINUOUS
10
98.725
20
-64.22
11
98.725
21
-64.67
0
LINE
8
BLACK
6
CONTINUOUS
10
105.925
20
-64.67
11
104.175
21
-64.67
0
LINE
8
BLACK
6
CONTINUOUS
10
104.175
20
-64.67
11
104.175
21
-64.22
0
LINE
8
BLACK
6
CONTINUOUS
10
104.175
20
-64.22
11
105.925
21
-64.22
0
LINE
8
BLACK
6
CONTINUOUS
10
105.925
20
-64.22
11
105.925
21
-64.67
0
LINE
8
BLACK
6
CONTINUOUS
10
94.2459
20
-63.4931
11
94.3229
21
-63.5446
0
LINE
8
BLACK
6
CONTINUOUS
10
94.3229
20
-63.5446
11
94.3744
21
-63.6216
0
LINE
8
BLACK
6
CONTINUOUS
10
94.3744
20
-63.6216
11
94.3925
21
-63.7125
0
LINE
8
BLACK
6
CONTINUOUS
10
94.3925
20
-63.7125
11
94.3925
21
-64.1875
0
LINE
8
BLACK
6
CONTINUOUS
10
94.3925
20
-64.1875
11
94.3744
21
-64.2784
0
LINE
8
BLACK
6
CONTINUOUS
10
94.3744
20
-64.2784
11
94.3229
21
-64.3554
0
LINE
8
BLACK
6
CONTINUOUS
10
94.3229
20
-64.3554
11
94.2459
21
-64.4069
0
LINE
8
BLACK
6
CONTINUOUS
10
94.2459
20
-64.4069
11
94.155
21
-64.425
0
LINE
8
BLACK
6
CONTINUOUS
10
94.155
20
-64.425
11
93.655
21
-64.425
0
LINE
8
BLACK
6
CONTINUOUS
10
93.655
20
-64.425
11
93.5641
21
-64.4069
0
LINE
8
BLACK
6
CONTINUOUS
10
93.5641
20
-64.4069
11
93.4871
21
-64.3554
0
LINE
8
BLACK
6
CONTINUOUS
10
93.4871
20
-64.3554
11
93.4356
21
-64.2784
0
LINE
8
BLACK
6
CONTINUOUS
10
93.4356
20
-64.2784
11
93.4175
21
-64.1875
0
LINE
8
BLACK
6
CONTINUOUS
10
93.4175
20
-64.1875
11
93.4175
21
-63.7125
0
LINE
8
BLACK
6
CONTINUOUS
10
93.4175
20
-63.7125
11
93.4356
21
-63.6216
0
LINE
8
BLACK
6
CONTINUOUS
10
93.4356
20
-63.6216
11
93.4871
21
-63.5446
0
LINE
8
BLACK
6
CONTINUOUS
10
93.4871
20
-63.5446
11
93.5641
21
-63.4931
0
LINE
8
BLACK
6
CONTINUOUS
10
93.5641
20
-63.4931
11
93.655
21
-63.475
0
LINE
8
BLACK
6
CONTINUOUS
10
93.655
20
-63.475
11
94.155
21
-63.475
0
LINE
8
BLACK
6
CONTINUOUS
10
94.155
20
-63.475
11
94.2459
21
-63.4931
0
LINE
8
BLACK
6
CONTINUOUS
10
92.4209
20
-63.4931
11
92.4979
21
-63.5446
0
LINE
8
BLACK
6
CONTINUOUS
10
92.4979
20
-63.5446
11
92.5494
21
-63.6216
0
LINE
8
BLACK
6
CONTINUOUS
10
92.5494
20
-63.6216
11
92.5675
21
-63.7125
0
LINE
8
BLACK
6
CONTINUOUS
10
92.5675
20
-63.7125
11
92.5675
21
-64.1875
0
LINE
8
BLACK
6
CONTINUOUS
10
92.5675
20
-64.1875
11
92.5494
21
-64.2784
0
LINE
8
BLACK
6
CONTINUOUS
10
92.5494
20
-64.2784
11
92.4979
21
-64.3554
0
LINE
8
BLACK
6
CONTINUOUS
10
92.4979
20
-64.3554
11
92.4209
21
-64.4069
0
LINE
8
BLACK
6
CONTINUOUS
10
92.4209
20
-64.4069
11
92.33
21
-64.425
0
LINE
8
BLACK
6
CONTINUOUS
10
92.33
20
-64.425
11
91.83
21
-64.425
0
LINE
8
BLACK
6
CONTINUOUS
10
91.83
20
-64.425
11
91.7391
21
-64.4069
0
LINE
8
BLACK
6
CONTINUOUS
10
91.7391
20
-64.4069
11
91.6621
21
-64.3554
0
LINE
8
BLACK
6
CONTINUOUS
10
91.6621
20
-64.3554
11
91.6106
21
-64.2784
0
LINE
8
BLACK
6
CONTINUOUS
10
91.6106
20
-64.2784
11
91.5925
21
-64.1875
0
LINE
8
BLACK
6
CONTINUOUS
10
91.5925
20
-64.1875
11
91.5925
21
-63.7125
0
LINE
8
BLACK
6
CONTINUOUS
10
91.5925
20
-63.7125
11
91.6106
21
-63.6216
0
LINE
8
BLACK
6
CONTINUOUS
10
91.6106
20
-63.6216
11
91.6621
21
-63.5446
0
LINE
8
BLACK
6
CONTINUOUS
10
91.6621
20
-63.5446
11
91.7391
21
-63.4931
0
LINE
8
BLACK
6
CONTINUOUS
10
91.7391
20
-63.4931
11
91.83
21
-63.475
0
LINE
8
BLACK
6
CONTINUOUS
10
91.83
20
-63.475
11
92.33
21
-63.475
0
LINE
8
BLACK
6
CONTINUOUS
10
92.33
20
-63.475
11
92.4209
21
-63.4931
0
LINE
8
BLACK
6
CONTINUOUS
10
98.725
20
-64.02
11
96.975
21
-64.02
0
LINE
8
BLACK
6
CONTINUOUS
10
96.975
20
-64.02
11
96.975
21
-63.57
0
LINE
8
BLACK
6
CONTINUOUS
10
96.975
20
-63.57
11
98.725
21
-63.57
0
LINE
8
BLACK
6
CONTINUOUS
10
98.725
20
-63.57
11
98.725
21
-64.02
0
LINE
8
BLACK
6
CONTINUOUS
10
105.925
20
-64.02
11
104.175
21
-64.02
0
LINE
8
BLACK
6
CONTINUOUS
10
104.175
20
-64.02
11
104.175
21
-63.57
0
LINE
8
BLACK
6
CONTINUOUS
10
104.175
20
-63.57
11
105.925
21
-63.57
0
LINE
8
BLACK
6
CONTINUOUS
10
105.925
20
-63.57
11
105.925
21
-64.02
0
LINE
8
BLACK
6
CONTINUOUS
10
113.8
20
-61.96
11
112.1
21
-61.96
0
LINE
8
BLACK
6
CONTINUOUS
10
112.1
20
-61.96
11
112.1
21
-60.26
0
LINE
8
BLACK
6
CONTINUOUS
10
112.1
20
-60.26
11
113.8
21
-60.26
0
LINE
8
BLACK
6
CONTINUOUS
10
113.8
20
-60.26
11
113.8
21
-61.96
0
LINE
8
BLACK
6
CONTINUOUS
10
110.653
20
-60.2916
11
110.815
21
-60.3639
0
LINE
8
BLACK
6
CONTINUOUS
10
110.815
20
-60.3639
11
110.959
21
-60.4683
0
LINE
8
BLACK
6
CONTINUOUS
10
110.959
20
-60.4683
11
111.078
21
-60.6004
0
LINE
8
BLACK
6
CONTINUOUS
10
111.078
20
-60.6004
11
111.167
21
-60.7543
0
LINE
8
BLACK
6
CONTINUOUS
10
111.167
20
-60.7543
11
111.221
21
-60.9233
0
LINE
8
BLACK
6
CONTINUOUS
10
111.221
20
-60.9233
11
111.24
21
-61.1
0
LINE
8
BLACK
6
CONTINUOUS
10
111.24
20
-61.1
11
111.221
21
-61.2767
0
LINE
8
BLACK
6
CONTINUOUS
10
111.221
20
-61.2767
11
111.167
21
-61.4457
0
LINE
8
BLACK
6
CONTINUOUS
10
111.167
20
-61.4457
11
111.078
21
-61.5996
0
LINE
8
BLACK
6
CONTINUOUS
10
111.078
20
-61.5996
11
110.959
21
-61.7317
0
LINE
8
BLACK
6
CONTINUOUS
10
110.959
20
-61.7317
11
110.815
21
-61.8361
0
LINE
8
BLACK
6
CONTINUOUS
10
110.815
20
-61.8361
11
110.653
21
-61.9084
0
LINE
8
BLACK
6
CONTINUOUS
10
110.653
20
-61.9084
11
110.479
21
-61.9453
0
LINE
8
BLACK
6
CONTINUOUS
10
110.479
20
-61.9453
11
110.301
21
-61.9453
0
LINE
8
BLACK
6
CONTINUOUS
10
110.301
20
-61.9453
11
110.127
21
-61.9084
0
LINE
8
BLACK
6
CONTINUOUS
10
110.127
20
-61.9084
11
109.965
21
-61.8361
0
LINE
8
BLACK
6
CONTINUOUS
10
109.965
20
-61.8361
11
109.821
21
-61.7317
0
LINE
8
BLACK
6
CONTINUOUS
10
109.821
20
-61.7317
11
109.702
21
-61.5996
0
LINE
8
BLACK
6
CONTINUOUS
10
109.702
20
-61.5996
11
109.613
21
-61.4457
0
LINE
8
BLACK
6
CONTINUOUS
10
109.613
20
-61.4457
11
109.559
21
-61.2767
0
LINE
8
BLACK
6
CONTINUOUS
10
109.559
20
-61.2767
11
109.54
21
-61.1
0
LINE
8
BLACK
6
CONTINUOUS
10
109.54
20
-61.1
11
109.559
21
-60.9233
0
LINE
8
BLACK
6
CONTINUOUS
10
109.559
20
-60.9233
11
109.613
21
-60.7543
0
LINE
8
BLACK
6
CONTINUOUS
10
109.613
20
-60.7543
11
109.702
21
-60.6004
0
LINE
8
BLACK
6
CONTINUOUS
10
109.702
20
-60.6004
11
109.821
21
-60.4683
0
LINE
8
BLACK
6
CONTINUOUS
10
109.821
20
-60.4683
11
109.965
21
-60.3639
0
LINE
8
BLACK
6
CONTINUOUS
10
109.965
20
-60.3639
11
110.127
21
-60.2916
0
LINE
8
BLACK
6
CONTINUOUS
10
110.127
20
-60.2916
11
110.301
21
-60.2547
0
LINE
8
BLACK
6
CONTINUOUS
10
110.301
20
-60.2547
11
110.479
21
-60.2547
0
LINE
8
BLACK
6
CONTINUOUS
10
110.479
20
-60.2547
11
110.653
21
-60.2916
0
LINE
8
BLACK
6
CONTINUOUS
10
108.113
20
-60.2716
11
108.275
21
-60.3439
0
LINE
8
BLACK
6
CONTINUOUS
10
108.275
20
-60.3439
11
108.419
21
-60.4483
0
LINE
8
BLACK
6
CONTINUOUS
10
108.419
20
-60.4483
11
108.538
21
-60.5804
0
LINE
8
BLACK
6
CONTINUOUS
10
108.538
20
-60.5804
11
108.627
21
-60.7343
0
LINE
8
BLACK
6
CONTINUOUS
10
108.627
20
-60.7343
11
108.681
21
-60.9033
0
LINE
8
BLACK
6
CONTINUOUS
10
108.681
20
-60.9033
11
108.7
21
-61.08
0
LINE
8
BLACK
6
CONTINUOUS
10
108.7
20
-61.08
11
108.681
21
-61.2567
0
LINE
8
BLACK
6
CONTINUOUS
10
108.681
20
-61.2567
11
108.627
21
-61.4257
0
LINE
8
BLACK
6
CONTINUOUS
10
108.627
20
-61.4257
11
108.538
21
-61.5796
0
LINE
8
BLACK
6
CONTINUOUS
10
108.538
20
-61.5796
11
108.419
21
-61.7117
0
LINE
8
BLACK
6
CONTINUOUS
10
108.419
20
-61.7117
11
108.275
21
-61.8161
0
LINE
8
BLACK
6
CONTINUOUS
10
108.275
20
-61.8161
11
108.113
21
-61.8884
0
LINE
8
BLACK
6
CONTINUOUS
10
108.113
20
-61.8884
11
107.939
21
-61.9253
0
LINE
8
BLACK
6
CONTINUOUS
10
107.939
20
-61.9253
11
107.761
21
-61.9253
0
LINE
8
BLACK
6
CONTINUOUS
10
107.761
20
-61.9253
11
107.587
21
-61.8884
0
LINE
8
BLACK
6
CONTINUOUS
10
107.587
20
-61.8884
11
107.425
21
-61.8161
0
LINE
8
BLACK
6
CONTINUOUS
10
107.425
20
-61.8161
11
107.281
21
-61.7117
0
LINE
8
BLACK
6
CONTINUOUS
10
107.281
20
-61.7117
11
107.162
21
-61.5796
0
LINE
8
BLACK
6
CONTINUOUS
10
107.162
20
-61.5796
11
107.073
21
-61.4257
0
LINE
8
BLACK
6
CONTINUOUS
10
107.073
20
-61.4257
11
107.019
21
-61.2567
0
LINE
8
BLACK
6
CONTINUOUS
10
107.019
20
-61.2567
11
107
21
-61.08
0
LINE
8
BLACK
6
CONTINUOUS
10
107
20
-61.08
11
107.019
21
-60.9033
0
LINE
8
BLACK
6
CONTINUOUS
10
107.019
20
-60.9033
11
107.073
21
-60.7343
0
LINE
8
BLACK
6
CONTINUOUS
10
107.073
20
-60.7343
11
107.162
21
-60.5804
0
LINE
8
BLACK
6
CONTINUOUS
10
107.162
20
-60.5804
11
107.281
21
-60.4483
0
LINE
8
BLACK
6
CONTINUOUS
10
107.281
20
-60.4483
11
107.425
21
-60.3439
0
LINE
8
BLACK
6
CONTINUOUS
10
107.425
20
-60.3439
11
107.587
21
-60.2716
0
LINE
8
BLACK
6
CONTINUOUS
10
107.587
20
-60.2716
11
107.761
21
-60.2347
0
LINE
8
BLACK
6
CONTINUOUS
10
107.761
20
-60.2347
11
107.939
21
-60.2347
0
LINE
8
BLACK
6
CONTINUOUS
10
107.939
20
-60.2347
11
108.113
21
-60.2716
0
LINE
8
BLACK
6
CONTINUOUS
10
96.1434
20
-60.1231
11
96.2204
21
-60.1746
0
LINE
8
BLACK
6
CONTINUOUS
10
96.2204
20
-60.1746
11
96.2719
21
-60.2516
0
LINE
8
BLACK
6
CONTINUOUS
10
96.2719
20
-60.2516
11
96.29
21
-60.3425
0
LINE
8
BLACK
6
CONTINUOUS
10
96.29
20
-60.3425
11
96.29
21
-60.8175
0
LINE
8
BLACK
6
CONTINUOUS
10
96.29
20
-60.8175
11
96.2719
21
-60.9084
0
LINE
8
BLACK
6
CONTINUOUS
10
96.2719
20
-60.9084
11
96.2204
21
-60.9854
0
LINE
8
BLACK
6
CONTINUOUS
10
96.2204
20
-60.9854
11
96.1434
21
-61.0369
0
LINE
8
BLACK
6
CONTINUOUS
10
96.1434
20
-61.0369
11
96.0525
21
-61.055
0
LINE
8
BLACK
6
CONTINUOUS
10
96.0525
20
-61.055
11
95.5525
21
-61.055
0
LINE
8
BLACK
6
CONTINUOUS
10
95.5525
20
-61.055
11
95.4616
21
-61.0369
0
LINE
8
BLACK
6
CONTINUOUS
10
95.4616
20
-61.0369
11
95.3846
21
-60.9854
0
LINE
8
BLACK
6
CONTINUOUS
10
95.3846
20
-60.9854
11
95.3331
21
-60.9084
0
LINE
8
BLACK
6
CONTINUOUS
10
95.3331
20
-60.9084
11
95.315
21
-60.8175
0
LINE
8
BLACK
6
CONTINUOUS
10
95.315
20
-60.8175
11
95.315
21
-60.3425
0
LINE
8
BLACK
6
CONTINUOUS
10
95.315
20
-60.3425
11
95.3331
21
-60.2516
0
LINE
8
BLACK
6
CONTINUOUS
10
95.3331
20
-60.2516
11
95.3846
21
-60.1746
0
LINE
8
BLACK
6
CONTINUOUS
10
95.3846
20
-60.1746
11
95.4616
21
-60.1231
0
LINE
8
BLACK
6
CONTINUOUS
10
95.4616
20
-60.1231
11
95.5525
21
-60.105
0
LINE
8
BLACK
6
CONTINUOUS
10
95.5525
20
-60.105
11
96.0525
21
-60.105
0
LINE
8
BLACK
6
CONTINUOUS
10
96.0525
20
-60.105
11
96.1434
21
-60.1231
0
LINE
8
BLACK
6
CONTINUOUS
10
94.3184
20
-60.1231
11
94.3954
21
-60.1746
0
LINE
8
BLACK
6
CONTINUOUS
10
94.3954
20
-60.1746
11
94.4469
21
-60.2516
0
LINE
8
BLACK
6
CONTINUOUS
10
94.4469
20
-60.2516
11
94.465
21
-60.3425
0
LINE
8
BLACK
6
CONTINUOUS
10
94.465
20
-60.3425
11
94.465
21
-60.8175
0
LINE
8
BLACK
6
CONTINUOUS
10
94.465
20
-60.8175
11
94.4469
21
-60.9084
0
LINE
8
BLACK
6
CONTINUOUS
10
94.4469
20
-60.9084
11
94.3954
21
-60.9854
0
LINE
8
BLACK
6
CONTINUOUS
10
94.3954
20
-60.9854
11
94.3184
21
-61.0369
0
LINE
8
BLACK
6
CONTINUOUS
10
94.3184
20
-61.0369
11
94.2275
21
-61.055
0
LINE
8
BLACK
6
CONTINUOUS
10
94.2275
20
-61.055
11
93.7275
21
-61.055
0
LINE
8
BLACK
6
CONTINUOUS
10
93.7275
20
-61.055
11
93.6366
21
-61.0369
0
LINE
8
BLACK
6
CONTINUOUS
10
93.6366
20
-61.0369
11
93.5596
21
-60.9854
0
LINE
8
BLACK
6
CONTINUOUS
10
93.5596
20
-60.9854
11
93.5081
21
-60.9084
0
LINE
8
BLACK
6
CONTINUOUS
10
93.5081
20
-60.9084
11
93.49
21
-60.8175
0
LINE
8
BLACK
6
CONTINUOUS
10
93.49
20
-60.8175
11
93.49
21
-60.3425
0
LINE
8
BLACK
6
CONTINUOUS
10
93.49
20
-60.3425
11
93.5081
21
-60.2516
0
LINE
8
BLACK
6
CONTINUOUS
10
93.5081
20
-60.2516
11
93.5596
21
-60.1746
0
LINE
8
BLACK
6
CONTINUOUS
10
93.5596
20
-60.1746
11
93.6366
21
-60.1231
0
LINE
8
BLACK
6
CONTINUOUS
10
93.6366
20
-60.1231
11
93.7275
21
-60.105
0
LINE
8
BLACK
6
CONTINUOUS
10
93.7275
20
-60.105
11
94.2275
21
-60.105
0
LINE
8
BLACK
6
CONTINUOUS
10
94.2275
20
-60.105
11
94.3184
21
-60.1231
0
LINE
8
BLACK
6
CONTINUOUS
10
92.2327
20
-56.0266
11
92.395
21
-56.0989
0
LINE
8
BLACK
6
CONTINUOUS
10
92.395
20
-56.0989
11
92.5388
21
-56.2033
0
LINE
8
BLACK
6
CONTINUOUS
10
92.5388
20
-56.2033
11
92.6577
21
-56.3354
0
LINE
8
BLACK
6
CONTINUOUS
10
92.6577
20
-56.3354
11
92.7465
21
-56.4893
0
LINE
8
BLACK
6
CONTINUOUS
10
92.7465
20
-56.4893
11
92.8014
21
-56.6583
0
LINE
8
BLACK
6
CONTINUOUS
10
92.8014
20
-56.6583
11
92.82
21
-56.835
0
LINE
8
BLACK
6
CONTINUOUS
10
92.82
20
-56.835
11
92.8014
21
-57.0117
0
LINE
8
BLACK
6
CONTINUOUS
10
92.8014
20
-57.0117
11
92.7465
21
-57.1807
0
LINE
8
BLACK
6
CONTINUOUS
10
92.7465
20
-57.1807
11
92.6577
21
-57.3346
0
LINE
8
BLACK
6
CONTINUOUS
10
92.6577
20
-57.3346
11
92.5388
21
-57.4667
0
LINE
8
BLACK
6
CONTINUOUS
10
92.5388
20
-57.4667
11
92.395
21
-57.5711
0
LINE
8
BLACK
6
CONTINUOUS
10
92.395
20
-57.5711
11
92.2327
21
-57.6434
0
LINE
8
BLACK
6
CONTINUOUS
10
92.2327
20
-57.6434
11
92.0588
21
-57.6803
0
LINE
8
BLACK
6
CONTINUOUS
10
92.0588
20
-57.6803
11
91.8812
21
-57.6803
0
LINE
8
BLACK
6
CONTINUOUS
10
91.8812
20
-57.6803
11
91.7073
21
-57.6434
0
LINE
8
BLACK
6
CONTINUOUS
10
91.7073
20
-57.6434
11
91.545
21
-57.5711
0
LINE
8
BLACK
6
CONTINUOUS
10
91.545
20
-57.5711
11
91.4012
21
-57.4667
0
LINE
8
BLACK
6
CONTINUOUS
10
91.4012
20
-57.4667
11
91.2823
21
-57.3346
0
LINE
8
BLACK
6
CONTINUOUS
10
91.2823
20
-57.3346
11
91.1935
21
-57.1807
0
LINE
8
BLACK
6
CONTINUOUS
10
91.1935
20
-57.1807
11
91.1386
21
-57.0117
0
LINE
8
BLACK
6
CONTINUOUS
10
91.1386
20
-57.0117
11
91.12
21
-56.835
0
LINE
8
BLACK
6
CONTINUOUS
10
91.12
20
-56.835
11
91.1386
21
-56.6583
0
LINE
8
BLACK
6
CONTINUOUS
10
91.1386
20
-56.6583
11
91.1935
21
-56.4893
0
LINE
8
BLACK
6
CONTINUOUS
10
91.1935
20
-56.4893
11
91.2823
21
-56.3354
0
LINE
8
BLACK
6
CONTINUOUS
10
91.2823
20
-56.3354
11
91.4012
21
-56.2033
0
LINE
8
BLACK
6
CONTINUOUS
10
91.4012
20
-56.2033
11
91.545
21
-56.0989
0
LINE
8
BLACK
6
CONTINUOUS
10
91.545
20
-56.0989
11
91.7073
21
-56.0266
0
LINE
8
BLACK
6
CONTINUOUS
10
91.7073
20
-56.0266
11
91.8812
21
-55.9897
0
LINE
8
BLACK
6
CONTINUOUS
10
91.8812
20
-55.9897
11
92.0588
21
-55.9897
0
LINE
8
BLACK
6
CONTINUOUS
10
92.0588
20
-55.9897
11
92.2327
21
-56.0266
0
LINE
8
BLACK
6
CONTINUOUS
10
104.957
20
-56.9864
11
105.006
21
-57.0189
0
LINE
8
BLACK
6
CONTINUOUS
10
105.006
20
-57.0189
11
105.039
21
-57.0676
0
LINE
8
BLACK
6
CONTINUOUS
10
105.039
20
-57.0676
11
105.05
21
-57.125
0
LINE
8
BLACK
6
CONTINUOUS
10
105.05
20
-57.125
11
105.05
21
-57.425
0
LINE
8
BLACK
6
CONTINUOUS
10
105.05
20
-57.425
11
105.039
21
-57.4824
0
LINE
8
BLACK
6
CONTINUOUS
10
105.039
20
-57.4824
11
105.006
21
-57.5311
0
LINE
8
BLACK
6
CONTINUOUS
10
105.006
20
-57.5311
11
104.957
21
-57.5636
0
LINE
8
BLACK
6
CONTINUOUS
10
104.957
20
-57.5636
11
104.9
21
-57.575
0
LINE
8
BLACK
6
CONTINUOUS
10
104.9
20
-57.575
11
103.575
21
-57.575
0
LINE
8
BLACK
6
CONTINUOUS
10
103.575
20
-57.575
11
103.518
21
-57.5636
0
LINE
8
BLACK
6
CONTINUOUS
10
103.518
20
-57.5636
11
103.469
21
-57.5311
0
LINE
8
BLACK
6
CONTINUOUS
10
103.469
20
-57.5311
11
103.436
21
-57.4824
0
LINE
8
BLACK
6
CONTINUOUS
10
103.436
20
-57.4824
11
103.425
21
-57.425
0
LINE
8
BLACK
6
CONTINUOUS
10
103.425
20
-57.425
11
103.425
21
-57.125
0
LINE
8
BLACK
6
CONTINUOUS
10
103.425
20
-57.125
11
103.436
21
-57.0676
0
LINE
8
BLACK
6
CONTINUOUS
10
103.436
20
-57.0676
11
103.469
21
-57.0189
0
LINE
8
BLACK
6
CONTINUOUS
10
103.469
20
-57.0189
11
103.518
21
-56.9864
0
LINE
8
BLACK
6
CONTINUOUS
10
103.518
20
-56.9864
11
103.575
21
-56.975
0
LINE
8
BLACK
6
CONTINUOUS
10
103.575
20
-56.975
11
104.9
21
-56.975
0
LINE
8
BLACK
6
CONTINUOUS
10
104.9
20
-56.975
11
104.957
21
-56.9864
0
LINE
8
BLACK
6
CONTINUOUS
10
99.6824
20
-56.9864
11
99.7311
21
-57.0189
0
LINE
8
BLACK
6
CONTINUOUS
10
99.7311
20
-57.0189
11
99.7636
21
-57.0676
0
LINE
8
BLACK
6
CONTINUOUS
10
99.7636
20
-57.0676
11
99.775
21
-57.125
0
LINE
8
BLACK
6
CONTINUOUS
10
99.775
20
-57.125
11
99.775
21
-57.425
0
LINE
8
BLACK
6
CONTINUOUS
10
99.775
20
-57.425
11
99.7636
21
-57.4824
0
LINE
8
BLACK
6
CONTINUOUS
10
99.7636
20
-57.4824
11
99.7311
21
-57.5311
0
LINE
8
BLACK
6
CONTINUOUS
10
99.7311
20
-57.5311
11
99.6824
21
-57.5636
0
LINE
8
BLACK
6
CONTINUOUS
10
99.6824
20
-57.5636
11
99.625
21
-57.575
0
LINE
8
BLACK
6
CONTINUOUS
10
99.625
20
-57.575
11
98.3
21
-57.575
0
LINE
8
BLACK
6
CONTINUOUS
10
98.3
20
-57.575
11
98.2426
21
-57.5636
0
LINE
8
BLACK
6
CONTINUOUS
10
98.2426
20
-57.5636
11
98.1939
21
-57.5311
0
LINE
8
BLACK
6
CONTINUOUS
10
98.1939
20
-57.5311
11
98.1614
21
-57.4824
0
LINE
8
BLACK
6
CONTINUOUS
10
98.1614
20
-57.4824
11
98.15
21
-57.425
0
LINE
8
BLACK
6
CONTINUOUS
10
98.15
20
-57.425
11
98.15
21
-57.125
0
LINE
8
BLACK
6
CONTINUOUS
10
98.15
20
-57.125
11
98.1614
21
-57.0676
0
LINE
8
BLACK
6
CONTINUOUS
10
98.1614
20
-57.0676
11
98.1939
21
-57.0189
0
LINE
8
BLACK
6
CONTINUOUS
10
98.1939
20
-57.0189
11
98.2426
21
-56.9864
0
LINE
8
BLACK
6
CONTINUOUS
10
98.2426
20
-56.9864
11
98.3
21
-56.975
0
LINE
8
BLACK
6
CONTINUOUS
10
98.3
20
-56.975
11
99.625
21
-56.975
0
LINE
8
BLACK
6
CONTINUOUS
10
99.625
20
-56.975
11
99.6824
21
-56.9864
0
LINE
8
BLACK
6
CONTINUOUS
10
102.857
20
-56.97
11
100.343
21
-56.97
0
LINE
8
BLACK
6
CONTINUOUS
10
100.343
20
-56.97
11
100.343
21
-53.77
0
LINE
8
BLACK
6
CONTINUOUS
10
100.343
20
-53.77
11
102.857
21
-53.77
0
LINE
8
BLACK
6
CONTINUOUS
10
102.857
20
-53.77
11
102.857
21
-56.97
0
LINE
8
BLACK
6
CONTINUOUS
10
104.957
20
-55.7164
11
105.006
21
-55.7489
0
LINE
8
BLACK
6
CONTINUOUS
10
105.006
20
-55.7489
11
105.039
21
-55.7976
0
LINE
8
BLACK
6
CONTINUOUS
10
105.039
20
-55.7976
11
105.05
21
-55.855
0
LINE
8
BLACK
6
CONTINUOUS
10
105.05
20
-55.855
11
105.05
21
-56.155
0
LINE
8
BLACK
6
CONTINUOUS
10
105.05
20
-56.155
11
105.039
21
-56.2124
0
LINE
8
BLACK
6
CONTINUOUS
10
105.039
20
-56.2124
11
105.006
21
-56.2611
0
LINE
8
BLACK
6
CONTINUOUS
10
105.006
20
-56.2611
11
104.957
21
-56.2936
0
LINE
8
BLACK
6
CONTINUOUS
10
104.957
20
-56.2936
11
104.9
21
-56.305
0
LINE
8
BLACK
6
CONTINUOUS
10
104.9
20
-56.305
11
103.575
21
-56.305
0
LINE
8
BLACK
6
CONTINUOUS
10
103.575
20
-56.305
11
103.518
21
-56.2936
0
LINE
8
BLACK
6
CONTINUOUS
10
103.518
20
-56.2936
11
103.469
21
-56.2611
0
LINE
8
BLACK
6
CONTINUOUS
10
103.469
20
-56.2611
11
103.436
21
-56.2124
0
LINE
8
BLACK
6
CONTINUOUS
10
103.436
20
-56.2124
11
103.425
21
-56.155
0
LINE
8
BLACK
6
CONTINUOUS
10
103.425
20
-56.155
11
103.425
21
-55.855
0
LINE
8
BLACK
6
CONTINUOUS
10
103.425
20
-55.855
11
103.436
21
-55.7976
0
LINE
8
BLACK
6
CONTINUOUS
10
103.436
20
-55.7976
11
103.469
21
-55.7489
0
LINE
8
BLACK
6
CONTINUOUS
10
103.469
20
-55.7489
11
103.518
21
-55.7164
0
LINE
8
BLACK
6
CONTINUOUS
10
103.518
20
-55.7164
11
103.575
21
-55.705
0
LINE
8
BLACK
6
CONTINUOUS
10
103.575
20
-55.705
11
104.9
21
-55.705
0
LINE
8
BLACK
6
CONTINUOUS
10
104.9
20
-55.705
11
104.957
21
-55.7164
0
LINE
8
BLACK
6
CONTINUOUS
10
99.6824
20
-55.7164
11
99.7311
21
-55.7489
0
LINE
8
BLACK
6
CONTINUOUS
10
99.7311
20
-55.7489
11
99.7636
21
-55.7976
0
LINE
8
BLACK
6
CONTINUOUS
10
99.7636
20
-55.7976
11
99.775
21
-55.855
0
LINE
8
BLACK
6
CONTINUOUS
10
99.775
20
-55.855
11
99.775
21
-56.155
0
LINE
8
BLACK
6
CONTINUOUS
10
99.775
20
-56.155
11
99.7636
21
-56.2124
0
LINE
8
BLACK
6
CONTINUOUS
10
99.7636
20
-56.2124
11
99.7311
21
-56.2611
0
LINE
8
BLACK
6
CONTINUOUS
10
99.7311
20
-56.2611
11
99.6824
21
-56.2936
0
LINE
8
BLACK
6
CONTINUOUS
10
99.6824
20
-56.2936
11
99.625
21
-56.305
0
LINE
8
BLACK
6
CONTINUOUS
10
99.625
20
-56.305
11
98.3
21
-56.305
0
LINE
8
BLACK
6
CONTINUOUS
10
98.3
20
-56.305
11
98.2426
21
-56.2936
0
LINE
8
BLACK
6
CONTINUOUS
10
98.2426
20
-56.2936
11
98.1939
21
-56.2611
0
LINE
8
BLACK
6
CONTINUOUS
10
98.1939
20
-56.2611
11
98.1614
21
-56.2124
0
LINE
8
BLACK
6
CONTINUOUS
10
98.1614
20
-56.2124
11
98.15
21
-56.155
0
LINE
8
BLACK
6
CONTINUOUS
10
98.15
20
-56.155
11
98.15
21
-55.855
0
LINE
8
BLACK
6
CONTINUOUS
10
98.15
20
-55.855
11
98.1614
21
-55.7976
0
LINE
8
BLACK
6
CONTINUOUS
10
98.1614
20
-55.7976
11
98.1939
21
-55.7489
0
LINE
8
BLACK
6
CONTINUOUS
10
98.1939
20
-55.7489
11
98.2426
21
-55.7164
0
LINE
8
BLACK
6
CONTINUOUS
10
98.2426
20
-55.7164
11
98.3
21
-55.705
0
LINE
8
BLACK
6
CONTINUOUS
10
98.3
20
-55.705
11
99.625
21
-55.705
0
LINE
8
BLACK
6
CONTINUOUS
10
99.625
20
-55.705
11
99.6824
21
-55.7164
0
LINE
8
BLACK
6
CONTINUOUS
10
106.528
20
-54.2731
11
106.605
21
-54.3246
0
LINE
8
BLACK
6
CONTINUOUS
10
106.605
20
-54.3246
11
106.657
21
-54.4016
0
LINE
8
BLACK
6
CONTINUOUS
10
106.657
20
-54.4016
11
106.675
21
-54.4925
0
LINE
8
BLACK
6
CONTINUOUS
10
106.675
20
-54.4925
11
106.675
21
-54.9675
0
LINE
8
BLACK
6
CONTINUOUS
10
106.675
20
-54.9675
11
106.657
21
-55.0584
0
LINE
8
BLACK
6
CONTINUOUS
10
106.657
20
-55.0584
11
106.605
21
-55.1354
0
LINE
8
BLACK
6
CONTINUOUS
10
106.605
20
-55.1354
11
106.528
21
-55.1869
0
LINE
8
BLACK
6
CONTINUOUS
10
106.528
20
-55.1869
11
106.438
21
-55.205
0
LINE
8
BLACK
6
CONTINUOUS
10
106.438
20
-55.205
11
105.938
21
-55.205
0
LINE
8
BLACK
6
CONTINUOUS
10
105.938
20
-55.205
11
105.847
21
-55.1869
0
LINE
8
BLACK
6
CONTINUOUS
10
105.847
20
-55.1869
11
105.77
21
-55.1354
0
LINE
8
BLACK
6
CONTINUOUS
10
105.77
20
-55.1354
11
105.718
21
-55.0584
0
LINE
8
BLACK
6
CONTINUOUS
10
105.718
20
-55.0584
11
105.7
21
-54.9675
0
LINE
8
BLACK
6
CONTINUOUS
10
105.7
20
-54.9675
11
105.7
21
-54.4925
0
LINE
8
BLACK
6
CONTINUOUS
10
105.7
20
-54.4925
11
105.718
21
-54.4016
0
LINE
8
BLACK
6
CONTINUOUS
10
105.718
20
-54.4016
11
105.77
21
-54.3246
0
LINE
8
BLACK
6
CONTINUOUS
10
105.77
20
-54.3246
11
105.847
21
-54.2731
0
LINE
8
BLACK
6
CONTINUOUS
10
105.847
20
-54.2731
11
105.938
21
-54.255
0
LINE
8
BLACK
6
CONTINUOUS
10
105.938
20
-54.255
11
106.438
21
-54.255
0
LINE
8
BLACK
6
CONTINUOUS
10
106.438
20
-54.255
11
106.528
21
-54.2731
0
LINE
8
BLACK
6
CONTINUOUS
10
108.353
20
-54.2731
11
108.43
21
-54.3246
0
LINE
8
BLACK
6
CONTINUOUS
10
108.43
20
-54.3246
11
108.482
21
-54.4016
0
LINE
8
BLACK
6
CONTINUOUS
10
108.482
20
-54.4016
11
108.5
21
-54.4925
0
LINE
8
BLACK
6
CONTINUOUS
10
108.5
20
-54.4925
11
108.5
21
-54.9675
0
LINE
8
BLACK
6
CONTINUOUS
10
108.5
20
-54.9675
11
108.482
21
-55.0584
0
LINE
8
BLACK
6
CONTINUOUS
10
108.482
20
-55.0584
11
108.43
21
-55.1354
0
LINE
8
BLACK
6
CONTINUOUS
10
108.43
20
-55.1354
11
108.353
21
-55.1869
0
LINE
8
BLACK
6
CONTINUOUS
10
108.353
20
-55.1869
11
108.262
21
-55.205
0
LINE
8
BLACK
6
CONTINUOUS
10
108.262
20
-55.205
11
107.762
21
-55.205
0
LINE
8
BLACK
6
CONTINUOUS
10
107.762
20
-55.205
11
107.672
21
-55.1869
0
LINE
8
BLACK
6
CONTINUOUS
10
107.672
20
-55.1869
11
107.595
21
-55.1354
0
LINE
8
BLACK
6
CONTINUOUS
10
107.595
20
-55.1354
11
107.543
21
-55.0584
0
LINE
8
BLACK
6
CONTINUOUS
10
107.543
20
-55.0584
11
107.525
21
-54.9675
0
LINE
8
BLACK
6
CONTINUOUS
10
107.525
20
-54.9675
11
107.525
21
-54.4925
0
LINE
8
BLACK
6
CONTINUOUS
10
107.525
20
-54.4925
11
107.543
21
-54.4016
0
LINE
8
BLACK
6
CONTINUOUS
10
107.543
20
-54.4016
11
107.595
21
-54.3246
0
LINE
8
BLACK
6
CONTINUOUS
10
107.595
20
-54.3246
11
107.672
21
-54.2731
0
LINE
8
BLACK
6
CONTINUOUS
10
107.672
20
-54.2731
11
107.762
21
-54.255
0
LINE
8
BLACK
6
CONTINUOUS
10
107.762
20
-54.255
11
108.262
21
-54.255
0
LINE
8
BLACK
6
CONTINUOUS
10
108.262
20
-54.255
11
108.353
21
-54.2731
0
LINE
8
BLACK
6
CONTINUOUS
10
92.82
20
-55.145
11
91.12
21
-55.145
0
LINE
8
BLACK
6
CONTINUOUS
10
91.12
20
-55.145
11
91.12
21
-53.445
0
LINE
8
BLACK
6
CONTINUOUS
10
91.12
20
-53.445
11
92.82
21
-53.445
0
LINE
8
BLACK
6
CONTINUOUS
10
92.82
20
-53.445
11
92.82
21
-55.145
0
LINE
8
BLACK
6
CONTINUOUS
10
104.957
20
-54.4464
11
105.006
21
-54.4789
0
LINE
8
BLACK
6
CONTINUOUS
10
105.006
20
-54.4789
11
105.039
21
-54.5276
0
LINE
8
BLACK
6
CONTINUOUS
10
105.039
20
-54.5276
11
105.05
21
-54.585
0
LINE
8
BLACK
6
CONTINUOUS
10
105.05
20
-54.585
11
105.05
21
-54.885
0
LINE
8
BLACK
6
CONTINUOUS
10
105.05
20
-54.885
11
105.039
21
-54.9424
0
LINE
8
BLACK
6
CONTINUOUS
10
105.039
20
-54.9424
11
105.006
21
-54.9911
0
LINE
8
BLACK
6
CONTINUOUS
10
105.006
20
-54.9911
11
104.957
21
-55.0236
0
LINE
8
BLACK
6
CONTINUOUS
10
104.957
20
-55.0236
11
104.9
21
-55.035
0
LINE
8
BLACK
6
CONTINUOUS
10
104.9
20
-55.035
11
103.575
21
-55.035
0
LINE
8
BLACK
6
CONTINUOUS
10
103.575
20
-55.035
11
103.518
21
-55.0236
0
LINE
8
BLACK
6
CONTINUOUS
10
103.518
20
-55.0236
11
103.469
21
-54.9911
0
LINE
8
BLACK
6
CONTINUOUS
10
103.469
20
-54.9911
11
103.436
21
-54.9424
0
LINE
8
BLACK
6
CONTINUOUS
10
103.436
20
-54.9424
11
103.425
21
-54.885
0
LINE
8
BLACK
6
CONTINUOUS
10
103.425
20
-54.885
11
103.425
21
-54.585
0
LINE
8
BLACK
6
CONTINUOUS
10
103.425
20
-54.585
11
103.436
21
-54.5276
0
LINE
8
BLACK
6
CONTINUOUS
10
103.436
20
-54.5276
11
103.469
21
-54.4789
0
LINE
8
BLACK
6
CONTINUOUS
10
103.469
20
-54.4789
11
103.518
21
-54.4464
0
LINE
8
BLACK
6
CONTINUOUS
10
103.518
20
-54.4464
11
103.575
21
-54.435
0
LINE
8
BLACK
6
CONTINUOUS
10
103.575
20
-54.435
11
104.9
21
-54.435
0
LINE
8
BLACK
6
CONTINUOUS
10
104.9
20
-54.435
11
104.957
21
-54.4464
0
LINE
8
BLACK
6
CONTINUOUS
10
99.6824
20
-54.4464
11
99.7311
21
-54.4789
0
LINE
8
BLACK
6
CONTINUOUS
10
99.7311
20
-54.4789
11
99.7636
21
-54.5276
0
LINE
8
BLACK
6
CONTINUOUS
10
99.7636
20
-54.5276
11
99.775
21
-54.585
0
LINE
8
BLACK
6
CONTINUOUS
10
99.775
20
-54.585
11
99.775
21
-54.885
0
LINE
8
BLACK
6
CONTINUOUS
10
99.775
20
-54.885
11
99.7636
21
-54.9424
0
LINE
8
BLACK
6
CONTINUOUS
10
99.7636
20
-54.9424
11
99.7311
21
-54.9911
0
LINE
8
BLACK
6
CONTINUOUS
10
99.7311
20
-54.9911
11
99.6824
21
-55.0236
0
LINE
8
BLACK
6
CONTINUOUS
10
99.6824
20
-55.0236
11
99.625
21
-55.035
0
LINE
8
BLACK
6
CONTINUOUS
10
99.625
20
-55.035
11
98.3
21
-55.035
0
LINE
8
BLACK
6
CONTINUOUS
10
98.3
20
-55.035
11
98.2426
21
-55.0236
0
LINE
8
BLACK
6
CONTINUOUS
10
98.2426
20
-55.0236
11
98.1939
21
-54.9911
0
LINE
8
BLACK
6
CONTINUOUS
10
98.1939
20
-54.9911
11
98.1614
21
-54.9424
0
LINE
8
BLACK
6
CONTINUOUS
10
98.1614
20
-54.9424
11
98.15
21
-54.885
0
LINE
8
BLACK
6
CONTINUOUS
10
98.15
20
-54.885
11
98.15
21
-54.585
0
LINE
8
BLACK
6
CONTINUOUS
10
98.15
20
-54.585
11
98.1614
21
-54.5276
0
LINE
8
BLACK
6
CONTINUOUS
10
98.1614
20
-54.5276
11
98.1939
21
-54.4789
0
LINE
8
BLACK
6
CONTINUOUS
10
98.1939
20
-54.4789
11
98.2426
21
-54.4464
0
LINE
8
BLACK
6
CONTINUOUS
10
98.2426
20
-54.4464
11
98.3
21
-54.435
0
LINE
8
BLACK
6
CONTINUOUS
10
98.3
20
-54.435
11
99.625
21
-54.435
0
LINE
8
BLACK
6
CONTINUOUS
10
99.625
20
-54.435
11
99.6824
21
-54.4464
0
LINE
8
BLACK
6
CONTINUOUS
10
104.957
20
-53.1764
11
105.006
21
-53.2089
0
LINE
8
BLACK
6
CONTINUOUS
10
105.006
20
-53.2089
11
105.039
21
-53.2576
0
LINE
8
BLACK
6
CONTINUOUS
10
105.039
20
-53.2576
11
105.05
21
-53.315
0
LINE
8
BLACK
6
CONTINUOUS
10
105.05
20
-53.315
11
105.05
21
-53.615
0
LINE
8
BLACK
6
CONTINUOUS
10
105.05
20
-53.615
11
105.039
21
-53.6724
0
LINE
8
BLACK
6
CONTINUOUS
10
105.039
20
-53.6724
11
105.006
21
-53.7211
0
LINE
8
BLACK
6
CONTINUOUS
10
105.006
20
-53.7211
11
104.957
21
-53.7536
0
LINE
8
BLACK
6
CONTINUOUS
10
104.957
20
-53.7536
11
104.9
21
-53.765
0
LINE
8
BLACK
6
CONTINUOUS
10
104.9
20
-53.765
11
103.575
21
-53.765
0
LINE
8
BLACK
6
CONTINUOUS
10
103.575
20
-53.765
11
103.518
21
-53.7536
0
LINE
8
BLACK
6
CONTINUOUS
10
103.518
20
-53.7536
11
103.469
21
-53.7211
0
LINE
8
BLACK
6
CONTINUOUS
10
103.469
20
-53.7211
11
103.436
21
-53.6724
0
LINE
8
BLACK
6
CONTINUOUS
10
103.436
20
-53.6724
11
103.425
21
-53.615
0
LINE
8
BLACK
6
CONTINUOUS
10
103.425
20
-53.615
11
103.425
21
-53.315
0
LINE
8
BLACK
6
CONTINUOUS
10
103.425
20
-53.315
11
103.436
21
-53.2576
0
LINE
8
BLACK
6
CONTINUOUS
10
103.436
20
-53.2576
11
103.469
21
-53.2089
0
LINE
8
BLACK
6
CONTINUOUS
10
103.469
20
-53.2089
11
103.518
21
-53.1764
0
LINE
8
BLACK
6
CONTINUOUS
10
103.518
20
-53.1764
11
103.575
21
-53.165
0
LINE
8
BLACK
6
CONTINUOUS
10
103.575
20
-53.165
11
104.9
21
-53.165
0
LINE
8
BLACK
6
CONTINUOUS
10
104.9
20
-53.165
11
104.957
21
-53.1764
0
LINE
8
BLACK
6
CONTINUOUS
10
99.6824
20
-53.1764
11
99.7311
21
-53.2089
0
LINE
8
BLACK
6
CONTINUOUS
10
99.7311
20
-53.2089
11
99.7636
21
-53.2576
0
LINE
8
BLACK
6
CONTINUOUS
10
99.7636
20
-53.2576
11
99.775
21
-53.315
0
LINE
8
BLACK
6
CONTINUOUS
10
99.775
20
-53.315
11
99.775
21
-53.615
0
LINE
8
BLACK
6
CONTINUOUS
10
99.775
20
-53.615
11
99.7636
21
-53.6724
0
LINE
8
BLACK
6
CONTINUOUS
10
99.7636
20
-53.6724
11
99.7311
21
-53.7211
0
LINE
8
BLACK
6
CONTINUOUS
10
99.7311
20
-53.7211
11
99.6824
21
-53.7536
0
LINE
8
BLACK
6
CONTINUOUS
10
99.6824
20
-53.7536
11
99.625
21
-53.765
0
LINE
8
BLACK
6
CONTINUOUS
10
99.625
20
-53.765
11
98.3
21
-53.765
0
LINE
8
BLACK
6
CONTINUOUS
10
98.3
20
-53.765
11
98.2426
21
-53.7536
0
LINE
8
BLACK
6
CONTINUOUS
10
98.2426
20
-53.7536
11
98.1939
21
-53.7211
0
LINE
8
BLACK
6
CONTINUOUS
10
98.1939
20
-53.7211
11
98.1614
21
-53.6724
0
LINE
8
BLACK
6
CONTINUOUS
10
98.1614
20
-53.6724
11
98.15
21
-53.615
0
LINE
8
BLACK
6
CONTINUOUS
10
98.15
20
-53.615
11
98.15
21
-53.315
0
LINE
8
BLACK
6
CONTINUOUS
10
98.15
20
-53.315
11
98.1614
21
-53.2576
0
LINE
8
BLACK
6
CONTINUOUS
10
98.1614
20
-53.2576
11
98.1939
21
-53.2089
0
LINE
8
BLACK
6
CONTINUOUS
10
98.1939
20
-53.2089
11
98.2426
21
-53.1764
0
LINE
8
BLACK
6
CONTINUOUS
10
98.2426
20
-53.1764
11
98.3
21
-53.165
0
LINE
8
BLACK
6
CONTINUOUS
10
98.3
20
-53.165
11
99.625
21
-53.165
0
LINE
8
BLACK
6
CONTINUOUS
10
99.625
20
-53.165
11
99.6824
21
-53.1764
  0
ENDSEC
  0
EOF
