  0
SECTION
  2
HEADER
  9
$ANGBASE
  50
0.0
  9
$ANGDIR
  70
1
  9
$MEASUREMENT
  70
1
  0
ENDSEC
  0
SECTION
  2
TABLES
  0
TABLE
  2
LTYPE
  70
4
  0
LTYPE
  5
40F
  2
CONTINUOUS
  70
0
  3
Solid line
  72
65
  73
0
  40
0.0
  0
LTYPE
  5
410
  2
DASHDOT
 70
0
  3
Dash Dot ____ _ ____ _
 72
65
 73
4
 40
2.0
 49
1.25
 49
-0.25
 49
0.25
 49
-0.25
  0
LTYPE
  5
411
  2
DASHED
 70
0
  3
Dashed __ __ __ __ __
 72
65
 73
2
 40
0.75
 49
0.5
 49
-0.25
  0
LTYPE
  5
43B
  2
DOTTED
 70
0
  3
Dotted .  .  .  .
 72
65
 73
2
 40
0.2
 49
0.0
 49
-0.2
  0
ENDTAB
  0
TABLE
  2
STYLE
  70
4
  0
STYLE
  2
KICAD
  70
0
  40
0
  41
1
  42
1
  50
0
  71
0
  3
isocp.shx
  0
STYLE
  2
KICADB
  70
0
  40
0
  41
1
  42
1
  50
0
  71
0
  3
isocp.shx
  0
STYLE
  2
KICADI
  70
0
  40
0
  41
1
  42
1
  50
15
  71
0
  3
isocp.shx
  0
STYLE
  2
KICADBI
  70
0
  40
0
  41
1
  42
1
  50
15
  71
0
  3
isocp.shx
  0
ENDTAB
  0
TABLE
  2
LAYER
  70
1
  0
LAYER
  2
BLACK
  70
0
  62
7
  6
CONTINUOUS
  0
ENDTAB
  0
ENDSEC
  0
SECTION
  2
ENTITIES
0
LINE
8
BLACK
6
CONTINUOUS
10
112.681
20
-85.094
11
112.762
21
-85.1482
0
LINE
8
BLACK
6
CONTINUOUS
10
112.762
20
-85.1482
11
112.816
21
-85.2293
0
LINE
8
BLACK
6
CONTINUOUS
10
112.816
20
-85.2293
11
112.835
21
-85.325
0
LINE
8
BLACK
6
CONTINUOUS
10
112.835
20
-85.325
11
112.835
21
-86.275
0
LINE
8
BLACK
6
CONTINUOUS
10
112.835
20
-86.275
11
112.816
21
-86.3707
0
LINE
8
BLACK
6
CONTINUOUS
10
112.816
20
-86.3707
11
112.762
21
-86.4518
0
LINE
8
BLACK
6
CONTINUOUS
10
112.762
20
-86.4518
11
112.681
21
-86.506
0
LINE
8
BLACK
6
CONTINUOUS
10
112.681
20
-86.506
11
112.585
21
-86.525
0
LINE
8
BLACK
6
CONTINUOUS
10
112.585
20
-86.525
11
111.91
21
-86.525
0
LINE
8
BLACK
6
CONTINUOUS
10
111.91
20
-86.525
11
111.814
21
-86.506
0
LINE
8
BLACK
6
CONTINUOUS
10
111.814
20
-86.506
11
111.733
21
-86.4518
0
LINE
8
BLACK
6
CONTINUOUS
10
111.733
20
-86.4518
11
111.679
21
-86.3707
0
LINE
8
BLACK
6
CONTINUOUS
10
111.679
20
-86.3707
11
111.66
21
-86.275
0
LINE
8
BLACK
6
CONTINUOUS
10
111.66
20
-86.275
11
111.66
21
-85.325
0
LINE
8
BLACK
6
CONTINUOUS
10
111.66
20
-85.325
11
111.679
21
-85.2293
0
LINE
8
BLACK
6
CONTINUOUS
10
111.679
20
-85.2293
11
111.733
21
-85.1482
0
LINE
8
BLACK
6
CONTINUOUS
10
111.733
20
-85.1482
11
111.814
21
-85.094
0
LINE
8
BLACK
6
CONTINUOUS
10
111.814
20
-85.094
11
111.91
21
-85.075
0
LINE
8
BLACK
6
CONTINUOUS
10
111.91
20
-85.075
11
112.585
21
-85.075
0
LINE
8
BLACK
6
CONTINUOUS
10
112.585
20
-85.075
11
112.681
21
-85.094
0
LINE
8
BLACK
6
CONTINUOUS
10
110.606
20
-85.094
11
110.687
21
-85.1482
0
LINE
8
BLACK
6
CONTINUOUS
10
110.687
20
-85.1482
11
110.741
21
-85.2293
0
LINE
8
BLACK
6
CONTINUOUS
10
110.741
20
-85.2293
11
110.76
21
-85.325
0
LINE
8
BLACK
6
CONTINUOUS
10
110.76
20
-85.325
11
110.76
21
-86.275
0
LINE
8
BLACK
6
CONTINUOUS
10
110.76
20
-86.275
11
110.741
21
-86.3707
0
LINE
8
BLACK
6
CONTINUOUS
10
110.741
20
-86.3707
11
110.687
21
-86.4518
0
LINE
8
BLACK
6
CONTINUOUS
10
110.687
20
-86.4518
11
110.606
21
-86.506
0
LINE
8
BLACK
6
CONTINUOUS
10
110.606
20
-86.506
11
110.51
21
-86.525
0
LINE
8
BLACK
6
CONTINUOUS
10
110.51
20
-86.525
11
109.835
21
-86.525
0
LINE
8
BLACK
6
CONTINUOUS
10
109.835
20
-86.525
11
109.739
21
-86.506
0
LINE
8
BLACK
6
CONTINUOUS
10
109.739
20
-86.506
11
109.658
21
-86.4518
0
LINE
8
BLACK
6
CONTINUOUS
10
109.658
20
-86.4518
11
109.604
21
-86.3707
0
LINE
8
BLACK
6
CONTINUOUS
10
109.604
20
-86.3707
11
109.585
21
-86.275
0
LINE
8
BLACK
6
CONTINUOUS
10
109.585
20
-86.275
11
109.585
21
-85.325
0
LINE
8
BLACK
6
CONTINUOUS
10
109.585
20
-85.325
11
109.604
21
-85.2293
0
LINE
8
BLACK
6
CONTINUOUS
10
109.604
20
-85.2293
11
109.658
21
-85.1482
0
LINE
8
BLACK
6
CONTINUOUS
10
109.658
20
-85.1482
11
109.739
21
-85.094
0
LINE
8
BLACK
6
CONTINUOUS
10
109.739
20
-85.094
11
109.835
21
-85.075
0
LINE
8
BLACK
6
CONTINUOUS
10
109.835
20
-85.075
11
110.51
21
-85.075
0
LINE
8
BLACK
6
CONTINUOUS
10
110.51
20
-85.075
11
110.606
21
-85.094
0
LINE
8
BLACK
6
CONTINUOUS
10
101.45
20
-84.3
11
100.75
21
-84.3
0
LINE
8
BLACK
6
CONTINUOUS
10
100.75
20
-84.3
11
100.75
21
-83.1
0
LINE
8
BLACK
6
CONTINUOUS
10
100.75
20
-83.1
11
101.45
21
-83.1
0
LINE
8
BLACK
6
CONTINUOUS
10
101.45
20
-83.1
11
101.45
21
-84.3
0
LINE
8
BLACK
6
CONTINUOUS
10
103.5
20
-84.3
11
102.74
21
-84.3
0
LINE
8
BLACK
6
CONTINUOUS
10
102.74
20
-84.3
11
102.74
21
-83.1
0
LINE
8
BLACK
6
CONTINUOUS
10
102.74
20
-83.1
11
103.5
21
-83.1
0
LINE
8
BLACK
6
CONTINUOUS
10
103.5
20
-83.1
11
103.5
21
-84.3
0
LINE
8
BLACK
6
CONTINUOUS
10
104.75
20
-84.3
11
103.95
21
-84.3
0
LINE
8
BLACK
6
CONTINUOUS
10
103.95
20
-84.3
11
103.95
21
-83.1
0
LINE
8
BLACK
6
CONTINUOUS
10
103.95
20
-83.1
11
104.75
21
-83.1
0
LINE
8
BLACK
6
CONTINUOUS
10
104.75
20
-83.1
11
104.75
21
-84.3
0
LINE
8
BLACK
6
CONTINUOUS
10
102.45
20
-84.3
11
101.75
21
-84.3
0
LINE
8
BLACK
6
CONTINUOUS
10
101.75
20
-84.3
11
101.75
21
-83.1
0
LINE
8
BLACK
6
CONTINUOUS
10
101.75
20
-83.1
11
102.45
21
-83.1
0
LINE
8
BLACK
6
CONTINUOUS
10
102.45
20
-83.1
11
102.45
21
-84.3
0
LINE
8
BLACK
6
CONTINUOUS
10
100.46
20
-84.3
11
99.7
21
-84.3
0
LINE
8
BLACK
6
CONTINUOUS
10
99.7
20
-84.3
11
99.7
21
-83.1
0
LINE
8
BLACK
6
CONTINUOUS
10
99.7
20
-83.1
11
100.46
21
-83.1
0
LINE
8
BLACK
6
CONTINUOUS
10
100.46
20
-83.1
11
100.46
21
-84.3
0
LINE
8
BLACK
6
CONTINUOUS
10
99.25
20
-84.3
11
98.45
21
-84.3
0
LINE
8
BLACK
6
CONTINUOUS
10
98.45
20
-84.3
11
98.45
21
-83.1
0
LINE
8
BLACK
6
CONTINUOUS
10
98.45
20
-83.1
11
99.25
21
-83.1
0
LINE
8
BLACK
6
CONTINUOUS
10
99.25
20
-83.1
11
99.25
21
-84.3
0
LINE
8
BLACK
6
CONTINUOUS
10
108.213
20
-78.6731
11
108.29
21
-78.7246
0
LINE
8
BLACK
6
CONTINUOUS
10
108.29
20
-78.7246
11
108.342
21
-78.8016
0
LINE
8
BLACK
6
CONTINUOUS
10
108.342
20
-78.8016
11
108.36
21
-78.8925
0
LINE
8
BLACK
6
CONTINUOUS
10
108.36
20
-78.8925
11
108.36
21
-79.3675
0
LINE
8
BLACK
6
CONTINUOUS
10
108.36
20
-79.3675
11
108.342
21
-79.4584
0
LINE
8
BLACK
6
CONTINUOUS
10
108.342
20
-79.4584
11
108.29
21
-79.5354
0
LINE
8
BLACK
6
CONTINUOUS
10
108.29
20
-79.5354
11
108.213
21
-79.5869
0
LINE
8
BLACK
6
CONTINUOUS
10
108.213
20
-79.5869
11
108.122
21
-79.605
0
LINE
8
BLACK
6
CONTINUOUS
10
108.122
20
-79.605
11
107.622
21
-79.605
0
LINE
8
BLACK
6
CONTINUOUS
10
107.622
20
-79.605
11
107.532
21
-79.5869
0
LINE
8
BLACK
6
CONTINUOUS
10
107.532
20
-79.5869
11
107.455
21
-79.5354
0
LINE
8
BLACK
6
CONTINUOUS
10
107.455
20
-79.5354
11
107.403
21
-79.4584
0
LINE
8
BLACK
6
CONTINUOUS
10
107.403
20
-79.4584
11
107.385
21
-79.3675
0
LINE
8
BLACK
6
CONTINUOUS
10
107.385
20
-79.3675
11
107.385
21
-78.8925
0
LINE
8
BLACK
6
CONTINUOUS
10
107.385
20
-78.8925
11
107.403
21
-78.8016
0
LINE
8
BLACK
6
CONTINUOUS
10
107.403
20
-78.8016
11
107.455
21
-78.7246
0
LINE
8
BLACK
6
CONTINUOUS
10
107.455
20
-78.7246
11
107.532
21
-78.6731
0
LINE
8
BLACK
6
CONTINUOUS
10
107.532
20
-78.6731
11
107.622
21
-78.655
0
LINE
8
BLACK
6
CONTINUOUS
10
107.622
20
-78.655
11
108.122
21
-78.655
0
LINE
8
BLACK
6
CONTINUOUS
10
108.122
20
-78.655
11
108.213
21
-78.6731
0
LINE
8
BLACK
6
CONTINUOUS
10
106.388
20
-78.6731
11
106.465
21
-78.7246
0
LINE
8
BLACK
6
CONTINUOUS
10
106.465
20
-78.7246
11
106.517
21
-78.8016
0
LINE
8
BLACK
6
CONTINUOUS
10
106.517
20
-78.8016
11
106.535
21
-78.8925
0
LINE
8
BLACK
6
CONTINUOUS
10
106.535
20
-78.8925
11
106.535
21
-79.3675
0
LINE
8
BLACK
6
CONTINUOUS
10
106.535
20
-79.3675
11
106.517
21
-79.4584
0
LINE
8
BLACK
6
CONTINUOUS
10
106.517
20
-79.4584
11
106.465
21
-79.5354
0
LINE
8
BLACK
6
CONTINUOUS
10
106.465
20
-79.5354
11
106.388
21
-79.5869
0
LINE
8
BLACK
6
CONTINUOUS
10
106.388
20
-79.5869
11
106.297
21
-79.605
0
LINE
8
BLACK
6
CONTINUOUS
10
106.297
20
-79.605
11
105.797
21
-79.605
0
LINE
8
BLACK
6
CONTINUOUS
10
105.797
20
-79.605
11
105.707
21
-79.5869
0
LINE
8
BLACK
6
CONTINUOUS
10
105.707
20
-79.5869
11
105.63
21
-79.5354
0
LINE
8
BLACK
6
CONTINUOUS
10
105.63
20
-79.5354
11
105.578
21
-79.4584
0
LINE
8
BLACK
6
CONTINUOUS
10
105.578
20
-79.4584
11
105.56
21
-79.3675
0
LINE
8
BLACK
6
CONTINUOUS
10
105.56
20
-79.3675
11
105.56
21
-78.8925
0
LINE
8
BLACK
6
CONTINUOUS
10
105.56
20
-78.8925
11
105.578
21
-78.8016
0
LINE
8
BLACK
6
CONTINUOUS
10
105.578
20
-78.8016
11
105.63
21
-78.7246
0
LINE
8
BLACK
6
CONTINUOUS
10
105.63
20
-78.7246
11
105.707
21
-78.6731
0
LINE
8
BLACK
6
CONTINUOUS
10
105.707
20
-78.6731
11
105.797
21
-78.655
0
LINE
8
BLACK
6
CONTINUOUS
10
105.797
20
-78.655
11
106.297
21
-78.655
0
LINE
8
BLACK
6
CONTINUOUS
10
106.297
20
-78.655
11
106.388
21
-78.6731
0
LINE
8
BLACK
6
CONTINUOUS
10
101.126
20
-78.5431
11
101.203
21
-78.5946
0
LINE
8
BLACK
6
CONTINUOUS
10
101.203
20
-78.5946
11
101.254
21
-78.6716
0
LINE
8
BLACK
6
CONTINUOUS
10
101.254
20
-78.6716
11
101.272
21
-78.7625
0
LINE
8
BLACK
6
CONTINUOUS
10
101.272
20
-78.7625
11
101.272
21
-79.2375
0
LINE
8
BLACK
6
CONTINUOUS
10
101.272
20
-79.2375
11
101.254
21
-79.3284
0
LINE
8
BLACK
6
CONTINUOUS
10
101.254
20
-79.3284
11
101.203
21
-79.4054
0
LINE
8
BLACK
6
CONTINUOUS
10
101.203
20
-79.4054
11
101.126
21
-79.4569
0
LINE
8
BLACK
6
CONTINUOUS
10
101.126
20
-79.4569
11
101.035
21
-79.475
0
LINE
8
BLACK
6
CONTINUOUS
10
101.035
20
-79.475
11
100.46
21
-79.475
0
LINE
8
BLACK
6
CONTINUOUS
10
100.46
20
-79.475
11
100.369
21
-79.4569
0
LINE
8
BLACK
6
CONTINUOUS
10
100.369
20
-79.4569
11
100.292
21
-79.4054
0
LINE
8
BLACK
6
CONTINUOUS
10
100.292
20
-79.4054
11
100.241
21
-79.3284
0
LINE
8
BLACK
6
CONTINUOUS
10
100.241
20
-79.3284
11
100.222
21
-79.2375
0
LINE
8
BLACK
6
CONTINUOUS
10
100.222
20
-79.2375
11
100.222
21
-78.7625
0
LINE
8
BLACK
6
CONTINUOUS
10
100.222
20
-78.7625
11
100.241
21
-78.6716
0
LINE
8
BLACK
6
CONTINUOUS
10
100.241
20
-78.6716
11
100.292
21
-78.5946
0
LINE
8
BLACK
6
CONTINUOUS
10
100.292
20
-78.5946
11
100.369
21
-78.5431
0
LINE
8
BLACK
6
CONTINUOUS
10
100.369
20
-78.5431
11
100.46
21
-78.525
0
LINE
8
BLACK
6
CONTINUOUS
10
100.46
20
-78.525
11
101.035
21
-78.525
0
LINE
8
BLACK
6
CONTINUOUS
10
101.035
20
-78.525
11
101.126
21
-78.5431
0
LINE
8
BLACK
6
CONTINUOUS
10
102.876
20
-78.5431
11
102.953
21
-78.5946
0
LINE
8
BLACK
6
CONTINUOUS
10
102.953
20
-78.5946
11
103.004
21
-78.6716
0
LINE
8
BLACK
6
CONTINUOUS
10
103.004
20
-78.6716
11
103.022
21
-78.7625
0
LINE
8
BLACK
6
CONTINUOUS
10
103.022
20
-78.7625
11
103.022
21
-79.2375
0
LINE
8
BLACK
6
CONTINUOUS
10
103.022
20
-79.2375
11
103.004
21
-79.3284
0
LINE
8
BLACK
6
CONTINUOUS
10
103.004
20
-79.3284
11
102.953
21
-79.4054
0
LINE
8
BLACK
6
CONTINUOUS
10
102.953
20
-79.4054
11
102.876
21
-79.4569
0
LINE
8
BLACK
6
CONTINUOUS
10
102.876
20
-79.4569
11
102.785
21
-79.475
0
LINE
8
BLACK
6
CONTINUOUS
10
102.785
20
-79.475
11
102.21
21
-79.475
0
LINE
8
BLACK
6
CONTINUOUS
10
102.21
20
-79.475
11
102.119
21
-79.4569
0
LINE
8
BLACK
6
CONTINUOUS
10
102.119
20
-79.4569
11
102.042
21
-79.4054
0
LINE
8
BLACK
6
CONTINUOUS
10
102.042
20
-79.4054
11
101.991
21
-79.3284
0
LINE
8
BLACK
6
CONTINUOUS
10
101.991
20
-79.3284
11
101.972
21
-79.2375
0
LINE
8
BLACK
6
CONTINUOUS
10
101.972
20
-79.2375
11
101.972
21
-78.7625
0
LINE
8
BLACK
6
CONTINUOUS
10
101.972
20
-78.7625
11
101.991
21
-78.6716
0
LINE
8
BLACK
6
CONTINUOUS
10
101.991
20
-78.6716
11
102.042
21
-78.5946
0
LINE
8
BLACK
6
CONTINUOUS
10
102.042
20
-78.5946
11
102.119
21
-78.5431
0
LINE
8
BLACK
6
CONTINUOUS
10
102.119
20
-78.5431
11
102.21
21
-78.525
0
LINE
8
BLACK
6
CONTINUOUS
10
102.21
20
-78.525
11
102.785
21
-78.525
0
LINE
8
BLACK
6
CONTINUOUS
10
102.785
20
-78.525
11
102.876
21
-78.5431
0
LINE
8
BLACK
6
CONTINUOUS
10
106.391
20
-74.6331
11
106.468
21
-74.6846
0
LINE
8
BLACK
6
CONTINUOUS
10
106.468
20
-74.6846
11
106.519
21
-74.7616
0
LINE
8
BLACK
6
CONTINUOUS
10
106.519
20
-74.7616
11
106.537
21
-74.8525
0
LINE
8
BLACK
6
CONTINUOUS
10
106.537
20
-74.8525
11
106.537
21
-75.3275
0
LINE
8
BLACK
6
CONTINUOUS
10
106.537
20
-75.3275
11
106.519
21
-75.4184
0
LINE
8
BLACK
6
CONTINUOUS
10
106.519
20
-75.4184
11
106.468
21
-75.4954
0
LINE
8
BLACK
6
CONTINUOUS
10
106.468
20
-75.4954
11
106.391
21
-75.5469
0
LINE
8
BLACK
6
CONTINUOUS
10
106.391
20
-75.5469
11
106.3
21
-75.565
0
LINE
8
BLACK
6
CONTINUOUS
10
106.3
20
-75.565
11
105.8
21
-75.565
0
LINE
8
BLACK
6
CONTINUOUS
10
105.8
20
-75.565
11
105.709
21
-75.5469
0
LINE
8
BLACK
6
CONTINUOUS
10
105.709
20
-75.5469
11
105.632
21
-75.4954
0
LINE
8
BLACK
6
CONTINUOUS
10
105.632
20
-75.4954
11
105.581
21
-75.4184
0
LINE
8
BLACK
6
CONTINUOUS
10
105.581
20
-75.4184
11
105.562
21
-75.3275
0
LINE
8
BLACK
6
CONTINUOUS
10
105.562
20
-75.3275
11
105.562
21
-74.8525
0
LINE
8
BLACK
6
CONTINUOUS
10
105.562
20
-74.8525
11
105.581
21
-74.7616
0
LINE
8
BLACK
6
CONTINUOUS
10
105.581
20
-74.7616
11
105.632
21
-74.6846
0
LINE
8
BLACK
6
CONTINUOUS
10
105.632
20
-74.6846
11
105.709
21
-74.6331
0
LINE
8
BLACK
6
CONTINUOUS
10
105.709
20
-74.6331
11
105.8
21
-74.615
0
LINE
8
BLACK
6
CONTINUOUS
10
105.8
20
-74.615
11
106.3
21
-74.615
0
LINE
8
BLACK
6
CONTINUOUS
10
106.3
20
-74.615
11
106.391
21
-74.6331
0
LINE
8
BLACK
6
CONTINUOUS
10
108.216
20
-74.6331
11
108.293
21
-74.6846
0
LINE
8
BLACK
6
CONTINUOUS
10
108.293
20
-74.6846
11
108.344
21
-74.7616
0
LINE
8
BLACK
6
CONTINUOUS
10
108.344
20
-74.7616
11
108.362
21
-74.8525
0
LINE
8
BLACK
6
CONTINUOUS
10
108.362
20
-74.8525
11
108.362
21
-75.3275
0
LINE
8
BLACK
6
CONTINUOUS
10
108.362
20
-75.3275
11
108.344
21
-75.4184
0
LINE
8
BLACK
6
CONTINUOUS
10
108.344
20
-75.4184
11
108.293
21
-75.4954
0
LINE
8
BLACK
6
CONTINUOUS
10
108.293
20
-75.4954
11
108.216
21
-75.5469
0
LINE
8
BLACK
6
CONTINUOUS
10
108.216
20
-75.5469
11
108.125
21
-75.565
0
LINE
8
BLACK
6
CONTINUOUS
10
108.125
20
-75.565
11
107.625
21
-75.565
0
LINE
8
BLACK
6
CONTINUOUS
10
107.625
20
-75.565
11
107.534
21
-75.5469
0
LINE
8
BLACK
6
CONTINUOUS
10
107.534
20
-75.5469
11
107.457
21
-75.4954
0
LINE
8
BLACK
6
CONTINUOUS
10
107.457
20
-75.4954
11
107.406
21
-75.4184
0
LINE
8
BLACK
6
CONTINUOUS
10
107.406
20
-75.4184
11
107.387
21
-75.3275
0
LINE
8
BLACK
6
CONTINUOUS
10
107.387
20
-75.3275
11
107.387
21
-74.8525
0
LINE
8
BLACK
6
CONTINUOUS
10
107.387
20
-74.8525
11
107.406
21
-74.7616
0
LINE
8
BLACK
6
CONTINUOUS
10
107.406
20
-74.7616
11
107.457
21
-74.6846
0
LINE
8
BLACK
6
CONTINUOUS
10
107.457
20
-74.6846
11
107.534
21
-74.6331
0
LINE
8
BLACK
6
CONTINUOUS
10
107.534
20
-74.6331
11
107.625
21
-74.615
0
LINE
8
BLACK
6
CONTINUOUS
10
107.625
20
-74.615
11
108.125
21
-74.615
0
LINE
8
BLACK
6
CONTINUOUS
10
108.125
20
-74.615
11
108.216
21
-74.6331
0
LINE
8
BLACK
6
CONTINUOUS
10
101.126
20
-74.5431
11
101.203
21
-74.5946
0
LINE
8
BLACK
6
CONTINUOUS
10
101.203
20
-74.5946
11
101.254
21
-74.6716
0
LINE
8
BLACK
6
CONTINUOUS
10
101.254
20
-74.6716
11
101.272
21
-74.7625
0
LINE
8
BLACK
6
CONTINUOUS
10
101.272
20
-74.7625
11
101.272
21
-75.2375
0
LINE
8
BLACK
6
CONTINUOUS
10
101.272
20
-75.2375
11
101.254
21
-75.3284
0
LINE
8
BLACK
6
CONTINUOUS
10
101.254
20
-75.3284
11
101.203
21
-75.4054
0
LINE
8
BLACK
6
CONTINUOUS
10
101.203
20
-75.4054
11
101.126
21
-75.4569
0
LINE
8
BLACK
6
CONTINUOUS
10
101.126
20
-75.4569
11
101.035
21
-75.475
0
LINE
8
BLACK
6
CONTINUOUS
10
101.035
20
-75.475
11
100.46
21
-75.475
0
LINE
8
BLACK
6
CONTINUOUS
10
100.46
20
-75.475
11
100.369
21
-75.4569
0
LINE
8
BLACK
6
CONTINUOUS
10
100.369
20
-75.4569
11
100.292
21
-75.4054
0
LINE
8
BLACK
6
CONTINUOUS
10
100.292
20
-75.4054
11
100.241
21
-75.3284
0
LINE
8
BLACK
6
CONTINUOUS
10
100.241
20
-75.3284
11
100.222
21
-75.2375
0
LINE
8
BLACK
6
CONTINUOUS
10
100.222
20
-75.2375
11
100.222
21
-74.7625
0
LINE
8
BLACK
6
CONTINUOUS
10
100.222
20
-74.7625
11
100.241
21
-74.6716
0
LINE
8
BLACK
6
CONTINUOUS
10
100.241
20
-74.6716
11
100.292
21
-74.5946
0
LINE
8
BLACK
6
CONTINUOUS
10
100.292
20
-74.5946
11
100.369
21
-74.5431
0
LINE
8
BLACK
6
CONTINUOUS
10
100.369
20
-74.5431
11
100.46
21
-74.525
0
LINE
8
BLACK
6
CONTINUOUS
10
100.46
20
-74.525
11
101.035
21
-74.525
0
LINE
8
BLACK
6
CONTINUOUS
10
101.035
20
-74.525
11
101.126
21
-74.5431
0
LINE
8
BLACK
6
CONTINUOUS
10
102.876
20
-74.5431
11
102.953
21
-74.5946
0
LINE
8
BLACK
6
CONTINUOUS
10
102.953
20
-74.5946
11
103.004
21
-74.6716
0
LINE
8
BLACK
6
CONTINUOUS
10
103.004
20
-74.6716
11
103.022
21
-74.7625
0
LINE
8
BLACK
6
CONTINUOUS
10
103.022
20
-74.7625
11
103.022
21
-75.2375
0
LINE
8
BLACK
6
CONTINUOUS
10
103.022
20
-75.2375
11
103.004
21
-75.3284
0
LINE
8
BLACK
6
CONTINUOUS
10
103.004
20
-75.3284
11
102.953
21
-75.4054
0
LINE
8
BLACK
6
CONTINUOUS
10
102.953
20
-75.4054
11
102.876
21
-75.4569
0
LINE
8
BLACK
6
CONTINUOUS
10
102.876
20
-75.4569
11
102.785
21
-75.475
0
LINE
8
BLACK
6
CONTINUOUS
10
102.785
20
-75.475
11
102.21
21
-75.475
0
LINE
8
BLACK
6
CONTINUOUS
10
102.21
20
-75.475
11
102.119
21
-75.4569
0
LINE
8
BLACK
6
CONTINUOUS
10
102.119
20
-75.4569
11
102.042
21
-75.4054
0
LINE
8
BLACK
6
CONTINUOUS
10
102.042
20
-75.4054
11
101.991
21
-75.3284
0
LINE
8
BLACK
6
CONTINUOUS
10
101.991
20
-75.3284
11
101.972
21
-75.2375
0
LINE
8
BLACK
6
CONTINUOUS
10
101.972
20
-75.2375
11
101.972
21
-74.7625
0
LINE
8
BLACK
6
CONTINUOUS
10
101.972
20
-74.7625
11
101.991
21
-74.6716
0
LINE
8
BLACK
6
CONTINUOUS
10
101.991
20
-74.6716
11
102.042
21
-74.5946
0
LINE
8
BLACK
6
CONTINUOUS
10
102.042
20
-74.5946
11
102.119
21
-74.5431
0
LINE
8
BLACK
6
CONTINUOUS
10
102.119
20
-74.5431
11
102.21
21
-74.525
0
LINE
8
BLACK
6
CONTINUOUS
10
102.21
20
-74.525
11
102.785
21
-74.525
0
LINE
8
BLACK
6
CONTINUOUS
10
102.785
20
-74.525
11
102.876
21
-74.5431
0
LINE
8
BLACK
6
CONTINUOUS
10
92.3574
20
-73.8814
11
92.4061
21
-73.9139
0
LINE
8
BLACK
6
CONTINUOUS
10
92.4061
20
-73.9139
11
92.4386
21
-73.9626
0
LINE
8
BLACK
6
CONTINUOUS
10
92.4386
20
-73.9626
11
92.45
21
-74.02
0
LINE
8
BLACK
6
CONTINUOUS
10
92.45
20
-74.02
11
92.45
21
-74.32
0
LINE
8
BLACK
6
CONTINUOUS
10
92.45
20
-74.32
11
92.4386
21
-74.3774
0
LINE
8
BLACK
6
CONTINUOUS
10
92.4386
20
-74.3774
11
92.4061
21
-74.4261
0
LINE
8
BLACK
6
CONTINUOUS
10
92.4061
20
-74.4261
11
92.3574
21
-74.4586
0
LINE
8
BLACK
6
CONTINUOUS
10
92.3574
20
-74.4586
11
92.3
21
-74.47
0
LINE
8
BLACK
6
CONTINUOUS
10
92.3
20
-74.47
11
91.125
21
-74.47
0
LINE
8
BLACK
6
CONTINUOUS
10
91.125
20
-74.47
11
91.0676
21
-74.4586
0
LINE
8
BLACK
6
CONTINUOUS
10
91.0676
20
-74.4586
11
91.0189
21
-74.4261
0
LINE
8
BLACK
6
CONTINUOUS
10
91.0189
20
-74.4261
11
90.9864
21
-74.3774
0
LINE
8
BLACK
6
CONTINUOUS
10
90.9864
20
-74.3774
11
90.975
21
-74.32
0
LINE
8
BLACK
6
CONTINUOUS
10
90.975
20
-74.32
11
90.975
21
-74.02
0
LINE
8
BLACK
6
CONTINUOUS
10
90.975
20
-74.02
11
90.9864
21
-73.9626
0
LINE
8
BLACK
6
CONTINUOUS
10
90.9864
20
-73.9626
11
91.0189
21
-73.9139
0
LINE
8
BLACK
6
CONTINUOUS
10
91.0189
20
-73.9139
11
91.0676
21
-73.8814
0
LINE
8
BLACK
6
CONTINUOUS
10
91.0676
20
-73.8814
11
91.125
21
-73.87
0
LINE
8
BLACK
6
CONTINUOUS
10
91.125
20
-73.87
11
92.3
21
-73.87
0
LINE
8
BLACK
6
CONTINUOUS
10
92.3
20
-73.87
11
92.3574
21
-73.8814
0
LINE
8
BLACK
6
CONTINUOUS
10
94.2324
20
-72.9314
11
94.2811
21
-72.9639
0
LINE
8
BLACK
6
CONTINUOUS
10
94.2811
20
-72.9639
11
94.3136
21
-73.0126
0
LINE
8
BLACK
6
CONTINUOUS
10
94.3136
20
-73.0126
11
94.325
21
-73.07
0
LINE
8
BLACK
6
CONTINUOUS
10
94.325
20
-73.07
11
94.325
21
-73.37
0
LINE
8
BLACK
6
CONTINUOUS
10
94.325
20
-73.37
11
94.3136
21
-73.4274
0
LINE
8
BLACK
6
CONTINUOUS
10
94.3136
20
-73.4274
11
94.2811
21
-73.4761
0
LINE
8
BLACK
6
CONTINUOUS
10
94.2811
20
-73.4761
11
94.2324
21
-73.5086
0
LINE
8
BLACK
6
CONTINUOUS
10
94.2324
20
-73.5086
11
94.175
21
-73.52
0
LINE
8
BLACK
6
CONTINUOUS
10
94.175
20
-73.52
11
93
21
-73.52
0
LINE
8
BLACK
6
CONTINUOUS
10
93
20
-73.52
11
92.9426
21
-73.5086
0
LINE
8
BLACK
6
CONTINUOUS
10
92.9426
20
-73.5086
11
92.8939
21
-73.4761
0
LINE
8
BLACK
6
CONTINUOUS
10
92.8939
20
-73.4761
11
92.8614
21
-73.4274
0
LINE
8
BLACK
6
CONTINUOUS
10
92.8614
20
-73.4274
11
92.85
21
-73.37
0
LINE
8
BLACK
6
CONTINUOUS
10
92.85
20
-73.37
11
92.85
21
-73.07
0
LINE
8
BLACK
6
CONTINUOUS
10
92.85
20
-73.07
11
92.8614
21
-73.0126
0
LINE
8
BLACK
6
CONTINUOUS
10
92.8614
20
-73.0126
11
92.8939
21
-72.9639
0
LINE
8
BLACK
6
CONTINUOUS
10
92.8939
20
-72.9639
11
92.9426
21
-72.9314
0
LINE
8
BLACK
6
CONTINUOUS
10
92.9426
20
-72.9314
11
93
21
-72.92
0
LINE
8
BLACK
6
CONTINUOUS
10
93
20
-72.92
11
94.175
21
-72.92
0
LINE
8
BLACK
6
CONTINUOUS
10
94.175
20
-72.92
11
94.2324
21
-72.9314
0
LINE
8
BLACK
6
CONTINUOUS
10
111.953
20
-72.4231
11
112.03
21
-72.4746
0
LINE
8
BLACK
6
CONTINUOUS
10
112.03
20
-72.4746
11
112.082
21
-72.5516
0
LINE
8
BLACK
6
CONTINUOUS
10
112.082
20
-72.5516
11
112.1
21
-72.6425
0
LINE
8
BLACK
6
CONTINUOUS
10
112.1
20
-72.6425
11
112.1
21
-73.1175
0
LINE
8
BLACK
6
CONTINUOUS
10
112.1
20
-73.1175
11
112.082
21
-73.2084
0
LINE
8
BLACK
6
CONTINUOUS
10
112.082
20
-73.2084
11
112.03
21
-73.2854
0
LINE
8
BLACK
6
CONTINUOUS
10
112.03
20
-73.2854
11
111.953
21
-73.3369
0
LINE
8
BLACK
6
CONTINUOUS
10
111.953
20
-73.3369
11
111.862
21
-73.355
0
LINE
8
BLACK
6
CONTINUOUS
10
111.862
20
-73.355
11
111.362
21
-73.355
0
LINE
8
BLACK
6
CONTINUOUS
10
111.362
20
-73.355
11
111.272
21
-73.3369
0
LINE
8
BLACK
6
CONTINUOUS
10
111.272
20
-73.3369
11
111.195
21
-73.2854
0
LINE
8
BLACK
6
CONTINUOUS
10
111.195
20
-73.2854
11
111.143
21
-73.2084
0
LINE
8
BLACK
6
CONTINUOUS
10
111.143
20
-73.2084
11
111.125
21
-73.1175
0
LINE
8
BLACK
6
CONTINUOUS
10
111.125
20
-73.1175
11
111.125
21
-72.6425
0
LINE
8
BLACK
6
CONTINUOUS
10
111.125
20
-72.6425
11
111.143
21
-72.5516
0
LINE
8
BLACK
6
CONTINUOUS
10
111.143
20
-72.5516
11
111.195
21
-72.4746
0
LINE
8
BLACK
6
CONTINUOUS
10
111.195
20
-72.4746
11
111.272
21
-72.4231
0
LINE
8
BLACK
6
CONTINUOUS
10
111.272
20
-72.4231
11
111.362
21
-72.405
0
LINE
8
BLACK
6
CONTINUOUS
10
111.362
20
-72.405
11
111.862
21
-72.405
0
LINE
8
BLACK
6
CONTINUOUS
10
111.862
20
-72.405
11
111.953
21
-72.4231
0
LINE
8
BLACK
6
CONTINUOUS
10
110.128
20
-72.4231
11
110.205
21
-72.4746
0
LINE
8
BLACK
6
CONTINUOUS
10
110.205
20
-72.4746
11
110.257
21
-72.5516
0
LINE
8
BLACK
6
CONTINUOUS
10
110.257
20
-72.5516
11
110.275
21
-72.6425
0
LINE
8
BLACK
6
CONTINUOUS
10
110.275
20
-72.6425
11
110.275
21
-73.1175
0
LINE
8
BLACK
6
CONTINUOUS
10
110.275
20
-73.1175
11
110.257
21
-73.2084
0
LINE
8
BLACK
6
CONTINUOUS
10
110.257
20
-73.2084
11
110.205
21
-73.2854
0
LINE
8
BLACK
6
CONTINUOUS
10
110.205
20
-73.2854
11
110.128
21
-73.3369
0
LINE
8
BLACK
6
CONTINUOUS
10
110.128
20
-73.3369
11
110.037
21
-73.355
0
LINE
8
BLACK
6
CONTINUOUS
10
110.037
20
-73.355
11
109.537
21
-73.355
0
LINE
8
BLACK
6
CONTINUOUS
10
109.537
20
-73.355
11
109.447
21
-73.3369
0
LINE
8
BLACK
6
CONTINUOUS
10
109.447
20
-73.3369
11
109.37
21
-73.2854
0
LINE
8
BLACK
6
CONTINUOUS
10
109.37
20
-73.2854
11
109.318
21
-73.2084
0
LINE
8
BLACK
6
CONTINUOUS
10
109.318
20
-73.2084
11
109.3
21
-73.1175
0
LINE
8
BLACK
6
CONTINUOUS
10
109.3
20
-73.1175
11
109.3
21
-72.6425
0
LINE
8
BLACK
6
CONTINUOUS
10
109.3
20
-72.6425
11
109.318
21
-72.5516
0
LINE
8
BLACK
6
CONTINUOUS
10
109.318
20
-72.5516
11
109.37
21
-72.4746
0
LINE
8
BLACK
6
CONTINUOUS
10
109.37
20
-72.4746
11
109.447
21
-72.4231
0
LINE
8
BLACK
6
CONTINUOUS
10
109.447
20
-72.4231
11
109.537
21
-72.405
0
LINE
8
BLACK
6
CONTINUOUS
10
109.537
20
-72.405
11
110.037
21
-72.405
0
LINE
8
BLACK
6
CONTINUOUS
10
110.037
20
-72.405
11
110.128
21
-72.4231
0
LINE
8
BLACK
6
CONTINUOUS
10
92.3574
20
-71.9814
11
92.4061
21
-72.0139
0
LINE
8
BLACK
6
CONTINUOUS
10
92.4061
20
-72.0139
11
92.4386
21
-72.0626
0
LINE
8
BLACK
6
CONTINUOUS
10
92.4386
20
-72.0626
11
92.45
21
-72.12
0
LINE
8
BLACK
6
CONTINUOUS
10
92.45
20
-72.12
11
92.45
21
-72.42
0
LINE
8
BLACK
6
CONTINUOUS
10
92.45
20
-72.42
11
92.4386
21
-72.4774
0
LINE
8
BLACK
6
CONTINUOUS
10
92.4386
20
-72.4774
11
92.4061
21
-72.5261
0
LINE
8
BLACK
6
CONTINUOUS
10
92.4061
20
-72.5261
11
92.3574
21
-72.5586
0
LINE
8
BLACK
6
CONTINUOUS
10
92.3574
20
-72.5586
11
92.3
21
-72.57
0
LINE
8
BLACK
6
CONTINUOUS
10
92.3
20
-72.57
11
91.125
21
-72.57
0
LINE
8
BLACK
6
CONTINUOUS
10
91.125
20
-72.57
11
91.0676
21
-72.5586
0
LINE
8
BLACK
6
CONTINUOUS
10
91.0676
20
-72.5586
11
91.0189
21
-72.5261
0
LINE
8
BLACK
6
CONTINUOUS
10
91.0189
20
-72.5261
11
90.9864
21
-72.4774
0
LINE
8
BLACK
6
CONTINUOUS
10
90.9864
20
-72.4774
11
90.975
21
-72.42
0
LINE
8
BLACK
6
CONTINUOUS
10
90.975
20
-72.42
11
90.975
21
-72.12
0
LINE
8
BLACK
6
CONTINUOUS
10
90.975
20
-72.12
11
90.9864
21
-72.0626
0
LINE
8
BLACK
6
CONTINUOUS
10
90.9864
20
-72.0626
11
91.0189
21
-72.0139
0
LINE
8
BLACK
6
CONTINUOUS
10
91.0189
20
-72.0139
11
91.0676
21
-71.9814
0
LINE
8
BLACK
6
CONTINUOUS
10
91.0676
20
-71.9814
11
91.125
21
-71.97
0
LINE
8
BLACK
6
CONTINUOUS
10
91.125
20
-71.97
11
92.3
21
-71.97
0
LINE
8
BLACK
6
CONTINUOUS
10
92.3
20
-71.97
11
92.3574
21
-71.9814
0
LINE
8
BLACK
6
CONTINUOUS
10
106.191
20
-70.5931
11
106.268
21
-70.6446
0
LINE
8
BLACK
6
CONTINUOUS
10
106.268
20
-70.6446
11
106.319
21
-70.7216
0
LINE
8
BLACK
6
CONTINUOUS
10
106.319
20
-70.7216
11
106.337
21
-70.8125
0
LINE
8
BLACK
6
CONTINUOUS
10
106.337
20
-70.8125
11
106.337
21
-71.2875
0
LINE
8
BLACK
6
CONTINUOUS
10
106.337
20
-71.2875
11
106.319
21
-71.3784
0
LINE
8
BLACK
6
CONTINUOUS
10
106.319
20
-71.3784
11
106.268
21
-71.4554
0
LINE
8
BLACK
6
CONTINUOUS
10
106.268
20
-71.4554
11
106.191
21
-71.5069
0
LINE
8
BLACK
6
CONTINUOUS
10
106.191
20
-71.5069
11
106.1
21
-71.525
0
LINE
8
BLACK
6
CONTINUOUS
10
106.1
20
-71.525
11
105.6
21
-71.525
0
LINE
8
BLACK
6
CONTINUOUS
10
105.6
20
-71.525
11
105.509
21
-71.5069
0
LINE
8
BLACK
6
CONTINUOUS
10
105.509
20
-71.5069
11
105.432
21
-71.4554
0
LINE
8
BLACK
6
CONTINUOUS
10
105.432
20
-71.4554
11
105.381
21
-71.3784
0
LINE
8
BLACK
6
CONTINUOUS
10
105.381
20
-71.3784
11
105.362
21
-71.2875
0
LINE
8
BLACK
6
CONTINUOUS
10
105.362
20
-71.2875
11
105.362
21
-70.8125
0
LINE
8
BLACK
6
CONTINUOUS
10
105.362
20
-70.8125
11
105.381
21
-70.7216
0
LINE
8
BLACK
6
CONTINUOUS
10
105.381
20
-70.7216
11
105.432
21
-70.6446
0
LINE
8
BLACK
6
CONTINUOUS
10
105.432
20
-70.6446
11
105.509
21
-70.5931
0
LINE
8
BLACK
6
CONTINUOUS
10
105.509
20
-70.5931
11
105.6
21
-70.575
0
LINE
8
BLACK
6
CONTINUOUS
10
105.6
20
-70.575
11
106.1
21
-70.575
0
LINE
8
BLACK
6
CONTINUOUS
10
106.1
20
-70.575
11
106.191
21
-70.5931
0
LINE
8
BLACK
6
CONTINUOUS
10
108.016
20
-70.5931
11
108.093
21
-70.6446
0
LINE
8
BLACK
6
CONTINUOUS
10
108.093
20
-70.6446
11
108.144
21
-70.7216
0
LINE
8
BLACK
6
CONTINUOUS
10
108.144
20
-70.7216
11
108.162
21
-70.8125
0
LINE
8
BLACK
6
CONTINUOUS
10
108.162
20
-70.8125
11
108.162
21
-71.2875
0
LINE
8
BLACK
6
CONTINUOUS
10
108.162
20
-71.2875
11
108.144
21
-71.3784
0
LINE
8
BLACK
6
CONTINUOUS
10
108.144
20
-71.3784
11
108.093
21
-71.4554
0
LINE
8
BLACK
6
CONTINUOUS
10
108.093
20
-71.4554
11
108.016
21
-71.5069
0
LINE
8
BLACK
6
CONTINUOUS
10
108.016
20
-71.5069
11
107.925
21
-71.525
0
LINE
8
BLACK
6
CONTINUOUS
10
107.925
20
-71.525
11
107.425
21
-71.525
0
LINE
8
BLACK
6
CONTINUOUS
10
107.425
20
-71.525
11
107.334
21
-71.5069
0
LINE
8
BLACK
6
CONTINUOUS
10
107.334
20
-71.5069
11
107.257
21
-71.4554
0
LINE
8
BLACK
6
CONTINUOUS
10
107.257
20
-71.4554
11
107.206
21
-71.3784
0
LINE
8
BLACK
6
CONTINUOUS
10
107.206
20
-71.3784
11
107.188
21
-71.2875
0
LINE
8
BLACK
6
CONTINUOUS
10
107.188
20
-71.2875
11
107.188
21
-70.8125
0
LINE
8
BLACK
6
CONTINUOUS
10
107.188
20
-70.8125
11
107.206
21
-70.7216
0
LINE
8
BLACK
6
CONTINUOUS
10
107.206
20
-70.7216
11
107.257
21
-70.6446
0
LINE
8
BLACK
6
CONTINUOUS
10
107.257
20
-70.6446
11
107.334
21
-70.5931
0
LINE
8
BLACK
6
CONTINUOUS
10
107.334
20
-70.5931
11
107.425
21
-70.575
0
LINE
8
BLACK
6
CONTINUOUS
10
107.425
20
-70.575
11
107.925
21
-70.575
0
LINE
8
BLACK
6
CONTINUOUS
10
107.925
20
-70.575
11
108.016
21
-70.5931
0
LINE
8
BLACK
6
CONTINUOUS
10
102.863
20
-70.5331
11
102.94
21
-70.5846
0
LINE
8
BLACK
6
CONTINUOUS
10
102.94
20
-70.5846
11
102.992
21
-70.6616
0
LINE
8
BLACK
6
CONTINUOUS
10
102.992
20
-70.6616
11
103.01
21
-70.7525
0
LINE
8
BLACK
6
CONTINUOUS
10
103.01
20
-70.7525
11
103.01
21
-71.2275
0
LINE
8
BLACK
6
CONTINUOUS
10
103.01
20
-71.2275
11
102.992
21
-71.3184
0
LINE
8
BLACK
6
CONTINUOUS
10
102.992
20
-71.3184
11
102.94
21
-71.3954
0
LINE
8
BLACK
6
CONTINUOUS
10
102.94
20
-71.3954
11
102.863
21
-71.4469
0
LINE
8
BLACK
6
CONTINUOUS
10
102.863
20
-71.4469
11
102.772
21
-71.465
0
LINE
8
BLACK
6
CONTINUOUS
10
102.772
20
-71.465
11
102.197
21
-71.465
0
LINE
8
BLACK
6
CONTINUOUS
10
102.197
20
-71.465
11
102.107
21
-71.4469
0
LINE
8
BLACK
6
CONTINUOUS
10
102.107
20
-71.4469
11
102.03
21
-71.3954
0
LINE
8
BLACK
6
CONTINUOUS
10
102.03
20
-71.3954
11
101.978
21
-71.3184
0
LINE
8
BLACK
6
CONTINUOUS
10
101.978
20
-71.3184
11
101.96
21
-71.2275
0
LINE
8
BLACK
6
CONTINUOUS
10
101.96
20
-71.2275
11
101.96
21
-70.7525
0
LINE
8
BLACK
6
CONTINUOUS
10
101.96
20
-70.7525
11
101.978
21
-70.6616
0
LINE
8
BLACK
6
CONTINUOUS
10
101.978
20
-70.6616
11
102.03
21
-70.5846
0
LINE
8
BLACK
6
CONTINUOUS
10
102.03
20
-70.5846
11
102.107
21
-70.5331
0
LINE
8
BLACK
6
CONTINUOUS
10
102.107
20
-70.5331
11
102.197
21
-70.515
0
LINE
8
BLACK
6
CONTINUOUS
10
102.197
20
-70.515
11
102.772
21
-70.515
0
LINE
8
BLACK
6
CONTINUOUS
10
102.772
20
-70.515
11
102.863
21
-70.5331
0
LINE
8
BLACK
6
CONTINUOUS
10
101.113
20
-70.5331
11
101.19
21
-70.5846
0
LINE
8
BLACK
6
CONTINUOUS
10
101.19
20
-70.5846
11
101.242
21
-70.6616
0
LINE
8
BLACK
6
CONTINUOUS
10
101.242
20
-70.6616
11
101.26
21
-70.7525
0
LINE
8
BLACK
6
CONTINUOUS
10
101.26
20
-70.7525
11
101.26
21
-71.2275
0
LINE
8
BLACK
6
CONTINUOUS
10
101.26
20
-71.2275
11
101.242
21
-71.3184
0
LINE
8
BLACK
6
CONTINUOUS
10
101.242
20
-71.3184
11
101.19
21
-71.3954
0
LINE
8
BLACK
6
CONTINUOUS
10
101.19
20
-71.3954
11
101.113
21
-71.4469
0
LINE
8
BLACK
6
CONTINUOUS
10
101.113
20
-71.4469
11
101.022
21
-71.465
0
LINE
8
BLACK
6
CONTINUOUS
10
101.022
20
-71.465
11
100.447
21
-71.465
0
LINE
8
BLACK
6
CONTINUOUS
10
100.447
20
-71.465
11
100.357
21
-71.4469
0
LINE
8
BLACK
6
CONTINUOUS
10
100.357
20
-71.4469
11
100.28
21
-71.3954
0
LINE
8
BLACK
6
CONTINUOUS
10
100.28
20
-71.3954
11
100.228
21
-71.3184
0
LINE
8
BLACK
6
CONTINUOUS
10
100.228
20
-71.3184
11
100.21
21
-71.2275
0
LINE
8
BLACK
6
CONTINUOUS
10
100.21
20
-71.2275
11
100.21
21
-70.7525
0
LINE
8
BLACK
6
CONTINUOUS
10
100.21
20
-70.7525
11
100.228
21
-70.6616
0
LINE
8
BLACK
6
CONTINUOUS
10
100.228
20
-70.6616
11
100.28
21
-70.5846
0
LINE
8
BLACK
6
CONTINUOUS
10
100.28
20
-70.5846
11
100.357
21
-70.5331
0
LINE
8
BLACK
6
CONTINUOUS
10
100.357
20
-70.5331
11
100.447
21
-70.515
0
LINE
8
BLACK
6
CONTINUOUS
10
100.447
20
-70.515
11
101.022
21
-70.515
0
LINE
8
BLACK
6
CONTINUOUS
10
101.022
20
-70.515
11
101.113
21
-70.5331
0
LINE
8
BLACK
6
CONTINUOUS
10
92.0284
20
-68.1331
11
92.1054
21
-68.1846
0
LINE
8
BLACK
6
CONTINUOUS
10
92.1054
20
-68.1846
11
92.1569
21
-68.2616
0
LINE
8
BLACK
6
CONTINUOUS
10
92.1569
20
-68.2616
11
92.175
21
-68.3525
0
LINE
8
BLACK
6
CONTINUOUS
10
92.175
20
-68.3525
11
92.175
21
-68.8525
0
LINE
8
BLACK
6
CONTINUOUS
10
92.175
20
-68.8525
11
92.1569
21
-68.9434
0
LINE
8
BLACK
6
CONTINUOUS
10
92.1569
20
-68.9434
11
92.1054
21
-69.0204
0
LINE
8
BLACK
6
CONTINUOUS
10
92.1054
20
-69.0204
11
92.0284
21
-69.0719
0
LINE
8
BLACK
6
CONTINUOUS
10
92.0284
20
-69.0719
11
91.9375
21
-69.09
0
LINE
8
BLACK
6
CONTINUOUS
10
91.9375
20
-69.09
11
91.4625
21
-69.09
0
LINE
8
BLACK
6
CONTINUOUS
10
91.4625
20
-69.09
11
91.3716
21
-69.0719
0
LINE
8
BLACK
6
CONTINUOUS
10
91.3716
20
-69.0719
11
91.2946
21
-69.0204
0
LINE
8
BLACK
6
CONTINUOUS
10
91.2946
20
-69.0204
11
91.2431
21
-68.9434
0
LINE
8
BLACK
6
CONTINUOUS
10
91.2431
20
-68.9434
11
91.225
21
-68.8525
0
LINE
8
BLACK
6
CONTINUOUS
10
91.225
20
-68.8525
11
91.225
21
-68.3525
0
LINE
8
BLACK
6
CONTINUOUS
10
91.225
20
-68.3525
11
91.2431
21
-68.2616
0
LINE
8
BLACK
6
CONTINUOUS
10
91.2431
20
-68.2616
11
91.2946
21
-68.1846
0
LINE
8
BLACK
6
CONTINUOUS
10
91.2946
20
-68.1846
11
91.3716
21
-68.1331
0
LINE
8
BLACK
6
CONTINUOUS
10
91.3716
20
-68.1331
11
91.4625
21
-68.115
0
LINE
8
BLACK
6
CONTINUOUS
10
91.4625
20
-68.115
11
91.9375
21
-68.115
0
LINE
8
BLACK
6
CONTINUOUS
10
91.9375
20
-68.115
11
92.0284
21
-68.1331
0
LINE
8
BLACK
6
CONTINUOUS
10
112.483
20
-67.1131
11
112.56
21
-67.1646
0
LINE
8
BLACK
6
CONTINUOUS
10
112.56
20
-67.1646
11
112.612
21
-67.2416
0
LINE
8
BLACK
6
CONTINUOUS
10
112.612
20
-67.2416
11
112.63
21
-67.3325
0
LINE
8
BLACK
6
CONTINUOUS
10
112.63
20
-67.3325
11
112.63
21
-67.8075
0
LINE
8
BLACK
6
CONTINUOUS
10
112.63
20
-67.8075
11
112.612
21
-67.8984
0
LINE
8
BLACK
6
CONTINUOUS
10
112.612
20
-67.8984
11
112.56
21
-67.9754
0
LINE
8
BLACK
6
CONTINUOUS
10
112.56
20
-67.9754
11
112.483
21
-68.0269
0
LINE
8
BLACK
6
CONTINUOUS
10
112.483
20
-68.0269
11
112.392
21
-68.045
0
LINE
8
BLACK
6
CONTINUOUS
10
112.392
20
-68.045
11
111.892
21
-68.045
0
LINE
8
BLACK
6
CONTINUOUS
10
111.892
20
-68.045
11
111.802
21
-68.0269
0
LINE
8
BLACK
6
CONTINUOUS
10
111.802
20
-68.0269
11
111.725
21
-67.9754
0
LINE
8
BLACK
6
CONTINUOUS
10
111.725
20
-67.9754
11
111.673
21
-67.8984
0
LINE
8
BLACK
6
CONTINUOUS
10
111.673
20
-67.8984
11
111.655
21
-67.8075
0
LINE
8
BLACK
6
CONTINUOUS
10
111.655
20
-67.8075
11
111.655
21
-67.3325
0
LINE
8
BLACK
6
CONTINUOUS
10
111.655
20
-67.3325
11
111.673
21
-67.2416
0
LINE
8
BLACK
6
CONTINUOUS
10
111.673
20
-67.2416
11
111.725
21
-67.1646
0
LINE
8
BLACK
6
CONTINUOUS
10
111.725
20
-67.1646
11
111.802
21
-67.1131
0
LINE
8
BLACK
6
CONTINUOUS
10
111.802
20
-67.1131
11
111.892
21
-67.095
0
LINE
8
BLACK
6
CONTINUOUS
10
111.892
20
-67.095
11
112.392
21
-67.095
0
LINE
8
BLACK
6
CONTINUOUS
10
112.392
20
-67.095
11
112.483
21
-67.1131
0
LINE
8
BLACK
6
CONTINUOUS
10
110.658
20
-67.1131
11
110.735
21
-67.1646
0
LINE
8
BLACK
6
CONTINUOUS
10
110.735
20
-67.1646
11
110.787
21
-67.2416
0
LINE
8
BLACK
6
CONTINUOUS
10
110.787
20
-67.2416
11
110.805
21
-67.3325
0
LINE
8
BLACK
6
CONTINUOUS
10
110.805
20
-67.3325
11
110.805
21
-67.8075
0
LINE
8
BLACK
6
CONTINUOUS
10
110.805
20
-67.8075
11
110.787
21
-67.8984
0
LINE
8
BLACK
6
CONTINUOUS
10
110.787
20
-67.8984
11
110.735
21
-67.9754
0
LINE
8
BLACK
6
CONTINUOUS
10
110.735
20
-67.9754
11
110.658
21
-68.0269
0
LINE
8
BLACK
6
CONTINUOUS
10
110.658
20
-68.0269
11
110.567
21
-68.045
0
LINE
8
BLACK
6
CONTINUOUS
10
110.567
20
-68.045
11
110.067
21
-68.045
0
LINE
8
BLACK
6
CONTINUOUS
10
110.067
20
-68.045
11
109.977
21
-68.0269
0
LINE
8
BLACK
6
CONTINUOUS
10
109.977
20
-68.0269
11
109.9
21
-67.9754
0
LINE
8
BLACK
6
CONTINUOUS
10
109.9
20
-67.9754
11
109.848
21
-67.8984
0
LINE
8
BLACK
6
CONTINUOUS
10
109.848
20
-67.8984
11
109.83
21
-67.8075
0
LINE
8
BLACK
6
CONTINUOUS
10
109.83
20
-67.8075
11
109.83
21
-67.3325
0
LINE
8
BLACK
6
CONTINUOUS
10
109.83
20
-67.3325
11
109.848
21
-67.2416
0
LINE
8
BLACK
6
CONTINUOUS
10
109.848
20
-67.2416
11
109.9
21
-67.1646
0
LINE
8
BLACK
6
CONTINUOUS
10
109.9
20
-67.1646
11
109.977
21
-67.1131
0
LINE
8
BLACK
6
CONTINUOUS
10
109.977
20
-67.1131
11
110.067
21
-67.095
0
LINE
8
BLACK
6
CONTINUOUS
10
110.067
20
-67.095
11
110.567
21
-67.095
0
LINE
8
BLACK
6
CONTINUOUS
10
110.567
20
-67.095
11
110.658
21
-67.1131
0
LINE
8
BLACK
6
CONTINUOUS
10
92.0284
20
-66.3081
11
92.1054
21
-66.3596
0
LINE
8
BLACK
6
CONTINUOUS
10
92.1054
20
-66.3596
11
92.1569
21
-66.4366
0
LINE
8
BLACK
6
CONTINUOUS
10
92.1569
20
-66.4366
11
92.175
21
-66.5275
0
LINE
8
BLACK
6
CONTINUOUS
10
92.175
20
-66.5275
11
92.175
21
-67.0275
0
LINE
8
BLACK
6
CONTINUOUS
10
92.175
20
-67.0275
11
92.1569
21
-67.1184
0
LINE
8
BLACK
6
CONTINUOUS
10
92.1569
20
-67.1184
11
92.1054
21
-67.1954
0
LINE
8
BLACK
6
CONTINUOUS
10
92.1054
20
-67.1954
11
92.0284
21
-67.2469
0
LINE
8
BLACK
6
CONTINUOUS
10
92.0284
20
-67.2469
11
91.9375
21
-67.265
0
LINE
8
BLACK
6
CONTINUOUS
10
91.9375
20
-67.265
11
91.4625
21
-67.265
0
LINE
8
BLACK
6
CONTINUOUS
10
91.4625
20
-67.265
11
91.3716
21
-67.2469
0
LINE
8
BLACK
6
CONTINUOUS
10
91.3716
20
-67.2469
11
91.2946
21
-67.1954
0
LINE
8
BLACK
6
CONTINUOUS
10
91.2946
20
-67.1954
11
91.2431
21
-67.1184
0
LINE
8
BLACK
6
CONTINUOUS
10
91.2431
20
-67.1184
11
91.225
21
-67.0275
0
LINE
8
BLACK
6
CONTINUOUS
10
91.225
20
-67.0275
11
91.225
21
-66.5275
0
LINE
8
BLACK
6
CONTINUOUS
10
91.225
20
-66.5275
11
91.2431
21
-66.4366
0
LINE
8
BLACK
6
CONTINUOUS
10
91.2431
20
-66.4366
11
91.2946
21
-66.3596
0
LINE
8
BLACK
6
CONTINUOUS
10
91.2946
20
-66.3596
11
91.3716
21
-66.3081
0
LINE
8
BLACK
6
CONTINUOUS
10
91.3716
20
-66.3081
11
91.4625
21
-66.29
0
LINE
8
BLACK
6
CONTINUOUS
10
91.4625
20
-66.29
11
91.9375
21
-66.29
0
LINE
8
BLACK
6
CONTINUOUS
10
91.9375
20
-66.29
11
92.0284
21
-66.3081
0
LINE
8
BLACK
6
CONTINUOUS
10
105.75
20
-66.15
11
104.05
21
-66.15
0
LINE
8
BLACK
6
CONTINUOUS
10
104.05
20
-66.15
11
104.05
21
-65.15
0
LINE
8
BLACK
6
CONTINUOUS
10
104.05
20
-65.15
11
105.75
21
-65.15
0
LINE
8
BLACK
6
CONTINUOUS
10
105.75
20
-65.15
11
105.75
21
-66.15
0
LINE
8
BLACK
6
CONTINUOUS
10
99.45
20
-66.15
11
97.75
21
-66.15
0
LINE
8
BLACK
6
CONTINUOUS
10
97.75
20
-66.15
11
97.75
21
-65.15
0
LINE
8
BLACK
6
CONTINUOUS
10
97.75
20
-65.15
11
99.45
21
-65.15
0
LINE
8
BLACK
6
CONTINUOUS
10
99.45
20
-65.15
11
99.45
21
-66.15
0
LINE
8
BLACK
6
CONTINUOUS
10
91.9784
20
-63.3631
11
92.0554
21
-63.4146
0
LINE
8
BLACK
6
CONTINUOUS
10
92.0554
20
-63.4146
11
92.1069
21
-63.4916
0
LINE
8
BLACK
6
CONTINUOUS
10
92.1069
20
-63.4916
11
92.125
21
-63.5825
0
LINE
8
BLACK
6
CONTINUOUS
10
92.125
20
-63.5825
11
92.125
21
-64.0825
0
LINE
8
BLACK
6
CONTINUOUS
10
92.125
20
-64.0825
11
92.1069
21
-64.1734
0
LINE
8
BLACK
6
CONTINUOUS
10
92.1069
20
-64.1734
11
92.0554
21
-64.2504
0
LINE
8
BLACK
6
CONTINUOUS
10
92.0554
20
-64.2504
11
91.9784
21
-64.3019
0
LINE
8
BLACK
6
CONTINUOUS
10
91.9784
20
-64.3019
11
91.8875
21
-64.32
0
LINE
8
BLACK
6
CONTINUOUS
10
91.8875
20
-64.32
11
91.4125
21
-64.32
0
LINE
8
BLACK
6
CONTINUOUS
10
91.4125
20
-64.32
11
91.3216
21
-64.3019
0
LINE
8
BLACK
6
CONTINUOUS
10
91.3216
20
-64.3019
11
91.2446
21
-64.2504
0
LINE
8
BLACK
6
CONTINUOUS
10
91.2446
20
-64.2504
11
91.1931
21
-64.1734
0
LINE
8
BLACK
6
CONTINUOUS
10
91.1931
20
-64.1734
11
91.175
21
-64.0825
0
LINE
8
BLACK
6
CONTINUOUS
10
91.175
20
-64.0825
11
91.175
21
-63.5825
0
LINE
8
BLACK
6
CONTINUOUS
10
91.175
20
-63.5825
11
91.1931
21
-63.4916
0
LINE
8
BLACK
6
CONTINUOUS
10
91.1931
20
-63.4916
11
91.2446
21
-63.4146
0
LINE
8
BLACK
6
CONTINUOUS
10
91.2446
20
-63.4146
11
91.3216
21
-63.3631
0
LINE
8
BLACK
6
CONTINUOUS
10
91.3216
20
-63.3631
11
91.4125
21
-63.345
0
LINE
8
BLACK
6
CONTINUOUS
10
91.4125
20
-63.345
11
91.8875
21
-63.345
0
LINE
8
BLACK
6
CONTINUOUS
10
91.8875
20
-63.345
11
91.9784
21
-63.3631
0
LINE
8
BLACK
6
CONTINUOUS
10
91.9784
20
-61.5381
11
92.0554
21
-61.5896
0
LINE
8
BLACK
6
CONTINUOUS
10
92.0554
20
-61.5896
11
92.1069
21
-61.6666
0
LINE
8
BLACK
6
CONTINUOUS
10
92.1069
20
-61.6666
11
92.125
21
-61.7575
0
LINE
8
BLACK
6
CONTINUOUS
10
92.125
20
-61.7575
11
92.125
21
-62.2575
0
LINE
8
BLACK
6
CONTINUOUS
10
92.125
20
-62.2575
11
92.1069
21
-62.3484
0
LINE
8
BLACK
6
CONTINUOUS
10
92.1069
20
-62.3484
11
92.0554
21
-62.4254
0
LINE
8
BLACK
6
CONTINUOUS
10
92.0554
20
-62.4254
11
91.9784
21
-62.4769
0
LINE
8
BLACK
6
CONTINUOUS
10
91.9784
20
-62.4769
11
91.8875
21
-62.495
0
LINE
8
BLACK
6
CONTINUOUS
10
91.8875
20
-62.495
11
91.4125
21
-62.495
0
LINE
8
BLACK
6
CONTINUOUS
10
91.4125
20
-62.495
11
91.3216
21
-62.4769
0
LINE
8
BLACK
6
CONTINUOUS
10
91.3216
20
-62.4769
11
91.2446
21
-62.4254
0
LINE
8
BLACK
6
CONTINUOUS
10
91.2446
20
-62.4254
11
91.1931
21
-62.3484
0
LINE
8
BLACK
6
CONTINUOUS
10
91.1931
20
-62.3484
11
91.175
21
-62.2575
0
LINE
8
BLACK
6
CONTINUOUS
10
91.175
20
-62.2575
11
91.175
21
-61.7575
0
LINE
8
BLACK
6
CONTINUOUS
10
91.175
20
-61.7575
11
91.1931
21
-61.6666
0
LINE
8
BLACK
6
CONTINUOUS
10
91.1931
20
-61.6666
11
91.2446
21
-61.5896
0
LINE
8
BLACK
6
CONTINUOUS
10
91.2446
20
-61.5896
11
91.3216
21
-61.5381
0
LINE
8
BLACK
6
CONTINUOUS
10
91.3216
20
-61.5381
11
91.4125
21
-61.52
0
LINE
8
BLACK
6
CONTINUOUS
10
91.4125
20
-61.52
11
91.8875
21
-61.52
0
LINE
8
BLACK
6
CONTINUOUS
10
91.8875
20
-61.52
11
91.9784
21
-61.5381
0
LINE
8
BLACK
6
CONTINUOUS
10
105.75
20
-62.35
11
104.05
21
-62.35
0
LINE
8
BLACK
6
CONTINUOUS
10
104.05
20
-62.35
11
104.05
21
-61.35
0
LINE
8
BLACK
6
CONTINUOUS
10
104.05
20
-61.35
11
105.75
21
-61.35
0
LINE
8
BLACK
6
CONTINUOUS
10
105.75
20
-61.35
11
105.75
21
-62.35
0
LINE
8
BLACK
6
CONTINUOUS
10
99.45
20
-62.35
11
97.75
21
-62.35
0
LINE
8
BLACK
6
CONTINUOUS
10
97.75
20
-62.35
11
97.75
21
-61.35
0
LINE
8
BLACK
6
CONTINUOUS
10
97.75
20
-61.35
11
99.45
21
-61.35
0
LINE
8
BLACK
6
CONTINUOUS
10
99.45
20
-61.35
11
99.45
21
-62.35
0
LINE
8
BLACK
6
CONTINUOUS
10
97.8907
20
-56.004
11
97.9718
21
-56.0582
0
LINE
8
BLACK
6
CONTINUOUS
10
97.9718
20
-56.0582
11
98.026
21
-56.1393
0
LINE
8
BLACK
6
CONTINUOUS
10
98.026
20
-56.1393
11
98.045
21
-56.235
0
LINE
8
BLACK
6
CONTINUOUS
10
98.045
20
-56.235
11
98.045
21
-57.185
0
LINE
8
BLACK
6
CONTINUOUS
10
98.045
20
-57.185
11
98.026
21
-57.2807
0
LINE
8
BLACK
6
CONTINUOUS
10
98.026
20
-57.2807
11
97.9718
21
-57.3618
0
LINE
8
BLACK
6
CONTINUOUS
10
97.9718
20
-57.3618
11
97.8907
21
-57.416
0
LINE
8
BLACK
6
CONTINUOUS
10
97.8907
20
-57.416
11
97.795
21
-57.435
0
LINE
8
BLACK
6
CONTINUOUS
10
97.795
20
-57.435
11
97.12
21
-57.435
0
LINE
8
BLACK
6
CONTINUOUS
10
97.12
20
-57.435
11
97.0243
21
-57.416
0
LINE
8
BLACK
6
CONTINUOUS
10
97.0243
20
-57.416
11
96.9432
21
-57.3618
0
LINE
8
BLACK
6
CONTINUOUS
10
96.9432
20
-57.3618
11
96.889
21
-57.2807
0
LINE
8
BLACK
6
CONTINUOUS
10
96.889
20
-57.2807
11
96.87
21
-57.185
0
LINE
8
BLACK
6
CONTINUOUS
10
96.87
20
-57.185
11
96.87
21
-56.235
0
LINE
8
BLACK
6
CONTINUOUS
10
96.87
20
-56.235
11
96.889
21
-56.1393
0
LINE
8
BLACK
6
CONTINUOUS
10
96.889
20
-56.1393
11
96.9432
21
-56.0582
0
LINE
8
BLACK
6
CONTINUOUS
10
96.9432
20
-56.0582
11
97.0243
21
-56.004
0
LINE
8
BLACK
6
CONTINUOUS
10
97.0243
20
-56.004
11
97.12
21
-55.985
0
LINE
8
BLACK
6
CONTINUOUS
10
97.12
20
-55.985
11
97.795
21
-55.985
0
LINE
8
BLACK
6
CONTINUOUS
10
97.795
20
-55.985
11
97.8907
21
-56.004
0
LINE
8
BLACK
6
CONTINUOUS
10
95.8157
20
-56.004
11
95.8968
21
-56.0582
0
LINE
8
BLACK
6
CONTINUOUS
10
95.8968
20
-56.0582
11
95.951
21
-56.1393
0
LINE
8
BLACK
6
CONTINUOUS
10
95.951
20
-56.1393
11
95.97
21
-56.235
0
LINE
8
BLACK
6
CONTINUOUS
10
95.97
20
-56.235
11
95.97
21
-57.185
0
LINE
8
BLACK
6
CONTINUOUS
10
95.97
20
-57.185
11
95.951
21
-57.2807
0
LINE
8
BLACK
6
CONTINUOUS
10
95.951
20
-57.2807
11
95.8968
21
-57.3618
0
LINE
8
BLACK
6
CONTINUOUS
10
95.8968
20
-57.3618
11
95.8157
21
-57.416
0
LINE
8
BLACK
6
CONTINUOUS
10
95.8157
20
-57.416
11
95.72
21
-57.435
0
LINE
8
BLACK
6
CONTINUOUS
10
95.72
20
-57.435
11
95.045
21
-57.435
0
LINE
8
BLACK
6
CONTINUOUS
10
95.045
20
-57.435
11
94.9493
21
-57.416
0
LINE
8
BLACK
6
CONTINUOUS
10
94.9493
20
-57.416
11
94.8682
21
-57.3618
0
LINE
8
BLACK
6
CONTINUOUS
10
94.8682
20
-57.3618
11
94.814
21
-57.2807
0
LINE
8
BLACK
6
CONTINUOUS
10
94.814
20
-57.2807
11
94.795
21
-57.185
0
LINE
8
BLACK
6
CONTINUOUS
10
94.795
20
-57.185
11
94.795
21
-56.235
0
LINE
8
BLACK
6
CONTINUOUS
10
94.795
20
-56.235
11
94.814
21
-56.1393
0
LINE
8
BLACK
6
CONTINUOUS
10
94.814
20
-56.1393
11
94.8682
21
-56.0582
0
LINE
8
BLACK
6
CONTINUOUS
10
94.8682
20
-56.0582
11
94.9493
21
-56.004
0
LINE
8
BLACK
6
CONTINUOUS
10
94.9493
20
-56.004
11
95.045
21
-55.985
0
LINE
8
BLACK
6
CONTINUOUS
10
95.045
20
-55.985
11
95.72
21
-55.985
0
LINE
8
BLACK
6
CONTINUOUS
10
95.72
20
-55.985
11
95.8157
21
-56.004
0
LINE
8
BLACK
6
CONTINUOUS
10
95.875
20
-53.405
11
94.925
21
-53.405
0
LINE
8
BLACK
6
CONTINUOUS
10
94.925
20
-53.405
11
94.925
21
-51.955
0
LINE
8
BLACK
6
CONTINUOUS
10
94.925
20
-51.955
11
95.875
21
-51.955
0
LINE
8
BLACK
6
CONTINUOUS
10
95.875
20
-51.955
11
95.875
21
-53.405
0
LINE
8
BLACK
6
CONTINUOUS
10
97.775
20
-53.405
11
96.825
21
-53.405
0
LINE
8
BLACK
6
CONTINUOUS
10
96.825
20
-53.405
11
96.825
21
-51.955
0
LINE
8
BLACK
6
CONTINUOUS
10
96.825
20
-51.955
11
97.775
21
-51.955
0
LINE
8
BLACK
6
CONTINUOUS
10
97.775
20
-51.955
11
97.775
21
-53.405
  0
ENDSEC
  0
EOF
