<?xml version="1.0" standalone="no"?>
 <!DOCTYPE svg PUBLIC "-//W3C//DTD SVG 1.1//EN" 
 "http://www.w3.org/Graphics/SVG/1.1/DTD/svg11.dtd"> 
<svg
  xmlns:svg="http://www.w3.org/2000/svg"
  xmlns="http://www.w3.org/2000/svg"
  xmlns:xlink="http://www.w3.org/1999/xlink"
  version="1.1"
  width="29.700220cm" height="21.000720cm" viewBox="0 0 297002200 210007200">
<title>SVG Picture created as Rectangle Control Module V1.0.3-B_Paste.svg date 2022/08/29 10:25:46 </title>
  <desc>Picture generated by PCBNEW </desc>
<g style="fill:#000000; fill-opacity:1.000000;stroke:#000000; stroke-opacity:1.000000;
stroke-linecap:round; stroke-linejoin:round;"
 transform="translate(0 0) scale(1 1)">
</g>
<g style="fill:#000000; fill-opacity:0.0; 
stroke:#000000; stroke-width:0.000000; stroke-opacity:1; 
stroke-linecap:round; stroke-linejoin:round;">
<g >
</g>
<g >
</g>
<g >
</g>
<g >
</g>
<g >
</g>
<g >
</g>
<g >
</g>
<g >
</g>
<g >
</g>
<g >
</g>
<g >
</g>
<g >
</g>
<g >
</g>
<g >
</g>
<g >
</g>
<g >
</g>
<g >
</g>
<g >
</g>
<g >
</g>
<g >
</g>
<g >
</g>
<g style="fill:#000000; fill-opacity:0.0; 
stroke:#000000; stroke-width:0.000000; stroke-opacity:1; 
stroke-linecap:round; stroke-linejoin:round;">
</g>
<g style="fill:#000000; fill-opacity:0.0; 
stroke:#000000; stroke-width:1.000000; stroke-opacity:1; 
stroke-linecap:round; stroke-linejoin:round;">
</g>
<g style="fill:#000000; fill-opacity:1.0; 
stroke:#000000; stroke-width:1.000000; stroke-opacity:1; 
stroke-linecap:round; stroke-linejoin:round;">
<path style="fill:#000000; fill-opacity:1.0; 
stroke:#000000; stroke-width:1.000000; stroke-opacity:1; 
stroke-linecap:round; stroke-linejoin:round;fill-rule:evenodd;"
d="M 193400000.000000,78737500.000000
193381921.000000,78828387.000000
193330438.000000,78905438.000000
193253387.000000,78956921.000000
193162500.000000,78975000.000000
192662500.000000,78975000.000000
192571613.000000,78956921.000000
192494562.000000,78905438.000000
192443079.000000,78828387.000000
192425000.000000,78737500.000000
192425000.000000,78262500.000000
192443079.000000,78171613.000000
192494562.000000,78094562.000000
192571613.000000,78043079.000000
192662500.000000,78025000.000000
193162500.000000,78025000.000000
193253387.000000,78043079.000000
193330438.000000,78094562.000000
193381921.000000,78171613.000000
193400000.000000,78262500.000000
Z" /> 
<path style="fill:#000000; fill-opacity:1.0; 
stroke:#000000; stroke-width:1.000000; stroke-opacity:1; 
stroke-linecap:round; stroke-linejoin:round;fill-rule:evenodd;"
d="M 191575000.000000,78737500.000000
191556921.000000,78828387.000000
191505438.000000,78905438.000000
191428387.000000,78956921.000000
191337500.000000,78975000.000000
190837500.000000,78975000.000000
190746613.000000,78956921.000000
190669562.000000,78905438.000000
190618079.000000,78828387.000000
190600000.000000,78737500.000000
190600000.000000,78262500.000000
190618079.000000,78171613.000000
190669562.000000,78094562.000000
190746613.000000,78043079.000000
190837500.000000,78025000.000000
191337500.000000,78025000.000000
191428387.000000,78043079.000000
191505438.000000,78094562.000000
191556921.000000,78171613.000000
191575000.000000,78262500.000000
Z" /> 
</g>
<g >
</g>
<g style="fill:#000000; fill-opacity:1.0; 
stroke:#000000; stroke-width:1.000000; stroke-opacity:1; 
stroke-linecap:round; stroke-linejoin:round;">
<path style="fill:#000000; fill-opacity:1.0; 
stroke:#000000; stroke-width:1.000000; stroke-opacity:1; 
stroke-linecap:round; stroke-linejoin:round;fill-rule:evenodd;"
d="M 186825000.000000,82300000.000000
186836418.000000,82242597.000000
186868934.000000,82193934.000000
186917597.000000,82161418.000000
186975000.000000,82150000.000000
188150000.000000,82150000.000000
188207403.000000,82161418.000000
188256066.000000,82193934.000000
188288582.000000,82242597.000000
188300000.000000,82300000.000000
188300000.000000,82600000.000000
188288582.000000,82657403.000000
188256066.000000,82706066.000000
188207403.000000,82738582.000000
188150000.000000,82750000.000000
186975000.000000,82750000.000000
186917597.000000,82738582.000000
186868934.000000,82706066.000000
186836418.000000,82657403.000000
186825000.000000,82600000.000000
Z" /> 
<path style="fill:#000000; fill-opacity:1.0; 
stroke:#000000; stroke-width:1.000000; stroke-opacity:1; 
stroke-linecap:round; stroke-linejoin:round;fill-rule:evenodd;"
d="M 186825000.000000,80400000.000000
186836418.000000,80342597.000000
186868934.000000,80293934.000000
186917597.000000,80261418.000000
186975000.000000,80250000.000000
188150000.000000,80250000.000000
188207403.000000,80261418.000000
188256066.000000,80293934.000000
188288582.000000,80342597.000000
188300000.000000,80400000.000000
188300000.000000,80700000.000000
188288582.000000,80757403.000000
188256066.000000,80806066.000000
188207403.000000,80838582.000000
188150000.000000,80850000.000000
186975000.000000,80850000.000000
186917597.000000,80838582.000000
186868934.000000,80806066.000000
186836418.000000,80757403.000000
186825000.000000,80700000.000000
Z" /> 
<path style="fill:#000000; fill-opacity:1.0; 
stroke:#000000; stroke-width:1.000000; stroke-opacity:1; 
stroke-linecap:round; stroke-linejoin:round;fill-rule:evenodd;"
d="M 188700000.000000,81350000.000000
188711418.000000,81292597.000000
188743934.000000,81243934.000000
188792597.000000,81211418.000000
188850000.000000,81200000.000000
190025000.000000,81200000.000000
190082403.000000,81211418.000000
190131066.000000,81243934.000000
190163582.000000,81292597.000000
190175000.000000,81350000.000000
190175000.000000,81650000.000000
190163582.000000,81707403.000000
190131066.000000,81756066.000000
190082403.000000,81788582.000000
190025000.000000,81800000.000000
188850000.000000,81800000.000000
188792597.000000,81788582.000000
188743934.000000,81756066.000000
188711418.000000,81707403.000000
188700000.000000,81650000.000000
Z" /> 
</g>
<g >
</g>
<g style="fill:#000000; fill-opacity:1.0; 
stroke:#000000; stroke-width:1.000000; stroke-opacity:1; 
stroke-linecap:round; stroke-linejoin:round;">
<path style="fill:#000000; fill-opacity:1.0; 
stroke:#000000; stroke-width:1.000000; stroke-opacity:1; 
stroke-linecap:round; stroke-linejoin:round;fill-rule:evenodd;"
d="M 189987500.000000,91237500.000000
189969421.000000,91328387.000000
189917938.000000,91405438.000000
189840887.000000,91456921.000000
189750000.000000,91475000.000000
189250000.000000,91475000.000000
189159113.000000,91456921.000000
189082062.000000,91405438.000000
189030579.000000,91328387.000000
189012500.000000,91237500.000000
189012500.000000,90762500.000000
189030579.000000,90671613.000000
189082062.000000,90594562.000000
189159113.000000,90543079.000000
189250000.000000,90525000.000000
189750000.000000,90525000.000000
189840887.000000,90543079.000000
189917938.000000,90594562.000000
189969421.000000,90671613.000000
189987500.000000,90762500.000000
Z" /> 
<path style="fill:#000000; fill-opacity:1.0; 
stroke:#000000; stroke-width:1.000000; stroke-opacity:1; 
stroke-linecap:round; stroke-linejoin:round;fill-rule:evenodd;"
d="M 188162500.000000,91237500.000000
188144421.000000,91328387.000000
188092938.000000,91405438.000000
188015887.000000,91456921.000000
187925000.000000,91475000.000000
187425000.000000,91475000.000000
187334113.000000,91456921.000000
187257062.000000,91405438.000000
187205579.000000,91328387.000000
187187500.000000,91237500.000000
187187500.000000,90762500.000000
187205579.000000,90671613.000000
187257062.000000,90594562.000000
187334113.000000,90543079.000000
187425000.000000,90525000.000000
187925000.000000,90525000.000000
188015887.000000,90543079.000000
188092938.000000,90594562.000000
188144421.000000,90671613.000000
188162500.000000,90762500.000000
Z" /> 
</g>
<g >
</g>
<g style="fill:#000000; fill-opacity:1.0; 
stroke:#000000; stroke-width:1.000000; stroke-opacity:1; 
stroke-linecap:round; stroke-linejoin:round;">
<path style="fill:#000000; fill-opacity:1.0; 
stroke:#000000; stroke-width:1.000000; stroke-opacity:1; 
stroke-linecap:round; stroke-linejoin:round;fill-rule:evenodd;"
d="M 190630000.000000,85225000.000000
190630000.000000,85875000.000000
189070000.000000,85875000.000000
189070000.000000,85225000.000000
Z" /> 
<path style="fill:#000000; fill-opacity:1.0; 
stroke:#000000; stroke-width:1.000000; stroke-opacity:1; 
stroke-linecap:round; stroke-linejoin:round;fill-rule:evenodd;"
d="M 190630000.000000,86175000.000000
190630000.000000,86825000.000000
189070000.000000,86825000.000000
189070000.000000,86175000.000000
Z" /> 
<path style="fill:#000000; fill-opacity:1.0; 
stroke:#000000; stroke-width:1.000000; stroke-opacity:1; 
stroke-linecap:round; stroke-linejoin:round;fill-rule:evenodd;"
d="M 190630000.000000,87125000.000000
190630000.000000,87775000.000000
189070000.000000,87775000.000000
189070000.000000,87125000.000000
Z" /> 
<path style="fill:#000000; fill-opacity:1.0; 
stroke:#000000; stroke-width:1.000000; stroke-opacity:1; 
stroke-linecap:round; stroke-linejoin:round;fill-rule:evenodd;"
d="M 187930000.000000,87125000.000000
187930000.000000,87775000.000000
186370000.000000,87775000.000000
186370000.000000,87125000.000000
Z" /> 
<path style="fill:#000000; fill-opacity:1.0; 
stroke:#000000; stroke-width:1.000000; stroke-opacity:1; 
stroke-linecap:round; stroke-linejoin:round;fill-rule:evenodd;"
d="M 187930000.000000,86175000.000000
187930000.000000,86825000.000000
186370000.000000,86825000.000000
186370000.000000,86175000.000000
Z" /> 
<path style="fill:#000000; fill-opacity:1.0; 
stroke:#000000; stroke-width:1.000000; stroke-opacity:1; 
stroke-linecap:round; stroke-linejoin:round;fill-rule:evenodd;"
d="M 187930000.000000,85225000.000000
187930000.000000,85875000.000000
186370000.000000,85875000.000000
186370000.000000,85225000.000000
Z" /> 
</g>
<g >
</g>
<g style="fill:#000000; fill-opacity:1.0; 
stroke:#000000; stroke-width:1.000000; stroke-opacity:1; 
stroke-linecap:round; stroke-linejoin:round;">
<path style="fill:#000000; fill-opacity:1.0; 
stroke:#000000; stroke-width:1.000000; stroke-opacity:1; 
stroke-linecap:round; stroke-linejoin:round;fill-rule:evenodd;"
d="M 192325000.000000,87300000.000000
192336418.000000,87242597.000000
192368934.000000,87193934.000000
192417597.000000,87161418.000000
192475000.000000,87150000.000000
193650000.000000,87150000.000000
193707403.000000,87161418.000000
193756066.000000,87193934.000000
193788582.000000,87242597.000000
193800000.000000,87300000.000000
193800000.000000,87600000.000000
193788582.000000,87657403.000000
193756066.000000,87706066.000000
193707403.000000,87738582.000000
193650000.000000,87750000.000000
192475000.000000,87750000.000000
192417597.000000,87738582.000000
192368934.000000,87706066.000000
192336418.000000,87657403.000000
192325000.000000,87600000.000000
Z" /> 
<path style="fill:#000000; fill-opacity:1.0; 
stroke:#000000; stroke-width:1.000000; stroke-opacity:1; 
stroke-linecap:round; stroke-linejoin:round;fill-rule:evenodd;"
d="M 192325000.000000,85400000.000000
192336418.000000,85342597.000000
192368934.000000,85293934.000000
192417597.000000,85261418.000000
192475000.000000,85250000.000000
193650000.000000,85250000.000000
193707403.000000,85261418.000000
193756066.000000,85293934.000000
193788582.000000,85342597.000000
193800000.000000,85400000.000000
193800000.000000,85700000.000000
193788582.000000,85757403.000000
193756066.000000,85806066.000000
193707403.000000,85838582.000000
193650000.000000,85850000.000000
192475000.000000,85850000.000000
192417597.000000,85838582.000000
192368934.000000,85806066.000000
192336418.000000,85757403.000000
192325000.000000,85700000.000000
Z" /> 
<path style="fill:#000000; fill-opacity:1.0; 
stroke:#000000; stroke-width:1.000000; stroke-opacity:1; 
stroke-linecap:round; stroke-linejoin:round;fill-rule:evenodd;"
d="M 194200000.000000,86350000.000000
194211418.000000,86292597.000000
194243934.000000,86243934.000000
194292597.000000,86211418.000000
194350000.000000,86200000.000000
195525000.000000,86200000.000000
195582403.000000,86211418.000000
195631066.000000,86243934.000000
195663582.000000,86292597.000000
195675000.000000,86350000.000000
195675000.000000,86650000.000000
195663582.000000,86707403.000000
195631066.000000,86756066.000000
195582403.000000,86788582.000000
195525000.000000,86800000.000000
194350000.000000,86800000.000000
194292597.000000,86788582.000000
194243934.000000,86756066.000000
194211418.000000,86707403.000000
194200000.000000,86650000.000000
Z" /> 
</g>
<g >
</g>
<g style="fill:#000000; fill-opacity:1.0; 
stroke:#000000; stroke-width:1.000000; stroke-opacity:1; 
stroke-linecap:round; stroke-linejoin:round;">
<path style="fill:#000000; fill-opacity:1.0; 
stroke:#000000; stroke-width:1.000000; stroke-opacity:1; 
stroke-linecap:round; stroke-linejoin:round;fill-rule:evenodd;"
d="M 187900000.000000,78737500.000000
187881921.000000,78828387.000000
187830438.000000,78905438.000000
187753387.000000,78956921.000000
187662500.000000,78975000.000000
187062500.000000,78975000.000000
186971613.000000,78956921.000000
186894562.000000,78905438.000000
186843079.000000,78828387.000000
186825000.000000,78737500.000000
186825000.000000,78262500.000000
186843079.000000,78171613.000000
186894562.000000,78094562.000000
186971613.000000,78043079.000000
187062500.000000,78025000.000000
187662500.000000,78025000.000000
187753387.000000,78043079.000000
187830438.000000,78094562.000000
187881921.000000,78171613.000000
187900000.000000,78262500.000000
Z" /> 
<path style="fill:#000000; fill-opacity:1.0; 
stroke:#000000; stroke-width:1.000000; stroke-opacity:1; 
stroke-linecap:round; stroke-linejoin:round;fill-rule:evenodd;"
d="M 186175000.000000,78737500.000000
186156921.000000,78828387.000000
186105438.000000,78905438.000000
186028387.000000,78956921.000000
185937500.000000,78975000.000000
185337500.000000,78975000.000000
185246613.000000,78956921.000000
185169562.000000,78905438.000000
185118079.000000,78828387.000000
185100000.000000,78737500.000000
185100000.000000,78262500.000000
185118079.000000,78171613.000000
185169562.000000,78094562.000000
185246613.000000,78043079.000000
185337500.000000,78025000.000000
185937500.000000,78025000.000000
186028387.000000,78043079.000000
186105438.000000,78094562.000000
186156921.000000,78171613.000000
186175000.000000,78262500.000000
Z" /> 
</g>
<g >
</g>
<g >
</g>
<g >
</g>
</g> 
</svg>
