  0
SECTION
  2
HEADER
  9
$ANGBASE
  50
0.0
  9
$ANGDIR
  70
1
  9
$MEASUREMENT
  70
1
  0
ENDSEC
  0
SECTION
  2
TABLES
  0
TABLE
  2
LTYPE
  70
4
  0
LTYPE
  5
40F
  2
CONTINUOUS
  70
0
  3
Solid line
  72
65
  73
0
  40
0.0
  0
LTYPE
  5
410
  2
DASHDOT
 70
0
  3
Dash Dot ____ _ ____ _
 72
65
 73
4
 40
2.0
 49
1.25
 49
-0.25
 49
0.25
 49
-0.25
  0
LTYPE
  5
411
  2
DASHED
 70
0
  3
Dashed __ __ __ __ __
 72
65
 73
2
 40
0.75
 49
0.5
 49
-0.25
  0
LTYPE
  5
43B
  2
DOTTED
 70
0
  3
Dotted .  .  .  .
 72
65
 73
2
 40
0.2
 49
0.0
 49
-0.2
  0
ENDTAB
  0
TABLE
  2
STYLE
  70
4
  0
STYLE
  2
KICAD
  70
0
  40
0
  41
1
  42
1
  50
0
  71
0
  3
isocp.shx
  0
STYLE
  2
KICADB
  70
0
  40
0
  41
1
  42
1
  50
0
  71
0
  3
isocp.shx
  0
STYLE
  2
KICADI
  70
0
  40
0
  41
1
  42
1
  50
15
  71
0
  3
isocp.shx
  0
STYLE
  2
KICADBI
  70
0
  40
0
  41
1
  42
1
  50
15
  71
0
  3
isocp.shx
  0
ENDTAB
  0
TABLE
  2
LAYER
  70
1
  0
LAYER
  2
BLACK
  70
0
  62
7
  6
CONTINUOUS
  0
ENDTAB
  0
ENDSEC
  0
SECTION
  2
ENTITIES
0
LINE
8
BLACK
6
CONTINUOUS
10
190.4
20
-104.52
11
189.64
21
-104.52
0
LINE
8
BLACK
6
CONTINUOUS
10
189.64
20
-104.52
11
189.64
21
-103.32
0
LINE
8
BLACK
6
CONTINUOUS
10
189.64
20
-103.32
11
190.4
21
-103.32
0
LINE
8
BLACK
6
CONTINUOUS
10
190.4
20
-103.32
11
190.4
21
-104.52
0
LINE
8
BLACK
6
CONTINUOUS
10
191.65
20
-104.52
11
190.85
21
-104.52
0
LINE
8
BLACK
6
CONTINUOUS
10
190.85
20
-104.52
11
190.85
21
-103.32
0
LINE
8
BLACK
6
CONTINUOUS
10
190.85
20
-103.32
11
191.65
21
-103.32
0
LINE
8
BLACK
6
CONTINUOUS
10
191.65
20
-103.32
11
191.65
21
-104.52
0
LINE
8
BLACK
6
CONTINUOUS
10
189.35
20
-104.52
11
188.65
21
-104.52
0
LINE
8
BLACK
6
CONTINUOUS
10
188.65
20
-104.52
11
188.65
21
-103.32
0
LINE
8
BLACK
6
CONTINUOUS
10
188.65
20
-103.32
11
189.35
21
-103.32
0
LINE
8
BLACK
6
CONTINUOUS
10
189.35
20
-103.32
11
189.35
21
-104.52
0
LINE
8
BLACK
6
CONTINUOUS
10
187.36
20
-104.52
11
186.6
21
-104.52
0
LINE
8
BLACK
6
CONTINUOUS
10
186.6
20
-104.52
11
186.6
21
-103.32
0
LINE
8
BLACK
6
CONTINUOUS
10
186.6
20
-103.32
11
187.36
21
-103.32
0
LINE
8
BLACK
6
CONTINUOUS
10
187.36
20
-103.32
11
187.36
21
-104.52
0
LINE
8
BLACK
6
CONTINUOUS
10
186.15
20
-104.52
11
185.35
21
-104.52
0
LINE
8
BLACK
6
CONTINUOUS
10
185.35
20
-104.52
11
185.35
21
-103.32
0
LINE
8
BLACK
6
CONTINUOUS
10
185.35
20
-103.32
11
186.15
21
-103.32
0
LINE
8
BLACK
6
CONTINUOUS
10
186.15
20
-103.32
11
186.15
21
-104.52
0
LINE
8
BLACK
6
CONTINUOUS
10
188.35
20
-104.52
11
187.65
21
-104.52
0
LINE
8
BLACK
6
CONTINUOUS
10
187.65
20
-104.52
11
187.65
21
-103.32
0
LINE
8
BLACK
6
CONTINUOUS
10
187.65
20
-103.32
11
188.35
21
-103.32
0
LINE
8
BLACK
6
CONTINUOUS
10
188.35
20
-103.32
11
188.35
21
-104.52
0
LINE
8
BLACK
6
CONTINUOUS
10
177.528
20
-101.043
11
177.605
21
-101.095
0
LINE
8
BLACK
6
CONTINUOUS
10
177.605
20
-101.095
11
177.657
21
-101.172
0
LINE
8
BLACK
6
CONTINUOUS
10
177.657
20
-101.172
11
177.675
21
-101.262
0
LINE
8
BLACK
6
CONTINUOUS
10
177.675
20
-101.262
11
177.675
21
-101.737
0
LINE
8
BLACK
6
CONTINUOUS
10
177.675
20
-101.737
11
177.657
21
-101.828
0
LINE
8
BLACK
6
CONTINUOUS
10
177.657
20
-101.828
11
177.605
21
-101.905
0
LINE
8
BLACK
6
CONTINUOUS
10
177.605
20
-101.905
11
177.528
21
-101.957
0
LINE
8
BLACK
6
CONTINUOUS
10
177.528
20
-101.957
11
177.438
21
-101.975
0
LINE
8
BLACK
6
CONTINUOUS
10
177.438
20
-101.975
11
176.838
21
-101.975
0
LINE
8
BLACK
6
CONTINUOUS
10
176.838
20
-101.975
11
176.747
21
-101.957
0
LINE
8
BLACK
6
CONTINUOUS
10
176.747
20
-101.957
11
176.67
21
-101.905
0
LINE
8
BLACK
6
CONTINUOUS
10
176.67
20
-101.905
11
176.618
21
-101.828
0
LINE
8
BLACK
6
CONTINUOUS
10
176.618
20
-101.828
11
176.6
21
-101.737
0
LINE
8
BLACK
6
CONTINUOUS
10
176.6
20
-101.737
11
176.6
21
-101.262
0
LINE
8
BLACK
6
CONTINUOUS
10
176.6
20
-101.262
11
176.618
21
-101.172
0
LINE
8
BLACK
6
CONTINUOUS
10
176.618
20
-101.172
11
176.67
21
-101.095
0
LINE
8
BLACK
6
CONTINUOUS
10
176.67
20
-101.095
11
176.747
21
-101.043
0
LINE
8
BLACK
6
CONTINUOUS
10
176.747
20
-101.043
11
176.838
21
-101.025
0
LINE
8
BLACK
6
CONTINUOUS
10
176.838
20
-101.025
11
177.438
21
-101.025
0
LINE
8
BLACK
6
CONTINUOUS
10
177.438
20
-101.025
11
177.528
21
-101.043
0
LINE
8
BLACK
6
CONTINUOUS
10
179.253
20
-101.043
11
179.33
21
-101.095
0
LINE
8
BLACK
6
CONTINUOUS
10
179.33
20
-101.095
11
179.382
21
-101.172
0
LINE
8
BLACK
6
CONTINUOUS
10
179.382
20
-101.172
11
179.4
21
-101.262
0
LINE
8
BLACK
6
CONTINUOUS
10
179.4
20
-101.262
11
179.4
21
-101.737
0
LINE
8
BLACK
6
CONTINUOUS
10
179.4
20
-101.737
11
179.382
21
-101.828
0
LINE
8
BLACK
6
CONTINUOUS
10
179.382
20
-101.828
11
179.33
21
-101.905
0
LINE
8
BLACK
6
CONTINUOUS
10
179.33
20
-101.905
11
179.253
21
-101.957
0
LINE
8
BLACK
6
CONTINUOUS
10
179.253
20
-101.957
11
179.162
21
-101.975
0
LINE
8
BLACK
6
CONTINUOUS
10
179.162
20
-101.975
11
178.562
21
-101.975
0
LINE
8
BLACK
6
CONTINUOUS
10
178.562
20
-101.975
11
178.472
21
-101.957
0
LINE
8
BLACK
6
CONTINUOUS
10
178.472
20
-101.957
11
178.395
21
-101.905
0
LINE
8
BLACK
6
CONTINUOUS
10
178.395
20
-101.905
11
178.343
21
-101.828
0
LINE
8
BLACK
6
CONTINUOUS
10
178.343
20
-101.828
11
178.325
21
-101.737
0
LINE
8
BLACK
6
CONTINUOUS
10
178.325
20
-101.737
11
178.325
21
-101.262
0
LINE
8
BLACK
6
CONTINUOUS
10
178.325
20
-101.262
11
178.343
21
-101.172
0
LINE
8
BLACK
6
CONTINUOUS
10
178.343
20
-101.172
11
178.395
21
-101.095
0
LINE
8
BLACK
6
CONTINUOUS
10
178.395
20
-101.095
11
178.472
21
-101.043
0
LINE
8
BLACK
6
CONTINUOUS
10
178.472
20
-101.043
11
178.562
21
-101.025
0
LINE
8
BLACK
6
CONTINUOUS
10
178.562
20
-101.025
11
179.162
21
-101.025
0
LINE
8
BLACK
6
CONTINUOUS
10
179.162
20
-101.025
11
179.253
21
-101.043
0
LINE
8
BLACK
6
CONTINUOUS
10
183.928
20
-99.0431
11
184.005
21
-99.0946
0
LINE
8
BLACK
6
CONTINUOUS
10
184.005
20
-99.0946
11
184.057
21
-99.1716
0
LINE
8
BLACK
6
CONTINUOUS
10
184.057
20
-99.1716
11
184.075
21
-99.2625
0
LINE
8
BLACK
6
CONTINUOUS
10
184.075
20
-99.2625
11
184.075
21
-99.7375
0
LINE
8
BLACK
6
CONTINUOUS
10
184.075
20
-99.7375
11
184.057
21
-99.8284
0
LINE
8
BLACK
6
CONTINUOUS
10
184.057
20
-99.8284
11
184.005
21
-99.9054
0
LINE
8
BLACK
6
CONTINUOUS
10
184.005
20
-99.9054
11
183.928
21
-99.9569
0
LINE
8
BLACK
6
CONTINUOUS
10
183.928
20
-99.9569
11
183.838
21
-99.975
0
LINE
8
BLACK
6
CONTINUOUS
10
183.838
20
-99.975
11
183.338
21
-99.975
0
LINE
8
BLACK
6
CONTINUOUS
10
183.338
20
-99.975
11
183.247
21
-99.9569
0
LINE
8
BLACK
6
CONTINUOUS
10
183.247
20
-99.9569
11
183.17
21
-99.9054
0
LINE
8
BLACK
6
CONTINUOUS
10
183.17
20
-99.9054
11
183.118
21
-99.8284
0
LINE
8
BLACK
6
CONTINUOUS
10
183.118
20
-99.8284
11
183.1
21
-99.7375
0
LINE
8
BLACK
6
CONTINUOUS
10
183.1
20
-99.7375
11
183.1
21
-99.2625
0
LINE
8
BLACK
6
CONTINUOUS
10
183.1
20
-99.2625
11
183.118
21
-99.1716
0
LINE
8
BLACK
6
CONTINUOUS
10
183.118
20
-99.1716
11
183.17
21
-99.0946
0
LINE
8
BLACK
6
CONTINUOUS
10
183.17
20
-99.0946
11
183.247
21
-99.0431
0
LINE
8
BLACK
6
CONTINUOUS
10
183.247
20
-99.0431
11
183.338
21
-99.025
0
LINE
8
BLACK
6
CONTINUOUS
10
183.338
20
-99.025
11
183.838
21
-99.025
0
LINE
8
BLACK
6
CONTINUOUS
10
183.838
20
-99.025
11
183.928
21
-99.0431
0
LINE
8
BLACK
6
CONTINUOUS
10
189.878
20
-99.0431
11
189.955
21
-99.0946
0
LINE
8
BLACK
6
CONTINUOUS
10
189.955
20
-99.0946
11
190.007
21
-99.1716
0
LINE
8
BLACK
6
CONTINUOUS
10
190.007
20
-99.1716
11
190.025
21
-99.2625
0
LINE
8
BLACK
6
CONTINUOUS
10
190.025
20
-99.2625
11
190.025
21
-99.7375
0
LINE
8
BLACK
6
CONTINUOUS
10
190.025
20
-99.7375
11
190.007
21
-99.8284
0
LINE
8
BLACK
6
CONTINUOUS
10
190.007
20
-99.8284
11
189.955
21
-99.9054
0
LINE
8
BLACK
6
CONTINUOUS
10
189.955
20
-99.9054
11
189.878
21
-99.9569
0
LINE
8
BLACK
6
CONTINUOUS
10
189.878
20
-99.9569
11
189.787
21
-99.975
0
LINE
8
BLACK
6
CONTINUOUS
10
189.787
20
-99.975
11
189.212
21
-99.975
0
LINE
8
BLACK
6
CONTINUOUS
10
189.212
20
-99.975
11
189.122
21
-99.9569
0
LINE
8
BLACK
6
CONTINUOUS
10
189.122
20
-99.9569
11
189.045
21
-99.9054
0
LINE
8
BLACK
6
CONTINUOUS
10
189.045
20
-99.9054
11
188.993
21
-99.8284
0
LINE
8
BLACK
6
CONTINUOUS
10
188.993
20
-99.8284
11
188.975
21
-99.7375
0
LINE
8
BLACK
6
CONTINUOUS
10
188.975
20
-99.7375
11
188.975
21
-99.2625
0
LINE
8
BLACK
6
CONTINUOUS
10
188.975
20
-99.2625
11
188.993
21
-99.1716
0
LINE
8
BLACK
6
CONTINUOUS
10
188.993
20
-99.1716
11
189.045
21
-99.0946
0
LINE
8
BLACK
6
CONTINUOUS
10
189.045
20
-99.0946
11
189.122
21
-99.0431
0
LINE
8
BLACK
6
CONTINUOUS
10
189.122
20
-99.0431
11
189.212
21
-99.025
0
LINE
8
BLACK
6
CONTINUOUS
10
189.212
20
-99.025
11
189.787
21
-99.025
0
LINE
8
BLACK
6
CONTINUOUS
10
189.787
20
-99.025
11
189.878
21
-99.0431
0
LINE
8
BLACK
6
CONTINUOUS
10
188.128
20
-99.0431
11
188.205
21
-99.0946
0
LINE
8
BLACK
6
CONTINUOUS
10
188.205
20
-99.0946
11
188.257
21
-99.1716
0
LINE
8
BLACK
6
CONTINUOUS
10
188.257
20
-99.1716
11
188.275
21
-99.2625
0
LINE
8
BLACK
6
CONTINUOUS
10
188.275
20
-99.2625
11
188.275
21
-99.7375
0
LINE
8
BLACK
6
CONTINUOUS
10
188.275
20
-99.7375
11
188.257
21
-99.8284
0
LINE
8
BLACK
6
CONTINUOUS
10
188.257
20
-99.8284
11
188.205
21
-99.9054
0
LINE
8
BLACK
6
CONTINUOUS
10
188.205
20
-99.9054
11
188.128
21
-99.9569
0
LINE
8
BLACK
6
CONTINUOUS
10
188.128
20
-99.9569
11
188.037
21
-99.975
0
LINE
8
BLACK
6
CONTINUOUS
10
188.037
20
-99.975
11
187.463
21
-99.975
0
LINE
8
BLACK
6
CONTINUOUS
10
187.463
20
-99.975
11
187.372
21
-99.9569
0
LINE
8
BLACK
6
CONTINUOUS
10
187.372
20
-99.9569
11
187.295
21
-99.9054
0
LINE
8
BLACK
6
CONTINUOUS
10
187.295
20
-99.9054
11
187.243
21
-99.8284
0
LINE
8
BLACK
6
CONTINUOUS
10
187.243
20
-99.8284
11
187.225
21
-99.7375
0
LINE
8
BLACK
6
CONTINUOUS
10
187.225
20
-99.7375
11
187.225
21
-99.2625
0
LINE
8
BLACK
6
CONTINUOUS
10
187.225
20
-99.2625
11
187.243
21
-99.1716
0
LINE
8
BLACK
6
CONTINUOUS
10
187.243
20
-99.1716
11
187.295
21
-99.0946
0
LINE
8
BLACK
6
CONTINUOUS
10
187.295
20
-99.0946
11
187.372
21
-99.0431
0
LINE
8
BLACK
6
CONTINUOUS
10
187.372
20
-99.0431
11
187.463
21
-99.025
0
LINE
8
BLACK
6
CONTINUOUS
10
187.463
20
-99.025
11
188.037
21
-99.025
0
LINE
8
BLACK
6
CONTINUOUS
10
188.037
20
-99.025
11
188.128
21
-99.0431
0
LINE
8
BLACK
6
CONTINUOUS
10
185.753
20
-99.0431
11
185.83
21
-99.0946
0
LINE
8
BLACK
6
CONTINUOUS
10
185.83
20
-99.0946
11
185.882
21
-99.1716
0
LINE
8
BLACK
6
CONTINUOUS
10
185.882
20
-99.1716
11
185.9
21
-99.2625
0
LINE
8
BLACK
6
CONTINUOUS
10
185.9
20
-99.2625
11
185.9
21
-99.7375
0
LINE
8
BLACK
6
CONTINUOUS
10
185.9
20
-99.7375
11
185.882
21
-99.8284
0
LINE
8
BLACK
6
CONTINUOUS
10
185.882
20
-99.8284
11
185.83
21
-99.9054
0
LINE
8
BLACK
6
CONTINUOUS
10
185.83
20
-99.9054
11
185.753
21
-99.9569
0
LINE
8
BLACK
6
CONTINUOUS
10
185.753
20
-99.9569
11
185.662
21
-99.975
0
LINE
8
BLACK
6
CONTINUOUS
10
185.662
20
-99.975
11
185.162
21
-99.975
0
LINE
8
BLACK
6
CONTINUOUS
10
185.162
20
-99.975
11
185.072
21
-99.9569
0
LINE
8
BLACK
6
CONTINUOUS
10
185.072
20
-99.9569
11
184.995
21
-99.9054
0
LINE
8
BLACK
6
CONTINUOUS
10
184.995
20
-99.9054
11
184.943
21
-99.8284
0
LINE
8
BLACK
6
CONTINUOUS
10
184.943
20
-99.8284
11
184.925
21
-99.7375
0
LINE
8
BLACK
6
CONTINUOUS
10
184.925
20
-99.7375
11
184.925
21
-99.2625
0
LINE
8
BLACK
6
CONTINUOUS
10
184.925
20
-99.2625
11
184.943
21
-99.1716
0
LINE
8
BLACK
6
CONTINUOUS
10
184.943
20
-99.1716
11
184.995
21
-99.0946
0
LINE
8
BLACK
6
CONTINUOUS
10
184.995
20
-99.0946
11
185.072
21
-99.0431
0
LINE
8
BLACK
6
CONTINUOUS
10
185.072
20
-99.0431
11
185.162
21
-99.025
0
LINE
8
BLACK
6
CONTINUOUS
10
185.162
20
-99.025
11
185.662
21
-99.025
0
LINE
8
BLACK
6
CONTINUOUS
10
185.662
20
-99.025
11
185.753
21
-99.0431
0
LINE
8
BLACK
6
CONTINUOUS
10
177.528
20
-96.5431
11
177.605
21
-96.5946
0
LINE
8
BLACK
6
CONTINUOUS
10
177.605
20
-96.5946
11
177.657
21
-96.6716
0
LINE
8
BLACK
6
CONTINUOUS
10
177.657
20
-96.6716
11
177.675
21
-96.7625
0
LINE
8
BLACK
6
CONTINUOUS
10
177.675
20
-96.7625
11
177.675
21
-97.2375
0
LINE
8
BLACK
6
CONTINUOUS
10
177.675
20
-97.2375
11
177.657
21
-97.3284
0
LINE
8
BLACK
6
CONTINUOUS
10
177.657
20
-97.3284
11
177.605
21
-97.4054
0
LINE
8
BLACK
6
CONTINUOUS
10
177.605
20
-97.4054
11
177.528
21
-97.4569
0
LINE
8
BLACK
6
CONTINUOUS
10
177.528
20
-97.4569
11
177.438
21
-97.475
0
LINE
8
BLACK
6
CONTINUOUS
10
177.438
20
-97.475
11
176.838
21
-97.475
0
LINE
8
BLACK
6
CONTINUOUS
10
176.838
20
-97.475
11
176.747
21
-97.4569
0
LINE
8
BLACK
6
CONTINUOUS
10
176.747
20
-97.4569
11
176.67
21
-97.4054
0
LINE
8
BLACK
6
CONTINUOUS
10
176.67
20
-97.4054
11
176.618
21
-97.3284
0
LINE
8
BLACK
6
CONTINUOUS
10
176.618
20
-97.3284
11
176.6
21
-97.2375
0
LINE
8
BLACK
6
CONTINUOUS
10
176.6
20
-97.2375
11
176.6
21
-96.7625
0
LINE
8
BLACK
6
CONTINUOUS
10
176.6
20
-96.7625
11
176.618
21
-96.6716
0
LINE
8
BLACK
6
CONTINUOUS
10
176.618
20
-96.6716
11
176.67
21
-96.5946
0
LINE
8
BLACK
6
CONTINUOUS
10
176.67
20
-96.5946
11
176.747
21
-96.5431
0
LINE
8
BLACK
6
CONTINUOUS
10
176.747
20
-96.5431
11
176.838
21
-96.525
0
LINE
8
BLACK
6
CONTINUOUS
10
176.838
20
-96.525
11
177.438
21
-96.525
0
LINE
8
BLACK
6
CONTINUOUS
10
177.438
20
-96.525
11
177.528
21
-96.5431
0
LINE
8
BLACK
6
CONTINUOUS
10
179.253
20
-96.5431
11
179.33
21
-96.5946
0
LINE
8
BLACK
6
CONTINUOUS
10
179.33
20
-96.5946
11
179.382
21
-96.6716
0
LINE
8
BLACK
6
CONTINUOUS
10
179.382
20
-96.6716
11
179.4
21
-96.7625
0
LINE
8
BLACK
6
CONTINUOUS
10
179.4
20
-96.7625
11
179.4
21
-97.2375
0
LINE
8
BLACK
6
CONTINUOUS
10
179.4
20
-97.2375
11
179.382
21
-97.3284
0
LINE
8
BLACK
6
CONTINUOUS
10
179.382
20
-97.3284
11
179.33
21
-97.4054
0
LINE
8
BLACK
6
CONTINUOUS
10
179.33
20
-97.4054
11
179.253
21
-97.4569
0
LINE
8
BLACK
6
CONTINUOUS
10
179.253
20
-97.4569
11
179.162
21
-97.475
0
LINE
8
BLACK
6
CONTINUOUS
10
179.162
20
-97.475
11
178.562
21
-97.475
0
LINE
8
BLACK
6
CONTINUOUS
10
178.562
20
-97.475
11
178.472
21
-97.4569
0
LINE
8
BLACK
6
CONTINUOUS
10
178.472
20
-97.4569
11
178.395
21
-97.4054
0
LINE
8
BLACK
6
CONTINUOUS
10
178.395
20
-97.4054
11
178.343
21
-97.3284
0
LINE
8
BLACK
6
CONTINUOUS
10
178.343
20
-97.3284
11
178.325
21
-97.2375
0
LINE
8
BLACK
6
CONTINUOUS
10
178.325
20
-97.2375
11
178.325
21
-96.7625
0
LINE
8
BLACK
6
CONTINUOUS
10
178.325
20
-96.7625
11
178.343
21
-96.6716
0
LINE
8
BLACK
6
CONTINUOUS
10
178.343
20
-96.6716
11
178.395
21
-96.5946
0
LINE
8
BLACK
6
CONTINUOUS
10
178.395
20
-96.5946
11
178.472
21
-96.5431
0
LINE
8
BLACK
6
CONTINUOUS
10
178.472
20
-96.5431
11
178.562
21
-96.525
0
LINE
8
BLACK
6
CONTINUOUS
10
178.562
20
-96.525
11
179.162
21
-96.525
0
LINE
8
BLACK
6
CONTINUOUS
10
179.162
20
-96.525
11
179.253
21
-96.5431
0
LINE
8
BLACK
6
CONTINUOUS
10
183.928
20
-96.0431
11
184.005
21
-96.0946
0
LINE
8
BLACK
6
CONTINUOUS
10
184.005
20
-96.0946
11
184.057
21
-96.1716
0
LINE
8
BLACK
6
CONTINUOUS
10
184.057
20
-96.1716
11
184.075
21
-96.2625
0
LINE
8
BLACK
6
CONTINUOUS
10
184.075
20
-96.2625
11
184.075
21
-96.7375
0
LINE
8
BLACK
6
CONTINUOUS
10
184.075
20
-96.7375
11
184.057
21
-96.8284
0
LINE
8
BLACK
6
CONTINUOUS
10
184.057
20
-96.8284
11
184.005
21
-96.9054
0
LINE
8
BLACK
6
CONTINUOUS
10
184.005
20
-96.9054
11
183.928
21
-96.9569
0
LINE
8
BLACK
6
CONTINUOUS
10
183.928
20
-96.9569
11
183.838
21
-96.975
0
LINE
8
BLACK
6
CONTINUOUS
10
183.838
20
-96.975
11
183.338
21
-96.975
0
LINE
8
BLACK
6
CONTINUOUS
10
183.338
20
-96.975
11
183.247
21
-96.9569
0
LINE
8
BLACK
6
CONTINUOUS
10
183.247
20
-96.9569
11
183.17
21
-96.9054
0
LINE
8
BLACK
6
CONTINUOUS
10
183.17
20
-96.9054
11
183.118
21
-96.8284
0
LINE
8
BLACK
6
CONTINUOUS
10
183.118
20
-96.8284
11
183.1
21
-96.7375
0
LINE
8
BLACK
6
CONTINUOUS
10
183.1
20
-96.7375
11
183.1
21
-96.2625
0
LINE
8
BLACK
6
CONTINUOUS
10
183.1
20
-96.2625
11
183.118
21
-96.1716
0
LINE
8
BLACK
6
CONTINUOUS
10
183.118
20
-96.1716
11
183.17
21
-96.0946
0
LINE
8
BLACK
6
CONTINUOUS
10
183.17
20
-96.0946
11
183.247
21
-96.0431
0
LINE
8
BLACK
6
CONTINUOUS
10
183.247
20
-96.0431
11
183.338
21
-96.025
0
LINE
8
BLACK
6
CONTINUOUS
10
183.338
20
-96.025
11
183.838
21
-96.025
0
LINE
8
BLACK
6
CONTINUOUS
10
183.838
20
-96.025
11
183.928
21
-96.0431
0
LINE
8
BLACK
6
CONTINUOUS
10
185.753
20
-96.0431
11
185.83
21
-96.0946
0
LINE
8
BLACK
6
CONTINUOUS
10
185.83
20
-96.0946
11
185.882
21
-96.1716
0
LINE
8
BLACK
6
CONTINUOUS
10
185.882
20
-96.1716
11
185.9
21
-96.2625
0
LINE
8
BLACK
6
CONTINUOUS
10
185.9
20
-96.2625
11
185.9
21
-96.7375
0
LINE
8
BLACK
6
CONTINUOUS
10
185.9
20
-96.7375
11
185.882
21
-96.8284
0
LINE
8
BLACK
6
CONTINUOUS
10
185.882
20
-96.8284
11
185.83
21
-96.9054
0
LINE
8
BLACK
6
CONTINUOUS
10
185.83
20
-96.9054
11
185.753
21
-96.9569
0
LINE
8
BLACK
6
CONTINUOUS
10
185.753
20
-96.9569
11
185.662
21
-96.975
0
LINE
8
BLACK
6
CONTINUOUS
10
185.662
20
-96.975
11
185.162
21
-96.975
0
LINE
8
BLACK
6
CONTINUOUS
10
185.162
20
-96.975
11
185.072
21
-96.9569
0
LINE
8
BLACK
6
CONTINUOUS
10
185.072
20
-96.9569
11
184.995
21
-96.9054
0
LINE
8
BLACK
6
CONTINUOUS
10
184.995
20
-96.9054
11
184.943
21
-96.8284
0
LINE
8
BLACK
6
CONTINUOUS
10
184.943
20
-96.8284
11
184.925
21
-96.7375
0
LINE
8
BLACK
6
CONTINUOUS
10
184.925
20
-96.7375
11
184.925
21
-96.2625
0
LINE
8
BLACK
6
CONTINUOUS
10
184.925
20
-96.2625
11
184.943
21
-96.1716
0
LINE
8
BLACK
6
CONTINUOUS
10
184.943
20
-96.1716
11
184.995
21
-96.0946
0
LINE
8
BLACK
6
CONTINUOUS
10
184.995
20
-96.0946
11
185.072
21
-96.0431
0
LINE
8
BLACK
6
CONTINUOUS
10
185.072
20
-96.0431
11
185.162
21
-96.025
0
LINE
8
BLACK
6
CONTINUOUS
10
185.162
20
-96.025
11
185.662
21
-96.025
0
LINE
8
BLACK
6
CONTINUOUS
10
185.662
20
-96.025
11
185.753
21
-96.0431
0
LINE
8
BLACK
6
CONTINUOUS
10
189.878
20
-96.0431
11
189.955
21
-96.0946
0
LINE
8
BLACK
6
CONTINUOUS
10
189.955
20
-96.0946
11
190.007
21
-96.1716
0
LINE
8
BLACK
6
CONTINUOUS
10
190.007
20
-96.1716
11
190.025
21
-96.2625
0
LINE
8
BLACK
6
CONTINUOUS
10
190.025
20
-96.2625
11
190.025
21
-96.7375
0
LINE
8
BLACK
6
CONTINUOUS
10
190.025
20
-96.7375
11
190.007
21
-96.8284
0
LINE
8
BLACK
6
CONTINUOUS
10
190.007
20
-96.8284
11
189.955
21
-96.9054
0
LINE
8
BLACK
6
CONTINUOUS
10
189.955
20
-96.9054
11
189.878
21
-96.9569
0
LINE
8
BLACK
6
CONTINUOUS
10
189.878
20
-96.9569
11
189.787
21
-96.975
0
LINE
8
BLACK
6
CONTINUOUS
10
189.787
20
-96.975
11
189.212
21
-96.975
0
LINE
8
BLACK
6
CONTINUOUS
10
189.212
20
-96.975
11
189.122
21
-96.9569
0
LINE
8
BLACK
6
CONTINUOUS
10
189.122
20
-96.9569
11
189.045
21
-96.9054
0
LINE
8
BLACK
6
CONTINUOUS
10
189.045
20
-96.9054
11
188.993
21
-96.8284
0
LINE
8
BLACK
6
CONTINUOUS
10
188.993
20
-96.8284
11
188.975
21
-96.7375
0
LINE
8
BLACK
6
CONTINUOUS
10
188.975
20
-96.7375
11
188.975
21
-96.2625
0
LINE
8
BLACK
6
CONTINUOUS
10
188.975
20
-96.2625
11
188.993
21
-96.1716
0
LINE
8
BLACK
6
CONTINUOUS
10
188.993
20
-96.1716
11
189.045
21
-96.0946
0
LINE
8
BLACK
6
CONTINUOUS
10
189.045
20
-96.0946
11
189.122
21
-96.0431
0
LINE
8
BLACK
6
CONTINUOUS
10
189.122
20
-96.0431
11
189.212
21
-96.025
0
LINE
8
BLACK
6
CONTINUOUS
10
189.212
20
-96.025
11
189.787
21
-96.025
0
LINE
8
BLACK
6
CONTINUOUS
10
189.787
20
-96.025
11
189.878
21
-96.0431
0
LINE
8
BLACK
6
CONTINUOUS
10
188.128
20
-96.0431
11
188.205
21
-96.0946
0
LINE
8
BLACK
6
CONTINUOUS
10
188.205
20
-96.0946
11
188.257
21
-96.1716
0
LINE
8
BLACK
6
CONTINUOUS
10
188.257
20
-96.1716
11
188.275
21
-96.2625
0
LINE
8
BLACK
6
CONTINUOUS
10
188.275
20
-96.2625
11
188.275
21
-96.7375
0
LINE
8
BLACK
6
CONTINUOUS
10
188.275
20
-96.7375
11
188.257
21
-96.8284
0
LINE
8
BLACK
6
CONTINUOUS
10
188.257
20
-96.8284
11
188.205
21
-96.9054
0
LINE
8
BLACK
6
CONTINUOUS
10
188.205
20
-96.9054
11
188.128
21
-96.9569
0
LINE
8
BLACK
6
CONTINUOUS
10
188.128
20
-96.9569
11
188.037
21
-96.975
0
LINE
8
BLACK
6
CONTINUOUS
10
188.037
20
-96.975
11
187.463
21
-96.975
0
LINE
8
BLACK
6
CONTINUOUS
10
187.463
20
-96.975
11
187.372
21
-96.9569
0
LINE
8
BLACK
6
CONTINUOUS
10
187.372
20
-96.9569
11
187.295
21
-96.9054
0
LINE
8
BLACK
6
CONTINUOUS
10
187.295
20
-96.9054
11
187.243
21
-96.8284
0
LINE
8
BLACK
6
CONTINUOUS
10
187.243
20
-96.8284
11
187.225
21
-96.7375
0
LINE
8
BLACK
6
CONTINUOUS
10
187.225
20
-96.7375
11
187.225
21
-96.2625
0
LINE
8
BLACK
6
CONTINUOUS
10
187.225
20
-96.2625
11
187.243
21
-96.1716
0
LINE
8
BLACK
6
CONTINUOUS
10
187.243
20
-96.1716
11
187.295
21
-96.0946
0
LINE
8
BLACK
6
CONTINUOUS
10
187.295
20
-96.0946
11
187.372
21
-96.0431
0
LINE
8
BLACK
6
CONTINUOUS
10
187.372
20
-96.0431
11
187.463
21
-96.025
0
LINE
8
BLACK
6
CONTINUOUS
10
187.463
20
-96.025
11
188.037
21
-96.025
0
LINE
8
BLACK
6
CONTINUOUS
10
188.037
20
-96.025
11
188.128
21
-96.0431
0
LINE
8
BLACK
6
CONTINUOUS
10
185.753
20
-93.0431
11
185.83
21
-93.0946
0
LINE
8
BLACK
6
CONTINUOUS
10
185.83
20
-93.0946
11
185.882
21
-93.1716
0
LINE
8
BLACK
6
CONTINUOUS
10
185.882
20
-93.1716
11
185.9
21
-93.2625
0
LINE
8
BLACK
6
CONTINUOUS
10
185.9
20
-93.2625
11
185.9
21
-93.7375
0
LINE
8
BLACK
6
CONTINUOUS
10
185.9
20
-93.7375
11
185.882
21
-93.8284
0
LINE
8
BLACK
6
CONTINUOUS
10
185.882
20
-93.8284
11
185.83
21
-93.9054
0
LINE
8
BLACK
6
CONTINUOUS
10
185.83
20
-93.9054
11
185.753
21
-93.9569
0
LINE
8
BLACK
6
CONTINUOUS
10
185.753
20
-93.9569
11
185.662
21
-93.975
0
LINE
8
BLACK
6
CONTINUOUS
10
185.662
20
-93.975
11
185.162
21
-93.975
0
LINE
8
BLACK
6
CONTINUOUS
10
185.162
20
-93.975
11
185.072
21
-93.9569
0
LINE
8
BLACK
6
CONTINUOUS
10
185.072
20
-93.9569
11
184.995
21
-93.9054
0
LINE
8
BLACK
6
CONTINUOUS
10
184.995
20
-93.9054
11
184.943
21
-93.8284
0
LINE
8
BLACK
6
CONTINUOUS
10
184.943
20
-93.8284
11
184.925
21
-93.7375
0
LINE
8
BLACK
6
CONTINUOUS
10
184.925
20
-93.7375
11
184.925
21
-93.2625
0
LINE
8
BLACK
6
CONTINUOUS
10
184.925
20
-93.2625
11
184.943
21
-93.1716
0
LINE
8
BLACK
6
CONTINUOUS
10
184.943
20
-93.1716
11
184.995
21
-93.0946
0
LINE
8
BLACK
6
CONTINUOUS
10
184.995
20
-93.0946
11
185.072
21
-93.0431
0
LINE
8
BLACK
6
CONTINUOUS
10
185.072
20
-93.0431
11
185.162
21
-93.025
0
LINE
8
BLACK
6
CONTINUOUS
10
185.162
20
-93.025
11
185.662
21
-93.025
0
LINE
8
BLACK
6
CONTINUOUS
10
185.662
20
-93.025
11
185.753
21
-93.0431
0
LINE
8
BLACK
6
CONTINUOUS
10
189.753
20
-93.0431
11
189.83
21
-93.0946
0
LINE
8
BLACK
6
CONTINUOUS
10
189.83
20
-93.0946
11
189.882
21
-93.1716
0
LINE
8
BLACK
6
CONTINUOUS
10
189.882
20
-93.1716
11
189.9
21
-93.2625
0
LINE
8
BLACK
6
CONTINUOUS
10
189.9
20
-93.2625
11
189.9
21
-93.7375
0
LINE
8
BLACK
6
CONTINUOUS
10
189.9
20
-93.7375
11
189.882
21
-93.8284
0
LINE
8
BLACK
6
CONTINUOUS
10
189.882
20
-93.8284
11
189.83
21
-93.9054
0
LINE
8
BLACK
6
CONTINUOUS
10
189.83
20
-93.9054
11
189.753
21
-93.9569
0
LINE
8
BLACK
6
CONTINUOUS
10
189.753
20
-93.9569
11
189.662
21
-93.975
0
LINE
8
BLACK
6
CONTINUOUS
10
189.662
20
-93.975
11
189.087
21
-93.975
0
LINE
8
BLACK
6
CONTINUOUS
10
189.087
20
-93.975
11
188.997
21
-93.9569
0
LINE
8
BLACK
6
CONTINUOUS
10
188.997
20
-93.9569
11
188.92
21
-93.9054
0
LINE
8
BLACK
6
CONTINUOUS
10
188.92
20
-93.9054
11
188.868
21
-93.8284
0
LINE
8
BLACK
6
CONTINUOUS
10
188.868
20
-93.8284
11
188.85
21
-93.7375
0
LINE
8
BLACK
6
CONTINUOUS
10
188.85
20
-93.7375
11
188.85
21
-93.2625
0
LINE
8
BLACK
6
CONTINUOUS
10
188.85
20
-93.2625
11
188.868
21
-93.1716
0
LINE
8
BLACK
6
CONTINUOUS
10
188.868
20
-93.1716
11
188.92
21
-93.0946
0
LINE
8
BLACK
6
CONTINUOUS
10
188.92
20
-93.0946
11
188.997
21
-93.0431
0
LINE
8
BLACK
6
CONTINUOUS
10
188.997
20
-93.0431
11
189.087
21
-93.025
0
LINE
8
BLACK
6
CONTINUOUS
10
189.087
20
-93.025
11
189.662
21
-93.025
0
LINE
8
BLACK
6
CONTINUOUS
10
189.662
20
-93.025
11
189.753
21
-93.0431
0
LINE
8
BLACK
6
CONTINUOUS
10
188.003
20
-93.0431
11
188.08
21
-93.0946
0
LINE
8
BLACK
6
CONTINUOUS
10
188.08
20
-93.0946
11
188.132
21
-93.1716
0
LINE
8
BLACK
6
CONTINUOUS
10
188.132
20
-93.1716
11
188.15
21
-93.2625
0
LINE
8
BLACK
6
CONTINUOUS
10
188.15
20
-93.2625
11
188.15
21
-93.7375
0
LINE
8
BLACK
6
CONTINUOUS
10
188.15
20
-93.7375
11
188.132
21
-93.8284
0
LINE
8
BLACK
6
CONTINUOUS
10
188.132
20
-93.8284
11
188.08
21
-93.9054
0
LINE
8
BLACK
6
CONTINUOUS
10
188.08
20
-93.9054
11
188.003
21
-93.9569
0
LINE
8
BLACK
6
CONTINUOUS
10
188.003
20
-93.9569
11
187.912
21
-93.975
0
LINE
8
BLACK
6
CONTINUOUS
10
187.912
20
-93.975
11
187.338
21
-93.975
0
LINE
8
BLACK
6
CONTINUOUS
10
187.338
20
-93.975
11
187.247
21
-93.9569
0
LINE
8
BLACK
6
CONTINUOUS
10
187.247
20
-93.9569
11
187.17
21
-93.9054
0
LINE
8
BLACK
6
CONTINUOUS
10
187.17
20
-93.9054
11
187.118
21
-93.8284
0
LINE
8
BLACK
6
CONTINUOUS
10
187.118
20
-93.8284
11
187.1
21
-93.7375
0
LINE
8
BLACK
6
CONTINUOUS
10
187.1
20
-93.7375
11
187.1
21
-93.2625
0
LINE
8
BLACK
6
CONTINUOUS
10
187.1
20
-93.2625
11
187.118
21
-93.1716
0
LINE
8
BLACK
6
CONTINUOUS
10
187.118
20
-93.1716
11
187.17
21
-93.0946
0
LINE
8
BLACK
6
CONTINUOUS
10
187.17
20
-93.0946
11
187.247
21
-93.0431
0
LINE
8
BLACK
6
CONTINUOUS
10
187.247
20
-93.0431
11
187.338
21
-93.025
0
LINE
8
BLACK
6
CONTINUOUS
10
187.338
20
-93.025
11
187.912
21
-93.025
0
LINE
8
BLACK
6
CONTINUOUS
10
187.912
20
-93.025
11
188.003
21
-93.0431
0
LINE
8
BLACK
6
CONTINUOUS
10
183.928
20
-93.0431
11
184.005
21
-93.0946
0
LINE
8
BLACK
6
CONTINUOUS
10
184.005
20
-93.0946
11
184.057
21
-93.1716
0
LINE
8
BLACK
6
CONTINUOUS
10
184.057
20
-93.1716
11
184.075
21
-93.2625
0
LINE
8
BLACK
6
CONTINUOUS
10
184.075
20
-93.2625
11
184.075
21
-93.7375
0
LINE
8
BLACK
6
CONTINUOUS
10
184.075
20
-93.7375
11
184.057
21
-93.8284
0
LINE
8
BLACK
6
CONTINUOUS
10
184.057
20
-93.8284
11
184.005
21
-93.9054
0
LINE
8
BLACK
6
CONTINUOUS
10
184.005
20
-93.9054
11
183.928
21
-93.9569
0
LINE
8
BLACK
6
CONTINUOUS
10
183.928
20
-93.9569
11
183.838
21
-93.975
0
LINE
8
BLACK
6
CONTINUOUS
10
183.838
20
-93.975
11
183.338
21
-93.975
0
LINE
8
BLACK
6
CONTINUOUS
10
183.338
20
-93.975
11
183.247
21
-93.9569
0
LINE
8
BLACK
6
CONTINUOUS
10
183.247
20
-93.9569
11
183.17
21
-93.9054
0
LINE
8
BLACK
6
CONTINUOUS
10
183.17
20
-93.9054
11
183.118
21
-93.8284
0
LINE
8
BLACK
6
CONTINUOUS
10
183.118
20
-93.8284
11
183.1
21
-93.7375
0
LINE
8
BLACK
6
CONTINUOUS
10
183.1
20
-93.7375
11
183.1
21
-93.2625
0
LINE
8
BLACK
6
CONTINUOUS
10
183.1
20
-93.2625
11
183.118
21
-93.1716
0
LINE
8
BLACK
6
CONTINUOUS
10
183.118
20
-93.1716
11
183.17
21
-93.0946
0
LINE
8
BLACK
6
CONTINUOUS
10
183.17
20
-93.0946
11
183.247
21
-93.0431
0
LINE
8
BLACK
6
CONTINUOUS
10
183.247
20
-93.0431
11
183.338
21
-93.025
0
LINE
8
BLACK
6
CONTINUOUS
10
183.338
20
-93.025
11
183.838
21
-93.025
0
LINE
8
BLACK
6
CONTINUOUS
10
183.838
20
-93.025
11
183.928
21
-93.0431
0
LINE
8
BLACK
6
CONTINUOUS
10
197.828
20
-92.4431
11
197.905
21
-92.4946
0
LINE
8
BLACK
6
CONTINUOUS
10
197.905
20
-92.4946
11
197.957
21
-92.5716
0
LINE
8
BLACK
6
CONTINUOUS
10
197.957
20
-92.5716
11
197.975
21
-92.6625
0
LINE
8
BLACK
6
CONTINUOUS
10
197.975
20
-92.6625
11
197.975
21
-93.1625
0
LINE
8
BLACK
6
CONTINUOUS
10
197.975
20
-93.1625
11
197.957
21
-93.2534
0
LINE
8
BLACK
6
CONTINUOUS
10
197.957
20
-93.2534
11
197.905
21
-93.3304
0
LINE
8
BLACK
6
CONTINUOUS
10
197.905
20
-93.3304
11
197.828
21
-93.3819
0
LINE
8
BLACK
6
CONTINUOUS
10
197.828
20
-93.3819
11
197.737
21
-93.4
0
LINE
8
BLACK
6
CONTINUOUS
10
197.737
20
-93.4
11
197.262
21
-93.4
0
LINE
8
BLACK
6
CONTINUOUS
10
197.262
20
-93.4
11
197.172
21
-93.3819
0
LINE
8
BLACK
6
CONTINUOUS
10
197.172
20
-93.3819
11
197.095
21
-93.3304
0
LINE
8
BLACK
6
CONTINUOUS
10
197.095
20
-93.3304
11
197.043
21
-93.2534
0
LINE
8
BLACK
6
CONTINUOUS
10
197.043
20
-93.2534
11
197.025
21
-93.1625
0
LINE
8
BLACK
6
CONTINUOUS
10
197.025
20
-93.1625
11
197.025
21
-92.6625
0
LINE
8
BLACK
6
CONTINUOUS
10
197.025
20
-92.6625
11
197.043
21
-92.5716
0
LINE
8
BLACK
6
CONTINUOUS
10
197.043
20
-92.5716
11
197.095
21
-92.4946
0
LINE
8
BLACK
6
CONTINUOUS
10
197.095
20
-92.4946
11
197.172
21
-92.4431
0
LINE
8
BLACK
6
CONTINUOUS
10
197.172
20
-92.4431
11
197.262
21
-92.425
0
LINE
8
BLACK
6
CONTINUOUS
10
197.262
20
-92.425
11
197.737
21
-92.425
0
LINE
8
BLACK
6
CONTINUOUS
10
197.737
20
-92.425
11
197.828
21
-92.4431
0
LINE
8
BLACK
6
CONTINUOUS
10
197.828
20
-90.6181
11
197.905
21
-90.6696
0
LINE
8
BLACK
6
CONTINUOUS
10
197.905
20
-90.6696
11
197.957
21
-90.7466
0
LINE
8
BLACK
6
CONTINUOUS
10
197.957
20
-90.7466
11
197.975
21
-90.8375
0
LINE
8
BLACK
6
CONTINUOUS
10
197.975
20
-90.8375
11
197.975
21
-91.3375
0
LINE
8
BLACK
6
CONTINUOUS
10
197.975
20
-91.3375
11
197.957
21
-91.4284
0
LINE
8
BLACK
6
CONTINUOUS
10
197.957
20
-91.4284
11
197.905
21
-91.5054
0
LINE
8
BLACK
6
CONTINUOUS
10
197.905
20
-91.5054
11
197.828
21
-91.5569
0
LINE
8
BLACK
6
CONTINUOUS
10
197.828
20
-91.5569
11
197.737
21
-91.575
0
LINE
8
BLACK
6
CONTINUOUS
10
197.737
20
-91.575
11
197.262
21
-91.575
0
LINE
8
BLACK
6
CONTINUOUS
10
197.262
20
-91.575
11
197.172
21
-91.5569
0
LINE
8
BLACK
6
CONTINUOUS
10
197.172
20
-91.5569
11
197.095
21
-91.5054
0
LINE
8
BLACK
6
CONTINUOUS
10
197.095
20
-91.5054
11
197.043
21
-91.4284
0
LINE
8
BLACK
6
CONTINUOUS
10
197.043
20
-91.4284
11
197.025
21
-91.3375
0
LINE
8
BLACK
6
CONTINUOUS
10
197.025
20
-91.3375
11
197.025
21
-90.8375
0
LINE
8
BLACK
6
CONTINUOUS
10
197.025
20
-90.8375
11
197.043
21
-90.7466
0
LINE
8
BLACK
6
CONTINUOUS
10
197.043
20
-90.7466
11
197.095
21
-90.6696
0
LINE
8
BLACK
6
CONTINUOUS
10
197.095
20
-90.6696
11
197.172
21
-90.6181
0
LINE
8
BLACK
6
CONTINUOUS
10
197.172
20
-90.6181
11
197.262
21
-90.6
0
LINE
8
BLACK
6
CONTINUOUS
10
197.262
20
-90.6
11
197.737
21
-90.6
0
LINE
8
BLACK
6
CONTINUOUS
10
197.737
20
-90.6
11
197.828
21
-90.6181
0
LINE
8
BLACK
6
CONTINUOUS
10
200.612
20
-88.3364
11
200.661
21
-88.3689
0
LINE
8
BLACK
6
CONTINUOUS
10
200.661
20
-88.3689
11
200.694
21
-88.4176
0
LINE
8
BLACK
6
CONTINUOUS
10
200.694
20
-88.4176
11
200.705
21
-88.475
0
LINE
8
BLACK
6
CONTINUOUS
10
200.705
20
-88.475
11
200.705
21
-89.8
0
LINE
8
BLACK
6
CONTINUOUS
10
200.705
20
-89.8
11
200.694
21
-89.8574
0
LINE
8
BLACK
6
CONTINUOUS
10
200.694
20
-89.8574
11
200.661
21
-89.9061
0
LINE
8
BLACK
6
CONTINUOUS
10
200.661
20
-89.9061
11
200.612
21
-89.9386
0
LINE
8
BLACK
6
CONTINUOUS
10
200.612
20
-89.9386
11
200.555
21
-89.95
0
LINE
8
BLACK
6
CONTINUOUS
10
200.555
20
-89.95
11
200.255
21
-89.95
0
LINE
8
BLACK
6
CONTINUOUS
10
200.255
20
-89.95
11
200.198
21
-89.9386
0
LINE
8
BLACK
6
CONTINUOUS
10
200.198
20
-89.9386
11
200.149
21
-89.9061
0
LINE
8
BLACK
6
CONTINUOUS
10
200.149
20
-89.9061
11
200.116
21
-89.8574
0
LINE
8
BLACK
6
CONTINUOUS
10
200.116
20
-89.8574
11
200.105
21
-89.8
0
LINE
8
BLACK
6
CONTINUOUS
10
200.105
20
-89.8
11
200.105
21
-88.475
0
LINE
8
BLACK
6
CONTINUOUS
10
200.105
20
-88.475
11
200.116
21
-88.4176
0
LINE
8
BLACK
6
CONTINUOUS
10
200.116
20
-88.4176
11
200.149
21
-88.3689
0
LINE
8
BLACK
6
CONTINUOUS
10
200.149
20
-88.3689
11
200.198
21
-88.3364
0
LINE
8
BLACK
6
CONTINUOUS
10
200.198
20
-88.3364
11
200.255
21
-88.325
0
LINE
8
BLACK
6
CONTINUOUS
10
200.255
20
-88.325
11
200.555
21
-88.325
0
LINE
8
BLACK
6
CONTINUOUS
10
200.555
20
-88.325
11
200.612
21
-88.3364
0
LINE
8
BLACK
6
CONTINUOUS
10
199.342
20
-88.3364
11
199.391
21
-88.3689
0
LINE
8
BLACK
6
CONTINUOUS
10
199.391
20
-88.3689
11
199.424
21
-88.4176
0
LINE
8
BLACK
6
CONTINUOUS
10
199.424
20
-88.4176
11
199.435
21
-88.475
0
LINE
8
BLACK
6
CONTINUOUS
10
199.435
20
-88.475
11
199.435
21
-89.8
0
LINE
8
BLACK
6
CONTINUOUS
10
199.435
20
-89.8
11
199.424
21
-89.8574
0
LINE
8
BLACK
6
CONTINUOUS
10
199.424
20
-89.8574
11
199.391
21
-89.9061
0
LINE
8
BLACK
6
CONTINUOUS
10
199.391
20
-89.9061
11
199.342
21
-89.9386
0
LINE
8
BLACK
6
CONTINUOUS
10
199.342
20
-89.9386
11
199.285
21
-89.95
0
LINE
8
BLACK
6
CONTINUOUS
10
199.285
20
-89.95
11
198.985
21
-89.95
0
LINE
8
BLACK
6
CONTINUOUS
10
198.985
20
-89.95
11
198.928
21
-89.9386
0
LINE
8
BLACK
6
CONTINUOUS
10
198.928
20
-89.9386
11
198.879
21
-89.9061
0
LINE
8
BLACK
6
CONTINUOUS
10
198.879
20
-89.9061
11
198.846
21
-89.8574
0
LINE
8
BLACK
6
CONTINUOUS
10
198.846
20
-89.8574
11
198.835
21
-89.8
0
LINE
8
BLACK
6
CONTINUOUS
10
198.835
20
-89.8
11
198.835
21
-88.475
0
LINE
8
BLACK
6
CONTINUOUS
10
198.835
20
-88.475
11
198.846
21
-88.4176
0
LINE
8
BLACK
6
CONTINUOUS
10
198.846
20
-88.4176
11
198.879
21
-88.3689
0
LINE
8
BLACK
6
CONTINUOUS
10
198.879
20
-88.3689
11
198.928
21
-88.3364
0
LINE
8
BLACK
6
CONTINUOUS
10
198.928
20
-88.3364
11
198.985
21
-88.325
0
LINE
8
BLACK
6
CONTINUOUS
10
198.985
20
-88.325
11
199.285
21
-88.325
0
LINE
8
BLACK
6
CONTINUOUS
10
199.285
20
-88.325
11
199.342
21
-88.3364
0
LINE
8
BLACK
6
CONTINUOUS
10
198.072
20
-88.3364
11
198.121
21
-88.3689
0
LINE
8
BLACK
6
CONTINUOUS
10
198.121
20
-88.3689
11
198.154
21
-88.4176
0
LINE
8
BLACK
6
CONTINUOUS
10
198.154
20
-88.4176
11
198.165
21
-88.475
0
LINE
8
BLACK
6
CONTINUOUS
10
198.165
20
-88.475
11
198.165
21
-89.8
0
LINE
8
BLACK
6
CONTINUOUS
10
198.165
20
-89.8
11
198.154
21
-89.8574
0
LINE
8
BLACK
6
CONTINUOUS
10
198.154
20
-89.8574
11
198.121
21
-89.9061
0
LINE
8
BLACK
6
CONTINUOUS
10
198.121
20
-89.9061
11
198.072
21
-89.9386
0
LINE
8
BLACK
6
CONTINUOUS
10
198.072
20
-89.9386
11
198.015
21
-89.95
0
LINE
8
BLACK
6
CONTINUOUS
10
198.015
20
-89.95
11
197.715
21
-89.95
0
LINE
8
BLACK
6
CONTINUOUS
10
197.715
20
-89.95
11
197.658
21
-89.9386
0
LINE
8
BLACK
6
CONTINUOUS
10
197.658
20
-89.9386
11
197.609
21
-89.9061
0
LINE
8
BLACK
6
CONTINUOUS
10
197.609
20
-89.9061
11
197.576
21
-89.8574
0
LINE
8
BLACK
6
CONTINUOUS
10
197.576
20
-89.8574
11
197.565
21
-89.8
0
LINE
8
BLACK
6
CONTINUOUS
10
197.565
20
-89.8
11
197.565
21
-88.475
0
LINE
8
BLACK
6
CONTINUOUS
10
197.565
20
-88.475
11
197.576
21
-88.4176
0
LINE
8
BLACK
6
CONTINUOUS
10
197.576
20
-88.4176
11
197.609
21
-88.3689
0
LINE
8
BLACK
6
CONTINUOUS
10
197.609
20
-88.3689
11
197.658
21
-88.3364
0
LINE
8
BLACK
6
CONTINUOUS
10
197.658
20
-88.3364
11
197.715
21
-88.325
0
LINE
8
BLACK
6
CONTINUOUS
10
197.715
20
-88.325
11
198.015
21
-88.325
0
LINE
8
BLACK
6
CONTINUOUS
10
198.015
20
-88.325
11
198.072
21
-88.3364
0
LINE
8
BLACK
6
CONTINUOUS
10
196.802
20
-88.3364
11
196.851
21
-88.3689
0
LINE
8
BLACK
6
CONTINUOUS
10
196.851
20
-88.3689
11
196.884
21
-88.4176
0
LINE
8
BLACK
6
CONTINUOUS
10
196.884
20
-88.4176
11
196.895
21
-88.475
0
LINE
8
BLACK
6
CONTINUOUS
10
196.895
20
-88.475
11
196.895
21
-89.8
0
LINE
8
BLACK
6
CONTINUOUS
10
196.895
20
-89.8
11
196.884
21
-89.8574
0
LINE
8
BLACK
6
CONTINUOUS
10
196.884
20
-89.8574
11
196.851
21
-89.9061
0
LINE
8
BLACK
6
CONTINUOUS
10
196.851
20
-89.9061
11
196.802
21
-89.9386
0
LINE
8
BLACK
6
CONTINUOUS
10
196.802
20
-89.9386
11
196.745
21
-89.95
0
LINE
8
BLACK
6
CONTINUOUS
10
196.745
20
-89.95
11
196.445
21
-89.95
0
LINE
8
BLACK
6
CONTINUOUS
10
196.445
20
-89.95
11
196.388
21
-89.9386
0
LINE
8
BLACK
6
CONTINUOUS
10
196.388
20
-89.9386
11
196.339
21
-89.9061
0
LINE
8
BLACK
6
CONTINUOUS
10
196.339
20
-89.9061
11
196.306
21
-89.8574
0
LINE
8
BLACK
6
CONTINUOUS
10
196.306
20
-89.8574
11
196.295
21
-89.8
0
LINE
8
BLACK
6
CONTINUOUS
10
196.295
20
-89.8
11
196.295
21
-88.475
0
LINE
8
BLACK
6
CONTINUOUS
10
196.295
20
-88.475
11
196.306
21
-88.4176
0
LINE
8
BLACK
6
CONTINUOUS
10
196.306
20
-88.4176
11
196.339
21
-88.3689
0
LINE
8
BLACK
6
CONTINUOUS
10
196.339
20
-88.3689
11
196.388
21
-88.3364
0
LINE
8
BLACK
6
CONTINUOUS
10
196.388
20
-88.3364
11
196.445
21
-88.325
0
LINE
8
BLACK
6
CONTINUOUS
10
196.445
20
-88.325
11
196.745
21
-88.325
0
LINE
8
BLACK
6
CONTINUOUS
10
196.745
20
-88.325
11
196.802
21
-88.3364
0
LINE
8
BLACK
6
CONTINUOUS
10
193.25
20
-89.4
11
191.7
21
-89.4
0
LINE
8
BLACK
6
CONTINUOUS
10
191.7
20
-89.4
11
191.7
21
-88.1
0
LINE
8
BLACK
6
CONTINUOUS
10
191.7
20
-88.1
11
193.25
21
-88.1
0
LINE
8
BLACK
6
CONTINUOUS
10
193.25
20
-88.1
11
193.25
21
-89.4
0
LINE
8
BLACK
6
CONTINUOUS
10
185.3
20
-89.4
11
183.75
21
-89.4
0
LINE
8
BLACK
6
CONTINUOUS
10
183.75
20
-89.4
11
183.75
21
-88.1
0
LINE
8
BLACK
6
CONTINUOUS
10
183.75
20
-88.1
11
185.3
21
-88.1
0
LINE
8
BLACK
6
CONTINUOUS
10
185.3
20
-88.1
11
185.3
21
-89.4
0
LINE
8
BLACK
6
CONTINUOUS
10
199.816
20
-86.624
11
199.897
21
-86.6782
0
LINE
8
BLACK
6
CONTINUOUS
10
199.897
20
-86.6782
11
199.951
21
-86.7593
0
LINE
8
BLACK
6
CONTINUOUS
10
199.951
20
-86.7593
11
199.97
21
-86.855
0
LINE
8
BLACK
6
CONTINUOUS
10
199.97
20
-86.855
11
199.97
21
-87.405
0
LINE
8
BLACK
6
CONTINUOUS
10
199.97
20
-87.405
11
199.951
21
-87.5007
0
LINE
8
BLACK
6
CONTINUOUS
10
199.951
20
-87.5007
11
199.897
21
-87.5818
0
LINE
8
BLACK
6
CONTINUOUS
10
199.897
20
-87.5818
11
199.816
21
-87.636
0
LINE
8
BLACK
6
CONTINUOUS
10
199.816
20
-87.636
11
199.72
21
-87.655
0
LINE
8
BLACK
6
CONTINUOUS
10
199.72
20
-87.655
11
198.88
21
-87.655
0
LINE
8
BLACK
6
CONTINUOUS
10
198.88
20
-87.655
11
198.784
21
-87.636
0
LINE
8
BLACK
6
CONTINUOUS
10
198.784
20
-87.636
11
198.703
21
-87.5818
0
LINE
8
BLACK
6
CONTINUOUS
10
198.703
20
-87.5818
11
198.649
21
-87.5007
0
LINE
8
BLACK
6
CONTINUOUS
10
198.649
20
-87.5007
11
198.63
21
-87.405
0
LINE
8
BLACK
6
CONTINUOUS
10
198.63
20
-87.405
11
198.63
21
-86.855
0
LINE
8
BLACK
6
CONTINUOUS
10
198.63
20
-86.855
11
198.649
21
-86.7593
0
LINE
8
BLACK
6
CONTINUOUS
10
198.649
20
-86.7593
11
198.703
21
-86.6782
0
LINE
8
BLACK
6
CONTINUOUS
10
198.703
20
-86.6782
11
198.784
21
-86.624
0
LINE
8
BLACK
6
CONTINUOUS
10
198.784
20
-86.624
11
198.88
21
-86.605
0
LINE
8
BLACK
6
CONTINUOUS
10
198.88
20
-86.605
11
199.72
21
-86.605
0
LINE
8
BLACK
6
CONTINUOUS
10
199.72
20
-86.605
11
199.816
21
-86.624
0
LINE
8
BLACK
6
CONTINUOUS
10
198.216
20
-86.624
11
198.297
21
-86.6782
0
LINE
8
BLACK
6
CONTINUOUS
10
198.297
20
-86.6782
11
198.351
21
-86.7593
0
LINE
8
BLACK
6
CONTINUOUS
10
198.351
20
-86.7593
11
198.37
21
-86.855
0
LINE
8
BLACK
6
CONTINUOUS
10
198.37
20
-86.855
11
198.37
21
-87.405
0
LINE
8
BLACK
6
CONTINUOUS
10
198.37
20
-87.405
11
198.351
21
-87.5007
0
LINE
8
BLACK
6
CONTINUOUS
10
198.351
20
-87.5007
11
198.297
21
-87.5818
0
LINE
8
BLACK
6
CONTINUOUS
10
198.297
20
-87.5818
11
198.216
21
-87.636
0
LINE
8
BLACK
6
CONTINUOUS
10
198.216
20
-87.636
11
198.12
21
-87.655
0
LINE
8
BLACK
6
CONTINUOUS
10
198.12
20
-87.655
11
197.28
21
-87.655
0
LINE
8
BLACK
6
CONTINUOUS
10
197.28
20
-87.655
11
197.184
21
-87.636
0
LINE
8
BLACK
6
CONTINUOUS
10
197.184
20
-87.636
11
197.103
21
-87.5818
0
LINE
8
BLACK
6
CONTINUOUS
10
197.103
20
-87.5818
11
197.049
21
-87.5007
0
LINE
8
BLACK
6
CONTINUOUS
10
197.049
20
-87.5007
11
197.03
21
-87.405
0
LINE
8
BLACK
6
CONTINUOUS
10
197.03
20
-87.405
11
197.03
21
-86.855
0
LINE
8
BLACK
6
CONTINUOUS
10
197.03
20
-86.855
11
197.049
21
-86.7593
0
LINE
8
BLACK
6
CONTINUOUS
10
197.049
20
-86.7593
11
197.103
21
-86.6782
0
LINE
8
BLACK
6
CONTINUOUS
10
197.103
20
-86.6782
11
197.184
21
-86.624
0
LINE
8
BLACK
6
CONTINUOUS
10
197.184
20
-86.624
11
197.28
21
-86.605
0
LINE
8
BLACK
6
CONTINUOUS
10
197.28
20
-86.605
11
198.12
21
-86.605
0
LINE
8
BLACK
6
CONTINUOUS
10
198.12
20
-86.605
11
198.216
21
-86.624
0
LINE
8
BLACK
6
CONTINUOUS
10
198.216
20
-85.364
11
198.297
21
-85.4182
0
LINE
8
BLACK
6
CONTINUOUS
10
198.297
20
-85.4182
11
198.351
21
-85.4993
0
LINE
8
BLACK
6
CONTINUOUS
10
198.351
20
-85.4993
11
198.37
21
-85.595
0
LINE
8
BLACK
6
CONTINUOUS
10
198.37
20
-85.595
11
198.37
21
-86.145
0
LINE
8
BLACK
6
CONTINUOUS
10
198.37
20
-86.145
11
198.351
21
-86.2407
0
LINE
8
BLACK
6
CONTINUOUS
10
198.351
20
-86.2407
11
198.297
21
-86.3218
0
LINE
8
BLACK
6
CONTINUOUS
10
198.297
20
-86.3218
11
198.216
21
-86.376
0
LINE
8
BLACK
6
CONTINUOUS
10
198.216
20
-86.376
11
198.12
21
-86.395
0
LINE
8
BLACK
6
CONTINUOUS
10
198.12
20
-86.395
11
197.28
21
-86.395
0
LINE
8
BLACK
6
CONTINUOUS
10
197.28
20
-86.395
11
197.184
21
-86.376
0
LINE
8
BLACK
6
CONTINUOUS
10
197.184
20
-86.376
11
197.103
21
-86.3218
0
LINE
8
BLACK
6
CONTINUOUS
10
197.103
20
-86.3218
11
197.049
21
-86.2407
0
LINE
8
BLACK
6
CONTINUOUS
10
197.049
20
-86.2407
11
197.03
21
-86.145
0
LINE
8
BLACK
6
CONTINUOUS
10
197.03
20
-86.145
11
197.03
21
-85.595
0
LINE
8
BLACK
6
CONTINUOUS
10
197.03
20
-85.595
11
197.049
21
-85.4993
0
LINE
8
BLACK
6
CONTINUOUS
10
197.049
20
-85.4993
11
197.103
21
-85.4182
0
LINE
8
BLACK
6
CONTINUOUS
10
197.103
20
-85.4182
11
197.184
21
-85.364
0
LINE
8
BLACK
6
CONTINUOUS
10
197.184
20
-85.364
11
197.28
21
-85.345
0
LINE
8
BLACK
6
CONTINUOUS
10
197.28
20
-85.345
11
198.12
21
-85.345
0
LINE
8
BLACK
6
CONTINUOUS
10
198.12
20
-85.345
11
198.216
21
-85.364
0
LINE
8
BLACK
6
CONTINUOUS
10
199.816
20
-85.364
11
199.897
21
-85.4182
0
LINE
8
BLACK
6
CONTINUOUS
10
199.897
20
-85.4182
11
199.951
21
-85.4993
0
LINE
8
BLACK
6
CONTINUOUS
10
199.951
20
-85.4993
11
199.97
21
-85.595
0
LINE
8
BLACK
6
CONTINUOUS
10
199.97
20
-85.595
11
199.97
21
-86.145
0
LINE
8
BLACK
6
CONTINUOUS
10
199.97
20
-86.145
11
199.951
21
-86.2407
0
LINE
8
BLACK
6
CONTINUOUS
10
199.951
20
-86.2407
11
199.897
21
-86.3218
0
LINE
8
BLACK
6
CONTINUOUS
10
199.897
20
-86.3218
11
199.816
21
-86.376
0
LINE
8
BLACK
6
CONTINUOUS
10
199.816
20
-86.376
11
199.72
21
-86.395
0
LINE
8
BLACK
6
CONTINUOUS
10
199.72
20
-86.395
11
198.88
21
-86.395
0
LINE
8
BLACK
6
CONTINUOUS
10
198.88
20
-86.395
11
198.784
21
-86.376
0
LINE
8
BLACK
6
CONTINUOUS
10
198.784
20
-86.376
11
198.703
21
-86.3218
0
LINE
8
BLACK
6
CONTINUOUS
10
198.703
20
-86.3218
11
198.649
21
-86.2407
0
LINE
8
BLACK
6
CONTINUOUS
10
198.649
20
-86.2407
11
198.63
21
-86.145
0
LINE
8
BLACK
6
CONTINUOUS
10
198.63
20
-86.145
11
198.63
21
-85.595
0
LINE
8
BLACK
6
CONTINUOUS
10
198.63
20
-85.595
11
198.649
21
-85.4993
0
LINE
8
BLACK
6
CONTINUOUS
10
198.649
20
-85.4993
11
198.703
21
-85.4182
0
LINE
8
BLACK
6
CONTINUOUS
10
198.703
20
-85.4182
11
198.784
21
-85.364
0
LINE
8
BLACK
6
CONTINUOUS
10
198.784
20
-85.364
11
198.88
21
-85.345
0
LINE
8
BLACK
6
CONTINUOUS
10
198.88
20
-85.345
11
199.72
21
-85.345
0
LINE
8
BLACK
6
CONTINUOUS
10
199.72
20
-85.345
11
199.816
21
-85.364
0
LINE
8
BLACK
6
CONTINUOUS
10
182.328
20
-83.9431
11
182.405
21
-83.9946
0
LINE
8
BLACK
6
CONTINUOUS
10
182.405
20
-83.9946
11
182.457
21
-84.0716
0
LINE
8
BLACK
6
CONTINUOUS
10
182.457
20
-84.0716
11
182.475
21
-84.1625
0
LINE
8
BLACK
6
CONTINUOUS
10
182.475
20
-84.1625
11
182.475
21
-84.6625
0
LINE
8
BLACK
6
CONTINUOUS
10
182.475
20
-84.6625
11
182.457
21
-84.7534
0
LINE
8
BLACK
6
CONTINUOUS
10
182.457
20
-84.7534
11
182.405
21
-84.8304
0
LINE
8
BLACK
6
CONTINUOUS
10
182.405
20
-84.8304
11
182.328
21
-84.8819
0
LINE
8
BLACK
6
CONTINUOUS
10
182.328
20
-84.8819
11
182.237
21
-84.9
0
LINE
8
BLACK
6
CONTINUOUS
10
182.237
20
-84.9
11
181.762
21
-84.9
0
LINE
8
BLACK
6
CONTINUOUS
10
181.762
20
-84.9
11
181.672
21
-84.8819
0
LINE
8
BLACK
6
CONTINUOUS
10
181.672
20
-84.8819
11
181.595
21
-84.8304
0
LINE
8
BLACK
6
CONTINUOUS
10
181.595
20
-84.8304
11
181.543
21
-84.7534
0
LINE
8
BLACK
6
CONTINUOUS
10
181.543
20
-84.7534
11
181.525
21
-84.6625
0
LINE
8
BLACK
6
CONTINUOUS
10
181.525
20
-84.6625
11
181.525
21
-84.1625
0
LINE
8
BLACK
6
CONTINUOUS
10
181.525
20
-84.1625
11
181.543
21
-84.0716
0
LINE
8
BLACK
6
CONTINUOUS
10
181.543
20
-84.0716
11
181.595
21
-83.9946
0
LINE
8
BLACK
6
CONTINUOUS
10
181.595
20
-83.9946
11
181.672
21
-83.9431
0
LINE
8
BLACK
6
CONTINUOUS
10
181.672
20
-83.9431
11
181.762
21
-83.925
0
LINE
8
BLACK
6
CONTINUOUS
10
181.762
20
-83.925
11
182.237
21
-83.925
0
LINE
8
BLACK
6
CONTINUOUS
10
182.237
20
-83.925
11
182.328
21
-83.9431
0
LINE
8
BLACK
6
CONTINUOUS
10
193.25
20
-84.9
11
191.7
21
-84.9
0
LINE
8
BLACK
6
CONTINUOUS
10
191.7
20
-84.9
11
191.7
21
-83.6
0
LINE
8
BLACK
6
CONTINUOUS
10
191.7
20
-83.6
11
193.25
21
-83.6
0
LINE
8
BLACK
6
CONTINUOUS
10
193.25
20
-83.6
11
193.25
21
-84.9
0
LINE
8
BLACK
6
CONTINUOUS
10
185.3
20
-84.9
11
183.75
21
-84.9
0
LINE
8
BLACK
6
CONTINUOUS
10
183.75
20
-84.9
11
183.75
21
-83.6
0
LINE
8
BLACK
6
CONTINUOUS
10
183.75
20
-83.6
11
185.3
21
-83.6
0
LINE
8
BLACK
6
CONTINUOUS
10
185.3
20
-83.6
11
185.3
21
-84.9
0
LINE
8
BLACK
6
CONTINUOUS
10
177.707
20
-84.1614
11
177.756
21
-84.1939
0
LINE
8
BLACK
6
CONTINUOUS
10
177.756
20
-84.1939
11
177.789
21
-84.2426
0
LINE
8
BLACK
6
CONTINUOUS
10
177.789
20
-84.2426
11
177.8
21
-84.3
0
LINE
8
BLACK
6
CONTINUOUS
10
177.8
20
-84.3
11
177.8
21
-84.6
0
LINE
8
BLACK
6
CONTINUOUS
10
177.8
20
-84.6
11
177.789
21
-84.6574
0
LINE
8
BLACK
6
CONTINUOUS
10
177.789
20
-84.6574
11
177.756
21
-84.7061
0
LINE
8
BLACK
6
CONTINUOUS
10
177.756
20
-84.7061
11
177.707
21
-84.7386
0
LINE
8
BLACK
6
CONTINUOUS
10
177.707
20
-84.7386
11
177.65
21
-84.75
0
LINE
8
BLACK
6
CONTINUOUS
10
177.65
20
-84.75
11
176.475
21
-84.75
0
LINE
8
BLACK
6
CONTINUOUS
10
176.475
20
-84.75
11
176.418
21
-84.7386
0
LINE
8
BLACK
6
CONTINUOUS
10
176.418
20
-84.7386
11
176.369
21
-84.7061
0
LINE
8
BLACK
6
CONTINUOUS
10
176.369
20
-84.7061
11
176.336
21
-84.6574
0
LINE
8
BLACK
6
CONTINUOUS
10
176.336
20
-84.6574
11
176.325
21
-84.6
0
LINE
8
BLACK
6
CONTINUOUS
10
176.325
20
-84.6
11
176.325
21
-84.3
0
LINE
8
BLACK
6
CONTINUOUS
10
176.325
20
-84.3
11
176.336
21
-84.2426
0
LINE
8
BLACK
6
CONTINUOUS
10
176.336
20
-84.2426
11
176.369
21
-84.1939
0
LINE
8
BLACK
6
CONTINUOUS
10
176.369
20
-84.1939
11
176.418
21
-84.1614
0
LINE
8
BLACK
6
CONTINUOUS
10
176.418
20
-84.1614
11
176.475
21
-84.15
0
LINE
8
BLACK
6
CONTINUOUS
10
176.475
20
-84.15
11
177.65
21
-84.15
0
LINE
8
BLACK
6
CONTINUOUS
10
177.65
20
-84.15
11
177.707
21
-84.1614
0
LINE
8
BLACK
6
CONTINUOUS
10
199.342
20
-83.0614
11
199.391
21
-83.0939
0
LINE
8
BLACK
6
CONTINUOUS
10
199.391
20
-83.0939
11
199.424
21
-83.1426
0
LINE
8
BLACK
6
CONTINUOUS
10
199.424
20
-83.1426
11
199.435
21
-83.2
0
LINE
8
BLACK
6
CONTINUOUS
10
199.435
20
-83.2
11
199.435
21
-84.525
0
LINE
8
BLACK
6
CONTINUOUS
10
199.435
20
-84.525
11
199.424
21
-84.5824
0
LINE
8
BLACK
6
CONTINUOUS
10
199.424
20
-84.5824
11
199.391
21
-84.6311
0
LINE
8
BLACK
6
CONTINUOUS
10
199.391
20
-84.6311
11
199.342
21
-84.6636
0
LINE
8
BLACK
6
CONTINUOUS
10
199.342
20
-84.6636
11
199.285
21
-84.675
0
LINE
8
BLACK
6
CONTINUOUS
10
199.285
20
-84.675
11
198.985
21
-84.675
0
LINE
8
BLACK
6
CONTINUOUS
10
198.985
20
-84.675
11
198.928
21
-84.6636
0
LINE
8
BLACK
6
CONTINUOUS
10
198.928
20
-84.6636
11
198.879
21
-84.6311
0
LINE
8
BLACK
6
CONTINUOUS
10
198.879
20
-84.6311
11
198.846
21
-84.5824
0
LINE
8
BLACK
6
CONTINUOUS
10
198.846
20
-84.5824
11
198.835
21
-84.525
0
LINE
8
BLACK
6
CONTINUOUS
10
198.835
20
-84.525
11
198.835
21
-83.2
0
LINE
8
BLACK
6
CONTINUOUS
10
198.835
20
-83.2
11
198.846
21
-83.1426
0
LINE
8
BLACK
6
CONTINUOUS
10
198.846
20
-83.1426
11
198.879
21
-83.0939
0
LINE
8
BLACK
6
CONTINUOUS
10
198.879
20
-83.0939
11
198.928
21
-83.0614
0
LINE
8
BLACK
6
CONTINUOUS
10
198.928
20
-83.0614
11
198.985
21
-83.05
0
LINE
8
BLACK
6
CONTINUOUS
10
198.985
20
-83.05
11
199.285
21
-83.05
0
LINE
8
BLACK
6
CONTINUOUS
10
199.285
20
-83.05
11
199.342
21
-83.0614
0
LINE
8
BLACK
6
CONTINUOUS
10
200.612
20
-83.0614
11
200.661
21
-83.0939
0
LINE
8
BLACK
6
CONTINUOUS
10
200.661
20
-83.0939
11
200.694
21
-83.1426
0
LINE
8
BLACK
6
CONTINUOUS
10
200.694
20
-83.1426
11
200.705
21
-83.2
0
LINE
8
BLACK
6
CONTINUOUS
10
200.705
20
-83.2
11
200.705
21
-84.525
0
LINE
8
BLACK
6
CONTINUOUS
10
200.705
20
-84.525
11
200.694
21
-84.5824
0
LINE
8
BLACK
6
CONTINUOUS
10
200.694
20
-84.5824
11
200.661
21
-84.6311
0
LINE
8
BLACK
6
CONTINUOUS
10
200.661
20
-84.6311
11
200.612
21
-84.6636
0
LINE
8
BLACK
6
CONTINUOUS
10
200.612
20
-84.6636
11
200.555
21
-84.675
0
LINE
8
BLACK
6
CONTINUOUS
10
200.555
20
-84.675
11
200.255
21
-84.675
0
LINE
8
BLACK
6
CONTINUOUS
10
200.255
20
-84.675
11
200.198
21
-84.6636
0
LINE
8
BLACK
6
CONTINUOUS
10
200.198
20
-84.6636
11
200.149
21
-84.6311
0
LINE
8
BLACK
6
CONTINUOUS
10
200.149
20
-84.6311
11
200.116
21
-84.5824
0
LINE
8
BLACK
6
CONTINUOUS
10
200.116
20
-84.5824
11
200.105
21
-84.525
0
LINE
8
BLACK
6
CONTINUOUS
10
200.105
20
-84.525
11
200.105
21
-83.2
0
LINE
8
BLACK
6
CONTINUOUS
10
200.105
20
-83.2
11
200.116
21
-83.1426
0
LINE
8
BLACK
6
CONTINUOUS
10
200.116
20
-83.1426
11
200.149
21
-83.0939
0
LINE
8
BLACK
6
CONTINUOUS
10
200.149
20
-83.0939
11
200.198
21
-83.0614
0
LINE
8
BLACK
6
CONTINUOUS
10
200.198
20
-83.0614
11
200.255
21
-83.05
0
LINE
8
BLACK
6
CONTINUOUS
10
200.255
20
-83.05
11
200.555
21
-83.05
0
LINE
8
BLACK
6
CONTINUOUS
10
200.555
20
-83.05
11
200.612
21
-83.0614
0
LINE
8
BLACK
6
CONTINUOUS
10
198.072
20
-83.0614
11
198.121
21
-83.0939
0
LINE
8
BLACK
6
CONTINUOUS
10
198.121
20
-83.0939
11
198.154
21
-83.1426
0
LINE
8
BLACK
6
CONTINUOUS
10
198.154
20
-83.1426
11
198.165
21
-83.2
0
LINE
8
BLACK
6
CONTINUOUS
10
198.165
20
-83.2
11
198.165
21
-84.525
0
LINE
8
BLACK
6
CONTINUOUS
10
198.165
20
-84.525
11
198.154
21
-84.5824
0
LINE
8
BLACK
6
CONTINUOUS
10
198.154
20
-84.5824
11
198.121
21
-84.6311
0
LINE
8
BLACK
6
CONTINUOUS
10
198.121
20
-84.6311
11
198.072
21
-84.6636
0
LINE
8
BLACK
6
CONTINUOUS
10
198.072
20
-84.6636
11
198.015
21
-84.675
0
LINE
8
BLACK
6
CONTINUOUS
10
198.015
20
-84.675
11
197.715
21
-84.675
0
LINE
8
BLACK
6
CONTINUOUS
10
197.715
20
-84.675
11
197.658
21
-84.6636
0
LINE
8
BLACK
6
CONTINUOUS
10
197.658
20
-84.6636
11
197.609
21
-84.6311
0
LINE
8
BLACK
6
CONTINUOUS
10
197.609
20
-84.6311
11
197.576
21
-84.5824
0
LINE
8
BLACK
6
CONTINUOUS
10
197.576
20
-84.5824
11
197.565
21
-84.525
0
LINE
8
BLACK
6
CONTINUOUS
10
197.565
20
-84.525
11
197.565
21
-83.2
0
LINE
8
BLACK
6
CONTINUOUS
10
197.565
20
-83.2
11
197.576
21
-83.1426
0
LINE
8
BLACK
6
CONTINUOUS
10
197.576
20
-83.1426
11
197.609
21
-83.0939
0
LINE
8
BLACK
6
CONTINUOUS
10
197.609
20
-83.0939
11
197.658
21
-83.0614
0
LINE
8
BLACK
6
CONTINUOUS
10
197.658
20
-83.0614
11
197.715
21
-83.05
0
LINE
8
BLACK
6
CONTINUOUS
10
197.715
20
-83.05
11
198.015
21
-83.05
0
LINE
8
BLACK
6
CONTINUOUS
10
198.015
20
-83.05
11
198.072
21
-83.0614
0
LINE
8
BLACK
6
CONTINUOUS
10
196.802
20
-83.0614
11
196.851
21
-83.0939
0
LINE
8
BLACK
6
CONTINUOUS
10
196.851
20
-83.0939
11
196.884
21
-83.1426
0
LINE
8
BLACK
6
CONTINUOUS
10
196.884
20
-83.1426
11
196.895
21
-83.2
0
LINE
8
BLACK
6
CONTINUOUS
10
196.895
20
-83.2
11
196.895
21
-84.525
0
LINE
8
BLACK
6
CONTINUOUS
10
196.895
20
-84.525
11
196.884
21
-84.5824
0
LINE
8
BLACK
6
CONTINUOUS
10
196.884
20
-84.5824
11
196.851
21
-84.6311
0
LINE
8
BLACK
6
CONTINUOUS
10
196.851
20
-84.6311
11
196.802
21
-84.6636
0
LINE
8
BLACK
6
CONTINUOUS
10
196.802
20
-84.6636
11
196.745
21
-84.675
0
LINE
8
BLACK
6
CONTINUOUS
10
196.745
20
-84.675
11
196.445
21
-84.675
0
LINE
8
BLACK
6
CONTINUOUS
10
196.445
20
-84.675
11
196.388
21
-84.6636
0
LINE
8
BLACK
6
CONTINUOUS
10
196.388
20
-84.6636
11
196.339
21
-84.6311
0
LINE
8
BLACK
6
CONTINUOUS
10
196.339
20
-84.6311
11
196.306
21
-84.5824
0
LINE
8
BLACK
6
CONTINUOUS
10
196.306
20
-84.5824
11
196.295
21
-84.525
0
LINE
8
BLACK
6
CONTINUOUS
10
196.295
20
-84.525
11
196.295
21
-83.2
0
LINE
8
BLACK
6
CONTINUOUS
10
196.295
20
-83.2
11
196.306
21
-83.1426
0
LINE
8
BLACK
6
CONTINUOUS
10
196.306
20
-83.1426
11
196.339
21
-83.0939
0
LINE
8
BLACK
6
CONTINUOUS
10
196.339
20
-83.0939
11
196.388
21
-83.0614
0
LINE
8
BLACK
6
CONTINUOUS
10
196.388
20
-83.0614
11
196.445
21
-83.05
0
LINE
8
BLACK
6
CONTINUOUS
10
196.445
20
-83.05
11
196.745
21
-83.05
0
LINE
8
BLACK
6
CONTINUOUS
10
196.745
20
-83.05
11
196.802
21
-83.0614
0
LINE
8
BLACK
6
CONTINUOUS
10
179.582
20
-83.2114
11
179.631
21
-83.2439
0
LINE
8
BLACK
6
CONTINUOUS
10
179.631
20
-83.2439
11
179.664
21
-83.2926
0
LINE
8
BLACK
6
CONTINUOUS
10
179.664
20
-83.2926
11
179.675
21
-83.35
0
LINE
8
BLACK
6
CONTINUOUS
10
179.675
20
-83.35
11
179.675
21
-83.65
0
LINE
8
BLACK
6
CONTINUOUS
10
179.675
20
-83.65
11
179.664
21
-83.7074
0
LINE
8
BLACK
6
CONTINUOUS
10
179.664
20
-83.7074
11
179.631
21
-83.7561
0
LINE
8
BLACK
6
CONTINUOUS
10
179.631
20
-83.7561
11
179.582
21
-83.7886
0
LINE
8
BLACK
6
CONTINUOUS
10
179.582
20
-83.7886
11
179.525
21
-83.8
0
LINE
8
BLACK
6
CONTINUOUS
10
179.525
20
-83.8
11
178.35
21
-83.8
0
LINE
8
BLACK
6
CONTINUOUS
10
178.35
20
-83.8
11
178.293
21
-83.7886
0
LINE
8
BLACK
6
CONTINUOUS
10
178.293
20
-83.7886
11
178.244
21
-83.7561
0
LINE
8
BLACK
6
CONTINUOUS
10
178.244
20
-83.7561
11
178.211
21
-83.7074
0
LINE
8
BLACK
6
CONTINUOUS
10
178.211
20
-83.7074
11
178.2
21
-83.65
0
LINE
8
BLACK
6
CONTINUOUS
10
178.2
20
-83.65
11
178.2
21
-83.35
0
LINE
8
BLACK
6
CONTINUOUS
10
178.2
20
-83.35
11
178.211
21
-83.2926
0
LINE
8
BLACK
6
CONTINUOUS
10
178.211
20
-83.2926
11
178.244
21
-83.2439
0
LINE
8
BLACK
6
CONTINUOUS
10
178.244
20
-83.2439
11
178.293
21
-83.2114
0
LINE
8
BLACK
6
CONTINUOUS
10
178.293
20
-83.2114
11
178.35
21
-83.2
0
LINE
8
BLACK
6
CONTINUOUS
10
178.35
20
-83.2
11
179.525
21
-83.2
0
LINE
8
BLACK
6
CONTINUOUS
10
179.525
20
-83.2
11
179.582
21
-83.2114
0
LINE
8
BLACK
6
CONTINUOUS
10
182.328
20
-82.1181
11
182.405
21
-82.1696
0
LINE
8
BLACK
6
CONTINUOUS
10
182.405
20
-82.1696
11
182.457
21
-82.2466
0
LINE
8
BLACK
6
CONTINUOUS
10
182.457
20
-82.2466
11
182.475
21
-82.3375
0
LINE
8
BLACK
6
CONTINUOUS
10
182.475
20
-82.3375
11
182.475
21
-82.8375
0
LINE
8
BLACK
6
CONTINUOUS
10
182.475
20
-82.8375
11
182.457
21
-82.9284
0
LINE
8
BLACK
6
CONTINUOUS
10
182.457
20
-82.9284
11
182.405
21
-83.0054
0
LINE
8
BLACK
6
CONTINUOUS
10
182.405
20
-83.0054
11
182.328
21
-83.0569
0
LINE
8
BLACK
6
CONTINUOUS
10
182.328
20
-83.0569
11
182.237
21
-83.075
0
LINE
8
BLACK
6
CONTINUOUS
10
182.237
20
-83.075
11
181.762
21
-83.075
0
LINE
8
BLACK
6
CONTINUOUS
10
181.762
20
-83.075
11
181.672
21
-83.0569
0
LINE
8
BLACK
6
CONTINUOUS
10
181.672
20
-83.0569
11
181.595
21
-83.0054
0
LINE
8
BLACK
6
CONTINUOUS
10
181.595
20
-83.0054
11
181.543
21
-82.9284
0
LINE
8
BLACK
6
CONTINUOUS
10
181.543
20
-82.9284
11
181.525
21
-82.8375
0
LINE
8
BLACK
6
CONTINUOUS
10
181.525
20
-82.8375
11
181.525
21
-82.3375
0
LINE
8
BLACK
6
CONTINUOUS
10
181.525
20
-82.3375
11
181.543
21
-82.2466
0
LINE
8
BLACK
6
CONTINUOUS
10
181.543
20
-82.2466
11
181.595
21
-82.1696
0
LINE
8
BLACK
6
CONTINUOUS
10
181.595
20
-82.1696
11
181.672
21
-82.1181
0
LINE
8
BLACK
6
CONTINUOUS
10
181.672
20
-82.1181
11
181.762
21
-82.1
0
LINE
8
BLACK
6
CONTINUOUS
10
181.762
20
-82.1
11
182.237
21
-82.1
0
LINE
8
BLACK
6
CONTINUOUS
10
182.237
20
-82.1
11
182.328
21
-82.1181
0
LINE
8
BLACK
6
CONTINUOUS
10
177.707
20
-82.2614
11
177.756
21
-82.2939
0
LINE
8
BLACK
6
CONTINUOUS
10
177.756
20
-82.2939
11
177.789
21
-82.3426
0
LINE
8
BLACK
6
CONTINUOUS
10
177.789
20
-82.3426
11
177.8
21
-82.4
0
LINE
8
BLACK
6
CONTINUOUS
10
177.8
20
-82.4
11
177.8
21
-82.7
0
LINE
8
BLACK
6
CONTINUOUS
10
177.8
20
-82.7
11
177.789
21
-82.7574
0
LINE
8
BLACK
6
CONTINUOUS
10
177.789
20
-82.7574
11
177.756
21
-82.8061
0
LINE
8
BLACK
6
CONTINUOUS
10
177.756
20
-82.8061
11
177.707
21
-82.8386
0
LINE
8
BLACK
6
CONTINUOUS
10
177.707
20
-82.8386
11
177.65
21
-82.85
0
LINE
8
BLACK
6
CONTINUOUS
10
177.65
20
-82.85
11
176.475
21
-82.85
0
LINE
8
BLACK
6
CONTINUOUS
10
176.475
20
-82.85
11
176.418
21
-82.8386
0
LINE
8
BLACK
6
CONTINUOUS
10
176.418
20
-82.8386
11
176.369
21
-82.8061
0
LINE
8
BLACK
6
CONTINUOUS
10
176.369
20
-82.8061
11
176.336
21
-82.7574
0
LINE
8
BLACK
6
CONTINUOUS
10
176.336
20
-82.7574
11
176.325
21
-82.7
0
LINE
8
BLACK
6
CONTINUOUS
10
176.325
20
-82.7
11
176.325
21
-82.4
0
LINE
8
BLACK
6
CONTINUOUS
10
176.325
20
-82.4
11
176.336
21
-82.3426
0
LINE
8
BLACK
6
CONTINUOUS
10
176.336
20
-82.3426
11
176.369
21
-82.2939
0
LINE
8
BLACK
6
CONTINUOUS
10
176.369
20
-82.2939
11
176.418
21
-82.2614
0
LINE
8
BLACK
6
CONTINUOUS
10
176.418
20
-82.2614
11
176.475
21
-82.25
0
LINE
8
BLACK
6
CONTINUOUS
10
176.475
20
-82.25
11
177.65
21
-82.25
0
LINE
8
BLACK
6
CONTINUOUS
10
177.65
20
-82.25
11
177.707
21
-82.2614
0
LINE
8
BLACK
6
CONTINUOUS
10
192.975
20
-80.45
11
191.225
21
-80.45
0
LINE
8
BLACK
6
CONTINUOUS
10
191.225
20
-80.45
11
191.225
21
-80
0
LINE
8
BLACK
6
CONTINUOUS
10
191.225
20
-80
11
192.975
21
-80
0
LINE
8
BLACK
6
CONTINUOUS
10
192.975
20
-80
11
192.975
21
-80.45
0
LINE
8
BLACK
6
CONTINUOUS
10
185.775
20
-80.45
11
184.025
21
-80.45
0
LINE
8
BLACK
6
CONTINUOUS
10
184.025
20
-80.45
11
184.025
21
-80
0
LINE
8
BLACK
6
CONTINUOUS
10
184.025
20
-80
11
185.775
21
-80
0
LINE
8
BLACK
6
CONTINUOUS
10
185.775
20
-80
11
185.775
21
-80.45
0
LINE
8
BLACK
6
CONTINUOUS
10
181.328
20
-79.4431
11
181.405
21
-79.4946
0
LINE
8
BLACK
6
CONTINUOUS
10
181.405
20
-79.4946
11
181.457
21
-79.5716
0
LINE
8
BLACK
6
CONTINUOUS
10
181.457
20
-79.5716
11
181.475
21
-79.6625
0
LINE
8
BLACK
6
CONTINUOUS
10
181.475
20
-79.6625
11
181.475
21
-80.1625
0
LINE
8
BLACK
6
CONTINUOUS
10
181.475
20
-80.1625
11
181.457
21
-80.2534
0
LINE
8
BLACK
6
CONTINUOUS
10
181.457
20
-80.2534
11
181.405
21
-80.3304
0
LINE
8
BLACK
6
CONTINUOUS
10
181.405
20
-80.3304
11
181.328
21
-80.3819
0
LINE
8
BLACK
6
CONTINUOUS
10
181.328
20
-80.3819
11
181.237
21
-80.4
0
LINE
8
BLACK
6
CONTINUOUS
10
181.237
20
-80.4
11
180.762
21
-80.4
0
LINE
8
BLACK
6
CONTINUOUS
10
180.762
20
-80.4
11
180.672
21
-80.3819
0
LINE
8
BLACK
6
CONTINUOUS
10
180.672
20
-80.3819
11
180.595
21
-80.3304
0
LINE
8
BLACK
6
CONTINUOUS
10
180.595
20
-80.3304
11
180.543
21
-80.2534
0
LINE
8
BLACK
6
CONTINUOUS
10
180.543
20
-80.2534
11
180.525
21
-80.1625
0
LINE
8
BLACK
6
CONTINUOUS
10
180.525
20
-80.1625
11
180.525
21
-79.6625
0
LINE
8
BLACK
6
CONTINUOUS
10
180.525
20
-79.6625
11
180.543
21
-79.5716
0
LINE
8
BLACK
6
CONTINUOUS
10
180.543
20
-79.5716
11
180.595
21
-79.4946
0
LINE
8
BLACK
6
CONTINUOUS
10
180.595
20
-79.4946
11
180.672
21
-79.4431
0
LINE
8
BLACK
6
CONTINUOUS
10
180.672
20
-79.4431
11
180.762
21
-79.425
0
LINE
8
BLACK
6
CONTINUOUS
10
180.762
20
-79.425
11
181.237
21
-79.425
0
LINE
8
BLACK
6
CONTINUOUS
10
181.237
20
-79.425
11
181.328
21
-79.4431
0
LINE
8
BLACK
6
CONTINUOUS
10
192.975
20
-79.8
11
191.225
21
-79.8
0
LINE
8
BLACK
6
CONTINUOUS
10
191.225
20
-79.8
11
191.225
21
-79.35
0
LINE
8
BLACK
6
CONTINUOUS
10
191.225
20
-79.35
11
192.975
21
-79.35
0
LINE
8
BLACK
6
CONTINUOUS
10
192.975
20
-79.35
11
192.975
21
-79.8
0
LINE
8
BLACK
6
CONTINUOUS
10
185.775
20
-79.8
11
184.025
21
-79.8
0
LINE
8
BLACK
6
CONTINUOUS
10
184.025
20
-79.8
11
184.025
21
-79.35
0
LINE
8
BLACK
6
CONTINUOUS
10
184.025
20
-79.35
11
185.775
21
-79.35
0
LINE
8
BLACK
6
CONTINUOUS
10
185.775
20
-79.35
11
185.775
21
-79.8
0
LINE
8
BLACK
6
CONTINUOUS
10
192.975
20
-79.15
11
191.225
21
-79.15
0
LINE
8
BLACK
6
CONTINUOUS
10
191.225
20
-79.15
11
191.225
21
-78.7
0
LINE
8
BLACK
6
CONTINUOUS
10
191.225
20
-78.7
11
192.975
21
-78.7
0
LINE
8
BLACK
6
CONTINUOUS
10
192.975
20
-78.7
11
192.975
21
-79.15
0
LINE
8
BLACK
6
CONTINUOUS
10
185.775
20
-79.15
11
184.025
21
-79.15
0
LINE
8
BLACK
6
CONTINUOUS
10
184.025
20
-79.15
11
184.025
21
-78.7
0
LINE
8
BLACK
6
CONTINUOUS
10
184.025
20
-78.7
11
185.775
21
-78.7
0
LINE
8
BLACK
6
CONTINUOUS
10
185.775
20
-78.7
11
185.775
21
-79.15
0
LINE
8
BLACK
6
CONTINUOUS
10
197.753
20
-78.0431
11
197.83
21
-78.0946
0
LINE
8
BLACK
6
CONTINUOUS
10
197.83
20
-78.0946
11
197.882
21
-78.1716
0
LINE
8
BLACK
6
CONTINUOUS
10
197.882
20
-78.1716
11
197.9
21
-78.2625
0
LINE
8
BLACK
6
CONTINUOUS
10
197.9
20
-78.2625
11
197.9
21
-78.7375
0
LINE
8
BLACK
6
CONTINUOUS
10
197.9
20
-78.7375
11
197.882
21
-78.8284
0
LINE
8
BLACK
6
CONTINUOUS
10
197.882
20
-78.8284
11
197.83
21
-78.9054
0
LINE
8
BLACK
6
CONTINUOUS
10
197.83
20
-78.9054
11
197.753
21
-78.9569
0
LINE
8
BLACK
6
CONTINUOUS
10
197.753
20
-78.9569
11
197.662
21
-78.975
0
LINE
8
BLACK
6
CONTINUOUS
10
197.662
20
-78.975
11
197.162
21
-78.975
0
LINE
8
BLACK
6
CONTINUOUS
10
197.162
20
-78.975
11
197.072
21
-78.9569
0
LINE
8
BLACK
6
CONTINUOUS
10
197.072
20
-78.9569
11
196.995
21
-78.9054
0
LINE
8
BLACK
6
CONTINUOUS
10
196.995
20
-78.9054
11
196.943
21
-78.8284
0
LINE
8
BLACK
6
CONTINUOUS
10
196.943
20
-78.8284
11
196.925
21
-78.7375
0
LINE
8
BLACK
6
CONTINUOUS
10
196.925
20
-78.7375
11
196.925
21
-78.2625
0
LINE
8
BLACK
6
CONTINUOUS
10
196.925
20
-78.2625
11
196.943
21
-78.1716
0
LINE
8
BLACK
6
CONTINUOUS
10
196.943
20
-78.1716
11
196.995
21
-78.0946
0
LINE
8
BLACK
6
CONTINUOUS
10
196.995
20
-78.0946
11
197.072
21
-78.0431
0
LINE
8
BLACK
6
CONTINUOUS
10
197.072
20
-78.0431
11
197.162
21
-78.025
0
LINE
8
BLACK
6
CONTINUOUS
10
197.162
20
-78.025
11
197.662
21
-78.025
0
LINE
8
BLACK
6
CONTINUOUS
10
197.662
20
-78.025
11
197.753
21
-78.0431
0
LINE
8
BLACK
6
CONTINUOUS
10
195.928
20
-78.0431
11
196.005
21
-78.0946
0
LINE
8
BLACK
6
CONTINUOUS
10
196.005
20
-78.0946
11
196.057
21
-78.1716
0
LINE
8
BLACK
6
CONTINUOUS
10
196.057
20
-78.1716
11
196.075
21
-78.2625
0
LINE
8
BLACK
6
CONTINUOUS
10
196.075
20
-78.2625
11
196.075
21
-78.7375
0
LINE
8
BLACK
6
CONTINUOUS
10
196.075
20
-78.7375
11
196.057
21
-78.8284
0
LINE
8
BLACK
6
CONTINUOUS
10
196.057
20
-78.8284
11
196.005
21
-78.9054
0
LINE
8
BLACK
6
CONTINUOUS
10
196.005
20
-78.9054
11
195.928
21
-78.9569
0
LINE
8
BLACK
6
CONTINUOUS
10
195.928
20
-78.9569
11
195.837
21
-78.975
0
LINE
8
BLACK
6
CONTINUOUS
10
195.837
20
-78.975
11
195.337
21
-78.975
0
LINE
8
BLACK
6
CONTINUOUS
10
195.337
20
-78.975
11
195.247
21
-78.9569
0
LINE
8
BLACK
6
CONTINUOUS
10
195.247
20
-78.9569
11
195.17
21
-78.9054
0
LINE
8
BLACK
6
CONTINUOUS
10
195.17
20
-78.9054
11
195.118
21
-78.8284
0
LINE
8
BLACK
6
CONTINUOUS
10
195.118
20
-78.8284
11
195.1
21
-78.7375
0
LINE
8
BLACK
6
CONTINUOUS
10
195.1
20
-78.7375
11
195.1
21
-78.2625
0
LINE
8
BLACK
6
CONTINUOUS
10
195.1
20
-78.2625
11
195.118
21
-78.1716
0
LINE
8
BLACK
6
CONTINUOUS
10
195.118
20
-78.1716
11
195.17
21
-78.0946
0
LINE
8
BLACK
6
CONTINUOUS
10
195.17
20
-78.0946
11
195.247
21
-78.0431
0
LINE
8
BLACK
6
CONTINUOUS
10
195.247
20
-78.0431
11
195.337
21
-78.025
0
LINE
8
BLACK
6
CONTINUOUS
10
195.337
20
-78.025
11
195.837
21
-78.025
0
LINE
8
BLACK
6
CONTINUOUS
10
195.837
20
-78.025
11
195.928
21
-78.0431
0
LINE
8
BLACK
6
CONTINUOUS
10
181.328
20
-77.6181
11
181.405
21
-77.6696
0
LINE
8
BLACK
6
CONTINUOUS
10
181.405
20
-77.6696
11
181.457
21
-77.7466
0
LINE
8
BLACK
6
CONTINUOUS
10
181.457
20
-77.7466
11
181.475
21
-77.8375
0
LINE
8
BLACK
6
CONTINUOUS
10
181.475
20
-77.8375
11
181.475
21
-78.3375
0
LINE
8
BLACK
6
CONTINUOUS
10
181.475
20
-78.3375
11
181.457
21
-78.4284
0
LINE
8
BLACK
6
CONTINUOUS
10
181.457
20
-78.4284
11
181.405
21
-78.5054
0
LINE
8
BLACK
6
CONTINUOUS
10
181.405
20
-78.5054
11
181.328
21
-78.5569
0
LINE
8
BLACK
6
CONTINUOUS
10
181.328
20
-78.5569
11
181.237
21
-78.575
0
LINE
8
BLACK
6
CONTINUOUS
10
181.237
20
-78.575
11
180.762
21
-78.575
0
LINE
8
BLACK
6
CONTINUOUS
10
180.762
20
-78.575
11
180.672
21
-78.5569
0
LINE
8
BLACK
6
CONTINUOUS
10
180.672
20
-78.5569
11
180.595
21
-78.5054
0
LINE
8
BLACK
6
CONTINUOUS
10
180.595
20
-78.5054
11
180.543
21
-78.4284
0
LINE
8
BLACK
6
CONTINUOUS
10
180.543
20
-78.4284
11
180.525
21
-78.3375
0
LINE
8
BLACK
6
CONTINUOUS
10
180.525
20
-78.3375
11
180.525
21
-77.8375
0
LINE
8
BLACK
6
CONTINUOUS
10
180.525
20
-77.8375
11
180.543
21
-77.7466
0
LINE
8
BLACK
6
CONTINUOUS
10
180.543
20
-77.7466
11
180.595
21
-77.6696
0
LINE
8
BLACK
6
CONTINUOUS
10
180.595
20
-77.6696
11
180.672
21
-77.6181
0
LINE
8
BLACK
6
CONTINUOUS
10
180.672
20
-77.6181
11
180.762
21
-77.6
0
LINE
8
BLACK
6
CONTINUOUS
10
180.762
20
-77.6
11
181.237
21
-77.6
0
LINE
8
BLACK
6
CONTINUOUS
10
181.237
20
-77.6
11
181.328
21
-77.6181
0
LINE
8
BLACK
6
CONTINUOUS
10
192.975
20
-78.5
11
191.225
21
-78.5
0
LINE
8
BLACK
6
CONTINUOUS
10
191.225
20
-78.5
11
191.225
21
-78.05
0
LINE
8
BLACK
6
CONTINUOUS
10
191.225
20
-78.05
11
192.975
21
-78.05
0
LINE
8
BLACK
6
CONTINUOUS
10
192.975
20
-78.05
11
192.975
21
-78.5
0
LINE
8
BLACK
6
CONTINUOUS
10
185.775
20
-78.5
11
184.025
21
-78.5
0
LINE
8
BLACK
6
CONTINUOUS
10
184.025
20
-78.5
11
184.025
21
-78.05
0
LINE
8
BLACK
6
CONTINUOUS
10
184.025
20
-78.05
11
185.775
21
-78.05
0
LINE
8
BLACK
6
CONTINUOUS
10
185.775
20
-78.05
11
185.775
21
-78.5
0
LINE
8
BLACK
6
CONTINUOUS
10
192.975
20
-77.85
11
191.225
21
-77.85
0
LINE
8
BLACK
6
CONTINUOUS
10
191.225
20
-77.85
11
191.225
21
-77.4
0
LINE
8
BLACK
6
CONTINUOUS
10
191.225
20
-77.4
11
192.975
21
-77.4
0
LINE
8
BLACK
6
CONTINUOUS
10
192.975
20
-77.4
11
192.975
21
-77.85
0
LINE
8
BLACK
6
CONTINUOUS
10
185.775
20
-77.85
11
184.025
21
-77.85
0
LINE
8
BLACK
6
CONTINUOUS
10
184.025
20
-77.85
11
184.025
21
-77.4
0
LINE
8
BLACK
6
CONTINUOUS
10
184.025
20
-77.4
11
185.775
21
-77.4
0
LINE
8
BLACK
6
CONTINUOUS
10
185.775
20
-77.4
11
185.775
21
-77.85
0
LINE
8
BLACK
6
CONTINUOUS
10
192.975
20
-77.2
11
191.225
21
-77.2
0
LINE
8
BLACK
6
CONTINUOUS
10
191.225
20
-77.2
11
191.225
21
-76.75
0
LINE
8
BLACK
6
CONTINUOUS
10
191.225
20
-76.75
11
192.975
21
-76.75
0
LINE
8
BLACK
6
CONTINUOUS
10
192.975
20
-76.75
11
192.975
21
-77.2
0
LINE
8
BLACK
6
CONTINUOUS
10
185.775
20
-77.2
11
184.025
21
-77.2
0
LINE
8
BLACK
6
CONTINUOUS
10
184.025
20
-77.2
11
184.025
21
-76.75
0
LINE
8
BLACK
6
CONTINUOUS
10
184.025
20
-76.75
11
185.775
21
-76.75
0
LINE
8
BLACK
6
CONTINUOUS
10
185.775
20
-76.75
11
185.775
21
-77.2
0
LINE
8
BLACK
6
CONTINUOUS
10
192.975
20
-76.55
11
191.225
21
-76.55
0
LINE
8
BLACK
6
CONTINUOUS
10
191.225
20
-76.55
11
191.225
21
-76.1
0
LINE
8
BLACK
6
CONTINUOUS
10
191.225
20
-76.1
11
192.975
21
-76.1
0
LINE
8
BLACK
6
CONTINUOUS
10
192.975
20
-76.1
11
192.975
21
-76.55
0
LINE
8
BLACK
6
CONTINUOUS
10
185.775
20
-76.55
11
184.025
21
-76.55
0
LINE
8
BLACK
6
CONTINUOUS
10
184.025
20
-76.55
11
184.025
21
-76.1
0
LINE
8
BLACK
6
CONTINUOUS
10
184.025
20
-76.1
11
185.775
21
-76.1
0
LINE
8
BLACK
6
CONTINUOUS
10
185.775
20
-76.1
11
185.775
21
-76.55
0
LINE
8
BLACK
6
CONTINUOUS
10
192.975
20
-75.9
11
191.225
21
-75.9
0
LINE
8
BLACK
6
CONTINUOUS
10
191.225
20
-75.9
11
191.225
21
-75.45
0
LINE
8
BLACK
6
CONTINUOUS
10
191.225
20
-75.45
11
192.975
21
-75.45
0
LINE
8
BLACK
6
CONTINUOUS
10
192.975
20
-75.45
11
192.975
21
-75.9
0
LINE
8
BLACK
6
CONTINUOUS
10
185.775
20
-75.9
11
184.025
21
-75.9
0
LINE
8
BLACK
6
CONTINUOUS
10
184.025
20
-75.9
11
184.025
21
-75.45
0
LINE
8
BLACK
6
CONTINUOUS
10
184.025
20
-75.45
11
185.775
21
-75.45
0
LINE
8
BLACK
6
CONTINUOUS
10
185.775
20
-75.45
11
185.775
21
-75.9
0
LINE
8
BLACK
6
CONTINUOUS
10
192.975
20
-75.25
11
191.225
21
-75.25
0
LINE
8
BLACK
6
CONTINUOUS
10
191.225
20
-75.25
11
191.225
21
-74.8
0
LINE
8
BLACK
6
CONTINUOUS
10
191.225
20
-74.8
11
192.975
21
-74.8
0
LINE
8
BLACK
6
CONTINUOUS
10
192.975
20
-74.8
11
192.975
21
-75.25
0
LINE
8
BLACK
6
CONTINUOUS
10
185.775
20
-75.25
11
184.025
21
-75.25
0
LINE
8
BLACK
6
CONTINUOUS
10
184.025
20
-75.25
11
184.025
21
-74.8
0
LINE
8
BLACK
6
CONTINUOUS
10
184.025
20
-74.8
11
185.775
21
-74.8
0
LINE
8
BLACK
6
CONTINUOUS
10
185.775
20
-74.8
11
185.775
21
-75.25
0
LINE
8
BLACK
6
CONTINUOUS
10
192.975
20
-74.6
11
191.225
21
-74.6
0
LINE
8
BLACK
6
CONTINUOUS
10
191.225
20
-74.6
11
191.225
21
-74.15
0
LINE
8
BLACK
6
CONTINUOUS
10
191.225
20
-74.15
11
192.975
21
-74.15
0
LINE
8
BLACK
6
CONTINUOUS
10
192.975
20
-74.15
11
192.975
21
-74.6
0
LINE
8
BLACK
6
CONTINUOUS
10
185.775
20
-74.6
11
184.025
21
-74.6
0
LINE
8
BLACK
6
CONTINUOUS
10
184.025
20
-74.6
11
184.025
21
-74.15
0
LINE
8
BLACK
6
CONTINUOUS
10
184.025
20
-74.15
11
185.775
21
-74.15
0
LINE
8
BLACK
6
CONTINUOUS
10
185.775
20
-74.15
11
185.775
21
-74.6
0
LINE
8
BLACK
6
CONTINUOUS
10
185.775
20
-73.95
11
184.025
21
-73.95
0
LINE
8
BLACK
6
CONTINUOUS
10
184.025
20
-73.95
11
184.025
21
-73.5
0
LINE
8
BLACK
6
CONTINUOUS
10
184.025
20
-73.5
11
185.775
21
-73.5
0
LINE
8
BLACK
6
CONTINUOUS
10
185.775
20
-73.5
11
185.775
21
-73.95
0
LINE
8
BLACK
6
CONTINUOUS
10
192.975
20
-73.95
11
191.225
21
-73.95
0
LINE
8
BLACK
6
CONTINUOUS
10
191.225
20
-73.95
11
191.225
21
-73.5
0
LINE
8
BLACK
6
CONTINUOUS
10
191.225
20
-73.5
11
192.975
21
-73.5
0
LINE
8
BLACK
6
CONTINUOUS
10
192.975
20
-73.5
11
192.975
21
-73.95
0
LINE
8
BLACK
6
CONTINUOUS
10
192.975
20
-73.3
11
191.225
21
-73.3
0
LINE
8
BLACK
6
CONTINUOUS
10
191.225
20
-73.3
11
191.225
21
-72.85
0
LINE
8
BLACK
6
CONTINUOUS
10
191.225
20
-72.85
11
192.975
21
-72.85
0
LINE
8
BLACK
6
CONTINUOUS
10
192.975
20
-72.85
11
192.975
21
-73.3
0
LINE
8
BLACK
6
CONTINUOUS
10
185.775
20
-73.3
11
184.025
21
-73.3
0
LINE
8
BLACK
6
CONTINUOUS
10
184.025
20
-73.3
11
184.025
21
-72.85
0
LINE
8
BLACK
6
CONTINUOUS
10
184.025
20
-72.85
11
185.775
21
-72.85
0
LINE
8
BLACK
6
CONTINUOUS
10
185.775
20
-72.85
11
185.775
21
-73.3
0
LINE
8
BLACK
6
CONTINUOUS
10
192.975
20
-72.65
11
191.225
21
-72.65
0
LINE
8
BLACK
6
CONTINUOUS
10
191.225
20
-72.65
11
191.225
21
-72.2
0
LINE
8
BLACK
6
CONTINUOUS
10
191.225
20
-72.2
11
192.975
21
-72.2
0
LINE
8
BLACK
6
CONTINUOUS
10
192.975
20
-72.2
11
192.975
21
-72.65
0
LINE
8
BLACK
6
CONTINUOUS
10
185.775
20
-72.65
11
184.025
21
-72.65
0
LINE
8
BLACK
6
CONTINUOUS
10
184.025
20
-72.65
11
184.025
21
-72.2
0
LINE
8
BLACK
6
CONTINUOUS
10
184.025
20
-72.2
11
185.775
21
-72.2
0
LINE
8
BLACK
6
CONTINUOUS
10
185.775
20
-72.2
11
185.775
21
-72.65
0
LINE
8
BLACK
6
CONTINUOUS
10
192.975
20
-72
11
191.225
21
-72
0
LINE
8
BLACK
6
CONTINUOUS
10
191.225
20
-72
11
191.225
21
-71.55
0
LINE
8
BLACK
6
CONTINUOUS
10
191.225
20
-71.55
11
192.975
21
-71.55
0
LINE
8
BLACK
6
CONTINUOUS
10
192.975
20
-71.55
11
192.975
21
-72
0
LINE
8
BLACK
6
CONTINUOUS
10
185.775
20
-72
11
184.025
21
-72
0
LINE
8
BLACK
6
CONTINUOUS
10
184.025
20
-72
11
184.025
21
-71.55
0
LINE
8
BLACK
6
CONTINUOUS
10
184.025
20
-71.55
11
185.775
21
-71.55
0
LINE
8
BLACK
6
CONTINUOUS
10
185.775
20
-71.55
11
185.775
21
-72
  0
ENDSEC
  0
EOF
