%TF.GenerationSoftware,KiCad,Pcbnew,8.0.3*%
%TF.CreationDate,2024-07-05T07:33:57-06:00*%
%TF.ProjectId,Master of Dungeons,4d617374-6572-4206-9f66-2044756e6765,rev?*%
%TF.SameCoordinates,Original*%
%TF.FileFunction,Copper,L2,Inr*%
%TF.FilePolarity,Positive*%
%FSLAX46Y46*%
G04 Gerber Fmt 4.6, Leading zero omitted, Abs format (unit mm)*
G04 Created by KiCad (PCBNEW 8.0.3) date 2024-07-05 07:33:57*
%MOMM*%
%LPD*%
G01*
G04 APERTURE LIST*
G04 Aperture macros list*
%AMRoundRect*
0 Rectangle with rounded corners*
0 $1 Rounding radius*
0 $2 $3 $4 $5 $6 $7 $8 $9 X,Y pos of 4 corners*
0 Add a 4 corners polygon primitive as box body*
4,1,4,$2,$3,$4,$5,$6,$7,$8,$9,$2,$3,0*
0 Add four circle primitives for the rounded corners*
1,1,$1+$1,$2,$3*
1,1,$1+$1,$4,$5*
1,1,$1+$1,$6,$7*
1,1,$1+$1,$8,$9*
0 Add four rect primitives between the rounded corners*
20,1,$1+$1,$2,$3,$4,$5,0*
20,1,$1+$1,$4,$5,$6,$7,0*
20,1,$1+$1,$6,$7,$8,$9,0*
20,1,$1+$1,$8,$9,$2,$3,0*%
G04 Aperture macros list end*
%TA.AperFunction,ComponentPad*%
%ADD10RoundRect,0.250000X0.750000X-0.600000X0.750000X0.600000X-0.750000X0.600000X-0.750000X-0.600000X0*%
%TD*%
%TA.AperFunction,ComponentPad*%
%ADD11O,2.000000X1.700000*%
%TD*%
%TA.AperFunction,ComponentPad*%
%ADD12RoundRect,0.250000X0.600000X0.750000X-0.600000X0.750000X-0.600000X-0.750000X0.600000X-0.750000X0*%
%TD*%
%TA.AperFunction,ComponentPad*%
%ADD13O,1.700000X2.000000*%
%TD*%
%TA.AperFunction,ComponentPad*%
%ADD14RoundRect,0.250000X-0.750000X0.600000X-0.750000X-0.600000X0.750000X-0.600000X0.750000X0.600000X0*%
%TD*%
%TA.AperFunction,ComponentPad*%
%ADD15RoundRect,0.250000X-0.600000X-0.750000X0.600000X-0.750000X0.600000X0.750000X-0.600000X0.750000X0*%
%TD*%
%TA.AperFunction,ComponentPad*%
%ADD16R,1.800000X1.800000*%
%TD*%
%TA.AperFunction,ComponentPad*%
%ADD17C,1.800000*%
%TD*%
%TA.AperFunction,HeatsinkPad*%
%ADD18C,0.600000*%
%TD*%
%TA.AperFunction,ViaPad*%
%ADD19C,0.600000*%
%TD*%
G04 APERTURE END LIST*
D10*
%TO.N,Net-(D17-A)*%
%TO.C,J23*%
X220050000Y-102700000D03*
D11*
%TO.N,+5V*%
X220050000Y-100200000D03*
%TD*%
D12*
%TO.N,Net-(D1-A)*%
%TO.C,J2*%
X137850000Y-31450000D03*
D13*
%TO.N,+5V*%
X135350000Y-31450000D03*
%TD*%
D12*
%TO.N,Net-(D43-A)*%
%TO.C,J15*%
X190070000Y-31490000D03*
D13*
%TO.N,+5V*%
X187570000Y-31490000D03*
%TD*%
D10*
%TO.N,Net-(D15-A)*%
%TO.C,J22*%
X220050000Y-93250000D03*
D11*
%TO.N,+5V*%
X220050000Y-90750000D03*
%TD*%
D12*
%TO.N,Net-(D6-A)*%
%TO.C,J3*%
X128850000Y-31450000D03*
D13*
%TO.N,+5V*%
X126350000Y-31450000D03*
%TD*%
D14*
%TO.N,Net-(D29-A)*%
%TO.C,J8*%
X79950000Y-93250000D03*
D11*
%TO.N,+5V*%
X79950000Y-95750000D03*
%TD*%
D12*
%TO.N,Net-(D4-A)*%
%TO.C,J4*%
X119850000Y-31450000D03*
D13*
%TO.N,+5V*%
X117350000Y-31450000D03*
%TD*%
D15*
%TO.N,Net-(D41-A)*%
%TO.C,J14*%
X165200000Y-136550000D03*
D13*
%TO.N,+5V*%
X167700000Y-136550000D03*
%TD*%
D10*
%TO.N,Net-(D10-A)*%
%TO.C,J19*%
X220080000Y-64890000D03*
D11*
%TO.N,+5V*%
X220080000Y-62390000D03*
%TD*%
D16*
%TO.N,Net-(J25-Pin_1)*%
%TO.C,U2*%
X102980000Y-46950000D03*
D17*
%TO.N,GND*%
X102980000Y-49490000D03*
%TO.N,Net-(U1-VDD)*%
X102980000Y-52030000D03*
%TD*%
D14*
%TO.N,Net-(D31-A)*%
%TO.C,J9*%
X79950000Y-102700000D03*
D11*
%TO.N,+5V*%
X79950000Y-105200000D03*
%TD*%
D15*
%TO.N,Net-(D37-A)*%
%TO.C,J12*%
X146300000Y-136550000D03*
D13*
%TO.N,+5V*%
X148800000Y-136550000D03*
%TD*%
D12*
%TO.N,Net-(D2-A)*%
%TO.C,J1*%
X146850000Y-31450000D03*
D13*
%TO.N,+5V*%
X144350000Y-31450000D03*
%TD*%
D14*
%TO.N,Net-(D25-A)*%
%TO.C,J6*%
X79950000Y-74350000D03*
D11*
%TO.N,+5V*%
X79950000Y-76850000D03*
%TD*%
D14*
%TO.N,Net-(D27-A)*%
%TO.C,J7*%
X79950000Y-83800000D03*
D11*
%TO.N,+5V*%
X79950000Y-86300000D03*
%TD*%
D10*
%TO.N,Net-(D11-A)*%
%TO.C,J20*%
X220050000Y-74350000D03*
D11*
%TO.N,+5V*%
X220050000Y-71850000D03*
%TD*%
D12*
%TO.N,Net-(D47-A)*%
%TO.C,J17*%
X171170000Y-31490000D03*
D13*
%TO.N,+5V*%
X168670000Y-31490000D03*
%TD*%
D10*
%TO.N,Net-(D19-A)*%
%TO.C,J24*%
X220050000Y-112150000D03*
D11*
%TO.N,+5V*%
X220050000Y-109650000D03*
%TD*%
D15*
%TO.N,Net-(D35-A)*%
%TO.C,J11*%
X136850000Y-136550000D03*
D13*
%TO.N,+5V*%
X139350000Y-136550000D03*
%TD*%
D18*
%TO.N,GND*%
%TO.C,U1*%
X146810000Y-91015000D03*
X146810000Y-92415000D03*
X147510000Y-90315000D03*
X147510000Y-91715000D03*
X147510000Y-93115000D03*
X148185000Y-91015000D03*
X148185000Y-92415000D03*
X148910000Y-90315000D03*
X148910000Y-91715000D03*
X148910000Y-93115000D03*
X149610000Y-91015000D03*
X149610000Y-92415000D03*
%TD*%
D14*
%TO.N,Net-(D23-A)*%
%TO.C,J5*%
X79950000Y-64900000D03*
D11*
%TO.N,+5V*%
X79950000Y-67400000D03*
%TD*%
D12*
%TO.N,Net-(D45-A)*%
%TO.C,J16*%
X180620000Y-31490000D03*
D13*
%TO.N,+5V*%
X178120000Y-31490000D03*
%TD*%
D12*
%TO.N,Net-(D49-A)*%
%TO.C,J18*%
X161720000Y-31490000D03*
D13*
%TO.N,+5V*%
X159220000Y-31490000D03*
%TD*%
D15*
%TO.N,Net-(D39-A)*%
%TO.C,J13*%
X155750000Y-136550000D03*
D13*
%TO.N,+5V*%
X158250000Y-136550000D03*
%TD*%
D14*
%TO.N,Net-(D33-A)*%
%TO.C,J10*%
X79950000Y-112150000D03*
D11*
%TO.N,+5V*%
X79950000Y-114650000D03*
%TD*%
D10*
%TO.N,Net-(D13-A)*%
%TO.C,J21*%
X220050000Y-83800000D03*
D11*
%TO.N,+5V*%
X220050000Y-81300000D03*
%TD*%
D12*
%TO.N,Net-(J25-Pin_1)*%
%TO.C,J25*%
X102750000Y-33050000D03*
D13*
%TO.N,GND*%
X100250000Y-33050000D03*
%TD*%
D19*
%TO.N,GND*%
X158300028Y-83993519D03*
X141500000Y-84000000D03*
X144000000Y-101500000D03*
X144000000Y-102000000D03*
X159000000Y-84000000D03*
X140800028Y-83993519D03*
%TO.N,+5V*%
X215500000Y-72000000D03*
X178500000Y-35500000D03*
X210500000Y-73500000D03*
X145000000Y-35500000D03*
X195000000Y-92500000D03*
X105500000Y-76500000D03*
X188000000Y-50000000D03*
X194500000Y-102000000D03*
X157500000Y-132500000D03*
X127000000Y-38000000D03*
X85500000Y-114500000D03*
X210500000Y-102000000D03*
X85500000Y-76500000D03*
X169000000Y-35500000D03*
X90000000Y-114000000D03*
X118000000Y-38000000D03*
X161500000Y-50000000D03*
X138500000Y-132500000D03*
X138000000Y-50000000D03*
X138000000Y-129500000D03*
X85500000Y-67000000D03*
X126500000Y-35500000D03*
X195000000Y-111500000D03*
X136000000Y-35500000D03*
X187500000Y-35500000D03*
X117500000Y-35500000D03*
X156500000Y-117000000D03*
X215500000Y-81500000D03*
X180500000Y-50000000D03*
X105500000Y-86000000D03*
X167000000Y-129000000D03*
X148000000Y-132500000D03*
X188000000Y-38000000D03*
X147500000Y-129500000D03*
X215500000Y-91000000D03*
X159500000Y-35500000D03*
X85500000Y-86500000D03*
X105500000Y-67000000D03*
X85500000Y-95500000D03*
X215500000Y-63000000D03*
X90000000Y-66500000D03*
X147000000Y-117000000D03*
X145000000Y-38000000D03*
X166000000Y-117000000D03*
X167500000Y-132500000D03*
X137500000Y-117000000D03*
X210500000Y-83000000D03*
X146500000Y-50000000D03*
X105500000Y-95500000D03*
X90000000Y-95000000D03*
X194500000Y-83000000D03*
X105500000Y-105000000D03*
X215500000Y-109500000D03*
X210500000Y-64000000D03*
X195000000Y-74000000D03*
X136500000Y-38000000D03*
X157000000Y-129000000D03*
X90000000Y-76000000D03*
X169500000Y-38000000D03*
X160000000Y-38000000D03*
X179500000Y-38000000D03*
X215500000Y-100500000D03*
X171000000Y-50000000D03*
X90000000Y-104500000D03*
X120000000Y-50000000D03*
X129000000Y-50000000D03*
X105500000Y-114000000D03*
X85500000Y-105000000D03*
X90000000Y-86000000D03*
X210500000Y-92500000D03*
X210500000Y-111000000D03*
X195000000Y-64500000D03*
%TO.N,Net-(U1-VDD)*%
X139000000Y-85000000D03*
%TO.N,TIMER1*%
X187587500Y-46500000D03*
X160420000Y-100540000D03*
%TO.N,TIMER2*%
X179087500Y-46500000D03*
X160450000Y-99210000D03*
%TO.N,TIMER3*%
X169087500Y-46500000D03*
X160400000Y-97980000D03*
%TO.N,TIMER4*%
X159587500Y-46500000D03*
X160370000Y-96720000D03*
%TD*%
M02*
