<?xml version="1.0" standalone="no"?>
 <!DOCTYPE svg PUBLIC "-//W3C//DTD SVG 1.1//EN" 
 "http://www.w3.org/Graphics/SVG/1.1/DTD/svg11.dtd"> 
<svg
  xmlns:svg="http://www.w3.org/2000/svg"
  xmlns="http://www.w3.org/2000/svg"
  xmlns:xlink="http://www.w3.org/1999/xlink"
  version="1.1"
  width="29.700220cm" height="21.000720cm" viewBox="0 0 297002200 210007200">
<title>SVG Picture created as Rectangle Control Module V1.0.4-F_Silkscreen.svg date 2022/09/14 13:30:10 </title>
  <desc>Picture generated by PCBNEW </desc>
<g style="fill:#000000; fill-opacity:1.000000;stroke:#000000; stroke-opacity:1.000000;
stroke-linecap:round; stroke-linejoin:round;"
 transform="translate(0 0) scale(1 1)">
</g>
<g style="fill:#000000; fill-opacity:0.0; 
stroke:#000000; stroke-width:0.000000; stroke-opacity:1; 
stroke-linecap:round; stroke-linejoin:round;">
</g>
<g style="fill:#000000; fill-opacity:1.0; 
stroke:#000000; stroke-width:21200.000000; stroke-opacity:1; 
stroke-linecap:round; stroke-linejoin:round;">
<rect x="83875000.000000" y="45775000.000000" width="35450000.000000" height="48150000.000000" rx="0.000000" />
</g>
<g style="fill:#FFFFFF; fill-opacity:1.0; 
stroke:#FFFFFF; stroke-width:21200.000000; stroke-opacity:1; 
stroke-linecap:round; stroke-linejoin:round;">
</g>
<g style="fill:#FFFFFF; fill-opacity:1.0; 
stroke:#FFFFFF; stroke-width:150000.000000; stroke-opacity:1; 
stroke-linecap:round; stroke-linejoin:round;">
</g>
<g style="fill:#FFFFFF; fill-opacity:0.0; 
stroke:#FFFFFF; stroke-width:150000.000000; stroke-opacity:1; 
stroke-linecap:round; stroke-linejoin:round;">
<text x="101630000.000000" y="86270000.000000"
textLength="5388095.000000" font-size="1333333.000000" lengthAdjust="spacingAndGlyphs"
text-anchor="middle" opacity="0">USB-C</text>
<g class="stroked-text"><desc>USB-C</desc>
<path d="M99249047 85222380
L99249047 86031904
L99296666 86127142
L99344285 86174761
L99439523 86222380
L99630000 86222380
L99725238 86174761
L99772857 86127142
L99820476 86031904
L99820476 85222380
" />
<path d="M100249047 86174761
L100391904 86222380
L100630000 86222380
L100725238 86174761
L100772857 86127142
L100820476 86031904
L100820476 85936666
L100772857 85841428
L100725238 85793809
L100630000 85746190
L100439523 85698571
L100344285 85650952
L100296666 85603333
L100249047 85508095
L100249047 85412857
L100296666 85317619
L100344285 85270000
L100439523 85222380
L100677619 85222380
L100820476 85270000
" />
<path d="M101582380 85698571
L101725238 85746190
L101772857 85793809
L101820476 85889047
L101820476 86031904
L101772857 86127142
L101725238 86174761
L101630000 86222380
L101249047 86222380
L101249047 85222380
L101582380 85222380
L101677619 85270000
L101725238 85317619
L101772857 85412857
L101772857 85508095
L101725238 85603333
L101677619 85650952
L101582380 85698571
L101249047 85698571
" />
<path d="M102249047 85841428
L103010952 85841428
" />
<path d="M104058571 86127142
L104010952 86174761
L103868095 86222380
L103772857 86222380
L103630000 86174761
L103534761 86079523
L103487142 85984285
L103439523 85793809
L103439523 85650952
L103487142 85460476
L103534761 85365238
L103630000 85270000
L103772857 85222380
L103868095 85222380
L104010952 85270000
L104058571 85317619
" />
</g><text x="89690000.000000" y="57270000.000000"
textLength="1433095.000000" font-size="1333333.000000" lengthAdjust="spacingAndGlyphs"
text-anchor="middle" opacity="0">-</text>
<g class="stroked-text"><desc>-</desc>
<path d="M89309047 56841428
L90070952 56841428
" />
</g><text x="104390000.000000" y="59650000.000000"
textLength="3718810.000000" font-size="1333333.000000" lengthAdjust="spacingAndGlyphs"
text-anchor="middle" opacity="0">UPDI</text>
<g class="stroked-text"><desc>UPDI</desc>
<path d="M102866190 58602380
L102866190 59411904
L102913809 59507142
L102961428 59554761
L103056666 59602380
L103247142 59602380
L103342380 59554761
L103390000 59507142
L103437619 59411904
L103437619 58602380
" />
<path d="M103913809 59602380
L103913809 58602380
L104294761 58602380
L104390000 58650000
L104437619 58697619
L104485238 58792857
L104485238 58935714
L104437619 59030952
L104390000 59078571
L104294761 59126190
L103913809 59126190
" />
<path d="M104913809 59602380
L104913809 58602380
L105151904 58602380
L105294761 58650000
L105390000 58745238
L105437619 58840476
L105485238 59030952
L105485238 59173809
L105437619 59364285
L105390000 59459523
L105294761 59554761
L105151904 59602380
L104913809 59602380
" />
<path d="M105913809 59602380
L105913809 58602380
" />
</g><text x="89660000.000000" y="54730000.000000"
textLength="1433095.000000" font-size="1333333.000000" lengthAdjust="spacingAndGlyphs"
text-anchor="middle" opacity="0">+</text>
<g class="stroked-text"><desc>+</desc>
<path d="M89279047 54301428
L90040952 54301428
" />
<path d="M89660000 54682380
L89660000 53920476
" />
</g></g>
<g style="fill:#FFFFFF; fill-opacity:0.0; 
stroke:#FFFFFF; stroke-width:254000.000000; stroke-opacity:1; 
stroke-linecap:round; stroke-linejoin:round;">
<text x="95070000.000000" y="86195000.000000"
textLength="2372143.000000" font-size="1693333.000000" lengthAdjust="spacingAndGlyphs"
text-anchor="middle" opacity="0">J1</text>
<g class="stroked-text"><desc>J1</desc>
<path d="M94646666 84864523
L94646666 85771666
L94586190 85953095
L94465238 86074047
L94283809 86134523
L94162857 86134523
" />
<path d="M95916666 86134523
L95190952 86134523
" />
<path d="M95553809 86134523
L95553809 84864523
L95432857 85045952
L95311904 85166904
L95190952 85227380
" />
</g></g>
<g style="fill:#FFFFFF; fill-opacity:0.0; 
stroke:#FFFFFF; stroke-width:150000.000000; stroke-opacity:1; 
stroke-linecap:round; stroke-linejoin:round;">
<text x="110640000.000000" y="71980000.000000"
textLength="2282581.000000" font-size="1333333.000000" lengthAdjust="spacingAndGlyphs"
text-anchor="middle" opacity="0">R4</text>
<g class="stroked-text"><desc>R4</desc>
<path d="M110473333 71932380
L110140000 71456190
" />
<path d="M109901904 71932380
L109901904 70932380
L110282857 70932380
L110378095 70980000
L110425714 71027619
L110473333 71122857
L110473333 71265714
L110425714 71360952
L110378095 71408571
L110282857 71456190
L109901904 71456190
" />
<path d="M111330476 71265714
L111330476 71932380
" />
<path d="M111092380 70884761
L110854285 71599047
L111473333 71599047
" />
</g><text x="101622500.000000" y="78070000.000000"
textLength="3861667.000000" font-size="1333333.000000" lengthAdjust="spacingAndGlyphs"
text-anchor="middle" opacity="0">LED3</text>
<g class="stroked-text"><desc>LED3</desc>
<path d="M100503452 78022380
L100027261 78022380
L100027261 77022380
" />
<path d="M100836785 77498571
L101170119 77498571
" />
<path d="M101312976 78022380
L100836785 78022380
L100836785 77022380
L101312976 77022380
" />
<path d="M101741547 78022380
L101741547 77022380
L101979642 77022380
L102122500 77070000
L102217738 77165238
L102265357 77260476
L102312976 77450952
L102312976 77593809
L102265357 77784285
L102217738 77879523
L102122500 77974761
L101979642 78022380
L101741547 78022380
" />
<path d="M102646309 77022380
L103265357 77022380
L102932023 77403333
L103074880 77403333
L103170119 77450952
L103217738 77498571
L103265357 77593809
L103265357 77831904
L103217738 77927142
L103170119 77974761
L103074880 78022380
L102789166 78022380
L102693928 77974761
L102646309 77927142
" />
</g><text x="106762500.000000" y="70120000.000000"
textLength="2147381.000000" font-size="1333333.000000" lengthAdjust="spacingAndGlyphs"
text-anchor="middle" opacity="0">R8</text>
<g class="stroked-text"><desc>R8</desc>
<path d="M106595833 70072380
L106262500 69596190
" />
<path d="M106024404 70072380
L106024404 69072380
L106405357 69072380
L106500595 69120000
L106548214 69167619
L106595833 69262857
L106595833 69405714
L106548214 69500952
L106500595 69548571
L106405357 69596190
L106024404 69596190
" />
<path d="M107167261 69500952
L107072023 69453333
L107024404 69405714
L106976785 69310476
L106976785 69262857
L107024404 69167619
L107072023 69120000
L107167261 69072380
L107357738 69072380
L107452976 69120000
L107500595 69167619
L107548214 69262857
L107548214 69310476
L107500595 69405714
L107452976 69453333
L107357738 69500952
L107167261 69500952
L107072023 69548571
L107024404 69596190
L106976785 69691428
L106976785 69881904
L107024404 69977142
L107072023 70024761
L107167261 70072380
L107357738 70072380
L107452976 70024761
L107500595 69977142
L107548214 69881904
L107548214 69691428
L107500595 69596190
L107452976 69548571
L107357738 69500952
" />
</g><text x="101622500.000000" y="74070000.000000"
textLength="3861667.000000" font-size="1333333.000000" lengthAdjust="spacingAndGlyphs"
text-anchor="middle" opacity="0">LED2</text>
<g class="stroked-text"><desc>LED2</desc>
<path d="M100503452 74022380
L100027261 74022380
L100027261 73022380
" />
<path d="M100836785 73498571
L101170119 73498571
" />
<path d="M101312976 74022380
L100836785 74022380
L100836785 73022380
L101312976 73022380
" />
<path d="M101741547 74022380
L101741547 73022380
L101979642 73022380
L102122500 73070000
L102217738 73165238
L102265357 73260476
L102312976 73450952
L102312976 73593809
L102265357 73784285
L102217738 73879523
L102122500 73974761
L101979642 74022380
L101741547 74022380
" />
<path d="M102693928 73117619
L102741547 73070000
L102836785 73022380
L103074880 73022380
L103170119 73070000
L103217738 73117619
L103265357 73212857
L103265357 73308095
L103217738 73450952
L102646309 74022380
L103265357 74022380
" />
</g><text x="105530000.000000" y="58210000.000000"
textLength="1909286.000000" font-size="1333333.000000" lengthAdjust="spacingAndGlyphs"
text-anchor="middle" opacity="0">J1</text>
<g class="stroked-text"><desc>J1</desc>
<path d="M105196666 57162380
L105196666 57876666
L105149047 58019523
L105053809 58114761
L104910952 58162380
L104815714 58162380
" />
<path d="M106196666 58162380
L105625238 58162380
" />
<path d="M105910952 58162380
L105910952 57162380
L105815714 57305238
L105720476 57400476
L105625238 57448095
" />
</g></g>
<g style="fill:#FFFFFF; fill-opacity:0.0; 
stroke:#FFFFFF; stroke-width:254000.000000; stroke-opacity:1; 
stroke-linecap:round; stroke-linejoin:round;">
<text x="101760000.000000" y="64425000.000000"
textLength="4065476.000000" font-size="1693333.000000" lengthAdjust="spacingAndGlyphs"
text-anchor="middle" opacity="0">SW1</text>
<g class="stroked-text"><desc>SW1</desc>
<path d="M100066666 64304047
L100248095 64364523
L100550476 64364523
L100671428 64304047
L100731904 64243571
L100792380 64122619
L100792380 64001666
L100731904 63880714
L100671428 63820238
L100550476 63759761
L100308571 63699285
L100187619 63638809
L100127142 63578333
L100066666 63457380
L100066666 63336428
L100127142 63215476
L100187619 63155000
L100308571 63094523
L100610952 63094523
L100792380 63155000
" />
<path d="M101215714 63094523
L101518095 64364523
L101760000 63457380
L102001904 64364523
L102304285 63094523
" />
<path d="M103453333 64364523
L102727619 64364523
" />
<path d="M103090476 64364523
L103090476 63094523
L102969523 63275952
L102848571 63396904
L102727619 63457380
" />
</g></g>
<g style="fill:#FFFFFF; fill-opacity:0.0; 
stroke:#FFFFFF; stroke-width:150000.000000; stroke-opacity:1; 
stroke-linecap:round; stroke-linejoin:round;">
<text x="93410000.000000" y="63340000.000000"
textLength="2282581.000000" font-size="1333333.000000" lengthAdjust="spacingAndGlyphs"
text-anchor="middle" opacity="0">R1</text>
<g class="stroked-text"><desc>R1</desc>
<path d="M93243333 63292380
L92910000 62816190
" />
<path d="M92671904 63292380
L92671904 62292380
L93052857 62292380
L93148095 62340000
L93195714 62387619
L93243333 62482857
L93243333 62625714
L93195714 62720952
L93148095 62768571
L93052857 62816190
L92671904 62816190
" />
<path d="M94195714 63292380
L93624285 63292380
" />
<path d="M93910000 63292380
L93910000 62292380
L93814761 62435238
L93719523 62530476
L93624285 62578095
" />
</g><text x="94980000.000000" y="80650000.000000"
textLength="3528333.000000" font-size="1333333.000000" lengthAdjust="spacingAndGlyphs"
text-anchor="middle" opacity="0">COIL</text>
<g class="stroked-text"><desc>COIL</desc>
<path d="M94122857 80507142
L94075238 80554761
L93932380 80602380
L93837142 80602380
L93694285 80554761
L93599047 80459523
L93551428 80364285
L93503809 80173809
L93503809 80030952
L93551428 79840476
L93599047 79745238
L93694285 79650000
L93837142 79602380
L93932380 79602380
L94075238 79650000
L94122857 79697619
" />
<path d="M94741904 79602380
L94932380 79602380
L95027619 79650000
L95122857 79745238
L95170476 79935714
L95170476 80269047
L95122857 80459523
L95027619 80554761
L94932380 80602380
L94741904 80602380
L94646666 80554761
L94551428 80459523
L94503809 80269047
L94503809 79935714
L94551428 79745238
L94646666 79650000
L94741904 79602380
" />
<path d="M95599047 80602380
L95599047 79602380
" />
<path d="M96551428 80602380
L96075238 80602380
L96075238 79602380
" />
</g><text x="93540000.000000" y="68340000.000000"
textLength="2147381.000000" font-size="1333333.000000" lengthAdjust="spacingAndGlyphs"
text-anchor="middle" opacity="0">R2</text>
<g class="stroked-text"><desc>R2</desc>
<path d="M93373333 68292380
L93040000 67816190
" />
<path d="M92801904 68292380
L92801904 67292380
L93182857 67292380
L93278095 67340000
L93325714 67387619
L93373333 67482857
L93373333 67625714
L93325714 67720952
L93278095 67768571
L93182857 67816190
L92801904 67816190
" />
<path d="M93754285 67387619
L93801904 67340000
L93897142 67292380
L94135238 67292380
L94230476 67340000
L94278095 67387619
L94325714 67482857
L94325714 67578095
L94278095 67720952
L93706666 68292380
L94325714 68292380
" />
</g><text x="106960000.000000" y="78200000.000000"
textLength="3099762.000000" font-size="1333333.000000" lengthAdjust="spacingAndGlyphs"
text-anchor="middle" opacity="0">R10</text>
<g class="stroked-text"><desc>R10</desc>
<path d="M106317142 78152380
L105983809 77676190
" />
<path d="M105745714 78152380
L105745714 77152380
L106126666 77152380
L106221904 77200000
L106269523 77247619
L106317142 77342857
L106317142 77485714
L106269523 77580952
L106221904 77628571
L106126666 77676190
L105745714 77676190
" />
<path d="M107269523 78152380
L106698095 78152380
" />
<path d="M106983809 78152380
L106983809 77152380
L106888571 77295238
L106793333 77390476
L106698095 77438095
" />
<path d="M107888571 77152380
L107983809 77152380
L108079047 77200000
L108126666 77247619
L108174285 77342857
L108221904 77533333
L108221904 77771428
L108174285 77961904
L108126666 78057142
L108079047 78104761
L107983809 78152380
L107888571 78152380
L107793333 78104761
L107745714 78057142
L107698095 77961904
L107650476 77771428
L107650476 77533333
L107698095 77342857
L107745714 77247619
L107793333 77200000
L107888571 77152380
" />
</g><text x="101610000.000000" y="70060000.000000"
textLength="3861667.000000" font-size="1333333.000000" lengthAdjust="spacingAndGlyphs"
text-anchor="middle" opacity="0">LED1</text>
<g class="stroked-text"><desc>LED1</desc>
<path d="M100490952 70012380
L100014761 70012380
L100014761 69012380
" />
<path d="M100824285 69488571
L101157619 69488571
" />
<path d="M101300476 70012380
L100824285 70012380
L100824285 69012380
L101300476 69012380
" />
<path d="M101729047 70012380
L101729047 69012380
L101967142 69012380
L102110000 69060000
L102205238 69155238
L102252857 69250476
L102300476 69440952
L102300476 69583809
L102252857 69774285
L102205238 69869523
L102110000 69964761
L101967142 70012380
L101729047 70012380
" />
<path d="M103252857 70012380
L102681428 70012380
" />
<path d="M102967142 70012380
L102967142 69012380
L102871904 69155238
L102776666 69250476
L102681428 69298095
" />
</g><text x="111210000.000000" y="87980000.000000"
textLength="2147381.000000" font-size="1333333.000000" lengthAdjust="spacingAndGlyphs"
text-anchor="middle" opacity="0">C2</text>
<g class="stroked-text"><desc>C2</desc>
<path d="M111043333 87837142
L110995714 87884761
L110852857 87932380
L110757619 87932380
L110614761 87884761
L110519523 87789523
L110471904 87694285
L110424285 87503809
L110424285 87360952
L110471904 87170476
L110519523 87075238
L110614761 86980000
L110757619 86932380
L110852857 86932380
L110995714 86980000
L111043333 87027619
" />
<path d="M111424285 87027619
L111471904 86980000
L111567142 86932380
L111805238 86932380
L111900476 86980000
L111948095 87027619
L111995714 87122857
L111995714 87218095
L111948095 87360952
L111376666 87932380
L111995714 87932380
" />
</g><text x="95180000.000000" y="75380000.000000"
textLength="2195000.000000" font-size="1333333.000000" lengthAdjust="spacingAndGlyphs"
text-anchor="middle" opacity="0">Q1</text>
<g class="stroked-text"><desc>Q1</desc>
<path d="M95084761 75427619
L94989523 75380000
L94894285 75284761
L94751428 75141904
L94656190 75094285
L94560952 75094285
" />
<path d="M94608571 75332380
L94513333 75284761
L94418095 75189523
L94370476 74999047
L94370476 74665714
L94418095 74475238
L94513333 74380000
L94608571 74332380
L94799047 74332380
L94894285 74380000
L94989523 74475238
L95037142 74665714
L95037142 74999047
L94989523 75189523
L94894285 75284761
L94799047 75332380
L94608571 75332380
" />
<path d="M95989523 75332380
L95418095 75332380
" />
<path d="M95703809 75332380
L95703809 74332380
L95608571 74475238
L95513333 74570476
L95418095 74618095
" />
</g><text x="96420000.000000" y="58890000.000000"
textLength="2147381.000000" font-size="1333333.000000" lengthAdjust="spacingAndGlyphs"
text-anchor="middle" opacity="0">C1</text>
<g class="stroked-text"><desc>C1</desc>
<path d="M96253333 58747142
L96205714 58794761
L96062857 58842380
L95967619 58842380
L95824761 58794761
L95729523 58699523
L95681904 58604285
L95634285 58413809
L95634285 58270952
L95681904 58080476
L95729523 57985238
L95824761 57890000
L95967619 57842380
L96062857 57842380
L96205714 57890000
L96253333 57937619
" />
<path d="M97205714 58842380
L96634285 58842380
" />
<path d="M96920000 58842380
L96920000 57842380
L96824761 57985238
L96729523 58080476
L96634285 58128095
" />
</g><text x="91970000.000000" y="52465000.000000"
textLength="2909286.000000" font-size="1333333.000000" lengthAdjust="spacingAndGlyphs"
text-anchor="middle" opacity="0">BT1</text>
<g class="stroked-text"><desc>BT1</desc>
<path d="M91184285 51893571
L91327142 51941190
L91374761 51988809
L91422380 52084047
L91422380 52226904
L91374761 52322142
L91327142 52369761
L91231904 52417380
L90850952 52417380
L90850952 51417380
L91184285 51417380
L91279523 51465000
L91327142 51512619
L91374761 51607857
L91374761 51703095
L91327142 51798333
L91279523 51845952
L91184285 51893571
L90850952 51893571
" />
<path d="M91708095 51417380
L92279523 51417380
" />
<path d="M91993809 52417380
L91993809 51417380
" />
<path d="M93136666 52417380
L92565238 52417380
" />
<path d="M92850952 52417380
L92850952 51417380
L92755714 51560238
L92660476 51655476
L92565238 51703095
" />
</g><text x="98990000.000000" y="52490000.000000"
textLength="2147381.000000" font-size="1333333.000000" lengthAdjust="spacingAndGlyphs"
text-anchor="middle" opacity="0">D1</text>
<g class="stroked-text"><desc>D1</desc>
<path d="M98251904 52442380
L98251904 51442380
L98490000 51442380
L98632857 51490000
L98728095 51585238
L98775714 51680476
L98823333 51870952
L98823333 52013809
L98775714 52204285
L98728095 52299523
L98632857 52394761
L98490000 52442380
L98251904 52442380
" />
<path d="M99775714 52442380
L99204285 52442380
" />
<path d="M99490000 52442380
L99490000 51442380
L99394761 51585238
L99299523 51680476
L99204285 51728095
" />
</g><text x="106962500.000000" y="74160000.000000"
textLength="2147381.000000" font-size="1333333.000000" lengthAdjust="spacingAndGlyphs"
text-anchor="middle" opacity="0">R9</text>
<g class="stroked-text"><desc>R9</desc>
<path d="M106795833 74112380
L106462500 73636190
" />
<path d="M106224404 74112380
L106224404 73112380
L106605357 73112380
L106700595 73160000
L106748214 73207619
L106795833 73302857
L106795833 73445714
L106748214 73540952
L106700595 73588571
L106605357 73636190
L106224404 73636190
" />
<path d="M107272023 74112380
L107462500 74112380
L107557738 74064761
L107605357 74017142
L107700595 73874285
L107748214 73683809
L107748214 73302857
L107700595 73207619
L107652976 73160000
L107557738 73112380
L107367261 73112380
L107272023 73160000
L107224404 73207619
L107176785 73302857
L107176785 73540952
L107224404 73636190
L107272023 73683809
L107367261 73731428
L107557738 73731428
L107652976 73683809
L107700595 73636190
L107748214 73540952
" />
</g><text x="111330000.000000" y="66630000.000000"
textLength="2147381.000000" font-size="1333333.000000" lengthAdjust="spacingAndGlyphs"
text-anchor="middle" opacity="0">R3</text>
<g class="stroked-text"><desc>R3</desc>
<path d="M111163333 66582380
L110830000 66106190
" />
<path d="M110591904 66582380
L110591904 65582380
L110972857 65582380
L111068095 65630000
L111115714 65677619
L111163333 65772857
L111163333 65915714
L111115714 66010952
L111068095 66058571
L110972857 66106190
L110591904 66106190
" />
<path d="M111496666 65582380
L112115714 65582380
L111782380 65963333
L111925238 65963333
L112020476 66010952
L112068095 66058571
L112115714 66153809
L112115714 66391904
L112068095 66487142
L112020476 66534761
L111925238 66582380
L111639523 66582380
L111544285 66534761
L111496666 66487142
" />
</g></g>
<g style="fill:#FFFFFF; fill-opacity:0.0; 
stroke:#FFFFFF; stroke-width:200000.000000; stroke-opacity:1; 
stroke-linecap:round; stroke-linejoin:round;">
<path d="M97130000 88980000
L97130000 90180000
" />
<path d="M97130000 90180000
L106070000 90180000
" />
<path d="M106070000 90180000
L106070000 88980000
" />
</g>
<g style="fill:#FFFFFF; fill-opacity:1.0; 
stroke:#FFFFFF; stroke-width:1.000000; stroke-opacity:1; 
stroke-linecap:round; stroke-linejoin:round;">
<circle cx="101100000.000000" cy="82480000.000000" r="50000.000000" /> 
<circle cx="101100000.000000" cy="82580000.000000" r="50000.000000" /> 
</g>
<g style="fill:#FFFFFF; fill-opacity:0.0; 
stroke:#FFFFFF; stroke-width:100000.000000; stroke-opacity:1; 
stroke-linecap:round; stroke-linejoin:round;">
<path d="M101100000.000000 82580000.000000 A50000.000000 50000.000000 0.0 0 0 101100000.000000 82480000.000000" />
<path d="M101100000.000000 82480000.000000 A50000.000000 50000.000000 0.0 0 0 101100000.000000 82580000.000000" />
</g>
<g style="fill:#FFFFFF; fill-opacity:0.0; 
stroke:#FFFFFF; stroke-width:120000.000000; stroke-opacity:1; 
stroke-linecap:round; stroke-linejoin:round;">
<path d="M110445276 72357500
L110954724 72357500
" />
<path d="M110445276 73402500
L110954724 73402500
" />
<path d="M99962500 79735000
L102422500 79735000
" />
<path d="M99962500 78265000
L99962500 79735000
" />
<path d="M102422500 78265000
L99962500 78265000
" />
<path d="M106507776 71572500
L107017224 71572500
" />
<path d="M106507776 70527500
L107017224 70527500
" />
<path d="M102422500 74265000
L99962500 74265000
" />
<path d="M99962500 74265000
L99962500 75735000
" />
<path d="M99962500 75735000
L102422500 75735000
" />
<path d="M110010000 57000000
L110010000 51000000
" />
<path d="M112510000 57000000
L112510000 51000000
" />
<path d="M112930000 57000000
L112930000 51000000
" />
<path d="M106520000 59660000
L114260000 59660000
" />
<path d="M109120000 59660000
L109120000 57000000
" />
<path d="M113270000 51000000
L113270000 57000000
" />
<path d="M106580000 62370000
L106580000 61100000
" />
<path d="M112810000 57000000
L112810000 51000000
" />
<path d="M113310000 60057071
L113310000 59660000
" />
<path d="M110010000 60057071
L110010000 59660000
" />
<path d="M112510000 51000000
L113270000 51000000
" />
<path d="M113050000 57000000
L113050000 51000000
" />
<path d="M108230000 59990000
L108230000 59660000
" />
<path d="M110770000 51000000
L110770000 57000000
" />
<path d="M114260000 57000000
L106520000 57000000
" />
<path d="M110770000 60057071
L110770000 59660000
" />
<path d="M112570000 57000000
L112570000 51000000
" />
<path d="M112690000 57000000
L112690000 51000000
" />
<path d="M114260000 59660000
L114260000 57000000
" />
<path d="M107480000 50980000
L108240000 50980000
" />
<path d="M108240000 50980000
L108240000 56980000
" />
<path d="M107470000 59990000
L107470000 59660000
" />
<path d="M111660000 59660000
L111660000 57000000
" />
<path d="M106520000 57000000
L106520000 59660000
" />
<path d="M110010000 51000000
L110770000 51000000
" />
<path d="M107480000 56980000
L107480000 50980000
" />
<path d="M113170000 57000000
L113170000 51000000
" />
<path d="M107850000 62370000
L106580000 62370000
" />
<path d="M112550000 60057071
L112550000 59660000
" />
</g>
<g style="fill:#FFFFFF; fill-opacity:1.0; 
stroke:#FFFFFF; stroke-width:1.000000; stroke-opacity:1; 
stroke-linecap:round; stroke-linejoin:round;">
<circle cx="96750000.000000" cy="61950000.000000" r="100000.000000" /> 
<circle cx="96950000.000000" cy="61950000.000000" r="100000.000000" /> 
</g>
<g style="fill:#FFFFFF; fill-opacity:1.0; 
stroke:#FFFFFF; stroke-width:100000.000000; stroke-opacity:1; 
stroke-linecap:round; stroke-linejoin:round;">
</g>
<g style="fill:#FFFFFF; fill-opacity:0.0; 
stroke:#FFFFFF; stroke-width:100000.000000; stroke-opacity:1; 
stroke-linecap:round; stroke-linejoin:round;">
<path d="M99300000 62750000
L99300000 64750000
" />
<path d="M99750000 61250000
L103750000 61250000
" />
<path d="M104200000 62950000
L104200000 64750000
" />
<path d="M99950000 66250000
L103750000 66250000
" />
</g>
<g style="fill:#FFFFFF; fill-opacity:0.0; 
stroke:#FFFFFF; stroke-width:200000.000000; stroke-opacity:1; 
stroke-linecap:round; stroke-linejoin:round;">
<path d="M96950000.000000 61950000.000000 A100000.000000 100000.000000 0.0 0 0 96750000.000000 61950000.000000" />
<path d="M96750000.000000 61950000.000000 A100000.000000 100000.000000 0.0 0 0 96950000.000000 61950000.000000" />
</g>
<g style="fill:#FFFFFF; fill-opacity:0.0; 
stroke:#FFFFFF; stroke-width:120000.000000; stroke-opacity:1; 
stroke-linecap:round; stroke-linejoin:round;">
<path d="M91127500 62665276
L91127500 63174724
" />
<path d="M92172500 62665276
L92172500 63174724
" />
<path d="M90679999.773982 80298483.718333 A1470000.000000 1470000.000000 0.0 1 0 92520000.226018 80298483.718333" />
<path d="M92222500 67944724
L92222500 67435276
" />
<path d="M91177500 67944724
L91177500 67435276
" />
<path d="M106705276 79652500
L107214724 79652500
" />
<path d="M106705276 78607500
L107214724 78607500
" />
<path d="M99950000 71725000
L102410000 71725000
" />
<path d="M99950000 70255000
L99950000 71725000
" />
<path d="M102410000 70255000
L99950000 70255000
" />
<path d="M111471252 85065000
L110948748 85065000
" />
<path d="M111471252 86535000
L110948748 86535000
" />
<path d="M92650000 74780000
L93300000 74780000
" />
<path d="M92650000 71660000
L93300000 71660000
" />
<path d="M92650000 74780000
L92000000 74780000
" />
<path d="M92650000 71660000
L90975000 71660000
" />
<path d="M96681252 57445000
L96158748 57445000
" />
<path d="M96681252 55975000
L96158748 55975000
" />
<path d="M90640000 58165000
L93300000 58165000
" />
<path d="M90640000 55565000
L90640000 58165000
" />
<path d="M90640000 55565000
L93300000 55565000
" />
<path d="M90640000 52965000
L91970000 52965000
" />
<path d="M93300000 55565000
L93300000 58165000
" />
<path d="M90640000 54295000
L90640000 52965000
" />
</g>
<g style="fill:#FFFFFF; fill-opacity:0.0; 
stroke:#FFFFFF; stroke-width:200000.000000; stroke-opacity:1; 
stroke-linecap:round; stroke-linejoin:round;">
<path d="M94575000 53755000
L97300000 53755000
" />
<path d="M97300000 51605000
L94575000 51605000
" />
<path d="M94575000 51605000
L94575000 53755000
" />
</g>
<g style="fill:#FFFFFF; fill-opacity:0.0; 
stroke:#FFFFFF; stroke-width:120000.000000; stroke-opacity:1; 
stroke-linecap:round; stroke-linejoin:round;">
<path d="M106707776 75612500
L107217224 75612500
" />
<path d="M106707776 74567500
L107217224 74567500
" />
<path d="M110975276 67047500
L111484724 67047500
" />
<path d="M110975276 68092500
L111484724 68092500
" />
<g >
</g>
<g >
</g>
<g >
</g>
<g >
</g>
<g >
</g>
<g >
</g>
<g >
</g>
<g >
</g>
<g >
</g>
<g >
</g>
<g >
</g>
<g >
</g>
<g >
</g>
<g >
</g>
<g >
</g>
<g >
</g>
<g >
</g>
<g >
</g>
<g >
</g>
<g >
</g>
<g >
</g>
<g >
</g>
<g >
</g>
<g >
</g>
<g >
</g>
<g >
</g>
<g >
</g>
<g >
</g>
</g> 
</svg>
