<?xml version="1.0" encoding="UTF-8" standalone="no"?>
<!-- Created with Inkscape (http://www.inkscape.org/) -->

<svg
   width="210mm"
   height="297mm"
   viewBox="0 0 210 297"
   version="1.1"
   id="svg5"
   inkscape:version="1.2.1 (9c6d41e410, 2022-07-14)"
   sodipodi:docname="LOGO.svg"
   xmlns:inkscape="http://www.inkscape.org/namespaces/inkscape"
   xmlns:sodipodi="http://sodipodi.sourceforge.net/DTD/sodipodi-0.dtd"
   xmlns="http://www.w3.org/2000/svg"
   xmlns:svg="http://www.w3.org/2000/svg">
  <sodipodi:namedview
     id="namedview7"
     pagecolor="#ffffff"
     bordercolor="#000000"
     borderopacity="0.25"
     inkscape:showpageshadow="2"
     inkscape:pageopacity="0.0"
     inkscape:pagecheckerboard="0"
     inkscape:deskcolor="#d1d1d1"
     inkscape:document-units="mm"
     showgrid="false"
     inkscape:zoom="0.50646225"
     inkscape:cx="176.71603"
     inkscape:cy="604.19113"
     inkscape:window-width="2000"
     inkscape:window-height="1036"
     inkscape:window-x="-9"
     inkscape:window-y="-9"
     inkscape:window-maximized="1"
     inkscape:current-layer="layer1" />
  <defs
     id="defs2">
    <rect
       x="94.939476"
       y="289.00693"
       width="770.68516"
       height="703.66906"
       id="rect113" />
    <rect
       x="94.939476"
       y="289.00693"
       width="770.68518"
       height="703.66907"
       id="rect113-3" />
  </defs>
  <g
     inkscape:label="Layer 1"
     inkscape:groupmode="layer"
     id="layer1">
    <path
       id="text111"
       style="font-size:400px;font-family:'Modern No. 20';-inkscape-font-specification:'Modern No. 20, Normal';white-space:pre;shape-inside:url(#rect113);fill:#002765;fill-opacity:1;stroke:#ffffff;stroke-width:0.100813"
       d="m 113.4463,123.77584 v 0.21347 c -1.28032,0 -2.14813,0.0854 -2.60337,0.25611 -0.15646,0.057 -0.24901,0.11377 -0.27736,0.17078 -0.057,0.11376 -0.0854,0.3699 -0.0854,0.7682 v 10.92547 c 0,0.42679 0.0284,0.6899 0.0854,0.78948 0.0284,0.057 0.12808,0.12092 0.29873,0.19199 0.17078,0.057 0.48364,0.10661 0.93888,0.14931 0.45521,0.0427 1.00297,0.0642 1.64312,0.0642 v 0.23469 h -8.30074 c -1.83512,0 -3.37867,-0.59746 -4.63054,-1.79245 -1.323004,-1.26609 -1.984474,-2.93761 -1.984474,-5.0146 0,-2.10542 0.74686,-3.8338 2.240584,-5.18525 1.29454,-1.18075 2.74554,-1.77118 4.35305,-1.77118 z m -8.30074,0.21347 c -1.29455,0 -2.2762,0.62601 -2.9448,1.87786 -0.62594,1.16654 -0.93888,2.78824 -0.93888,4.8652 0,2.19078 0.31294,3.83388 0.93888,4.92927 0.6117,1.09539 1.59335,1.64312 2.9448,1.64312 h 1.42963 c 0.46945,-0.0153 0.77536,-0.0498 0.91763,-0.1066 0.1424,-0.057 0.24185,-0.1493 0.2987,-0.27746 0.0427,-0.12808 0.0639,-0.39831 0.0639,-0.81085 v -10.92547 c 0,-0.42676 -0.0205,-0.6899 -0.0639,-0.78948 -0.057,-0.11376 -0.15645,-0.19915 -0.2987,-0.25609 -0.15646,-0.057 -0.41257,-0.0925 -0.76823,-0.1066 -0.36985,-0.0284 -0.89619,-0.0427 -1.57903,-0.0427 z m 0.22446,2.46272 c 0.57593,0 1.07509,0.23775 1.49745,0.71329 0.41469,0.46672 0.62203,1.03907 0.62203,1.71711 0,0.75729 -0.23034,1.33406 -0.69111,1.73032 -0.31486,0.26419 -0.87156,0.52401 -1.67022,0.77938 -0.80632,0.24645 -1.3708,0.48436 -1.69333,0.7133 -0.46843,0.33462 -0.70268,0.79249 -0.70268,1.37369 0,0.47551 0.17282,0.87172 0.51835,1.18873 0.2995,0.27298 0.62975,0.40947 0.99068,0.40947 0.7756,0 1.36689,-0.25105 1.77389,-0.75289 0.20733,-0.2554 0.3878,-0.57675 0.54139,-0.96422 0.18433,-0.45789 0.34943,-1.06555 0.49533,-1.82284 l 0.10354,0.0128 v 3.64562 c -0.023,-0.0263 -0.26496,-0.38744 -0.72572,-1.0831 -0.2611,0.38747 -0.56824,0.66477 -0.92147,0.8321 -0.36093,0.16719 -0.76795,0.25105 -1.22105,0.25105 -0.59129,0 -1.09423,-0.20248 -1.5089,-0.60756 -0.49149,-0.47551 -0.73727,-1.14915 -0.73727,-2.02092 0,-0.92462 0.23801,-1.58507 0.71423,-1.98133 0.29183,-0.23775 0.90997,-0.48873 1.85453,-0.75292 0.72952,-0.19378 1.25936,-0.41824 1.58956,-0.67359 0.39166,-0.29942 0.58756,-0.68688 0.58756,-1.16239 0,-0.49313 -0.18049,-0.8674 -0.54149,-1.12277 -0.29183,-0.21143 -0.63732,-0.31696 -1.03662,-0.31696 -0.57595,0 -1.09056,0.26414 -1.54362,0.79249 -0.45307,0.51954 -0.73331,1.16672 -0.84084,1.94165 l -0.10379,0.0396 v -2.87958 c 0.0614,0.0529 0.31478,0.30379 0.7602,0.75289 0.35324,-0.28178 0.57979,-0.44905 0.67963,-0.5019 0.31486,-0.16719 0.71799,-0.25105 1.20948,-0.25105 z"
       inkscape:export-filename="..\..\..\..\..\LASER\SD LOGO.png"
       inkscape:export-xdpi="96"
       inkscape:export-ydpi="96" />
  </g>
</svg>
