<?xml version="1.0" standalone="no"?>
 <!DOCTYPE svg PUBLIC "-//W3C//DTD SVG 1.1//EN" 
 "http://www.w3.org/Graphics/SVG/1.1/DTD/svg11.dtd"> 
<svg
  xmlns:svg="http://www.w3.org/2000/svg"
  xmlns="http://www.w3.org/2000/svg"
  xmlns:xlink="http://www.w3.org/1999/xlink"
  version="1.1"
  width="29.700220cm" height="21.000720cm" viewBox="0 0 297002200 210007200">
<title>SVG Picture created as Rectangle Control Module V1.0.4-F_Silkscreen.svg date 2022/09/04 17:29:39 </title>
  <desc>Picture generated by PCBNEW </desc>
<g style="fill:#000000; fill-opacity:1.000000;stroke:#000000; stroke-opacity:1.000000;
stroke-linecap:round; stroke-linejoin:round;"
 transform="translate(0 0) scale(1 1)">
</g>
<g style="fill:#000000; fill-opacity:0.0; 
stroke:#000000; stroke-width:0.000000; stroke-opacity:1; 
stroke-linecap:round; stroke-linejoin:round;">
</g>
<g style="fill:#000000; fill-opacity:1.0; 
stroke:#000000; stroke-width:21200.000000; stroke-opacity:1; 
stroke-linecap:round; stroke-linejoin:round;">
<rect x="170675000.000000" y="65650000.000000" width="35350000.000000" height="50800000.000000" rx="0.000000" />
</g>
<g style="fill:#FFFFFF; fill-opacity:1.0; 
stroke:#FFFFFF; stroke-width:21200.000000; stroke-opacity:1; 
stroke-linecap:round; stroke-linejoin:round;">
</g>
<g style="fill:#FFFFFF; fill-opacity:1.0; 
stroke:#FFFFFF; stroke-width:150000.000000; stroke-opacity:1; 
stroke-linecap:round; stroke-linejoin:round;">
</g>
<g style="fill:#FFFFFF; fill-opacity:0.0; 
stroke:#FFFFFF; stroke-width:150000.000000; stroke-opacity:1; 
stroke-linecap:round; stroke-linejoin:round;">
<text x="179500000.000000" y="75500000.000000"
textLength="1388095.000000" font-size="1333333.000000" lengthAdjust="spacingAndGlyphs"
text-anchor="middle" opacity="0">+</text>
<g class="stroked-text"><desc>+</desc>
<path d="M179119047 75071428
L179880952 75071428
" />
<path d="M179500000 75452380
L179500000 74690476
" />
</g><text x="179500000.000000" y="78500000.000000"
textLength="1433095.000000" font-size="1333333.000000" lengthAdjust="spacingAndGlyphs"
text-anchor="middle" opacity="0">-</text>
<g class="stroked-text"><desc>-</desc>
<path d="M179119047 78071428
L179880952 78071428
" />
</g></g>
<g style="fill:#FFFFFF; fill-opacity:0.0; 
stroke:#FFFFFF; stroke-width:254000.000000; stroke-opacity:1; 
stroke-linecap:round; stroke-linejoin:round;">
<text x="189000000.000000" y="87635000.000000"
textLength="4065476.000000" font-size="1693333.000000" lengthAdjust="spacingAndGlyphs"
text-anchor="middle" opacity="0">SW1</text>
<g class="stroked-text"><desc>SW1</desc>
<path d="M187306666 87514047
L187488095 87574523
L187790476 87574523
L187911428 87514047
L187971904 87453571
L188032380 87332619
L188032380 87211666
L187971904 87090714
L187911428 87030238
L187790476 86969761
L187548571 86909285
L187427619 86848809
L187367142 86788333
L187306666 86667380
L187306666 86546428
L187367142 86425476
L187427619 86365000
L187548571 86304523
L187850952 86304523
L188032380 86365000
" />
<path d="M188455714 86304523
L188758095 87574523
L189000000 86667380
L189241904 87574523
L189544285 86304523
" />
<path d="M190693333 87574523
L189967619 87574523
" />
<path d="M190330476 87574523
L190330476 86304523
L190209523 86485952
L190088571 86606904
L189967619 86667380
" />
</g></g>
<g style="fill:#FFFFFF; fill-opacity:0.0; 
stroke:#FFFFFF; stroke-width:150000.000000; stroke-opacity:1; 
stroke-linecap:round; stroke-linejoin:round;">
<text x="199000000.000000" y="87430000.000000"
textLength="2282581.000000" font-size="1333333.000000" lengthAdjust="spacingAndGlyphs"
text-anchor="middle" opacity="0">R9</text>
<g class="stroked-text"><desc>R9</desc>
<path d="M198833333 87382380
L198500000 86906190
" />
<path d="M198261904 87382380
L198261904 86382380
L198642857 86382380
L198738095 86430000
L198785714 86477619
L198833333 86572857
L198833333 86715714
L198785714 86810952
L198738095 86858571
L198642857 86906190
L198261904 86906190
" />
<path d="M199309523 87382380
L199500000 87382380
L199595238 87334761
L199642857 87287142
L199738095 87144285
L199785714 86953809
L199785714 86572857
L199738095 86477619
L199690476 86430000
L199595238 86382380
L199404761 86382380
L199309523 86430000
L199261904 86477619
L199214285 86572857
L199214285 86810952
L199261904 86906190
L199309523 86953809
L199404761 87001428
L199595238 87001428
L199690476 86953809
L199738095 86906190
L199785714 86810952
" />
</g><text x="194500000.000000" y="86087500.000000"
textLength="2147381.000000" font-size="1333333.000000" lengthAdjust="spacingAndGlyphs"
text-anchor="middle" opacity="0">R8</text>
<g class="stroked-text"><desc>R8</desc>
<path d="M194333333 86039880
L194000000 85563690
" />
<path d="M193761904 86039880
L193761904 85039880
L194142857 85039880
L194238095 85087500
L194285714 85135119
L194333333 85230357
L194333333 85373214
L194285714 85468452
L194238095 85516071
L194142857 85563690
L193761904 85563690
" />
<path d="M194904761 85468452
L194809523 85420833
L194761904 85373214
L194714285 85277976
L194714285 85230357
L194761904 85135119
L194809523 85087500
L194904761 85039880
L195095238 85039880
L195190476 85087500
L195238095 85135119
L195285714 85230357
L195285714 85277976
L195238095 85373214
L195190476 85420833
L195095238 85468452
L194904761 85468452
L194809523 85516071
L194761904 85563690
L194714285 85658928
L194714285 85849404
L194761904 85944642
L194809523 85992261
L194904761 86039880
L195095238 86039880
L195190476 85992261
L195238095 85944642
L195285714 85849404
L195285714 85658928
L195238095 85563690
L195190476 85516071
L195095238 85468452
" />
</g><text x="198500000.000000" y="81570000.000000"
textLength="2147381.000000" font-size="1333333.000000" lengthAdjust="spacingAndGlyphs"
text-anchor="middle" opacity="0">R4</text>
<g class="stroked-text"><desc>R4</desc>
<path d="M198333333 81522380
L198000000 81046190
" />
<path d="M197761904 81522380
L197761904 80522380
L198142857 80522380
L198238095 80570000
L198285714 80617619
L198333333 80712857
L198333333 80855714
L198285714 80950952
L198238095 80998571
L198142857 81046190
L197761904 81046190
" />
<path d="M199190476 80855714
L199190476 81522380
" />
<path d="M198952380 80474761
L198714285 81189047
L199333333 81189047
" />
</g></g>
<g style="fill:#FFFFFF; fill-opacity:0.0; 
stroke:#FFFFFF; stroke-width:254000.000000; stroke-opacity:1; 
stroke-linecap:round; stroke-linejoin:round;">
<text x="188500000.000000" y="107332000.000000"
textLength="2372143.000000" font-size="1693333.000000" lengthAdjust="spacingAndGlyphs"
text-anchor="middle" opacity="0">J2</text>
<g class="stroked-text"><desc>J2</desc>
<path d="M188076666 106001523
L188076666 106908666
L188016190 107090095
L187895238 107211047
L187713809 107271523
L187592857 107271523
" />
<path d="M188620952 106122476
L188681428 106062000
L188802380 106001523
L189104761 106001523
L189225714 106062000
L189286190 106122476
L189346666 106243428
L189346666 106364380
L189286190 106545809
L188560476 107271523
L189346666 107271523
" />
</g></g>
<g style="fill:#FFFFFF; fill-opacity:0.0; 
stroke:#FFFFFF; stroke-width:150000.000000; stroke-opacity:1; 
stroke-linecap:round; stroke-linejoin:round;">
<text x="181300000.000000" y="81750000.000000"
textLength="2282581.000000" font-size="1333333.000000" lengthAdjust="spacingAndGlyphs"
text-anchor="middle" opacity="0">R1</text>
<g class="stroked-text"><desc>R1</desc>
<path d="M181133333 81702380
L180800000 81226190
" />
<path d="M180561904 81702380
L180561904 80702380
L180942857 80702380
L181038095 80750000
L181085714 80797619
L181133333 80892857
L181133333 81035714
L181085714 81130952
L181038095 81178571
L180942857 81226190
L180561904 81226190
" />
<path d="M182085714 81702380
L181514285 81702380
" />
<path d="M181800000 81702380
L181800000 80702380
L181704761 80845238
L181609523 80940476
L181514285 80988095
" />
</g><text x="195500000.000000" y="77570000.000000"
textLength="2147381.000000" font-size="1333333.000000" lengthAdjust="spacingAndGlyphs"
text-anchor="middle" opacity="0">R3</text>
<g class="stroked-text"><desc>R3</desc>
<path d="M195333333 77522380
L195000000 77046190
" />
<path d="M194761904 77522380
L194761904 76522380
L195142857 76522380
L195238095 76570000
L195285714 76617619
L195333333 76712857
L195333333 76855714
L195285714 76950952
L195238095 76998571
L195142857 77046190
L194761904 77046190
" />
<path d="M195666666 76522380
L196285714 76522380
L195952380 76903333
L196095238 76903333
L196190476 76950952
L196238095 76998571
L196285714 77093809
L196285714 77331904
L196238095 77427142
L196190476 77474761
L196095238 77522380
L195809523 77522380
L195714285 77474761
L195666666 77427142
" />
</g><text x="188625000.000000" y="101430000.000000"
textLength="2147381.000000" font-size="1333333.000000" lengthAdjust="spacingAndGlyphs"
text-anchor="middle" opacity="0">D1</text>
<g class="stroked-text"><desc>D1</desc>
<path d="M187886904 101382380
L187886904 100382380
L188125000 100382380
L188267857 100430000
L188363095 100525238
L188410714 100620476
L188458333 100810952
L188458333 100953809
L188410714 101144285
L188363095 101239523
L188267857 101334761
L188125000 101382380
L187886904 101382380
" />
<path d="M189410714 101382380
L188839285 101382380
" />
<path d="M189125000 101382380
L189125000 100382380
L189029761 100525238
L188934523 100620476
L188839285 100668095
" />
</g><text x="188500000.000000" y="95430000.000000"
textLength="2147381.000000" font-size="1333333.000000" lengthAdjust="spacingAndGlyphs"
text-anchor="middle" opacity="0">D3</text>
<g class="stroked-text"><desc>D3</desc>
<path d="M187761904 95382380
L187761904 94382380
L188000000 94382380
L188142857 94430000
L188238095 94525238
L188285714 94620476
L188333333 94810952
L188333333 94953809
L188285714 95144285
L188238095 95239523
L188142857 95334761
L188000000 95382380
L187761904 95382380
" />
<path d="M188666666 94382380
L189285714 94382380
L188952380 94763333
L189095238 94763333
L189190476 94810952
L189238095 94858571
L189285714 94953809
L189285714 95191904
L189238095 95287142
L189190476 95334761
L189095238 95382380
L188809523 95382380
L188714285 95334761
L188666666 95287142
" />
</g><text x="178000000.000000" y="74000000.000000"
textLength="3575952.000000" font-size="1333333.000000" lengthAdjust="spacingAndGlyphs"
text-anchor="middle" opacity="0">BATT</text>
<g class="stroked-text"><desc>BATT</desc>
<path d="M176880952 73428571
L177023809 73476190
L177071428 73523809
L177119047 73619047
L177119047 73761904
L177071428 73857142
L177023809 73904761
L176928571 73952380
L176547619 73952380
L176547619 72952380
L176880952 72952380
L176976190 73000000
L177023809 73047619
L177071428 73142857
L177071428 73238095
L177023809 73333333
L176976190 73380952
L176880952 73428571
L176547619 73428571
" />
<path d="M177500000 73666666
L177976190 73666666
" />
<path d="M177404761 73952380
L177738095 72952380
L178071428 73952380
" />
<path d="M178261904 72952380
L178833333 72952380
" />
<path d="M178547619 73952380
L178547619 72952380
" />
<path d="M179023809 72952380
L179595238 72952380
" />
<path d="M179309523 73952380
L179309523 72952380
" />
</g><text x="184500000.000000" y="101430000.000000"
textLength="2147381.000000" font-size="1333333.000000" lengthAdjust="spacingAndGlyphs"
text-anchor="middle" opacity="0">R5</text>
<g class="stroked-text"><desc>R5</desc>
<path d="M184333333 101382380
L184000000 100906190
" />
<path d="M183761904 101382380
L183761904 100382380
L184142857 100382380
L184238095 100430000
L184285714 100477619
L184333333 100572857
L184333333 100715714
L184285714 100810952
L184238095 100858571
L184142857 100906190
L183761904 100906190
" />
<path d="M185238095 100382380
L184761904 100382380
L184714285 100858571
L184761904 100810952
L184857142 100763333
L185095238 100763333
L185190476 100810952
L185238095 100858571
L185285714 100953809
L185285714 101191904
L185238095 101287142
L185190476 101334761
L185095238 101382380
L184857142 101382380
L184761904 101334761
L184714285 101287142
" />
</g><text x="193000000.000000" y="83000000.000000"
textLength="2195000.000000" font-size="1333333.000000" lengthAdjust="spacingAndGlyphs"
text-anchor="middle" opacity="0">U1</text>
<g class="stroked-text"><desc>U1</desc>
<path d="M192238095 81952380
L192238095 82761904
L192285714 82857142
L192333333 82904761
L192428571 82952380
L192619047 82952380
L192714285 82904761
L192761904 82857142
L192809523 82761904
L192809523 81952380
" />
<path d="M193809523 82952380
L193238095 82952380
" />
<path d="M193523809 82952380
L193523809 81952380
L193428571 82095238
L193333333 82190476
L193238095 82238095
" />
</g><text x="180500000.000000" y="92500000.000000"
textLength="3528333.000000" font-size="1333333.000000" lengthAdjust="spacingAndGlyphs"
text-anchor="middle" opacity="0">COIL</text>
<g class="stroked-text"><desc>COIL</desc>
<path d="M179642857 92357142
L179595238 92404761
L179452380 92452380
L179357142 92452380
L179214285 92404761
L179119047 92309523
L179071428 92214285
L179023809 92023809
L179023809 91880952
L179071428 91690476
L179119047 91595238
L179214285 91500000
L179357142 91452380
L179452380 91452380
L179595238 91500000
L179642857 91547619
" />
<path d="M180261904 91452380
L180452380 91452380
L180547619 91500000
L180642857 91595238
L180690476 91785714
L180690476 92119047
L180642857 92309523
L180547619 92404761
L180452380 92452380
L180261904 92452380
L180166666 92404761
L180071428 92309523
L180023809 92119047
L180023809 91785714
L180071428 91595238
L180166666 91500000
L180261904 91452380
" />
<path d="M181119047 92452380
L181119047 91452380
" />
<path d="M182071428 92452380
L181595238 92452380
L181595238 91452380
" />
</g><text x="193500000.000000" y="92000000.000000"
textLength="2195000.000000" font-size="1333333.000000" lengthAdjust="spacingAndGlyphs"
text-anchor="middle" opacity="0">U2</text>
<g class="stroked-text"><desc>U2</desc>
<path d="M192738095 90952380
L192738095 91761904
L192785714 91857142
L192833333 91904761
L192928571 91952380
L193119047 91952380
L193214285 91904761
L193261904 91857142
L193309523 91761904
L193309523 90952380
" />
<path d="M193738095 91047619
L193785714 91000000
L193880952 90952380
L194119047 90952380
L194214285 91000000
L194261904 91047619
L194309523 91142857
L194309523 91238095
L194261904 91380952
L193690476 91952380
L194309523 91952380
" />
</g><text x="184500000.000000" y="98430000.000000"
textLength="2147381.000000" font-size="1333333.000000" lengthAdjust="spacingAndGlyphs"
text-anchor="middle" opacity="0">R6</text>
<g class="stroked-text"><desc>R6</desc>
<path d="M184333333 98382380
L184000000 97906190
" />
<path d="M183761904 98382380
L183761904 97382380
L184142857 97382380
L184238095 97430000
L184285714 97477619
L184333333 97572857
L184333333 97715714
L184285714 97810952
L184238095 97858571
L184142857 97906190
L183761904 97906190
" />
<path d="M185190476 97382380
L185000000 97382380
L184904761 97430000
L184857142 97477619
L184761904 97620476
L184714285 97810952
L184714285 98191904
L184761904 98287142
L184809523 98334761
L184904761 98382380
L185095238 98382380
L185190476 98334761
L185238095 98287142
L185285714 98191904
L185285714 97953809
L185238095 97858571
L185190476 97810952
L185095238 97763333
L184904761 97763333
L184809523 97810952
L184761904 97858571
L184714285 97953809
" />
</g><text x="184600000.000000" y="83825000.000000"
textLength="2147381.000000" font-size="1333333.000000" lengthAdjust="spacingAndGlyphs"
text-anchor="middle" opacity="0">R2</text>
<g class="stroked-text"><desc>R2</desc>
<path d="M184433333 83777380
L184100000 83301190
" />
<path d="M183861904 83777380
L183861904 82777380
L184242857 82777380
L184338095 82825000
L184385714 82872619
L184433333 82967857
L184433333 83110714
L184385714 83205952
L184338095 83253571
L184242857 83301190
L183861904 83301190
" />
<path d="M184814285 82872619
L184861904 82825000
L184957142 82777380
L185195238 82777380
L185290476 82825000
L185338095 82872619
L185385714 82967857
L185385714 83063095
L185338095 83205952
L184766666 83777380
L185385714 83777380
" />
</g><text x="178000000.000000" y="96000000.000000"
textLength="2147381.000000" font-size="1333333.000000" lengthAdjust="spacingAndGlyphs"
text-anchor="middle" opacity="0">C1</text>
<g class="stroked-text"><desc>C1</desc>
<path d="M177833333 95857142
L177785714 95904761
L177642857 95952380
L177547619 95952380
L177404761 95904761
L177309523 95809523
L177261904 95714285
L177214285 95523809
L177214285 95380952
L177261904 95190476
L177309523 95095238
L177404761 95000000
L177547619 94952380
L177642857 94952380
L177785714 95000000
L177833333 95047619
" />
<path d="M178785714 95952380
L178214285 95952380
" />
<path d="M178500000 95952380
L178500000 94952380
L178404761 95095238
L178309523 95190476
L178214285 95238095
" />
</g><text x="178000000.000000" y="100500000.000000"
textLength="2147381.000000" font-size="1333333.000000" lengthAdjust="spacingAndGlyphs"
text-anchor="middle" opacity="0">C2</text>
<g class="stroked-text"><desc>C2</desc>
<path d="M177833333 100357142
L177785714 100404761
L177642857 100452380
L177547619 100452380
L177404761 100404761
L177309523 100309523
L177261904 100214285
L177214285 100023809
L177214285 99880952
L177261904 99690476
L177309523 99595238
L177404761 99500000
L177547619 99452380
L177642857 99452380
L177785714 99500000
L177833333 99547619
" />
<path d="M178214285 99547619
L178261904 99500000
L178357142 99452380
L178595238 99452380
L178690476 99500000
L178738095 99547619
L178785714 99642857
L178785714 99738095
L178738095 99880952
L178166666 100452380
L178785714 100452380
" />
</g><text x="177925000.000000" y="82875000.000000"
textLength="2195000.000000" font-size="1333333.000000" lengthAdjust="spacingAndGlyphs"
text-anchor="middle" opacity="0">Q1</text>
<g class="stroked-text"><desc>Q1</desc>
<path d="M177829761 82922619
L177734523 82875000
L177639285 82779761
L177496428 82636904
L177401190 82589285
L177305952 82589285
" />
<path d="M177353571 82827380
L177258333 82779761
L177163095 82684523
L177115476 82494047
L177115476 82160714
L177163095 81970238
L177258333 81875000
L177353571 81827380
L177544047 81827380
L177639285 81875000
L177734523 81970238
L177782142 82160714
L177782142 82494047
L177734523 82684523
L177639285 82779761
L177544047 82827380
L177353571 82827380
" />
<path d="M178734523 82827380
L178163095 82827380
" />
<path d="M178448809 82827380
L178448809 81827380
L178353571 81970238
L178258333 82065476
L178163095 82113095
" />
</g><text x="188625000.000000" y="98430000.000000"
textLength="2147381.000000" font-size="1333333.000000" lengthAdjust="spacingAndGlyphs"
text-anchor="middle" opacity="0">D2</text>
<g class="stroked-text"><desc>D2</desc>
<path d="M187886904 98382380
L187886904 97382380
L188125000 97382380
L188267857 97430000
L188363095 97525238
L188410714 97620476
L188458333 97810952
L188458333 97953809
L188410714 98144285
L188363095 98239523
L188267857 98334761
L188125000 98382380
L187886904 98382380
" />
<path d="M188839285 97477619
L188886904 97430000
L188982142 97382380
L189220238 97382380
L189315476 97430000
L189363095 97477619
L189410714 97572857
L189410714 97668095
L189363095 97810952
L188791666 98382380
L189410714 98382380
" />
</g><text x="198500000.000000" y="99087500.000000"
textLength="3099762.000000" font-size="1333333.000000" lengthAdjust="spacingAndGlyphs"
text-anchor="middle" opacity="0">R10</text>
<g class="stroked-text"><desc>R10</desc>
<path d="M197857142 99039880
L197523809 98563690
" />
<path d="M197285714 99039880
L197285714 98039880
L197666666 98039880
L197761904 98087500
L197809523 98135119
L197857142 98230357
L197857142 98373214
L197809523 98468452
L197761904 98516071
L197666666 98563690
L197285714 98563690
" />
<path d="M198809523 99039880
L198238095 99039880
" />
<path d="M198523809 99039880
L198523809 98039880
L198428571 98182738
L198333333 98277976
L198238095 98325595
" />
<path d="M199428571 98039880
L199523809 98039880
L199619047 98087500
L199666666 98135119
L199714285 98230357
L199761904 98420833
L199761904 98658928
L199714285 98849404
L199666666 98944642
L199619047 98992261
L199523809 99039880
L199428571 99039880
L199333333 98992261
L199285714 98944642
L199238095 98849404
L199190476 98658928
L199190476 98420833
L199238095 98230357
L199285714 98135119
L199333333 98087500
L199428571 98039880
" />
</g><text x="184500000.000000" y="95430000.000000"
textLength="2147381.000000" font-size="1333333.000000" lengthAdjust="spacingAndGlyphs"
text-anchor="middle" opacity="0">R7</text>
<g class="stroked-text"><desc>R7</desc>
<path d="M184333333 95382380
L184000000 94906190
" />
<path d="M183761904 95382380
L183761904 94382380
L184142857 94382380
L184238095 94430000
L184285714 94477619
L184333333 94572857
L184333333 94715714
L184285714 94810952
L184238095 94858571
L184142857 94906190
L183761904 94906190
" />
<path d="M184666666 94382380
L185333333 94382380
L184904761 95382380
" />
</g><text x="196500000.000000" y="73500000.000000"
textLength="1909286.000000" font-size="1333333.000000" lengthAdjust="spacingAndGlyphs"
text-anchor="middle" opacity="0">J1</text>
<g class="stroked-text"><desc>J1</desc>
<path d="M196166666 72452380
L196166666 73166666
L196119047 73309523
L196023809 73404761
L195880952 73452380
L195785714 73452380
" />
<path d="M197166666 73452380
L196595238 73452380
" />
<path d="M196880952 73452380
L196880952 72452380
L196785714 72595238
L196690476 72690476
L196595238 72738095
" />
</g></g>
<g style="fill:#FFFFFF; fill-opacity:0.0; 
stroke:#FFFFFF; stroke-width:100000.000000; stroke-opacity:1; 
stroke-linecap:round; stroke-linejoin:round;">
<path d="M190500000 89500000
L186500000 89500000
" />
<path d="M190300000 84500000
L186500000 84500000
" />
<path d="M190950000 88000000
L190950000 86000000
" />
<path d="M186050000 87800000
L186050000 86000000
" />
</g>
<g style="fill:#FFFFFF; fill-opacity:1.0; 
stroke:#FFFFFF; stroke-width:1.000000; stroke-opacity:1; 
stroke-linecap:round; stroke-linejoin:round;">
<circle cx="193500000.000000" cy="88800000.000000" r="100000.000000" /> 
<circle cx="193300000.000000" cy="88800000.000000" r="100000.000000" /> 
</g>
<g style="fill:#FFFFFF; fill-opacity:0.0; 
stroke:#FFFFFF; stroke-width:200000.000000; stroke-opacity:1; 
stroke-linecap:round; stroke-linejoin:round;">
<path d="M193500000.000000 88800000.000000 A100000.000000 100000.000000 0.0 0 0 193300000.000000 88800000.000000" />
<path d="M193300000.000000 88800000.000000 A100000.000000 100000.000000 0.0 0 0 193500000.000000 88800000.000000" />
</g>
<g style="fill:#FFFFFF; fill-opacity:0.0; 
stroke:#FFFFFF; stroke-width:120000.000000; stroke-opacity:1; 
stroke-linecap:round; stroke-linejoin:round;">
<path d="M199254724 86022500
L198745276 86022500
" />
<path d="M199254724 84977500
L198745276 84977500
" />
<path d="M195977500 85842224
L195977500 85332776
" />
<path d="M197022500 85842224
L197022500 85332776
" />
<path d="M198245276 81977500
L198754724 81977500
" />
<path d="M198245276 83022500
L198754724 83022500
" />
</g>
<g style="fill:#FFFFFF; fill-opacity:0.0; 
stroke:#FFFFFF; stroke-width:200000.000000; stroke-opacity:1; 
stroke-linecap:round; stroke-linejoin:round;">
<path d="M184030000 109200000
L184030000 110400000
" />
<path d="M184030000 110400000
L192970000 110400000
" />
<path d="M192970000 110400000
L192970000 109200000
" />
</g>
<g style="fill:#FFFFFF; fill-opacity:1.0; 
stroke:#FFFFFF; stroke-width:1.000000; stroke-opacity:1; 
stroke-linecap:round; stroke-linejoin:round;">
<circle cx="188000000.000000" cy="102800000.000000" r="50000.000000" /> 
<circle cx="188000000.000000" cy="102700000.000000" r="50000.000000" /> 
</g>
<g style="fill:#FFFFFF; fill-opacity:0.0; 
stroke:#FFFFFF; stroke-width:100000.000000; stroke-opacity:1; 
stroke-linecap:round; stroke-linejoin:round;">
<path d="M188000000.000000 102800000.000000 A50000.000000 50000.000000 0.0 0 0 188000000.000000 102700000.000000" />
<path d="M188000000.000000 102700000.000000 A50000.000000 50000.000000 0.0 0 0 188000000.000000 102800000.000000" />
</g>
<g style="fill:#FFFFFF; fill-opacity:0.0; 
stroke:#FFFFFF; stroke-width:120000.000000; stroke-opacity:1; 
stroke-linecap:round; stroke-linejoin:round;">
<path d="M178777500 80995276
L178777500 81504724
" />
<path d="M179822500 80995276
L179822500 81504724
" />
<path d="M195245276 77977500
L195754724 77977500
" />
<path d="M195245276 79022500
L195754724 79022500
" />
<path d="M187825000 100235000
L190285000 100235000
" />
<path d="M190285000 100235000
L190285000 98765000
" />
<path d="M190285000 98765000
L187825000 98765000
" />
<path d="M190160000 94235000
L190160000 92765000
" />
<path d="M190160000 92765000
L187700000 92765000
" />
<path d="M187700000 94235000
L190160000 94235000
" />
<path d="M176170000 76995000
L176170000 79595000
" />
<path d="M176170000 79595000
L178830000 79595000
" />
<path d="M176170000 74395000
L177500000 74395000
" />
<path d="M178830000 76995000
L178830000 79595000
" />
<path d="M176170000 75725000
L176170000 74395000
" />
<path d="M176170000 76995000
L178830000 76995000
" />
<path d="M184754724 98977500
L184245276 98977500
" />
<path d="M184754724 100022500
L184245276 100022500
" />
</g>
<g style="fill:#FFFFFF; fill-opacity:0.0; 
stroke:#FFFFFF; stroke-width:150000.000000; stroke-opacity:1; 
stroke-linecap:round; stroke-linejoin:round;">
<path d="M191375000 71175000
L191375000 71825000
" />
<path d="M185625000 71750000
L184025000 71750000
" />
<path d="M185625000 71175000
L185625000 71750000
" />
<path d="M185625000 81825000
L191375000 81825000
" />
<path d="M185625000 71175000
L191375000 71175000
" />
<path d="M191375000 81825000
L191375000 81175000
" />
<path d="M185625000 81825000
L185625000 81175000
" />
</g>
<g style="fill:#FFFFFF; fill-opacity:0.0; 
stroke:#FFFFFF; stroke-width:120000.000000; stroke-opacity:1; 
stroke-linecap:round; stroke-linejoin:round;">
<path d="M178425000.226018 90146516.281667 A1470000.000000 1470000.000000 0.0 1 0 176584999.773982 90146516.281667" />
<path d="M200060000 91500000
L200060000 89550000
" />
<path d="M200060000 91500000
L200060000 93450000
" />
<path d="M194940000 91500000
L194940000 89550000
" />
<path d="M194940000 91500000
L194940000 94950000
" />
<path d="M184754724 95977500
L184245276 95977500
" />
<path d="M184754724 97022500
L184245276 97022500
" />
<path d="M183122500 84579724
L183122500 84070276
" />
<path d="M182077500 84579724
L182077500 84070276
" />
<path d="M177853733 96490000
L178146267 96490000
" />
<path d="M177853733 97510000
L178146267 97510000
" />
<path d="M177853733 100990000
L178146267 100990000
" />
<path d="M177853733 102010000
L178146267 102010000
" />
<path d="M178425000 86335000
L179075000 86335000
" />
<path d="M178425000 83215000
L176750000 83215000
" />
<path d="M178425000 83215000
L179075000 83215000
" />
<path d="M178425000 86335000
L177775000 86335000
" />
<path d="M190285000 95765000
L187825000 95765000
" />
<path d="M190285000 97235000
L190285000 95765000
" />
<path d="M187825000 97235000
L190285000 97235000
" />
<path d="M195977500 97332776
L195977500 97842224
" />
<path d="M197022500 97332776
L197022500 97842224
" />
<path d="M184754724 92977500
L184245276 92977500
" />
<path d="M184754724 94022500
L184245276 94022500
" />
<path d="M197670000 78885000
L200330000 78885000
" />
<path d="M197670000 73745000
L197670000 78885000
" />
<path d="M197670000 71145000
L199000000 71145000
" />
<path d="M197670000 72475000
L197670000 71145000
" />
<path d="M197670000 73745000
L200330000 73745000
" />
<path d="M200330000 73745000
L200330000 78885000
" />
<g >
</g>
<g >
</g>
<g >
</g>
<g >
</g>
<g >
</g>
<g >
</g>
<g >
</g>
<g >
</g>
<g >
</g>
<g >
</g>
<g >
</g>
<g >
</g>
<g >
</g>
<g >
</g>
<g >
</g>
<g >
</g>
<g >
</g>
<g >
</g>
<g >
</g>
<g >
</g>
<g >
</g>
<g >
</g>
<g >
</g>
<g >
</g>
<g >
</g>
<g >
</g>
</g> 
</svg>
