<?xml version="1.0" standalone="no"?>
 <!DOCTYPE svg PUBLIC "-//W3C//DTD SVG 1.1//EN" 
 "http://www.w3.org/Graphics/SVG/1.1/DTD/svg11.dtd"> 
<svg
  xmlns:svg="http://www.w3.org/2000/svg"
  xmlns="http://www.w3.org/2000/svg"
  xmlns:xlink="http://www.w3.org/1999/xlink"
  version="1.1"
  width="29.700220cm" height="21.000720cm" viewBox="0 0 297002200 210007200">
<title>SVG Picture created as Rectangle Control Module V1.0.4-B_Cu.svg date 2022/09/04 17:29:39 </title>
  <desc>Picture generated by PCBNEW </desc>
<g style="fill:#000000; fill-opacity:1.000000;stroke:#000000; stroke-opacity:1.000000;
stroke-linecap:round; stroke-linejoin:round;"
 transform="translate(0 0) scale(1 1)">
</g>
<g style="fill:#000000; fill-opacity:0.0; 
stroke:#000000; stroke-width:0.000000; stroke-opacity:1; 
stroke-linecap:round; stroke-linejoin:round;">
</g>
<g style="fill:#000000; fill-opacity:1.0; 
stroke:#000000; stroke-width:21200.000000; stroke-opacity:1; 
stroke-linecap:round; stroke-linejoin:round;">
<rect x="170675000.000000" y="65650000.000000" width="35350000.000000" height="50800000.000000" rx="0.000000" />
</g>
<g style="fill:#FFFFFF; fill-opacity:1.0; 
stroke:#FFFFFF; stroke-width:21200.000000; stroke-opacity:1; 
stroke-linecap:round; stroke-linejoin:round;">
<g >
</g>
<g >
</g>
<g >
</g>
<g >
</g>
<g >
</g>
<g style="fill:#FFFFFF; fill-opacity:1.0; 
stroke:#FFFFFF; stroke-width:21200.000000; stroke-opacity:1; 
stroke-linecap:round; stroke-linejoin:round;">
</g>
<g style="fill:#FFFFFF; fill-opacity:1.0; 
stroke:#FFFFFF; stroke-width:1.000000; stroke-opacity:1; 
stroke-linecap:round; stroke-linejoin:round;">
<circle cx="184180000.000000" cy="104000000.000000" r="1005000.000000" /> 
</g>
<g style="fill:#FFFFFF; fill-opacity:1.0; 
stroke:#FFFFFF; stroke-width:21200.000000; stroke-opacity:1; 
stroke-linecap:round; stroke-linejoin:round;">
</g>
<g style="fill:#FFFFFF; fill-opacity:1.0; 
stroke:#FFFFFF; stroke-width:1.000000; stroke-opacity:1; 
stroke-linecap:round; stroke-linejoin:round;">
<circle cx="184180000.000000" cy="107800000.000000" r="1005000.000000" /> 
</g>
<g style="fill:#FFFFFF; fill-opacity:1.0; 
stroke:#FFFFFF; stroke-width:21200.000000; stroke-opacity:1; 
stroke-linecap:round; stroke-linejoin:round;">
</g>
<g style="fill:#FFFFFF; fill-opacity:1.0; 
stroke:#FFFFFF; stroke-width:1.000000; stroke-opacity:1; 
stroke-linecap:round; stroke-linejoin:round;">
<circle cx="192820000.000000" cy="107800000.000000" r="1005000.000000" /> 
</g>
<g style="fill:#FFFFFF; fill-opacity:1.0; 
stroke:#FFFFFF; stroke-width:21200.000000; stroke-opacity:1; 
stroke-linecap:round; stroke-linejoin:round;">
</g>
<g style="fill:#FFFFFF; fill-opacity:1.0; 
stroke:#FFFFFF; stroke-width:1.000000; stroke-opacity:1; 
stroke-linecap:round; stroke-linejoin:round;">
<circle cx="192820000.000000" cy="104000000.000000" r="1005000.000000" /> 
</g>
<g style="fill:#FFFFFF; fill-opacity:1.0; 
stroke:#FFFFFF; stroke-width:21200.000000; stroke-opacity:1; 
stroke-linecap:round; stroke-linejoin:round;">
</g>
<g >
</g>
<g >
</g>
<g >
</g>
<g >
</g>
<g >
</g>
<g style="fill:#FFFFFF; fill-opacity:1.0; 
stroke:#FFFFFF; stroke-width:21200.000000; stroke-opacity:1; 
stroke-linecap:round; stroke-linejoin:round;">
</g>
<g style="fill:#FFFFFF; fill-opacity:1.0; 
stroke:#FFFFFF; stroke-width:1.000000; stroke-opacity:1; 
stroke-linecap:round; stroke-linejoin:round;">
<path style="fill:#FFFFFF; fill-opacity:1.0; 
stroke:#FFFFFF; stroke-width:1.000000; stroke-opacity:1; 
stroke-linecap:round; stroke-linejoin:round;fill-rule:evenodd;"
d="M 176650000.000000,76575000.000000
176650000.000000,74875000.000000
178350000.000000,74875000.000000
178350000.000000,76575000.000000
Z" /> 
<circle cx="177500000.000000" cy="78265000.000000" r="850000.000000" /> 
</g>
<g >
</g>
<g >
</g>
<g >
</g>
<g style="fill:#FFFFFF; fill-opacity:1.0; 
stroke:#FFFFFF; stroke-width:1.000000; stroke-opacity:1; 
stroke-linecap:round; stroke-linejoin:round;">
<circle cx="177505000.000000" cy="89000000.000000" r="800000.000000" /> 
</g>
<g style="fill:#FFFFFF; fill-opacity:1.0; 
stroke:#FFFFFF; stroke-width:21200.000000; stroke-opacity:1; 
stroke-linecap:round; stroke-linejoin:round;">
</g>
<g style="fill:#FFFFFF; fill-opacity:1.0; 
stroke:#FFFFFF; stroke-width:1.000000; stroke-opacity:1; 
stroke-linecap:round; stroke-linejoin:round;">
<circle cx="177505000.000000" cy="91540000.000000" r="800000.000000" /> 
</g>
<g >
</g>
<g style="fill:#FFFFFF; fill-opacity:1.0; 
stroke:#FFFFFF; stroke-width:1.000000; stroke-opacity:1; 
stroke-linecap:round; stroke-linejoin:round;">
<circle cx="197500000.000000" cy="92200000.000000" r="250000.000000" /> 
</g>
<g style="fill:#FFFFFF; fill-opacity:1.0; 
stroke:#FFFFFF; stroke-width:21200.000000; stroke-opacity:1; 
stroke-linecap:round; stroke-linejoin:round;">
</g>
<g style="fill:#FFFFFF; fill-opacity:1.0; 
stroke:#FFFFFF; stroke-width:1.000000; stroke-opacity:1; 
stroke-linecap:round; stroke-linejoin:round;">
<circle cx="196500000.000000" cy="92200000.000000" r="250000.000000" /> 
</g>
<g style="fill:#FFFFFF; fill-opacity:1.0; 
stroke:#FFFFFF; stroke-width:21200.000000; stroke-opacity:1; 
stroke-linecap:round; stroke-linejoin:round;">
</g>
<g style="fill:#FFFFFF; fill-opacity:1.0; 
stroke:#FFFFFF; stroke-width:1.000000; stroke-opacity:1; 
stroke-linecap:round; stroke-linejoin:round;">
<circle cx="197500000.000000" cy="90800000.000000" r="250000.000000" /> 
</g>
<g style="fill:#FFFFFF; fill-opacity:1.0; 
stroke:#FFFFFF; stroke-width:21200.000000; stroke-opacity:1; 
stroke-linecap:round; stroke-linejoin:round;">
</g>
<g style="fill:#FFFFFF; fill-opacity:1.0; 
stroke:#FFFFFF; stroke-width:1.000000; stroke-opacity:1; 
stroke-linecap:round; stroke-linejoin:round;">
<circle cx="198500000.000000" cy="92200000.000000" r="250000.000000" /> 
</g>
<g style="fill:#FFFFFF; fill-opacity:1.0; 
stroke:#FFFFFF; stroke-width:21200.000000; stroke-opacity:1; 
stroke-linecap:round; stroke-linejoin:round;">
</g>
<g style="fill:#FFFFFF; fill-opacity:1.0; 
stroke:#FFFFFF; stroke-width:1.000000; stroke-opacity:1; 
stroke-linecap:round; stroke-linejoin:round;">
<circle cx="198500000.000000" cy="90800000.000000" r="250000.000000" /> 
</g>
<g style="fill:#FFFFFF; fill-opacity:1.0; 
stroke:#FFFFFF; stroke-width:21200.000000; stroke-opacity:1; 
stroke-linecap:round; stroke-linejoin:round;">
</g>
<g style="fill:#FFFFFF; fill-opacity:1.0; 
stroke:#FFFFFF; stroke-width:1.000000; stroke-opacity:1; 
stroke-linecap:round; stroke-linejoin:round;">
<circle cx="196500000.000000" cy="90800000.000000" r="250000.000000" /> 
</g>
<g style="fill:#FFFFFF; fill-opacity:1.0; 
stroke:#FFFFFF; stroke-width:21200.000000; stroke-opacity:1; 
stroke-linecap:round; stroke-linejoin:round;">
</g>
<g style="fill:#FFFFFF; fill-opacity:1.0; 
stroke:#FFFFFF; stroke-width:1.000000; stroke-opacity:1; 
stroke-linecap:round; stroke-linejoin:round;">
<path style="fill:#FFFFFF; fill-opacity:1.0; 
stroke:#FFFFFF; stroke-width:1.000000; stroke-opacity:1; 
stroke-linecap:round; stroke-linejoin:round;fill-rule:evenodd;"
d="M 198750000.000000,92450000.000000
196250000.000000,92450000.000000
196250000.000000,90550000.000000
198750000.000000,90550000.000000
Z" /> 
</g>
<g >
</g>
<g >
</g>
<g >
</g>
<g >
</g>
<g >
</g>
<g >
</g>
<g >
</g>
<g >
</g>
<g >
</g>
<g style="fill:#FFFFFF; fill-opacity:1.0; 
stroke:#FFFFFF; stroke-width:1.000000; stroke-opacity:1; 
stroke-linecap:round; stroke-linejoin:round;">
<path style="fill:#FFFFFF; fill-opacity:1.0; 
stroke:#FFFFFF; stroke-width:1.000000; stroke-opacity:1; 
stroke-linecap:round; stroke-linejoin:round;fill-rule:evenodd;"
d="M 198150000.000000,73325000.000000
198150000.000000,71625000.000000
199850000.000000,71625000.000000
199850000.000000,73325000.000000
Z" /> 
<circle cx="199000000.000000" cy="75015000.000000" r="850000.000000" /> 
<circle cx="199000000.000000" cy="77555000.000000" r="850000.000000" /> 
</g>
<g >
</g>
<g style="fill:#FFFFFF; fill-opacity:1.0; 
stroke:#FFFFFF; stroke-width:1.000000; stroke-opacity:1; 
stroke-linecap:round; stroke-linejoin:round;">
<circle cx="177475000.000000" cy="86900000.000000" r="400000.000000" /> 
</g>
<g style="fill:#FFFFFF; fill-opacity:1.0; 
stroke:#FFFFFF; stroke-width:21200.000000; stroke-opacity:1; 
stroke-linecap:round; stroke-linejoin:round;">
</g>
<g style="fill:#FFFFFF; fill-opacity:1.0; 
stroke:#FFFFFF; stroke-width:1.000000; stroke-opacity:1; 
stroke-linecap:round; stroke-linejoin:round;">
<circle cx="182875000.000000" cy="75900000.000000" r="400000.000000" /> 
</g>
<g style="fill:#FFFFFF; fill-opacity:1.0; 
stroke:#FFFFFF; stroke-width:21200.000000; stroke-opacity:1; 
stroke-linecap:round; stroke-linejoin:round;">
</g>
<g style="fill:#FFFFFF; fill-opacity:1.0; 
stroke:#FFFFFF; stroke-width:1.000000; stroke-opacity:1; 
stroke-linecap:round; stroke-linejoin:round;">
<circle cx="183000000.000000" cy="72000000.000000" r="400000.000000" /> 
</g>
<g style="fill:#FFFFFF; fill-opacity:1.0; 
stroke:#FFFFFF; stroke-width:21200.000000; stroke-opacity:1; 
stroke-linecap:round; stroke-linejoin:round;">
</g>
<g style="fill:#FFFFFF; fill-opacity:1.0; 
stroke:#FFFFFF; stroke-width:1.000000; stroke-opacity:1; 
stroke-linecap:round; stroke-linejoin:round;">
<circle cx="188500000.000000" cy="72000000.000000" r="400000.000000" /> 
</g>
<g style="fill:#FFFFFF; fill-opacity:1.0; 
stroke:#FFFFFF; stroke-width:21200.000000; stroke-opacity:1; 
stroke-linecap:round; stroke-linejoin:round;">
</g>
<g style="fill:#FFFFFF; fill-opacity:1.0; 
stroke:#FFFFFF; stroke-width:1.000000; stroke-opacity:1; 
stroke-linecap:round; stroke-linejoin:round;">
<circle cx="188775000.000000" cy="73750000.000000" r="400000.000000" /> 
</g>
<g style="fill:#FFFFFF; fill-opacity:1.0; 
stroke:#FFFFFF; stroke-width:21200.000000; stroke-opacity:1; 
stroke-linecap:round; stroke-linejoin:round;">
</g>
<g style="fill:#FFFFFF; fill-opacity:1.0; 
stroke:#FFFFFF; stroke-width:1.000000; stroke-opacity:1; 
stroke-linecap:round; stroke-linejoin:round;">
<circle cx="191500000.000000" cy="82500000.000000" r="400000.000000" /> 
</g>
<g style="fill:#FFFFFF; fill-opacity:1.0; 
stroke:#FFFFFF; stroke-width:21200.000000; stroke-opacity:1; 
stroke-linecap:round; stroke-linejoin:round;">
</g>
<g style="fill:#FFFFFF; fill-opacity:1.0; 
stroke:#FFFFFF; stroke-width:1.000000; stroke-opacity:1; 
stroke-linecap:round; stroke-linejoin:round;">
<circle cx="185500000.000000" cy="82500000.000000" r="400000.000000" /> 
</g>
<g style="fill:#FFFFFF; fill-opacity:1.0; 
stroke:#FFFFFF; stroke-width:21200.000000; stroke-opacity:1; 
stroke-linecap:round; stroke-linejoin:round;">
</g>
<g style="fill:#FFFFFF; fill-opacity:1.0; 
stroke:#FFFFFF; stroke-width:1.000000; stroke-opacity:1; 
stroke-linecap:round; stroke-linejoin:round;">
<circle cx="177300000.000000" cy="80900000.000000" r="400000.000000" /> 
</g>
<g style="fill:#FFFFFF; fill-opacity:1.0; 
stroke:#FFFFFF; stroke-width:21200.000000; stroke-opacity:1; 
stroke-linecap:round; stroke-linejoin:round;">
</g>
<g style="fill:#FFFFFF; fill-opacity:1.0; 
stroke:#FFFFFF; stroke-width:1.000000; stroke-opacity:1; 
stroke-linecap:round; stroke-linejoin:round;">
<circle cx="197000000.000000" cy="72000000.000000" r="400000.000000" /> 
</g>
<g style="fill:#FFFFFF; fill-opacity:1.0; 
stroke:#FFFFFF; stroke-width:21200.000000; stroke-opacity:1; 
stroke-linecap:round; stroke-linejoin:round;">
</g>
<g style="fill:#FFFFFF; fill-opacity:1.0; 
stroke:#FFFFFF; stroke-width:1.000000; stroke-opacity:1; 
stroke-linecap:round; stroke-linejoin:round;">
<circle cx="195500000.000000" cy="72000000.000000" r="400000.000000" /> 
</g>
<g style="fill:#FFFFFF; fill-opacity:1.0; 
stroke:#FFFFFF; stroke-width:21200.000000; stroke-opacity:1; 
stroke-linecap:round; stroke-linejoin:round;">
</g>
<g style="fill:#FFFFFF; fill-opacity:1.0; 
stroke:#FFFFFF; stroke-width:1.000000; stroke-opacity:1; 
stroke-linecap:round; stroke-linejoin:round;">
<circle cx="194000000.000000" cy="72000000.000000" r="400000.000000" /> 
</g>
<g style="fill:#FFFFFF; fill-opacity:1.0; 
stroke:#FFFFFF; stroke-width:21200.000000; stroke-opacity:1; 
stroke-linecap:round; stroke-linejoin:round;">
</g>
<g style="fill:#FFFFFF; fill-opacity:1.0; 
stroke:#FFFFFF; stroke-width:1.000000; stroke-opacity:1; 
stroke-linecap:round; stroke-linejoin:round;">
<circle cx="178000000.000000" cy="107500000.000000" r="400000.000000" /> 
</g>
<g style="fill:#FFFFFF; fill-opacity:1.0; 
stroke:#FFFFFF; stroke-width:21200.000000; stroke-opacity:1; 
stroke-linecap:round; stroke-linejoin:round;">
</g>
<g style="fill:#FFFFFF; fill-opacity:1.0; 
stroke:#FFFFFF; stroke-width:1.000000; stroke-opacity:1; 
stroke-linecap:round; stroke-linejoin:round;">
<circle cx="182000000.000000" cy="102500000.000000" r="400000.000000" /> 
</g>
<g style="fill:#FFFFFF; fill-opacity:1.0; 
stroke:#FFFFFF; stroke-width:21200.000000; stroke-opacity:1; 
stroke-linecap:round; stroke-linejoin:round;">
</g>
<g style="fill:#FFFFFF; fill-opacity:1.0; 
stroke:#FFFFFF; stroke-width:1.000000; stroke-opacity:1; 
stroke-linecap:round; stroke-linejoin:round;">
<circle cx="196000000.000000" cy="100500000.000000" r="400000.000000" /> 
</g>
<g style="fill:#FFFFFF; fill-opacity:1.0; 
stroke:#FFFFFF; stroke-width:21200.000000; stroke-opacity:1; 
stroke-linecap:round; stroke-linejoin:round;">
</g>
<g style="fill:#FFFFFF; fill-opacity:1.0; 
stroke:#FFFFFF; stroke-width:1.000000; stroke-opacity:1; 
stroke-linecap:round; stroke-linejoin:round;">
<circle cx="192500000.000000" cy="96000000.000000" r="400000.000000" /> 
</g>
<g style="fill:#FFFFFF; fill-opacity:1.0; 
stroke:#FFFFFF; stroke-width:21200.000000; stroke-opacity:1; 
stroke-linecap:round; stroke-linejoin:round;">
</g>
<g style="fill:#FFFFFF; fill-opacity:1.0; 
stroke:#FFFFFF; stroke-width:1.000000; stroke-opacity:1; 
stroke-linecap:round; stroke-linejoin:round;">
<circle cx="192500000.000000" cy="93000000.000000" r="400000.000000" /> 
</g>
<g style="fill:#FFFFFF; fill-opacity:1.0; 
stroke:#FFFFFF; stroke-width:21200.000000; stroke-opacity:1; 
stroke-linecap:round; stroke-linejoin:round;">
</g>
<g style="fill:#FFFFFF; fill-opacity:1.0; 
stroke:#FFFFFF; stroke-width:1.000000; stroke-opacity:1; 
stroke-linecap:round; stroke-linejoin:round;">
<circle cx="190500000.000000" cy="91000000.000000" r="400000.000000" /> 
</g>
<g style="fill:#FFFFFF; fill-opacity:1.0; 
stroke:#FFFFFF; stroke-width:21200.000000; stroke-opacity:1; 
stroke-linecap:round; stroke-linejoin:round;">
</g>
<g style="fill:#FFFFFF; fill-opacity:1.0; 
stroke:#FFFFFF; stroke-width:1.000000; stroke-opacity:1; 
stroke-linecap:round; stroke-linejoin:round;">
<circle cx="199500000.000000" cy="107500000.000000" r="400000.000000" /> 
</g>
<g style="fill:#FFFFFF; fill-opacity:1.0; 
stroke:#FFFFFF; stroke-width:21200.000000; stroke-opacity:1; 
stroke-linecap:round; stroke-linejoin:round;">
</g>
<g style="fill:#FFFFFF; fill-opacity:1.0; 
stroke:#FFFFFF; stroke-width:1.000000; stroke-opacity:1; 
stroke-linecap:round; stroke-linejoin:round;">
<circle cx="189000000.000000" cy="75500000.000000" r="400000.000000" /> 
</g>
<g style="fill:#FFFFFF; fill-opacity:1.0; 
stroke:#FFFFFF; stroke-width:21200.000000; stroke-opacity:1; 
stroke-linecap:round; stroke-linejoin:round;">
</g>
<g style="fill:#FFFFFF; fill-opacity:1.0; 
stroke:#FFFFFF; stroke-width:1.000000; stroke-opacity:1; 
stroke-linecap:round; stroke-linejoin:round;">
<circle cx="192500000.000000" cy="98500000.000000" r="400000.000000" /> 
</g>
<g style="fill:#FFFFFF; fill-opacity:1.0; 
stroke:#FFFFFF; stroke-width:21200.000000; stroke-opacity:1; 
stroke-linecap:round; stroke-linejoin:round;">
</g>
<g style="fill:#FFFFFF; fill-opacity:1.0; 
stroke:#FFFFFF; stroke-width:1.000000; stroke-opacity:1; 
stroke-linecap:round; stroke-linejoin:round;">
<circle cx="177450000.000000" cy="72350000.000000" r="400000.000000" /> 
</g>
<g style="fill:#FFFFFF; fill-opacity:1.0; 
stroke:#FFFFFF; stroke-width:21200.000000; stroke-opacity:1; 
stroke-linecap:round; stroke-linejoin:round;">
</g>
<g style="fill:#FFFFFF; fill-opacity:1.0; 
stroke:#FFFFFF; stroke-width:1.000000; stroke-opacity:1; 
stroke-linecap:round; stroke-linejoin:round;">
<circle cx="198500000.000000" cy="100500000.000000" r="400000.000000" /> 
</g>
<g style="fill:#FFFFFF; fill-opacity:1.0; 
stroke:#FFFFFF; stroke-width:21200.000000; stroke-opacity:1; 
stroke-linecap:round; stroke-linejoin:round;">
</g>
<g style="fill:#FFFFFF; fill-opacity:1.0; 
stroke:#FFFFFF; stroke-width:1.000000; stroke-opacity:1; 
stroke-linecap:round; stroke-linejoin:round;">
<circle cx="188500000.000000" cy="89000000.000000" r="400000.000000" /> 
</g>
<g style="fill:#FFFFFF; fill-opacity:1.0; 
stroke:#FFFFFF; stroke-width:21200.000000; stroke-opacity:1; 
stroke-linecap:round; stroke-linejoin:round;">
</g>
<g style="fill:#FFFFFF; fill-opacity:1.0; 
stroke:#FFFFFF; stroke-width:1.000000; stroke-opacity:1; 
stroke-linecap:round; stroke-linejoin:round;">
<circle cx="199512299.000000" cy="80012299.000000" r="400000.000000" /> 
</g>
<g style="fill:#FFFFFF; fill-opacity:1.0; 
stroke:#FFFFFF; stroke-width:21200.000000; stroke-opacity:1; 
stroke-linecap:round; stroke-linejoin:round;">
</g>
<g style="fill:#FFFFFF; fill-opacity:1.0; 
stroke:#FFFFFF; stroke-width:1.000000; stroke-opacity:1; 
stroke-linecap:round; stroke-linejoin:round;">
<circle cx="179225000.000000" cy="77050000.000000" r="400000.000000" /> 
</g>
<g style="fill:#FFFFFF; fill-opacity:1.0; 
stroke:#FFFFFF; stroke-width:21200.000000; stroke-opacity:1; 
stroke-linecap:round; stroke-linejoin:round;">
</g>
<g style="fill:#FFFFFF; fill-opacity:1.0; 
stroke:#FFFFFF; stroke-width:1.000000; stroke-opacity:1; 
stroke-linecap:round; stroke-linejoin:round;">
<circle cx="180000000.000000" cy="89500000.000000" r="400000.000000" /> 
</g>
<g style="fill:#FFFFFF; fill-opacity:1.0; 
stroke:#FFFFFF; stroke-width:21200.000000; stroke-opacity:1; 
stroke-linecap:round; stroke-linejoin:round;">
</g>
<g style="fill:#FFFFFF; fill-opacity:1.0; 
stroke:#FFFFFF; stroke-width:1.000000; stroke-opacity:1; 
stroke-linecap:round; stroke-linejoin:round;">
<circle cx="180375000.000000" cy="77475000.000000" r="400000.000000" /> 
</g>
<g style="fill:#FFFFFF; fill-opacity:1.0; 
stroke:#FFFFFF; stroke-width:21200.000000; stroke-opacity:1; 
stroke-linecap:round; stroke-linejoin:round;">
</g>
<g style="fill:#FFFFFF; fill-opacity:1.0; 
stroke:#FFFFFF; stroke-width:1.000000; stroke-opacity:1; 
stroke-linecap:round; stroke-linejoin:round;">
<circle cx="180500000.000000" cy="88000000.000000" r="400000.000000" /> 
</g>
<g style="fill:#FFFFFF; fill-opacity:1.0; 
stroke:#FFFFFF; stroke-width:21200.000000; stroke-opacity:1; 
stroke-linecap:round; stroke-linejoin:round;">
</g>
<g style="fill:#FFFFFF; fill-opacity:1.0; 
stroke:#FFFFFF; stroke-width:1.000000; stroke-opacity:1; 
stroke-linecap:round; stroke-linejoin:round;">
<circle cx="194500000.000000" cy="76500000.000000" r="400000.000000" /> 
</g>
<g style="fill:#FFFFFF; fill-opacity:1.0; 
stroke:#FFFFFF; stroke-width:21200.000000; stroke-opacity:1; 
stroke-linecap:round; stroke-linejoin:round;">
</g>
<g style="fill:#FFFFFF; fill-opacity:1.0; 
stroke:#FFFFFF; stroke-width:1.000000; stroke-opacity:1; 
stroke-linecap:round; stroke-linejoin:round;">
<circle cx="195000000.000000" cy="83000000.000000" r="400000.000000" /> 
</g>
<g style="fill:#FFFFFF; fill-opacity:1.0; 
stroke:#FFFFFF; stroke-width:21200.000000; stroke-opacity:1; 
stroke-linecap:round; stroke-linejoin:round;">
</g>
<g style="fill:#FFFFFF; fill-opacity:1.0; 
stroke:#FFFFFF; stroke-width:1.000000; stroke-opacity:1; 
stroke-linecap:round; stroke-linejoin:round;">
<circle cx="196000000.000000" cy="76000000.000000" r="400000.000000" /> 
</g>
<g style="fill:#FFFFFF; fill-opacity:1.0; 
stroke:#FFFFFF; stroke-width:21200.000000; stroke-opacity:1; 
stroke-linecap:round; stroke-linejoin:round;">
</g>
<g style="fill:#FFFFFF; fill-opacity:1.0; 
stroke:#FFFFFF; stroke-width:1.000000; stroke-opacity:1; 
stroke-linecap:round; stroke-linejoin:round;">
<circle cx="196000000.000000" cy="81500000.000000" r="400000.000000" /> 
</g>
<g style="fill:#FFFFFF; fill-opacity:1.0; 
stroke:#FFFFFF; stroke-width:21200.000000; stroke-opacity:1; 
stroke-linecap:round; stroke-linejoin:round;">
</g>
<g style="fill:#FFFFFF; fill-opacity:1.0; 
stroke:#FFFFFF; stroke-width:1.000000; stroke-opacity:1; 
stroke-linecap:round; stroke-linejoin:round;">
<circle cx="196000000.000000" cy="74500000.000000" r="400000.000000" /> 
</g>
<g style="fill:#FFFFFF; fill-opacity:1.0; 
stroke:#FFFFFF; stroke-width:21200.000000; stroke-opacity:1; 
stroke-linecap:round; stroke-linejoin:round;">
</g>
<g style="fill:#FFFFFF; fill-opacity:1.0; 
stroke:#FFFFFF; stroke-width:1.000000; stroke-opacity:1; 
stroke-linecap:round; stroke-linejoin:round;">
<circle cx="197000000.000000" cy="80500000.000000" r="400000.000000" /> 
</g>
<g style="fill:#FFFFFF; fill-opacity:1.0; 
stroke:#FFFFFF; stroke-width:21200.000000; stroke-opacity:1; 
stroke-linecap:round; stroke-linejoin:round;">
</g>
<g style="fill:#FFFFFF; fill-opacity:1.0; 
stroke:#FFFFFF; stroke-width:1.000000; stroke-opacity:1; 
stroke-linecap:round; stroke-linejoin:round;">
<circle cx="181500000.000000" cy="86500000.000000" r="400000.000000" /> 
</g>
<g style="fill:#FFFFFF; fill-opacity:1.0; 
stroke:#FFFFFF; stroke-width:21200.000000; stroke-opacity:1; 
stroke-linecap:round; stroke-linejoin:round;">
</g>
<g style="fill:#FFFFFF; fill-opacity:1.0; 
stroke:#FFFFFF; stroke-width:1.000000; stroke-opacity:1; 
stroke-linecap:round; stroke-linejoin:round;">
<circle cx="181400000.000000" cy="78425000.000000" r="400000.000000" /> 
</g>
<g style="fill:#FFFFFF; fill-opacity:1.0; 
stroke:#FFFFFF; stroke-width:21200.000000; stroke-opacity:1; 
stroke-linecap:round; stroke-linejoin:round;">
</g>
<g >
</g>
<g style="fill:#FFFFFF; fill-opacity:1.0; 
stroke:#FFFFFF; stroke-width:21200.000000; stroke-opacity:1; 
stroke-linecap:round; stroke-linejoin:round;">
</g>
<g style="fill:#FFFFFF; fill-opacity:1.0; 
stroke:#FFFFFF; stroke-width:250000.000000; stroke-opacity:1; 
stroke-linecap:round; stroke-linejoin:round;">
</g>
<g style="fill:#FFFFFF; fill-opacity:0.0; 
stroke:#FFFFFF; stroke-width:250000.000000; stroke-opacity:1; 
stroke-linecap:round; stroke-linejoin:round;">
<path d="M181500000 78525000
L181500000 86500000
" />
<path d="M181400000 78425000
L181500000 78525000
" />
<path d="M180500000 77600000
L180500000 88000000
" />
<path d="M180375000 77475000
L180500000 77600000
" />
<path d="M179300000 77125000
L179300000 88800000
" />
<path d="M179225000 77050000
L179300000 77125000
" />
<path d="M179300000 88800000
L180000000 89500000
" />
</g>
<g style="fill:#FFFFFF; fill-opacity:0.0; 
stroke:#FFFFFF; stroke-width:800000.000000; stroke-opacity:1; 
stroke-linecap:round; stroke-linejoin:round;">
<path d="M183500000 78575000
L183500000 85500000
" />
<path d="M180775000 75850000
L183500000 78575000
" />
<path d="M177625000 75850000
L180775000 75850000
" />
<path d="M177500000 75725000
L177625000 75850000
" />
</g>
<g style="fill:#FFFFFF; fill-opacity:0.0; 
stroke:#FFFFFF; stroke-width:250000.000000; stroke-opacity:1; 
stroke-linecap:round; stroke-linejoin:round;">
<path d="M194024598 85500000
L183500000 85500000
" />
<path d="M199512299 80012299
L194024598 85500000
" />
</g>
<g style="fill:#FFFFFF; fill-opacity:0.0; 
stroke:#FFFFFF; stroke-width:800000.000000; stroke-opacity:1; 
stroke-linecap:round; stroke-linejoin:round;">
<path d="M183500000 85500000
L183500000 89914214
" />
<path d="M181874214 91540000
L177505000 91540000
" />
<path d="M183500000 89914214
L181874214 91540000
" />
</g>
<g style="fill:#FFFFFF; fill-opacity:0.0; 
stroke:#FFFFFF; stroke-width:250000.000000; stroke-opacity:1; 
stroke-linecap:round; stroke-linejoin:round;">
<path d="M197000000 75500000
L196000000 74500000
" />
<path d="M197000000 80500000
L197000000 75500000
" />
<path d="M196000000 81500000
L196000000 76000000
" />
<path d="M200500000 79024598
L199512299 80012299
" />
<path d="M200500000 76015000
L200500000 79024598
" />
<path d="M199500000 75015000
L200500000 76015000
" />
<path d="M199515000 74515000
L198515000 74515000
" />
<path d="M195000000 77000000
L195000000 83000000
" />
<path d="M194500000 76500000
L195000000 77000000
" />
</g>
<g >
</g>
<g style="fill:#FFFFFF; fill-opacity:0.0; 
stroke:#FFFFFF; stroke-width:250000.000000; stroke-opacity:1; 
stroke-linecap:round; stroke-linejoin:round;">
<g >
</g>
<g style="fill:#FFFFFF; fill-opacity:1.0; 
stroke:#FFFFFF; stroke-width:1.000000; stroke-opacity:1; 
stroke-linecap:round; stroke-linejoin:round;">
<path style="fill:#FFFFFF; fill-opacity:1.0; 
stroke:#FFFFFF; stroke-width:1.000000; stroke-opacity:1; 
stroke-linecap:round; stroke-linejoin:round;fill-rule:evenodd;"
d="M 200443388.000000,80504467.000000
200484570.000000,80562299.000000
200491500.000000,80603510.000000
200491500.000000,108365500.000000
200471498.000000,108433621.000000
200417842.000000,108480114.000000
200365500.000000,108491500.000000
194360344.000000,108491500.000000
194292223.000000,108471498.000000
194245730.000000,108417842.000000
194235626.000000,108347568.000000
194243935.000000,108317282.000000
194261981.000000,108273716.000000
194261982.000000,108273714.000000
194263875.000000,108269143.000000
194283456.000000,108187584.000000
194318334.000000,108042309.000000
194318335.000000,108042303.000000
194319489.000000,108037496.000000
194338180.000000,107800000.000000
194319489.000000,107562504.000000
194318335.000000,107557697.000000
194318334.000000,107557691.000000
194265030.000000,107335669.000000
194263875.000000,107330857.000000
194172708.000000,107110761.000000
194048233.000000,106907636.000000
193893515.000000,106726485.000000
193712364.000000,106571767.000000
193509239.000000,106447292.000000
193504669.000000,106445399.000000
193504665.000000,106445397.000000
193293716.000000,106358019.000000
193293714.000000,106358018.000000
193289143.000000,106356125.000000
193207584.000000,106336544.000000
193062309.000000,106301666.000000
193062303.000000,106301665.000000
193057496.000000,106300511.000000
192820000.000000,106281820.000000
192582504.000000,106300511.000000
192577697.000000,106301665.000000
192577691.000000,106301666.000000
192432416.000000,106336544.000000
192350857.000000,106356125.000000
192346286.000000,106358018.000000
192346284.000000,106358019.000000
192135335.000000,106445397.000000
192135331.000000,106445399.000000
192130761.000000,106447292.000000
191927636.000000,106571767.000000
191746485.000000,106726485.000000
191591767.000000,106907636.000000
191467292.000000,107110761.000000
191376125.000000,107330857.000000
191374970.000000,107335669.000000
191321666.000000,107557691.000000
191321665.000000,107557697.000000
191320511.000000,107562504.000000
191301820.000000,107800000.000000
191320511.000000,108037496.000000
191321665.000000,108042303.000000
191321666.000000,108042309.000000
191356544.000000,108187584.000000
191376125.000000,108269143.000000
191378018.000000,108273714.000000
191378019.000000,108273716.000000
191396065.000000,108317282.000000
191403654.000000,108387871.000000
191371875.000000,108451358.000000
191310817.000000,108487586.000000
191279656.000000,108491500.000000
185720344.000000,108491500.000000
185652223.000000,108471498.000000
185605730.000000,108417842.000000
185595626.000000,108347568.000000
185603935.000000,108317282.000000
185621981.000000,108273716.000000
185621982.000000,108273714.000000
185623875.000000,108269143.000000
185643456.000000,108187584.000000
185678334.000000,108042309.000000
185678335.000000,108042303.000000
185679489.000000,108037496.000000
185698180.000000,107800000.000000
185679489.000000,107562504.000000
185678335.000000,107557697.000000
185678334.000000,107557691.000000
185625030.000000,107335669.000000
185623875.000000,107330857.000000
185532708.000000,107110761.000000
185408233.000000,106907636.000000
185253515.000000,106726485.000000
185072364.000000,106571767.000000
184869239.000000,106447292.000000
184864669.000000,106445399.000000
184864665.000000,106445397.000000
184653716.000000,106358019.000000
184653714.000000,106358018.000000
184649143.000000,106356125.000000
184567584.000000,106336544.000000
184422309.000000,106301666.000000
184422303.000000,106301665.000000
184417496.000000,106300511.000000
184180000.000000,106281820.000000
183942504.000000,106300511.000000
183937697.000000,106301665.000000
183937691.000000,106301666.000000
183792416.000000,106336544.000000
183710857.000000,106356125.000000
183706286.000000,106358018.000000
183706284.000000,106358019.000000
183495335.000000,106445397.000000
183495331.000000,106445399.000000
183490761.000000,106447292.000000
183287636.000000,106571767.000000
183106485.000000,106726485.000000
182951767.000000,106907636.000000
182827292.000000,107110761.000000
182736125.000000,107330857.000000
182734970.000000,107335669.000000
182681666.000000,107557691.000000
182681665.000000,107557697.000000
182680511.000000,107562504.000000
182661820.000000,107800000.000000
182680511.000000,108037496.000000
182681665.000000,108042303.000000
182681666.000000,108042309.000000
182716544.000000,108187584.000000
182736125.000000,108269143.000000
182738018.000000,108273714.000000
182738019.000000,108273716.000000
182756065.000000,108317282.000000
182763654.000000,108387871.000000
182731875.000000,108451358.000000
182670817.000000,108487586.000000
182639656.000000,108491500.000000
176634500.000000,108491500.000000
176566379.000000,108471498.000000
176519886.000000,108417842.000000
176508500.000000,108365500.000000
176508500.000000,104000000.000000
182661820.000000,104000000.000000
182680511.000000,104237496.000000
182681665.000000,104242303.000000
182681666.000000,104242309.000000
182716544.000000,104387584.000000
182736125.000000,104469143.000000
182827292.000000,104689239.000000
182951767.000000,104892364.000000
183106485.000000,105073515.000000
183287636.000000,105228233.000000
183490761.000000,105352708.000000
183495331.000000,105354601.000000
183495335.000000,105354603.000000
183706284.000000,105441981.000000
183710857.000000,105443875.000000
183792416.000000,105463456.000000
183937691.000000,105498334.000000
183937697.000000,105498335.000000
183942504.000000,105499489.000000
184180000.000000,105518180.000000
184417496.000000,105499489.000000
184422303.000000,105498335.000000
184422309.000000,105498334.000000
184567584.000000,105463456.000000
184649143.000000,105443875.000000
184653716.000000,105441981.000000
184864665.000000,105354603.000000
184864669.000000,105354601.000000
184869239.000000,105352708.000000
185072364.000000,105228233.000000
185253515.000000,105073515.000000
185408233.000000,104892364.000000
185532708.000000,104689239.000000
185623875.000000,104469143.000000
185643456.000000,104387584.000000
185678334.000000,104242309.000000
185678335.000000,104242303.000000
185679489.000000,104237496.000000
185698180.000000,104000000.000000
191301820.000000,104000000.000000
191320511.000000,104237496.000000
191321665.000000,104242303.000000
191321666.000000,104242309.000000
191356544.000000,104387584.000000
191376125.000000,104469143.000000
191467292.000000,104689239.000000
191591767.000000,104892364.000000
191746485.000000,105073515.000000
191927636.000000,105228233.000000
192130761.000000,105352708.000000
192135331.000000,105354601.000000
192135335.000000,105354603.000000
192346284.000000,105441981.000000
192350857.000000,105443875.000000
192432416.000000,105463456.000000
192577691.000000,105498334.000000
192577697.000000,105498335.000000
192582504.000000,105499489.000000
192820000.000000,105518180.000000
193057496.000000,105499489.000000
193062303.000000,105498335.000000
193062309.000000,105498334.000000
193207584.000000,105463456.000000
193289143.000000,105443875.000000
193293716.000000,105441981.000000
193504665.000000,105354603.000000
193504669.000000,105354601.000000
193509239.000000,105352708.000000
193712364.000000,105228233.000000
193893515.000000,105073515.000000
194048233.000000,104892364.000000
194172708.000000,104689239.000000
194263875.000000,104469143.000000
194283456.000000,104387584.000000
194318334.000000,104242309.000000
194318335.000000,104242303.000000
194319489.000000,104237496.000000
194338180.000000,104000000.000000
194319489.000000,103762504.000000
194318335.000000,103757697.000000
194318334.000000,103757691.000000
194265030.000000,103535669.000000
194263875.000000,103530857.000000
194172708.000000,103310761.000000
194048233.000000,103107636.000000
193893515.000000,102926485.000000
193712364.000000,102771767.000000
193509239.000000,102647292.000000
193504669.000000,102645399.000000
193504665.000000,102645397.000000
193293716.000000,102558019.000000
193293714.000000,102558018.000000
193289143.000000,102556125.000000
193207584.000000,102536544.000000
193062309.000000,102501666.000000
193062303.000000,102501665.000000
193057496.000000,102500511.000000
192820000.000000,102481820.000000
192582504.000000,102500511.000000
192577697.000000,102501665.000000
192577691.000000,102501666.000000
192432416.000000,102536544.000000
192350857.000000,102556125.000000
192346286.000000,102558018.000000
192346284.000000,102558019.000000
192135335.000000,102645397.000000
192135331.000000,102645399.000000
192130761.000000,102647292.000000
191927636.000000,102771767.000000
191746485.000000,102926485.000000
191591767.000000,103107636.000000
191467292.000000,103310761.000000
191376125.000000,103530857.000000
191374970.000000,103535669.000000
191321666.000000,103757691.000000
191321665.000000,103757697.000000
191320511.000000,103762504.000000
191301820.000000,104000000.000000
185698180.000000,104000000.000000
185679489.000000,103762504.000000
185678335.000000,103757697.000000
185678334.000000,103757691.000000
185625030.000000,103535669.000000
185623875.000000,103530857.000000
185532708.000000,103310761.000000
185408233.000000,103107636.000000
185253515.000000,102926485.000000
185072364.000000,102771767.000000
184869239.000000,102647292.000000
184864669.000000,102645399.000000
184864665.000000,102645397.000000
184653716.000000,102558019.000000
184653714.000000,102558018.000000
184649143.000000,102556125.000000
184567584.000000,102536544.000000
184422309.000000,102501666.000000
184422303.000000,102501665.000000
184417496.000000,102500511.000000
184180000.000000,102481820.000000
183942504.000000,102500511.000000
183937697.000000,102501665.000000
183937691.000000,102501666.000000
183792416.000000,102536544.000000
183710857.000000,102556125.000000
183706286.000000,102558018.000000
183706284.000000,102558019.000000
183495335.000000,102645397.000000
183495331.000000,102645399.000000
183490761.000000,102647292.000000
183287636.000000,102771767.000000
183106485.000000,102926485.000000
182951767.000000,103107636.000000
182827292.000000,103310761.000000
182736125.000000,103530857.000000
182734970.000000,103535669.000000
182681666.000000,103757691.000000
182681665.000000,103757697.000000
182680511.000000,103762504.000000
182661820.000000,104000000.000000
176508500.000000,104000000.000000
176508500.000000,92681670.000000
176528502.000000,92613549.000000
176582158.000000,92567056.000000
176652432.000000,92556952.000000
176706770.000000,92578457.000000
176848251.000000,92677523.000000
176853233.000000,92679846.000000
176853238.000000,92679849.000000
177050775.000000,92771961.000000
177055757.000000,92774284.000000
177061065.000000,92775706.000000
177061067.000000,92775707.000000
177271598.000000,92832119.000000
177271600.000000,92832119.000000
177276913.000000,92833543.000000
177505000.000000,92853498.000000
177733087.000000,92833543.000000
177738400.000000,92832119.000000
177738402.000000,92832119.000000
177948933.000000,92775707.000000
177948935.000000,92775706.000000
177954243.000000,92774284.000000
177959225.000000,92771961.000000
178156762.000000,92679849.000000
178156767.000000,92679846.000000
178161749.000000,92677523.000000
178303230.000000,92578457.000000
178344789.000000,92549357.000000
178344792.000000,92549355.000000
178349300.000000,92546198.000000
178410093.000000,92485405.000000
178472405.000000,92451379.000000
178499188.000000,92448500.000000
181792797.000000,92448500.000000
181812506.000000,92450051.000000
181826404.000000,92452252.000000
181832991.000000,92451907.000000
181832996.000000,92451907.000000
181894694.000000,92448673.000000
181901288.000000,92448500.000000
181921824.000000,92448500.000000
181925096.000000,92448156.000000
181925098.000000,92448156.000000
181942256.000000,92446353.000000
181948830.000000,92445836.000000
182010522.000000,92442603.000000
182010526.000000,92442602.000000
182017117.000000,92442257.000000
182023498.000000,92440547.000000
182023500.000000,92440547.000000
182030705.000000,92438617.000000
182050139.000000,92435015.000000
182057568.000000,92434234.000000
182057577.000000,92434232.000000
182064142.000000,92433542.000000
182129211.000000,92412400.000000
182135513.000000,92410533.000000
182201584.000000,92392829.000000
182214122.000000,92386440.000000
182232388.000000,92378875.000000
182239486.000000,92376569.000000
182239488.000000,92376568.000000
182245770.000000,92374527.000000
182304999.000000,92340331.000000
182310793.000000,92337185.000000
182317760.000000,92333635.000000
182371744.000000,92306129.000000
182382681.000000,92297273.000000
182398977.000000,92286073.000000
182405438.000000,92282343.000000
182405442.000000,92282340.000000
182411158.000000,92279040.000000
182416064.000000,92274623.000000
182416069.000000,92274619.000000
182461983.000000,92233278.000000
182466998.000000,92228994.000000
182480391.000000,92218148.000000
182482955.000000,92216072.000000
182497470.000000,92201557.000000
182502255.000000,92197016.000000
182502981.000000,92196362.000000
195737966.000000,92196362.000000
195741400.000000,92231387.000000
195742001.000000,92243683.000000
195742001.000000,92494669.000000
195742371.000000,92501490.000000
195747895.000000,92552352.000000
195751521.000000,92567604.000000
195796676.000000,92688054.000000
195805214.000000,92703649.000000
195881715.000000,92805724.000000
195894276.000000,92818285.000000
195996351.000000,92894786.000000
196011946.000000,92903324.000000
196132394.000000,92948478.000000
196147649.000000,92952105.000000
196198514.000000,92957631.000000
196205328.000000,92958000.000000
196440965.000000,92958000.000000
196457629.000000,92959107.000000
196477044.000000,92961697.000000
196491040.000000,92961991.000000
196529186.000000,92958519.000000
196540606.000000,92958000.000000
197227885.000000,92958000.000000
197243124.000000,92953525.000000
197244329.000000,92952135.000000
197246000.000000,92944452.000000
197246000.000000,92939884.000000
197754000.000000,92939884.000000
197758475.000000,92955123.000000
197759865.000000,92956328.000000
197767548.000000,92957999.000000
198440957.000000,92957999.000000
198457622.000000,92959106.000000
198477044.000000,92961698.000000
198491040.000000,92961991.000000
198529195.000000,92958518.000000
198540615.000000,92957999.000000
198794669.000000,92957999.000000
198801490.000000,92957629.000000
198852352.000000,92952105.000000
198867604.000000,92948479.000000
198988054.000000,92903324.000000
199003649.000000,92894786.000000
199105724.000000,92818285.000000
199118285.000000,92805724.000000
199194786.000000,92703649.000000
199203324.000000,92688054.000000
199248478.000000,92567606.000000
199252105.000000,92552351.000000
199257631.000000,92501486.000000
199258000.000000,92494672.000000
199258000.000000,92262124.000000
199259226.000000,92244588.000000
199261948.000000,92225222.000000
199262554.000000,92217338.000000
199262741.000000,92203962.000000
199262354.000000,92196062.000000
199258785.000000,92164240.000000
199258000.000000,92150195.000000
199258000.000000,91772115.000000
199253525.000000,91756876.000000
199252135.000000,91755671.000000
199244452.000000,91754000.000000
199200658.000000,91754000.000000
199187728.000000,91757797.000000
199196841.000000,91821171.000000
199167348.000000,91885752.000000
199161218.000000,91892335.000000
198201601.000000,92851952.000000
198139289.000000,92885978.000000
198068474.000000,92880913.000000
198023411.000000,92851952.000000
198012811.000000,92841352.000000
197998870.000000,92833740.000000
197997034.000000,92833871.000000
197990418.000000,92838123.000000
197976589.000000,92851952.000000
197914277.000000,92885978.000000
197843462.000000,92880913.000000
197798399.000000,92851952.000000
197766812.000000,92820365.000000
197756723.000000,92814856.000000
197754000.000000,92822157.000000
197754000.000000,92939884.000000
197246000.000000,92939884.000000
197246000.000000,92825668.000000
197242763.000000,92814643.000000
197235672.000000,92817881.000000
197201601.000000,92851952.000000
197139289.000000,92885978.000000
197068474.000000,92880913.000000
197023411.000000,92851952.000000
197012811.000000,92841352.000000
196998870.000000,92833740.000000
196997034.000000,92833871.000000
196990418.000000,92838123.000000
196976589.000000,92851952.000000
196914277.000000,92885978.000000
196843462.000000,92880913.000000
196798399.000000,92851952.000000
196147579.000000,92201132.000000
196858751.000000,92201132.000000
196858882.000000,92202965.000000
196863133.000000,92209580.000000
196987188.000000,92333635.000000
197001132.000000,92341249.000000
197002965.000000,92341118.000000
197009580.000000,92336867.000000
197133635.000000,92212812.000000
197140013.000000,92201132.000000
197858751.000000,92201132.000000
197858882.000000,92202965.000000
197863133.000000,92209580.000000
197987188.000000,92333635.000000
198001132.000000,92341249.000000
198002965.000000,92341118.000000
198009580.000000,92336867.000000
198133635.000000,92212812.000000
198141249.000000,92198868.000000
198141118.000000,92197035.000000
198136867.000000,92190420.000000
198012812.000000,92066365.000000
197998868.000000,92058751.000000
197997035.000000,92058882.000000
197990420.000000,92063133.000000
197866365.000000,92187188.000000
197858751.000000,92201132.000000
197140013.000000,92201132.000000
197141249.000000,92198868.000000
197141118.000000,92197035.000000
197136867.000000,92190420.000000
197012812.000000,92066365.000000
196998868.000000,92058751.000000
196997035.000000,92058882.000000
196990420.000000,92063133.000000
196866365.000000,92187188.000000
196858751.000000,92201132.000000
196147579.000000,92201132.000000
195839065.000000,91892618.000000
195805039.000000,91830306.000000
195810104.000000,91759491.000000
195811134.000000,91757237.000000
196414643.000000,91757237.000000
196417881.000000,91764328.000000
196487188.000000,91833635.000000
196501132.000000,91841249.000000
196502965.000000,91841118.000000
196509580.000000,91836867.000000
196579635.000000,91766812.000000
196584863.000000,91757237.000000
198414643.000000,91757237.000000
198417881.000000,91764328.000000
198487188.000000,91833635.000000
198501132.000000,91841249.000000
198502965.000000,91841118.000000
198509580.000000,91836867.000000
198579635.000000,91766812.000000
198585144.000000,91756723.000000
198577843.000000,91754000.000000
198425668.000000,91754000.000000
198414643.000000,91757237.000000
196584863.000000,91757237.000000
196585144.000000,91756723.000000
196577843.000000,91754000.000000
196425668.000000,91754000.000000
196414643.000000,91757237.000000
195811134.000000,91757237.000000
195811192.000000,91757110.000000
195802853.000000,91754000.000000
195760116.000000,91754000.000000
195744877.000000,91758475.000000
195743672.000000,91759865.000000
195742001.000000,91767548.000000
195742001.000000,92144041.000000
195741007.000000,92159834.000000
195738162.000000,92182356.000000
195737966.000000,92196362.000000
182502981.000000,92196362.000000
182548171.000000,92155673.000000
182553080.000000,92151253.000000
182561354.000000,92139865.000000
182574195.000000,92124832.000000
183902665.000000,90796362.000000
195737966.000000,90796362.000000
195741399.000000,90831378.000000
195742000.000000,90843674.000000
195742000.000000,91227885.000000
195746475.000000,91243124.000000
195747865.000000,91244329.000000
195755548.000000,91246000.000000
195799342.000000,91246000.000000
195808615.000000,91243277.000000
196414856.000000,91243277.000000
196422157.000000,91246000.000000
196574332.000000,91246000.000000
196583606.000000,91243277.000000
198414856.000000,91243277.000000
198422157.000000,91246000.000000
198574332.000000,91246000.000000
198585357.000000,91242763.000000
198582119.000000,91235672.000000
198512812.000000,91166365.000000
198498868.000000,91158751.000000
198497035.000000,91158882.000000
198490420.000000,91163133.000000
198420365.000000,91233188.000000
198414856.000000,91243277.000000
196583606.000000,91243277.000000
196585357.000000,91242763.000000
196582119.000000,91235672.000000
196512812.000000,91166365.000000
196498868.000000,91158751.000000
196497035.000000,91158882.000000
196490420.000000,91163133.000000
196420365.000000,91233188.000000
196414856.000000,91243277.000000
195808615.000000,91243277.000000
195812272.000000,91242203.000000
195803159.000000,91178829.000000
195832652.000000,91114248.000000
195838782.000000,91107665.000000
196145315.000000,90801132.000000
196858751.000000,90801132.000000
196858882.000000,90802965.000000
196863133.000000,90809580.000000
196987188.000000,90933635.000000
197001132.000000,90941249.000000
197002965.000000,90941118.000000
197009580.000000,90936867.000000
197133635.000000,90812812.000000
197140013.000000,90801132.000000
197858751.000000,90801132.000000
197858882.000000,90802965.000000
197863133.000000,90809580.000000
197987188.000000,90933635.000000
198001132.000000,90941249.000000
198002965.000000,90941118.000000
198009580.000000,90936867.000000
198133635.000000,90812812.000000
198141249.000000,90798868.000000
198141118.000000,90797035.000000
198136867.000000,90790420.000000
198012812.000000,90666365.000000
197998868.000000,90658751.000000
197997035.000000,90658882.000000
197990420.000000,90663133.000000
197866365.000000,90787188.000000
197858751.000000,90801132.000000
197140013.000000,90801132.000000
197141249.000000,90798868.000000
197141118.000000,90797035.000000
197136867.000000,90790420.000000
197012812.000000,90666365.000000
196998868.000000,90658751.000000
196997035.000000,90658882.000000
196990420.000000,90663133.000000
196866365.000000,90787188.000000
196858751.000000,90801132.000000
196145315.000000,90801132.000000
196798399.000000,90148048.000000
196860711.000000,90114022.000000
196931526.000000,90119087.000000
196976589.000000,90148048.000000
196987189.000000,90158648.000000
197001130.000000,90166260.000000
197002966.000000,90166129.000000
197009582.000000,90161877.000000
197023411.000000,90148048.000000
197085723.000000,90114022.000000
197156538.000000,90119087.000000
197201601.000000,90148048.000000
197233188.000000,90179635.000000
197243277.000000,90185144.000000
197246000.000000,90177843.000000
197246000.000000,90174332.000000
197754000.000000,90174332.000000
197757237.000000,90185357.000000
197764328.000000,90182119.000000
197798399.000000,90148048.000000
197860711.000000,90114022.000000
197931526.000000,90119087.000000
197976589.000000,90148048.000000
197987189.000000,90158648.000000
198001130.000000,90166260.000000
198002966.000000,90166129.000000
198009582.000000,90161877.000000
198023411.000000,90148048.000000
198085723.000000,90114022.000000
198156538.000000,90119087.000000
198201601.000000,90148048.000000
199160935.000000,91107382.000000
199194961.000000,91169694.000000
199189896.000000,91240509.000000
199188808.000000,91242890.000000
199197147.000000,91246000.000000
199239884.000000,91246000.000000
199255123.000000,91241525.000000
199256328.000000,91240135.000000
199257999.000000,91232452.000000
199257999.000000,90862130.000000
199259225.000000,90844593.000000
199261948.000000,90825219.000000
199262554.000000,90817340.000000
199262741.000000,90803962.000000
199262354.000000,90796062.000000
199258784.000000,90764233.000000
199257999.000000,90750188.000000
199257999.000000,90505331.000000
199257629.000000,90498510.000000
199252105.000000,90447648.000000
199248479.000000,90432396.000000
199203324.000000,90311946.000000
199194786.000000,90296351.000000
199118285.000000,90194276.000000
199105724.000000,90181715.000000
199003649.000000,90105214.000000
198988054.000000,90096676.000000
198867606.000000,90051522.000000
198852351.000000,90047895.000000
198801486.000000,90042369.000000
198794672.000000,90042000.000000
198552875.000000,90042000.000000
198537957.000000,90041114.000000
198512318.000000,90038057.000000
198498320.000000,90037959.000000
198466437.000000,90041310.000000
198453267.000000,90042000.000000
197772115.000000,90042000.000000
197756876.000000,90046475.000000
197755671.000000,90047865.000000
197754000.000000,90055548.000000
197754000.000000,90174332.000000
197246000.000000,90174332.000000
197246000.000000,90060116.000000
197241525.000000,90044877.000000
197240135.000000,90043672.000000
197232452.000000,90042001.000000
196552883.000000,90042001.000000
196537964.000000,90041115.000000
196512318.000000,90038057.000000
196498321.000000,90037959.000000
196466430.000000,90041311.000000
196453260.000000,90042001.000000
196205331.000000,90042001.000000
196198510.000000,90042371.000000
196147648.000000,90047895.000000
196132396.000000,90051521.000000
196011946.000000,90096676.000000
195996351.000000,90105214.000000
195894276.000000,90181715.000000
195881715.000000,90194276.000000
195805214.000000,90296351.000000
195796676.000000,90311946.000000
195751522.000000,90432394.000000
195747895.000000,90447649.000000
195742369.000000,90498514.000000
195742000.000000,90505328.000000
195742000.000000,90744047.000000
195741007.000000,90759839.000000
195738161.000000,90782365.000000
195737966.000000,90796362.000000
183902665.000000,90796362.000000
184084832.000000,90614195.000000
184099865.000000,90601354.000000
184105913.000000,90596960.000000
184105914.000000,90596959.000000
184111253.000000,90593080.000000
184157016.000000,90542255.000000
184161557.000000,90537470.000000
184176072.000000,90522955.000000
184188994.000000,90506998.000000
184193278.000000,90501983.000000
184234619.000000,90456069.000000
184234623.000000,90456064.000000
184239040.000000,90451158.000000
184242340.000000,90445442.000000
184242343.000000,90445438.000000
184246073.000000,90438977.000000
184257273.000000,90422680.000000
184261975.000000,90416874.000000
184261976.000000,90416872.000000
184266129.000000,90411744.000000
184269243.000000,90405634.000000
184297188.000000,90350788.000000
184300336.000000,90344991.000000
184331224.000000,90291491.000000
184334527.000000,90285770.000000
184338875.000000,90272388.000000
184346438.000000,90254129.000000
184352830.000000,90241584.000000
184370537.000000,90175502.000000
184372409.000000,90169183.000000
184391501.000000,90110424.000000
184391501.000000,90110423.000000
184393542.000000,90104142.000000
184395014.000000,90090139.000000
184398615.000000,90070710.000000
184402257.000000,90057117.000000
184402815.000000,90046475.000000
184405836.000000,89988830.000000
184406353.000000,89982256.000000
184408156.000000,89965098.000000
184408156.000000,89965096.000000
184408500.000000,89961824.000000
184408500.000000,89941288.000000
184408673.000000,89934694.000000
184411907.000000,89872996.000000
184411907.000000,89872991.000000
184412252.000000,89866404.000000
184410051.000000,89852507.000000
184408500.000000,89832797.000000
184408500.000000,86259500.000000
184428502.000000,86191379.000000
184482158.000000,86144886.000000
184534500.000000,86133500.000000
193945831.000000,86133500.000000
193957014.000000,86134027.000000
193964507.000000,86135702.000000
193972433.000000,86135453.000000
193972434.000000,86135453.000000
194032584.000000,86133562.000000
194036543.000000,86133500.000000
194064454.000000,86133500.000000
194068389.000000,86133003.000000
194068454.000000,86132995.000000
194080291.000000,86132062.000000
194112549.000000,86131048.000000
194116568.000000,86130922.000000
194124487.000000,86130673.000000
194143941.000000,86125021.000000
194163298.000000,86121013.000000
194175528.000000,86119468.000000
194175529.000000,86119468.000000
194183395.000000,86118474.000000
194190766.000000,86115555.000000
194190768.000000,86115555.000000
194224510.000000,86102196.000000
194235740.000000,86098351.000000
194270581.000000,86088229.000000
194270582.000000,86088229.000000
194278191.000000,86086018.000000
194285010.000000,86081985.000000
194285015.000000,86081983.000000
194295626.000000,86075707.000000
194313374.000000,86067012.000000
194332215.000000,86059552.000000
194367985.000000,86033564.000000
194377905.000000,86027048.000000
194409133.000000,86008580.000000
194409136.000000,86008578.000000
194415960.000000,86004542.000000
194430281.000000,85990221.000000
194445315.000000,85977380.000000
194455292.000000,85970131.000000
194461705.000000,85965472.000000
194489896.000000,85931395.000000
194497886.000000,85922616.000000
199462798.000000,80957704.000000
199525110.000000,80923678.000000
199551893.000000,80920799.000000
199607786.000000,80920799.000000
199614238.000000,80919427.000000
199614243.000000,80919427.000000
199701186.000000,80900946.000000
199794587.000000,80881093.000000
199800618.000000,80878408.000000
199963021.000000,80806102.000000
199963023.000000,80806101.000000
199969051.000000,80803417.000000
200123552.000000,80691165.000000
200202477.000000,80603510.000000
200246920.000000,80554151.000000
200246921.000000,80554150.000000
200251339.000000,80549243.000000
200256381.000000,80540510.000000
200257845.000000,80539114.000000
200258523.000000,80538181.000000
200258694.000000,80538305.000000
200307763.000000,80491517.000000
200377477.000000,80478081.000000
Z" /> 
<path style="fill:#FFFFFF; fill-opacity:1.0; 
stroke:#FFFFFF; stroke-width:1.000000; stroke-opacity:1; 
stroke-linecap:round; stroke-linejoin:round;fill-rule:evenodd;"
d="M 177696121.000000,78031002.000000
177742614.000000,78084658.000000
177754000.000000,78137000.000000
177754000.000000,79583517.000000
177758064.000000,79597359.000000
177771478.000000,79599393.000000
177778184.000000,79598534.000000
177788262.000000,79596392.000000
177992255.000000,79535191.000000
178001842.000000,79531433.000000
178193095.000000,79437739.000000
178201945.000000,79432464.000000
178375328.000000,79308792.000000
178383200.000000,79302139.000000
178451560.000000,79234016.000000
178513931.000000,79200099.000000
178584738.000000,79205287.000000
178641499.000000,79247932.000000
178666194.000000,79314496.000000
178666500.000000,79323266.000000
178666500.000000,88006812.000000
178646498.000000,88074933.000000
178592842.000000,88121426.000000
178522568.000000,88131530.000000
178457988.000000,88102036.000000
178451405.000000,88095907.000000
178349300.000000,87993802.000000
178344792.000000,87990645.000000
178344789.000000,87990643.000000
178237012.000000,87915177.000000
178161749.000000,87862477.000000
178156767.000000,87860154.000000
178156762.000000,87860151.000000
177959225.000000,87768039.000000
177959224.000000,87768039.000000
177954243.000000,87765716.000000
177948935.000000,87764294.000000
177948933.000000,87764293.000000
177738402.000000,87707881.000000
177738400.000000,87707881.000000
177733087.000000,87706457.000000
177505000.000000,87686502.000000
177276913.000000,87706457.000000
177271600.000000,87707881.000000
177271598.000000,87707881.000000
177061067.000000,87764293.000000
177061065.000000,87764294.000000
177055757.000000,87765716.000000
177050776.000000,87768039.000000
177050775.000000,87768039.000000
176853238.000000,87860151.000000
176853233.000000,87860154.000000
176848251.000000,87862477.000000
176706770.000000,87961543.000000
176639497.000000,87984231.000000
176570637.000000,87966946.000000
176522052.000000,87915177.000000
176508500.000000,87858330.000000
176508500.000000,79475318.000000
176528502.000000,79407197.000000
176582158.000000,79360704.000000
176652432.000000,79350600.000000
176709507.000000,79375942.000000
176710200.000000,79374952.000000
176722881.000000,79383831.000000
176906756.000000,79491279.000000
176916042.000000,79495729.000000
177115001.000000,79571703.000000
177124899.000000,79574579.000000
177228250.000000,79595606.000000
177242299.000000,79594410.000000
177246000.000000,79584065.000000
177246000.000000,78137000.000000
177266002.000000,78068879.000000
177319658.000000,78022386.000000
177372000.000000,78011000.000000
177628000.000000,78011000.000000
Z" /> 
<path style="fill:#FFFFFF; fill-opacity:1.0; 
stroke:#FFFFFF; stroke-width:1.000000; stroke-opacity:1; 
stroke-linecap:round; stroke-linejoin:round;fill-rule:evenodd;"
d="M 197584121.000000,71528502.000000
197630614.000000,71582158.000000
197642000.000000,71634500.000000
197642000.000000,72202885.000000
197646475.000000,72218124.000000
197647865.000000,72219329.000000
197655548.000000,72221000.000000
199128000.000000,72221000.000000
199196121.000000,72241002.000000
199242614.000000,72294658.000000
199254000.000000,72347000.000000
199254000.000000,72603000.000000
199233998.000000,72671121.000000
199180342.000000,72717614.000000
199128000.000000,72729000.000000
197660116.000000,72729000.000000
197644877.000000,72733475.000000
197643672.000000,72734865.000000
197642001.000000,72742548.000000
197642001.000000,73369669.000000
197642371.000000,73376490.000000
197647895.000000,73427352.000000
197651521.000000,73442604.000000
197696676.000000,73563054.000000
197705214.000000,73578649.000000
197781715.000000,73680724.000000
197794276.000000,73693285.000000
197896351.000000,73769786.000000
197911946.000000,73778324.000000
198020827.000000,73819142.000000
198077591.000000,73861784.000000
198102291.000000,73928345.000000
198087083.000000,73997694.000000
198067691.000000,74024175.000000
197944200.000000,74153401.000000
197940629.000000,74157138.000000
197814743.000000,74341680.000000
197799003.000000,74375589.000000
197728449.000000,74527586.000000
197720688.000000,74544305.000000
197660989.000000,74759570.000000
197640491.000000,74951383.000000
197640244.000000,74953691.000000
197613116.000000,75019301.000000
197554824.000000,75059829.000000
197483874.000000,75062408.000000
197434647.000000,75037391.000000
197431401.000000,75034706.000000
197422616.000000,75026712.000000
196947122.000000,74551218.000000
196913096.000000,74488906.000000
196910907.000000,74475293.000000
196894232.000000,74316635.000000
196894232.000000,74316633.000000
196893542.000000,74310072.000000
196834527.000000,74128444.000000
196739040.000000,73963056.000000
196670329.000000,73886744.000000
196615675.000000,73826045.000000
196615674.000000,73826044.000000
196611253.000000,73821134.000000
196456752.000000,73708882.000000
196450724.000000,73706198.000000
196450722.000000,73706197.000000
196288319.000000,73633891.000000
196288318.000000,73633891.000000
196282288.000000,73631206.000000
196188888.000000,73611353.000000
196101944.000000,73592872.000000
196101939.000000,73592872.000000
196095487.000000,73591500.000000
195904513.000000,73591500.000000
195898061.000000,73592872.000000
195898056.000000,73592872.000000
195811112.000000,73611353.000000
195717712.000000,73631206.000000
195711682.000000,73633891.000000
195711681.000000,73633891.000000
195549278.000000,73706197.000000
195549276.000000,73706198.000000
195543248.000000,73708882.000000
195388747.000000,73821134.000000
195384326.000000,73826044.000000
195384325.000000,73826045.000000
195329672.000000,73886744.000000
195260960.000000,73963056.000000
195165473.000000,74128444.000000
195106458.000000,74310072.000000
195105768.000000,74316633.000000
195105768.000000,74316635.000000
195094775.000000,74421233.000000
195086496.000000,74500000.000000
195087186.000000,74506565.000000
195094453.000000,74575702.000000
195106458.000000,74689928.000000
195165473.000000,74871556.000000
195260960.000000,75036944.000000
195265378.000000,75041851.000000
195265379.000000,75041852.000000
195376883.000000,75165690.000000
195407601.000000,75229697.000000
195398836.000000,75300151.000000
195376883.000000,75334310.000000
195272493.000000,75450247.000000
195260960.000000,75463056.000000
195257659.000000,75468774.000000
195186011.000000,75592872.000000
195165473.000000,75628444.000000
195158057.000000,75651269.000000
195117982.000000,75709874.000000
195052585.000000,75737510.000000
194982629.000000,75725402.000000
194964158.000000,75714263.000000
194956752.000000,75708882.000000
194950724.000000,75706198.000000
194950722.000000,75706197.000000
194788319.000000,75633891.000000
194788318.000000,75633891.000000
194782288.000000,75631206.000000
194688888.000000,75611353.000000
194601944.000000,75592872.000000
194601939.000000,75592872.000000
194595487.000000,75591500.000000
194404513.000000,75591500.000000
194398061.000000,75592872.000000
194398056.000000,75592872.000000
194311113.000000,75611353.000000
194217712.000000,75631206.000000
194211682.000000,75633891.000000
194211681.000000,75633891.000000
194049278.000000,75706197.000000
194049276.000000,75706198.000000
194043248.000000,75708882.000000
194037907.000000,75712762.000000
194037906.000000,75712763.000000
194031565.000000,75717370.000000
193888747.000000,75821134.000000
193760960.000000,75963056.000000
193665473.000000,76128444.000000
193606458.000000,76310072.000000
193605768.000000,76316633.000000
193605768.000000,76316635.000000
193594946.000000,76419598.000000
193586496.000000,76500000.000000
193606458.000000,76689928.000000
193665473.000000,76871556.000000
193760960.000000,77036944.000000
193888747.000000,77178866.000000
194043248.000000,77291118.000000
194049276.000000,77293802.000000
194049278.000000,77293803.000000
194211681.000000,77366109.000000
194217712.000000,77368794.000000
194266697.000000,77379206.000000
194329170.000000,77412934.000000
194363492.000000,77475084.000000
194366500.000000,77502453.000000
194366500.000000,82297476.000000
194346498.000000,82365597.000000
194334142.000000,82381779.000000
194260960.000000,82463056.000000
194165473.000000,82628444.000000
194106458.000000,82810072.000000
194086496.000000,83000000.000000
194106458.000000,83189928.000000
194165473.000000,83371556.000000
194260960.000000,83536944.000000
194388747.000000,83678866.000000
194543248.000000,83791118.000000
194579422.000000,83807224.000000
194633517.000000,83853202.000000
194654167.000000,83921128.000000
194634816.000000,83989437.000000
194617268.000000,84011425.000000
193799098.000000,84829595.000000
193736786.000000,84863621.000000
193710003.000000,84866500.000000
184534500.000000,84866500.000000
184466379.000000,84846498.000000
184419886.000000,84792842.000000
184408500.000000,84740500.000000
184408500.000000,78656417.000000
184410051.000000,78636705.000000
184411220.000000,78629325.000000
184412252.000000,78622810.000000
184411356.000000,78605703.000000
184408673.000000,78554520.000000
184408500.000000,78547926.000000
184408500.000000,78527390.000000
184408156.000000,78524116.000000
184406353.000000,78506958.000000
184405836.000000,78500384.000000
184402603.000000,78438692.000000
184402602.000000,78438688.000000
184402257.000000,78432097.000000
184400547.000000,78425714.000000
184398617.000000,78418509.000000
184395015.000000,78399075.000000
184394234.000000,78391646.000000
184394232.000000,78391637.000000
184393542.000000,78385072.000000
184372400.000000,78320003.000000
184370531.000000,78313695.000000
184354537.000000,78254004.000000
184354537.000000,78254003.000000
184352829.000000,78247630.000000
184346440.000000,78235092.000000
184338875.000000,78216826.000000
184336569.000000,78209728.000000
184336568.000000,78209726.000000
184334527.000000,78203444.000000
184300331.000000,78144215.000000
184297185.000000,78138421.000000
184269791.000000,78084658.000000
184266129.000000,78077470.000000
184257273.000000,78066533.000000
184246073.000000,78050237.000000
184242343.000000,78043776.000000
184242340.000000,78043772.000000
184239040.000000,78038056.000000
184234623.000000,78033150.000000
184234619.000000,78033145.000000
184193278.000000,77987231.000000
184188994.000000,77982216.000000
184178148.000000,77968823.000000
184176072.000000,77966259.000000
184161557.000000,77951744.000000
184157016.000000,77946959.000000
184115673.000000,77901043.000000
184111253.000000,77896134.000000
184099865.000000,77887860.000000
184084832.000000,77875019.000000
181474981.000000,75265168.000000
181462140.000000,75250135.000000
181457746.000000,75244087.000000
181457745.000000,75244086.000000
181453866.000000,75238747.000000
181403041.000000,75192984.000000
181398256.000000,75188443.000000
181383741.000000,75173928.000000
181373568.000000,75165690.000000
181367784.000000,75161006.000000
181362769.000000,75156722.000000
181316855.000000,75115381.000000
181316850.000000,75115377.000000
181311944.000000,75110960.000000
181306228.000000,75107660.000000
181306224.000000,75107657.000000
181299763.000000,75103927.000000
181283466.000000,75092727.000000
181277660.000000,75088025.000000
181277658.000000,75088024.000000
181272530.000000,75083871.000000
181211577.000000,75052814.000000
181205782.000000,75049667.000000
181152279.000000,75018777.000000
181152278.000000,75018776.000000
181146556.000000,75015473.000000
181140274.000000,75013432.000000
181140272.000000,75013431.000000
181133174.000000,75011125.000000
181114907.000000,75003559.000000
181102370.000000,74997171.000000
181036299.000000,74979467.000000
181029997.000000,74977600.000000
180964928.000000,74956458.000000
180958363.000000,74955768.000000
180958354.000000,74955766.000000
180950925.000000,74954985.000000
180931491.000000,74951383.000000
180924286.000000,74949453.000000
180924284.000000,74949453.000000
180917903.000000,74947743.000000
180911312.000000,74947398.000000
180911308.000000,74947397.000000
180849616.000000,74944164.000000
180843042.000000,74943647.000000
180825884.000000,74941844.000000
180825882.000000,74941844.000000
180822610.000000,74941500.000000
180802074.000000,74941500.000000
180795480.000000,74941327.000000
180733782.000000,74938093.000000
180733777.000000,74938093.000000
180727190.000000,74937748.000000
180713292.000000,74939949.000000
180693583.000000,74941500.000000
178983884.000000,74941500.000000
178915763.000000,74921498.000000
178869270.000000,74867842.000000
178859174.000000,74826793.000000
178858500.000000,74826866.000000
178858492.000000,74826793.000000
178851745.000000,74764684.000000
178800615.000000,74628295.000000
178713261.000000,74511739.000000
178596705.000000,74424385.000000
178460316.000000,74373255.000000
178398134.000000,74366500.000000
176634500.000000,74366500.000000
176566379.000000,74346498.000000
176519886.000000,74292842.000000
176508500.000000,74240500.000000
176508500.000000,71634500.000000
176528502.000000,71566379.000000
176582158.000000,71519886.000000
176634500.000000,71508500.000000
197516000.000000,71508500.000000
Z" /> 
</g>
</g>
</g> 
</svg>
