<?xml version="1.0" standalone="no"?>
 <!DOCTYPE svg PUBLIC "-//W3C//DTD SVG 1.1//EN" 
 "http://www.w3.org/Graphics/SVG/1.1/DTD/svg11.dtd"> 
<svg
  xmlns:svg="http://www.w3.org/2000/svg"
  xmlns="http://www.w3.org/2000/svg"
  xmlns:xlink="http://www.w3.org/1999/xlink"
  version="1.1"
  width="29.700220cm" height="21.000720cm" viewBox="0 0 297002200 210007200">
<title>SVG Picture created as Rectangle Control Module V1.0.4-F_Paste.svg date 2022/09/04 17:29:39 </title>
  <desc>Picture generated by PCBNEW </desc>
<g style="fill:#000000; fill-opacity:1.000000;stroke:#000000; stroke-opacity:1.000000;
stroke-linecap:round; stroke-linejoin:round;"
 transform="translate(0 0) scale(1 1)">
</g>
<g style="fill:#000000; fill-opacity:0.0; 
stroke:#000000; stroke-width:0.000000; stroke-opacity:1; 
stroke-linecap:round; stroke-linejoin:round;">
</g>
<g style="fill:#000000; fill-opacity:1.0; 
stroke:#000000; stroke-width:21200.000000; stroke-opacity:1; 
stroke-linecap:round; stroke-linejoin:round;">
<rect x="170675000.000000" y="65650000.000000" width="35350000.000000" height="50800000.000000" rx="0.000000" />
</g>
<g style="fill:#FFFFFF; fill-opacity:1.0; 
stroke:#FFFFFF; stroke-width:21200.000000; stroke-opacity:1; 
stroke-linecap:round; stroke-linejoin:round;">
<g >
</g>
<g style="fill:#FFFFFF; fill-opacity:1.0; 
stroke:#FFFFFF; stroke-width:1.000000; stroke-opacity:1; 
stroke-linecap:round; stroke-linejoin:round;">
<path style="fill:#FFFFFF; fill-opacity:1.0; 
stroke:#FFFFFF; stroke-width:1.000000; stroke-opacity:1; 
stroke-linecap:round; stroke-linejoin:round;fill-rule:evenodd;"
d="M 190800000.000000,88400000.000000
192500000.000000,88400000.000000
192500000.000000,89400000.000000
190800000.000000,89400000.000000
Z" /> 
<path style="fill:#FFFFFF; fill-opacity:1.0; 
stroke:#FFFFFF; stroke-width:1.000000; stroke-opacity:1; 
stroke-linecap:round; stroke-linejoin:round;fill-rule:evenodd;"
d="M 184500000.000000,88400000.000000
186200000.000000,88400000.000000
186200000.000000,89400000.000000
184500000.000000,89400000.000000
Z" /> 
<path style="fill:#FFFFFF; fill-opacity:1.0; 
stroke:#FFFFFF; stroke-width:1.000000; stroke-opacity:1; 
stroke-linecap:round; stroke-linejoin:round;fill-rule:evenodd;"
d="M 190800000.000000,84600000.000000
192500000.000000,84600000.000000
192500000.000000,85600000.000000
190800000.000000,85600000.000000
Z" /> 
<path style="fill:#FFFFFF; fill-opacity:1.0; 
stroke:#FFFFFF; stroke-width:1.000000; stroke-opacity:1; 
stroke-linecap:round; stroke-linejoin:round;fill-rule:evenodd;"
d="M 184500000.000000,84600000.000000
186200000.000000,84600000.000000
186200000.000000,85600000.000000
184500000.000000,85600000.000000
Z" /> 
</g>
<g >
</g>
<g style="fill:#FFFFFF; fill-opacity:1.0; 
stroke:#FFFFFF; stroke-width:1.000000; stroke-opacity:1; 
stroke-linecap:round; stroke-linejoin:round;">
<path style="fill:#FFFFFF; fill-opacity:1.0; 
stroke:#FFFFFF; stroke-width:1.000000; stroke-opacity:1; 
stroke-linecap:round; stroke-linejoin:round;fill-rule:evenodd;"
d="M 200400000.000000,85737500.000000
200381921.000000,85828387.000000
200330438.000000,85905438.000000
200253387.000000,85956921.000000
200162500.000000,85975000.000000
199662500.000000,85975000.000000
199571613.000000,85956921.000000
199494562.000000,85905438.000000
199443079.000000,85828387.000000
199425000.000000,85737500.000000
199425000.000000,85262500.000000
199443079.000000,85171613.000000
199494562.000000,85094562.000000
199571613.000000,85043079.000000
199662500.000000,85025000.000000
200162500.000000,85025000.000000
200253387.000000,85043079.000000
200330438.000000,85094562.000000
200381921.000000,85171613.000000
200400000.000000,85262500.000000
Z" /> 
<path style="fill:#FFFFFF; fill-opacity:1.0; 
stroke:#FFFFFF; stroke-width:1.000000; stroke-opacity:1; 
stroke-linecap:round; stroke-linejoin:round;fill-rule:evenodd;"
d="M 198575000.000000,85737500.000000
198556921.000000,85828387.000000
198505438.000000,85905438.000000
198428387.000000,85956921.000000
198337500.000000,85975000.000000
197837500.000000,85975000.000000
197746613.000000,85956921.000000
197669562.000000,85905438.000000
197618079.000000,85828387.000000
197600000.000000,85737500.000000
197600000.000000,85262500.000000
197618079.000000,85171613.000000
197669562.000000,85094562.000000
197746613.000000,85043079.000000
197837500.000000,85025000.000000
198337500.000000,85025000.000000
198428387.000000,85043079.000000
198505438.000000,85094562.000000
198556921.000000,85171613.000000
198575000.000000,85262500.000000
Z" /> 
</g>
<g >
</g>
<g style="fill:#FFFFFF; fill-opacity:1.0; 
stroke:#FFFFFF; stroke-width:1.000000; stroke-opacity:1; 
stroke-linecap:round; stroke-linejoin:round;">
<path style="fill:#FFFFFF; fill-opacity:1.0; 
stroke:#FFFFFF; stroke-width:1.000000; stroke-opacity:1; 
stroke-linecap:round; stroke-linejoin:round;fill-rule:evenodd;"
d="M 196262500.000000,86987500.000000
196171613.000000,86969421.000000
196094562.000000,86917938.000000
196043079.000000,86840887.000000
196025000.000000,86750000.000000
196025000.000000,86250000.000000
196043079.000000,86159113.000000
196094562.000000,86082062.000000
196171613.000000,86030579.000000
196262500.000000,86012500.000000
196737500.000000,86012500.000000
196828387.000000,86030579.000000
196905438.000000,86082062.000000
196956921.000000,86159113.000000
196975000.000000,86250000.000000
196975000.000000,86750000.000000
196956921.000000,86840887.000000
196905438.000000,86917938.000000
196828387.000000,86969421.000000
196737500.000000,86987500.000000
Z" /> 
<path style="fill:#FFFFFF; fill-opacity:1.0; 
stroke:#FFFFFF; stroke-width:1.000000; stroke-opacity:1; 
stroke-linecap:round; stroke-linejoin:round;fill-rule:evenodd;"
d="M 196262500.000000,85162500.000000
196171613.000000,85144421.000000
196094562.000000,85092938.000000
196043079.000000,85015887.000000
196025000.000000,84925000.000000
196025000.000000,84425000.000000
196043079.000000,84334113.000000
196094562.000000,84257062.000000
196171613.000000,84205579.000000
196262500.000000,84187500.000000
196737500.000000,84187500.000000
196828387.000000,84205579.000000
196905438.000000,84257062.000000
196956921.000000,84334113.000000
196975000.000000,84425000.000000
196975000.000000,84925000.000000
196956921.000000,85015887.000000
196905438.000000,85092938.000000
196828387.000000,85144421.000000
196737500.000000,85162500.000000
Z" /> 
</g>
<g >
</g>
<g style="fill:#FFFFFF; fill-opacity:1.0; 
stroke:#FFFFFF; stroke-width:1.000000; stroke-opacity:1; 
stroke-linecap:round; stroke-linejoin:round;">
<path style="fill:#FFFFFF; fill-opacity:1.0; 
stroke:#FFFFFF; stroke-width:1.000000; stroke-opacity:1; 
stroke-linecap:round; stroke-linejoin:round;fill-rule:evenodd;"
d="M 197100000.000000,82262500.000000
197118079.000000,82171613.000000
197169562.000000,82094562.000000
197246613.000000,82043079.000000
197337500.000000,82025000.000000
197837500.000000,82025000.000000
197928387.000000,82043079.000000
198005438.000000,82094562.000000
198056921.000000,82171613.000000
198075000.000000,82262500.000000
198075000.000000,82737500.000000
198056921.000000,82828387.000000
198005438.000000,82905438.000000
197928387.000000,82956921.000000
197837500.000000,82975000.000000
197337500.000000,82975000.000000
197246613.000000,82956921.000000
197169562.000000,82905438.000000
197118079.000000,82828387.000000
197100000.000000,82737500.000000
Z" /> 
<path style="fill:#FFFFFF; fill-opacity:1.0; 
stroke:#FFFFFF; stroke-width:1.000000; stroke-opacity:1; 
stroke-linecap:round; stroke-linejoin:round;fill-rule:evenodd;"
d="M 198925000.000000,82262500.000000
198943079.000000,82171613.000000
198994562.000000,82094562.000000
199071613.000000,82043079.000000
199162500.000000,82025000.000000
199662500.000000,82025000.000000
199753387.000000,82043079.000000
199830438.000000,82094562.000000
199881921.000000,82171613.000000
199900000.000000,82262500.000000
199900000.000000,82737500.000000
199881921.000000,82828387.000000
199830438.000000,82905438.000000
199753387.000000,82956921.000000
199662500.000000,82975000.000000
199162500.000000,82975000.000000
199071613.000000,82956921.000000
198994562.000000,82905438.000000
198943079.000000,82828387.000000
198925000.000000,82737500.000000
Z" /> 
</g>
<g >
</g>
<g style="fill:#FFFFFF; fill-opacity:1.0; 
stroke:#FFFFFF; stroke-width:1.000000; stroke-opacity:1; 
stroke-linecap:round; stroke-linejoin:round;">
<path style="fill:#FFFFFF; fill-opacity:1.0; 
stroke:#FFFFFF; stroke-width:1.000000; stroke-opacity:1; 
stroke-linecap:round; stroke-linejoin:round;fill-rule:evenodd;"
d="M 187650000.000000,104520000.000000
187650000.000000,103320000.000000
188350000.000000,103320000.000000
188350000.000000,104520000.000000
Z" /> 
<path style="fill:#FFFFFF; fill-opacity:1.0; 
stroke:#FFFFFF; stroke-width:1.000000; stroke-opacity:1; 
stroke-linecap:round; stroke-linejoin:round;fill-rule:evenodd;"
d="M 189640000.000000,104520000.000000
189640000.000000,103320000.000000
190400000.000000,103320000.000000
190400000.000000,104520000.000000
Z" /> 
<path style="fill:#FFFFFF; fill-opacity:1.0; 
stroke:#FFFFFF; stroke-width:1.000000; stroke-opacity:1; 
stroke-linecap:round; stroke-linejoin:round;fill-rule:evenodd;"
d="M 190850000.000000,104520000.000000
190850000.000000,103320000.000000
191650000.000000,103320000.000000
191650000.000000,104520000.000000
Z" /> 
<path style="fill:#FFFFFF; fill-opacity:1.0; 
stroke:#FFFFFF; stroke-width:1.000000; stroke-opacity:1; 
stroke-linecap:round; stroke-linejoin:round;fill-rule:evenodd;"
d="M 188650000.000000,104520000.000000
188650000.000000,103320000.000000
189350000.000000,103320000.000000
189350000.000000,104520000.000000
Z" /> 
<path style="fill:#FFFFFF; fill-opacity:1.0; 
stroke:#FFFFFF; stroke-width:1.000000; stroke-opacity:1; 
stroke-linecap:round; stroke-linejoin:round;fill-rule:evenodd;"
d="M 186600000.000000,104520000.000000
186600000.000000,103320000.000000
187360000.000000,103320000.000000
187360000.000000,104520000.000000
Z" /> 
<path style="fill:#FFFFFF; fill-opacity:1.0; 
stroke:#FFFFFF; stroke-width:1.000000; stroke-opacity:1; 
stroke-linecap:round; stroke-linejoin:round;fill-rule:evenodd;"
d="M 185350000.000000,104520000.000000
185350000.000000,103320000.000000
186150000.000000,103320000.000000
186150000.000000,104520000.000000
Z" /> 
</g>
<g >
</g>
<g style="fill:#FFFFFF; fill-opacity:1.0; 
stroke:#FFFFFF; stroke-width:1.000000; stroke-opacity:1; 
stroke-linecap:round; stroke-linejoin:round;">
<path style="fill:#FFFFFF; fill-opacity:1.0; 
stroke:#FFFFFF; stroke-width:1.000000; stroke-opacity:1; 
stroke-linecap:round; stroke-linejoin:round;fill-rule:evenodd;"
d="M 179537500.000000,79850000.000000
179628387.000000,79868079.000000
179705438.000000,79919562.000000
179756921.000000,79996613.000000
179775000.000000,80087500.000000
179775000.000000,80587500.000000
179756921.000000,80678387.000000
179705438.000000,80755438.000000
179628387.000000,80806921.000000
179537500.000000,80825000.000000
179062500.000000,80825000.000000
178971613.000000,80806921.000000
178894562.000000,80755438.000000
178843079.000000,80678387.000000
178825000.000000,80587500.000000
178825000.000000,80087500.000000
178843079.000000,79996613.000000
178894562.000000,79919562.000000
178971613.000000,79868079.000000
179062500.000000,79850000.000000
Z" /> 
<path style="fill:#FFFFFF; fill-opacity:1.0; 
stroke:#FFFFFF; stroke-width:1.000000; stroke-opacity:1; 
stroke-linecap:round; stroke-linejoin:round;fill-rule:evenodd;"
d="M 179537500.000000,81675000.000000
179628387.000000,81693079.000000
179705438.000000,81744562.000000
179756921.000000,81821613.000000
179775000.000000,81912500.000000
179775000.000000,82412500.000000
179756921.000000,82503387.000000
179705438.000000,82580438.000000
179628387.000000,82631921.000000
179537500.000000,82650000.000000
179062500.000000,82650000.000000
178971613.000000,82631921.000000
178894562.000000,82580438.000000
178843079.000000,82503387.000000
178825000.000000,82412500.000000
178825000.000000,81912500.000000
178843079.000000,81821613.000000
178894562.000000,81744562.000000
178971613.000000,81693079.000000
179062500.000000,81675000.000000
Z" /> 
</g>
<g >
</g>
<g style="fill:#FFFFFF; fill-opacity:1.0; 
stroke:#FFFFFF; stroke-width:1.000000; stroke-opacity:1; 
stroke-linecap:round; stroke-linejoin:round;">
<path style="fill:#FFFFFF; fill-opacity:1.0; 
stroke:#FFFFFF; stroke-width:1.000000; stroke-opacity:1; 
stroke-linecap:round; stroke-linejoin:round;fill-rule:evenodd;"
d="M 194100000.000000,78262500.000000
194118079.000000,78171613.000000
194169562.000000,78094562.000000
194246613.000000,78043079.000000
194337500.000000,78025000.000000
194837500.000000,78025000.000000
194928387.000000,78043079.000000
195005438.000000,78094562.000000
195056921.000000,78171613.000000
195075000.000000,78262500.000000
195075000.000000,78737500.000000
195056921.000000,78828387.000000
195005438.000000,78905438.000000
194928387.000000,78956921.000000
194837500.000000,78975000.000000
194337500.000000,78975000.000000
194246613.000000,78956921.000000
194169562.000000,78905438.000000
194118079.000000,78828387.000000
194100000.000000,78737500.000000
Z" /> 
<path style="fill:#FFFFFF; fill-opacity:1.0; 
stroke:#FFFFFF; stroke-width:1.000000; stroke-opacity:1; 
stroke-linecap:round; stroke-linejoin:round;fill-rule:evenodd;"
d="M 195925000.000000,78262500.000000
195943079.000000,78171613.000000
195994562.000000,78094562.000000
196071613.000000,78043079.000000
196162500.000000,78025000.000000
196662500.000000,78025000.000000
196753387.000000,78043079.000000
196830438.000000,78094562.000000
196881921.000000,78171613.000000
196900000.000000,78262500.000000
196900000.000000,78737500.000000
196881921.000000,78828387.000000
196830438.000000,78905438.000000
196753387.000000,78956921.000000
196662500.000000,78975000.000000
196162500.000000,78975000.000000
196071613.000000,78956921.000000
195994562.000000,78905438.000000
195943079.000000,78828387.000000
195925000.000000,78737500.000000
Z" /> 
</g>
<g >
</g>
<g style="fill:#FFFFFF; fill-opacity:1.0; 
stroke:#FFFFFF; stroke-width:1.000000; stroke-opacity:1; 
stroke-linecap:round; stroke-linejoin:round;">
<path style="fill:#FFFFFF; fill-opacity:1.0; 
stroke:#FFFFFF; stroke-width:1.000000; stroke-opacity:1; 
stroke-linecap:round; stroke-linejoin:round;fill-rule:evenodd;"
d="M 190025000.000000,99737500.000000
190006921.000000,99828387.000000
189955438.000000,99905438.000000
189878387.000000,99956921.000000
189787500.000000,99975000.000000
189212500.000000,99975000.000000
189121613.000000,99956921.000000
189044562.000000,99905438.000000
188993079.000000,99828387.000000
188975000.000000,99737500.000000
188975000.000000,99262500.000000
188993079.000000,99171613.000000
189044562.000000,99094562.000000
189121613.000000,99043079.000000
189212500.000000,99025000.000000
189787500.000000,99025000.000000
189878387.000000,99043079.000000
189955438.000000,99094562.000000
190006921.000000,99171613.000000
190025000.000000,99262500.000000
Z" /> 
<path style="fill:#FFFFFF; fill-opacity:1.0; 
stroke:#FFFFFF; stroke-width:1.000000; stroke-opacity:1; 
stroke-linecap:round; stroke-linejoin:round;fill-rule:evenodd;"
d="M 188275000.000000,99737500.000000
188256921.000000,99828387.000000
188205438.000000,99905438.000000
188128387.000000,99956921.000000
188037500.000000,99975000.000000
187462500.000000,99975000.000000
187371613.000000,99956921.000000
187294562.000000,99905438.000000
187243079.000000,99828387.000000
187225000.000000,99737500.000000
187225000.000000,99262500.000000
187243079.000000,99171613.000000
187294562.000000,99094562.000000
187371613.000000,99043079.000000
187462500.000000,99025000.000000
188037500.000000,99025000.000000
188128387.000000,99043079.000000
188205438.000000,99094562.000000
188256921.000000,99171613.000000
188275000.000000,99262500.000000
Z" /> 
</g>
<g >
</g>
<g style="fill:#FFFFFF; fill-opacity:1.0; 
stroke:#FFFFFF; stroke-width:1.000000; stroke-opacity:1; 
stroke-linecap:round; stroke-linejoin:round;">
<path style="fill:#FFFFFF; fill-opacity:1.0; 
stroke:#FFFFFF; stroke-width:1.000000; stroke-opacity:1; 
stroke-linecap:round; stroke-linejoin:round;fill-rule:evenodd;"
d="M 189900000.000000,93737500.000000
189881921.000000,93828387.000000
189830438.000000,93905438.000000
189753387.000000,93956921.000000
189662500.000000,93975000.000000
189087500.000000,93975000.000000
188996613.000000,93956921.000000
188919562.000000,93905438.000000
188868079.000000,93828387.000000
188850000.000000,93737500.000000
188850000.000000,93262500.000000
188868079.000000,93171613.000000
188919562.000000,93094562.000000
188996613.000000,93043079.000000
189087500.000000,93025000.000000
189662500.000000,93025000.000000
189753387.000000,93043079.000000
189830438.000000,93094562.000000
189881921.000000,93171613.000000
189900000.000000,93262500.000000
Z" /> 
<path style="fill:#FFFFFF; fill-opacity:1.0; 
stroke:#FFFFFF; stroke-width:1.000000; stroke-opacity:1; 
stroke-linecap:round; stroke-linejoin:round;fill-rule:evenodd;"
d="M 188150000.000000,93737500.000000
188131921.000000,93828387.000000
188080438.000000,93905438.000000
188003387.000000,93956921.000000
187912500.000000,93975000.000000
187337500.000000,93975000.000000
187246613.000000,93956921.000000
187169562.000000,93905438.000000
187118079.000000,93828387.000000
187100000.000000,93737500.000000
187100000.000000,93262500.000000
187118079.000000,93171613.000000
187169562.000000,93094562.000000
187246613.000000,93043079.000000
187337500.000000,93025000.000000
187912500.000000,93025000.000000
188003387.000000,93043079.000000
188080438.000000,93094562.000000
188131921.000000,93171613.000000
188150000.000000,93262500.000000
Z" /> 
</g>
<g >
</g>
<g >
</g>
<g style="fill:#FFFFFF; fill-opacity:1.0; 
stroke:#FFFFFF; stroke-width:1.000000; stroke-opacity:1; 
stroke-linecap:round; stroke-linejoin:round;">
<path style="fill:#FFFFFF; fill-opacity:1.0; 
stroke:#FFFFFF; stroke-width:1.000000; stroke-opacity:1; 
stroke-linecap:round; stroke-linejoin:round;fill-rule:evenodd;"
d="M 185900000.000000,99737500.000000
185881921.000000,99828387.000000
185830438.000000,99905438.000000
185753387.000000,99956921.000000
185662500.000000,99975000.000000
185162500.000000,99975000.000000
185071613.000000,99956921.000000
184994562.000000,99905438.000000
184943079.000000,99828387.000000
184925000.000000,99737500.000000
184925000.000000,99262500.000000
184943079.000000,99171613.000000
184994562.000000,99094562.000000
185071613.000000,99043079.000000
185162500.000000,99025000.000000
185662500.000000,99025000.000000
185753387.000000,99043079.000000
185830438.000000,99094562.000000
185881921.000000,99171613.000000
185900000.000000,99262500.000000
Z" /> 
<path style="fill:#FFFFFF; fill-opacity:1.0; 
stroke:#FFFFFF; stroke-width:1.000000; stroke-opacity:1; 
stroke-linecap:round; stroke-linejoin:round;fill-rule:evenodd;"
d="M 184075000.000000,99737500.000000
184056921.000000,99828387.000000
184005438.000000,99905438.000000
183928387.000000,99956921.000000
183837500.000000,99975000.000000
183337500.000000,99975000.000000
183246613.000000,99956921.000000
183169562.000000,99905438.000000
183118079.000000,99828387.000000
183100000.000000,99737500.000000
183100000.000000,99262500.000000
183118079.000000,99171613.000000
183169562.000000,99094562.000000
183246613.000000,99043079.000000
183337500.000000,99025000.000000
183837500.000000,99025000.000000
183928387.000000,99043079.000000
184005438.000000,99094562.000000
184056921.000000,99171613.000000
184075000.000000,99262500.000000
Z" /> 
</g>
<g >
</g>
<g style="fill:#FFFFFF; fill-opacity:1.0; 
stroke:#FFFFFF; stroke-width:1.000000; stroke-opacity:1; 
stroke-linecap:round; stroke-linejoin:round;">
<path style="fill:#FFFFFF; fill-opacity:1.0; 
stroke:#FFFFFF; stroke-width:1.000000; stroke-opacity:1; 
stroke-linecap:round; stroke-linejoin:round;fill-rule:evenodd;"
d="M 191225000.000000,72500000.000000
191225000.000000,72050000.000000
192975000.000000,72050000.000000
192975000.000000,72500000.000000
Z" /> 
<path style="fill:#FFFFFF; fill-opacity:1.0; 
stroke:#FFFFFF; stroke-width:1.000000; stroke-opacity:1; 
stroke-linecap:round; stroke-linejoin:round;fill-rule:evenodd;"
d="M 191225000.000000,73150000.000000
191225000.000000,72700000.000000
192975000.000000,72700000.000000
192975000.000000,73150000.000000
Z" /> 
<path style="fill:#FFFFFF; fill-opacity:1.0; 
stroke:#FFFFFF; stroke-width:1.000000; stroke-opacity:1; 
stroke-linecap:round; stroke-linejoin:round;fill-rule:evenodd;"
d="M 191225000.000000,73800000.000000
191225000.000000,73350000.000000
192975000.000000,73350000.000000
192975000.000000,73800000.000000
Z" /> 
<path style="fill:#FFFFFF; fill-opacity:1.0; 
stroke:#FFFFFF; stroke-width:1.000000; stroke-opacity:1; 
stroke-linecap:round; stroke-linejoin:round;fill-rule:evenodd;"
d="M 191225000.000000,74450000.000000
191225000.000000,74000000.000000
192975000.000000,74000000.000000
192975000.000000,74450000.000000
Z" /> 
<path style="fill:#FFFFFF; fill-opacity:1.0; 
stroke:#FFFFFF; stroke-width:1.000000; stroke-opacity:1; 
stroke-linecap:round; stroke-linejoin:round;fill-rule:evenodd;"
d="M 191225000.000000,75100000.000000
191225000.000000,74650000.000000
192975000.000000,74650000.000000
192975000.000000,75100000.000000
Z" /> 
<path style="fill:#FFFFFF; fill-opacity:1.0; 
stroke:#FFFFFF; stroke-width:1.000000; stroke-opacity:1; 
stroke-linecap:round; stroke-linejoin:round;fill-rule:evenodd;"
d="M 191225000.000000,75750000.000000
191225000.000000,75300000.000000
192975000.000000,75300000.000000
192975000.000000,75750000.000000
Z" /> 
<path style="fill:#FFFFFF; fill-opacity:1.0; 
stroke:#FFFFFF; stroke-width:1.000000; stroke-opacity:1; 
stroke-linecap:round; stroke-linejoin:round;fill-rule:evenodd;"
d="M 191225000.000000,76400000.000000
191225000.000000,75950000.000000
192975000.000000,75950000.000000
192975000.000000,76400000.000000
Z" /> 
<path style="fill:#FFFFFF; fill-opacity:1.0; 
stroke:#FFFFFF; stroke-width:1.000000; stroke-opacity:1; 
stroke-linecap:round; stroke-linejoin:round;fill-rule:evenodd;"
d="M 191225000.000000,77050000.000000
191225000.000000,76600000.000000
192975000.000000,76600000.000000
192975000.000000,77050000.000000
Z" /> 
<path style="fill:#FFFFFF; fill-opacity:1.0; 
stroke:#FFFFFF; stroke-width:1.000000; stroke-opacity:1; 
stroke-linecap:round; stroke-linejoin:round;fill-rule:evenodd;"
d="M 191225000.000000,77700000.000000
191225000.000000,77250000.000000
192975000.000000,77250000.000000
192975000.000000,77700000.000000
Z" /> 
<path style="fill:#FFFFFF; fill-opacity:1.0; 
stroke:#FFFFFF; stroke-width:1.000000; stroke-opacity:1; 
stroke-linecap:round; stroke-linejoin:round;fill-rule:evenodd;"
d="M 191225000.000000,78350000.000000
191225000.000000,77900000.000000
192975000.000000,77900000.000000
192975000.000000,78350000.000000
Z" /> 
<path style="fill:#FFFFFF; fill-opacity:1.0; 
stroke:#FFFFFF; stroke-width:1.000000; stroke-opacity:1; 
stroke-linecap:round; stroke-linejoin:round;fill-rule:evenodd;"
d="M 191225000.000000,79000000.000000
191225000.000000,78550000.000000
192975000.000000,78550000.000000
192975000.000000,79000000.000000
Z" /> 
<path style="fill:#FFFFFF; fill-opacity:1.0; 
stroke:#FFFFFF; stroke-width:1.000000; stroke-opacity:1; 
stroke-linecap:round; stroke-linejoin:round;fill-rule:evenodd;"
d="M 191225000.000000,79650000.000000
191225000.000000,79200000.000000
192975000.000000,79200000.000000
192975000.000000,79650000.000000
Z" /> 
<path style="fill:#FFFFFF; fill-opacity:1.0; 
stroke:#FFFFFF; stroke-width:1.000000; stroke-opacity:1; 
stroke-linecap:round; stroke-linejoin:round;fill-rule:evenodd;"
d="M 191225000.000000,80300000.000000
191225000.000000,79850000.000000
192975000.000000,79850000.000000
192975000.000000,80300000.000000
Z" /> 
<path style="fill:#FFFFFF; fill-opacity:1.0; 
stroke:#FFFFFF; stroke-width:1.000000; stroke-opacity:1; 
stroke-linecap:round; stroke-linejoin:round;fill-rule:evenodd;"
d="M 191225000.000000,80950000.000000
191225000.000000,80500000.000000
192975000.000000,80500000.000000
192975000.000000,80950000.000000
Z" /> 
<path style="fill:#FFFFFF; fill-opacity:1.0; 
stroke:#FFFFFF; stroke-width:1.000000; stroke-opacity:1; 
stroke-linecap:round; stroke-linejoin:round;fill-rule:evenodd;"
d="M 184025000.000000,80950000.000000
184025000.000000,80500000.000000
185775000.000000,80500000.000000
185775000.000000,80950000.000000
Z" /> 
<path style="fill:#FFFFFF; fill-opacity:1.0; 
stroke:#FFFFFF; stroke-width:1.000000; stroke-opacity:1; 
stroke-linecap:round; stroke-linejoin:round;fill-rule:evenodd;"
d="M 184025000.000000,80300000.000000
184025000.000000,79850000.000000
185775000.000000,79850000.000000
185775000.000000,80300000.000000
Z" /> 
<path style="fill:#FFFFFF; fill-opacity:1.0; 
stroke:#FFFFFF; stroke-width:1.000000; stroke-opacity:1; 
stroke-linecap:round; stroke-linejoin:round;fill-rule:evenodd;"
d="M 184025000.000000,79650000.000000
184025000.000000,79200000.000000
185775000.000000,79200000.000000
185775000.000000,79650000.000000
Z" /> 
<path style="fill:#FFFFFF; fill-opacity:1.0; 
stroke:#FFFFFF; stroke-width:1.000000; stroke-opacity:1; 
stroke-linecap:round; stroke-linejoin:round;fill-rule:evenodd;"
d="M 184025000.000000,79000000.000000
184025000.000000,78550000.000000
185775000.000000,78550000.000000
185775000.000000,79000000.000000
Z" /> 
<path style="fill:#FFFFFF; fill-opacity:1.0; 
stroke:#FFFFFF; stroke-width:1.000000; stroke-opacity:1; 
stroke-linecap:round; stroke-linejoin:round;fill-rule:evenodd;"
d="M 184025000.000000,78350000.000000
184025000.000000,77900000.000000
185775000.000000,77900000.000000
185775000.000000,78350000.000000
Z" /> 
<path style="fill:#FFFFFF; fill-opacity:1.0; 
stroke:#FFFFFF; stroke-width:1.000000; stroke-opacity:1; 
stroke-linecap:round; stroke-linejoin:round;fill-rule:evenodd;"
d="M 184025000.000000,77700000.000000
184025000.000000,77250000.000000
185775000.000000,77250000.000000
185775000.000000,77700000.000000
Z" /> 
<path style="fill:#FFFFFF; fill-opacity:1.0; 
stroke:#FFFFFF; stroke-width:1.000000; stroke-opacity:1; 
stroke-linecap:round; stroke-linejoin:round;fill-rule:evenodd;"
d="M 184025000.000000,77050000.000000
184025000.000000,76600000.000000
185775000.000000,76600000.000000
185775000.000000,77050000.000000
Z" /> 
<path style="fill:#FFFFFF; fill-opacity:1.0; 
stroke:#FFFFFF; stroke-width:1.000000; stroke-opacity:1; 
stroke-linecap:round; stroke-linejoin:round;fill-rule:evenodd;"
d="M 184025000.000000,76400000.000000
184025000.000000,75950000.000000
185775000.000000,75950000.000000
185775000.000000,76400000.000000
Z" /> 
<path style="fill:#FFFFFF; fill-opacity:1.0; 
stroke:#FFFFFF; stroke-width:1.000000; stroke-opacity:1; 
stroke-linecap:round; stroke-linejoin:round;fill-rule:evenodd;"
d="M 184025000.000000,75750000.000000
184025000.000000,75300000.000000
185775000.000000,75300000.000000
185775000.000000,75750000.000000
Z" /> 
<path style="fill:#FFFFFF; fill-opacity:1.0; 
stroke:#FFFFFF; stroke-width:1.000000; stroke-opacity:1; 
stroke-linecap:round; stroke-linejoin:round;fill-rule:evenodd;"
d="M 184025000.000000,75100000.000000
184025000.000000,74650000.000000
185775000.000000,74650000.000000
185775000.000000,75100000.000000
Z" /> 
<path style="fill:#FFFFFF; fill-opacity:1.0; 
stroke:#FFFFFF; stroke-width:1.000000; stroke-opacity:1; 
stroke-linecap:round; stroke-linejoin:round;fill-rule:evenodd;"
d="M 184025000.000000,74450000.000000
184025000.000000,74000000.000000
185775000.000000,74000000.000000
185775000.000000,74450000.000000
Z" /> 
<path style="fill:#FFFFFF; fill-opacity:1.0; 
stroke:#FFFFFF; stroke-width:1.000000; stroke-opacity:1; 
stroke-linecap:round; stroke-linejoin:round;fill-rule:evenodd;"
d="M 184025000.000000,73800000.000000
184025000.000000,73350000.000000
185775000.000000,73350000.000000
185775000.000000,73800000.000000
Z" /> 
<path style="fill:#FFFFFF; fill-opacity:1.0; 
stroke:#FFFFFF; stroke-width:1.000000; stroke-opacity:1; 
stroke-linecap:round; stroke-linejoin:round;fill-rule:evenodd;"
d="M 184025000.000000,73150000.000000
184025000.000000,72700000.000000
185775000.000000,72700000.000000
185775000.000000,73150000.000000
Z" /> 
<path style="fill:#FFFFFF; fill-opacity:1.0; 
stroke:#FFFFFF; stroke-width:1.000000; stroke-opacity:1; 
stroke-linecap:round; stroke-linejoin:round;fill-rule:evenodd;"
d="M 184025000.000000,72500000.000000
184025000.000000,72050000.000000
185775000.000000,72050000.000000
185775000.000000,72500000.000000
Z" /> 
</g>
<g >
</g>
<g >
</g>
<g style="fill:#FFFFFF; fill-opacity:1.0; 
stroke:#FFFFFF; stroke-width:1.000000; stroke-opacity:1; 
stroke-linecap:round; stroke-linejoin:round;">
<path style="fill:#FFFFFF; fill-opacity:1.0; 
stroke:#FFFFFF; stroke-width:1.000000; stroke-opacity:1; 
stroke-linecap:round; stroke-linejoin:round;fill-rule:evenodd;"
d="M 197880000.000000,92655000.000000
197784329.000000,92635970.000000
197703223.000000,92581777.000000
197649030.000000,92500671.000000
197630000.000000,92405000.000000
197630000.000000,91855000.000000
197649030.000000,91759329.000000
197703223.000000,91678223.000000
197784329.000000,91624030.000000
197880000.000000,91605000.000000
198720000.000000,91605000.000000
198815671.000000,91624030.000000
198896777.000000,91678223.000000
198950970.000000,91759329.000000
198970000.000000,91855000.000000
198970000.000000,92405000.000000
198950970.000000,92500671.000000
198896777.000000,92581777.000000
198815671.000000,92635970.000000
198720000.000000,92655000.000000
Z" /> 
<path style="fill:#FFFFFF; fill-opacity:1.0; 
stroke:#FFFFFF; stroke-width:1.000000; stroke-opacity:1; 
stroke-linecap:round; stroke-linejoin:round;fill-rule:evenodd;"
d="M 197880000.000000,91395000.000000
197784329.000000,91375970.000000
197703223.000000,91321777.000000
197649030.000000,91240671.000000
197630000.000000,91145000.000000
197630000.000000,90595000.000000
197649030.000000,90499329.000000
197703223.000000,90418223.000000
197784329.000000,90364030.000000
197880000.000000,90345000.000000
198720000.000000,90345000.000000
198815671.000000,90364030.000000
198896777.000000,90418223.000000
198950970.000000,90499329.000000
198970000.000000,90595000.000000
198970000.000000,91145000.000000
198950970.000000,91240671.000000
198896777.000000,91321777.000000
198815671.000000,91375970.000000
198720000.000000,91395000.000000
Z" /> 
<path style="fill:#FFFFFF; fill-opacity:1.0; 
stroke:#FFFFFF; stroke-width:1.000000; stroke-opacity:1; 
stroke-linecap:round; stroke-linejoin:round;fill-rule:evenodd;"
d="M 196280000.000000,91395000.000000
196184329.000000,91375970.000000
196103223.000000,91321777.000000
196049030.000000,91240671.000000
196030000.000000,91145000.000000
196030000.000000,90595000.000000
196049030.000000,90499329.000000
196103223.000000,90418223.000000
196184329.000000,90364030.000000
196280000.000000,90345000.000000
197120000.000000,90345000.000000
197215671.000000,90364030.000000
197296777.000000,90418223.000000
197350970.000000,90499329.000000
197370000.000000,90595000.000000
197370000.000000,91145000.000000
197350970.000000,91240671.000000
197296777.000000,91321777.000000
197215671.000000,91375970.000000
197120000.000000,91395000.000000
Z" /> 
<path style="fill:#FFFFFF; fill-opacity:1.0; 
stroke:#FFFFFF; stroke-width:1.000000; stroke-opacity:1; 
stroke-linecap:round; stroke-linejoin:round;fill-rule:evenodd;"
d="M 196280000.000000,92655000.000000
196184329.000000,92635970.000000
196103223.000000,92581777.000000
196049030.000000,92500671.000000
196030000.000000,92405000.000000
196030000.000000,91855000.000000
196049030.000000,91759329.000000
196103223.000000,91678223.000000
196184329.000000,91624030.000000
196280000.000000,91605000.000000
197120000.000000,91605000.000000
197215671.000000,91624030.000000
197296777.000000,91678223.000000
197350970.000000,91759329.000000
197370000.000000,91855000.000000
197370000.000000,92405000.000000
197350970.000000,92500671.000000
197296777.000000,92581777.000000
197215671.000000,92635970.000000
197120000.000000,92655000.000000
Z" /> 
<path style="fill:#FFFFFF; fill-opacity:1.0; 
stroke:#FFFFFF; stroke-width:1.000000; stroke-opacity:1; 
stroke-linecap:round; stroke-linejoin:round;fill-rule:evenodd;"
d="M 195445000.000000,94950000.000000
195387597.000000,94938582.000000
195338934.000000,94906066.000000
195306418.000000,94857403.000000
195295000.000000,94800000.000000
195295000.000000,93475000.000000
195306418.000000,93417597.000000
195338934.000000,93368934.000000
195387597.000000,93336418.000000
195445000.000000,93325000.000000
195745000.000000,93325000.000000
195802403.000000,93336418.000000
195851066.000000,93368934.000000
195883582.000000,93417597.000000
195895000.000000,93475000.000000
195895000.000000,94800000.000000
195883582.000000,94857403.000000
195851066.000000,94906066.000000
195802403.000000,94938582.000000
195745000.000000,94950000.000000
Z" /> 
<path style="fill:#FFFFFF; fill-opacity:1.0; 
stroke:#FFFFFF; stroke-width:1.000000; stroke-opacity:1; 
stroke-linecap:round; stroke-linejoin:round;fill-rule:evenodd;"
d="M 196715000.000000,94950000.000000
196657597.000000,94938582.000000
196608934.000000,94906066.000000
196576418.000000,94857403.000000
196565000.000000,94800000.000000
196565000.000000,93475000.000000
196576418.000000,93417597.000000
196608934.000000,93368934.000000
196657597.000000,93336418.000000
196715000.000000,93325000.000000
197015000.000000,93325000.000000
197072403.000000,93336418.000000
197121066.000000,93368934.000000
197153582.000000,93417597.000000
197165000.000000,93475000.000000
197165000.000000,94800000.000000
197153582.000000,94857403.000000
197121066.000000,94906066.000000
197072403.000000,94938582.000000
197015000.000000,94950000.000000
Z" /> 
<path style="fill:#FFFFFF; fill-opacity:1.0; 
stroke:#FFFFFF; stroke-width:1.000000; stroke-opacity:1; 
stroke-linecap:round; stroke-linejoin:round;fill-rule:evenodd;"
d="M 197985000.000000,94950000.000000
197927597.000000,94938582.000000
197878934.000000,94906066.000000
197846418.000000,94857403.000000
197835000.000000,94800000.000000
197835000.000000,93475000.000000
197846418.000000,93417597.000000
197878934.000000,93368934.000000
197927597.000000,93336418.000000
197985000.000000,93325000.000000
198285000.000000,93325000.000000
198342403.000000,93336418.000000
198391066.000000,93368934.000000
198423582.000000,93417597.000000
198435000.000000,93475000.000000
198435000.000000,94800000.000000
198423582.000000,94857403.000000
198391066.000000,94906066.000000
198342403.000000,94938582.000000
198285000.000000,94950000.000000
Z" /> 
<path style="fill:#FFFFFF; fill-opacity:1.0; 
stroke:#FFFFFF; stroke-width:1.000000; stroke-opacity:1; 
stroke-linecap:round; stroke-linejoin:round;fill-rule:evenodd;"
d="M 199255000.000000,94950000.000000
199197597.000000,94938582.000000
199148934.000000,94906066.000000
199116418.000000,94857403.000000
199105000.000000,94800000.000000
199105000.000000,93475000.000000
199116418.000000,93417597.000000
199148934.000000,93368934.000000
199197597.000000,93336418.000000
199255000.000000,93325000.000000
199555000.000000,93325000.000000
199612403.000000,93336418.000000
199661066.000000,93368934.000000
199693582.000000,93417597.000000
199705000.000000,93475000.000000
199705000.000000,94800000.000000
199693582.000000,94857403.000000
199661066.000000,94906066.000000
199612403.000000,94938582.000000
199555000.000000,94950000.000000
Z" /> 
<path style="fill:#FFFFFF; fill-opacity:1.0; 
stroke:#FFFFFF; stroke-width:1.000000; stroke-opacity:1; 
stroke-linecap:round; stroke-linejoin:round;fill-rule:evenodd;"
d="M 199255000.000000,89675000.000000
199197597.000000,89663582.000000
199148934.000000,89631066.000000
199116418.000000,89582403.000000
199105000.000000,89525000.000000
199105000.000000,88200000.000000
199116418.000000,88142597.000000
199148934.000000,88093934.000000
199197597.000000,88061418.000000
199255000.000000,88050000.000000
199555000.000000,88050000.000000
199612403.000000,88061418.000000
199661066.000000,88093934.000000
199693582.000000,88142597.000000
199705000.000000,88200000.000000
199705000.000000,89525000.000000
199693582.000000,89582403.000000
199661066.000000,89631066.000000
199612403.000000,89663582.000000
199555000.000000,89675000.000000
Z" /> 
<path style="fill:#FFFFFF; fill-opacity:1.0; 
stroke:#FFFFFF; stroke-width:1.000000; stroke-opacity:1; 
stroke-linecap:round; stroke-linejoin:round;fill-rule:evenodd;"
d="M 197985000.000000,89675000.000000
197927597.000000,89663582.000000
197878934.000000,89631066.000000
197846418.000000,89582403.000000
197835000.000000,89525000.000000
197835000.000000,88200000.000000
197846418.000000,88142597.000000
197878934.000000,88093934.000000
197927597.000000,88061418.000000
197985000.000000,88050000.000000
198285000.000000,88050000.000000
198342403.000000,88061418.000000
198391066.000000,88093934.000000
198423582.000000,88142597.000000
198435000.000000,88200000.000000
198435000.000000,89525000.000000
198423582.000000,89582403.000000
198391066.000000,89631066.000000
198342403.000000,89663582.000000
198285000.000000,89675000.000000
Z" /> 
<path style="fill:#FFFFFF; fill-opacity:1.0; 
stroke:#FFFFFF; stroke-width:1.000000; stroke-opacity:1; 
stroke-linecap:round; stroke-linejoin:round;fill-rule:evenodd;"
d="M 196715000.000000,89675000.000000
196657597.000000,89663582.000000
196608934.000000,89631066.000000
196576418.000000,89582403.000000
196565000.000000,89525000.000000
196565000.000000,88200000.000000
196576418.000000,88142597.000000
196608934.000000,88093934.000000
196657597.000000,88061418.000000
196715000.000000,88050000.000000
197015000.000000,88050000.000000
197072403.000000,88061418.000000
197121066.000000,88093934.000000
197153582.000000,88142597.000000
197165000.000000,88200000.000000
197165000.000000,89525000.000000
197153582.000000,89582403.000000
197121066.000000,89631066.000000
197072403.000000,89663582.000000
197015000.000000,89675000.000000
Z" /> 
<path style="fill:#FFFFFF; fill-opacity:1.0; 
stroke:#FFFFFF; stroke-width:1.000000; stroke-opacity:1; 
stroke-linecap:round; stroke-linejoin:round;fill-rule:evenodd;"
d="M 195445000.000000,89675000.000000
195387597.000000,89663582.000000
195338934.000000,89631066.000000
195306418.000000,89582403.000000
195295000.000000,89525000.000000
195295000.000000,88200000.000000
195306418.000000,88142597.000000
195338934.000000,88093934.000000
195387597.000000,88061418.000000
195445000.000000,88050000.000000
195745000.000000,88050000.000000
195802403.000000,88061418.000000
195851066.000000,88093934.000000
195883582.000000,88142597.000000
195895000.000000,88200000.000000
195895000.000000,89525000.000000
195883582.000000,89582403.000000
195851066.000000,89631066.000000
195802403.000000,89663582.000000
195745000.000000,89675000.000000
Z" /> 
</g>
<g >
</g>
<g style="fill:#FFFFFF; fill-opacity:1.0; 
stroke:#FFFFFF; stroke-width:1.000000; stroke-opacity:1; 
stroke-linecap:round; stroke-linejoin:round;">
<path style="fill:#FFFFFF; fill-opacity:1.0; 
stroke:#FFFFFF; stroke-width:1.000000; stroke-opacity:1; 
stroke-linecap:round; stroke-linejoin:round;fill-rule:evenodd;"
d="M 185900000.000000,96737500.000000
185881921.000000,96828387.000000
185830438.000000,96905438.000000
185753387.000000,96956921.000000
185662500.000000,96975000.000000
185162500.000000,96975000.000000
185071613.000000,96956921.000000
184994562.000000,96905438.000000
184943079.000000,96828387.000000
184925000.000000,96737500.000000
184925000.000000,96262500.000000
184943079.000000,96171613.000000
184994562.000000,96094562.000000
185071613.000000,96043079.000000
185162500.000000,96025000.000000
185662500.000000,96025000.000000
185753387.000000,96043079.000000
185830438.000000,96094562.000000
185881921.000000,96171613.000000
185900000.000000,96262500.000000
Z" /> 
<path style="fill:#FFFFFF; fill-opacity:1.0; 
stroke:#FFFFFF; stroke-width:1.000000; stroke-opacity:1; 
stroke-linecap:round; stroke-linejoin:round;fill-rule:evenodd;"
d="M 184075000.000000,96737500.000000
184056921.000000,96828387.000000
184005438.000000,96905438.000000
183928387.000000,96956921.000000
183837500.000000,96975000.000000
183337500.000000,96975000.000000
183246613.000000,96956921.000000
183169562.000000,96905438.000000
183118079.000000,96828387.000000
183100000.000000,96737500.000000
183100000.000000,96262500.000000
183118079.000000,96171613.000000
183169562.000000,96094562.000000
183246613.000000,96043079.000000
183337500.000000,96025000.000000
183837500.000000,96025000.000000
183928387.000000,96043079.000000
184005438.000000,96094562.000000
184056921.000000,96171613.000000
184075000.000000,96262500.000000
Z" /> 
</g>
<g >
</g>
<g style="fill:#FFFFFF; fill-opacity:1.0; 
stroke:#FFFFFF; stroke-width:1.000000; stroke-opacity:1; 
stroke-linecap:round; stroke-linejoin:round;">
<path style="fill:#FFFFFF; fill-opacity:1.0; 
stroke:#FFFFFF; stroke-width:1.000000; stroke-opacity:1; 
stroke-linecap:round; stroke-linejoin:round;fill-rule:evenodd;"
d="M 182362500.000000,85725000.000000
182271613.000000,85706921.000000
182194562.000000,85655438.000000
182143079.000000,85578387.000000
182125000.000000,85487500.000000
182125000.000000,84987500.000000
182143079.000000,84896613.000000
182194562.000000,84819562.000000
182271613.000000,84768079.000000
182362500.000000,84750000.000000
182837500.000000,84750000.000000
182928387.000000,84768079.000000
183005438.000000,84819562.000000
183056921.000000,84896613.000000
183075000.000000,84987500.000000
183075000.000000,85487500.000000
183056921.000000,85578387.000000
183005438.000000,85655438.000000
182928387.000000,85706921.000000
182837500.000000,85725000.000000
Z" /> 
<path style="fill:#FFFFFF; fill-opacity:1.0; 
stroke:#FFFFFF; stroke-width:1.000000; stroke-opacity:1; 
stroke-linecap:round; stroke-linejoin:round;fill-rule:evenodd;"
d="M 182362500.000000,83900000.000000
182271613.000000,83881921.000000
182194562.000000,83830438.000000
182143079.000000,83753387.000000
182125000.000000,83662500.000000
182125000.000000,83162500.000000
182143079.000000,83071613.000000
182194562.000000,82994562.000000
182271613.000000,82943079.000000
182362500.000000,82925000.000000
182837500.000000,82925000.000000
182928387.000000,82943079.000000
183005438.000000,82994562.000000
183056921.000000,83071613.000000
183075000.000000,83162500.000000
183075000.000000,83662500.000000
183056921.000000,83753387.000000
183005438.000000,83830438.000000
182928387.000000,83881921.000000
182837500.000000,83900000.000000
Z" /> 
</g>
<g >
</g>
<g style="fill:#FFFFFF; fill-opacity:1.0; 
stroke:#FFFFFF; stroke-width:1.000000; stroke-opacity:1; 
stroke-linecap:round; stroke-linejoin:round;">
<path style="fill:#FFFFFF; fill-opacity:1.0; 
stroke:#FFFFFF; stroke-width:1.000000; stroke-opacity:1; 
stroke-linecap:round; stroke-linejoin:round;fill-rule:evenodd;"
d="M 176600000.000000,96762500.000000
176618079.000000,96671613.000000
176669562.000000,96594562.000000
176746613.000000,96543079.000000
176837500.000000,96525000.000000
177437500.000000,96525000.000000
177528387.000000,96543079.000000
177605438.000000,96594562.000000
177656921.000000,96671613.000000
177675000.000000,96762500.000000
177675000.000000,97237500.000000
177656921.000000,97328387.000000
177605438.000000,97405438.000000
177528387.000000,97456921.000000
177437500.000000,97475000.000000
176837500.000000,97475000.000000
176746613.000000,97456921.000000
176669562.000000,97405438.000000
176618079.000000,97328387.000000
176600000.000000,97237500.000000
Z" /> 
<path style="fill:#FFFFFF; fill-opacity:1.0; 
stroke:#FFFFFF; stroke-width:1.000000; stroke-opacity:1; 
stroke-linecap:round; stroke-linejoin:round;fill-rule:evenodd;"
d="M 178325000.000000,96762500.000000
178343079.000000,96671613.000000
178394562.000000,96594562.000000
178471613.000000,96543079.000000
178562500.000000,96525000.000000
179162500.000000,96525000.000000
179253387.000000,96543079.000000
179330438.000000,96594562.000000
179381921.000000,96671613.000000
179400000.000000,96762500.000000
179400000.000000,97237500.000000
179381921.000000,97328387.000000
179330438.000000,97405438.000000
179253387.000000,97456921.000000
179162500.000000,97475000.000000
178562500.000000,97475000.000000
178471613.000000,97456921.000000
178394562.000000,97405438.000000
178343079.000000,97328387.000000
178325000.000000,97237500.000000
Z" /> 
</g>
<g >
</g>
<g style="fill:#FFFFFF; fill-opacity:1.0; 
stroke:#FFFFFF; stroke-width:1.000000; stroke-opacity:1; 
stroke-linecap:round; stroke-linejoin:round;">
<path style="fill:#FFFFFF; fill-opacity:1.0; 
stroke:#FFFFFF; stroke-width:1.000000; stroke-opacity:1; 
stroke-linecap:round; stroke-linejoin:round;fill-rule:evenodd;"
d="M 176600000.000000,101262500.000000
176618079.000000,101171613.000000
176669562.000000,101094562.000000
176746613.000000,101043079.000000
176837500.000000,101025000.000000
177437500.000000,101025000.000000
177528387.000000,101043079.000000
177605438.000000,101094562.000000
177656921.000000,101171613.000000
177675000.000000,101262500.000000
177675000.000000,101737500.000000
177656921.000000,101828387.000000
177605438.000000,101905438.000000
177528387.000000,101956921.000000
177437500.000000,101975000.000000
176837500.000000,101975000.000000
176746613.000000,101956921.000000
176669562.000000,101905438.000000
176618079.000000,101828387.000000
176600000.000000,101737500.000000
Z" /> 
<path style="fill:#FFFFFF; fill-opacity:1.0; 
stroke:#FFFFFF; stroke-width:1.000000; stroke-opacity:1; 
stroke-linecap:round; stroke-linejoin:round;fill-rule:evenodd;"
d="M 178325000.000000,101262500.000000
178343079.000000,101171613.000000
178394562.000000,101094562.000000
178471613.000000,101043079.000000
178562500.000000,101025000.000000
179162500.000000,101025000.000000
179253387.000000,101043079.000000
179330438.000000,101094562.000000
179381921.000000,101171613.000000
179400000.000000,101262500.000000
179400000.000000,101737500.000000
179381921.000000,101828387.000000
179330438.000000,101905438.000000
179253387.000000,101956921.000000
179162500.000000,101975000.000000
178562500.000000,101975000.000000
178471613.000000,101956921.000000
178394562.000000,101905438.000000
178343079.000000,101828387.000000
178325000.000000,101737500.000000
Z" /> 
</g>
<g >
</g>
<g style="fill:#FFFFFF; fill-opacity:1.0; 
stroke:#FFFFFF; stroke-width:1.000000; stroke-opacity:1; 
stroke-linecap:round; stroke-linejoin:round;">
<path style="fill:#FFFFFF; fill-opacity:1.0; 
stroke:#FFFFFF; stroke-width:1.000000; stroke-opacity:1; 
stroke-linecap:round; stroke-linejoin:round;fill-rule:evenodd;"
d="M 176750000.000000,83675000.000000
176761418.000000,83617597.000000
176793934.000000,83568934.000000
176842597.000000,83536418.000000
176900000.000000,83525000.000000
178075000.000000,83525000.000000
178132403.000000,83536418.000000
178181066.000000,83568934.000000
178213582.000000,83617597.000000
178225000.000000,83675000.000000
178225000.000000,83975000.000000
178213582.000000,84032403.000000
178181066.000000,84081066.000000
178132403.000000,84113582.000000
178075000.000000,84125000.000000
176900000.000000,84125000.000000
176842597.000000,84113582.000000
176793934.000000,84081066.000000
176761418.000000,84032403.000000
176750000.000000,83975000.000000
Z" /> 
<path style="fill:#FFFFFF; fill-opacity:1.0; 
stroke:#FFFFFF; stroke-width:1.000000; stroke-opacity:1; 
stroke-linecap:round; stroke-linejoin:round;fill-rule:evenodd;"
d="M 176750000.000000,85575000.000000
176761418.000000,85517597.000000
176793934.000000,85468934.000000
176842597.000000,85436418.000000
176900000.000000,85425000.000000
178075000.000000,85425000.000000
178132403.000000,85436418.000000
178181066.000000,85468934.000000
178213582.000000,85517597.000000
178225000.000000,85575000.000000
178225000.000000,85875000.000000
178213582.000000,85932403.000000
178181066.000000,85981066.000000
178132403.000000,86013582.000000
178075000.000000,86025000.000000
176900000.000000,86025000.000000
176842597.000000,86013582.000000
176793934.000000,85981066.000000
176761418.000000,85932403.000000
176750000.000000,85875000.000000
Z" /> 
<path style="fill:#FFFFFF; fill-opacity:1.0; 
stroke:#FFFFFF; stroke-width:1.000000; stroke-opacity:1; 
stroke-linecap:round; stroke-linejoin:round;fill-rule:evenodd;"
d="M 178625000.000000,84625000.000000
178636418.000000,84567597.000000
178668934.000000,84518934.000000
178717597.000000,84486418.000000
178775000.000000,84475000.000000
179950000.000000,84475000.000000
180007403.000000,84486418.000000
180056066.000000,84518934.000000
180088582.000000,84567597.000000
180100000.000000,84625000.000000
180100000.000000,84925000.000000
180088582.000000,84982403.000000
180056066.000000,85031066.000000
180007403.000000,85063582.000000
179950000.000000,85075000.000000
178775000.000000,85075000.000000
178717597.000000,85063582.000000
178668934.000000,85031066.000000
178636418.000000,84982403.000000
178625000.000000,84925000.000000
Z" /> 
</g>
<g >
</g>
<g style="fill:#FFFFFF; fill-opacity:1.0; 
stroke:#FFFFFF; stroke-width:1.000000; stroke-opacity:1; 
stroke-linecap:round; stroke-linejoin:round;">
<path style="fill:#FFFFFF; fill-opacity:1.0; 
stroke:#FFFFFF; stroke-width:1.000000; stroke-opacity:1; 
stroke-linecap:round; stroke-linejoin:round;fill-rule:evenodd;"
d="M 190025000.000000,96737500.000000
190006921.000000,96828387.000000
189955438.000000,96905438.000000
189878387.000000,96956921.000000
189787500.000000,96975000.000000
189212500.000000,96975000.000000
189121613.000000,96956921.000000
189044562.000000,96905438.000000
188993079.000000,96828387.000000
188975000.000000,96737500.000000
188975000.000000,96262500.000000
188993079.000000,96171613.000000
189044562.000000,96094562.000000
189121613.000000,96043079.000000
189212500.000000,96025000.000000
189787500.000000,96025000.000000
189878387.000000,96043079.000000
189955438.000000,96094562.000000
190006921.000000,96171613.000000
190025000.000000,96262500.000000
Z" /> 
<path style="fill:#FFFFFF; fill-opacity:1.0; 
stroke:#FFFFFF; stroke-width:1.000000; stroke-opacity:1; 
stroke-linecap:round; stroke-linejoin:round;fill-rule:evenodd;"
d="M 188275000.000000,96737500.000000
188256921.000000,96828387.000000
188205438.000000,96905438.000000
188128387.000000,96956921.000000
188037500.000000,96975000.000000
187462500.000000,96975000.000000
187371613.000000,96956921.000000
187294562.000000,96905438.000000
187243079.000000,96828387.000000
187225000.000000,96737500.000000
187225000.000000,96262500.000000
187243079.000000,96171613.000000
187294562.000000,96094562.000000
187371613.000000,96043079.000000
187462500.000000,96025000.000000
188037500.000000,96025000.000000
188128387.000000,96043079.000000
188205438.000000,96094562.000000
188256921.000000,96171613.000000
188275000.000000,96262500.000000
Z" /> 
</g>
<g >
</g>
<g style="fill:#FFFFFF; fill-opacity:1.0; 
stroke:#FFFFFF; stroke-width:1.000000; stroke-opacity:1; 
stroke-linecap:round; stroke-linejoin:round;">
<path style="fill:#FFFFFF; fill-opacity:1.0; 
stroke:#FFFFFF; stroke-width:1.000000; stroke-opacity:1; 
stroke-linecap:round; stroke-linejoin:round;fill-rule:evenodd;"
d="M 196737500.000000,96187500.000000
196828387.000000,96205579.000000
196905438.000000,96257062.000000
196956921.000000,96334113.000000
196975000.000000,96425000.000000
196975000.000000,96925000.000000
196956921.000000,97015887.000000
196905438.000000,97092938.000000
196828387.000000,97144421.000000
196737500.000000,97162500.000000
196262500.000000,97162500.000000
196171613.000000,97144421.000000
196094562.000000,97092938.000000
196043079.000000,97015887.000000
196025000.000000,96925000.000000
196025000.000000,96425000.000000
196043079.000000,96334113.000000
196094562.000000,96257062.000000
196171613.000000,96205579.000000
196262500.000000,96187500.000000
Z" /> 
<path style="fill:#FFFFFF; fill-opacity:1.0; 
stroke:#FFFFFF; stroke-width:1.000000; stroke-opacity:1; 
stroke-linecap:round; stroke-linejoin:round;fill-rule:evenodd;"
d="M 196737500.000000,98012500.000000
196828387.000000,98030579.000000
196905438.000000,98082062.000000
196956921.000000,98159113.000000
196975000.000000,98250000.000000
196975000.000000,98750000.000000
196956921.000000,98840887.000000
196905438.000000,98917938.000000
196828387.000000,98969421.000000
196737500.000000,98987500.000000
196262500.000000,98987500.000000
196171613.000000,98969421.000000
196094562.000000,98917938.000000
196043079.000000,98840887.000000
196025000.000000,98750000.000000
196025000.000000,98250000.000000
196043079.000000,98159113.000000
196094562.000000,98082062.000000
196171613.000000,98030579.000000
196262500.000000,98012500.000000
Z" /> 
</g>
<g >
</g>
<g style="fill:#FFFFFF; fill-opacity:1.0; 
stroke:#FFFFFF; stroke-width:1.000000; stroke-opacity:1; 
stroke-linecap:round; stroke-linejoin:round;">
<path style="fill:#FFFFFF; fill-opacity:1.0; 
stroke:#FFFFFF; stroke-width:1.000000; stroke-opacity:1; 
stroke-linecap:round; stroke-linejoin:round;fill-rule:evenodd;"
d="M 185900000.000000,93737500.000000
185881921.000000,93828387.000000
185830438.000000,93905438.000000
185753387.000000,93956921.000000
185662500.000000,93975000.000000
185162500.000000,93975000.000000
185071613.000000,93956921.000000
184994562.000000,93905438.000000
184943079.000000,93828387.000000
184925000.000000,93737500.000000
184925000.000000,93262500.000000
184943079.000000,93171613.000000
184994562.000000,93094562.000000
185071613.000000,93043079.000000
185162500.000000,93025000.000000
185662500.000000,93025000.000000
185753387.000000,93043079.000000
185830438.000000,93094562.000000
185881921.000000,93171613.000000
185900000.000000,93262500.000000
Z" /> 
<path style="fill:#FFFFFF; fill-opacity:1.0; 
stroke:#FFFFFF; stroke-width:1.000000; stroke-opacity:1; 
stroke-linecap:round; stroke-linejoin:round;fill-rule:evenodd;"
d="M 184075000.000000,93737500.000000
184056921.000000,93828387.000000
184005438.000000,93905438.000000
183928387.000000,93956921.000000
183837500.000000,93975000.000000
183337500.000000,93975000.000000
183246613.000000,93956921.000000
183169562.000000,93905438.000000
183118079.000000,93828387.000000
183100000.000000,93737500.000000
183100000.000000,93262500.000000
183118079.000000,93171613.000000
183169562.000000,93094562.000000
183246613.000000,93043079.000000
183337500.000000,93025000.000000
183837500.000000,93025000.000000
183928387.000000,93043079.000000
184005438.000000,93094562.000000
184056921.000000,93171613.000000
184075000.000000,93262500.000000
Z" /> 
</g>
<g >
</g>
<g >
</g>
<g >
</g>
<g >
</g>
</g> 
</svg>
