%TF.GenerationSoftware,KiCad,Pcbnew,7.0.7*%
%TF.CreationDate,2023-12-20T15:38:10-07:00*%
%TF.ProjectId,Control Pilot PCB,436f6e74-726f-46c2-9050-696c6f742050,rev?*%
%TF.SameCoordinates,Original*%
%TF.FileFunction,Copper,L2,Bot*%
%TF.FilePolarity,Positive*%
%FSLAX46Y46*%
G04 Gerber Fmt 4.6, Leading zero omitted, Abs format (unit mm)*
G04 Created by KiCad (PCBNEW 7.0.7) date 2023-12-20 15:38:10*
%MOMM*%
%LPD*%
G01*
G04 APERTURE LIST*
%TA.AperFunction,ComponentPad*%
%ADD10R,1.700000X1.700000*%
%TD*%
%TA.AperFunction,ComponentPad*%
%ADD11C,1.400000*%
%TD*%
%TA.AperFunction,ComponentPad*%
%ADD12O,1.400000X1.400000*%
%TD*%
%TA.AperFunction,ComponentPad*%
%ADD13O,1.700000X1.700000*%
%TD*%
%TA.AperFunction,ComponentPad*%
%ADD14R,2.400000X2.400000*%
%TD*%
%TA.AperFunction,ComponentPad*%
%ADD15O,2.400000X2.400000*%
%TD*%
%TA.AperFunction,Conductor*%
%ADD16C,0.600000*%
%TD*%
G04 APERTURE END LIST*
D10*
%TO.P,J1,1,Pin_1*%
%TO.N,Earth_Protective*%
X163576000Y-103632000D03*
%TD*%
%TO.P,J5,1,Pin_1*%
%TO.N,Earth_Protective*%
X98552000Y-52832000D03*
%TD*%
D11*
%TO.P,R6,1*%
%TO.N,Net-(SW5-A)*%
X144256000Y-83312000D03*
D12*
%TO.P,R6,2*%
%TO.N,Earth_Protective*%
X144256000Y-88392000D03*
%TD*%
D11*
%TO.P,R4,1*%
%TO.N,Net-(SW6-A)*%
X124460000Y-72120000D03*
D12*
%TO.P,R4,2*%
%TO.N,Net-(SW6-B)*%
X124460000Y-67040000D03*
%TD*%
D10*
%TO.P,SW4,1,A*%
%TO.N,Net-(SW1-A)*%
X67056000Y-103632000D03*
D13*
%TO.P,SW4,2,B*%
%TO.N,Net-(D1-K)*%
X67056000Y-101092000D03*
%TO.P,SW4,3,C*%
X67056000Y-98552000D03*
%TD*%
D10*
%TO.P,SW1,1,A*%
%TO.N,Net-(SW1-A)*%
X143256000Y-103632000D03*
D13*
%TO.P,SW1,2,B*%
%TO.N,Earth_Protective*%
X143256000Y-101092000D03*
%TO.P,SW1,3,C*%
%TO.N,unconnected-(SW1-C-Pad3)*%
X143256000Y-98552000D03*
%TD*%
D11*
%TO.P,R5,1*%
%TO.N,Net-(SW5-A)*%
X154416000Y-73152000D03*
D12*
%TO.P,R5,2*%
%TO.N,+5V*%
X154416000Y-68072000D03*
%TD*%
D10*
%TO.P,SW8,1,A*%
%TO.N,Net-(SW1-A)*%
X67056000Y-72537000D03*
D13*
%TO.P,SW8,2,B*%
%TO.N,Net-(SW8-B)*%
X67056000Y-69997000D03*
%TO.P,SW8,3,C*%
%TO.N,Net-(D1-K)*%
X67056000Y-67457000D03*
%TD*%
D11*
%TO.P,R7,1*%
%TO.N,Net-(SW6-A)*%
X133588000Y-72644000D03*
D12*
%TO.P,R7,2*%
%TO.N,Net-(J3-Pin_1)*%
X138668000Y-72644000D03*
%TD*%
D11*
%TO.P,R1,1*%
%TO.N,Net-(SW1-A)*%
X76216000Y-103632000D03*
D12*
%TO.P,R1,2*%
%TO.N,Net-(D1-K)*%
X76216000Y-98552000D03*
%TD*%
D10*
%TO.P,SW2,1,A*%
%TO.N,Net-(SW1-A)*%
X119616000Y-103632000D03*
D13*
%TO.P,SW2,2,B*%
X119616000Y-101092000D03*
%TO.P,SW2,3,C*%
%TO.N,Net-(D1-A)*%
X119616000Y-98552000D03*
%TD*%
D10*
%TO.P,J4,1,Pin_1*%
%TO.N,+5V*%
X113792000Y-52832000D03*
%TD*%
D11*
%TO.P,R3,1*%
%TO.N,Net-(SW1-A)*%
X99060000Y-71612000D03*
D12*
%TO.P,R3,2*%
%TO.N,Net-(SW7-B)*%
X99060000Y-66532000D03*
%TD*%
D10*
%TO.P,SW3,1,A*%
%TO.N,Net-(SW1-A)*%
X92456000Y-103632000D03*
D13*
%TO.P,SW3,2,B*%
X92456000Y-101092000D03*
%TO.P,SW3,3,C*%
%TO.N,Net-(D1-K)*%
X92456000Y-98552000D03*
%TD*%
D10*
%TO.P,SW6,1,A*%
%TO.N,Net-(SW6-A)*%
X117856000Y-73152000D03*
D13*
%TO.P,SW6,2,B*%
%TO.N,Net-(SW6-B)*%
X117856000Y-70612000D03*
%TO.P,SW6,3,C*%
%TO.N,unconnected-(SW6-C-Pad3)*%
X117856000Y-68072000D03*
%TD*%
D10*
%TO.P,SW7,1,A*%
%TO.N,Net-(SW1-A)*%
X92456000Y-72537000D03*
D13*
%TO.P,SW7,2,B*%
%TO.N,Net-(SW7-B)*%
X92456000Y-69997000D03*
%TO.P,SW7,3,C*%
%TO.N,Net-(D1-K)*%
X92456000Y-67457000D03*
%TD*%
D10*
%TO.P,J2,1,Pin_1*%
%TO.N,Net-(D1-A)*%
X163576000Y-86360000D03*
%TD*%
%TO.P,J3,1,Pin_1*%
%TO.N,Net-(J3-Pin_1)*%
X163576000Y-70104000D03*
%TD*%
%TO.P,SW5,1,A*%
%TO.N,Net-(SW5-A)*%
X143256000Y-72537000D03*
D13*
%TO.P,SW5,2,B*%
%TO.N,Net-(J3-Pin_1)*%
X143256000Y-69997000D03*
%TO.P,SW5,3,C*%
%TO.N,unconnected-(SW5-C-Pad3)*%
X143256000Y-67457000D03*
%TD*%
D14*
%TO.P,D1,1,K*%
%TO.N,Net-(D1-K)*%
X101092000Y-96520000D03*
D15*
%TO.P,D1,2,A*%
%TO.N,Net-(D1-A)*%
X111252000Y-96520000D03*
%TD*%
D11*
%TO.P,R2,1*%
%TO.N,Net-(SW1-A)*%
X74168000Y-71612000D03*
D12*
%TO.P,R2,2*%
%TO.N,Net-(SW8-B)*%
X74168000Y-66532000D03*
%TD*%
D16*
%TO.N,Net-(SW1-A)*%
X93818000Y-101092000D02*
X92456000Y-101092000D01*
X95450000Y-99460000D02*
X93818000Y-101092000D01*
X95450000Y-75531000D02*
X95450000Y-99460000D01*
X92456000Y-72537000D02*
X95450000Y-75531000D01*
%TO.N,Net-(SW8-B)*%
X74168000Y-66532000D02*
X70521000Y-66532000D01*
X70521000Y-66532000D02*
X67056000Y-69997000D01*
%TO.N,Net-(SW7-B)*%
X95595000Y-69997000D02*
X92456000Y-69997000D01*
X99060000Y-66532000D02*
X95595000Y-69997000D01*
%TO.N,Net-(SW5-A)*%
X143256000Y-72537000D02*
X153801000Y-72537000D01*
X153801000Y-72537000D02*
X154416000Y-73152000D01*
%TO.N,Net-(D1-K)*%
X67056000Y-101092000D02*
X73676000Y-101092000D01*
X73676000Y-101092000D02*
X76216000Y-98552000D01*
%TD*%
%TA.AperFunction,Conductor*%
%TO.N,Earth_Protective*%
G36*
X177882806Y-44799685D02*
G01*
X177928561Y-44852489D01*
X177939766Y-44904231D01*
X177801446Y-118530622D01*
X177800233Y-119176233D01*
X177780422Y-119243235D01*
X177727532Y-119288891D01*
X177676233Y-119300000D01*
X53414000Y-119300000D01*
X53346961Y-119280315D01*
X53301206Y-119227511D01*
X53290000Y-119176000D01*
X53290000Y-116030005D01*
X54024556Y-116030005D01*
X54032344Y-116153791D01*
X54032466Y-116157684D01*
X54032466Y-116187125D01*
X54036156Y-116216340D01*
X54036522Y-116220217D01*
X54044310Y-116344005D01*
X54044311Y-116344012D01*
X54067553Y-116465852D01*
X54068162Y-116469698D01*
X54071853Y-116498915D01*
X54071857Y-116498932D01*
X54079179Y-116527447D01*
X54080029Y-116531249D01*
X54103270Y-116653083D01*
X54141593Y-116771028D01*
X54142680Y-116774769D01*
X54150004Y-116803297D01*
X54150007Y-116803305D01*
X54160851Y-116830694D01*
X54162170Y-116834358D01*
X54200497Y-116952316D01*
X54200499Y-116952321D01*
X54253306Y-117064540D01*
X54254853Y-117068116D01*
X54265695Y-117095500D01*
X54279886Y-117121314D01*
X54281653Y-117124783D01*
X54319581Y-117205382D01*
X54334463Y-117237007D01*
X54400916Y-117341721D01*
X54400920Y-117341726D01*
X54402903Y-117345080D01*
X54417085Y-117370878D01*
X54417091Y-117370887D01*
X54417093Y-117370891D01*
X54434413Y-117394730D01*
X54436594Y-117397940D01*
X54503051Y-117502661D01*
X54503053Y-117502664D01*
X54582105Y-117598222D01*
X54584492Y-117601299D01*
X54601784Y-117625100D01*
X54601809Y-117625130D01*
X54601813Y-117625135D01*
X54611832Y-117635804D01*
X54621970Y-117646601D01*
X54624545Y-117649522D01*
X54688232Y-117726505D01*
X54703610Y-117745094D01*
X54794034Y-117830008D01*
X54796769Y-117832743D01*
X54816937Y-117854220D01*
X54816942Y-117854225D01*
X54816943Y-117854226D01*
X54839635Y-117872998D01*
X54842538Y-117875557D01*
X54932970Y-117960478D01*
X55033324Y-118033389D01*
X55036380Y-118035760D01*
X55059087Y-118054545D01*
X55059096Y-118054552D01*
X55083968Y-118070335D01*
X55087173Y-118072513D01*
X55177169Y-118137898D01*
X55187520Y-118145419D01*
X55296213Y-118205173D01*
X55299567Y-118207157D01*
X55311131Y-118214495D01*
X55324425Y-118222932D01*
X55335532Y-118228158D01*
X55351068Y-118235470D01*
X55354538Y-118237238D01*
X55422915Y-118274828D01*
X55463234Y-118296994D01*
X55578574Y-118342660D01*
X55582126Y-118344197D01*
X55608752Y-118356727D01*
X55608762Y-118356731D01*
X55608779Y-118356739D01*
X55608793Y-118356743D01*
X55608809Y-118356750D01*
X55636798Y-118365843D01*
X55640447Y-118367157D01*
X55755775Y-118412819D01*
X55875921Y-118443667D01*
X55879644Y-118444749D01*
X55888422Y-118447601D01*
X55907661Y-118453852D01*
X55924491Y-118457062D01*
X55936600Y-118459373D01*
X55940374Y-118460216D01*
X56060527Y-118491066D01*
X56183578Y-118506610D01*
X56187403Y-118507217D01*
X56216341Y-118512737D01*
X56216346Y-118512738D01*
X56216354Y-118512738D01*
X56216357Y-118512739D01*
X56245769Y-118514589D01*
X56249614Y-118514953D01*
X56314767Y-118523183D01*
X56372672Y-118530499D01*
X56372682Y-118530500D01*
X56496680Y-118530500D01*
X56500575Y-118530622D01*
X56529964Y-118532472D01*
X56530000Y-118532472D01*
X56530036Y-118532472D01*
X56559422Y-118530622D01*
X56563317Y-118530500D01*
X56687318Y-118530500D01*
X56810391Y-118514952D01*
X56814227Y-118514589D01*
X56843643Y-118512739D01*
X56843646Y-118512738D01*
X56843652Y-118512738D01*
X56843655Y-118512737D01*
X56872596Y-118507217D01*
X56876416Y-118506611D01*
X56999473Y-118491066D01*
X57119652Y-118460209D01*
X57123373Y-118459377D01*
X57152339Y-118453852D01*
X57180378Y-118444741D01*
X57184043Y-118443676D01*
X57304225Y-118412819D01*
X57419575Y-118367148D01*
X57423208Y-118365841D01*
X57451221Y-118356739D01*
X57477876Y-118344195D01*
X57481412Y-118342665D01*
X57596766Y-118296994D01*
X57705499Y-118237217D01*
X57708902Y-118235483D01*
X57735575Y-118222932D01*
X57760445Y-118207148D01*
X57763766Y-118205184D01*
X57872484Y-118145416D01*
X57972830Y-118072509D01*
X57976031Y-118070334D01*
X58000916Y-118054542D01*
X58023635Y-118035747D01*
X58026655Y-118033404D01*
X58127030Y-117960478D01*
X58217494Y-117875526D01*
X58220329Y-117873027D01*
X58243060Y-117854223D01*
X58263261Y-117832710D01*
X58265932Y-117830039D01*
X58356390Y-117745094D01*
X58435485Y-117649484D01*
X58438003Y-117646628D01*
X58458187Y-117625135D01*
X58458201Y-117625115D01*
X58458209Y-117625106D01*
X58475514Y-117601288D01*
X58477872Y-117598247D01*
X58556947Y-117502663D01*
X58623440Y-117397885D01*
X58625564Y-117394761D01*
X58642907Y-117370891D01*
X58657116Y-117345044D01*
X58659059Y-117341759D01*
X58725537Y-117237007D01*
X58778353Y-117124766D01*
X58780096Y-117121343D01*
X58794304Y-117095501D01*
X58805160Y-117068079D01*
X58806668Y-117064594D01*
X58859503Y-116952315D01*
X58897845Y-116834310D01*
X58899148Y-116830694D01*
X58909992Y-116803306D01*
X58917319Y-116774769D01*
X58918395Y-116771063D01*
X58956731Y-116653079D01*
X58979980Y-116531199D01*
X58980820Y-116527447D01*
X58988146Y-116498916D01*
X58991840Y-116469668D01*
X58992439Y-116465885D01*
X59015688Y-116344015D01*
X59015688Y-116344012D01*
X59015689Y-116344009D01*
X59018753Y-116295289D01*
X59023477Y-116220197D01*
X59023842Y-116216347D01*
X59027532Y-116187138D01*
X59027533Y-116187131D01*
X59028167Y-116146716D01*
X59028278Y-116143886D01*
X59035444Y-116030000D01*
X172024556Y-116030000D01*
X172032345Y-116153815D01*
X172032467Y-116157685D01*
X172032467Y-116187125D01*
X172032468Y-116187141D01*
X172036156Y-116216340D01*
X172036522Y-116220217D01*
X172044310Y-116344005D01*
X172044311Y-116344012D01*
X172067553Y-116465852D01*
X172068162Y-116469698D01*
X172071853Y-116498915D01*
X172071857Y-116498932D01*
X172079179Y-116527447D01*
X172080029Y-116531249D01*
X172103270Y-116653083D01*
X172141593Y-116771028D01*
X172142680Y-116774769D01*
X172150004Y-116803297D01*
X172150007Y-116803305D01*
X172160851Y-116830694D01*
X172162170Y-116834358D01*
X172200497Y-116952316D01*
X172200499Y-116952321D01*
X172253306Y-117064540D01*
X172254853Y-117068116D01*
X172265695Y-117095500D01*
X172279886Y-117121314D01*
X172281653Y-117124783D01*
X172319581Y-117205382D01*
X172334463Y-117237007D01*
X172400916Y-117341721D01*
X172400920Y-117341726D01*
X172402903Y-117345080D01*
X172417085Y-117370878D01*
X172417091Y-117370887D01*
X172417093Y-117370891D01*
X172434413Y-117394730D01*
X172436594Y-117397940D01*
X172503051Y-117502661D01*
X172503053Y-117502664D01*
X172582105Y-117598222D01*
X172584492Y-117601299D01*
X172601784Y-117625100D01*
X172601809Y-117625130D01*
X172601813Y-117625135D01*
X172611832Y-117635804D01*
X172621970Y-117646601D01*
X172624545Y-117649522D01*
X172688232Y-117726505D01*
X172703610Y-117745094D01*
X172794034Y-117830008D01*
X172796769Y-117832743D01*
X172816937Y-117854220D01*
X172816942Y-117854225D01*
X172816943Y-117854226D01*
X172839635Y-117872998D01*
X172842538Y-117875557D01*
X172932970Y-117960478D01*
X173033324Y-118033389D01*
X173036380Y-118035760D01*
X173059087Y-118054545D01*
X173059096Y-118054552D01*
X173083968Y-118070335D01*
X173087173Y-118072513D01*
X173177169Y-118137898D01*
X173187520Y-118145419D01*
X173296213Y-118205173D01*
X173299567Y-118207157D01*
X173311131Y-118214495D01*
X173324425Y-118222932D01*
X173335532Y-118228158D01*
X173351068Y-118235470D01*
X173354538Y-118237238D01*
X173422915Y-118274828D01*
X173463234Y-118296994D01*
X173578574Y-118342660D01*
X173582126Y-118344197D01*
X173608752Y-118356727D01*
X173608762Y-118356731D01*
X173608779Y-118356739D01*
X173608793Y-118356743D01*
X173608809Y-118356750D01*
X173636798Y-118365843D01*
X173640447Y-118367157D01*
X173755775Y-118412819D01*
X173875921Y-118443667D01*
X173879644Y-118444749D01*
X173888422Y-118447601D01*
X173907661Y-118453852D01*
X173924491Y-118457062D01*
X173936600Y-118459373D01*
X173940374Y-118460216D01*
X174060527Y-118491066D01*
X174183578Y-118506610D01*
X174187403Y-118507217D01*
X174216341Y-118512737D01*
X174216346Y-118512738D01*
X174216354Y-118512738D01*
X174216357Y-118512739D01*
X174245769Y-118514589D01*
X174249614Y-118514953D01*
X174314767Y-118523183D01*
X174372672Y-118530499D01*
X174372682Y-118530500D01*
X174496680Y-118530500D01*
X174500575Y-118530622D01*
X174529964Y-118532472D01*
X174530000Y-118532472D01*
X174530036Y-118532472D01*
X174559422Y-118530622D01*
X174563317Y-118530500D01*
X174687318Y-118530500D01*
X174810391Y-118514952D01*
X174814227Y-118514589D01*
X174843643Y-118512739D01*
X174843646Y-118512738D01*
X174843652Y-118512738D01*
X174843655Y-118512737D01*
X174872596Y-118507217D01*
X174876416Y-118506611D01*
X174999473Y-118491066D01*
X175119652Y-118460209D01*
X175123373Y-118459377D01*
X175152339Y-118453852D01*
X175180378Y-118444741D01*
X175184043Y-118443676D01*
X175304225Y-118412819D01*
X175419575Y-118367148D01*
X175423208Y-118365841D01*
X175451221Y-118356739D01*
X175477876Y-118344195D01*
X175481412Y-118342665D01*
X175596766Y-118296994D01*
X175705499Y-118237217D01*
X175708902Y-118235483D01*
X175735575Y-118222932D01*
X175760445Y-118207148D01*
X175763766Y-118205184D01*
X175872484Y-118145416D01*
X175972830Y-118072509D01*
X175976031Y-118070334D01*
X176000916Y-118054542D01*
X176023635Y-118035747D01*
X176026655Y-118033404D01*
X176127030Y-117960478D01*
X176217494Y-117875526D01*
X176220329Y-117873027D01*
X176243060Y-117854223D01*
X176263261Y-117832710D01*
X176265932Y-117830039D01*
X176356390Y-117745094D01*
X176435485Y-117649484D01*
X176438003Y-117646628D01*
X176458187Y-117625135D01*
X176458201Y-117625115D01*
X176458209Y-117625106D01*
X176475514Y-117601288D01*
X176477872Y-117598247D01*
X176556947Y-117502663D01*
X176623440Y-117397885D01*
X176625564Y-117394761D01*
X176642907Y-117370891D01*
X176657116Y-117345044D01*
X176659059Y-117341759D01*
X176725537Y-117237007D01*
X176778353Y-117124766D01*
X176780096Y-117121343D01*
X176794304Y-117095501D01*
X176805160Y-117068079D01*
X176806668Y-117064594D01*
X176859503Y-116952315D01*
X176897845Y-116834310D01*
X176899148Y-116830694D01*
X176909992Y-116803306D01*
X176917319Y-116774769D01*
X176918395Y-116771063D01*
X176956731Y-116653079D01*
X176979980Y-116531199D01*
X176980820Y-116527447D01*
X176988146Y-116498916D01*
X176991840Y-116469668D01*
X176992439Y-116465885D01*
X177015688Y-116344015D01*
X177015688Y-116344012D01*
X177015689Y-116344009D01*
X177018753Y-116295289D01*
X177023477Y-116220197D01*
X177023842Y-116216347D01*
X177027532Y-116187138D01*
X177027533Y-116187131D01*
X177028167Y-116146716D01*
X177028278Y-116143886D01*
X177035444Y-116030000D01*
X177028279Y-115916116D01*
X177028167Y-115913280D01*
X177027533Y-115872869D01*
X177027532Y-115872862D01*
X177027532Y-115872854D01*
X177023842Y-115843650D01*
X177023477Y-115839796D01*
X177019203Y-115771855D01*
X177015689Y-115715990D01*
X177015687Y-115715982D01*
X176992436Y-115594093D01*
X176991838Y-115590313D01*
X176991836Y-115590300D01*
X176988146Y-115561084D01*
X176980825Y-115532569D01*
X176979975Y-115528767D01*
X176957013Y-115408400D01*
X176956731Y-115406921D01*
X176918399Y-115288950D01*
X176917318Y-115285226D01*
X176909994Y-115256701D01*
X176909993Y-115256699D01*
X176909992Y-115256694D01*
X176899134Y-115229269D01*
X176897844Y-115225686D01*
X176859503Y-115107685D01*
X176806682Y-114995435D01*
X176805157Y-114991912D01*
X176794304Y-114964499D01*
X176794285Y-114964465D01*
X176780113Y-114938685D01*
X176778344Y-114935213D01*
X176759334Y-114894816D01*
X176725537Y-114822993D01*
X176659061Y-114718244D01*
X176657095Y-114714917D01*
X176642907Y-114689109D01*
X176625579Y-114665259D01*
X176623427Y-114662093D01*
X176556947Y-114557337D01*
X176556946Y-114557336D01*
X176556945Y-114557334D01*
X176477898Y-114461782D01*
X176475511Y-114458704D01*
X176458221Y-114434906D01*
X176458191Y-114434871D01*
X176458187Y-114434865D01*
X176444102Y-114419866D01*
X176438028Y-114413397D01*
X176435462Y-114410487D01*
X176356390Y-114314906D01*
X176356388Y-114314904D01*
X176356384Y-114314899D01*
X176265973Y-114229998D01*
X176263221Y-114227246D01*
X176261864Y-114225801D01*
X176243060Y-114205777D01*
X176243059Y-114205776D01*
X176243057Y-114205774D01*
X176243049Y-114205766D01*
X176220361Y-114186998D01*
X176217439Y-114184422D01*
X176127031Y-114099523D01*
X176127021Y-114099515D01*
X176026688Y-114026619D01*
X176023609Y-114024231D01*
X176000918Y-114005459D01*
X176000900Y-114005446D01*
X175976030Y-113989663D01*
X175972807Y-113987473D01*
X175872485Y-113914584D01*
X175763788Y-113854826D01*
X175760439Y-113852845D01*
X175736435Y-113837614D01*
X175735575Y-113837068D01*
X175735574Y-113837067D01*
X175735567Y-113837063D01*
X175708929Y-113824528D01*
X175705460Y-113822760D01*
X175596759Y-113763002D01*
X175596756Y-113763001D01*
X175481463Y-113717354D01*
X175477887Y-113715807D01*
X175451239Y-113703268D01*
X175451199Y-113703252D01*
X175423198Y-113694154D01*
X175419532Y-113692834D01*
X175304227Y-113647181D01*
X175184091Y-113616335D01*
X175180353Y-113615249D01*
X175152336Y-113606147D01*
X175123418Y-113600630D01*
X175119619Y-113599781D01*
X174999471Y-113568933D01*
X174876435Y-113553390D01*
X174872588Y-113552781D01*
X174843666Y-113547264D01*
X174843644Y-113547261D01*
X174843643Y-113547261D01*
X174843640Y-113547260D01*
X174843594Y-113547255D01*
X174814219Y-113545407D01*
X174810342Y-113545040D01*
X174687330Y-113529500D01*
X174687318Y-113529500D01*
X174563273Y-113529500D01*
X174559402Y-113529378D01*
X174534162Y-113527790D01*
X174530002Y-113527529D01*
X174529998Y-113527529D01*
X174525837Y-113527790D01*
X174500597Y-113529378D01*
X174496727Y-113529500D01*
X174372682Y-113529500D01*
X174372680Y-113529500D01*
X174372667Y-113529501D01*
X174249656Y-113545040D01*
X174245779Y-113545407D01*
X174216395Y-113547255D01*
X174216338Y-113547262D01*
X174187410Y-113552781D01*
X174183563Y-113553390D01*
X174060530Y-113568933D01*
X174060528Y-113568933D01*
X173940386Y-113599779D01*
X173936589Y-113600628D01*
X173907669Y-113606146D01*
X173907665Y-113606147D01*
X173907661Y-113606148D01*
X173897385Y-113609486D01*
X173879651Y-113615248D01*
X173875913Y-113616334D01*
X173755769Y-113647182D01*
X173640466Y-113692834D01*
X173636801Y-113694154D01*
X173608808Y-113703249D01*
X173608760Y-113703268D01*
X173582129Y-113715800D01*
X173578554Y-113717347D01*
X173463233Y-113763005D01*
X173354538Y-113822761D01*
X173351069Y-113824529D01*
X173324433Y-113837063D01*
X173324422Y-113837069D01*
X173299557Y-113852847D01*
X173296208Y-113854828D01*
X173187512Y-113914585D01*
X173187510Y-113914587D01*
X173087184Y-113987478D01*
X173083962Y-113989667D01*
X173059114Y-114005436D01*
X173059073Y-114005466D01*
X173036391Y-114024229D01*
X173033315Y-114026616D01*
X172932966Y-114099524D01*
X172932965Y-114099525D01*
X172842569Y-114184413D01*
X172839647Y-114186989D01*
X172816961Y-114205756D01*
X172816933Y-114205782D01*
X172810207Y-114212945D01*
X172796772Y-114227252D01*
X172794018Y-114230005D01*
X172703611Y-114314904D01*
X172624545Y-114410476D01*
X172621972Y-114413396D01*
X172611547Y-114424497D01*
X172601828Y-114434847D01*
X172601782Y-114434902D01*
X172584492Y-114458701D01*
X172582105Y-114461778D01*
X172503053Y-114557335D01*
X172503048Y-114557342D01*
X172436593Y-114662058D01*
X172434405Y-114665278D01*
X172417086Y-114689118D01*
X172417082Y-114689125D01*
X172402897Y-114714926D01*
X172400916Y-114718276D01*
X172334464Y-114822990D01*
X172281649Y-114935223D01*
X172279877Y-114938701D01*
X172278375Y-114941433D01*
X172265713Y-114964465D01*
X172265701Y-114964489D01*
X172265696Y-114964499D01*
X172265693Y-114964506D01*
X172265687Y-114964519D01*
X172254854Y-114991879D01*
X172253308Y-114995452D01*
X172200500Y-115107676D01*
X172200496Y-115107687D01*
X172162168Y-115225644D01*
X172160850Y-115229307D01*
X172150009Y-115256689D01*
X172150004Y-115256703D01*
X172142679Y-115285230D01*
X172141593Y-115288969D01*
X172103269Y-115406918D01*
X172103268Y-115406924D01*
X172080029Y-115528749D01*
X172079179Y-115532550D01*
X172071858Y-115561059D01*
X172071852Y-115561093D01*
X172068162Y-115590300D01*
X172067553Y-115594146D01*
X172044312Y-115715982D01*
X172044310Y-115715999D01*
X172036522Y-115839781D01*
X172036156Y-115843658D01*
X172032468Y-115872846D01*
X172032467Y-115872874D01*
X172032467Y-115902313D01*
X172032345Y-115906185D01*
X172024556Y-116030000D01*
X59035444Y-116030000D01*
X59028279Y-115916116D01*
X59028167Y-115913280D01*
X59027533Y-115872869D01*
X59027532Y-115872862D01*
X59027532Y-115872854D01*
X59023842Y-115843650D01*
X59023477Y-115839796D01*
X59019203Y-115771855D01*
X59015689Y-115715990D01*
X59015687Y-115715982D01*
X58992436Y-115594093D01*
X58991838Y-115590313D01*
X58991836Y-115590300D01*
X58988146Y-115561084D01*
X58980825Y-115532569D01*
X58979975Y-115528767D01*
X58957013Y-115408400D01*
X58956731Y-115406921D01*
X58918399Y-115288950D01*
X58917318Y-115285226D01*
X58909994Y-115256701D01*
X58909993Y-115256699D01*
X58909992Y-115256694D01*
X58899134Y-115229269D01*
X58897844Y-115225686D01*
X58859503Y-115107685D01*
X58806682Y-114995435D01*
X58805157Y-114991912D01*
X58794304Y-114964499D01*
X58794285Y-114964465D01*
X58780113Y-114938685D01*
X58778344Y-114935213D01*
X58759334Y-114894816D01*
X58725537Y-114822993D01*
X58659061Y-114718244D01*
X58657095Y-114714917D01*
X58642907Y-114689109D01*
X58625579Y-114665259D01*
X58623427Y-114662093D01*
X58556947Y-114557337D01*
X58556946Y-114557336D01*
X58556945Y-114557334D01*
X58477898Y-114461782D01*
X58475511Y-114458704D01*
X58458221Y-114434906D01*
X58458191Y-114434871D01*
X58458187Y-114434865D01*
X58444102Y-114419866D01*
X58438028Y-114413397D01*
X58435462Y-114410487D01*
X58356390Y-114314906D01*
X58356388Y-114314904D01*
X58356384Y-114314899D01*
X58265973Y-114229998D01*
X58263221Y-114227246D01*
X58261864Y-114225801D01*
X58243060Y-114205777D01*
X58243059Y-114205776D01*
X58243057Y-114205774D01*
X58243049Y-114205766D01*
X58220361Y-114186998D01*
X58217439Y-114184422D01*
X58127031Y-114099523D01*
X58127021Y-114099515D01*
X58026688Y-114026619D01*
X58023609Y-114024231D01*
X58000918Y-114005459D01*
X58000900Y-114005446D01*
X57976030Y-113989663D01*
X57972807Y-113987473D01*
X57872485Y-113914584D01*
X57763788Y-113854826D01*
X57760439Y-113852845D01*
X57736435Y-113837614D01*
X57735575Y-113837068D01*
X57735574Y-113837067D01*
X57735567Y-113837063D01*
X57708929Y-113824528D01*
X57705460Y-113822760D01*
X57596759Y-113763002D01*
X57596756Y-113763001D01*
X57481463Y-113717354D01*
X57477887Y-113715807D01*
X57451239Y-113703268D01*
X57451199Y-113703252D01*
X57423198Y-113694154D01*
X57419532Y-113692834D01*
X57304227Y-113647181D01*
X57184091Y-113616335D01*
X57180353Y-113615249D01*
X57152336Y-113606147D01*
X57123418Y-113600630D01*
X57119619Y-113599781D01*
X56999471Y-113568933D01*
X56876435Y-113553390D01*
X56872588Y-113552781D01*
X56843666Y-113547264D01*
X56843644Y-113547261D01*
X56843643Y-113547261D01*
X56843640Y-113547260D01*
X56843594Y-113547255D01*
X56814219Y-113545407D01*
X56810342Y-113545040D01*
X56687330Y-113529500D01*
X56687318Y-113529500D01*
X56563273Y-113529500D01*
X56559402Y-113529378D01*
X56534162Y-113527790D01*
X56530002Y-113527529D01*
X56529998Y-113527529D01*
X56525837Y-113527790D01*
X56500597Y-113529378D01*
X56496727Y-113529500D01*
X56372682Y-113529500D01*
X56372680Y-113529500D01*
X56372667Y-113529501D01*
X56249656Y-113545040D01*
X56245779Y-113545407D01*
X56216395Y-113547255D01*
X56216338Y-113547262D01*
X56187410Y-113552781D01*
X56183563Y-113553390D01*
X56060530Y-113568933D01*
X56060528Y-113568933D01*
X55940386Y-113599779D01*
X55936589Y-113600628D01*
X55907669Y-113606146D01*
X55907665Y-113606147D01*
X55907661Y-113606148D01*
X55897385Y-113609486D01*
X55879651Y-113615248D01*
X55875913Y-113616334D01*
X55755769Y-113647182D01*
X55640466Y-113692834D01*
X55636801Y-113694154D01*
X55608808Y-113703249D01*
X55608760Y-113703268D01*
X55582129Y-113715800D01*
X55578554Y-113717347D01*
X55463233Y-113763005D01*
X55354538Y-113822761D01*
X55351069Y-113824529D01*
X55324433Y-113837063D01*
X55324422Y-113837069D01*
X55299557Y-113852847D01*
X55296208Y-113854828D01*
X55187512Y-113914585D01*
X55187510Y-113914587D01*
X55087184Y-113987478D01*
X55083962Y-113989667D01*
X55059114Y-114005436D01*
X55059073Y-114005466D01*
X55036391Y-114024229D01*
X55033315Y-114026616D01*
X54932966Y-114099524D01*
X54932965Y-114099525D01*
X54842569Y-114184413D01*
X54839647Y-114186989D01*
X54816961Y-114205756D01*
X54816933Y-114205782D01*
X54810207Y-114212945D01*
X54796772Y-114227252D01*
X54794018Y-114230005D01*
X54703611Y-114314904D01*
X54624545Y-114410476D01*
X54621972Y-114413396D01*
X54611547Y-114424497D01*
X54601828Y-114434847D01*
X54601782Y-114434902D01*
X54584492Y-114458701D01*
X54582105Y-114461778D01*
X54503053Y-114557335D01*
X54503048Y-114557342D01*
X54436593Y-114662058D01*
X54434405Y-114665278D01*
X54417086Y-114689118D01*
X54417082Y-114689125D01*
X54402897Y-114714926D01*
X54400916Y-114718276D01*
X54334464Y-114822990D01*
X54281649Y-114935223D01*
X54279877Y-114938701D01*
X54278375Y-114941433D01*
X54265713Y-114964465D01*
X54265701Y-114964489D01*
X54265696Y-114964499D01*
X54265693Y-114964506D01*
X54265687Y-114964519D01*
X54254854Y-114991879D01*
X54253308Y-114995452D01*
X54200500Y-115107676D01*
X54200496Y-115107687D01*
X54162168Y-115225644D01*
X54160850Y-115229307D01*
X54150009Y-115256689D01*
X54150004Y-115256703D01*
X54142679Y-115285230D01*
X54141593Y-115288969D01*
X54103269Y-115406918D01*
X54103268Y-115406924D01*
X54080029Y-115528749D01*
X54079179Y-115532550D01*
X54071858Y-115561059D01*
X54071852Y-115561093D01*
X54068162Y-115590300D01*
X54067553Y-115594146D01*
X54044312Y-115715982D01*
X54044310Y-115715999D01*
X54036522Y-115839781D01*
X54036156Y-115843658D01*
X54032466Y-115872869D01*
X54032466Y-115902314D01*
X54032344Y-115906207D01*
X54024556Y-116029994D01*
X54024556Y-116030005D01*
X53290000Y-116030005D01*
X53290000Y-101092000D01*
X65700341Y-101092000D01*
X65720936Y-101327403D01*
X65720938Y-101327413D01*
X65782094Y-101555655D01*
X65782096Y-101555659D01*
X65782097Y-101555663D01*
X65800096Y-101594262D01*
X65881965Y-101769830D01*
X65881967Y-101769834D01*
X65974338Y-101901752D01*
X66017501Y-101963396D01*
X66017506Y-101963402D01*
X66139430Y-102085326D01*
X66172915Y-102146649D01*
X66167931Y-102216341D01*
X66126059Y-102272274D01*
X66095083Y-102289189D01*
X65963669Y-102338203D01*
X65963664Y-102338206D01*
X65848455Y-102424452D01*
X65848452Y-102424455D01*
X65762206Y-102539664D01*
X65762202Y-102539671D01*
X65711908Y-102674517D01*
X65705501Y-102734116D01*
X65705501Y-102734123D01*
X65705500Y-102734135D01*
X65705500Y-104529870D01*
X65705501Y-104529876D01*
X65711908Y-104589483D01*
X65762202Y-104724328D01*
X65762206Y-104724335D01*
X65848452Y-104839544D01*
X65848455Y-104839547D01*
X65963664Y-104925793D01*
X65963671Y-104925797D01*
X66098517Y-104976091D01*
X66098516Y-104976091D01*
X66105444Y-104976835D01*
X66158127Y-104982500D01*
X67953872Y-104982499D01*
X68013483Y-104976091D01*
X68148331Y-104925796D01*
X68263546Y-104839546D01*
X68349796Y-104724331D01*
X68400091Y-104589483D01*
X68406500Y-104529873D01*
X68406499Y-103632000D01*
X75010357Y-103632000D01*
X75030884Y-103853535D01*
X75030885Y-103853537D01*
X75091769Y-104067523D01*
X75091775Y-104067538D01*
X75190938Y-104266683D01*
X75190943Y-104266691D01*
X75325020Y-104444238D01*
X75489437Y-104594123D01*
X75489439Y-104594125D01*
X75678595Y-104711245D01*
X75678596Y-104711245D01*
X75678599Y-104711247D01*
X75886060Y-104791618D01*
X76104757Y-104832500D01*
X76104759Y-104832500D01*
X76327241Y-104832500D01*
X76327243Y-104832500D01*
X76545940Y-104791618D01*
X76753401Y-104711247D01*
X76942562Y-104594124D01*
X77106981Y-104444236D01*
X77241058Y-104266689D01*
X77340229Y-104067528D01*
X77401115Y-103853536D01*
X77421643Y-103632000D01*
X77401115Y-103410464D01*
X77340229Y-103196472D01*
X77340224Y-103196461D01*
X77241061Y-102997316D01*
X77241056Y-102997308D01*
X77106979Y-102819761D01*
X76942562Y-102669876D01*
X76942560Y-102669874D01*
X76753404Y-102552754D01*
X76753398Y-102552752D01*
X76545940Y-102472382D01*
X76327243Y-102431500D01*
X76104757Y-102431500D01*
X75886060Y-102472382D01*
X75754864Y-102523207D01*
X75678601Y-102552752D01*
X75678595Y-102552754D01*
X75489439Y-102669874D01*
X75489437Y-102669876D01*
X75325020Y-102819761D01*
X75190943Y-102997308D01*
X75190938Y-102997316D01*
X75091775Y-103196461D01*
X75091769Y-103196476D01*
X75030885Y-103410462D01*
X75030884Y-103410464D01*
X75010357Y-103631999D01*
X75010357Y-103632000D01*
X68406499Y-103632000D01*
X68406499Y-102734128D01*
X68400091Y-102674517D01*
X68398359Y-102669874D01*
X68349797Y-102539671D01*
X68349793Y-102539664D01*
X68263547Y-102424455D01*
X68263544Y-102424452D01*
X68148335Y-102338206D01*
X68148328Y-102338202D01*
X68016917Y-102289189D01*
X67960983Y-102247318D01*
X67936566Y-102181853D01*
X67951418Y-102113580D01*
X67972563Y-102085332D01*
X68094495Y-101963401D01*
X68107116Y-101945375D01*
X68161693Y-101901752D01*
X68208691Y-101892500D01*
X73766194Y-101892500D01*
X73806903Y-101883208D01*
X73813760Y-101882043D01*
X73855255Y-101877368D01*
X73894680Y-101863571D01*
X73901321Y-101861658D01*
X73942061Y-101852360D01*
X73979693Y-101834236D01*
X73986105Y-101831580D01*
X74025522Y-101817789D01*
X74060889Y-101795565D01*
X74066961Y-101792209D01*
X74104587Y-101774091D01*
X74137236Y-101748052D01*
X74142895Y-101744037D01*
X74178262Y-101721816D01*
X74305816Y-101594262D01*
X74808077Y-101092000D01*
X91100341Y-101092000D01*
X91120936Y-101327403D01*
X91120938Y-101327413D01*
X91182094Y-101555655D01*
X91182096Y-101555659D01*
X91182097Y-101555663D01*
X91200096Y-101594262D01*
X91281965Y-101769830D01*
X91281967Y-101769834D01*
X91374338Y-101901752D01*
X91417501Y-101963396D01*
X91417506Y-101963402D01*
X91539430Y-102085326D01*
X91572915Y-102146649D01*
X91567931Y-102216341D01*
X91526059Y-102272274D01*
X91495083Y-102289189D01*
X91363669Y-102338203D01*
X91363664Y-102338206D01*
X91248455Y-102424452D01*
X91248452Y-102424455D01*
X91162206Y-102539664D01*
X91162202Y-102539671D01*
X91111908Y-102674517D01*
X91105501Y-102734116D01*
X91105501Y-102734123D01*
X91105500Y-102734135D01*
X91105500Y-104529870D01*
X91105501Y-104529876D01*
X91111908Y-104589483D01*
X91162202Y-104724328D01*
X91162206Y-104724335D01*
X91248452Y-104839544D01*
X91248455Y-104839547D01*
X91363664Y-104925793D01*
X91363671Y-104925797D01*
X91498517Y-104976091D01*
X91498516Y-104976091D01*
X91505444Y-104976835D01*
X91558127Y-104982500D01*
X93353872Y-104982499D01*
X93413483Y-104976091D01*
X93548331Y-104925796D01*
X93663546Y-104839546D01*
X93749796Y-104724331D01*
X93800091Y-104589483D01*
X93806500Y-104529873D01*
X93806499Y-102734128D01*
X93800091Y-102674517D01*
X93798359Y-102669874D01*
X93749797Y-102539671D01*
X93749793Y-102539664D01*
X93663547Y-102424455D01*
X93663544Y-102424452D01*
X93548335Y-102338206D01*
X93548328Y-102338202D01*
X93416917Y-102289189D01*
X93360983Y-102247318D01*
X93336566Y-102181853D01*
X93351418Y-102113580D01*
X93372563Y-102085332D01*
X93494495Y-101963401D01*
X93507116Y-101945375D01*
X93561693Y-101901752D01*
X93608691Y-101892500D01*
X93908194Y-101892500D01*
X93948903Y-101883208D01*
X93955760Y-101882043D01*
X93997255Y-101877368D01*
X94036680Y-101863571D01*
X94043321Y-101861658D01*
X94084061Y-101852360D01*
X94121693Y-101834236D01*
X94128105Y-101831580D01*
X94167522Y-101817789D01*
X94202889Y-101795565D01*
X94208961Y-101792209D01*
X94246587Y-101774091D01*
X94279236Y-101748052D01*
X94284895Y-101744037D01*
X94320262Y-101721816D01*
X94447816Y-101594262D01*
X94506375Y-101535703D01*
X94506388Y-101535689D01*
X94950077Y-101092000D01*
X118260341Y-101092000D01*
X118280936Y-101327403D01*
X118280938Y-101327413D01*
X118342094Y-101555655D01*
X118342096Y-101555659D01*
X118342097Y-101555663D01*
X118360096Y-101594262D01*
X118441965Y-101769830D01*
X118441967Y-101769834D01*
X118534338Y-101901752D01*
X118577501Y-101963396D01*
X118577506Y-101963402D01*
X118699430Y-102085326D01*
X118732915Y-102146649D01*
X118727931Y-102216341D01*
X118686059Y-102272274D01*
X118655083Y-102289189D01*
X118523669Y-102338203D01*
X118523664Y-102338206D01*
X118408455Y-102424452D01*
X118408452Y-102424455D01*
X118322206Y-102539664D01*
X118322202Y-102539671D01*
X118271908Y-102674517D01*
X118265501Y-102734116D01*
X118265501Y-102734123D01*
X118265500Y-102734135D01*
X118265500Y-104529870D01*
X118265501Y-104529876D01*
X118271908Y-104589483D01*
X118322202Y-104724328D01*
X118322206Y-104724335D01*
X118408452Y-104839544D01*
X118408455Y-104839547D01*
X118523664Y-104925793D01*
X118523671Y-104925797D01*
X118658517Y-104976091D01*
X118658516Y-104976091D01*
X118665444Y-104976835D01*
X118718127Y-104982500D01*
X120513872Y-104982499D01*
X120573483Y-104976091D01*
X120708331Y-104925796D01*
X120823546Y-104839546D01*
X120909796Y-104724331D01*
X120960091Y-104589483D01*
X120966500Y-104529873D01*
X120966499Y-102734128D01*
X120960091Y-102674517D01*
X120958359Y-102669874D01*
X120909797Y-102539671D01*
X120909793Y-102539664D01*
X120823547Y-102424455D01*
X120823544Y-102424452D01*
X120708335Y-102338206D01*
X120708328Y-102338202D01*
X120576917Y-102289189D01*
X120520983Y-102247318D01*
X120496566Y-102181853D01*
X120511418Y-102113580D01*
X120532563Y-102085332D01*
X120654495Y-101963401D01*
X120790035Y-101769830D01*
X120889903Y-101555663D01*
X120951063Y-101327408D01*
X120971659Y-101092000D01*
X120951063Y-100856592D01*
X120889903Y-100628337D01*
X120790035Y-100414171D01*
X120704141Y-100291500D01*
X120654494Y-100220597D01*
X120487402Y-100053506D01*
X120487396Y-100053501D01*
X120301842Y-99923575D01*
X120258217Y-99868998D01*
X120251023Y-99799500D01*
X120282546Y-99737145D01*
X120301842Y-99720425D01*
X120351934Y-99685350D01*
X120487401Y-99590495D01*
X120654495Y-99423401D01*
X120790035Y-99229830D01*
X120889903Y-99015663D01*
X120951063Y-98787408D01*
X120971659Y-98552000D01*
X141900341Y-98552000D01*
X141920936Y-98787403D01*
X141920938Y-98787413D01*
X141982094Y-99015655D01*
X141982096Y-99015659D01*
X141982097Y-99015663D01*
X142051613Y-99164740D01*
X142081965Y-99229830D01*
X142081967Y-99229834D01*
X142217501Y-99423395D01*
X142217506Y-99423402D01*
X142384597Y-99590493D01*
X142384603Y-99590498D01*
X142390033Y-99594300D01*
X142557580Y-99711618D01*
X142570594Y-99720730D01*
X142614219Y-99775307D01*
X142621413Y-99844805D01*
X142589890Y-99907160D01*
X142570595Y-99923880D01*
X142384922Y-100053890D01*
X142384920Y-100053891D01*
X142217891Y-100220920D01*
X142217886Y-100220926D01*
X142082400Y-100414420D01*
X142082399Y-100414422D01*
X141982570Y-100628507D01*
X141982567Y-100628513D01*
X141925364Y-100841999D01*
X141925364Y-100842000D01*
X142642653Y-100842000D01*
X142709692Y-100861685D01*
X142755447Y-100914489D01*
X142765391Y-100983647D01*
X142761631Y-101000933D01*
X142756000Y-101020111D01*
X142756000Y-101163888D01*
X142761631Y-101183067D01*
X142761630Y-101252936D01*
X142723855Y-101311714D01*
X142660299Y-101340738D01*
X142642653Y-101342000D01*
X141925364Y-101342000D01*
X141982567Y-101555486D01*
X141982570Y-101555492D01*
X142082399Y-101769578D01*
X142217894Y-101963082D01*
X142339946Y-102085134D01*
X142373431Y-102146457D01*
X142368447Y-102216149D01*
X142326575Y-102272082D01*
X142295598Y-102288997D01*
X142163671Y-102338202D01*
X142163664Y-102338206D01*
X142048455Y-102424452D01*
X142048452Y-102424455D01*
X141962206Y-102539664D01*
X141962202Y-102539671D01*
X141911908Y-102674517D01*
X141905501Y-102734116D01*
X141905501Y-102734123D01*
X141905500Y-102734135D01*
X141905500Y-104529870D01*
X141905501Y-104529876D01*
X141911908Y-104589483D01*
X141962202Y-104724328D01*
X141962206Y-104724335D01*
X142048452Y-104839544D01*
X142048455Y-104839547D01*
X142163664Y-104925793D01*
X142163671Y-104925797D01*
X142298517Y-104976091D01*
X142298516Y-104976091D01*
X142305444Y-104976835D01*
X142358127Y-104982500D01*
X144153872Y-104982499D01*
X144213483Y-104976091D01*
X144348331Y-104925796D01*
X144463546Y-104839546D01*
X144549796Y-104724331D01*
X144600091Y-104589483D01*
X144606500Y-104529873D01*
X144606500Y-104529844D01*
X162226000Y-104529844D01*
X162232401Y-104589372D01*
X162232403Y-104589379D01*
X162282645Y-104724086D01*
X162282649Y-104724093D01*
X162368809Y-104839187D01*
X162368812Y-104839190D01*
X162483906Y-104925350D01*
X162483913Y-104925354D01*
X162618620Y-104975596D01*
X162618627Y-104975598D01*
X162678155Y-104981999D01*
X162678172Y-104982000D01*
X163326000Y-104982000D01*
X163326000Y-104244301D01*
X163345685Y-104177262D01*
X163398489Y-104131507D01*
X163467647Y-104121563D01*
X163540237Y-104132000D01*
X163540238Y-104132000D01*
X163611762Y-104132000D01*
X163611763Y-104132000D01*
X163684353Y-104121563D01*
X163753512Y-104131507D01*
X163806315Y-104177262D01*
X163826000Y-104244301D01*
X163826000Y-104982000D01*
X164473828Y-104982000D01*
X164473844Y-104981999D01*
X164533372Y-104975598D01*
X164533379Y-104975596D01*
X164668086Y-104925354D01*
X164668093Y-104925350D01*
X164783187Y-104839190D01*
X164783190Y-104839187D01*
X164869350Y-104724093D01*
X164869354Y-104724086D01*
X164919596Y-104589379D01*
X164919598Y-104589372D01*
X164925999Y-104529844D01*
X164926000Y-104529827D01*
X164926000Y-103882000D01*
X164189347Y-103882000D01*
X164122308Y-103862315D01*
X164076553Y-103809511D01*
X164066609Y-103740353D01*
X164070369Y-103723067D01*
X164076000Y-103703888D01*
X164076000Y-103560111D01*
X164070369Y-103540933D01*
X164070370Y-103471064D01*
X164108145Y-103412286D01*
X164171701Y-103383262D01*
X164189347Y-103382000D01*
X164926000Y-103382000D01*
X164926000Y-102734172D01*
X164925999Y-102734155D01*
X164919598Y-102674627D01*
X164919596Y-102674620D01*
X164869354Y-102539913D01*
X164869350Y-102539906D01*
X164783190Y-102424812D01*
X164783187Y-102424809D01*
X164668093Y-102338649D01*
X164668086Y-102338645D01*
X164533379Y-102288403D01*
X164533372Y-102288401D01*
X164473844Y-102282000D01*
X163826000Y-102282000D01*
X163826000Y-103019698D01*
X163806315Y-103086737D01*
X163753511Y-103132492D01*
X163684355Y-103142436D01*
X163611766Y-103132000D01*
X163611763Y-103132000D01*
X163540237Y-103132000D01*
X163540233Y-103132000D01*
X163467645Y-103142436D01*
X163398487Y-103132492D01*
X163345684Y-103086736D01*
X163326000Y-103019698D01*
X163326000Y-102282000D01*
X162678155Y-102282000D01*
X162618627Y-102288401D01*
X162618620Y-102288403D01*
X162483913Y-102338645D01*
X162483906Y-102338649D01*
X162368812Y-102424809D01*
X162368809Y-102424812D01*
X162282649Y-102539906D01*
X162282645Y-102539913D01*
X162232403Y-102674620D01*
X162232401Y-102674627D01*
X162226000Y-102734155D01*
X162226000Y-103382000D01*
X162962653Y-103382000D01*
X163029692Y-103401685D01*
X163075447Y-103454489D01*
X163085391Y-103523647D01*
X163081631Y-103540933D01*
X163076000Y-103560111D01*
X163076000Y-103703888D01*
X163081631Y-103723067D01*
X163081630Y-103792936D01*
X163043855Y-103851714D01*
X162980299Y-103880738D01*
X162962653Y-103882000D01*
X162226000Y-103882000D01*
X162226000Y-104529844D01*
X144606500Y-104529844D01*
X144606499Y-102734128D01*
X144600091Y-102674517D01*
X144598359Y-102669874D01*
X144549797Y-102539671D01*
X144549793Y-102539664D01*
X144463547Y-102424455D01*
X144463544Y-102424452D01*
X144348335Y-102338206D01*
X144348328Y-102338202D01*
X144216401Y-102288997D01*
X144160467Y-102247126D01*
X144136050Y-102181662D01*
X144150902Y-102113389D01*
X144172053Y-102085133D01*
X144294108Y-101963078D01*
X144429600Y-101769578D01*
X144529429Y-101555492D01*
X144529432Y-101555486D01*
X144586636Y-101342000D01*
X143869347Y-101342000D01*
X143802308Y-101322315D01*
X143756553Y-101269511D01*
X143746609Y-101200353D01*
X143750369Y-101183067D01*
X143756000Y-101163888D01*
X143756000Y-101020111D01*
X143750369Y-101000933D01*
X143750370Y-100931064D01*
X143788145Y-100872286D01*
X143851701Y-100843262D01*
X143869347Y-100842000D01*
X144586636Y-100842000D01*
X144586635Y-100841999D01*
X144529432Y-100628513D01*
X144529429Y-100628507D01*
X144429600Y-100414422D01*
X144429599Y-100414420D01*
X144294113Y-100220926D01*
X144294108Y-100220920D01*
X144127078Y-100053890D01*
X143941405Y-99923879D01*
X143897780Y-99869302D01*
X143890588Y-99799804D01*
X143922110Y-99737449D01*
X143941406Y-99720730D01*
X143941843Y-99720424D01*
X144127401Y-99590495D01*
X144294495Y-99423401D01*
X144430035Y-99229830D01*
X144529903Y-99015663D01*
X144591063Y-98787408D01*
X144611659Y-98552000D01*
X144591063Y-98316592D01*
X144529903Y-98088337D01*
X144430035Y-97874171D01*
X144415374Y-97853232D01*
X144294494Y-97680597D01*
X144127402Y-97513506D01*
X144127395Y-97513501D01*
X143933834Y-97377967D01*
X143933830Y-97377965D01*
X143933829Y-97377964D01*
X143719663Y-97278097D01*
X143719659Y-97278096D01*
X143719655Y-97278094D01*
X143491413Y-97216938D01*
X143491403Y-97216936D01*
X143256001Y-97196341D01*
X143255999Y-97196341D01*
X143020596Y-97216936D01*
X143020586Y-97216938D01*
X142792344Y-97278094D01*
X142792335Y-97278098D01*
X142578171Y-97377964D01*
X142578169Y-97377965D01*
X142384597Y-97513505D01*
X142217505Y-97680597D01*
X142081965Y-97874169D01*
X142081964Y-97874171D01*
X141988401Y-98074816D01*
X141987129Y-98077547D01*
X141982098Y-98088335D01*
X141982094Y-98088344D01*
X141920938Y-98316586D01*
X141920936Y-98316596D01*
X141900341Y-98551999D01*
X141900341Y-98552000D01*
X120971659Y-98552000D01*
X120951063Y-98316592D01*
X120889903Y-98088337D01*
X120790035Y-97874171D01*
X120775374Y-97853232D01*
X120654494Y-97680597D01*
X120487402Y-97513506D01*
X120487395Y-97513501D01*
X120293834Y-97377967D01*
X120293830Y-97377965D01*
X120293829Y-97377964D01*
X120079663Y-97278097D01*
X120079659Y-97278096D01*
X120079655Y-97278094D01*
X119851413Y-97216938D01*
X119851403Y-97216936D01*
X119616001Y-97196341D01*
X119615999Y-97196341D01*
X119380596Y-97216936D01*
X119380586Y-97216938D01*
X119152344Y-97278094D01*
X119152335Y-97278098D01*
X118938171Y-97377964D01*
X118938169Y-97377965D01*
X118744597Y-97513505D01*
X118577505Y-97680597D01*
X118441965Y-97874169D01*
X118441964Y-97874171D01*
X118348401Y-98074816D01*
X118347129Y-98077547D01*
X118342098Y-98088335D01*
X118342094Y-98088344D01*
X118280938Y-98316586D01*
X118280936Y-98316596D01*
X118260341Y-98551999D01*
X118260341Y-98552000D01*
X118280936Y-98787403D01*
X118280938Y-98787413D01*
X118342094Y-99015655D01*
X118342096Y-99015659D01*
X118342097Y-99015663D01*
X118411613Y-99164740D01*
X118441965Y-99229830D01*
X118441967Y-99229834D01*
X118577501Y-99423395D01*
X118577506Y-99423402D01*
X118744597Y-99590493D01*
X118744603Y-99590498D01*
X118930158Y-99720425D01*
X118973783Y-99775002D01*
X118980977Y-99844500D01*
X118949454Y-99906855D01*
X118930158Y-99923575D01*
X118744597Y-100053505D01*
X118577505Y-100220597D01*
X118441965Y-100414169D01*
X118441964Y-100414171D01*
X118342098Y-100628335D01*
X118342094Y-100628344D01*
X118280938Y-100856586D01*
X118280936Y-100856596D01*
X118260341Y-101091999D01*
X118260341Y-101092000D01*
X94950077Y-101092000D01*
X96047827Y-99994251D01*
X96084077Y-99958001D01*
X96086629Y-99951418D01*
X96102036Y-99926896D01*
X96106054Y-99921234D01*
X96132092Y-99888586D01*
X96150211Y-99850961D01*
X96153570Y-99844881D01*
X96175789Y-99809522D01*
X96189581Y-99770107D01*
X96192244Y-99763679D01*
X96196263Y-99755334D01*
X96210360Y-99726061D01*
X96219658Y-99685321D01*
X96221571Y-99678680D01*
X96235368Y-99639255D01*
X96240043Y-99597760D01*
X96241208Y-99590905D01*
X96242726Y-99584249D01*
X96250500Y-99550194D01*
X96250500Y-99369805D01*
X96250500Y-99369804D01*
X96250500Y-97767870D01*
X99391500Y-97767870D01*
X99391501Y-97767876D01*
X99397908Y-97827483D01*
X99448202Y-97962328D01*
X99448206Y-97962335D01*
X99534452Y-98077544D01*
X99534455Y-98077547D01*
X99649664Y-98163793D01*
X99649671Y-98163797D01*
X99784517Y-98214091D01*
X99784516Y-98214091D01*
X99791444Y-98214835D01*
X99844127Y-98220500D01*
X102339872Y-98220499D01*
X102399483Y-98214091D01*
X102534331Y-98163796D01*
X102649546Y-98077546D01*
X102735796Y-97962331D01*
X102786091Y-97827483D01*
X102792500Y-97767873D01*
X102792500Y-96520004D01*
X109546732Y-96520004D01*
X109565777Y-96774154D01*
X109565778Y-96774157D01*
X109622492Y-97022637D01*
X109715607Y-97259888D01*
X109843041Y-97480612D01*
X110001950Y-97679877D01*
X110188783Y-97853232D01*
X110399366Y-97996805D01*
X110399371Y-97996807D01*
X110399372Y-97996808D01*
X110399373Y-97996809D01*
X110521328Y-98055538D01*
X110628992Y-98107387D01*
X110628993Y-98107387D01*
X110628996Y-98107389D01*
X110872542Y-98182513D01*
X111124565Y-98220500D01*
X111379435Y-98220500D01*
X111631458Y-98182513D01*
X111875004Y-98107389D01*
X112104634Y-97996805D01*
X112315217Y-97853232D01*
X112502050Y-97679877D01*
X112660959Y-97480612D01*
X112788393Y-97259888D01*
X112881508Y-97022637D01*
X112938222Y-96774157D01*
X112957268Y-96520000D01*
X112938222Y-96265843D01*
X112881508Y-96017363D01*
X112788393Y-95780112D01*
X112660959Y-95559388D01*
X112502050Y-95360123D01*
X112315217Y-95186768D01*
X112104634Y-95043195D01*
X112104630Y-95043193D01*
X112104627Y-95043191D01*
X112104626Y-95043190D01*
X111875006Y-94932612D01*
X111875008Y-94932612D01*
X111631466Y-94857489D01*
X111631462Y-94857488D01*
X111631458Y-94857487D01*
X111510231Y-94839214D01*
X111379440Y-94819500D01*
X111379435Y-94819500D01*
X111124565Y-94819500D01*
X111124559Y-94819500D01*
X110967609Y-94843157D01*
X110872542Y-94857487D01*
X110872538Y-94857488D01*
X110872539Y-94857488D01*
X110872533Y-94857489D01*
X110628992Y-94932612D01*
X110399373Y-95043190D01*
X110399372Y-95043191D01*
X110188782Y-95186768D01*
X110001952Y-95360121D01*
X110001950Y-95360123D01*
X109843041Y-95559388D01*
X109715608Y-95780109D01*
X109622492Y-96017362D01*
X109622490Y-96017369D01*
X109565777Y-96265845D01*
X109546732Y-96519995D01*
X109546732Y-96520004D01*
X102792500Y-96520004D01*
X102792499Y-95272128D01*
X102786091Y-95212517D01*
X102776487Y-95186768D01*
X102735797Y-95077671D01*
X102735793Y-95077664D01*
X102649547Y-94962455D01*
X102649544Y-94962452D01*
X102534335Y-94876206D01*
X102534328Y-94876202D01*
X102399482Y-94825908D01*
X102399483Y-94825908D01*
X102339883Y-94819501D01*
X102339881Y-94819500D01*
X102339873Y-94819500D01*
X102339864Y-94819500D01*
X99844129Y-94819500D01*
X99844123Y-94819501D01*
X99784516Y-94825908D01*
X99649671Y-94876202D01*
X99649664Y-94876206D01*
X99534455Y-94962452D01*
X99534452Y-94962455D01*
X99448206Y-95077664D01*
X99448202Y-95077671D01*
X99397908Y-95212517D01*
X99391501Y-95272116D01*
X99391501Y-95272123D01*
X99391500Y-95272135D01*
X99391500Y-97767870D01*
X96250500Y-97767870D01*
X96250500Y-88642000D01*
X143079505Y-88642000D01*
X143132239Y-88827349D01*
X143231368Y-89026425D01*
X143365391Y-89203900D01*
X143529738Y-89353721D01*
X143718820Y-89470797D01*
X143718822Y-89470798D01*
X143926195Y-89551135D01*
X144006000Y-89566052D01*
X144006000Y-88849898D01*
X144025685Y-88782859D01*
X144078489Y-88737104D01*
X144147647Y-88727160D01*
X144170259Y-88732615D01*
X144197595Y-88742000D01*
X144285004Y-88742000D01*
X144285005Y-88742000D01*
X144361590Y-88729220D01*
X144430955Y-88737602D01*
X144484777Y-88782155D01*
X144505968Y-88848733D01*
X144506000Y-88851529D01*
X144506000Y-89566052D01*
X144585804Y-89551135D01*
X144793177Y-89470798D01*
X144793179Y-89470797D01*
X144982261Y-89353721D01*
X145146608Y-89203900D01*
X145280631Y-89026425D01*
X145379760Y-88827349D01*
X145432495Y-88642000D01*
X144718047Y-88642000D01*
X144651008Y-88622315D01*
X144605253Y-88569511D01*
X144595309Y-88500353D01*
X144597842Y-88487557D01*
X144599979Y-88479114D01*
X144599982Y-88479108D01*
X144609628Y-88362698D01*
X144592849Y-88296438D01*
X144595475Y-88226619D01*
X144635431Y-88169302D01*
X144700032Y-88142686D01*
X144713055Y-88142000D01*
X145432495Y-88142000D01*
X145379760Y-87956650D01*
X145280631Y-87757574D01*
X145146608Y-87580099D01*
X144982261Y-87430278D01*
X144793179Y-87313202D01*
X144793177Y-87313201D01*
X144650348Y-87257870D01*
X162225500Y-87257870D01*
X162225501Y-87257876D01*
X162231908Y-87317483D01*
X162282202Y-87452328D01*
X162282206Y-87452335D01*
X162368452Y-87567544D01*
X162368455Y-87567547D01*
X162483664Y-87653793D01*
X162483671Y-87653797D01*
X162618517Y-87704091D01*
X162618516Y-87704091D01*
X162625444Y-87704835D01*
X162678127Y-87710500D01*
X164473872Y-87710499D01*
X164533483Y-87704091D01*
X164668331Y-87653796D01*
X164783546Y-87567546D01*
X164869796Y-87452331D01*
X164920091Y-87317483D01*
X164926500Y-87257873D01*
X164926499Y-85462128D01*
X164920091Y-85402517D01*
X164869796Y-85267669D01*
X164869795Y-85267668D01*
X164869793Y-85267664D01*
X164783547Y-85152455D01*
X164783544Y-85152452D01*
X164668335Y-85066206D01*
X164668328Y-85066202D01*
X164533482Y-85015908D01*
X164533483Y-85015908D01*
X164473883Y-85009501D01*
X164473881Y-85009500D01*
X164473873Y-85009500D01*
X164473864Y-85009500D01*
X162678129Y-85009500D01*
X162678123Y-85009501D01*
X162618516Y-85015908D01*
X162483671Y-85066202D01*
X162483664Y-85066206D01*
X162368455Y-85152452D01*
X162368452Y-85152455D01*
X162282206Y-85267664D01*
X162282202Y-85267671D01*
X162231908Y-85402517D01*
X162225501Y-85462116D01*
X162225501Y-85462123D01*
X162225500Y-85462135D01*
X162225500Y-87257870D01*
X144650348Y-87257870D01*
X144585799Y-87232864D01*
X144506000Y-87217946D01*
X144506000Y-87934101D01*
X144486315Y-88001140D01*
X144433511Y-88046895D01*
X144364353Y-88056839D01*
X144341738Y-88051383D01*
X144314406Y-88042000D01*
X144314405Y-88042000D01*
X144226995Y-88042000D01*
X144226994Y-88042000D01*
X144150408Y-88054779D01*
X144081043Y-88046396D01*
X144027222Y-88001843D01*
X144006031Y-87935264D01*
X144006000Y-87932470D01*
X144006000Y-87217946D01*
X143926200Y-87232864D01*
X143718822Y-87313201D01*
X143718820Y-87313202D01*
X143529738Y-87430278D01*
X143365391Y-87580099D01*
X143231368Y-87757574D01*
X143132239Y-87956650D01*
X143079505Y-88142000D01*
X143793953Y-88142000D01*
X143860992Y-88161685D01*
X143906747Y-88214489D01*
X143916691Y-88283647D01*
X143914158Y-88296443D01*
X143912017Y-88304896D01*
X143902371Y-88421299D01*
X143902371Y-88421302D01*
X143902372Y-88421302D01*
X143917010Y-88479108D01*
X143919151Y-88487560D01*
X143916525Y-88557381D01*
X143876569Y-88614698D01*
X143811968Y-88641314D01*
X143798945Y-88642000D01*
X143079505Y-88642000D01*
X96250500Y-88642000D01*
X96250500Y-83312000D01*
X143050357Y-83312000D01*
X143070884Y-83533535D01*
X143070885Y-83533537D01*
X143131769Y-83747523D01*
X143131775Y-83747538D01*
X143230938Y-83946683D01*
X143230943Y-83946691D01*
X143365020Y-84124238D01*
X143529437Y-84274123D01*
X143529439Y-84274125D01*
X143718595Y-84391245D01*
X143718596Y-84391245D01*
X143718599Y-84391247D01*
X143926060Y-84471618D01*
X144144757Y-84512500D01*
X144144759Y-84512500D01*
X144367241Y-84512500D01*
X144367243Y-84512500D01*
X144585940Y-84471618D01*
X144793401Y-84391247D01*
X144982562Y-84274124D01*
X145146981Y-84124236D01*
X145281058Y-83946689D01*
X145380229Y-83747528D01*
X145441115Y-83533536D01*
X145461643Y-83312000D01*
X145441115Y-83090464D01*
X145380229Y-82876472D01*
X145380224Y-82876461D01*
X145281061Y-82677316D01*
X145281056Y-82677308D01*
X145146979Y-82499761D01*
X144982562Y-82349876D01*
X144982560Y-82349874D01*
X144793404Y-82232754D01*
X144793398Y-82232752D01*
X144585940Y-82152382D01*
X144367243Y-82111500D01*
X144144757Y-82111500D01*
X143926060Y-82152382D01*
X143794864Y-82203207D01*
X143718601Y-82232752D01*
X143718595Y-82232754D01*
X143529439Y-82349874D01*
X143529437Y-82349876D01*
X143365020Y-82499761D01*
X143230943Y-82677308D01*
X143230938Y-82677316D01*
X143131775Y-82876461D01*
X143131769Y-82876476D01*
X143070885Y-83090462D01*
X143070884Y-83090464D01*
X143050357Y-83311999D01*
X143050357Y-83312000D01*
X96250500Y-83312000D01*
X96250500Y-75486046D01*
X96250500Y-75440805D01*
X96241203Y-75400076D01*
X96240044Y-75393251D01*
X96235368Y-75351745D01*
X96221574Y-75312324D01*
X96219652Y-75305655D01*
X96210359Y-75264939D01*
X96192245Y-75227326D01*
X96189583Y-75220898D01*
X96175789Y-75181478D01*
X96175788Y-75181478D01*
X96153563Y-75146106D01*
X96150213Y-75140044D01*
X96132091Y-75102413D01*
X96106049Y-75069757D01*
X96102038Y-75064104D01*
X96088017Y-75041790D01*
X96079818Y-75028740D01*
X93842818Y-72791740D01*
X93809333Y-72730417D01*
X93806499Y-72704059D01*
X93806499Y-71639129D01*
X93806498Y-71639123D01*
X93806497Y-71639116D01*
X93803582Y-71612000D01*
X97854357Y-71612000D01*
X97874884Y-71833535D01*
X97874885Y-71833537D01*
X97935769Y-72047523D01*
X97935775Y-72047538D01*
X98034938Y-72246683D01*
X98034943Y-72246691D01*
X98169020Y-72424238D01*
X98333437Y-72574123D01*
X98333439Y-72574125D01*
X98522595Y-72691245D01*
X98522596Y-72691245D01*
X98522599Y-72691247D01*
X98730060Y-72771618D01*
X98948757Y-72812500D01*
X98948759Y-72812500D01*
X99171241Y-72812500D01*
X99171243Y-72812500D01*
X99389940Y-72771618D01*
X99597401Y-72691247D01*
X99786562Y-72574124D01*
X99950981Y-72424236D01*
X100085058Y-72246689D01*
X100184229Y-72047528D01*
X100245115Y-71833536D01*
X100265643Y-71612000D01*
X100265024Y-71605325D01*
X100245115Y-71390464D01*
X100245114Y-71390462D01*
X100227755Y-71329452D01*
X100184229Y-71176472D01*
X100181522Y-71171035D01*
X100085061Y-70977316D01*
X100085056Y-70977308D01*
X99950979Y-70799761D01*
X99786562Y-70649876D01*
X99786560Y-70649874D01*
X99725391Y-70612000D01*
X116500341Y-70612000D01*
X116520936Y-70847403D01*
X116520938Y-70847413D01*
X116582094Y-71075655D01*
X116582096Y-71075659D01*
X116582097Y-71075663D01*
X116660223Y-71243204D01*
X116681965Y-71289830D01*
X116681967Y-71289834D01*
X116757564Y-71397797D01*
X116817501Y-71483396D01*
X116817506Y-71483402D01*
X116939430Y-71605326D01*
X116972915Y-71666649D01*
X116967931Y-71736341D01*
X116926059Y-71792274D01*
X116895083Y-71809189D01*
X116763669Y-71858203D01*
X116763664Y-71858206D01*
X116648455Y-71944452D01*
X116648452Y-71944455D01*
X116562206Y-72059664D01*
X116562202Y-72059671D01*
X116511908Y-72194517D01*
X116506299Y-72246691D01*
X116505501Y-72254123D01*
X116505500Y-72254135D01*
X116505500Y-74049870D01*
X116505501Y-74049876D01*
X116511908Y-74109483D01*
X116562202Y-74244328D01*
X116562206Y-74244335D01*
X116648452Y-74359544D01*
X116648455Y-74359547D01*
X116763664Y-74445793D01*
X116763671Y-74445797D01*
X116898517Y-74496091D01*
X116898516Y-74496091D01*
X116905444Y-74496835D01*
X116958127Y-74502500D01*
X118753872Y-74502499D01*
X118813483Y-74496091D01*
X118948331Y-74445796D01*
X119063546Y-74359546D01*
X119149796Y-74244331D01*
X119200091Y-74109483D01*
X119206500Y-74049873D01*
X119206499Y-72254128D01*
X119200091Y-72194517D01*
X119198359Y-72189874D01*
X119172298Y-72120000D01*
X123254357Y-72120000D01*
X123274884Y-72341535D01*
X123274885Y-72341537D01*
X123335769Y-72555523D01*
X123335775Y-72555538D01*
X123434938Y-72754683D01*
X123434943Y-72754691D01*
X123569020Y-72932238D01*
X123733437Y-73082123D01*
X123733439Y-73082125D01*
X123922595Y-73199245D01*
X123922596Y-73199245D01*
X123922599Y-73199247D01*
X124130060Y-73279618D01*
X124348757Y-73320500D01*
X124348759Y-73320500D01*
X124571241Y-73320500D01*
X124571243Y-73320500D01*
X124789940Y-73279618D01*
X124997401Y-73199247D01*
X125186562Y-73082124D01*
X125350981Y-72932236D01*
X125485058Y-72754689D01*
X125540175Y-72644000D01*
X132382357Y-72644000D01*
X132402884Y-72865535D01*
X132402885Y-72865537D01*
X132463769Y-73079523D01*
X132463775Y-73079538D01*
X132562938Y-73278683D01*
X132562943Y-73278691D01*
X132697020Y-73456238D01*
X132861437Y-73606123D01*
X132861439Y-73606125D01*
X133050595Y-73723245D01*
X133050596Y-73723245D01*
X133050599Y-73723247D01*
X133258060Y-73803618D01*
X133476757Y-73844500D01*
X133476759Y-73844500D01*
X133699241Y-73844500D01*
X133699243Y-73844500D01*
X133917940Y-73803618D01*
X134125401Y-73723247D01*
X134314562Y-73606124D01*
X134478981Y-73456236D01*
X134613058Y-73278689D01*
X134712229Y-73079528D01*
X134773115Y-72865536D01*
X134793643Y-72644000D01*
X137462357Y-72644000D01*
X137482884Y-72865535D01*
X137482885Y-72865537D01*
X137543769Y-73079523D01*
X137543775Y-73079538D01*
X137642938Y-73278683D01*
X137642943Y-73278691D01*
X137777020Y-73456238D01*
X137941437Y-73606123D01*
X137941439Y-73606125D01*
X138130595Y-73723245D01*
X138130596Y-73723245D01*
X138130599Y-73723247D01*
X138338060Y-73803618D01*
X138556757Y-73844500D01*
X138556759Y-73844500D01*
X138779241Y-73844500D01*
X138779243Y-73844500D01*
X138997940Y-73803618D01*
X139205401Y-73723247D01*
X139394562Y-73606124D01*
X139558981Y-73456236D01*
X139693058Y-73278689D01*
X139792229Y-73079528D01*
X139853115Y-72865536D01*
X139873643Y-72644000D01*
X139853115Y-72422464D01*
X139792229Y-72208472D01*
X139792224Y-72208461D01*
X139693061Y-72009316D01*
X139693056Y-72009308D01*
X139558979Y-71831761D01*
X139394562Y-71681876D01*
X139394560Y-71681874D01*
X139205404Y-71564754D01*
X139205398Y-71564752D01*
X138997940Y-71484382D01*
X138779243Y-71443500D01*
X138556757Y-71443500D01*
X138338060Y-71484382D01*
X138206864Y-71535207D01*
X138130601Y-71564752D01*
X138130595Y-71564754D01*
X137941439Y-71681874D01*
X137941437Y-71681876D01*
X137777020Y-71831761D01*
X137642943Y-72009308D01*
X137642938Y-72009316D01*
X137543775Y-72208461D01*
X137543769Y-72208476D01*
X137482885Y-72422462D01*
X137482884Y-72422464D01*
X137462357Y-72643999D01*
X137462357Y-72644000D01*
X134793643Y-72644000D01*
X134773115Y-72422464D01*
X134712229Y-72208472D01*
X134712224Y-72208461D01*
X134613061Y-72009316D01*
X134613056Y-72009308D01*
X134478979Y-71831761D01*
X134314562Y-71681876D01*
X134314560Y-71681874D01*
X134125404Y-71564754D01*
X134125398Y-71564752D01*
X133917940Y-71484382D01*
X133699243Y-71443500D01*
X133476757Y-71443500D01*
X133258060Y-71484382D01*
X133126864Y-71535207D01*
X133050601Y-71564752D01*
X133050595Y-71564754D01*
X132861439Y-71681874D01*
X132861437Y-71681876D01*
X132697020Y-71831761D01*
X132562943Y-72009308D01*
X132562938Y-72009316D01*
X132463775Y-72208461D01*
X132463769Y-72208476D01*
X132402885Y-72422462D01*
X132402884Y-72422464D01*
X132382357Y-72643999D01*
X132382357Y-72644000D01*
X125540175Y-72644000D01*
X125584229Y-72555528D01*
X125645115Y-72341536D01*
X125665643Y-72120000D01*
X125645115Y-71898464D01*
X125584229Y-71684472D01*
X125584224Y-71684461D01*
X125485061Y-71485316D01*
X125485056Y-71485308D01*
X125350979Y-71307761D01*
X125186562Y-71157876D01*
X125186560Y-71157874D01*
X124997404Y-71040754D01*
X124997398Y-71040752D01*
X124789940Y-70960382D01*
X124571243Y-70919500D01*
X124348757Y-70919500D01*
X124130060Y-70960382D01*
X124022962Y-71001872D01*
X123922601Y-71040752D01*
X123922595Y-71040754D01*
X123733439Y-71157874D01*
X123733437Y-71157876D01*
X123569020Y-71307761D01*
X123434943Y-71485308D01*
X123434938Y-71485316D01*
X123335775Y-71684461D01*
X123335769Y-71684476D01*
X123274885Y-71898462D01*
X123274884Y-71898464D01*
X123254357Y-72119999D01*
X123254357Y-72120000D01*
X119172298Y-72120000D01*
X119149797Y-72059671D01*
X119149793Y-72059664D01*
X119063547Y-71944455D01*
X119063544Y-71944452D01*
X118948335Y-71858206D01*
X118948328Y-71858202D01*
X118816917Y-71809189D01*
X118760983Y-71767318D01*
X118736566Y-71701853D01*
X118751418Y-71633580D01*
X118772563Y-71605332D01*
X118894495Y-71483401D01*
X119030035Y-71289830D01*
X119129903Y-71075663D01*
X119191063Y-70847408D01*
X119211659Y-70612000D01*
X119191063Y-70376592D01*
X119129903Y-70148337D01*
X119059333Y-69997000D01*
X141900341Y-69997000D01*
X141920936Y-70232403D01*
X141920938Y-70232413D01*
X141982094Y-70460655D01*
X141982096Y-70460659D01*
X141982097Y-70460663D01*
X142015714Y-70532754D01*
X142081965Y-70674830D01*
X142081967Y-70674834D01*
X142169443Y-70799761D01*
X142217501Y-70868396D01*
X142217506Y-70868402D01*
X142339430Y-70990326D01*
X142372915Y-71051649D01*
X142367931Y-71121341D01*
X142326059Y-71177274D01*
X142295083Y-71194189D01*
X142163669Y-71243203D01*
X142163664Y-71243206D01*
X142048455Y-71329452D01*
X142048452Y-71329455D01*
X141962206Y-71444664D01*
X141962202Y-71444671D01*
X141911908Y-71579517D01*
X141906938Y-71625752D01*
X141905501Y-71639123D01*
X141905500Y-71639135D01*
X141905500Y-73434870D01*
X141905501Y-73434876D01*
X141911908Y-73494483D01*
X141962202Y-73629328D01*
X141962206Y-73629335D01*
X142048452Y-73744544D01*
X142048455Y-73744547D01*
X142163664Y-73830793D01*
X142163671Y-73830797D01*
X142298517Y-73881091D01*
X142298516Y-73881091D01*
X142305444Y-73881835D01*
X142358127Y-73887500D01*
X144153872Y-73887499D01*
X144213483Y-73881091D01*
X144348331Y-73830796D01*
X144463546Y-73744546D01*
X144549796Y-73629331D01*
X144600091Y-73494483D01*
X144605062Y-73448242D01*
X144631799Y-73383694D01*
X144689191Y-73343846D01*
X144728351Y-73337500D01*
X153126992Y-73337500D01*
X153194031Y-73357185D01*
X153239786Y-73409989D01*
X153246258Y-73427566D01*
X153291769Y-73587523D01*
X153291775Y-73587538D01*
X153390938Y-73786683D01*
X153390943Y-73786691D01*
X153525020Y-73964238D01*
X153689437Y-74114123D01*
X153689439Y-74114125D01*
X153878595Y-74231245D01*
X153878596Y-74231245D01*
X153878599Y-74231247D01*
X154086060Y-74311618D01*
X154304757Y-74352500D01*
X154304759Y-74352500D01*
X154527241Y-74352500D01*
X154527243Y-74352500D01*
X154745940Y-74311618D01*
X154953401Y-74231247D01*
X155142562Y-74114124D01*
X155306981Y-73964236D01*
X155441058Y-73786689D01*
X155540229Y-73587528D01*
X155601115Y-73373536D01*
X155621643Y-73152000D01*
X155601115Y-72930464D01*
X155540229Y-72716472D01*
X155540224Y-72716461D01*
X155441061Y-72517316D01*
X155441056Y-72517308D01*
X155306979Y-72339761D01*
X155142562Y-72189876D01*
X155142560Y-72189874D01*
X154953404Y-72072754D01*
X154953398Y-72072752D01*
X154745940Y-71992382D01*
X154527243Y-71951500D01*
X154527241Y-71951500D01*
X154398940Y-71951500D01*
X154331901Y-71931815D01*
X154311259Y-71915181D01*
X154303263Y-71907185D01*
X154303258Y-71907181D01*
X154267904Y-71884966D01*
X154262229Y-71880940D01*
X154229589Y-71854910D01*
X154191959Y-71836787D01*
X154185872Y-71833422D01*
X154150525Y-71811212D01*
X154111114Y-71797421D01*
X154104688Y-71794759D01*
X154067061Y-71776639D01*
X154026345Y-71767345D01*
X154019662Y-71765420D01*
X153980259Y-71751632D01*
X153938763Y-71746955D01*
X153931908Y-71745791D01*
X153891200Y-71736501D01*
X153891196Y-71736500D01*
X153891194Y-71736500D01*
X153891191Y-71736500D01*
X144728351Y-71736500D01*
X144661312Y-71716815D01*
X144615557Y-71664011D01*
X144605061Y-71625752D01*
X144600091Y-71579516D01*
X144549797Y-71444671D01*
X144549793Y-71444664D01*
X144463547Y-71329455D01*
X144463544Y-71329452D01*
X144348335Y-71243206D01*
X144348328Y-71243202D01*
X144216917Y-71194189D01*
X144160983Y-71152318D01*
X144136566Y-71086853D01*
X144151418Y-71018580D01*
X144163926Y-71001870D01*
X162225500Y-71001870D01*
X162225501Y-71001876D01*
X162231908Y-71061483D01*
X162282202Y-71196328D01*
X162282206Y-71196335D01*
X162368452Y-71311544D01*
X162368455Y-71311547D01*
X162483664Y-71397793D01*
X162483671Y-71397797D01*
X162618517Y-71448091D01*
X162618516Y-71448091D01*
X162625444Y-71448835D01*
X162678127Y-71454500D01*
X164473872Y-71454499D01*
X164533483Y-71448091D01*
X164668331Y-71397796D01*
X164783546Y-71311546D01*
X164869796Y-71196331D01*
X164920091Y-71061483D01*
X164926500Y-71001873D01*
X164926499Y-69206128D01*
X164921299Y-69157757D01*
X164920091Y-69146516D01*
X164869797Y-69011671D01*
X164869793Y-69011664D01*
X164783547Y-68896455D01*
X164783544Y-68896452D01*
X164668335Y-68810206D01*
X164668328Y-68810202D01*
X164533482Y-68759908D01*
X164533483Y-68759908D01*
X164473883Y-68753501D01*
X164473881Y-68753500D01*
X164473873Y-68753500D01*
X164473864Y-68753500D01*
X162678129Y-68753500D01*
X162678123Y-68753501D01*
X162618516Y-68759908D01*
X162483671Y-68810202D01*
X162483664Y-68810206D01*
X162368455Y-68896452D01*
X162368452Y-68896455D01*
X162282206Y-69011664D01*
X162282202Y-69011671D01*
X162231908Y-69146517D01*
X162226535Y-69196500D01*
X162225501Y-69206123D01*
X162225500Y-69206135D01*
X162225500Y-71001870D01*
X144163926Y-71001870D01*
X144172563Y-70990332D01*
X144294495Y-70868401D01*
X144430035Y-70674830D01*
X144529903Y-70460663D01*
X144591063Y-70232408D01*
X144611659Y-69997000D01*
X144591063Y-69761592D01*
X144529903Y-69533337D01*
X144430035Y-69319171D01*
X144386605Y-69257145D01*
X144294494Y-69125597D01*
X144127402Y-68958506D01*
X144127396Y-68958501D01*
X143941842Y-68828575D01*
X143898217Y-68773998D01*
X143891023Y-68704500D01*
X143922546Y-68642145D01*
X143941842Y-68625425D01*
X143964026Y-68609891D01*
X144127401Y-68495495D01*
X144294495Y-68328401D01*
X144430035Y-68134830D01*
X144459333Y-68072000D01*
X153210356Y-68072000D01*
X153230884Y-68293535D01*
X153230885Y-68293537D01*
X153291769Y-68507523D01*
X153291775Y-68507538D01*
X153390938Y-68706683D01*
X153390943Y-68706691D01*
X153525020Y-68884238D01*
X153689437Y-69034123D01*
X153689439Y-69034125D01*
X153878595Y-69151245D01*
X153878596Y-69151245D01*
X153878599Y-69151247D01*
X154086060Y-69231618D01*
X154304757Y-69272500D01*
X154304759Y-69272500D01*
X154527241Y-69272500D01*
X154527243Y-69272500D01*
X154745940Y-69231618D01*
X154953401Y-69151247D01*
X155142562Y-69034124D01*
X155282282Y-68906751D01*
X155306979Y-68884238D01*
X155353251Y-68822965D01*
X155441058Y-68706689D01*
X155540229Y-68507528D01*
X155601115Y-68293536D01*
X155621643Y-68072000D01*
X155601115Y-67850464D01*
X155540229Y-67636472D01*
X155540224Y-67636461D01*
X155441061Y-67437316D01*
X155441056Y-67437308D01*
X155306979Y-67259761D01*
X155142562Y-67109876D01*
X155142560Y-67109874D01*
X154953404Y-66992754D01*
X154953398Y-66992752D01*
X154745940Y-66912382D01*
X154527243Y-66871500D01*
X154304757Y-66871500D01*
X154086060Y-66912382D01*
X153954864Y-66963207D01*
X153878601Y-66992752D01*
X153878595Y-66992754D01*
X153689439Y-67109874D01*
X153689437Y-67109876D01*
X153525020Y-67259761D01*
X153390943Y-67437308D01*
X153390938Y-67437316D01*
X153291775Y-67636461D01*
X153291769Y-67636476D01*
X153230885Y-67850462D01*
X153230884Y-67850464D01*
X153210356Y-68071999D01*
X153210356Y-68072000D01*
X144459333Y-68072000D01*
X144529903Y-67920663D01*
X144591063Y-67692408D01*
X144611659Y-67457000D01*
X144591063Y-67221592D01*
X144529903Y-66993337D01*
X144430035Y-66779171D01*
X144412086Y-66753536D01*
X144294494Y-66585597D01*
X144127402Y-66418506D01*
X144127395Y-66418501D01*
X143933834Y-66282967D01*
X143933830Y-66282965D01*
X143815451Y-66227764D01*
X143719663Y-66183097D01*
X143719659Y-66183096D01*
X143719655Y-66183094D01*
X143491413Y-66121938D01*
X143491403Y-66121936D01*
X143256001Y-66101341D01*
X143255999Y-66101341D01*
X143020596Y-66121936D01*
X143020586Y-66121938D01*
X142792344Y-66183094D01*
X142792335Y-66183098D01*
X142578171Y-66282964D01*
X142578169Y-66282965D01*
X142384597Y-66418505D01*
X142217505Y-66585597D01*
X142081965Y-66779169D01*
X142081964Y-66779171D01*
X141982098Y-66993335D01*
X141982094Y-66993344D01*
X141920938Y-67221586D01*
X141920936Y-67221596D01*
X141900341Y-67456999D01*
X141900341Y-67457000D01*
X141920936Y-67692403D01*
X141920938Y-67692413D01*
X141982094Y-67920655D01*
X141982096Y-67920659D01*
X141982097Y-67920663D01*
X142052666Y-68071999D01*
X142081965Y-68134830D01*
X142081967Y-68134834D01*
X142217501Y-68328395D01*
X142217506Y-68328402D01*
X142384597Y-68495493D01*
X142384603Y-68495498D01*
X142570158Y-68625425D01*
X142613783Y-68680002D01*
X142620977Y-68749500D01*
X142589454Y-68811855D01*
X142570158Y-68828575D01*
X142384597Y-68958505D01*
X142217505Y-69125597D01*
X142081965Y-69319169D01*
X142081964Y-69319171D01*
X141982098Y-69533335D01*
X141982094Y-69533344D01*
X141920938Y-69761586D01*
X141920936Y-69761596D01*
X141900341Y-69996999D01*
X141900341Y-69997000D01*
X119059333Y-69997000D01*
X119030035Y-69934171D01*
X118970404Y-69849008D01*
X118894494Y-69740597D01*
X118727402Y-69573506D01*
X118727396Y-69573501D01*
X118541842Y-69443575D01*
X118498217Y-69388998D01*
X118491023Y-69319500D01*
X118522546Y-69257145D01*
X118541842Y-69240425D01*
X118604573Y-69196500D01*
X118727401Y-69110495D01*
X118894495Y-68943401D01*
X119030035Y-68749830D01*
X119129903Y-68535663D01*
X119191063Y-68307408D01*
X119211659Y-68072000D01*
X119191063Y-67836592D01*
X119129903Y-67608337D01*
X119030035Y-67394171D01*
X119012284Y-67368819D01*
X118894494Y-67200597D01*
X118733896Y-67040000D01*
X123254357Y-67040000D01*
X123274884Y-67261535D01*
X123274885Y-67261537D01*
X123335769Y-67475523D01*
X123335775Y-67475538D01*
X123434938Y-67674683D01*
X123434943Y-67674691D01*
X123569020Y-67852238D01*
X123733437Y-68002123D01*
X123733439Y-68002125D01*
X123922595Y-68119245D01*
X123922596Y-68119245D01*
X123922599Y-68119247D01*
X124130060Y-68199618D01*
X124348757Y-68240500D01*
X124348759Y-68240500D01*
X124571241Y-68240500D01*
X124571243Y-68240500D01*
X124789940Y-68199618D01*
X124997401Y-68119247D01*
X125186562Y-68002124D01*
X125350981Y-67852236D01*
X125485058Y-67674689D01*
X125584229Y-67475528D01*
X125645115Y-67261536D01*
X125665643Y-67040000D01*
X125645115Y-66818464D01*
X125584229Y-66604472D01*
X125581667Y-66599326D01*
X125485061Y-66405316D01*
X125485056Y-66405308D01*
X125350979Y-66227761D01*
X125186562Y-66077876D01*
X125186560Y-66077874D01*
X124997404Y-65960754D01*
X124997398Y-65960752D01*
X124789940Y-65880382D01*
X124571243Y-65839500D01*
X124348757Y-65839500D01*
X124130060Y-65880382D01*
X124073783Y-65902184D01*
X123922601Y-65960752D01*
X123922595Y-65960754D01*
X123733439Y-66077874D01*
X123733437Y-66077876D01*
X123569020Y-66227761D01*
X123434943Y-66405308D01*
X123434938Y-66405316D01*
X123335775Y-66604461D01*
X123335769Y-66604476D01*
X123274885Y-66818462D01*
X123274884Y-66818464D01*
X123254357Y-67039999D01*
X123254357Y-67040000D01*
X118733896Y-67040000D01*
X118727402Y-67033506D01*
X118727395Y-67033501D01*
X118533834Y-66897967D01*
X118533830Y-66897965D01*
X118533830Y-66897964D01*
X118319663Y-66798097D01*
X118319659Y-66798096D01*
X118319655Y-66798094D01*
X118091413Y-66736938D01*
X118091403Y-66736936D01*
X117856001Y-66716341D01*
X117855999Y-66716341D01*
X117620596Y-66736936D01*
X117620586Y-66736938D01*
X117392344Y-66798094D01*
X117392335Y-66798098D01*
X117178171Y-66897964D01*
X117178169Y-66897965D01*
X116984597Y-67033505D01*
X116817505Y-67200597D01*
X116681965Y-67394169D01*
X116681964Y-67394171D01*
X116582098Y-67608335D01*
X116582094Y-67608344D01*
X116520938Y-67836586D01*
X116520936Y-67836596D01*
X116500341Y-68071999D01*
X116500341Y-68072000D01*
X116520936Y-68307403D01*
X116520938Y-68307413D01*
X116582094Y-68535655D01*
X116582096Y-68535659D01*
X116582097Y-68535663D01*
X116623954Y-68625425D01*
X116681965Y-68749830D01*
X116681967Y-68749834D01*
X116817501Y-68943395D01*
X116817506Y-68943402D01*
X116984597Y-69110493D01*
X116984603Y-69110498D01*
X117170158Y-69240425D01*
X117213783Y-69295002D01*
X117220977Y-69364500D01*
X117189454Y-69426855D01*
X117170158Y-69443575D01*
X116984597Y-69573505D01*
X116817505Y-69740597D01*
X116681965Y-69934169D01*
X116681964Y-69934171D01*
X116582098Y-70148335D01*
X116582094Y-70148344D01*
X116520938Y-70376586D01*
X116520936Y-70376596D01*
X116500341Y-70611999D01*
X116500341Y-70612000D01*
X99725391Y-70612000D01*
X99597404Y-70532754D01*
X99597398Y-70532752D01*
X99389940Y-70452382D01*
X99171243Y-70411500D01*
X98948757Y-70411500D01*
X98730060Y-70452382D01*
X98654075Y-70481819D01*
X98522601Y-70532752D01*
X98522595Y-70532754D01*
X98333439Y-70649874D01*
X98333437Y-70649876D01*
X98169020Y-70799761D01*
X98034943Y-70977308D01*
X98034938Y-70977316D01*
X97935775Y-71176461D01*
X97935769Y-71176476D01*
X97874885Y-71390462D01*
X97874884Y-71390464D01*
X97854357Y-71611999D01*
X97854357Y-71612000D01*
X93803582Y-71612000D01*
X93800091Y-71579517D01*
X93794584Y-71564753D01*
X93749797Y-71444671D01*
X93749793Y-71444664D01*
X93663547Y-71329455D01*
X93663544Y-71329452D01*
X93548335Y-71243206D01*
X93548328Y-71243202D01*
X93416917Y-71194189D01*
X93360983Y-71152318D01*
X93336566Y-71086853D01*
X93351418Y-71018580D01*
X93372563Y-70990332D01*
X93494495Y-70868401D01*
X93507116Y-70850375D01*
X93561693Y-70806752D01*
X93608691Y-70797500D01*
X95685194Y-70797500D01*
X95725903Y-70788208D01*
X95732760Y-70787043D01*
X95774255Y-70782368D01*
X95813680Y-70768571D01*
X95820321Y-70766658D01*
X95861061Y-70757360D01*
X95898693Y-70739236D01*
X95905105Y-70736580D01*
X95944522Y-70722789D01*
X95979889Y-70700565D01*
X95985961Y-70697209D01*
X96023587Y-70679091D01*
X96056236Y-70653052D01*
X96061895Y-70649037D01*
X96097262Y-70626816D01*
X96224816Y-70499262D01*
X96224816Y-70499261D01*
X98955258Y-67768819D01*
X99016582Y-67735334D01*
X99042940Y-67732500D01*
X99171241Y-67732500D01*
X99171243Y-67732500D01*
X99389940Y-67691618D01*
X99597401Y-67611247D01*
X99786562Y-67494124D01*
X99928354Y-67364863D01*
X99950979Y-67344238D01*
X99959844Y-67332500D01*
X100085058Y-67166689D01*
X100184229Y-66967528D01*
X100245115Y-66753536D01*
X100265643Y-66532000D01*
X100245115Y-66310464D01*
X100184229Y-66096472D01*
X100184224Y-66096461D01*
X100085061Y-65897316D01*
X100085056Y-65897308D01*
X99950979Y-65719761D01*
X99786562Y-65569876D01*
X99786560Y-65569874D01*
X99597404Y-65452754D01*
X99597398Y-65452752D01*
X99389940Y-65372382D01*
X99171243Y-65331500D01*
X98948757Y-65331500D01*
X98730060Y-65372382D01*
X98598864Y-65423207D01*
X98522601Y-65452752D01*
X98522595Y-65452754D01*
X98333439Y-65569874D01*
X98333437Y-65569876D01*
X98169020Y-65719761D01*
X98034943Y-65897308D01*
X98034938Y-65897316D01*
X97935775Y-66096461D01*
X97935769Y-66096476D01*
X97874885Y-66310462D01*
X97874884Y-66310464D01*
X97854357Y-66531998D01*
X97855225Y-66541370D01*
X97841806Y-66609939D01*
X97819434Y-66640486D01*
X95299741Y-69160181D01*
X95238418Y-69193666D01*
X95212060Y-69196500D01*
X93608691Y-69196500D01*
X93541652Y-69176815D01*
X93507116Y-69143624D01*
X93494491Y-69125594D01*
X93327402Y-68958506D01*
X93327396Y-68958501D01*
X93141842Y-68828575D01*
X93098217Y-68773998D01*
X93091023Y-68704500D01*
X93122546Y-68642145D01*
X93141842Y-68625425D01*
X93164026Y-68609891D01*
X93327401Y-68495495D01*
X93494495Y-68328401D01*
X93630035Y-68134830D01*
X93729903Y-67920663D01*
X93791063Y-67692408D01*
X93811659Y-67457000D01*
X93791063Y-67221592D01*
X93729903Y-66993337D01*
X93630035Y-66779171D01*
X93612086Y-66753536D01*
X93494494Y-66585597D01*
X93327402Y-66418506D01*
X93327395Y-66418501D01*
X93133834Y-66282967D01*
X93133830Y-66282965D01*
X93015451Y-66227764D01*
X92919663Y-66183097D01*
X92919659Y-66183096D01*
X92919655Y-66183094D01*
X92691413Y-66121938D01*
X92691403Y-66121936D01*
X92456001Y-66101341D01*
X92455999Y-66101341D01*
X92220596Y-66121936D01*
X92220586Y-66121938D01*
X91992344Y-66183094D01*
X91992335Y-66183098D01*
X91778171Y-66282964D01*
X91778169Y-66282965D01*
X91584597Y-66418505D01*
X91417505Y-66585597D01*
X91281965Y-66779169D01*
X91281964Y-66779171D01*
X91182098Y-66993335D01*
X91182094Y-66993344D01*
X91120938Y-67221586D01*
X91120936Y-67221596D01*
X91100341Y-67456999D01*
X91100341Y-67457000D01*
X91120936Y-67692403D01*
X91120938Y-67692413D01*
X91182094Y-67920655D01*
X91182096Y-67920659D01*
X91182097Y-67920663D01*
X91252666Y-68071999D01*
X91281965Y-68134830D01*
X91281967Y-68134834D01*
X91417501Y-68328395D01*
X91417506Y-68328402D01*
X91584597Y-68495493D01*
X91584603Y-68495498D01*
X91770158Y-68625425D01*
X91813783Y-68680002D01*
X91820977Y-68749500D01*
X91789454Y-68811855D01*
X91770158Y-68828575D01*
X91584597Y-68958505D01*
X91417505Y-69125597D01*
X91281965Y-69319169D01*
X91281964Y-69319171D01*
X91182098Y-69533335D01*
X91182094Y-69533344D01*
X91120938Y-69761586D01*
X91120936Y-69761596D01*
X91100341Y-69996999D01*
X91100341Y-69997000D01*
X91120936Y-70232403D01*
X91120938Y-70232413D01*
X91182094Y-70460655D01*
X91182096Y-70460659D01*
X91182097Y-70460663D01*
X91215714Y-70532754D01*
X91281965Y-70674830D01*
X91281967Y-70674834D01*
X91369443Y-70799761D01*
X91417501Y-70868396D01*
X91417506Y-70868402D01*
X91539430Y-70990326D01*
X91572915Y-71051649D01*
X91567931Y-71121341D01*
X91526059Y-71177274D01*
X91495083Y-71194189D01*
X91363669Y-71243203D01*
X91363664Y-71243206D01*
X91248455Y-71329452D01*
X91248452Y-71329455D01*
X91162206Y-71444664D01*
X91162202Y-71444671D01*
X91111908Y-71579517D01*
X91106938Y-71625752D01*
X91105501Y-71639123D01*
X91105500Y-71639135D01*
X91105500Y-73434870D01*
X91105501Y-73434876D01*
X91111908Y-73494483D01*
X91162202Y-73629328D01*
X91162206Y-73629335D01*
X91248452Y-73744544D01*
X91248455Y-73744547D01*
X91363664Y-73830793D01*
X91363671Y-73830797D01*
X91498517Y-73881091D01*
X91498516Y-73881091D01*
X91505444Y-73881835D01*
X91558127Y-73887500D01*
X92623059Y-73887499D01*
X92690098Y-73907183D01*
X92710740Y-73923818D01*
X94613181Y-75826259D01*
X94646666Y-75887582D01*
X94649500Y-75913940D01*
X94649500Y-99077059D01*
X94629815Y-99144098D01*
X94613181Y-99164740D01*
X93613589Y-100164331D01*
X93552266Y-100197816D01*
X93482574Y-100192832D01*
X93438227Y-100164331D01*
X93327402Y-100053506D01*
X93327401Y-100053505D01*
X93181606Y-99951418D01*
X93141841Y-99923574D01*
X93098216Y-99868997D01*
X93091024Y-99799498D01*
X93122546Y-99737144D01*
X93141836Y-99720428D01*
X93327401Y-99590495D01*
X93494495Y-99423401D01*
X93630035Y-99229830D01*
X93729903Y-99015663D01*
X93791063Y-98787408D01*
X93811659Y-98552000D01*
X93791063Y-98316592D01*
X93729903Y-98088337D01*
X93630035Y-97874171D01*
X93615374Y-97853232D01*
X93494494Y-97680597D01*
X93327402Y-97513506D01*
X93327395Y-97513501D01*
X93133834Y-97377967D01*
X93133830Y-97377965D01*
X93133828Y-97377964D01*
X92919663Y-97278097D01*
X92919659Y-97278096D01*
X92919655Y-97278094D01*
X92691413Y-97216938D01*
X92691403Y-97216936D01*
X92456001Y-97196341D01*
X92455999Y-97196341D01*
X92220596Y-97216936D01*
X92220586Y-97216938D01*
X91992344Y-97278094D01*
X91992335Y-97278098D01*
X91778171Y-97377964D01*
X91778169Y-97377965D01*
X91584597Y-97513505D01*
X91417505Y-97680597D01*
X91281965Y-97874169D01*
X91281964Y-97874171D01*
X91188401Y-98074816D01*
X91187129Y-98077547D01*
X91182098Y-98088335D01*
X91182094Y-98088344D01*
X91120938Y-98316586D01*
X91120936Y-98316596D01*
X91100341Y-98551999D01*
X91100341Y-98552000D01*
X91120936Y-98787403D01*
X91120938Y-98787413D01*
X91182094Y-99015655D01*
X91182096Y-99015659D01*
X91182097Y-99015663D01*
X91251613Y-99164740D01*
X91281965Y-99229830D01*
X91281967Y-99229834D01*
X91417501Y-99423395D01*
X91417506Y-99423402D01*
X91584597Y-99590493D01*
X91584603Y-99590498D01*
X91770158Y-99720425D01*
X91813783Y-99775002D01*
X91820977Y-99844500D01*
X91789454Y-99906855D01*
X91770158Y-99923575D01*
X91584597Y-100053505D01*
X91417505Y-100220597D01*
X91281965Y-100414169D01*
X91281964Y-100414171D01*
X91182098Y-100628335D01*
X91182094Y-100628344D01*
X91120938Y-100856586D01*
X91120936Y-100856596D01*
X91100341Y-101091999D01*
X91100341Y-101092000D01*
X74808077Y-101092000D01*
X76111258Y-99788818D01*
X76172582Y-99755334D01*
X76198940Y-99752500D01*
X76327241Y-99752500D01*
X76327243Y-99752500D01*
X76545940Y-99711618D01*
X76753401Y-99631247D01*
X76942562Y-99514124D01*
X77106981Y-99364236D01*
X77241058Y-99186689D01*
X77340229Y-98987528D01*
X77401115Y-98773536D01*
X77421643Y-98552000D01*
X77401115Y-98330464D01*
X77340229Y-98116472D01*
X77340224Y-98116461D01*
X77241061Y-97917316D01*
X77241056Y-97917308D01*
X77106979Y-97739761D01*
X76942562Y-97589876D01*
X76942560Y-97589874D01*
X76753404Y-97472754D01*
X76753398Y-97472752D01*
X76545940Y-97392382D01*
X76327243Y-97351500D01*
X76104757Y-97351500D01*
X75886060Y-97392382D01*
X75754864Y-97443207D01*
X75678601Y-97472752D01*
X75678595Y-97472754D01*
X75489439Y-97589874D01*
X75489437Y-97589876D01*
X75325020Y-97739761D01*
X75190943Y-97917308D01*
X75190938Y-97917316D01*
X75091775Y-98116461D01*
X75091769Y-98116476D01*
X75030885Y-98330462D01*
X75030884Y-98330464D01*
X75010357Y-98551998D01*
X75011225Y-98561370D01*
X74997806Y-98629939D01*
X74975434Y-98660486D01*
X73380741Y-100255181D01*
X73319418Y-100288666D01*
X73293060Y-100291500D01*
X68208691Y-100291500D01*
X68141652Y-100271815D01*
X68107116Y-100238624D01*
X68094495Y-100220599D01*
X68094493Y-100220597D01*
X68094491Y-100220594D01*
X67927402Y-100053506D01*
X67927401Y-100053505D01*
X67781606Y-99951418D01*
X67741841Y-99923574D01*
X67698216Y-99868997D01*
X67691024Y-99799498D01*
X67722546Y-99737144D01*
X67741836Y-99720428D01*
X67927401Y-99590495D01*
X68094495Y-99423401D01*
X68230035Y-99229830D01*
X68329903Y-99015663D01*
X68391063Y-98787408D01*
X68411659Y-98552000D01*
X68391063Y-98316592D01*
X68329903Y-98088337D01*
X68230035Y-97874171D01*
X68215374Y-97853232D01*
X68094494Y-97680597D01*
X67927402Y-97513506D01*
X67927395Y-97513501D01*
X67733834Y-97377967D01*
X67733830Y-97377965D01*
X67733828Y-97377964D01*
X67519663Y-97278097D01*
X67519659Y-97278096D01*
X67519655Y-97278094D01*
X67291413Y-97216938D01*
X67291403Y-97216936D01*
X67056001Y-97196341D01*
X67055999Y-97196341D01*
X66820596Y-97216936D01*
X66820586Y-97216938D01*
X66592344Y-97278094D01*
X66592335Y-97278098D01*
X66378171Y-97377964D01*
X66378169Y-97377965D01*
X66184597Y-97513505D01*
X66017505Y-97680597D01*
X65881965Y-97874169D01*
X65881964Y-97874171D01*
X65788401Y-98074816D01*
X65787129Y-98077547D01*
X65782098Y-98088335D01*
X65782094Y-98088344D01*
X65720938Y-98316586D01*
X65720936Y-98316596D01*
X65700341Y-98551999D01*
X65700341Y-98552000D01*
X65720936Y-98787403D01*
X65720938Y-98787413D01*
X65782094Y-99015655D01*
X65782096Y-99015659D01*
X65782097Y-99015663D01*
X65851613Y-99164740D01*
X65881965Y-99229830D01*
X65881967Y-99229834D01*
X66017501Y-99423395D01*
X66017506Y-99423402D01*
X66184597Y-99590493D01*
X66184603Y-99590498D01*
X66370158Y-99720425D01*
X66413783Y-99775002D01*
X66420977Y-99844500D01*
X66389454Y-99906855D01*
X66370158Y-99923575D01*
X66184597Y-100053505D01*
X66017505Y-100220597D01*
X65881965Y-100414169D01*
X65881964Y-100414171D01*
X65782098Y-100628335D01*
X65782094Y-100628344D01*
X65720938Y-100856586D01*
X65720936Y-100856596D01*
X65700341Y-101091999D01*
X65700341Y-101092000D01*
X53290000Y-101092000D01*
X53290000Y-69997000D01*
X65700341Y-69997000D01*
X65720936Y-70232403D01*
X65720938Y-70232413D01*
X65782094Y-70460655D01*
X65782096Y-70460659D01*
X65782097Y-70460663D01*
X65815714Y-70532754D01*
X65881965Y-70674830D01*
X65881967Y-70674834D01*
X65969443Y-70799761D01*
X66017501Y-70868396D01*
X66017506Y-70868402D01*
X66139430Y-70990326D01*
X66172915Y-71051649D01*
X66167931Y-71121341D01*
X66126059Y-71177274D01*
X66095083Y-71194189D01*
X65963669Y-71243203D01*
X65963664Y-71243206D01*
X65848455Y-71329452D01*
X65848452Y-71329455D01*
X65762206Y-71444664D01*
X65762202Y-71444671D01*
X65711908Y-71579517D01*
X65706938Y-71625752D01*
X65705501Y-71639123D01*
X65705500Y-71639135D01*
X65705500Y-73434870D01*
X65705501Y-73434876D01*
X65711908Y-73494483D01*
X65762202Y-73629328D01*
X65762206Y-73629335D01*
X65848452Y-73744544D01*
X65848455Y-73744547D01*
X65963664Y-73830793D01*
X65963671Y-73830797D01*
X66098517Y-73881091D01*
X66098516Y-73881091D01*
X66105444Y-73881835D01*
X66158127Y-73887500D01*
X67953872Y-73887499D01*
X68013483Y-73881091D01*
X68148331Y-73830796D01*
X68263546Y-73744546D01*
X68349796Y-73629331D01*
X68400091Y-73494483D01*
X68406500Y-73434873D01*
X68406499Y-71639128D01*
X68403583Y-71612000D01*
X72962357Y-71612000D01*
X72982884Y-71833535D01*
X72982885Y-71833537D01*
X73043769Y-72047523D01*
X73043775Y-72047538D01*
X73142938Y-72246683D01*
X73142943Y-72246691D01*
X73277020Y-72424238D01*
X73441437Y-72574123D01*
X73441439Y-72574125D01*
X73630595Y-72691245D01*
X73630596Y-72691245D01*
X73630599Y-72691247D01*
X73838060Y-72771618D01*
X74056757Y-72812500D01*
X74056759Y-72812500D01*
X74279241Y-72812500D01*
X74279243Y-72812500D01*
X74497940Y-72771618D01*
X74705401Y-72691247D01*
X74894562Y-72574124D01*
X75058981Y-72424236D01*
X75193058Y-72246689D01*
X75292229Y-72047528D01*
X75353115Y-71833536D01*
X75373643Y-71612000D01*
X75373024Y-71605325D01*
X75353115Y-71390464D01*
X75353114Y-71390462D01*
X75335755Y-71329452D01*
X75292229Y-71176472D01*
X75289522Y-71171035D01*
X75193061Y-70977316D01*
X75193056Y-70977308D01*
X75058979Y-70799761D01*
X74894562Y-70649876D01*
X74894560Y-70649874D01*
X74705404Y-70532754D01*
X74705398Y-70532752D01*
X74497940Y-70452382D01*
X74279243Y-70411500D01*
X74056757Y-70411500D01*
X73838060Y-70452382D01*
X73762075Y-70481819D01*
X73630601Y-70532752D01*
X73630595Y-70532754D01*
X73441439Y-70649874D01*
X73441437Y-70649876D01*
X73277020Y-70799761D01*
X73142943Y-70977308D01*
X73142938Y-70977316D01*
X73043775Y-71176461D01*
X73043769Y-71176476D01*
X72982885Y-71390462D01*
X72982884Y-71390464D01*
X72962357Y-71611999D01*
X72962357Y-71612000D01*
X68403583Y-71612000D01*
X68400091Y-71579517D01*
X68394584Y-71564753D01*
X68349797Y-71444671D01*
X68349793Y-71444664D01*
X68263547Y-71329455D01*
X68263544Y-71329452D01*
X68148335Y-71243206D01*
X68148328Y-71243202D01*
X68016917Y-71194189D01*
X67960983Y-71152318D01*
X67936566Y-71086853D01*
X67951418Y-71018580D01*
X67972563Y-70990332D01*
X68094495Y-70868401D01*
X68230035Y-70674830D01*
X68329903Y-70460663D01*
X68391063Y-70232408D01*
X68411659Y-69997000D01*
X68398710Y-69849005D01*
X68412476Y-69780508D01*
X68434554Y-69750522D01*
X70816258Y-67368819D01*
X70877582Y-67335334D01*
X70903940Y-67332500D01*
X73216108Y-67332500D01*
X73283147Y-67352185D01*
X73299638Y-67364856D01*
X73441438Y-67494124D01*
X73441440Y-67494125D01*
X73441441Y-67494126D01*
X73630595Y-67611245D01*
X73630596Y-67611245D01*
X73630599Y-67611247D01*
X73838060Y-67691618D01*
X74056757Y-67732500D01*
X74056759Y-67732500D01*
X74279241Y-67732500D01*
X74279243Y-67732500D01*
X74497940Y-67691618D01*
X74705401Y-67611247D01*
X74894562Y-67494124D01*
X75036354Y-67364863D01*
X75058979Y-67344238D01*
X75067844Y-67332500D01*
X75193058Y-67166689D01*
X75292229Y-66967528D01*
X75353115Y-66753536D01*
X75373643Y-66532000D01*
X75353115Y-66310464D01*
X75292229Y-66096472D01*
X75292224Y-66096461D01*
X75193061Y-65897316D01*
X75193056Y-65897308D01*
X75058979Y-65719761D01*
X74894562Y-65569876D01*
X74894560Y-65569874D01*
X74705404Y-65452754D01*
X74705398Y-65452752D01*
X74497940Y-65372382D01*
X74279243Y-65331500D01*
X74056757Y-65331500D01*
X73838060Y-65372382D01*
X73706864Y-65423207D01*
X73630601Y-65452752D01*
X73630595Y-65452754D01*
X73441441Y-65569873D01*
X73441437Y-65569876D01*
X73441438Y-65569876D01*
X73299644Y-65699138D01*
X73236843Y-65729754D01*
X73216108Y-65731500D01*
X70611194Y-65731500D01*
X70430806Y-65731500D01*
X70424888Y-65732850D01*
X70390089Y-65740791D01*
X70383235Y-65741955D01*
X70341744Y-65746632D01*
X70302341Y-65760419D01*
X70295659Y-65762344D01*
X70254939Y-65771639D01*
X70217320Y-65789755D01*
X70210895Y-65792416D01*
X70171483Y-65806208D01*
X70171476Y-65806212D01*
X70136120Y-65828427D01*
X70130033Y-65831791D01*
X70092410Y-65849910D01*
X70059769Y-65875941D01*
X70054096Y-65879966D01*
X70018739Y-65902183D01*
X69969307Y-65951614D01*
X69969306Y-65951615D01*
X68603895Y-67317025D01*
X68542572Y-67350510D01*
X68472880Y-67345526D01*
X68416947Y-67303654D01*
X68392686Y-67240148D01*
X68391063Y-67221592D01*
X68329903Y-66993337D01*
X68230035Y-66779171D01*
X68212086Y-66753536D01*
X68094494Y-66585597D01*
X67927402Y-66418506D01*
X67927395Y-66418501D01*
X67733834Y-66282967D01*
X67733830Y-66282965D01*
X67615451Y-66227764D01*
X67519663Y-66183097D01*
X67519659Y-66183096D01*
X67519655Y-66183094D01*
X67291413Y-66121938D01*
X67291403Y-66121936D01*
X67056001Y-66101341D01*
X67055999Y-66101341D01*
X66820596Y-66121936D01*
X66820586Y-66121938D01*
X66592344Y-66183094D01*
X66592335Y-66183098D01*
X66378171Y-66282964D01*
X66378169Y-66282965D01*
X66184597Y-66418505D01*
X66017505Y-66585597D01*
X65881965Y-66779169D01*
X65881964Y-66779171D01*
X65782098Y-66993335D01*
X65782094Y-66993344D01*
X65720938Y-67221586D01*
X65720936Y-67221596D01*
X65700341Y-67456999D01*
X65700341Y-67457000D01*
X65720936Y-67692403D01*
X65720938Y-67692413D01*
X65782094Y-67920655D01*
X65782096Y-67920659D01*
X65782097Y-67920663D01*
X65852666Y-68071999D01*
X65881965Y-68134830D01*
X65881967Y-68134834D01*
X66017501Y-68328395D01*
X66017506Y-68328402D01*
X66184597Y-68495493D01*
X66184603Y-68495498D01*
X66370158Y-68625425D01*
X66413783Y-68680002D01*
X66420977Y-68749500D01*
X66389454Y-68811855D01*
X66370158Y-68828575D01*
X66184597Y-68958505D01*
X66017505Y-69125597D01*
X65881965Y-69319169D01*
X65881964Y-69319171D01*
X65782098Y-69533335D01*
X65782094Y-69533344D01*
X65720938Y-69761586D01*
X65720936Y-69761596D01*
X65700341Y-69996999D01*
X65700341Y-69997000D01*
X53290000Y-69997000D01*
X53290000Y-53729844D01*
X97202000Y-53729844D01*
X97208401Y-53789372D01*
X97208403Y-53789379D01*
X97258645Y-53924086D01*
X97258649Y-53924093D01*
X97344809Y-54039187D01*
X97344812Y-54039190D01*
X97459906Y-54125350D01*
X97459913Y-54125354D01*
X97594620Y-54175596D01*
X97594627Y-54175598D01*
X97654155Y-54181999D01*
X97654172Y-54182000D01*
X98301999Y-54182000D01*
X98301999Y-53444301D01*
X98321683Y-53377262D01*
X98374487Y-53331507D01*
X98443646Y-53321563D01*
X98450380Y-53322531D01*
X98516237Y-53332000D01*
X98516238Y-53332000D01*
X98587762Y-53332000D01*
X98587763Y-53332000D01*
X98660352Y-53321563D01*
X98729510Y-53331507D01*
X98782314Y-53377261D01*
X98801999Y-53444301D01*
X98801999Y-54181999D01*
X98802000Y-54182000D01*
X99449828Y-54182000D01*
X99449844Y-54181999D01*
X99509372Y-54175598D01*
X99509379Y-54175596D01*
X99644086Y-54125354D01*
X99644093Y-54125350D01*
X99759187Y-54039190D01*
X99759190Y-54039187D01*
X99845350Y-53924093D01*
X99845354Y-53924086D01*
X99895596Y-53789379D01*
X99895598Y-53789372D01*
X99901996Y-53729870D01*
X112441500Y-53729870D01*
X112441501Y-53729876D01*
X112447908Y-53789483D01*
X112498202Y-53924328D01*
X112498206Y-53924335D01*
X112584452Y-54039544D01*
X112584455Y-54039547D01*
X112699664Y-54125793D01*
X112699671Y-54125797D01*
X112834517Y-54176091D01*
X112834516Y-54176091D01*
X112841444Y-54176835D01*
X112894127Y-54182500D01*
X114689872Y-54182499D01*
X114749483Y-54176091D01*
X114884331Y-54125796D01*
X114999546Y-54039546D01*
X115085796Y-53924331D01*
X115136091Y-53789483D01*
X115142500Y-53729873D01*
X115142499Y-51934128D01*
X115136091Y-51874517D01*
X115085884Y-51739906D01*
X115085797Y-51739671D01*
X115085793Y-51739664D01*
X114999547Y-51624455D01*
X114999544Y-51624452D01*
X114884335Y-51538206D01*
X114884328Y-51538202D01*
X114749482Y-51487908D01*
X114749483Y-51487908D01*
X114689883Y-51481501D01*
X114689881Y-51481500D01*
X114689873Y-51481500D01*
X114689864Y-51481500D01*
X112894129Y-51481500D01*
X112894123Y-51481501D01*
X112834516Y-51487908D01*
X112699671Y-51538202D01*
X112699664Y-51538206D01*
X112584455Y-51624452D01*
X112584452Y-51624455D01*
X112498206Y-51739664D01*
X112498202Y-51739671D01*
X112447908Y-51874517D01*
X112441501Y-51934116D01*
X112441501Y-51934123D01*
X112441500Y-51934135D01*
X112441500Y-53729870D01*
X99901996Y-53729870D01*
X99901999Y-53729844D01*
X99902000Y-53729827D01*
X99902000Y-53082000D01*
X99165347Y-53082000D01*
X99098308Y-53062315D01*
X99052553Y-53009511D01*
X99042609Y-52940353D01*
X99046369Y-52923067D01*
X99052000Y-52903888D01*
X99052000Y-52760111D01*
X99046369Y-52740933D01*
X99046370Y-52671064D01*
X99084145Y-52612286D01*
X99147701Y-52583262D01*
X99165347Y-52582000D01*
X99902000Y-52582000D01*
X99902000Y-51934172D01*
X99901999Y-51934155D01*
X99895598Y-51874627D01*
X99895596Y-51874620D01*
X99845354Y-51739913D01*
X99845350Y-51739906D01*
X99759190Y-51624812D01*
X99759187Y-51624809D01*
X99644093Y-51538649D01*
X99644086Y-51538645D01*
X99509379Y-51488403D01*
X99509372Y-51488401D01*
X99449844Y-51482000D01*
X98802000Y-51482000D01*
X98801999Y-52219698D01*
X98782314Y-52286738D01*
X98729510Y-52332492D01*
X98660353Y-52342436D01*
X98587764Y-52332000D01*
X98587763Y-52332000D01*
X98516237Y-52332000D01*
X98516233Y-52332000D01*
X98443645Y-52342436D01*
X98374487Y-52332492D01*
X98321684Y-52286736D01*
X98302000Y-52219698D01*
X98302000Y-51482000D01*
X97654155Y-51482000D01*
X97594627Y-51488401D01*
X97594620Y-51488403D01*
X97459913Y-51538645D01*
X97459906Y-51538649D01*
X97344812Y-51624809D01*
X97344809Y-51624812D01*
X97258649Y-51739906D01*
X97258645Y-51739913D01*
X97208403Y-51874620D01*
X97208401Y-51874627D01*
X97202000Y-51934155D01*
X97202000Y-52582000D01*
X97938653Y-52582000D01*
X98005692Y-52601685D01*
X98051447Y-52654489D01*
X98061391Y-52723647D01*
X98057631Y-52740933D01*
X98052000Y-52760111D01*
X98052000Y-52903888D01*
X98057631Y-52923067D01*
X98057630Y-52992936D01*
X98019855Y-53051714D01*
X97956299Y-53080738D01*
X97938653Y-53082000D01*
X97202000Y-53082000D01*
X97202000Y-53729844D01*
X53290000Y-53729844D01*
X53290000Y-48030005D01*
X54024556Y-48030005D01*
X54032344Y-48153791D01*
X54032466Y-48157684D01*
X54032466Y-48187125D01*
X54036156Y-48216340D01*
X54036522Y-48220217D01*
X54044310Y-48344005D01*
X54044311Y-48344012D01*
X54067553Y-48465852D01*
X54068162Y-48469698D01*
X54071853Y-48498915D01*
X54071857Y-48498932D01*
X54079179Y-48527447D01*
X54080029Y-48531249D01*
X54103270Y-48653083D01*
X54141593Y-48771028D01*
X54142680Y-48774769D01*
X54150004Y-48803297D01*
X54150007Y-48803305D01*
X54160851Y-48830694D01*
X54162170Y-48834358D01*
X54200497Y-48952316D01*
X54200499Y-48952321D01*
X54253306Y-49064540D01*
X54254853Y-49068116D01*
X54265695Y-49095500D01*
X54279886Y-49121314D01*
X54281653Y-49124783D01*
X54319581Y-49205382D01*
X54334463Y-49237007D01*
X54400916Y-49341721D01*
X54400920Y-49341726D01*
X54402903Y-49345080D01*
X54417085Y-49370878D01*
X54417091Y-49370887D01*
X54417093Y-49370891D01*
X54434413Y-49394730D01*
X54436594Y-49397940D01*
X54503051Y-49502661D01*
X54503053Y-49502664D01*
X54582105Y-49598222D01*
X54584492Y-49601299D01*
X54601784Y-49625100D01*
X54601809Y-49625130D01*
X54601813Y-49625135D01*
X54611832Y-49635804D01*
X54621970Y-49646601D01*
X54624545Y-49649522D01*
X54688232Y-49726505D01*
X54703610Y-49745094D01*
X54794034Y-49830008D01*
X54796769Y-49832743D01*
X54816937Y-49854220D01*
X54816942Y-49854225D01*
X54816943Y-49854226D01*
X54839635Y-49872998D01*
X54842538Y-49875557D01*
X54932970Y-49960478D01*
X55033324Y-50033389D01*
X55036380Y-50035760D01*
X55059087Y-50054545D01*
X55059096Y-50054552D01*
X55083968Y-50070335D01*
X55087173Y-50072513D01*
X55177169Y-50137898D01*
X55187520Y-50145419D01*
X55296213Y-50205173D01*
X55299567Y-50207157D01*
X55311131Y-50214495D01*
X55324425Y-50222932D01*
X55335532Y-50228158D01*
X55351068Y-50235470D01*
X55354538Y-50237238D01*
X55422915Y-50274828D01*
X55463234Y-50296994D01*
X55578574Y-50342660D01*
X55582126Y-50344197D01*
X55608752Y-50356727D01*
X55608762Y-50356731D01*
X55608779Y-50356739D01*
X55608793Y-50356743D01*
X55608809Y-50356750D01*
X55636798Y-50365843D01*
X55640447Y-50367157D01*
X55755775Y-50412819D01*
X55875921Y-50443667D01*
X55879644Y-50444749D01*
X55888422Y-50447601D01*
X55907661Y-50453852D01*
X55924491Y-50457062D01*
X55936600Y-50459373D01*
X55940374Y-50460216D01*
X56060527Y-50491066D01*
X56183578Y-50506610D01*
X56187403Y-50507217D01*
X56216341Y-50512737D01*
X56216346Y-50512738D01*
X56216354Y-50512738D01*
X56216357Y-50512739D01*
X56245769Y-50514589D01*
X56249614Y-50514953D01*
X56314767Y-50523183D01*
X56372672Y-50530499D01*
X56372682Y-50530500D01*
X56496680Y-50530500D01*
X56500575Y-50530622D01*
X56529964Y-50532472D01*
X56530000Y-50532472D01*
X56530036Y-50532472D01*
X56559422Y-50530622D01*
X56563317Y-50530500D01*
X56687318Y-50530500D01*
X56810391Y-50514952D01*
X56814227Y-50514589D01*
X56843643Y-50512739D01*
X56843646Y-50512738D01*
X56843652Y-50512738D01*
X56843655Y-50512737D01*
X56872596Y-50507217D01*
X56876416Y-50506611D01*
X56999473Y-50491066D01*
X57119652Y-50460209D01*
X57123373Y-50459377D01*
X57152339Y-50453852D01*
X57180378Y-50444741D01*
X57184043Y-50443676D01*
X57304225Y-50412819D01*
X57419575Y-50367148D01*
X57423208Y-50365841D01*
X57451221Y-50356739D01*
X57477876Y-50344195D01*
X57481412Y-50342665D01*
X57596766Y-50296994D01*
X57705499Y-50237217D01*
X57708902Y-50235483D01*
X57735575Y-50222932D01*
X57760445Y-50207148D01*
X57763766Y-50205184D01*
X57872484Y-50145416D01*
X57972830Y-50072509D01*
X57976031Y-50070334D01*
X58000916Y-50054542D01*
X58023635Y-50035747D01*
X58026655Y-50033404D01*
X58127030Y-49960478D01*
X58217494Y-49875526D01*
X58220329Y-49873027D01*
X58243060Y-49854223D01*
X58263261Y-49832710D01*
X58265932Y-49830039D01*
X58356390Y-49745094D01*
X58435485Y-49649484D01*
X58438003Y-49646628D01*
X58458187Y-49625135D01*
X58458201Y-49625115D01*
X58458209Y-49625106D01*
X58475514Y-49601288D01*
X58477872Y-49598247D01*
X58556947Y-49502663D01*
X58623440Y-49397885D01*
X58625564Y-49394761D01*
X58642907Y-49370891D01*
X58657116Y-49345044D01*
X58659059Y-49341759D01*
X58725537Y-49237007D01*
X58778353Y-49124766D01*
X58780096Y-49121343D01*
X58794304Y-49095501D01*
X58805160Y-49068079D01*
X58806668Y-49064594D01*
X58859503Y-48952315D01*
X58897845Y-48834310D01*
X58899148Y-48830694D01*
X58909992Y-48803306D01*
X58917319Y-48774769D01*
X58918395Y-48771063D01*
X58956731Y-48653079D01*
X58979980Y-48531199D01*
X58980820Y-48527447D01*
X58988146Y-48498916D01*
X58991840Y-48469668D01*
X58992439Y-48465885D01*
X59015688Y-48344015D01*
X59015688Y-48344012D01*
X59015689Y-48344009D01*
X59018753Y-48295289D01*
X59023477Y-48220197D01*
X59023842Y-48216347D01*
X59027532Y-48187138D01*
X59027533Y-48187131D01*
X59028167Y-48146716D01*
X59028278Y-48143886D01*
X59035444Y-48030000D01*
X172024556Y-48030000D01*
X172032345Y-48153815D01*
X172032467Y-48157685D01*
X172032467Y-48187125D01*
X172032468Y-48187141D01*
X172036156Y-48216340D01*
X172036522Y-48220217D01*
X172044310Y-48344005D01*
X172044311Y-48344012D01*
X172067553Y-48465852D01*
X172068162Y-48469698D01*
X172071853Y-48498915D01*
X172071857Y-48498932D01*
X172079179Y-48527447D01*
X172080029Y-48531249D01*
X172103270Y-48653083D01*
X172141593Y-48771028D01*
X172142680Y-48774769D01*
X172150004Y-48803297D01*
X172150007Y-48803305D01*
X172160851Y-48830694D01*
X172162170Y-48834358D01*
X172200497Y-48952316D01*
X172200499Y-48952321D01*
X172253306Y-49064540D01*
X172254853Y-49068116D01*
X172265695Y-49095500D01*
X172279886Y-49121314D01*
X172281653Y-49124783D01*
X172319581Y-49205382D01*
X172334463Y-49237007D01*
X172400916Y-49341721D01*
X172400920Y-49341726D01*
X172402903Y-49345080D01*
X172417085Y-49370878D01*
X172417091Y-49370887D01*
X172417093Y-49370891D01*
X172434413Y-49394730D01*
X172436594Y-49397940D01*
X172503051Y-49502661D01*
X172503053Y-49502664D01*
X172582105Y-49598222D01*
X172584492Y-49601299D01*
X172601784Y-49625100D01*
X172601809Y-49625130D01*
X172601813Y-49625135D01*
X172611832Y-49635804D01*
X172621970Y-49646601D01*
X172624545Y-49649522D01*
X172688232Y-49726505D01*
X172703610Y-49745094D01*
X172794034Y-49830008D01*
X172796769Y-49832743D01*
X172816937Y-49854220D01*
X172816942Y-49854225D01*
X172816943Y-49854226D01*
X172839635Y-49872998D01*
X172842538Y-49875557D01*
X172932970Y-49960478D01*
X173033324Y-50033389D01*
X173036380Y-50035760D01*
X173059087Y-50054545D01*
X173059096Y-50054552D01*
X173083968Y-50070335D01*
X173087173Y-50072513D01*
X173177169Y-50137898D01*
X173187520Y-50145419D01*
X173296213Y-50205173D01*
X173299567Y-50207157D01*
X173311131Y-50214495D01*
X173324425Y-50222932D01*
X173335532Y-50228158D01*
X173351068Y-50235470D01*
X173354538Y-50237238D01*
X173422915Y-50274828D01*
X173463234Y-50296994D01*
X173578574Y-50342660D01*
X173582126Y-50344197D01*
X173608752Y-50356727D01*
X173608762Y-50356731D01*
X173608779Y-50356739D01*
X173608793Y-50356743D01*
X173608809Y-50356750D01*
X173636798Y-50365843D01*
X173640447Y-50367157D01*
X173755775Y-50412819D01*
X173875921Y-50443667D01*
X173879644Y-50444749D01*
X173888422Y-50447601D01*
X173907661Y-50453852D01*
X173924491Y-50457062D01*
X173936600Y-50459373D01*
X173940374Y-50460216D01*
X174060527Y-50491066D01*
X174183578Y-50506610D01*
X174187403Y-50507217D01*
X174216341Y-50512737D01*
X174216346Y-50512738D01*
X174216354Y-50512738D01*
X174216357Y-50512739D01*
X174245769Y-50514589D01*
X174249614Y-50514953D01*
X174314767Y-50523183D01*
X174372672Y-50530499D01*
X174372682Y-50530500D01*
X174496680Y-50530500D01*
X174500575Y-50530622D01*
X174529964Y-50532472D01*
X174530000Y-50532472D01*
X174530036Y-50532472D01*
X174559422Y-50530622D01*
X174563317Y-50530500D01*
X174687318Y-50530500D01*
X174810391Y-50514952D01*
X174814227Y-50514589D01*
X174843643Y-50512739D01*
X174843646Y-50512738D01*
X174843652Y-50512738D01*
X174843655Y-50512737D01*
X174872596Y-50507217D01*
X174876416Y-50506611D01*
X174999473Y-50491066D01*
X175119652Y-50460209D01*
X175123373Y-50459377D01*
X175152339Y-50453852D01*
X175180378Y-50444741D01*
X175184043Y-50443676D01*
X175304225Y-50412819D01*
X175419575Y-50367148D01*
X175423208Y-50365841D01*
X175451221Y-50356739D01*
X175477876Y-50344195D01*
X175481412Y-50342665D01*
X175596766Y-50296994D01*
X175705499Y-50237217D01*
X175708902Y-50235483D01*
X175735575Y-50222932D01*
X175760445Y-50207148D01*
X175763766Y-50205184D01*
X175872484Y-50145416D01*
X175972830Y-50072509D01*
X175976031Y-50070334D01*
X176000916Y-50054542D01*
X176023635Y-50035747D01*
X176026655Y-50033404D01*
X176127030Y-49960478D01*
X176217494Y-49875526D01*
X176220329Y-49873027D01*
X176243060Y-49854223D01*
X176263261Y-49832710D01*
X176265932Y-49830039D01*
X176356390Y-49745094D01*
X176435485Y-49649484D01*
X176438003Y-49646628D01*
X176458187Y-49625135D01*
X176458201Y-49625115D01*
X176458209Y-49625106D01*
X176475514Y-49601288D01*
X176477872Y-49598247D01*
X176556947Y-49502663D01*
X176623440Y-49397885D01*
X176625564Y-49394761D01*
X176642907Y-49370891D01*
X176657116Y-49345044D01*
X176659059Y-49341759D01*
X176725537Y-49237007D01*
X176778353Y-49124766D01*
X176780096Y-49121343D01*
X176794304Y-49095501D01*
X176805160Y-49068079D01*
X176806668Y-49064594D01*
X176859503Y-48952315D01*
X176897845Y-48834310D01*
X176899148Y-48830694D01*
X176909992Y-48803306D01*
X176917319Y-48774769D01*
X176918395Y-48771063D01*
X176956731Y-48653079D01*
X176979980Y-48531199D01*
X176980820Y-48527447D01*
X176988146Y-48498916D01*
X176991840Y-48469668D01*
X176992439Y-48465885D01*
X177015688Y-48344015D01*
X177015688Y-48344012D01*
X177015689Y-48344009D01*
X177018753Y-48295289D01*
X177023477Y-48220197D01*
X177023842Y-48216347D01*
X177027532Y-48187138D01*
X177027533Y-48187131D01*
X177028167Y-48146716D01*
X177028278Y-48143886D01*
X177035444Y-48030000D01*
X177028279Y-47916116D01*
X177028167Y-47913280D01*
X177027533Y-47872869D01*
X177027532Y-47872862D01*
X177027532Y-47872854D01*
X177023842Y-47843650D01*
X177023477Y-47839796D01*
X177019203Y-47771855D01*
X177015689Y-47715990D01*
X177015687Y-47715982D01*
X176992436Y-47594093D01*
X176991838Y-47590313D01*
X176991836Y-47590300D01*
X176988146Y-47561084D01*
X176980825Y-47532569D01*
X176979975Y-47528767D01*
X176957013Y-47408400D01*
X176956731Y-47406921D01*
X176918399Y-47288950D01*
X176917318Y-47285226D01*
X176909994Y-47256701D01*
X176909993Y-47256699D01*
X176909992Y-47256694D01*
X176899134Y-47229269D01*
X176897844Y-47225686D01*
X176859503Y-47107685D01*
X176806682Y-46995435D01*
X176805157Y-46991912D01*
X176794304Y-46964499D01*
X176794285Y-46964465D01*
X176780113Y-46938685D01*
X176778344Y-46935213D01*
X176759334Y-46894816D01*
X176725537Y-46822993D01*
X176659061Y-46718244D01*
X176657095Y-46714917D01*
X176642907Y-46689109D01*
X176625579Y-46665259D01*
X176623427Y-46662093D01*
X176556947Y-46557337D01*
X176556946Y-46557336D01*
X176556945Y-46557334D01*
X176477898Y-46461782D01*
X176475511Y-46458704D01*
X176458221Y-46434906D01*
X176458191Y-46434871D01*
X176458187Y-46434865D01*
X176444102Y-46419866D01*
X176438028Y-46413397D01*
X176435462Y-46410487D01*
X176356390Y-46314906D01*
X176356388Y-46314904D01*
X176356384Y-46314899D01*
X176265973Y-46229998D01*
X176263221Y-46227246D01*
X176261864Y-46225801D01*
X176243060Y-46205777D01*
X176243059Y-46205776D01*
X176243057Y-46205774D01*
X176243049Y-46205766D01*
X176220361Y-46186998D01*
X176217439Y-46184422D01*
X176127031Y-46099523D01*
X176127021Y-46099515D01*
X176026688Y-46026619D01*
X176023609Y-46024231D01*
X176000918Y-46005459D01*
X176000900Y-46005446D01*
X175976030Y-45989663D01*
X175972807Y-45987473D01*
X175872485Y-45914584D01*
X175763788Y-45854826D01*
X175760439Y-45852845D01*
X175736435Y-45837614D01*
X175735575Y-45837068D01*
X175735574Y-45837067D01*
X175735567Y-45837063D01*
X175708929Y-45824528D01*
X175705460Y-45822760D01*
X175596759Y-45763002D01*
X175596756Y-45763001D01*
X175481463Y-45717354D01*
X175477887Y-45715807D01*
X175451239Y-45703268D01*
X175451199Y-45703252D01*
X175423198Y-45694154D01*
X175419532Y-45692834D01*
X175304227Y-45647181D01*
X175184091Y-45616335D01*
X175180353Y-45615249D01*
X175152336Y-45606147D01*
X175123418Y-45600630D01*
X175119619Y-45599781D01*
X174999471Y-45568933D01*
X174876435Y-45553390D01*
X174872588Y-45552781D01*
X174843666Y-45547264D01*
X174843644Y-45547261D01*
X174843643Y-45547261D01*
X174843640Y-45547260D01*
X174843594Y-45547255D01*
X174814219Y-45545407D01*
X174810342Y-45545040D01*
X174687330Y-45529500D01*
X174687318Y-45529500D01*
X174563273Y-45529500D01*
X174559402Y-45529378D01*
X174534162Y-45527790D01*
X174530002Y-45527529D01*
X174529998Y-45527529D01*
X174525837Y-45527790D01*
X174500597Y-45529378D01*
X174496727Y-45529500D01*
X174372682Y-45529500D01*
X174372680Y-45529500D01*
X174372667Y-45529501D01*
X174249656Y-45545040D01*
X174245779Y-45545407D01*
X174216395Y-45547255D01*
X174216338Y-45547262D01*
X174187410Y-45552781D01*
X174183563Y-45553390D01*
X174060530Y-45568933D01*
X174060528Y-45568933D01*
X173940386Y-45599779D01*
X173936589Y-45600628D01*
X173907669Y-45606146D01*
X173907665Y-45606147D01*
X173907661Y-45606148D01*
X173897385Y-45609486D01*
X173879651Y-45615248D01*
X173875913Y-45616334D01*
X173755769Y-45647182D01*
X173640466Y-45692834D01*
X173636801Y-45694154D01*
X173608808Y-45703249D01*
X173608760Y-45703268D01*
X173582129Y-45715800D01*
X173578554Y-45717347D01*
X173463233Y-45763005D01*
X173354538Y-45822761D01*
X173351069Y-45824529D01*
X173324433Y-45837063D01*
X173324422Y-45837069D01*
X173299557Y-45852847D01*
X173296208Y-45854828D01*
X173187512Y-45914585D01*
X173187510Y-45914587D01*
X173087184Y-45987478D01*
X173083962Y-45989667D01*
X173059114Y-46005436D01*
X173059073Y-46005466D01*
X173036391Y-46024229D01*
X173033315Y-46026616D01*
X172932966Y-46099524D01*
X172932965Y-46099525D01*
X172842569Y-46184413D01*
X172839647Y-46186989D01*
X172816961Y-46205756D01*
X172816933Y-46205782D01*
X172810207Y-46212945D01*
X172796772Y-46227252D01*
X172794018Y-46230005D01*
X172703611Y-46314904D01*
X172624545Y-46410476D01*
X172621972Y-46413396D01*
X172611547Y-46424497D01*
X172601828Y-46434847D01*
X172601782Y-46434902D01*
X172584492Y-46458701D01*
X172582105Y-46461778D01*
X172503053Y-46557335D01*
X172503048Y-46557342D01*
X172436593Y-46662058D01*
X172434405Y-46665278D01*
X172417086Y-46689118D01*
X172417082Y-46689125D01*
X172402897Y-46714926D01*
X172400916Y-46718276D01*
X172334464Y-46822990D01*
X172281649Y-46935223D01*
X172279877Y-46938701D01*
X172278375Y-46941433D01*
X172265713Y-46964465D01*
X172265701Y-46964489D01*
X172265696Y-46964499D01*
X172265693Y-46964506D01*
X172265687Y-46964519D01*
X172254854Y-46991879D01*
X172253308Y-46995452D01*
X172200500Y-47107676D01*
X172200496Y-47107687D01*
X172162168Y-47225644D01*
X172160850Y-47229307D01*
X172150009Y-47256689D01*
X172150004Y-47256703D01*
X172142679Y-47285230D01*
X172141593Y-47288969D01*
X172103269Y-47406918D01*
X172103268Y-47406924D01*
X172080029Y-47528749D01*
X172079179Y-47532550D01*
X172071858Y-47561059D01*
X172071852Y-47561093D01*
X172068162Y-47590300D01*
X172067553Y-47594146D01*
X172044312Y-47715982D01*
X172044310Y-47715999D01*
X172036522Y-47839781D01*
X172036156Y-47843658D01*
X172032468Y-47872846D01*
X172032467Y-47872874D01*
X172032467Y-47902313D01*
X172032345Y-47906185D01*
X172024556Y-48030000D01*
X59035444Y-48030000D01*
X59028279Y-47916116D01*
X59028167Y-47913280D01*
X59027533Y-47872869D01*
X59027532Y-47872862D01*
X59027532Y-47872854D01*
X59023842Y-47843650D01*
X59023477Y-47839796D01*
X59019203Y-47771855D01*
X59015689Y-47715990D01*
X59015687Y-47715982D01*
X58992436Y-47594093D01*
X58991838Y-47590313D01*
X58991836Y-47590300D01*
X58988146Y-47561084D01*
X58980825Y-47532569D01*
X58979975Y-47528767D01*
X58957013Y-47408400D01*
X58956731Y-47406921D01*
X58918399Y-47288950D01*
X58917318Y-47285226D01*
X58909994Y-47256701D01*
X58909993Y-47256699D01*
X58909992Y-47256694D01*
X58899134Y-47229269D01*
X58897844Y-47225686D01*
X58859503Y-47107685D01*
X58806682Y-46995435D01*
X58805157Y-46991912D01*
X58794304Y-46964499D01*
X58794285Y-46964465D01*
X58780113Y-46938685D01*
X58778344Y-46935213D01*
X58759334Y-46894816D01*
X58725537Y-46822993D01*
X58659061Y-46718244D01*
X58657095Y-46714917D01*
X58642907Y-46689109D01*
X58625579Y-46665259D01*
X58623427Y-46662093D01*
X58556947Y-46557337D01*
X58556946Y-46557336D01*
X58556945Y-46557334D01*
X58477898Y-46461782D01*
X58475511Y-46458704D01*
X58458221Y-46434906D01*
X58458191Y-46434871D01*
X58458187Y-46434865D01*
X58444102Y-46419866D01*
X58438028Y-46413397D01*
X58435462Y-46410487D01*
X58356390Y-46314906D01*
X58356388Y-46314904D01*
X58356384Y-46314899D01*
X58265973Y-46229998D01*
X58263221Y-46227246D01*
X58261864Y-46225801D01*
X58243060Y-46205777D01*
X58243059Y-46205776D01*
X58243057Y-46205774D01*
X58243049Y-46205766D01*
X58220361Y-46186998D01*
X58217439Y-46184422D01*
X58127031Y-46099523D01*
X58127021Y-46099515D01*
X58026688Y-46026619D01*
X58023609Y-46024231D01*
X58000918Y-46005459D01*
X58000900Y-46005446D01*
X57976030Y-45989663D01*
X57972807Y-45987473D01*
X57872485Y-45914584D01*
X57763788Y-45854826D01*
X57760439Y-45852845D01*
X57736435Y-45837614D01*
X57735575Y-45837068D01*
X57735574Y-45837067D01*
X57735567Y-45837063D01*
X57708929Y-45824528D01*
X57705460Y-45822760D01*
X57596759Y-45763002D01*
X57596756Y-45763001D01*
X57481463Y-45717354D01*
X57477887Y-45715807D01*
X57451239Y-45703268D01*
X57451199Y-45703252D01*
X57423198Y-45694154D01*
X57419532Y-45692834D01*
X57304227Y-45647181D01*
X57184091Y-45616335D01*
X57180353Y-45615249D01*
X57152336Y-45606147D01*
X57123418Y-45600630D01*
X57119619Y-45599781D01*
X56999471Y-45568933D01*
X56876435Y-45553390D01*
X56872588Y-45552781D01*
X56843666Y-45547264D01*
X56843644Y-45547261D01*
X56843643Y-45547261D01*
X56843640Y-45547260D01*
X56843594Y-45547255D01*
X56814219Y-45545407D01*
X56810342Y-45545040D01*
X56687330Y-45529500D01*
X56687318Y-45529500D01*
X56563273Y-45529500D01*
X56559402Y-45529378D01*
X56534162Y-45527790D01*
X56530002Y-45527529D01*
X56529998Y-45527529D01*
X56525837Y-45527790D01*
X56500597Y-45529378D01*
X56496727Y-45529500D01*
X56372682Y-45529500D01*
X56372680Y-45529500D01*
X56372667Y-45529501D01*
X56249656Y-45545040D01*
X56245779Y-45545407D01*
X56216395Y-45547255D01*
X56216338Y-45547262D01*
X56187410Y-45552781D01*
X56183563Y-45553390D01*
X56060530Y-45568933D01*
X56060528Y-45568933D01*
X55940386Y-45599779D01*
X55936589Y-45600628D01*
X55907669Y-45606146D01*
X55907665Y-45606147D01*
X55907661Y-45606148D01*
X55897385Y-45609486D01*
X55879651Y-45615248D01*
X55875913Y-45616334D01*
X55755769Y-45647182D01*
X55640466Y-45692834D01*
X55636801Y-45694154D01*
X55608808Y-45703249D01*
X55608760Y-45703268D01*
X55582129Y-45715800D01*
X55578554Y-45717347D01*
X55463233Y-45763005D01*
X55354538Y-45822761D01*
X55351069Y-45824529D01*
X55324433Y-45837063D01*
X55324422Y-45837069D01*
X55299557Y-45852847D01*
X55296208Y-45854828D01*
X55187512Y-45914585D01*
X55187510Y-45914587D01*
X55087184Y-45987478D01*
X55083962Y-45989667D01*
X55059114Y-46005436D01*
X55059073Y-46005466D01*
X55036391Y-46024229D01*
X55033315Y-46026616D01*
X54932966Y-46099524D01*
X54932965Y-46099525D01*
X54842569Y-46184413D01*
X54839647Y-46186989D01*
X54816961Y-46205756D01*
X54816933Y-46205782D01*
X54810207Y-46212945D01*
X54796772Y-46227252D01*
X54794018Y-46230005D01*
X54703611Y-46314904D01*
X54624545Y-46410476D01*
X54621972Y-46413396D01*
X54611547Y-46424497D01*
X54601828Y-46434847D01*
X54601782Y-46434902D01*
X54584492Y-46458701D01*
X54582105Y-46461778D01*
X54503053Y-46557335D01*
X54503048Y-46557342D01*
X54436593Y-46662058D01*
X54434405Y-46665278D01*
X54417086Y-46689118D01*
X54417082Y-46689125D01*
X54402897Y-46714926D01*
X54400916Y-46718276D01*
X54334464Y-46822990D01*
X54281649Y-46935223D01*
X54279877Y-46938701D01*
X54278375Y-46941433D01*
X54265713Y-46964465D01*
X54265701Y-46964489D01*
X54265696Y-46964499D01*
X54265693Y-46964506D01*
X54265687Y-46964519D01*
X54254854Y-46991879D01*
X54253308Y-46995452D01*
X54200500Y-47107676D01*
X54200496Y-47107687D01*
X54162168Y-47225644D01*
X54160850Y-47229307D01*
X54150009Y-47256689D01*
X54150004Y-47256703D01*
X54142679Y-47285230D01*
X54141593Y-47288969D01*
X54103269Y-47406918D01*
X54103268Y-47406924D01*
X54080029Y-47528749D01*
X54079179Y-47532550D01*
X54071858Y-47561059D01*
X54071852Y-47561093D01*
X54068162Y-47590300D01*
X54067553Y-47594146D01*
X54044312Y-47715982D01*
X54044310Y-47715999D01*
X54036522Y-47839781D01*
X54036156Y-47843658D01*
X54032466Y-47872869D01*
X54032466Y-47902314D01*
X54032344Y-47906207D01*
X54024556Y-48029994D01*
X54024556Y-48030005D01*
X53290000Y-48030005D01*
X53290000Y-44904000D01*
X53309685Y-44836961D01*
X53362489Y-44791206D01*
X53414000Y-44780000D01*
X177815767Y-44780000D01*
X177882806Y-44799685D01*
G37*
%TD.AperFunction*%
%TD*%
M02*
