%TF.GenerationSoftware,KiCad,Pcbnew,7.0.7*%
%TF.CreationDate,2023-12-20T15:38:10-07:00*%
%TF.ProjectId,Control Pilot PCB,436f6e74-726f-46c2-9050-696c6f742050,rev?*%
%TF.SameCoordinates,Original*%
%TF.FileFunction,Copper,L1,Top*%
%TF.FilePolarity,Positive*%
%FSLAX46Y46*%
G04 Gerber Fmt 4.6, Leading zero omitted, Abs format (unit mm)*
G04 Created by KiCad (PCBNEW 7.0.7) date 2023-12-20 15:38:10*
%MOMM*%
%LPD*%
G01*
G04 APERTURE LIST*
%TA.AperFunction,ComponentPad*%
%ADD10R,1.700000X1.700000*%
%TD*%
%TA.AperFunction,ComponentPad*%
%ADD11C,1.400000*%
%TD*%
%TA.AperFunction,ComponentPad*%
%ADD12O,1.400000X1.400000*%
%TD*%
%TA.AperFunction,ComponentPad*%
%ADD13O,1.700000X1.700000*%
%TD*%
%TA.AperFunction,ComponentPad*%
%ADD14R,2.400000X2.400000*%
%TD*%
%TA.AperFunction,ComponentPad*%
%ADD15O,2.400000X2.400000*%
%TD*%
%TA.AperFunction,Conductor*%
%ADD16C,0.600000*%
%TD*%
%TA.AperFunction,Conductor*%
%ADD17C,0.250000*%
%TD*%
G04 APERTURE END LIST*
D10*
%TO.P,J1,1,Pin_1*%
%TO.N,Earth_Protective*%
X163576000Y-103632000D03*
%TD*%
%TO.P,J5,1,Pin_1*%
%TO.N,Earth_Protective*%
X98552000Y-52832000D03*
%TD*%
D11*
%TO.P,R6,1*%
%TO.N,Net-(SW5-A)*%
X144256000Y-83312000D03*
D12*
%TO.P,R6,2*%
%TO.N,Earth_Protective*%
X144256000Y-88392000D03*
%TD*%
D11*
%TO.P,R4,1*%
%TO.N,Net-(SW6-A)*%
X124460000Y-72120000D03*
D12*
%TO.P,R4,2*%
%TO.N,Net-(SW6-B)*%
X124460000Y-67040000D03*
%TD*%
D10*
%TO.P,SW4,1,A*%
%TO.N,Net-(SW1-A)*%
X67056000Y-103632000D03*
D13*
%TO.P,SW4,2,B*%
%TO.N,Net-(D1-K)*%
X67056000Y-101092000D03*
%TO.P,SW4,3,C*%
X67056000Y-98552000D03*
%TD*%
D10*
%TO.P,SW1,1,A*%
%TO.N,Net-(SW1-A)*%
X143256000Y-103632000D03*
D13*
%TO.P,SW1,2,B*%
%TO.N,Earth_Protective*%
X143256000Y-101092000D03*
%TO.P,SW1,3,C*%
%TO.N,unconnected-(SW1-C-Pad3)*%
X143256000Y-98552000D03*
%TD*%
D11*
%TO.P,R5,1*%
%TO.N,Net-(SW5-A)*%
X154416000Y-73152000D03*
D12*
%TO.P,R5,2*%
%TO.N,+5V*%
X154416000Y-68072000D03*
%TD*%
D10*
%TO.P,SW8,1,A*%
%TO.N,Net-(SW1-A)*%
X67056000Y-72537000D03*
D13*
%TO.P,SW8,2,B*%
%TO.N,Net-(SW8-B)*%
X67056000Y-69997000D03*
%TO.P,SW8,3,C*%
%TO.N,Net-(D1-K)*%
X67056000Y-67457000D03*
%TD*%
D11*
%TO.P,R7,1*%
%TO.N,Net-(SW6-A)*%
X133588000Y-72644000D03*
D12*
%TO.P,R7,2*%
%TO.N,Net-(J3-Pin_1)*%
X138668000Y-72644000D03*
%TD*%
D11*
%TO.P,R1,1*%
%TO.N,Net-(SW1-A)*%
X76216000Y-103632000D03*
D12*
%TO.P,R1,2*%
%TO.N,Net-(D1-K)*%
X76216000Y-98552000D03*
%TD*%
D10*
%TO.P,SW2,1,A*%
%TO.N,Net-(SW1-A)*%
X119616000Y-103632000D03*
D13*
%TO.P,SW2,2,B*%
X119616000Y-101092000D03*
%TO.P,SW2,3,C*%
%TO.N,Net-(D1-A)*%
X119616000Y-98552000D03*
%TD*%
D10*
%TO.P,J4,1,Pin_1*%
%TO.N,+5V*%
X113792000Y-52832000D03*
%TD*%
D11*
%TO.P,R3,1*%
%TO.N,Net-(SW1-A)*%
X99060000Y-71612000D03*
D12*
%TO.P,R3,2*%
%TO.N,Net-(SW7-B)*%
X99060000Y-66532000D03*
%TD*%
D10*
%TO.P,SW3,1,A*%
%TO.N,Net-(SW1-A)*%
X92456000Y-103632000D03*
D13*
%TO.P,SW3,2,B*%
X92456000Y-101092000D03*
%TO.P,SW3,3,C*%
%TO.N,Net-(D1-K)*%
X92456000Y-98552000D03*
%TD*%
D10*
%TO.P,SW6,1,A*%
%TO.N,Net-(SW6-A)*%
X117856000Y-73152000D03*
D13*
%TO.P,SW6,2,B*%
%TO.N,Net-(SW6-B)*%
X117856000Y-70612000D03*
%TO.P,SW6,3,C*%
%TO.N,unconnected-(SW6-C-Pad3)*%
X117856000Y-68072000D03*
%TD*%
D10*
%TO.P,SW7,1,A*%
%TO.N,Net-(SW1-A)*%
X92456000Y-72537000D03*
D13*
%TO.P,SW7,2,B*%
%TO.N,Net-(SW7-B)*%
X92456000Y-69997000D03*
%TO.P,SW7,3,C*%
%TO.N,Net-(D1-K)*%
X92456000Y-67457000D03*
%TD*%
D10*
%TO.P,J2,1,Pin_1*%
%TO.N,Net-(D1-A)*%
X163576000Y-86360000D03*
%TD*%
%TO.P,J3,1,Pin_1*%
%TO.N,Net-(J3-Pin_1)*%
X163576000Y-70104000D03*
%TD*%
%TO.P,SW5,1,A*%
%TO.N,Net-(SW5-A)*%
X143256000Y-72537000D03*
D13*
%TO.P,SW5,2,B*%
%TO.N,Net-(J3-Pin_1)*%
X143256000Y-69997000D03*
%TO.P,SW5,3,C*%
%TO.N,unconnected-(SW5-C-Pad3)*%
X143256000Y-67457000D03*
%TD*%
D14*
%TO.P,D1,1,K*%
%TO.N,Net-(D1-K)*%
X101092000Y-96520000D03*
D15*
%TO.P,D1,2,A*%
%TO.N,Net-(D1-A)*%
X111252000Y-96520000D03*
%TD*%
D11*
%TO.P,R2,1*%
%TO.N,Net-(SW1-A)*%
X74168000Y-71612000D03*
D12*
%TO.P,R2,2*%
%TO.N,Net-(SW8-B)*%
X74168000Y-66532000D03*
%TD*%
D16*
%TO.N,Earth_Protective*%
X102616000Y-58928000D02*
X98552000Y-54864000D01*
X98552000Y-54864000D02*
X98552000Y-52832000D01*
X164592000Y-58928000D02*
X102616000Y-58928000D01*
X167640000Y-61976000D02*
X164592000Y-58928000D01*
X167640000Y-99568000D02*
X167640000Y-61976000D01*
X163576000Y-103632000D02*
X167640000Y-99568000D01*
X161036000Y-101092000D02*
X163576000Y-103632000D01*
X143256000Y-101092000D02*
X161036000Y-101092000D01*
X149844000Y-82804000D02*
X144256000Y-88392000D01*
X167564000Y-82804000D02*
X149844000Y-82804000D01*
X167640000Y-82880000D02*
X167564000Y-82804000D01*
%TO.N,Net-(D1-A)*%
X163576000Y-86360000D02*
X150876000Y-86360000D01*
X119616000Y-98552000D02*
X117584000Y-96520000D01*
X126728000Y-91440000D02*
X119616000Y-98552000D01*
X150876000Y-86360000D02*
X145796000Y-91440000D01*
X117584000Y-96520000D02*
X111252000Y-96520000D01*
X145796000Y-91440000D02*
X126728000Y-91440000D01*
%TO.N,Net-(J3-Pin_1)*%
X150497827Y-69997000D02*
X153652827Y-73152000D01*
X138684000Y-72644000D02*
X141331000Y-69997000D01*
X134588000Y-72644000D02*
X138684000Y-72644000D01*
X160528000Y-73152000D02*
X163576000Y-70104000D01*
X153652827Y-73152000D02*
X160528000Y-73152000D01*
X141331000Y-69997000D02*
X143256000Y-69997000D01*
X143256000Y-69997000D02*
X150497827Y-69997000D01*
%TO.N,Net-(SW1-A)*%
X67056000Y-103632000D02*
X76216000Y-103632000D01*
X74168000Y-71612000D02*
X67981000Y-71612000D01*
X119616000Y-101092000D02*
X92456000Y-101092000D01*
X98135000Y-72537000D02*
X99060000Y-71612000D01*
X67981000Y-71612000D02*
X67056000Y-72537000D01*
X143256000Y-103632000D02*
X119616000Y-103632000D01*
X92456000Y-72537000D02*
X98135000Y-72537000D01*
X74168000Y-71612000D02*
X91531000Y-71612000D01*
X119616000Y-103632000D02*
X119616000Y-101092000D01*
X76216000Y-103632000D02*
X92456000Y-103632000D01*
X91531000Y-71612000D02*
X92456000Y-72537000D01*
X92456000Y-101092000D02*
X92456000Y-103632000D01*
%TO.N,Net-(SW6-A)*%
X124460000Y-72120000D02*
X128508000Y-72120000D01*
X121412000Y-73152000D02*
X117856000Y-73152000D01*
X132080000Y-73152000D02*
X132588000Y-72644000D01*
X124460000Y-72120000D02*
X122444000Y-72120000D01*
X132588000Y-72644000D02*
X133588000Y-72644000D01*
X129540000Y-73152000D02*
X132080000Y-73152000D01*
X122444000Y-72120000D02*
X121412000Y-73152000D01*
X128508000Y-72120000D02*
X129540000Y-73152000D01*
%TO.N,Net-(SW6-B)*%
X124460000Y-67040000D02*
X120888000Y-70612000D01*
X120888000Y-70612000D02*
X117856000Y-70612000D01*
%TO.N,Net-(SW5-A)*%
X143256000Y-81312000D02*
X144256000Y-82312000D01*
X143256000Y-72537000D02*
X143256000Y-81312000D01*
X144256000Y-83312000D02*
X144256000Y-82312000D01*
%TO.N,+5V*%
X147304000Y-60960000D02*
X100076000Y-60960000D01*
X111760000Y-52832000D02*
X113792000Y-52832000D01*
X100076000Y-60960000D02*
X90932000Y-51816000D01*
X90932000Y-49276000D02*
X92456000Y-47752000D01*
X92456000Y-47752000D02*
X106680000Y-47752000D01*
X106680000Y-47752000D02*
X111760000Y-52832000D01*
X90932000Y-51816000D02*
X90932000Y-49276000D01*
X154416000Y-68072000D02*
X147304000Y-60960000D01*
%TO.N,Net-(D1-K)*%
X67056000Y-98552000D02*
X92456000Y-98552000D01*
X92456000Y-67457000D02*
X93399000Y-68400000D01*
D17*
X67056000Y-67457000D02*
X67679000Y-68080000D01*
D16*
X101092000Y-96520000D02*
X99060000Y-98552000D01*
X92456000Y-98552000D02*
X99060000Y-98552000D01*
X91833000Y-68080000D02*
X92456000Y-67457000D01*
X105156000Y-90424000D02*
X102108000Y-90424000D01*
X109220000Y-86360000D02*
X105156000Y-90424000D01*
X93399000Y-68400000D02*
X102436000Y-68400000D01*
X102108000Y-90424000D02*
X101092000Y-91440000D01*
X102436000Y-68400000D02*
X109220000Y-75184000D01*
X67679000Y-68080000D02*
X91570000Y-68080000D01*
X101092000Y-91440000D02*
X101092000Y-96520000D01*
X109220000Y-75184000D02*
X109220000Y-86360000D01*
X91570000Y-68080000D02*
X91833000Y-68080000D01*
%TD*%
%TA.AperFunction,Conductor*%
%TO.N,Earth_Protective*%
G36*
X177882806Y-44799685D02*
G01*
X177928561Y-44852489D01*
X177939766Y-44904231D01*
X177801446Y-118530622D01*
X177800233Y-119176233D01*
X177780422Y-119243235D01*
X177727532Y-119288891D01*
X177676233Y-119300000D01*
X53414000Y-119300000D01*
X53346961Y-119280315D01*
X53301206Y-119227511D01*
X53290000Y-119176000D01*
X53290000Y-116030005D01*
X54024556Y-116030005D01*
X54032344Y-116153791D01*
X54032466Y-116157684D01*
X54032466Y-116187125D01*
X54036156Y-116216340D01*
X54036522Y-116220217D01*
X54044310Y-116344005D01*
X54044311Y-116344012D01*
X54067553Y-116465852D01*
X54068162Y-116469698D01*
X54071853Y-116498915D01*
X54071857Y-116498932D01*
X54079179Y-116527447D01*
X54080029Y-116531249D01*
X54103270Y-116653083D01*
X54141593Y-116771028D01*
X54142680Y-116774769D01*
X54150004Y-116803297D01*
X54150007Y-116803305D01*
X54160851Y-116830694D01*
X54162170Y-116834358D01*
X54200497Y-116952316D01*
X54200499Y-116952321D01*
X54253306Y-117064540D01*
X54254853Y-117068116D01*
X54265695Y-117095500D01*
X54279886Y-117121314D01*
X54281653Y-117124783D01*
X54319581Y-117205382D01*
X54334463Y-117237007D01*
X54400916Y-117341721D01*
X54400920Y-117341726D01*
X54402903Y-117345080D01*
X54417085Y-117370878D01*
X54417091Y-117370887D01*
X54417093Y-117370891D01*
X54434413Y-117394730D01*
X54436594Y-117397940D01*
X54503051Y-117502661D01*
X54503053Y-117502664D01*
X54582105Y-117598222D01*
X54584492Y-117601299D01*
X54601784Y-117625100D01*
X54601809Y-117625130D01*
X54601813Y-117625135D01*
X54611832Y-117635804D01*
X54621970Y-117646601D01*
X54624545Y-117649522D01*
X54688232Y-117726505D01*
X54703610Y-117745094D01*
X54794034Y-117830008D01*
X54796769Y-117832743D01*
X54816937Y-117854220D01*
X54816942Y-117854225D01*
X54816943Y-117854226D01*
X54839635Y-117872998D01*
X54842538Y-117875557D01*
X54932970Y-117960478D01*
X55033324Y-118033389D01*
X55036380Y-118035760D01*
X55059087Y-118054545D01*
X55059096Y-118054552D01*
X55083968Y-118070335D01*
X55087173Y-118072513D01*
X55177169Y-118137898D01*
X55187520Y-118145419D01*
X55296213Y-118205173D01*
X55299567Y-118207157D01*
X55311131Y-118214495D01*
X55324425Y-118222932D01*
X55335532Y-118228158D01*
X55351068Y-118235470D01*
X55354538Y-118237238D01*
X55422915Y-118274828D01*
X55463234Y-118296994D01*
X55578574Y-118342660D01*
X55582126Y-118344197D01*
X55608752Y-118356727D01*
X55608762Y-118356731D01*
X55608779Y-118356739D01*
X55608793Y-118356743D01*
X55608809Y-118356750D01*
X55636798Y-118365843D01*
X55640447Y-118367157D01*
X55755775Y-118412819D01*
X55875921Y-118443667D01*
X55879644Y-118444749D01*
X55888422Y-118447601D01*
X55907661Y-118453852D01*
X55924491Y-118457062D01*
X55936600Y-118459373D01*
X55940374Y-118460216D01*
X56060527Y-118491066D01*
X56183578Y-118506610D01*
X56187403Y-118507217D01*
X56216341Y-118512737D01*
X56216346Y-118512738D01*
X56216354Y-118512738D01*
X56216357Y-118512739D01*
X56245769Y-118514589D01*
X56249614Y-118514953D01*
X56314767Y-118523183D01*
X56372672Y-118530499D01*
X56372682Y-118530500D01*
X56496680Y-118530500D01*
X56500575Y-118530622D01*
X56529964Y-118532472D01*
X56530000Y-118532472D01*
X56530036Y-118532472D01*
X56559422Y-118530622D01*
X56563317Y-118530500D01*
X56687318Y-118530500D01*
X56810391Y-118514952D01*
X56814227Y-118514589D01*
X56843643Y-118512739D01*
X56843646Y-118512738D01*
X56843652Y-118512738D01*
X56843655Y-118512737D01*
X56872596Y-118507217D01*
X56876416Y-118506611D01*
X56999473Y-118491066D01*
X57119652Y-118460209D01*
X57123373Y-118459377D01*
X57152339Y-118453852D01*
X57180378Y-118444741D01*
X57184043Y-118443676D01*
X57304225Y-118412819D01*
X57419575Y-118367148D01*
X57423208Y-118365841D01*
X57451221Y-118356739D01*
X57477876Y-118344195D01*
X57481412Y-118342665D01*
X57596766Y-118296994D01*
X57705499Y-118237217D01*
X57708902Y-118235483D01*
X57735575Y-118222932D01*
X57760445Y-118207148D01*
X57763766Y-118205184D01*
X57872484Y-118145416D01*
X57972830Y-118072509D01*
X57976031Y-118070334D01*
X58000916Y-118054542D01*
X58023635Y-118035747D01*
X58026655Y-118033404D01*
X58127030Y-117960478D01*
X58217494Y-117875526D01*
X58220329Y-117873027D01*
X58243060Y-117854223D01*
X58263261Y-117832710D01*
X58265932Y-117830039D01*
X58356390Y-117745094D01*
X58435485Y-117649484D01*
X58438003Y-117646628D01*
X58458187Y-117625135D01*
X58458201Y-117625115D01*
X58458209Y-117625106D01*
X58475514Y-117601288D01*
X58477872Y-117598247D01*
X58556947Y-117502663D01*
X58623440Y-117397885D01*
X58625564Y-117394761D01*
X58642907Y-117370891D01*
X58657116Y-117345044D01*
X58659059Y-117341759D01*
X58725537Y-117237007D01*
X58778353Y-117124766D01*
X58780096Y-117121343D01*
X58794304Y-117095501D01*
X58805160Y-117068079D01*
X58806668Y-117064594D01*
X58859503Y-116952315D01*
X58897845Y-116834310D01*
X58899148Y-116830694D01*
X58909992Y-116803306D01*
X58917319Y-116774769D01*
X58918395Y-116771063D01*
X58956731Y-116653079D01*
X58979980Y-116531199D01*
X58980820Y-116527447D01*
X58988146Y-116498916D01*
X58991840Y-116469668D01*
X58992439Y-116465885D01*
X59015688Y-116344015D01*
X59015688Y-116344012D01*
X59015689Y-116344009D01*
X59018753Y-116295289D01*
X59023477Y-116220197D01*
X59023842Y-116216347D01*
X59027532Y-116187138D01*
X59027533Y-116187131D01*
X59028167Y-116146716D01*
X59028278Y-116143886D01*
X59035444Y-116030000D01*
X172024556Y-116030000D01*
X172032345Y-116153815D01*
X172032467Y-116157685D01*
X172032467Y-116187125D01*
X172032468Y-116187141D01*
X172036156Y-116216340D01*
X172036522Y-116220217D01*
X172044310Y-116344005D01*
X172044311Y-116344012D01*
X172067553Y-116465852D01*
X172068162Y-116469698D01*
X172071853Y-116498915D01*
X172071857Y-116498932D01*
X172079179Y-116527447D01*
X172080029Y-116531249D01*
X172103270Y-116653083D01*
X172141593Y-116771028D01*
X172142680Y-116774769D01*
X172150004Y-116803297D01*
X172150007Y-116803305D01*
X172160851Y-116830694D01*
X172162170Y-116834358D01*
X172200497Y-116952316D01*
X172200499Y-116952321D01*
X172253306Y-117064540D01*
X172254853Y-117068116D01*
X172265695Y-117095500D01*
X172279886Y-117121314D01*
X172281653Y-117124783D01*
X172319581Y-117205382D01*
X172334463Y-117237007D01*
X172400916Y-117341721D01*
X172400920Y-117341726D01*
X172402903Y-117345080D01*
X172417085Y-117370878D01*
X172417091Y-117370887D01*
X172417093Y-117370891D01*
X172434413Y-117394730D01*
X172436594Y-117397940D01*
X172503051Y-117502661D01*
X172503053Y-117502664D01*
X172582105Y-117598222D01*
X172584492Y-117601299D01*
X172601784Y-117625100D01*
X172601809Y-117625130D01*
X172601813Y-117625135D01*
X172611832Y-117635804D01*
X172621970Y-117646601D01*
X172624545Y-117649522D01*
X172688232Y-117726505D01*
X172703610Y-117745094D01*
X172794034Y-117830008D01*
X172796769Y-117832743D01*
X172816937Y-117854220D01*
X172816942Y-117854225D01*
X172816943Y-117854226D01*
X172839635Y-117872998D01*
X172842538Y-117875557D01*
X172932970Y-117960478D01*
X173033324Y-118033389D01*
X173036380Y-118035760D01*
X173059087Y-118054545D01*
X173059096Y-118054552D01*
X173083968Y-118070335D01*
X173087173Y-118072513D01*
X173177169Y-118137898D01*
X173187520Y-118145419D01*
X173296213Y-118205173D01*
X173299567Y-118207157D01*
X173311131Y-118214495D01*
X173324425Y-118222932D01*
X173335532Y-118228158D01*
X173351068Y-118235470D01*
X173354538Y-118237238D01*
X173422915Y-118274828D01*
X173463234Y-118296994D01*
X173578574Y-118342660D01*
X173582126Y-118344197D01*
X173608752Y-118356727D01*
X173608762Y-118356731D01*
X173608779Y-118356739D01*
X173608793Y-118356743D01*
X173608809Y-118356750D01*
X173636798Y-118365843D01*
X173640447Y-118367157D01*
X173755775Y-118412819D01*
X173875921Y-118443667D01*
X173879644Y-118444749D01*
X173888422Y-118447601D01*
X173907661Y-118453852D01*
X173924491Y-118457062D01*
X173936600Y-118459373D01*
X173940374Y-118460216D01*
X174060527Y-118491066D01*
X174183578Y-118506610D01*
X174187403Y-118507217D01*
X174216341Y-118512737D01*
X174216346Y-118512738D01*
X174216354Y-118512738D01*
X174216357Y-118512739D01*
X174245769Y-118514589D01*
X174249614Y-118514953D01*
X174314767Y-118523183D01*
X174372672Y-118530499D01*
X174372682Y-118530500D01*
X174496680Y-118530500D01*
X174500575Y-118530622D01*
X174529964Y-118532472D01*
X174530000Y-118532472D01*
X174530036Y-118532472D01*
X174559422Y-118530622D01*
X174563317Y-118530500D01*
X174687318Y-118530500D01*
X174810391Y-118514952D01*
X174814227Y-118514589D01*
X174843643Y-118512739D01*
X174843646Y-118512738D01*
X174843652Y-118512738D01*
X174843655Y-118512737D01*
X174872596Y-118507217D01*
X174876416Y-118506611D01*
X174999473Y-118491066D01*
X175119652Y-118460209D01*
X175123373Y-118459377D01*
X175152339Y-118453852D01*
X175180378Y-118444741D01*
X175184043Y-118443676D01*
X175304225Y-118412819D01*
X175419575Y-118367148D01*
X175423208Y-118365841D01*
X175451221Y-118356739D01*
X175477876Y-118344195D01*
X175481412Y-118342665D01*
X175596766Y-118296994D01*
X175705499Y-118237217D01*
X175708902Y-118235483D01*
X175735575Y-118222932D01*
X175760445Y-118207148D01*
X175763766Y-118205184D01*
X175872484Y-118145416D01*
X175972830Y-118072509D01*
X175976031Y-118070334D01*
X176000916Y-118054542D01*
X176023635Y-118035747D01*
X176026655Y-118033404D01*
X176127030Y-117960478D01*
X176217494Y-117875526D01*
X176220329Y-117873027D01*
X176243060Y-117854223D01*
X176263261Y-117832710D01*
X176265932Y-117830039D01*
X176356390Y-117745094D01*
X176435485Y-117649484D01*
X176438003Y-117646628D01*
X176458187Y-117625135D01*
X176458201Y-117625115D01*
X176458209Y-117625106D01*
X176475514Y-117601288D01*
X176477872Y-117598247D01*
X176556947Y-117502663D01*
X176623440Y-117397885D01*
X176625564Y-117394761D01*
X176642907Y-117370891D01*
X176657116Y-117345044D01*
X176659059Y-117341759D01*
X176725537Y-117237007D01*
X176778353Y-117124766D01*
X176780096Y-117121343D01*
X176794304Y-117095501D01*
X176805160Y-117068079D01*
X176806668Y-117064594D01*
X176859503Y-116952315D01*
X176897845Y-116834310D01*
X176899148Y-116830694D01*
X176909992Y-116803306D01*
X176917319Y-116774769D01*
X176918395Y-116771063D01*
X176956731Y-116653079D01*
X176979980Y-116531199D01*
X176980820Y-116527447D01*
X176988146Y-116498916D01*
X176991840Y-116469668D01*
X176992439Y-116465885D01*
X177015688Y-116344015D01*
X177015688Y-116344012D01*
X177015689Y-116344009D01*
X177018753Y-116295289D01*
X177023477Y-116220197D01*
X177023842Y-116216347D01*
X177027532Y-116187138D01*
X177027533Y-116187131D01*
X177028167Y-116146716D01*
X177028278Y-116143886D01*
X177035444Y-116030000D01*
X177028279Y-115916116D01*
X177028167Y-115913280D01*
X177027533Y-115872869D01*
X177027532Y-115872862D01*
X177027532Y-115872854D01*
X177023842Y-115843650D01*
X177023477Y-115839796D01*
X177019203Y-115771855D01*
X177015689Y-115715990D01*
X177015687Y-115715982D01*
X176992436Y-115594093D01*
X176991838Y-115590313D01*
X176991836Y-115590300D01*
X176988146Y-115561084D01*
X176980825Y-115532569D01*
X176979975Y-115528767D01*
X176957013Y-115408400D01*
X176956731Y-115406921D01*
X176918399Y-115288950D01*
X176917318Y-115285226D01*
X176909994Y-115256701D01*
X176909993Y-115256699D01*
X176909992Y-115256694D01*
X176899134Y-115229269D01*
X176897844Y-115225686D01*
X176859503Y-115107685D01*
X176806682Y-114995435D01*
X176805157Y-114991912D01*
X176794304Y-114964499D01*
X176794285Y-114964465D01*
X176780113Y-114938685D01*
X176778344Y-114935213D01*
X176759334Y-114894816D01*
X176725537Y-114822993D01*
X176659061Y-114718244D01*
X176657095Y-114714917D01*
X176642907Y-114689109D01*
X176625579Y-114665259D01*
X176623427Y-114662093D01*
X176556947Y-114557337D01*
X176556946Y-114557336D01*
X176556945Y-114557334D01*
X176477898Y-114461782D01*
X176475511Y-114458704D01*
X176458221Y-114434906D01*
X176458191Y-114434871D01*
X176458187Y-114434865D01*
X176444102Y-114419866D01*
X176438028Y-114413397D01*
X176435462Y-114410487D01*
X176356390Y-114314906D01*
X176356388Y-114314904D01*
X176356384Y-114314899D01*
X176265973Y-114229998D01*
X176263221Y-114227246D01*
X176261864Y-114225801D01*
X176243060Y-114205777D01*
X176243059Y-114205776D01*
X176243057Y-114205774D01*
X176243049Y-114205766D01*
X176220361Y-114186998D01*
X176217439Y-114184422D01*
X176127031Y-114099523D01*
X176127021Y-114099515D01*
X176026688Y-114026619D01*
X176023609Y-114024231D01*
X176000918Y-114005459D01*
X176000900Y-114005446D01*
X175976030Y-113989663D01*
X175972807Y-113987473D01*
X175872485Y-113914584D01*
X175763788Y-113854826D01*
X175760439Y-113852845D01*
X175736435Y-113837614D01*
X175735575Y-113837068D01*
X175735574Y-113837067D01*
X175735567Y-113837063D01*
X175708929Y-113824528D01*
X175705460Y-113822760D01*
X175596759Y-113763002D01*
X175596756Y-113763001D01*
X175481463Y-113717354D01*
X175477887Y-113715807D01*
X175451239Y-113703268D01*
X175451199Y-113703252D01*
X175423198Y-113694154D01*
X175419532Y-113692834D01*
X175304227Y-113647181D01*
X175184091Y-113616335D01*
X175180353Y-113615249D01*
X175152336Y-113606147D01*
X175123418Y-113600630D01*
X175119619Y-113599781D01*
X174999471Y-113568933D01*
X174876435Y-113553390D01*
X174872588Y-113552781D01*
X174843666Y-113547264D01*
X174843644Y-113547261D01*
X174843643Y-113547261D01*
X174843640Y-113547260D01*
X174843594Y-113547255D01*
X174814219Y-113545407D01*
X174810342Y-113545040D01*
X174687330Y-113529500D01*
X174687318Y-113529500D01*
X174563273Y-113529500D01*
X174559402Y-113529378D01*
X174534162Y-113527790D01*
X174530002Y-113527529D01*
X174529998Y-113527529D01*
X174525837Y-113527790D01*
X174500597Y-113529378D01*
X174496727Y-113529500D01*
X174372682Y-113529500D01*
X174372680Y-113529500D01*
X174372667Y-113529501D01*
X174249656Y-113545040D01*
X174245779Y-113545407D01*
X174216395Y-113547255D01*
X174216338Y-113547262D01*
X174187410Y-113552781D01*
X174183563Y-113553390D01*
X174060530Y-113568933D01*
X174060528Y-113568933D01*
X173940386Y-113599779D01*
X173936589Y-113600628D01*
X173907669Y-113606146D01*
X173907665Y-113606147D01*
X173907661Y-113606148D01*
X173897385Y-113609486D01*
X173879651Y-113615248D01*
X173875913Y-113616334D01*
X173755769Y-113647182D01*
X173640466Y-113692834D01*
X173636801Y-113694154D01*
X173608808Y-113703249D01*
X173608760Y-113703268D01*
X173582129Y-113715800D01*
X173578554Y-113717347D01*
X173463233Y-113763005D01*
X173354538Y-113822761D01*
X173351069Y-113824529D01*
X173324433Y-113837063D01*
X173324422Y-113837069D01*
X173299557Y-113852847D01*
X173296208Y-113854828D01*
X173187512Y-113914585D01*
X173187510Y-113914587D01*
X173087184Y-113987478D01*
X173083962Y-113989667D01*
X173059114Y-114005436D01*
X173059073Y-114005466D01*
X173036391Y-114024229D01*
X173033315Y-114026616D01*
X172932966Y-114099524D01*
X172932965Y-114099525D01*
X172842569Y-114184413D01*
X172839647Y-114186989D01*
X172816961Y-114205756D01*
X172816933Y-114205782D01*
X172810207Y-114212945D01*
X172796772Y-114227252D01*
X172794018Y-114230005D01*
X172703611Y-114314904D01*
X172624545Y-114410476D01*
X172621972Y-114413396D01*
X172611547Y-114424497D01*
X172601828Y-114434847D01*
X172601782Y-114434902D01*
X172584492Y-114458701D01*
X172582105Y-114461778D01*
X172503053Y-114557335D01*
X172503048Y-114557342D01*
X172436593Y-114662058D01*
X172434405Y-114665278D01*
X172417086Y-114689118D01*
X172417082Y-114689125D01*
X172402897Y-114714926D01*
X172400916Y-114718276D01*
X172334464Y-114822990D01*
X172281649Y-114935223D01*
X172279877Y-114938701D01*
X172278375Y-114941433D01*
X172265713Y-114964465D01*
X172265701Y-114964489D01*
X172265696Y-114964499D01*
X172265693Y-114964506D01*
X172265687Y-114964519D01*
X172254854Y-114991879D01*
X172253308Y-114995452D01*
X172200500Y-115107676D01*
X172200496Y-115107687D01*
X172162168Y-115225644D01*
X172160850Y-115229307D01*
X172150009Y-115256689D01*
X172150004Y-115256703D01*
X172142679Y-115285230D01*
X172141593Y-115288969D01*
X172103269Y-115406918D01*
X172103268Y-115406924D01*
X172080029Y-115528749D01*
X172079179Y-115532550D01*
X172071858Y-115561059D01*
X172071852Y-115561093D01*
X172068162Y-115590300D01*
X172067553Y-115594146D01*
X172044312Y-115715982D01*
X172044310Y-115715999D01*
X172036522Y-115839781D01*
X172036156Y-115843658D01*
X172032468Y-115872846D01*
X172032467Y-115872874D01*
X172032467Y-115902313D01*
X172032345Y-115906185D01*
X172024556Y-116030000D01*
X59035444Y-116030000D01*
X59028279Y-115916116D01*
X59028167Y-115913280D01*
X59027533Y-115872869D01*
X59027532Y-115872862D01*
X59027532Y-115872854D01*
X59023842Y-115843650D01*
X59023477Y-115839796D01*
X59019203Y-115771855D01*
X59015689Y-115715990D01*
X59015687Y-115715982D01*
X58992436Y-115594093D01*
X58991838Y-115590313D01*
X58991836Y-115590300D01*
X58988146Y-115561084D01*
X58980825Y-115532569D01*
X58979975Y-115528767D01*
X58957013Y-115408400D01*
X58956731Y-115406921D01*
X58918399Y-115288950D01*
X58917318Y-115285226D01*
X58909994Y-115256701D01*
X58909993Y-115256699D01*
X58909992Y-115256694D01*
X58899134Y-115229269D01*
X58897844Y-115225686D01*
X58859503Y-115107685D01*
X58806682Y-114995435D01*
X58805157Y-114991912D01*
X58794304Y-114964499D01*
X58794285Y-114964465D01*
X58780113Y-114938685D01*
X58778344Y-114935213D01*
X58759334Y-114894816D01*
X58725537Y-114822993D01*
X58659061Y-114718244D01*
X58657095Y-114714917D01*
X58642907Y-114689109D01*
X58625579Y-114665259D01*
X58623427Y-114662093D01*
X58556947Y-114557337D01*
X58556946Y-114557336D01*
X58556945Y-114557334D01*
X58477898Y-114461782D01*
X58475511Y-114458704D01*
X58458221Y-114434906D01*
X58458191Y-114434871D01*
X58458187Y-114434865D01*
X58444102Y-114419866D01*
X58438028Y-114413397D01*
X58435462Y-114410487D01*
X58356390Y-114314906D01*
X58356388Y-114314904D01*
X58356384Y-114314899D01*
X58265973Y-114229998D01*
X58263221Y-114227246D01*
X58261864Y-114225801D01*
X58243060Y-114205777D01*
X58243059Y-114205776D01*
X58243057Y-114205774D01*
X58243049Y-114205766D01*
X58220361Y-114186998D01*
X58217439Y-114184422D01*
X58127031Y-114099523D01*
X58127021Y-114099515D01*
X58026688Y-114026619D01*
X58023609Y-114024231D01*
X58000918Y-114005459D01*
X58000900Y-114005446D01*
X57976030Y-113989663D01*
X57972807Y-113987473D01*
X57872485Y-113914584D01*
X57763788Y-113854826D01*
X57760439Y-113852845D01*
X57736435Y-113837614D01*
X57735575Y-113837068D01*
X57735574Y-113837067D01*
X57735567Y-113837063D01*
X57708929Y-113824528D01*
X57705460Y-113822760D01*
X57596759Y-113763002D01*
X57596756Y-113763001D01*
X57481463Y-113717354D01*
X57477887Y-113715807D01*
X57451239Y-113703268D01*
X57451199Y-113703252D01*
X57423198Y-113694154D01*
X57419532Y-113692834D01*
X57304227Y-113647181D01*
X57184091Y-113616335D01*
X57180353Y-113615249D01*
X57152336Y-113606147D01*
X57123418Y-113600630D01*
X57119619Y-113599781D01*
X56999471Y-113568933D01*
X56876435Y-113553390D01*
X56872588Y-113552781D01*
X56843666Y-113547264D01*
X56843644Y-113547261D01*
X56843643Y-113547261D01*
X56843640Y-113547260D01*
X56843594Y-113547255D01*
X56814219Y-113545407D01*
X56810342Y-113545040D01*
X56687330Y-113529500D01*
X56687318Y-113529500D01*
X56563273Y-113529500D01*
X56559402Y-113529378D01*
X56534162Y-113527790D01*
X56530002Y-113527529D01*
X56529998Y-113527529D01*
X56525837Y-113527790D01*
X56500597Y-113529378D01*
X56496727Y-113529500D01*
X56372682Y-113529500D01*
X56372680Y-113529500D01*
X56372667Y-113529501D01*
X56249656Y-113545040D01*
X56245779Y-113545407D01*
X56216395Y-113547255D01*
X56216338Y-113547262D01*
X56187410Y-113552781D01*
X56183563Y-113553390D01*
X56060530Y-113568933D01*
X56060528Y-113568933D01*
X55940386Y-113599779D01*
X55936589Y-113600628D01*
X55907669Y-113606146D01*
X55907665Y-113606147D01*
X55907661Y-113606148D01*
X55897385Y-113609486D01*
X55879651Y-113615248D01*
X55875913Y-113616334D01*
X55755769Y-113647182D01*
X55640466Y-113692834D01*
X55636801Y-113694154D01*
X55608808Y-113703249D01*
X55608760Y-113703268D01*
X55582129Y-113715800D01*
X55578554Y-113717347D01*
X55463233Y-113763005D01*
X55354538Y-113822761D01*
X55351069Y-113824529D01*
X55324433Y-113837063D01*
X55324422Y-113837069D01*
X55299557Y-113852847D01*
X55296208Y-113854828D01*
X55187512Y-113914585D01*
X55187510Y-113914587D01*
X55087184Y-113987478D01*
X55083962Y-113989667D01*
X55059114Y-114005436D01*
X55059073Y-114005466D01*
X55036391Y-114024229D01*
X55033315Y-114026616D01*
X54932966Y-114099524D01*
X54932965Y-114099525D01*
X54842569Y-114184413D01*
X54839647Y-114186989D01*
X54816961Y-114205756D01*
X54816933Y-114205782D01*
X54810207Y-114212945D01*
X54796772Y-114227252D01*
X54794018Y-114230005D01*
X54703611Y-114314904D01*
X54624545Y-114410476D01*
X54621972Y-114413396D01*
X54611547Y-114424497D01*
X54601828Y-114434847D01*
X54601782Y-114434902D01*
X54584492Y-114458701D01*
X54582105Y-114461778D01*
X54503053Y-114557335D01*
X54503048Y-114557342D01*
X54436593Y-114662058D01*
X54434405Y-114665278D01*
X54417086Y-114689118D01*
X54417082Y-114689125D01*
X54402897Y-114714926D01*
X54400916Y-114718276D01*
X54334464Y-114822990D01*
X54281649Y-114935223D01*
X54279877Y-114938701D01*
X54278375Y-114941433D01*
X54265713Y-114964465D01*
X54265701Y-114964489D01*
X54265696Y-114964499D01*
X54265693Y-114964506D01*
X54265687Y-114964519D01*
X54254854Y-114991879D01*
X54253308Y-114995452D01*
X54200500Y-115107676D01*
X54200496Y-115107687D01*
X54162168Y-115225644D01*
X54160850Y-115229307D01*
X54150009Y-115256689D01*
X54150004Y-115256703D01*
X54142679Y-115285230D01*
X54141593Y-115288969D01*
X54103269Y-115406918D01*
X54103268Y-115406924D01*
X54080029Y-115528749D01*
X54079179Y-115532550D01*
X54071858Y-115561059D01*
X54071852Y-115561093D01*
X54068162Y-115590300D01*
X54067553Y-115594146D01*
X54044312Y-115715982D01*
X54044310Y-115715999D01*
X54036522Y-115839781D01*
X54036156Y-115843658D01*
X54032466Y-115872869D01*
X54032466Y-115902314D01*
X54032344Y-115906207D01*
X54024556Y-116029994D01*
X54024556Y-116030005D01*
X53290000Y-116030005D01*
X53290000Y-101092000D01*
X65700341Y-101092000D01*
X65720936Y-101327403D01*
X65720938Y-101327413D01*
X65782094Y-101555655D01*
X65782096Y-101555659D01*
X65782097Y-101555663D01*
X65881847Y-101769578D01*
X65881965Y-101769830D01*
X65881967Y-101769834D01*
X65974338Y-101901752D01*
X66017501Y-101963396D01*
X66017506Y-101963402D01*
X66139430Y-102085326D01*
X66172915Y-102146649D01*
X66167931Y-102216341D01*
X66126059Y-102272274D01*
X66095083Y-102289189D01*
X65963669Y-102338203D01*
X65963664Y-102338206D01*
X65848455Y-102424452D01*
X65848452Y-102424455D01*
X65762206Y-102539664D01*
X65762202Y-102539671D01*
X65711908Y-102674517D01*
X65705501Y-102734116D01*
X65705501Y-102734123D01*
X65705500Y-102734135D01*
X65705500Y-104529870D01*
X65705501Y-104529876D01*
X65711908Y-104589483D01*
X65762202Y-104724328D01*
X65762206Y-104724335D01*
X65848452Y-104839544D01*
X65848455Y-104839547D01*
X65963664Y-104925793D01*
X65963671Y-104925797D01*
X66098517Y-104976091D01*
X66098516Y-104976091D01*
X66105444Y-104976835D01*
X66158127Y-104982500D01*
X67953872Y-104982499D01*
X68013483Y-104976091D01*
X68148331Y-104925796D01*
X68263546Y-104839546D01*
X68349796Y-104724331D01*
X68400091Y-104589483D01*
X68405062Y-104543242D01*
X68431799Y-104478694D01*
X68489191Y-104438846D01*
X68528351Y-104432500D01*
X75264108Y-104432500D01*
X75331147Y-104452185D01*
X75347638Y-104464856D01*
X75489438Y-104594124D01*
X75489440Y-104594125D01*
X75489441Y-104594126D01*
X75678595Y-104711245D01*
X75678596Y-104711245D01*
X75678599Y-104711247D01*
X75886060Y-104791618D01*
X76104757Y-104832500D01*
X76104759Y-104832500D01*
X76327241Y-104832500D01*
X76327243Y-104832500D01*
X76545940Y-104791618D01*
X76753401Y-104711247D01*
X76942562Y-104594124D01*
X77084355Y-104464861D01*
X77147157Y-104434246D01*
X77167892Y-104432500D01*
X90983649Y-104432500D01*
X91050688Y-104452185D01*
X91096443Y-104504989D01*
X91106939Y-104543248D01*
X91111908Y-104589483D01*
X91162202Y-104724328D01*
X91162206Y-104724335D01*
X91248452Y-104839544D01*
X91248455Y-104839547D01*
X91363664Y-104925793D01*
X91363671Y-104925797D01*
X91498517Y-104976091D01*
X91498516Y-104976091D01*
X91505444Y-104976835D01*
X91558127Y-104982500D01*
X93353872Y-104982499D01*
X93413483Y-104976091D01*
X93548331Y-104925796D01*
X93663546Y-104839546D01*
X93749796Y-104724331D01*
X93800091Y-104589483D01*
X93806500Y-104529873D01*
X93806499Y-102734128D01*
X93800091Y-102674517D01*
X93754676Y-102552754D01*
X93749797Y-102539671D01*
X93749793Y-102539664D01*
X93663547Y-102424455D01*
X93663544Y-102424452D01*
X93548335Y-102338206D01*
X93548330Y-102338203D01*
X93416917Y-102289189D01*
X93360984Y-102247317D01*
X93336567Y-102181853D01*
X93351419Y-102113580D01*
X93372567Y-102085328D01*
X93494495Y-101963401D01*
X93507116Y-101945375D01*
X93561693Y-101901752D01*
X93608691Y-101892500D01*
X118463309Y-101892500D01*
X118530348Y-101912185D01*
X118564883Y-101945375D01*
X118577501Y-101963396D01*
X118577508Y-101963405D01*
X118699429Y-102085326D01*
X118732914Y-102146649D01*
X118727930Y-102216341D01*
X118686058Y-102272274D01*
X118655082Y-102289189D01*
X118523669Y-102338203D01*
X118523664Y-102338206D01*
X118408455Y-102424452D01*
X118408452Y-102424455D01*
X118322206Y-102539664D01*
X118322202Y-102539671D01*
X118271908Y-102674517D01*
X118265501Y-102734116D01*
X118265501Y-102734123D01*
X118265500Y-102734135D01*
X118265500Y-104529870D01*
X118265501Y-104529876D01*
X118271908Y-104589483D01*
X118322202Y-104724328D01*
X118322206Y-104724335D01*
X118408452Y-104839544D01*
X118408455Y-104839547D01*
X118523664Y-104925793D01*
X118523671Y-104925797D01*
X118658517Y-104976091D01*
X118658516Y-104976091D01*
X118665444Y-104976835D01*
X118718127Y-104982500D01*
X120513872Y-104982499D01*
X120573483Y-104976091D01*
X120708331Y-104925796D01*
X120823546Y-104839546D01*
X120909796Y-104724331D01*
X120960091Y-104589483D01*
X120965062Y-104543242D01*
X120991799Y-104478694D01*
X121049191Y-104438846D01*
X121088351Y-104432500D01*
X141783649Y-104432500D01*
X141850688Y-104452185D01*
X141896443Y-104504989D01*
X141906939Y-104543248D01*
X141911908Y-104589483D01*
X141962202Y-104724328D01*
X141962206Y-104724335D01*
X142048452Y-104839544D01*
X142048455Y-104839547D01*
X142163664Y-104925793D01*
X142163671Y-104925797D01*
X142298517Y-104976091D01*
X142298516Y-104976091D01*
X142305444Y-104976835D01*
X142358127Y-104982500D01*
X144153872Y-104982499D01*
X144213483Y-104976091D01*
X144348331Y-104925796D01*
X144463546Y-104839546D01*
X144549796Y-104724331D01*
X144600091Y-104589483D01*
X144606500Y-104529873D01*
X144606500Y-104529844D01*
X162226000Y-104529844D01*
X162232401Y-104589372D01*
X162232403Y-104589379D01*
X162282645Y-104724086D01*
X162282649Y-104724093D01*
X162368809Y-104839187D01*
X162368812Y-104839190D01*
X162483906Y-104925350D01*
X162483913Y-104925354D01*
X162618620Y-104975596D01*
X162618627Y-104975598D01*
X162678155Y-104981999D01*
X162678172Y-104982000D01*
X163326000Y-104982000D01*
X163326000Y-104244301D01*
X163345685Y-104177262D01*
X163398489Y-104131507D01*
X163467647Y-104121563D01*
X163540237Y-104132000D01*
X163540238Y-104132000D01*
X163611762Y-104132000D01*
X163611763Y-104132000D01*
X163684353Y-104121563D01*
X163753512Y-104131507D01*
X163806315Y-104177262D01*
X163826000Y-104244301D01*
X163826000Y-104982000D01*
X164473828Y-104982000D01*
X164473844Y-104981999D01*
X164533372Y-104975598D01*
X164533379Y-104975596D01*
X164668086Y-104925354D01*
X164668093Y-104925350D01*
X164783187Y-104839190D01*
X164783190Y-104839187D01*
X164869350Y-104724093D01*
X164869354Y-104724086D01*
X164919596Y-104589379D01*
X164919598Y-104589372D01*
X164925999Y-104529844D01*
X164926000Y-104529827D01*
X164926000Y-103882000D01*
X164189347Y-103882000D01*
X164122308Y-103862315D01*
X164076553Y-103809511D01*
X164066609Y-103740353D01*
X164070369Y-103723067D01*
X164076000Y-103703888D01*
X164076000Y-103560111D01*
X164070369Y-103540933D01*
X164070370Y-103471064D01*
X164108145Y-103412286D01*
X164171701Y-103383262D01*
X164189347Y-103382000D01*
X164926000Y-103382000D01*
X164926000Y-102734172D01*
X164925999Y-102734155D01*
X164919598Y-102674627D01*
X164919596Y-102674620D01*
X164869354Y-102539913D01*
X164869350Y-102539906D01*
X164783190Y-102424812D01*
X164783187Y-102424809D01*
X164668093Y-102338649D01*
X164668086Y-102338645D01*
X164533379Y-102288403D01*
X164533372Y-102288401D01*
X164473844Y-102282000D01*
X163826000Y-102282000D01*
X163826000Y-103019698D01*
X163806315Y-103086737D01*
X163753511Y-103132492D01*
X163684355Y-103142436D01*
X163611766Y-103132000D01*
X163611763Y-103132000D01*
X163540237Y-103132000D01*
X163540233Y-103132000D01*
X163467645Y-103142436D01*
X163398487Y-103132492D01*
X163345684Y-103086736D01*
X163326000Y-103019698D01*
X163326000Y-102282000D01*
X162678155Y-102282000D01*
X162618627Y-102288401D01*
X162618620Y-102288403D01*
X162483913Y-102338645D01*
X162483906Y-102338649D01*
X162368812Y-102424809D01*
X162368809Y-102424812D01*
X162282649Y-102539906D01*
X162282645Y-102539913D01*
X162232403Y-102674620D01*
X162232401Y-102674627D01*
X162226000Y-102734155D01*
X162226000Y-103382000D01*
X162962653Y-103382000D01*
X163029692Y-103401685D01*
X163075447Y-103454489D01*
X163085391Y-103523647D01*
X163081631Y-103540933D01*
X163076000Y-103560111D01*
X163076000Y-103703888D01*
X163081631Y-103723067D01*
X163081630Y-103792936D01*
X163043855Y-103851714D01*
X162980299Y-103880738D01*
X162962653Y-103882000D01*
X162226000Y-103882000D01*
X162226000Y-104529844D01*
X144606500Y-104529844D01*
X144606499Y-102734128D01*
X144600091Y-102674517D01*
X144554676Y-102552754D01*
X144549797Y-102539671D01*
X144549793Y-102539664D01*
X144463547Y-102424455D01*
X144463544Y-102424452D01*
X144348335Y-102338206D01*
X144348328Y-102338202D01*
X144216401Y-102288997D01*
X144160467Y-102247126D01*
X144136050Y-102181662D01*
X144150902Y-102113389D01*
X144172053Y-102085133D01*
X144294108Y-101963078D01*
X144429600Y-101769578D01*
X144529429Y-101555492D01*
X144529432Y-101555486D01*
X144586636Y-101342000D01*
X143869347Y-101342000D01*
X143802308Y-101322315D01*
X143756553Y-101269511D01*
X143746609Y-101200353D01*
X143750369Y-101183067D01*
X143756000Y-101163888D01*
X143756000Y-101020111D01*
X143750369Y-101000933D01*
X143750370Y-100931064D01*
X143788145Y-100872286D01*
X143851701Y-100843262D01*
X143869347Y-100842000D01*
X144586636Y-100842000D01*
X144586635Y-100841999D01*
X144529432Y-100628513D01*
X144529429Y-100628507D01*
X144429600Y-100414422D01*
X144429599Y-100414420D01*
X144294113Y-100220926D01*
X144294108Y-100220920D01*
X144127078Y-100053890D01*
X143941405Y-99923879D01*
X143897780Y-99869302D01*
X143890588Y-99799804D01*
X143922110Y-99737449D01*
X143941406Y-99720730D01*
X143941843Y-99720424D01*
X144127401Y-99590495D01*
X144294495Y-99423401D01*
X144430035Y-99229830D01*
X144529903Y-99015663D01*
X144591063Y-98787408D01*
X144611659Y-98552000D01*
X144591063Y-98316592D01*
X144529903Y-98088337D01*
X144430035Y-97874171D01*
X144415374Y-97853232D01*
X144294494Y-97680597D01*
X144127402Y-97513506D01*
X144127395Y-97513501D01*
X143933834Y-97377967D01*
X143933830Y-97377965D01*
X143888482Y-97356819D01*
X143719663Y-97278097D01*
X143719659Y-97278096D01*
X143719655Y-97278094D01*
X143491413Y-97216938D01*
X143491403Y-97216936D01*
X143256001Y-97196341D01*
X143255999Y-97196341D01*
X143020596Y-97216936D01*
X143020586Y-97216938D01*
X142792344Y-97278094D01*
X142792335Y-97278098D01*
X142578171Y-97377964D01*
X142578169Y-97377965D01*
X142384597Y-97513505D01*
X142217505Y-97680597D01*
X142081965Y-97874169D01*
X142081964Y-97874171D01*
X141988401Y-98074816D01*
X141987129Y-98077547D01*
X141982098Y-98088335D01*
X141982094Y-98088344D01*
X141920938Y-98316586D01*
X141920936Y-98316596D01*
X141900341Y-98551999D01*
X141900341Y-98552000D01*
X141920936Y-98787403D01*
X141920938Y-98787413D01*
X141982094Y-99015655D01*
X141982096Y-99015659D01*
X141982097Y-99015663D01*
X141983162Y-99017946D01*
X142081965Y-99229830D01*
X142081967Y-99229834D01*
X142169082Y-99354246D01*
X142217505Y-99423401D01*
X142384599Y-99590495D01*
X142557580Y-99711618D01*
X142570594Y-99720730D01*
X142614219Y-99775307D01*
X142621413Y-99844805D01*
X142589890Y-99907160D01*
X142570595Y-99923880D01*
X142384922Y-100053890D01*
X142384920Y-100053891D01*
X142217891Y-100220920D01*
X142217886Y-100220926D01*
X142082400Y-100414420D01*
X142082399Y-100414422D01*
X141982570Y-100628507D01*
X141982567Y-100628513D01*
X141925364Y-100841999D01*
X141925364Y-100842000D01*
X142642653Y-100842000D01*
X142709692Y-100861685D01*
X142755447Y-100914489D01*
X142765391Y-100983647D01*
X142761631Y-101000933D01*
X142756000Y-101020111D01*
X142756000Y-101163888D01*
X142761631Y-101183067D01*
X142761630Y-101252936D01*
X142723855Y-101311714D01*
X142660299Y-101340738D01*
X142642653Y-101342000D01*
X141925364Y-101342000D01*
X141982567Y-101555486D01*
X141982570Y-101555492D01*
X142082399Y-101769578D01*
X142217894Y-101963082D01*
X142339946Y-102085134D01*
X142373431Y-102146457D01*
X142368447Y-102216149D01*
X142326575Y-102272082D01*
X142295598Y-102288997D01*
X142163671Y-102338202D01*
X142163664Y-102338206D01*
X142048455Y-102424452D01*
X142048452Y-102424455D01*
X141962206Y-102539664D01*
X141962202Y-102539671D01*
X141911910Y-102674513D01*
X141911909Y-102674517D01*
X141906937Y-102720757D01*
X141880201Y-102785306D01*
X141822809Y-102825154D01*
X141783649Y-102831500D01*
X121088351Y-102831500D01*
X121021312Y-102811815D01*
X120975557Y-102759011D01*
X120965061Y-102720752D01*
X120960091Y-102674516D01*
X120909797Y-102539671D01*
X120909793Y-102539664D01*
X120823547Y-102424455D01*
X120823544Y-102424452D01*
X120708335Y-102338206D01*
X120708328Y-102338202D01*
X120576917Y-102289189D01*
X120520983Y-102247318D01*
X120496566Y-102181853D01*
X120511418Y-102113580D01*
X120532563Y-102085332D01*
X120654495Y-101963401D01*
X120790035Y-101769830D01*
X120889903Y-101555663D01*
X120951063Y-101327408D01*
X120971659Y-101092000D01*
X120951063Y-100856592D01*
X120889903Y-100628337D01*
X120790035Y-100414171D01*
X120704141Y-100291500D01*
X120654494Y-100220597D01*
X120487402Y-100053506D01*
X120487396Y-100053501D01*
X120301842Y-99923575D01*
X120258217Y-99868998D01*
X120251023Y-99799500D01*
X120282546Y-99737145D01*
X120301842Y-99720425D01*
X120429204Y-99631245D01*
X120487401Y-99590495D01*
X120654495Y-99423401D01*
X120790035Y-99229830D01*
X120889903Y-99015663D01*
X120951063Y-98787408D01*
X120971659Y-98552000D01*
X120958710Y-98404005D01*
X120972476Y-98335508D01*
X120994554Y-98305522D01*
X127023258Y-92276819D01*
X127084582Y-92243334D01*
X127110940Y-92240500D01*
X145886194Y-92240500D01*
X145926903Y-92231208D01*
X145933760Y-92230043D01*
X145975255Y-92225368D01*
X146014680Y-92211571D01*
X146021321Y-92209658D01*
X146062061Y-92200360D01*
X146099693Y-92182236D01*
X146106105Y-92179580D01*
X146145522Y-92165789D01*
X146180889Y-92143565D01*
X146186961Y-92140209D01*
X146224587Y-92122091D01*
X146257236Y-92096052D01*
X146262895Y-92092037D01*
X146298262Y-92069816D01*
X146425816Y-91942262D01*
X146425816Y-91942261D01*
X151171258Y-87196819D01*
X151232582Y-87163334D01*
X151258940Y-87160500D01*
X162103649Y-87160500D01*
X162170688Y-87180185D01*
X162216443Y-87232989D01*
X162226939Y-87271248D01*
X162231908Y-87317483D01*
X162282202Y-87452328D01*
X162282206Y-87452335D01*
X162368452Y-87567544D01*
X162368455Y-87567547D01*
X162483664Y-87653793D01*
X162483671Y-87653797D01*
X162618517Y-87704091D01*
X162618516Y-87704091D01*
X162625444Y-87704835D01*
X162678127Y-87710500D01*
X164473872Y-87710499D01*
X164533483Y-87704091D01*
X164668331Y-87653796D01*
X164783546Y-87567546D01*
X164869796Y-87452331D01*
X164920091Y-87317483D01*
X164926500Y-87257873D01*
X164926499Y-85462128D01*
X164920091Y-85402517D01*
X164869796Y-85267669D01*
X164869795Y-85267668D01*
X164869793Y-85267664D01*
X164783547Y-85152455D01*
X164783544Y-85152452D01*
X164668335Y-85066206D01*
X164668328Y-85066202D01*
X164533482Y-85015908D01*
X164533483Y-85015908D01*
X164473883Y-85009501D01*
X164473881Y-85009500D01*
X164473873Y-85009500D01*
X164473864Y-85009500D01*
X162678129Y-85009500D01*
X162678123Y-85009501D01*
X162618516Y-85015908D01*
X162483671Y-85066202D01*
X162483664Y-85066206D01*
X162368455Y-85152452D01*
X162368452Y-85152455D01*
X162282206Y-85267664D01*
X162282202Y-85267671D01*
X162231910Y-85402513D01*
X162231909Y-85402517D01*
X162226937Y-85448757D01*
X162200201Y-85513306D01*
X162142809Y-85553154D01*
X162103649Y-85559500D01*
X150966194Y-85559500D01*
X150785806Y-85559500D01*
X150779888Y-85560850D01*
X150745089Y-85568791D01*
X150738235Y-85569955D01*
X150696744Y-85574632D01*
X150657341Y-85588419D01*
X150650659Y-85590344D01*
X150609939Y-85599640D01*
X150572306Y-85617761D01*
X150565880Y-85620423D01*
X150526475Y-85634212D01*
X150491123Y-85656424D01*
X150485037Y-85659787D01*
X150447413Y-85677907D01*
X150447408Y-85677911D01*
X150414762Y-85703944D01*
X150409090Y-85707969D01*
X150373738Y-85730183D01*
X150373735Y-85730185D01*
X150352410Y-85751511D01*
X150341748Y-85762174D01*
X147906001Y-88197921D01*
X145500741Y-90603181D01*
X145439418Y-90636666D01*
X145413060Y-90639500D01*
X126818194Y-90639500D01*
X126637806Y-90639500D01*
X126631888Y-90640850D01*
X126597089Y-90648791D01*
X126590235Y-90649955D01*
X126548744Y-90654632D01*
X126509341Y-90668419D01*
X126502659Y-90670344D01*
X126461939Y-90679640D01*
X126424306Y-90697761D01*
X126417880Y-90700423D01*
X126378475Y-90714212D01*
X126343123Y-90736424D01*
X126337037Y-90739787D01*
X126299413Y-90757907D01*
X126299408Y-90757911D01*
X126266762Y-90783944D01*
X126261090Y-90787969D01*
X126225738Y-90810183D01*
X126225733Y-90810187D01*
X126135168Y-90900750D01*
X126135160Y-90900761D01*
X119862479Y-97173441D01*
X119801156Y-97206926D01*
X119763991Y-97209288D01*
X119616002Y-97196341D01*
X119615998Y-97196341D01*
X119468007Y-97209288D01*
X119399507Y-97195521D01*
X119369519Y-97173441D01*
X118086262Y-95890184D01*
X118086259Y-95890182D01*
X118050904Y-95867966D01*
X118045229Y-95863940D01*
X118012589Y-95837910D01*
X117974959Y-95819787D01*
X117968872Y-95816422D01*
X117933525Y-95794212D01*
X117894114Y-95780421D01*
X117887688Y-95777759D01*
X117850061Y-95759639D01*
X117809345Y-95750345D01*
X117802662Y-95748420D01*
X117763259Y-95734632D01*
X117721763Y-95729955D01*
X117714908Y-95728791D01*
X117674200Y-95719501D01*
X117674196Y-95719500D01*
X117674194Y-95719500D01*
X117674191Y-95719500D01*
X112824990Y-95719500D01*
X112757951Y-95699815D01*
X112717604Y-95657501D01*
X112660959Y-95559388D01*
X112502050Y-95360123D01*
X112315217Y-95186768D01*
X112104634Y-95043195D01*
X112104630Y-95043193D01*
X112104627Y-95043191D01*
X112104626Y-95043190D01*
X111875006Y-94932612D01*
X111875008Y-94932612D01*
X111631466Y-94857489D01*
X111631462Y-94857488D01*
X111631458Y-94857487D01*
X111510231Y-94839214D01*
X111379440Y-94819500D01*
X111379435Y-94819500D01*
X111124565Y-94819500D01*
X111124559Y-94819500D01*
X110967609Y-94843157D01*
X110872542Y-94857487D01*
X110872538Y-94857488D01*
X110872539Y-94857488D01*
X110872533Y-94857489D01*
X110628992Y-94932612D01*
X110399373Y-95043190D01*
X110399372Y-95043191D01*
X110188782Y-95186768D01*
X110001952Y-95360121D01*
X110001950Y-95360123D01*
X109843041Y-95559388D01*
X109715608Y-95780109D01*
X109622492Y-96017362D01*
X109622490Y-96017369D01*
X109565777Y-96265845D01*
X109546732Y-96519995D01*
X109546732Y-96520004D01*
X109565777Y-96774154D01*
X109565778Y-96774157D01*
X109622492Y-97022637D01*
X109715607Y-97259888D01*
X109843041Y-97480612D01*
X110001950Y-97679877D01*
X110188783Y-97853232D01*
X110399366Y-97996805D01*
X110399371Y-97996807D01*
X110399372Y-97996808D01*
X110399373Y-97996809D01*
X110521328Y-98055538D01*
X110628992Y-98107387D01*
X110628993Y-98107387D01*
X110628996Y-98107389D01*
X110872542Y-98182513D01*
X111124565Y-98220500D01*
X111379435Y-98220500D01*
X111631458Y-98182513D01*
X111875004Y-98107389D01*
X112104634Y-97996805D01*
X112315217Y-97853232D01*
X112502050Y-97679877D01*
X112660959Y-97480612D01*
X112717604Y-97382498D01*
X112768169Y-97334285D01*
X112824990Y-97320500D01*
X117201060Y-97320500D01*
X117268099Y-97340185D01*
X117288741Y-97356819D01*
X118237441Y-98305519D01*
X118270926Y-98366842D01*
X118273288Y-98404007D01*
X118260341Y-98551997D01*
X118260341Y-98552000D01*
X118280936Y-98787403D01*
X118280938Y-98787413D01*
X118342094Y-99015655D01*
X118342096Y-99015659D01*
X118342097Y-99015663D01*
X118343162Y-99017946D01*
X118441965Y-99229830D01*
X118441967Y-99229834D01*
X118577501Y-99423395D01*
X118577506Y-99423402D01*
X118744597Y-99590493D01*
X118744603Y-99590498D01*
X118930158Y-99720425D01*
X118973783Y-99775002D01*
X118980977Y-99844500D01*
X118949454Y-99906855D01*
X118930158Y-99923575D01*
X118744597Y-100053505D01*
X118577508Y-100220594D01*
X118564884Y-100238624D01*
X118510307Y-100282248D01*
X118463309Y-100291500D01*
X93608691Y-100291500D01*
X93541652Y-100271815D01*
X93507116Y-100238624D01*
X93494495Y-100220599D01*
X93494493Y-100220597D01*
X93494491Y-100220594D01*
X93327402Y-100053506D01*
X93327401Y-100053505D01*
X93205746Y-99968321D01*
X93141841Y-99923574D01*
X93098216Y-99868997D01*
X93091024Y-99799498D01*
X93122546Y-99737144D01*
X93141836Y-99720428D01*
X93327401Y-99590495D01*
X93494495Y-99423401D01*
X93507116Y-99405375D01*
X93561693Y-99361752D01*
X93608691Y-99352500D01*
X99150194Y-99352500D01*
X99190903Y-99343208D01*
X99197760Y-99342043D01*
X99239255Y-99337368D01*
X99278680Y-99323571D01*
X99285321Y-99321658D01*
X99326061Y-99312360D01*
X99363693Y-99294236D01*
X99370105Y-99291580D01*
X99409522Y-99277789D01*
X99444889Y-99255565D01*
X99450961Y-99252209D01*
X99488587Y-99234091D01*
X99521236Y-99208052D01*
X99526895Y-99204037D01*
X99562262Y-99181816D01*
X99689816Y-99054262D01*
X99689815Y-99054261D01*
X100487258Y-98256818D01*
X100548582Y-98223333D01*
X100574940Y-98220499D01*
X102339871Y-98220499D01*
X102339872Y-98220499D01*
X102399483Y-98214091D01*
X102534331Y-98163796D01*
X102649546Y-98077546D01*
X102735796Y-97962331D01*
X102786091Y-97827483D01*
X102792500Y-97767873D01*
X102792499Y-95272128D01*
X102786091Y-95212517D01*
X102776487Y-95186768D01*
X102735797Y-95077671D01*
X102735793Y-95077664D01*
X102649547Y-94962455D01*
X102649544Y-94962452D01*
X102534335Y-94876206D01*
X102534328Y-94876202D01*
X102399482Y-94825908D01*
X102399483Y-94825908D01*
X102339883Y-94819501D01*
X102339881Y-94819500D01*
X102339873Y-94819500D01*
X102339865Y-94819500D01*
X102016500Y-94819500D01*
X101949461Y-94799815D01*
X101903706Y-94747011D01*
X101892500Y-94695500D01*
X101892500Y-91822940D01*
X101912185Y-91755901D01*
X101928819Y-91735259D01*
X102403259Y-91260819D01*
X102464582Y-91227334D01*
X102490940Y-91224500D01*
X105246194Y-91224500D01*
X105286903Y-91215208D01*
X105293760Y-91214043D01*
X105335255Y-91209368D01*
X105374680Y-91195571D01*
X105381321Y-91193658D01*
X105422061Y-91184360D01*
X105459693Y-91166236D01*
X105466105Y-91163580D01*
X105505522Y-91149789D01*
X105540889Y-91127565D01*
X105546961Y-91124209D01*
X105584587Y-91106091D01*
X105617236Y-91080052D01*
X105622895Y-91076037D01*
X105658262Y-91053816D01*
X105785816Y-90926262D01*
X105844375Y-90867703D01*
X105844388Y-90867688D01*
X108070077Y-88642000D01*
X143079505Y-88642000D01*
X143132239Y-88827349D01*
X143231368Y-89026425D01*
X143365391Y-89203900D01*
X143529738Y-89353721D01*
X143718820Y-89470797D01*
X143718822Y-89470798D01*
X143926195Y-89551135D01*
X144006000Y-89566052D01*
X144006000Y-88849898D01*
X144025685Y-88782859D01*
X144078489Y-88737104D01*
X144147647Y-88727160D01*
X144170259Y-88732615D01*
X144197595Y-88742000D01*
X144285004Y-88742000D01*
X144285005Y-88742000D01*
X144361590Y-88729220D01*
X144430955Y-88737602D01*
X144484777Y-88782155D01*
X144505968Y-88848733D01*
X144506000Y-88851529D01*
X144506000Y-89566052D01*
X144585804Y-89551135D01*
X144793177Y-89470798D01*
X144793179Y-89470797D01*
X144982261Y-89353721D01*
X145146608Y-89203900D01*
X145280631Y-89026425D01*
X145379760Y-88827349D01*
X145432495Y-88642000D01*
X144718047Y-88642000D01*
X144651008Y-88622315D01*
X144605253Y-88569511D01*
X144595309Y-88500353D01*
X144597842Y-88487557D01*
X144599979Y-88479114D01*
X144599982Y-88479108D01*
X144609628Y-88362698D01*
X144592849Y-88296438D01*
X144595475Y-88226619D01*
X144635431Y-88169302D01*
X144700032Y-88142686D01*
X144713055Y-88142000D01*
X145432495Y-88142000D01*
X145379760Y-87956650D01*
X145280631Y-87757574D01*
X145146608Y-87580099D01*
X144982261Y-87430278D01*
X144793179Y-87313202D01*
X144793177Y-87313201D01*
X144585799Y-87232864D01*
X144506000Y-87217946D01*
X144506000Y-87934101D01*
X144486315Y-88001140D01*
X144433511Y-88046895D01*
X144364353Y-88056839D01*
X144341738Y-88051383D01*
X144314406Y-88042000D01*
X144314405Y-88042000D01*
X144226995Y-88042000D01*
X144226994Y-88042000D01*
X144150408Y-88054779D01*
X144081043Y-88046396D01*
X144027222Y-88001843D01*
X144006031Y-87935264D01*
X144006000Y-87932470D01*
X144006000Y-87217946D01*
X143926200Y-87232864D01*
X143718822Y-87313201D01*
X143718820Y-87313202D01*
X143529738Y-87430278D01*
X143365391Y-87580099D01*
X143231368Y-87757574D01*
X143132239Y-87956650D01*
X143079505Y-88142000D01*
X143793953Y-88142000D01*
X143860992Y-88161685D01*
X143906747Y-88214489D01*
X143916691Y-88283647D01*
X143914158Y-88296443D01*
X143912017Y-88304896D01*
X143902371Y-88421299D01*
X143902371Y-88421302D01*
X143902372Y-88421302D01*
X143917010Y-88479108D01*
X143919151Y-88487560D01*
X143916525Y-88557381D01*
X143876569Y-88614698D01*
X143811968Y-88641314D01*
X143798945Y-88642000D01*
X143079505Y-88642000D01*
X108070077Y-88642000D01*
X109817826Y-86894252D01*
X109854077Y-86858001D01*
X109856627Y-86851420D01*
X109872041Y-86826889D01*
X109876039Y-86821255D01*
X109902092Y-86788587D01*
X109920208Y-86750965D01*
X109923575Y-86744874D01*
X109945789Y-86709522D01*
X109959578Y-86670109D01*
X109962235Y-86663695D01*
X109980360Y-86626061D01*
X109989652Y-86585349D01*
X109991573Y-86578676D01*
X110005368Y-86539255D01*
X110010043Y-86497760D01*
X110011208Y-86490905D01*
X110012726Y-86484249D01*
X110020500Y-86450194D01*
X110020500Y-86269806D01*
X110020500Y-75139046D01*
X110020500Y-75093806D01*
X110011207Y-75053093D01*
X110010042Y-75046233D01*
X110005368Y-75004745D01*
X110005367Y-75004742D01*
X109991576Y-74965328D01*
X109989650Y-74958641D01*
X109980360Y-74917939D01*
X109962238Y-74880307D01*
X109959583Y-74873899D01*
X109945789Y-74834478D01*
X109945785Y-74834471D01*
X109923574Y-74799122D01*
X109920209Y-74793033D01*
X109910289Y-74772435D01*
X109902092Y-74755414D01*
X109901728Y-74754957D01*
X109876055Y-74722763D01*
X109872029Y-74717089D01*
X109849819Y-74681742D01*
X109849817Y-74681739D01*
X105780078Y-70612000D01*
X116500341Y-70612000D01*
X116520936Y-70847403D01*
X116520938Y-70847413D01*
X116582094Y-71075655D01*
X116582096Y-71075659D01*
X116582097Y-71075663D01*
X116660223Y-71243204D01*
X116681965Y-71289830D01*
X116681967Y-71289834D01*
X116817501Y-71483395D01*
X116817506Y-71483402D01*
X116939430Y-71605326D01*
X116972915Y-71666649D01*
X116967931Y-71736341D01*
X116926059Y-71792274D01*
X116895083Y-71809189D01*
X116763669Y-71858203D01*
X116763664Y-71858206D01*
X116648455Y-71944452D01*
X116648452Y-71944455D01*
X116562206Y-72059664D01*
X116562202Y-72059671D01*
X116511908Y-72194517D01*
X116505501Y-72254116D01*
X116505500Y-72254135D01*
X116505500Y-74049870D01*
X116505501Y-74049876D01*
X116511908Y-74109483D01*
X116562202Y-74244328D01*
X116562206Y-74244335D01*
X116648452Y-74359544D01*
X116648455Y-74359547D01*
X116763664Y-74445793D01*
X116763671Y-74445797D01*
X116898517Y-74496091D01*
X116898516Y-74496091D01*
X116905444Y-74496835D01*
X116958127Y-74502500D01*
X118753872Y-74502499D01*
X118813483Y-74496091D01*
X118948331Y-74445796D01*
X119063546Y-74359546D01*
X119149796Y-74244331D01*
X119200091Y-74109483D01*
X119205062Y-74063242D01*
X119231799Y-73998694D01*
X119289191Y-73958846D01*
X119328351Y-73952500D01*
X121502194Y-73952500D01*
X121542903Y-73943208D01*
X121549760Y-73942043D01*
X121591255Y-73937368D01*
X121630680Y-73923571D01*
X121637321Y-73921658D01*
X121678061Y-73912360D01*
X121715693Y-73894236D01*
X121722105Y-73891580D01*
X121761522Y-73877789D01*
X121796889Y-73855565D01*
X121802961Y-73852209D01*
X121840587Y-73834091D01*
X121873236Y-73808052D01*
X121878895Y-73804037D01*
X121914262Y-73781816D01*
X122041816Y-73654262D01*
X122041816Y-73654261D01*
X122739258Y-72956819D01*
X122800582Y-72923334D01*
X122826940Y-72920500D01*
X123508108Y-72920500D01*
X123575147Y-72940185D01*
X123591638Y-72952856D01*
X123733438Y-73082124D01*
X123733440Y-73082125D01*
X123733441Y-73082126D01*
X123922595Y-73199245D01*
X123922596Y-73199245D01*
X123922599Y-73199247D01*
X124130060Y-73279618D01*
X124348757Y-73320500D01*
X124348759Y-73320500D01*
X124571241Y-73320500D01*
X124571243Y-73320500D01*
X124789940Y-73279618D01*
X124997401Y-73199247D01*
X125186562Y-73082124D01*
X125328355Y-72952861D01*
X125391157Y-72922246D01*
X125411892Y-72920500D01*
X128125060Y-72920500D01*
X128192099Y-72940185D01*
X128212741Y-72956819D01*
X129037740Y-73781818D01*
X129050790Y-73790017D01*
X129073104Y-73804038D01*
X129078757Y-73808049D01*
X129111413Y-73834091D01*
X129149044Y-73852213D01*
X129155106Y-73855563D01*
X129190472Y-73877785D01*
X129190478Y-73877789D01*
X129229898Y-73891583D01*
X129236326Y-73894245D01*
X129273939Y-73912359D01*
X129314655Y-73921652D01*
X129321324Y-73923574D01*
X129360745Y-73937368D01*
X129402251Y-73942044D01*
X129409076Y-73943203D01*
X129449805Y-73952500D01*
X132170194Y-73952500D01*
X132210903Y-73943208D01*
X132217760Y-73942043D01*
X132259255Y-73937368D01*
X132298680Y-73923571D01*
X132305321Y-73921658D01*
X132346061Y-73912360D01*
X132383693Y-73894236D01*
X132390105Y-73891580D01*
X132429522Y-73877789D01*
X132464889Y-73855565D01*
X132470961Y-73852209D01*
X132508587Y-73834091D01*
X132541236Y-73808052D01*
X132546895Y-73804037D01*
X132582262Y-73781816D01*
X132709816Y-73654262D01*
X132709815Y-73654262D01*
X132728074Y-73636003D01*
X132789398Y-73602518D01*
X132859089Y-73607502D01*
X132881033Y-73618257D01*
X133050595Y-73723245D01*
X133050596Y-73723245D01*
X133050599Y-73723247D01*
X133258060Y-73803618D01*
X133476757Y-73844500D01*
X133476759Y-73844500D01*
X133699241Y-73844500D01*
X133699243Y-73844500D01*
X133917940Y-73803618D01*
X134125401Y-73723247D01*
X134314562Y-73606124D01*
X134437023Y-73494486D01*
X134456355Y-73476863D01*
X134519159Y-73446246D01*
X134539893Y-73444500D01*
X134543046Y-73444500D01*
X137716108Y-73444500D01*
X137783147Y-73464185D01*
X137799638Y-73476856D01*
X137941438Y-73606124D01*
X137941440Y-73606125D01*
X137941441Y-73606126D01*
X138130595Y-73723245D01*
X138130596Y-73723245D01*
X138130599Y-73723247D01*
X138338060Y-73803618D01*
X138556757Y-73844500D01*
X138556759Y-73844500D01*
X138779241Y-73844500D01*
X138779243Y-73844500D01*
X138997940Y-73803618D01*
X139205401Y-73723247D01*
X139394562Y-73606124D01*
X139536354Y-73476863D01*
X139558979Y-73456238D01*
X139565015Y-73448246D01*
X139693058Y-73278689D01*
X139792229Y-73079528D01*
X139853115Y-72865536D01*
X139873643Y-72644000D01*
X139873643Y-72638267D01*
X139876284Y-72638267D01*
X139887551Y-72580699D01*
X139909919Y-72550157D01*
X141626258Y-70833819D01*
X141687582Y-70800334D01*
X141713940Y-70797500D01*
X142103309Y-70797500D01*
X142170348Y-70817185D01*
X142204883Y-70850375D01*
X142217505Y-70868401D01*
X142339431Y-70990327D01*
X142372915Y-71051648D01*
X142367931Y-71121340D01*
X142326060Y-71177274D01*
X142295083Y-71194189D01*
X142163669Y-71243203D01*
X142163664Y-71243206D01*
X142048455Y-71329452D01*
X142048452Y-71329455D01*
X141962206Y-71444664D01*
X141962202Y-71444671D01*
X141911908Y-71579517D01*
X141906938Y-71625752D01*
X141905501Y-71639123D01*
X141905500Y-71639135D01*
X141905500Y-73434870D01*
X141905501Y-73434876D01*
X141911908Y-73494483D01*
X141962202Y-73629328D01*
X141962206Y-73629335D01*
X142048452Y-73744544D01*
X142048455Y-73744547D01*
X142163664Y-73830793D01*
X142163671Y-73830797D01*
X142298516Y-73881091D01*
X142344757Y-73886063D01*
X142409307Y-73912801D01*
X142449155Y-73970194D01*
X142455500Y-74009352D01*
X142455500Y-81402191D01*
X142455501Y-81402200D01*
X142464791Y-81442908D01*
X142465955Y-81449763D01*
X142470632Y-81491259D01*
X142484420Y-81530662D01*
X142486345Y-81537345D01*
X142495639Y-81578061D01*
X142513759Y-81615688D01*
X142516421Y-81622114D01*
X142530212Y-81661525D01*
X142552422Y-81696872D01*
X142555787Y-81702959D01*
X142573910Y-81740589D01*
X142599940Y-81773229D01*
X142603966Y-81778904D01*
X142626182Y-81814259D01*
X142626184Y-81814262D01*
X143265773Y-82453851D01*
X143299258Y-82515174D01*
X143294274Y-82584866D01*
X143277046Y-82616258D01*
X143230947Y-82677302D01*
X143230938Y-82677316D01*
X143131775Y-82876461D01*
X143131769Y-82876476D01*
X143070885Y-83090462D01*
X143070884Y-83090464D01*
X143050357Y-83311999D01*
X143050357Y-83312000D01*
X143070884Y-83533535D01*
X143070885Y-83533537D01*
X143131769Y-83747523D01*
X143131775Y-83747538D01*
X143230938Y-83946683D01*
X143230943Y-83946691D01*
X143365020Y-84124238D01*
X143529437Y-84274123D01*
X143529439Y-84274125D01*
X143718595Y-84391245D01*
X143718596Y-84391245D01*
X143718599Y-84391247D01*
X143926060Y-84471618D01*
X144144757Y-84512500D01*
X144144759Y-84512500D01*
X144367241Y-84512500D01*
X144367243Y-84512500D01*
X144585940Y-84471618D01*
X144793401Y-84391247D01*
X144982562Y-84274124D01*
X145146981Y-84124236D01*
X145281058Y-83946689D01*
X145380229Y-83747528D01*
X145441115Y-83533536D01*
X145461643Y-83312000D01*
X145441115Y-83090464D01*
X145380229Y-82876472D01*
X145380224Y-82876461D01*
X145281061Y-82677316D01*
X145281056Y-82677308D01*
X145169927Y-82530150D01*
X145146981Y-82499764D01*
X145146978Y-82499761D01*
X145146974Y-82499756D01*
X145096961Y-82454163D01*
X145060680Y-82394451D01*
X145056500Y-82362527D01*
X145056500Y-82221807D01*
X145056500Y-82221806D01*
X145047207Y-82181093D01*
X145046042Y-82174233D01*
X145041368Y-82132745D01*
X145041367Y-82132742D01*
X145027576Y-82093328D01*
X145025650Y-82086641D01*
X145016360Y-82045939D01*
X144998238Y-82008307D01*
X144995583Y-82001899D01*
X144981789Y-81962478D01*
X144959574Y-81927123D01*
X144956208Y-81921033D01*
X144938092Y-81883415D01*
X144938090Y-81883411D01*
X144912060Y-81850770D01*
X144908033Y-81845096D01*
X144885816Y-81809738D01*
X144758262Y-81682184D01*
X144092819Y-81016740D01*
X144059334Y-80955417D01*
X144056500Y-80929059D01*
X144056500Y-74009351D01*
X144076185Y-73942312D01*
X144128989Y-73896557D01*
X144167247Y-73886061D01*
X144213483Y-73881091D01*
X144348331Y-73830796D01*
X144463546Y-73744546D01*
X144549796Y-73629331D01*
X144600091Y-73494483D01*
X144606500Y-73434873D01*
X144606499Y-71639128D01*
X144600091Y-71579517D01*
X144594584Y-71564753D01*
X144549797Y-71444671D01*
X144549793Y-71444664D01*
X144463547Y-71329455D01*
X144463544Y-71329452D01*
X144348335Y-71243206D01*
X144348328Y-71243202D01*
X144216917Y-71194189D01*
X144160983Y-71152318D01*
X144136566Y-71086853D01*
X144151418Y-71018580D01*
X144172563Y-70990332D01*
X144294495Y-70868401D01*
X144307116Y-70850375D01*
X144361693Y-70806752D01*
X144408691Y-70797500D01*
X150114887Y-70797500D01*
X150181926Y-70817185D01*
X150202568Y-70833819D01*
X153150566Y-73781817D01*
X153150569Y-73781819D01*
X153185916Y-73804029D01*
X153191590Y-73808055D01*
X153220104Y-73830793D01*
X153224241Y-73834092D01*
X153241262Y-73842289D01*
X153261860Y-73852209D01*
X153267949Y-73855574D01*
X153303298Y-73877785D01*
X153303301Y-73877786D01*
X153303305Y-73877789D01*
X153342726Y-73891583D01*
X153349134Y-73894238D01*
X153386762Y-73912359D01*
X153386765Y-73912359D01*
X153386766Y-73912360D01*
X153401184Y-73915650D01*
X153427468Y-73921650D01*
X153434155Y-73923576D01*
X153464883Y-73934327D01*
X153473569Y-73937367D01*
X153480143Y-73939667D01*
X153479588Y-73941252D01*
X153527006Y-73966047D01*
X153689438Y-74114124D01*
X153689440Y-74114125D01*
X153689441Y-74114126D01*
X153878595Y-74231245D01*
X153878596Y-74231245D01*
X153878599Y-74231247D01*
X154086060Y-74311618D01*
X154304757Y-74352500D01*
X154304759Y-74352500D01*
X154527241Y-74352500D01*
X154527243Y-74352500D01*
X154745940Y-74311618D01*
X154953401Y-74231247D01*
X155142562Y-74114124D01*
X155284355Y-73984861D01*
X155347157Y-73954246D01*
X155367892Y-73952500D01*
X160618194Y-73952500D01*
X160658903Y-73943208D01*
X160665760Y-73942043D01*
X160707255Y-73937368D01*
X160746680Y-73923571D01*
X160753321Y-73921658D01*
X160794061Y-73912360D01*
X160831693Y-73894236D01*
X160838105Y-73891580D01*
X160877522Y-73877789D01*
X160912889Y-73855565D01*
X160918961Y-73852209D01*
X160956587Y-73834091D01*
X160989236Y-73808052D01*
X160994895Y-73804037D01*
X161030262Y-73781816D01*
X161157816Y-73654262D01*
X163321259Y-71490817D01*
X163382582Y-71457333D01*
X163408940Y-71454499D01*
X164473871Y-71454499D01*
X164473872Y-71454499D01*
X164533483Y-71448091D01*
X164668331Y-71397796D01*
X164783546Y-71311546D01*
X164869796Y-71196331D01*
X164920091Y-71061483D01*
X164926500Y-71001873D01*
X164926499Y-69206128D01*
X164921299Y-69157757D01*
X164920091Y-69146516D01*
X164869797Y-69011671D01*
X164869793Y-69011664D01*
X164783547Y-68896455D01*
X164783544Y-68896452D01*
X164668335Y-68810206D01*
X164668328Y-68810202D01*
X164533482Y-68759908D01*
X164533483Y-68759908D01*
X164473883Y-68753501D01*
X164473881Y-68753500D01*
X164473873Y-68753500D01*
X164473864Y-68753500D01*
X162678129Y-68753500D01*
X162678123Y-68753501D01*
X162618516Y-68759908D01*
X162483671Y-68810202D01*
X162483664Y-68810206D01*
X162368455Y-68896452D01*
X162368452Y-68896455D01*
X162282206Y-69011664D01*
X162282202Y-69011671D01*
X162231908Y-69146517D01*
X162226535Y-69196500D01*
X162225501Y-69206123D01*
X162225500Y-69206135D01*
X162225500Y-70271059D01*
X162205815Y-70338098D01*
X162189181Y-70358740D01*
X160232741Y-72315181D01*
X160171418Y-72348666D01*
X160145060Y-72351500D01*
X155367892Y-72351500D01*
X155300853Y-72331815D01*
X155284361Y-72319143D01*
X155142562Y-72189876D01*
X155142559Y-72189874D01*
X155142558Y-72189873D01*
X154953404Y-72072754D01*
X154953398Y-72072752D01*
X154745940Y-71992382D01*
X154527243Y-71951500D01*
X154304757Y-71951500D01*
X154086060Y-71992382D01*
X154029783Y-72014184D01*
X153878601Y-72072752D01*
X153878592Y-72072756D01*
X153855295Y-72087181D01*
X153787934Y-72105735D01*
X153721235Y-72084926D01*
X153702339Y-72069434D01*
X151049520Y-69416615D01*
X151049518Y-69416612D01*
X151032079Y-69399173D01*
X151000089Y-69367184D01*
X151000086Y-69367182D01*
X151000085Y-69367181D01*
X150964731Y-69344966D01*
X150959056Y-69340940D01*
X150926416Y-69314910D01*
X150888786Y-69296787D01*
X150882699Y-69293422D01*
X150847352Y-69271212D01*
X150807941Y-69257421D01*
X150801515Y-69254759D01*
X150763888Y-69236639D01*
X150723172Y-69227345D01*
X150716489Y-69225420D01*
X150677086Y-69211632D01*
X150635590Y-69206955D01*
X150628735Y-69205791D01*
X150588027Y-69196501D01*
X150588023Y-69196500D01*
X150588021Y-69196500D01*
X150588018Y-69196500D01*
X144408691Y-69196500D01*
X144341652Y-69176815D01*
X144307116Y-69143624D01*
X144294491Y-69125594D01*
X144127402Y-68958506D01*
X144127396Y-68958501D01*
X143941842Y-68828575D01*
X143898217Y-68773998D01*
X143891023Y-68704500D01*
X143922546Y-68642145D01*
X143941842Y-68625425D01*
X143964026Y-68609891D01*
X144127401Y-68495495D01*
X144294495Y-68328401D01*
X144430035Y-68134830D01*
X144529903Y-67920663D01*
X144591063Y-67692408D01*
X144611659Y-67457000D01*
X144591063Y-67221592D01*
X144529903Y-66993337D01*
X144430035Y-66779171D01*
X144412086Y-66753536D01*
X144294494Y-66585597D01*
X144127402Y-66418506D01*
X144127395Y-66418501D01*
X143933834Y-66282967D01*
X143933830Y-66282965D01*
X143815451Y-66227764D01*
X143719663Y-66183097D01*
X143719659Y-66183096D01*
X143719655Y-66183094D01*
X143491413Y-66121938D01*
X143491403Y-66121936D01*
X143256001Y-66101341D01*
X143255999Y-66101341D01*
X143020596Y-66121936D01*
X143020586Y-66121938D01*
X142792344Y-66183094D01*
X142792335Y-66183098D01*
X142578171Y-66282964D01*
X142578169Y-66282965D01*
X142384597Y-66418505D01*
X142217505Y-66585597D01*
X142081965Y-66779169D01*
X142081964Y-66779171D01*
X141982098Y-66993335D01*
X141982094Y-66993344D01*
X141920938Y-67221586D01*
X141920936Y-67221596D01*
X141900341Y-67456999D01*
X141900341Y-67457000D01*
X141920936Y-67692403D01*
X141920938Y-67692413D01*
X141982094Y-67920655D01*
X141982096Y-67920659D01*
X141982097Y-67920663D01*
X142048296Y-68062627D01*
X142081965Y-68134830D01*
X142081967Y-68134834D01*
X142217501Y-68328395D01*
X142217506Y-68328402D01*
X142384597Y-68495493D01*
X142384603Y-68495498D01*
X142570158Y-68625425D01*
X142613783Y-68680002D01*
X142620977Y-68749500D01*
X142589454Y-68811855D01*
X142570158Y-68828575D01*
X142384597Y-68958505D01*
X142217508Y-69125594D01*
X142204884Y-69143624D01*
X142150307Y-69187248D01*
X142103309Y-69196500D01*
X141421194Y-69196500D01*
X141240805Y-69196500D01*
X141240803Y-69196500D01*
X141240797Y-69196501D01*
X141200098Y-69205790D01*
X141193242Y-69206955D01*
X141151743Y-69211632D01*
X141112328Y-69225423D01*
X141105646Y-69227348D01*
X141064940Y-69236640D01*
X141027326Y-69254753D01*
X141020901Y-69257414D01*
X140981482Y-69271209D01*
X140981474Y-69271213D01*
X140946117Y-69293428D01*
X140940032Y-69296791D01*
X140902413Y-69314908D01*
X140902411Y-69314909D01*
X140869769Y-69340941D01*
X140864096Y-69344966D01*
X140828739Y-69367183D01*
X140828737Y-69367184D01*
X140828738Y-69367184D01*
X140806924Y-69388998D01*
X140779307Y-69416614D01*
X140779306Y-69416615D01*
X138788741Y-71407181D01*
X138727418Y-71440666D01*
X138701060Y-71443500D01*
X138556757Y-71443500D01*
X138338060Y-71484382D01*
X138240508Y-71522174D01*
X138130601Y-71564752D01*
X138130595Y-71564754D01*
X137941441Y-71681873D01*
X137941437Y-71681876D01*
X137941438Y-71681876D01*
X137799644Y-71811138D01*
X137736843Y-71841754D01*
X137716108Y-71843500D01*
X134539893Y-71843500D01*
X134472854Y-71823815D01*
X134456355Y-71811137D01*
X134314562Y-71681876D01*
X134314560Y-71681874D01*
X134125404Y-71564754D01*
X134125398Y-71564752D01*
X133917940Y-71484382D01*
X133699243Y-71443500D01*
X133476757Y-71443500D01*
X133258060Y-71484382D01*
X133160508Y-71522174D01*
X133050601Y-71564752D01*
X133050595Y-71564754D01*
X132861441Y-71681873D01*
X132861437Y-71681876D01*
X132861438Y-71681876D01*
X132719644Y-71811138D01*
X132656843Y-71841754D01*
X132636108Y-71843500D01*
X132497805Y-71843500D01*
X132497803Y-71843500D01*
X132497797Y-71843501D01*
X132457098Y-71852790D01*
X132450242Y-71853955D01*
X132408743Y-71858632D01*
X132369328Y-71872423D01*
X132362646Y-71874348D01*
X132321940Y-71883640D01*
X132284326Y-71901753D01*
X132277901Y-71904414D01*
X132238482Y-71918209D01*
X132238474Y-71918213D01*
X132203117Y-71940428D01*
X132197032Y-71943791D01*
X132159413Y-71961908D01*
X132159411Y-71961909D01*
X132126769Y-71987941D01*
X132121096Y-71991966D01*
X132085739Y-72014183D01*
X132036307Y-72063614D01*
X132036306Y-72063615D01*
X131784741Y-72315181D01*
X131723418Y-72348666D01*
X131697060Y-72351500D01*
X129922940Y-72351500D01*
X129855901Y-72331815D01*
X129835259Y-72315181D01*
X129010262Y-71490184D01*
X129010259Y-71490182D01*
X128974904Y-71467966D01*
X128969229Y-71463940D01*
X128936589Y-71437910D01*
X128898959Y-71419787D01*
X128892872Y-71416422D01*
X128857525Y-71394212D01*
X128818114Y-71380421D01*
X128811688Y-71377759D01*
X128774061Y-71359639D01*
X128733345Y-71350345D01*
X128726662Y-71348420D01*
X128687259Y-71334632D01*
X128645763Y-71329955D01*
X128638908Y-71328791D01*
X128598200Y-71319501D01*
X128598196Y-71319500D01*
X128598194Y-71319500D01*
X128598191Y-71319500D01*
X125411892Y-71319500D01*
X125344853Y-71299815D01*
X125328361Y-71287143D01*
X125186562Y-71157876D01*
X125186559Y-71157874D01*
X125186558Y-71157873D01*
X124997404Y-71040754D01*
X124997398Y-71040752D01*
X124789940Y-70960382D01*
X124571243Y-70919500D01*
X124348757Y-70919500D01*
X124130060Y-70960382D01*
X124052766Y-70990326D01*
X123922601Y-71040752D01*
X123922595Y-71040754D01*
X123733441Y-71157873D01*
X123733437Y-71157876D01*
X123733438Y-71157876D01*
X123591644Y-71287138D01*
X123528843Y-71317754D01*
X123508108Y-71319500D01*
X122534194Y-71319500D01*
X122353805Y-71319500D01*
X122353803Y-71319500D01*
X122353797Y-71319501D01*
X122313098Y-71328790D01*
X122306242Y-71329955D01*
X122264743Y-71334632D01*
X122225328Y-71348423D01*
X122218646Y-71350348D01*
X122177940Y-71359640D01*
X122140326Y-71377753D01*
X122133901Y-71380414D01*
X122094482Y-71394209D01*
X122094474Y-71394213D01*
X122059117Y-71416428D01*
X122053032Y-71419791D01*
X122015413Y-71437908D01*
X122015411Y-71437909D01*
X121982769Y-71463941D01*
X121977096Y-71467966D01*
X121941739Y-71490183D01*
X121851164Y-71580755D01*
X121851160Y-71580761D01*
X121116741Y-72315181D01*
X121055418Y-72348666D01*
X121029060Y-72351500D01*
X119328351Y-72351500D01*
X119261312Y-72331815D01*
X119215557Y-72279011D01*
X119205061Y-72240752D01*
X119200091Y-72194516D01*
X119149797Y-72059671D01*
X119149793Y-72059664D01*
X119063547Y-71944455D01*
X119063544Y-71944452D01*
X118948335Y-71858206D01*
X118948328Y-71858202D01*
X118816917Y-71809189D01*
X118760983Y-71767318D01*
X118736566Y-71701853D01*
X118751418Y-71633580D01*
X118772563Y-71605332D01*
X118894495Y-71483401D01*
X118907116Y-71465375D01*
X118961693Y-71421752D01*
X119008691Y-71412500D01*
X120978194Y-71412500D01*
X121018903Y-71403208D01*
X121025760Y-71402043D01*
X121067255Y-71397368D01*
X121106680Y-71383571D01*
X121113321Y-71381658D01*
X121154061Y-71372360D01*
X121191693Y-71354236D01*
X121198105Y-71351580D01*
X121237522Y-71337789D01*
X121272889Y-71315565D01*
X121278961Y-71312209D01*
X121316587Y-71294091D01*
X121349236Y-71268052D01*
X121354895Y-71264037D01*
X121390262Y-71241816D01*
X121517816Y-71114262D01*
X124355259Y-68276818D01*
X124416582Y-68243334D01*
X124442940Y-68240500D01*
X124571241Y-68240500D01*
X124571243Y-68240500D01*
X124789940Y-68199618D01*
X124997401Y-68119247D01*
X125186562Y-68002124D01*
X125350981Y-67852236D01*
X125485058Y-67674689D01*
X125584229Y-67475528D01*
X125645115Y-67261536D01*
X125665643Y-67040000D01*
X125645115Y-66818464D01*
X125584229Y-66604472D01*
X125584224Y-66604461D01*
X125485061Y-66405316D01*
X125485056Y-66405308D01*
X125350979Y-66227761D01*
X125186562Y-66077876D01*
X125186560Y-66077874D01*
X124997404Y-65960754D01*
X124997398Y-65960752D01*
X124789940Y-65880382D01*
X124571243Y-65839500D01*
X124348757Y-65839500D01*
X124130060Y-65880382D01*
X123998864Y-65931207D01*
X123922601Y-65960752D01*
X123922595Y-65960754D01*
X123733439Y-66077874D01*
X123733437Y-66077876D01*
X123569020Y-66227761D01*
X123434943Y-66405308D01*
X123434938Y-66405316D01*
X123335775Y-66604461D01*
X123335769Y-66604476D01*
X123274885Y-66818462D01*
X123274884Y-66818464D01*
X123254357Y-67039998D01*
X123255225Y-67049370D01*
X123241806Y-67117939D01*
X123219434Y-67148486D01*
X120592741Y-69775181D01*
X120531418Y-69808666D01*
X120505060Y-69811500D01*
X119008691Y-69811500D01*
X118941652Y-69791815D01*
X118907116Y-69758624D01*
X118894491Y-69740594D01*
X118727402Y-69573506D01*
X118727396Y-69573501D01*
X118541842Y-69443575D01*
X118498217Y-69388998D01*
X118491023Y-69319500D01*
X118522546Y-69257145D01*
X118541842Y-69240425D01*
X118570748Y-69220185D01*
X118727401Y-69110495D01*
X118894495Y-68943401D01*
X119030035Y-68749830D01*
X119129903Y-68535663D01*
X119191063Y-68307408D01*
X119211659Y-68072000D01*
X119191063Y-67836592D01*
X119129903Y-67608337D01*
X119030035Y-67394171D01*
X119022818Y-67383863D01*
X118894494Y-67200597D01*
X118727402Y-67033506D01*
X118727395Y-67033501D01*
X118533834Y-66897967D01*
X118533830Y-66897965D01*
X118533830Y-66897964D01*
X118319663Y-66798097D01*
X118319659Y-66798096D01*
X118319655Y-66798094D01*
X118091413Y-66736938D01*
X118091403Y-66736936D01*
X117856001Y-66716341D01*
X117855999Y-66716341D01*
X117620596Y-66736936D01*
X117620586Y-66736938D01*
X117392344Y-66798094D01*
X117392335Y-66798098D01*
X117178171Y-66897964D01*
X117178169Y-66897965D01*
X116984597Y-67033505D01*
X116817505Y-67200597D01*
X116681965Y-67394169D01*
X116681964Y-67394171D01*
X116582098Y-67608335D01*
X116582094Y-67608344D01*
X116520938Y-67836586D01*
X116520936Y-67836596D01*
X116500341Y-68071999D01*
X116500341Y-68072000D01*
X116520936Y-68307403D01*
X116520938Y-68307413D01*
X116582094Y-68535655D01*
X116582096Y-68535659D01*
X116582097Y-68535663D01*
X116623954Y-68625425D01*
X116681965Y-68749830D01*
X116681967Y-68749834D01*
X116817501Y-68943395D01*
X116817506Y-68943402D01*
X116984597Y-69110493D01*
X116984603Y-69110498D01*
X117170158Y-69240425D01*
X117213783Y-69295002D01*
X117220977Y-69364500D01*
X117189454Y-69426855D01*
X117170158Y-69443575D01*
X116984597Y-69573505D01*
X116817505Y-69740597D01*
X116681965Y-69934169D01*
X116681964Y-69934171D01*
X116582098Y-70148335D01*
X116582094Y-70148344D01*
X116520938Y-70376586D01*
X116520936Y-70376596D01*
X116500341Y-70611999D01*
X116500341Y-70612000D01*
X105780078Y-70612000D01*
X102938261Y-67770183D01*
X102902904Y-67747967D01*
X102897230Y-67743941D01*
X102864589Y-67717910D01*
X102826959Y-67699787D01*
X102820872Y-67696422D01*
X102785525Y-67674212D01*
X102746114Y-67660421D01*
X102739688Y-67657759D01*
X102702061Y-67639639D01*
X102661345Y-67630345D01*
X102654662Y-67628420D01*
X102615259Y-67614632D01*
X102573763Y-67609955D01*
X102566908Y-67608791D01*
X102526200Y-67599501D01*
X102526196Y-67599500D01*
X102526194Y-67599500D01*
X102526191Y-67599500D01*
X99991051Y-67599500D01*
X99924012Y-67579815D01*
X99878257Y-67527011D01*
X99868313Y-67457853D01*
X99897338Y-67394297D01*
X99907513Y-67383863D01*
X99950979Y-67344238D01*
X100001164Y-67277783D01*
X100085058Y-67166689D01*
X100184229Y-66967528D01*
X100245115Y-66753536D01*
X100265643Y-66532000D01*
X100245115Y-66310464D01*
X100184229Y-66096472D01*
X100184224Y-66096461D01*
X100085061Y-65897316D01*
X100085056Y-65897308D01*
X99950979Y-65719761D01*
X99786562Y-65569876D01*
X99786560Y-65569874D01*
X99597404Y-65452754D01*
X99597398Y-65452752D01*
X99389940Y-65372382D01*
X99171243Y-65331500D01*
X98948757Y-65331500D01*
X98730060Y-65372382D01*
X98598864Y-65423207D01*
X98522601Y-65452752D01*
X98522595Y-65452754D01*
X98333439Y-65569874D01*
X98333437Y-65569876D01*
X98169020Y-65719761D01*
X98034943Y-65897308D01*
X98034938Y-65897316D01*
X97935775Y-66096461D01*
X97935769Y-66096476D01*
X97874885Y-66310462D01*
X97874884Y-66310464D01*
X97854357Y-66531999D01*
X97854357Y-66532000D01*
X97874884Y-66753535D01*
X97874885Y-66753537D01*
X97935769Y-66967523D01*
X97935775Y-66967538D01*
X98034938Y-67166683D01*
X98034943Y-67166691D01*
X98169020Y-67344238D01*
X98212487Y-67383863D01*
X98248769Y-67443574D01*
X98247008Y-67513422D01*
X98207764Y-67571229D01*
X98143498Y-67598644D01*
X98128949Y-67599500D01*
X93934514Y-67599500D01*
X93867475Y-67579815D01*
X93821720Y-67527011D01*
X93810986Y-67464692D01*
X93811659Y-67457000D01*
X93811659Y-67456999D01*
X93794558Y-67261537D01*
X93791063Y-67221592D01*
X93729903Y-66993337D01*
X93630035Y-66779171D01*
X93612086Y-66753536D01*
X93494494Y-66585597D01*
X93327402Y-66418506D01*
X93327395Y-66418501D01*
X93133834Y-66282967D01*
X93133830Y-66282965D01*
X93015451Y-66227764D01*
X92919663Y-66183097D01*
X92919659Y-66183096D01*
X92919655Y-66183094D01*
X92691413Y-66121938D01*
X92691403Y-66121936D01*
X92456001Y-66101341D01*
X92455999Y-66101341D01*
X92220596Y-66121936D01*
X92220586Y-66121938D01*
X91992344Y-66183094D01*
X91992335Y-66183098D01*
X91778171Y-66282964D01*
X91778169Y-66282965D01*
X91584597Y-66418505D01*
X91417505Y-66585597D01*
X91281965Y-66779169D01*
X91281964Y-66779171D01*
X91182098Y-66993335D01*
X91182094Y-66993344D01*
X91130047Y-67187593D01*
X91093682Y-67247254D01*
X91030836Y-67277783D01*
X91010272Y-67279500D01*
X75337152Y-67279500D01*
X75270113Y-67259815D01*
X75224358Y-67207011D01*
X75214414Y-67137853D01*
X75226152Y-67100228D01*
X75292224Y-66967538D01*
X75292223Y-66967538D01*
X75292229Y-66967528D01*
X75353115Y-66753536D01*
X75373643Y-66532000D01*
X75353115Y-66310464D01*
X75292229Y-66096472D01*
X75292224Y-66096461D01*
X75193061Y-65897316D01*
X75193056Y-65897308D01*
X75058979Y-65719761D01*
X74894562Y-65569876D01*
X74894560Y-65569874D01*
X74705404Y-65452754D01*
X74705398Y-65452752D01*
X74497940Y-65372382D01*
X74279243Y-65331500D01*
X74056757Y-65331500D01*
X73838060Y-65372382D01*
X73706864Y-65423207D01*
X73630601Y-65452752D01*
X73630595Y-65452754D01*
X73441439Y-65569874D01*
X73441437Y-65569876D01*
X73277020Y-65719761D01*
X73142943Y-65897308D01*
X73142938Y-65897316D01*
X73043775Y-66096461D01*
X73043769Y-66096476D01*
X72982885Y-66310462D01*
X72982884Y-66310464D01*
X72962357Y-66531999D01*
X72962357Y-66532000D01*
X72982884Y-66753535D01*
X72982885Y-66753537D01*
X73043769Y-66967523D01*
X73043775Y-66967538D01*
X73109848Y-67100228D01*
X73122109Y-67169013D01*
X73095236Y-67233508D01*
X73037761Y-67273236D01*
X72998848Y-67279500D01*
X68501728Y-67279500D01*
X68434689Y-67259815D01*
X68388934Y-67207011D01*
X68381953Y-67187593D01*
X68376352Y-67166691D01*
X68329903Y-66993337D01*
X68230035Y-66779171D01*
X68212086Y-66753536D01*
X68094494Y-66585597D01*
X67927402Y-66418506D01*
X67927395Y-66418501D01*
X67733834Y-66282967D01*
X67733830Y-66282965D01*
X67615451Y-66227764D01*
X67519663Y-66183097D01*
X67519659Y-66183096D01*
X67519655Y-66183094D01*
X67291413Y-66121938D01*
X67291403Y-66121936D01*
X67056001Y-66101341D01*
X67055999Y-66101341D01*
X66820596Y-66121936D01*
X66820586Y-66121938D01*
X66592344Y-66183094D01*
X66592335Y-66183098D01*
X66378171Y-66282964D01*
X66378169Y-66282965D01*
X66184597Y-66418505D01*
X66017505Y-66585597D01*
X65881965Y-66779169D01*
X65881964Y-66779171D01*
X65782098Y-66993335D01*
X65782094Y-66993344D01*
X65720938Y-67221586D01*
X65720936Y-67221596D01*
X65700341Y-67456999D01*
X65700341Y-67457000D01*
X65720936Y-67692403D01*
X65720938Y-67692413D01*
X65782094Y-67920655D01*
X65782096Y-67920659D01*
X65782097Y-67920663D01*
X65848296Y-68062627D01*
X65881965Y-68134830D01*
X65881967Y-68134834D01*
X66017501Y-68328395D01*
X66017506Y-68328402D01*
X66184597Y-68495493D01*
X66184603Y-68495498D01*
X66370158Y-68625425D01*
X66413783Y-68680002D01*
X66420977Y-68749500D01*
X66389454Y-68811855D01*
X66370158Y-68828575D01*
X66184597Y-68958505D01*
X66017505Y-69125597D01*
X65881965Y-69319169D01*
X65881964Y-69319171D01*
X65782098Y-69533335D01*
X65782094Y-69533344D01*
X65720938Y-69761586D01*
X65720936Y-69761596D01*
X65700341Y-69996999D01*
X65700341Y-69997000D01*
X65720936Y-70232403D01*
X65720938Y-70232413D01*
X65782094Y-70460655D01*
X65782096Y-70460659D01*
X65782097Y-70460663D01*
X65815714Y-70532754D01*
X65881965Y-70674830D01*
X65881967Y-70674834D01*
X65974338Y-70806752D01*
X66017501Y-70868396D01*
X66017506Y-70868402D01*
X66139430Y-70990326D01*
X66172915Y-71051649D01*
X66167931Y-71121341D01*
X66126059Y-71177274D01*
X66095083Y-71194189D01*
X65963669Y-71243203D01*
X65963664Y-71243206D01*
X65848455Y-71329452D01*
X65848452Y-71329455D01*
X65762206Y-71444664D01*
X65762202Y-71444671D01*
X65711908Y-71579517D01*
X65706938Y-71625752D01*
X65705501Y-71639123D01*
X65705500Y-71639135D01*
X65705500Y-73434870D01*
X65705501Y-73434876D01*
X65711908Y-73494483D01*
X65762202Y-73629328D01*
X65762206Y-73629335D01*
X65848452Y-73744544D01*
X65848455Y-73744547D01*
X65963664Y-73830793D01*
X65963671Y-73830797D01*
X66098517Y-73881091D01*
X66098516Y-73881091D01*
X66105444Y-73881835D01*
X66158127Y-73887500D01*
X67953872Y-73887499D01*
X68013483Y-73881091D01*
X68148331Y-73830796D01*
X68263546Y-73744546D01*
X68349796Y-73629331D01*
X68400091Y-73494483D01*
X68406500Y-73434873D01*
X68406499Y-72536499D01*
X68426183Y-72469461D01*
X68478987Y-72423706D01*
X68530499Y-72412500D01*
X73216108Y-72412500D01*
X73283147Y-72432185D01*
X73299638Y-72444856D01*
X73441438Y-72574124D01*
X73441440Y-72574125D01*
X73441441Y-72574126D01*
X73630595Y-72691245D01*
X73630596Y-72691245D01*
X73630599Y-72691247D01*
X73838060Y-72771618D01*
X74056757Y-72812500D01*
X74056759Y-72812500D01*
X74279241Y-72812500D01*
X74279243Y-72812500D01*
X74497940Y-72771618D01*
X74705401Y-72691247D01*
X74894562Y-72574124D01*
X75036355Y-72444861D01*
X75099157Y-72414246D01*
X75119892Y-72412500D01*
X90981500Y-72412500D01*
X91048539Y-72432185D01*
X91094294Y-72484989D01*
X91105500Y-72536500D01*
X91105500Y-73434870D01*
X91105501Y-73434876D01*
X91111908Y-73494483D01*
X91162202Y-73629328D01*
X91162206Y-73629335D01*
X91248452Y-73744544D01*
X91248455Y-73744547D01*
X91363664Y-73830793D01*
X91363671Y-73830797D01*
X91498517Y-73881091D01*
X91498516Y-73881091D01*
X91505444Y-73881835D01*
X91558127Y-73887500D01*
X93353872Y-73887499D01*
X93413483Y-73881091D01*
X93548331Y-73830796D01*
X93663546Y-73744546D01*
X93749796Y-73629331D01*
X93800091Y-73494483D01*
X93805062Y-73448242D01*
X93831799Y-73383694D01*
X93889191Y-73343846D01*
X93928351Y-73337500D01*
X98225194Y-73337500D01*
X98265903Y-73328208D01*
X98272760Y-73327043D01*
X98314255Y-73322368D01*
X98353680Y-73308571D01*
X98360321Y-73306658D01*
X98401061Y-73297360D01*
X98438693Y-73279236D01*
X98445105Y-73276580D01*
X98484522Y-73262789D01*
X98519889Y-73240565D01*
X98525961Y-73237209D01*
X98563587Y-73219091D01*
X98596236Y-73193052D01*
X98601895Y-73189037D01*
X98637262Y-73166816D01*
X98764816Y-73039262D01*
X98764815Y-73039261D01*
X98955259Y-72848818D01*
X99016584Y-72815334D01*
X99042941Y-72812500D01*
X99171241Y-72812500D01*
X99171243Y-72812500D01*
X99389940Y-72771618D01*
X99597401Y-72691247D01*
X99786562Y-72574124D01*
X99928354Y-72444863D01*
X99950979Y-72424238D01*
X99959844Y-72412500D01*
X100085058Y-72246689D01*
X100184229Y-72047528D01*
X100245115Y-71833536D01*
X100265643Y-71612000D01*
X100265024Y-71605325D01*
X100245115Y-71390464D01*
X100245114Y-71390462D01*
X100243155Y-71383578D01*
X100184229Y-71176472D01*
X100181522Y-71171035D01*
X100085061Y-70977316D01*
X100085056Y-70977308D01*
X99950979Y-70799761D01*
X99786562Y-70649876D01*
X99786560Y-70649874D01*
X99597404Y-70532754D01*
X99597398Y-70532752D01*
X99389940Y-70452382D01*
X99171243Y-70411500D01*
X98948757Y-70411500D01*
X98730060Y-70452382D01*
X98598864Y-70503207D01*
X98522601Y-70532752D01*
X98522595Y-70532754D01*
X98333439Y-70649874D01*
X98333437Y-70649876D01*
X98169020Y-70799761D01*
X98034943Y-70977308D01*
X98034938Y-70977316D01*
X97935775Y-71176461D01*
X97935769Y-71176476D01*
X97874885Y-71390462D01*
X97874884Y-71390464D01*
X97854357Y-71611999D01*
X97854357Y-71612500D01*
X97854289Y-71612730D01*
X97853828Y-71617708D01*
X97852854Y-71617617D01*
X97834672Y-71679539D01*
X97781868Y-71725294D01*
X97730357Y-71736500D01*
X93928351Y-71736500D01*
X93861312Y-71716815D01*
X93815557Y-71664011D01*
X93805061Y-71625752D01*
X93800091Y-71579516D01*
X93749797Y-71444671D01*
X93749793Y-71444664D01*
X93663547Y-71329455D01*
X93663544Y-71329452D01*
X93548335Y-71243206D01*
X93548328Y-71243202D01*
X93416917Y-71194189D01*
X93360983Y-71152318D01*
X93336566Y-71086853D01*
X93351418Y-71018580D01*
X93372563Y-70990332D01*
X93494495Y-70868401D01*
X93630035Y-70674830D01*
X93729903Y-70460663D01*
X93791063Y-70232408D01*
X93811659Y-69997000D01*
X93791063Y-69761592D01*
X93729903Y-69533337D01*
X93656956Y-69376904D01*
X93646465Y-69307827D01*
X93674985Y-69244043D01*
X93733461Y-69205804D01*
X93769339Y-69200500D01*
X102053060Y-69200500D01*
X102120099Y-69220185D01*
X102140741Y-69236819D01*
X108383181Y-75479259D01*
X108416666Y-75540582D01*
X108419500Y-75566940D01*
X108419500Y-85977060D01*
X108399815Y-86044099D01*
X108383181Y-86064741D01*
X104860741Y-89587181D01*
X104799418Y-89620666D01*
X104773060Y-89623500D01*
X102198194Y-89623500D01*
X102017806Y-89623500D01*
X102011888Y-89624850D01*
X101977089Y-89632791D01*
X101970235Y-89633955D01*
X101928744Y-89638632D01*
X101889341Y-89652419D01*
X101882659Y-89654344D01*
X101841939Y-89663639D01*
X101804320Y-89681755D01*
X101797895Y-89684416D01*
X101758483Y-89698208D01*
X101758476Y-89698212D01*
X101723120Y-89720427D01*
X101717033Y-89723791D01*
X101679410Y-89741910D01*
X101646769Y-89767941D01*
X101641096Y-89771966D01*
X101605739Y-89794183D01*
X101605735Y-89794186D01*
X101573748Y-89826174D01*
X100531159Y-90868760D01*
X100531151Y-90868771D01*
X100462183Y-90937739D01*
X100439966Y-90973096D01*
X100435941Y-90978769D01*
X100409910Y-91011410D01*
X100391791Y-91049033D01*
X100388427Y-91055120D01*
X100366212Y-91090476D01*
X100366208Y-91090483D01*
X100352416Y-91129895D01*
X100349755Y-91136320D01*
X100331639Y-91173939D01*
X100322344Y-91214659D01*
X100320419Y-91221341D01*
X100306632Y-91260744D01*
X100301955Y-91302235D01*
X100300791Y-91309089D01*
X100291500Y-91349806D01*
X100291500Y-94695500D01*
X100271815Y-94762539D01*
X100219011Y-94808294D01*
X100167500Y-94819500D01*
X99844130Y-94819500D01*
X99844123Y-94819501D01*
X99784516Y-94825908D01*
X99649671Y-94876202D01*
X99649664Y-94876206D01*
X99534455Y-94962452D01*
X99534452Y-94962455D01*
X99448206Y-95077664D01*
X99448202Y-95077671D01*
X99397908Y-95212517D01*
X99391501Y-95272116D01*
X99391501Y-95272123D01*
X99391500Y-95272135D01*
X99391500Y-97037059D01*
X99371815Y-97104098D01*
X99355181Y-97124740D01*
X98764741Y-97715181D01*
X98703418Y-97748666D01*
X98677060Y-97751500D01*
X93608691Y-97751500D01*
X93541652Y-97731815D01*
X93507116Y-97698624D01*
X93494491Y-97680594D01*
X93327402Y-97513506D01*
X93327395Y-97513501D01*
X93133834Y-97377967D01*
X93133830Y-97377965D01*
X93088482Y-97356819D01*
X92919663Y-97278097D01*
X92919659Y-97278096D01*
X92919655Y-97278094D01*
X92691413Y-97216938D01*
X92691403Y-97216936D01*
X92456001Y-97196341D01*
X92455999Y-97196341D01*
X92220596Y-97216936D01*
X92220586Y-97216938D01*
X91992344Y-97278094D01*
X91992335Y-97278098D01*
X91778171Y-97377964D01*
X91778169Y-97377965D01*
X91584597Y-97513505D01*
X91417508Y-97680594D01*
X91404884Y-97698624D01*
X91350307Y-97742248D01*
X91303309Y-97751500D01*
X77167892Y-97751500D01*
X77100853Y-97731815D01*
X77084361Y-97719143D01*
X76942562Y-97589876D01*
X76942559Y-97589874D01*
X76942558Y-97589873D01*
X76753404Y-97472754D01*
X76753398Y-97472752D01*
X76545940Y-97392382D01*
X76327243Y-97351500D01*
X76104757Y-97351500D01*
X75886060Y-97392382D01*
X75754864Y-97443207D01*
X75678601Y-97472752D01*
X75678595Y-97472754D01*
X75489441Y-97589873D01*
X75489437Y-97589876D01*
X75489438Y-97589876D01*
X75347644Y-97719138D01*
X75284843Y-97749754D01*
X75264108Y-97751500D01*
X68208691Y-97751500D01*
X68141652Y-97731815D01*
X68107116Y-97698624D01*
X68094491Y-97680594D01*
X67927402Y-97513506D01*
X67927395Y-97513501D01*
X67733834Y-97377967D01*
X67733830Y-97377965D01*
X67688482Y-97356819D01*
X67519663Y-97278097D01*
X67519659Y-97278096D01*
X67519655Y-97278094D01*
X67291413Y-97216938D01*
X67291403Y-97216936D01*
X67056001Y-97196341D01*
X67055999Y-97196341D01*
X66820596Y-97216936D01*
X66820586Y-97216938D01*
X66592344Y-97278094D01*
X66592335Y-97278098D01*
X66378171Y-97377964D01*
X66378169Y-97377965D01*
X66184597Y-97513505D01*
X66017505Y-97680597D01*
X65881965Y-97874169D01*
X65881964Y-97874171D01*
X65788401Y-98074816D01*
X65787129Y-98077547D01*
X65782098Y-98088335D01*
X65782094Y-98088344D01*
X65720938Y-98316586D01*
X65720936Y-98316596D01*
X65700341Y-98551999D01*
X65700341Y-98552000D01*
X65720936Y-98787403D01*
X65720938Y-98787413D01*
X65782094Y-99015655D01*
X65782096Y-99015659D01*
X65782097Y-99015663D01*
X65783162Y-99017946D01*
X65881965Y-99229830D01*
X65881967Y-99229834D01*
X66017501Y-99423395D01*
X66017506Y-99423402D01*
X66184597Y-99590493D01*
X66184603Y-99590498D01*
X66370158Y-99720425D01*
X66413783Y-99775002D01*
X66420977Y-99844500D01*
X66389454Y-99906855D01*
X66370158Y-99923575D01*
X66184597Y-100053505D01*
X66017505Y-100220597D01*
X65881965Y-100414169D01*
X65881964Y-100414171D01*
X65782098Y-100628335D01*
X65782094Y-100628344D01*
X65720938Y-100856586D01*
X65720936Y-100856596D01*
X65700341Y-101091999D01*
X65700341Y-101092000D01*
X53290000Y-101092000D01*
X53290000Y-51906191D01*
X90131500Y-51906191D01*
X90131501Y-51906200D01*
X90140791Y-51946908D01*
X90141955Y-51953763D01*
X90146632Y-51995259D01*
X90160420Y-52034662D01*
X90162345Y-52041345D01*
X90171639Y-52082061D01*
X90189759Y-52119688D01*
X90192421Y-52126114D01*
X90206212Y-52165525D01*
X90228422Y-52200872D01*
X90231787Y-52206959D01*
X90249910Y-52244589D01*
X90275940Y-52277229D01*
X90279966Y-52282904D01*
X90302182Y-52318259D01*
X90302184Y-52318262D01*
X99573739Y-61589817D01*
X99573742Y-61589819D01*
X99609089Y-61612029D01*
X99614763Y-61616055D01*
X99646957Y-61641728D01*
X99647414Y-61642092D01*
X99664435Y-61650289D01*
X99685033Y-61660209D01*
X99691122Y-61663574D01*
X99726471Y-61685785D01*
X99726474Y-61685786D01*
X99726478Y-61685789D01*
X99765899Y-61699583D01*
X99772307Y-61702238D01*
X99809939Y-61720360D01*
X99850641Y-61729650D01*
X99857328Y-61731576D01*
X99896742Y-61745367D01*
X99896745Y-61745368D01*
X99938241Y-61750043D01*
X99945093Y-61751207D01*
X99985806Y-61760500D01*
X100031046Y-61760500D01*
X146921060Y-61760500D01*
X146988099Y-61780185D01*
X147008741Y-61796819D01*
X153175434Y-67963512D01*
X153208919Y-68024835D01*
X153211225Y-68062627D01*
X153210357Y-68072000D01*
X153230884Y-68293535D01*
X153230885Y-68293537D01*
X153291769Y-68507523D01*
X153291775Y-68507538D01*
X153390938Y-68706683D01*
X153390943Y-68706691D01*
X153525020Y-68884238D01*
X153689437Y-69034123D01*
X153689439Y-69034125D01*
X153878595Y-69151245D01*
X153878596Y-69151245D01*
X153878599Y-69151247D01*
X154086060Y-69231618D01*
X154304757Y-69272500D01*
X154304759Y-69272500D01*
X154527241Y-69272500D01*
X154527243Y-69272500D01*
X154745940Y-69231618D01*
X154953401Y-69151247D01*
X155142562Y-69034124D01*
X155289486Y-68900185D01*
X155306979Y-68884238D01*
X155309564Y-68880816D01*
X155441058Y-68706689D01*
X155540229Y-68507528D01*
X155601115Y-68293536D01*
X155621643Y-68072000D01*
X155620774Y-68062627D01*
X155601115Y-67850464D01*
X155601114Y-67850462D01*
X155570806Y-67743941D01*
X155540229Y-67636472D01*
X155540224Y-67636461D01*
X155441061Y-67437316D01*
X155441056Y-67437308D01*
X155306979Y-67259761D01*
X155142562Y-67109876D01*
X155142560Y-67109874D01*
X154953404Y-66992754D01*
X154953398Y-66992752D01*
X154745940Y-66912382D01*
X154527243Y-66871500D01*
X154527241Y-66871500D01*
X154398940Y-66871500D01*
X154331901Y-66851815D01*
X154311259Y-66835181D01*
X147806262Y-60330184D01*
X147806259Y-60330182D01*
X147770904Y-60307966D01*
X147765229Y-60303940D01*
X147732589Y-60277910D01*
X147694959Y-60259787D01*
X147688872Y-60256422D01*
X147653525Y-60234212D01*
X147614114Y-60220421D01*
X147607688Y-60217759D01*
X147570061Y-60199639D01*
X147529345Y-60190345D01*
X147522662Y-60188420D01*
X147483259Y-60174632D01*
X147441763Y-60169955D01*
X147434908Y-60168791D01*
X147394200Y-60159501D01*
X147394196Y-60159500D01*
X147394194Y-60159500D01*
X147394191Y-60159500D01*
X100458940Y-60159500D01*
X100391901Y-60139815D01*
X100371259Y-60123181D01*
X93977923Y-53729844D01*
X97202000Y-53729844D01*
X97208401Y-53789372D01*
X97208403Y-53789379D01*
X97258645Y-53924086D01*
X97258649Y-53924093D01*
X97344809Y-54039187D01*
X97344812Y-54039190D01*
X97459906Y-54125350D01*
X97459913Y-54125354D01*
X97594620Y-54175596D01*
X97594627Y-54175598D01*
X97654155Y-54181999D01*
X97654172Y-54182000D01*
X98301999Y-54182000D01*
X98301999Y-53444301D01*
X98321683Y-53377262D01*
X98374487Y-53331507D01*
X98443646Y-53321563D01*
X98450380Y-53322531D01*
X98516237Y-53332000D01*
X98516238Y-53332000D01*
X98587762Y-53332000D01*
X98587763Y-53332000D01*
X98660352Y-53321563D01*
X98729510Y-53331507D01*
X98782314Y-53377261D01*
X98801999Y-53444301D01*
X98801999Y-54181999D01*
X98802000Y-54182000D01*
X99449828Y-54182000D01*
X99449844Y-54181999D01*
X99509372Y-54175598D01*
X99509379Y-54175596D01*
X99644086Y-54125354D01*
X99644093Y-54125350D01*
X99759187Y-54039190D01*
X99759190Y-54039187D01*
X99845350Y-53924093D01*
X99845354Y-53924086D01*
X99895596Y-53789379D01*
X99895598Y-53789372D01*
X99901999Y-53729844D01*
X99902000Y-53729827D01*
X99902000Y-53082000D01*
X99165347Y-53082000D01*
X99098308Y-53062315D01*
X99052553Y-53009511D01*
X99042609Y-52940353D01*
X99046369Y-52923067D01*
X99052000Y-52903888D01*
X99052000Y-52760111D01*
X99046369Y-52740933D01*
X99046370Y-52671064D01*
X99084145Y-52612286D01*
X99147701Y-52583262D01*
X99165347Y-52582000D01*
X99902000Y-52582000D01*
X99902000Y-51934172D01*
X99901999Y-51934155D01*
X99895598Y-51874627D01*
X99895596Y-51874620D01*
X99845354Y-51739913D01*
X99845350Y-51739906D01*
X99759190Y-51624812D01*
X99759187Y-51624809D01*
X99644093Y-51538649D01*
X99644086Y-51538645D01*
X99509379Y-51488403D01*
X99509372Y-51488401D01*
X99449844Y-51482000D01*
X98802000Y-51482000D01*
X98801999Y-52219698D01*
X98782314Y-52286738D01*
X98729510Y-52332492D01*
X98660353Y-52342436D01*
X98587764Y-52332000D01*
X98587763Y-52332000D01*
X98516237Y-52332000D01*
X98516233Y-52332000D01*
X98443645Y-52342436D01*
X98374487Y-52332492D01*
X98321684Y-52286736D01*
X98302000Y-52219698D01*
X98302000Y-51482000D01*
X97654155Y-51482000D01*
X97594627Y-51488401D01*
X97594620Y-51488403D01*
X97459913Y-51538645D01*
X97459906Y-51538649D01*
X97344812Y-51624809D01*
X97344809Y-51624812D01*
X97258649Y-51739906D01*
X97258645Y-51739913D01*
X97208403Y-51874620D01*
X97208401Y-51874627D01*
X97202000Y-51934155D01*
X97202000Y-52582000D01*
X97938653Y-52582000D01*
X98005692Y-52601685D01*
X98051447Y-52654489D01*
X98061391Y-52723647D01*
X98057631Y-52740933D01*
X98052000Y-52760111D01*
X98052000Y-52903888D01*
X98057631Y-52923067D01*
X98057630Y-52992936D01*
X98019855Y-53051714D01*
X97956299Y-53080738D01*
X97938653Y-53082000D01*
X97202000Y-53082000D01*
X97202000Y-53729844D01*
X93977923Y-53729844D01*
X91768819Y-51520740D01*
X91735334Y-51459417D01*
X91732500Y-51433059D01*
X91732500Y-49658940D01*
X91752185Y-49591901D01*
X91768819Y-49571259D01*
X92751259Y-48588819D01*
X92812582Y-48555334D01*
X92838940Y-48552500D01*
X106297060Y-48552500D01*
X106364099Y-48572185D01*
X106384741Y-48588819D01*
X111257739Y-53461817D01*
X111267501Y-53467951D01*
X111293095Y-53484032D01*
X111298755Y-53488048D01*
X111331413Y-53514092D01*
X111369054Y-53532218D01*
X111375116Y-53535569D01*
X111401637Y-53552233D01*
X111410474Y-53557787D01*
X111410475Y-53557787D01*
X111410478Y-53557789D01*
X111449881Y-53571576D01*
X111456310Y-53574239D01*
X111472161Y-53581872D01*
X111493939Y-53592360D01*
X111534655Y-53601653D01*
X111541328Y-53603576D01*
X111568862Y-53613210D01*
X111580745Y-53617368D01*
X111622241Y-53622043D01*
X111629093Y-53623207D01*
X111669806Y-53632500D01*
X111715046Y-53632500D01*
X112319649Y-53632500D01*
X112386688Y-53652185D01*
X112432443Y-53704989D01*
X112442939Y-53743248D01*
X112447908Y-53789483D01*
X112498202Y-53924328D01*
X112498206Y-53924335D01*
X112584452Y-54039544D01*
X112584455Y-54039547D01*
X112699664Y-54125793D01*
X112699671Y-54125797D01*
X112834517Y-54176091D01*
X112834516Y-54176091D01*
X112841444Y-54176835D01*
X112894127Y-54182500D01*
X114689872Y-54182499D01*
X114749483Y-54176091D01*
X114884331Y-54125796D01*
X114999546Y-54039546D01*
X115085796Y-53924331D01*
X115136091Y-53789483D01*
X115142500Y-53729873D01*
X115142499Y-51934128D01*
X115136091Y-51874517D01*
X115085884Y-51739906D01*
X115085797Y-51739671D01*
X115085793Y-51739664D01*
X114999547Y-51624455D01*
X114999544Y-51624452D01*
X114884335Y-51538206D01*
X114884328Y-51538202D01*
X114749482Y-51487908D01*
X114749483Y-51487908D01*
X114689883Y-51481501D01*
X114689881Y-51481500D01*
X114689873Y-51481500D01*
X114689864Y-51481500D01*
X112894129Y-51481500D01*
X112894123Y-51481501D01*
X112834516Y-51487908D01*
X112699671Y-51538202D01*
X112699664Y-51538206D01*
X112584455Y-51624452D01*
X112584452Y-51624455D01*
X112498206Y-51739664D01*
X112498202Y-51739671D01*
X112447910Y-51874513D01*
X112447909Y-51874517D01*
X112442937Y-51920757D01*
X112416201Y-51985306D01*
X112358809Y-52025154D01*
X112319649Y-52031500D01*
X112142940Y-52031500D01*
X112075901Y-52011815D01*
X112055259Y-51995181D01*
X108090078Y-48030000D01*
X172024556Y-48030000D01*
X172032345Y-48153815D01*
X172032467Y-48157685D01*
X172032467Y-48187125D01*
X172032468Y-48187141D01*
X172036156Y-48216340D01*
X172036522Y-48220217D01*
X172044310Y-48344005D01*
X172044311Y-48344012D01*
X172067553Y-48465852D01*
X172068162Y-48469698D01*
X172071853Y-48498915D01*
X172071857Y-48498932D01*
X172079179Y-48527447D01*
X172080029Y-48531249D01*
X172103270Y-48653083D01*
X172141593Y-48771028D01*
X172142680Y-48774769D01*
X172150004Y-48803297D01*
X172150007Y-48803305D01*
X172160851Y-48830694D01*
X172162170Y-48834358D01*
X172200497Y-48952316D01*
X172200499Y-48952321D01*
X172253306Y-49064540D01*
X172254853Y-49068116D01*
X172265695Y-49095500D01*
X172279886Y-49121314D01*
X172281653Y-49124783D01*
X172319581Y-49205382D01*
X172334463Y-49237007D01*
X172400916Y-49341721D01*
X172400920Y-49341726D01*
X172402903Y-49345080D01*
X172417085Y-49370878D01*
X172417091Y-49370887D01*
X172417093Y-49370891D01*
X172434413Y-49394730D01*
X172436594Y-49397940D01*
X172503051Y-49502661D01*
X172503053Y-49502664D01*
X172582105Y-49598222D01*
X172584492Y-49601299D01*
X172601784Y-49625100D01*
X172601809Y-49625130D01*
X172601813Y-49625135D01*
X172611832Y-49635804D01*
X172621970Y-49646601D01*
X172624545Y-49649522D01*
X172688232Y-49726505D01*
X172703610Y-49745094D01*
X172794034Y-49830008D01*
X172796769Y-49832743D01*
X172816937Y-49854220D01*
X172816942Y-49854225D01*
X172816943Y-49854226D01*
X172839635Y-49872998D01*
X172842538Y-49875557D01*
X172932970Y-49960478D01*
X173033324Y-50033389D01*
X173036380Y-50035760D01*
X173059087Y-50054545D01*
X173059096Y-50054552D01*
X173083968Y-50070335D01*
X173087173Y-50072513D01*
X173177169Y-50137898D01*
X173187520Y-50145419D01*
X173296213Y-50205173D01*
X173299567Y-50207157D01*
X173311131Y-50214495D01*
X173324425Y-50222932D01*
X173335532Y-50228158D01*
X173351068Y-50235470D01*
X173354538Y-50237238D01*
X173422915Y-50274828D01*
X173463234Y-50296994D01*
X173578574Y-50342660D01*
X173582126Y-50344197D01*
X173608752Y-50356727D01*
X173608762Y-50356731D01*
X173608779Y-50356739D01*
X173608793Y-50356743D01*
X173608809Y-50356750D01*
X173636798Y-50365843D01*
X173640447Y-50367157D01*
X173755775Y-50412819D01*
X173875921Y-50443667D01*
X173879644Y-50444749D01*
X173888422Y-50447601D01*
X173907661Y-50453852D01*
X173924491Y-50457062D01*
X173936600Y-50459373D01*
X173940374Y-50460216D01*
X174060527Y-50491066D01*
X174183578Y-50506610D01*
X174187403Y-50507217D01*
X174216341Y-50512737D01*
X174216346Y-50512738D01*
X174216354Y-50512738D01*
X174216357Y-50512739D01*
X174245769Y-50514589D01*
X174249614Y-50514953D01*
X174314767Y-50523183D01*
X174372672Y-50530499D01*
X174372682Y-50530500D01*
X174496680Y-50530500D01*
X174500575Y-50530622D01*
X174529964Y-50532472D01*
X174530000Y-50532472D01*
X174530036Y-50532472D01*
X174559422Y-50530622D01*
X174563317Y-50530500D01*
X174687318Y-50530500D01*
X174810391Y-50514952D01*
X174814227Y-50514589D01*
X174843643Y-50512739D01*
X174843646Y-50512738D01*
X174843652Y-50512738D01*
X174843655Y-50512737D01*
X174872596Y-50507217D01*
X174876416Y-50506611D01*
X174999473Y-50491066D01*
X175119652Y-50460209D01*
X175123373Y-50459377D01*
X175152339Y-50453852D01*
X175180378Y-50444741D01*
X175184043Y-50443676D01*
X175304225Y-50412819D01*
X175419575Y-50367148D01*
X175423208Y-50365841D01*
X175451221Y-50356739D01*
X175477876Y-50344195D01*
X175481412Y-50342665D01*
X175596766Y-50296994D01*
X175705499Y-50237217D01*
X175708902Y-50235483D01*
X175735575Y-50222932D01*
X175760445Y-50207148D01*
X175763766Y-50205184D01*
X175872484Y-50145416D01*
X175972830Y-50072509D01*
X175976031Y-50070334D01*
X176000916Y-50054542D01*
X176023635Y-50035747D01*
X176026655Y-50033404D01*
X176127030Y-49960478D01*
X176217494Y-49875526D01*
X176220329Y-49873027D01*
X176243060Y-49854223D01*
X176263261Y-49832710D01*
X176265932Y-49830039D01*
X176356390Y-49745094D01*
X176435485Y-49649484D01*
X176438003Y-49646628D01*
X176458187Y-49625135D01*
X176458201Y-49625115D01*
X176458209Y-49625106D01*
X176475514Y-49601288D01*
X176477872Y-49598247D01*
X176556947Y-49502663D01*
X176623440Y-49397885D01*
X176625564Y-49394761D01*
X176642907Y-49370891D01*
X176657116Y-49345044D01*
X176659059Y-49341759D01*
X176725537Y-49237007D01*
X176778353Y-49124766D01*
X176780096Y-49121343D01*
X176794304Y-49095501D01*
X176805160Y-49068079D01*
X176806668Y-49064594D01*
X176859503Y-48952315D01*
X176897845Y-48834310D01*
X176899148Y-48830694D01*
X176909992Y-48803306D01*
X176917319Y-48774769D01*
X176918395Y-48771063D01*
X176956731Y-48653079D01*
X176979980Y-48531199D01*
X176980820Y-48527447D01*
X176988146Y-48498916D01*
X176991840Y-48469668D01*
X176992439Y-48465885D01*
X177015688Y-48344015D01*
X177015688Y-48344012D01*
X177015689Y-48344009D01*
X177018753Y-48295289D01*
X177023477Y-48220197D01*
X177023842Y-48216347D01*
X177027532Y-48187138D01*
X177027533Y-48187131D01*
X177028167Y-48146716D01*
X177028278Y-48143886D01*
X177035444Y-48030000D01*
X177028279Y-47916116D01*
X177028167Y-47913280D01*
X177027533Y-47872869D01*
X177027532Y-47872862D01*
X177027532Y-47872854D01*
X177023842Y-47843650D01*
X177023477Y-47839796D01*
X177019203Y-47771855D01*
X177015689Y-47715990D01*
X177015687Y-47715982D01*
X176992436Y-47594093D01*
X176991838Y-47590313D01*
X176991836Y-47590300D01*
X176988146Y-47561084D01*
X176980825Y-47532569D01*
X176979975Y-47528767D01*
X176957013Y-47408400D01*
X176956731Y-47406921D01*
X176918399Y-47288950D01*
X176917318Y-47285226D01*
X176909994Y-47256701D01*
X176909993Y-47256699D01*
X176909992Y-47256694D01*
X176899134Y-47229269D01*
X176897844Y-47225686D01*
X176864214Y-47122183D01*
X176859504Y-47107687D01*
X176859503Y-47107685D01*
X176833199Y-47051787D01*
X176806682Y-46995435D01*
X176805157Y-46991912D01*
X176794304Y-46964499D01*
X176787158Y-46951500D01*
X176780113Y-46938685D01*
X176778344Y-46935213D01*
X176759334Y-46894816D01*
X176725537Y-46822993D01*
X176659061Y-46718244D01*
X176657095Y-46714917D01*
X176642907Y-46689109D01*
X176625579Y-46665259D01*
X176623427Y-46662093D01*
X176556947Y-46557337D01*
X176556946Y-46557336D01*
X176556945Y-46557334D01*
X176477898Y-46461782D01*
X176475511Y-46458704D01*
X176458221Y-46434906D01*
X176458191Y-46434871D01*
X176458187Y-46434865D01*
X176444102Y-46419866D01*
X176438028Y-46413397D01*
X176435462Y-46410487D01*
X176356390Y-46314906D01*
X176356388Y-46314904D01*
X176356384Y-46314899D01*
X176265973Y-46229998D01*
X176263221Y-46227246D01*
X176261864Y-46225801D01*
X176243060Y-46205777D01*
X176243059Y-46205776D01*
X176243057Y-46205774D01*
X176243049Y-46205766D01*
X176220361Y-46186998D01*
X176217439Y-46184422D01*
X176127031Y-46099523D01*
X176127021Y-46099515D01*
X176026688Y-46026619D01*
X176023609Y-46024231D01*
X176000918Y-46005459D01*
X176000900Y-46005446D01*
X175976030Y-45989663D01*
X175972807Y-45987473D01*
X175872485Y-45914584D01*
X175763788Y-45854826D01*
X175760439Y-45852845D01*
X175736435Y-45837614D01*
X175735575Y-45837068D01*
X175735574Y-45837067D01*
X175735567Y-45837063D01*
X175708929Y-45824528D01*
X175705460Y-45822760D01*
X175596759Y-45763002D01*
X175596756Y-45763001D01*
X175481463Y-45717354D01*
X175477887Y-45715807D01*
X175451239Y-45703268D01*
X175451199Y-45703252D01*
X175423198Y-45694154D01*
X175419532Y-45692834D01*
X175304227Y-45647181D01*
X175184091Y-45616335D01*
X175180353Y-45615249D01*
X175152336Y-45606147D01*
X175123418Y-45600630D01*
X175119619Y-45599781D01*
X174999471Y-45568933D01*
X174876435Y-45553390D01*
X174872588Y-45552781D01*
X174843666Y-45547264D01*
X174843644Y-45547261D01*
X174843643Y-45547261D01*
X174843640Y-45547260D01*
X174843594Y-45547255D01*
X174814219Y-45545407D01*
X174810342Y-45545040D01*
X174687330Y-45529500D01*
X174687318Y-45529500D01*
X174563273Y-45529500D01*
X174559402Y-45529378D01*
X174534162Y-45527790D01*
X174530002Y-45527529D01*
X174529998Y-45527529D01*
X174525837Y-45527790D01*
X174500597Y-45529378D01*
X174496727Y-45529500D01*
X174372682Y-45529500D01*
X174372680Y-45529500D01*
X174372667Y-45529501D01*
X174249656Y-45545040D01*
X174245779Y-45545407D01*
X174216395Y-45547255D01*
X174216338Y-45547262D01*
X174187410Y-45552781D01*
X174183563Y-45553390D01*
X174060530Y-45568933D01*
X174060528Y-45568933D01*
X173940386Y-45599779D01*
X173936589Y-45600628D01*
X173907669Y-45606146D01*
X173907665Y-45606147D01*
X173907661Y-45606148D01*
X173897385Y-45609486D01*
X173879651Y-45615248D01*
X173875913Y-45616334D01*
X173755769Y-45647182D01*
X173640466Y-45692834D01*
X173636801Y-45694154D01*
X173608808Y-45703249D01*
X173608760Y-45703268D01*
X173582129Y-45715800D01*
X173578554Y-45717347D01*
X173463233Y-45763005D01*
X173354538Y-45822761D01*
X173351069Y-45824529D01*
X173324433Y-45837063D01*
X173324422Y-45837069D01*
X173299557Y-45852847D01*
X173296208Y-45854828D01*
X173187512Y-45914585D01*
X173187510Y-45914587D01*
X173087184Y-45987478D01*
X173083962Y-45989667D01*
X173059114Y-46005436D01*
X173059073Y-46005466D01*
X173036391Y-46024229D01*
X173033315Y-46026616D01*
X172932966Y-46099524D01*
X172932965Y-46099525D01*
X172842569Y-46184413D01*
X172839647Y-46186989D01*
X172816961Y-46205756D01*
X172816933Y-46205782D01*
X172810207Y-46212945D01*
X172796772Y-46227252D01*
X172794018Y-46230005D01*
X172703611Y-46314904D01*
X172624545Y-46410476D01*
X172621972Y-46413396D01*
X172611547Y-46424497D01*
X172601828Y-46434847D01*
X172601782Y-46434902D01*
X172584492Y-46458701D01*
X172582105Y-46461778D01*
X172503053Y-46557335D01*
X172503048Y-46557342D01*
X172436593Y-46662058D01*
X172434405Y-46665278D01*
X172417086Y-46689118D01*
X172417082Y-46689125D01*
X172402897Y-46714926D01*
X172400916Y-46718276D01*
X172334464Y-46822990D01*
X172281649Y-46935223D01*
X172279877Y-46938701D01*
X172278375Y-46941433D01*
X172265713Y-46964465D01*
X172265701Y-46964489D01*
X172265696Y-46964499D01*
X172265693Y-46964506D01*
X172265687Y-46964519D01*
X172254854Y-46991879D01*
X172253308Y-46995452D01*
X172200500Y-47107676D01*
X172200496Y-47107687D01*
X172162168Y-47225644D01*
X172160850Y-47229307D01*
X172150009Y-47256689D01*
X172150004Y-47256703D01*
X172142679Y-47285230D01*
X172141593Y-47288969D01*
X172103269Y-47406918D01*
X172103268Y-47406924D01*
X172080029Y-47528749D01*
X172079179Y-47532550D01*
X172071858Y-47561059D01*
X172071852Y-47561093D01*
X172068162Y-47590300D01*
X172067553Y-47594146D01*
X172044312Y-47715982D01*
X172044310Y-47715999D01*
X172036522Y-47839781D01*
X172036156Y-47843658D01*
X172032468Y-47872846D01*
X172032467Y-47872874D01*
X172032467Y-47902313D01*
X172032345Y-47906185D01*
X172024556Y-48030000D01*
X108090078Y-48030000D01*
X107231693Y-47171615D01*
X107231691Y-47171612D01*
X107214252Y-47154173D01*
X107182262Y-47122184D01*
X107182259Y-47122182D01*
X107182258Y-47122181D01*
X107146904Y-47099966D01*
X107141229Y-47095940D01*
X107108589Y-47069910D01*
X107070959Y-47051787D01*
X107064872Y-47048422D01*
X107029525Y-47026212D01*
X106990114Y-47012421D01*
X106983688Y-47009759D01*
X106946061Y-46991639D01*
X106905345Y-46982345D01*
X106898662Y-46980420D01*
X106859259Y-46966632D01*
X106817763Y-46961955D01*
X106810908Y-46960791D01*
X106770200Y-46951501D01*
X106770196Y-46951500D01*
X106770194Y-46951500D01*
X106724954Y-46951500D01*
X92546194Y-46951500D01*
X92365805Y-46951500D01*
X92365803Y-46951500D01*
X92365797Y-46951501D01*
X92325098Y-46960790D01*
X92318242Y-46961955D01*
X92276743Y-46966632D01*
X92237328Y-46980423D01*
X92230646Y-46982348D01*
X92189940Y-46991640D01*
X92152326Y-47009753D01*
X92145901Y-47012414D01*
X92106482Y-47026209D01*
X92106474Y-47026213D01*
X92071117Y-47048428D01*
X92065032Y-47051791D01*
X92027413Y-47069908D01*
X92027411Y-47069909D01*
X91994769Y-47095941D01*
X91989096Y-47099966D01*
X91953739Y-47122183D01*
X91904307Y-47171614D01*
X91904306Y-47171615D01*
X90371159Y-48704760D01*
X90371151Y-48704771D01*
X90302183Y-48773739D01*
X90279966Y-48809096D01*
X90275941Y-48814769D01*
X90249910Y-48847410D01*
X90231791Y-48885033D01*
X90228427Y-48891120D01*
X90206212Y-48926476D01*
X90206208Y-48926483D01*
X90192416Y-48965895D01*
X90189755Y-48972320D01*
X90171639Y-49009939D01*
X90162344Y-49050659D01*
X90160419Y-49057341D01*
X90146632Y-49096744D01*
X90141955Y-49138235D01*
X90140791Y-49145089D01*
X90131500Y-49185806D01*
X90131500Y-51906191D01*
X53290000Y-51906191D01*
X53290000Y-48030005D01*
X54024556Y-48030005D01*
X54032344Y-48153791D01*
X54032466Y-48157684D01*
X54032466Y-48187125D01*
X54036156Y-48216340D01*
X54036522Y-48220217D01*
X54044310Y-48344005D01*
X54044311Y-48344012D01*
X54067553Y-48465852D01*
X54068162Y-48469698D01*
X54071853Y-48498915D01*
X54071857Y-48498932D01*
X54079179Y-48527447D01*
X54080029Y-48531249D01*
X54103270Y-48653083D01*
X54141593Y-48771028D01*
X54142680Y-48774769D01*
X54150004Y-48803297D01*
X54150007Y-48803305D01*
X54160851Y-48830694D01*
X54162170Y-48834358D01*
X54200497Y-48952316D01*
X54200499Y-48952321D01*
X54253306Y-49064540D01*
X54254853Y-49068116D01*
X54265695Y-49095500D01*
X54279886Y-49121314D01*
X54281653Y-49124783D01*
X54319581Y-49205382D01*
X54334463Y-49237007D01*
X54400916Y-49341721D01*
X54400920Y-49341726D01*
X54402903Y-49345080D01*
X54417085Y-49370878D01*
X54417091Y-49370887D01*
X54417093Y-49370891D01*
X54434413Y-49394730D01*
X54436594Y-49397940D01*
X54503051Y-49502661D01*
X54503053Y-49502664D01*
X54582105Y-49598222D01*
X54584492Y-49601299D01*
X54601784Y-49625100D01*
X54601809Y-49625130D01*
X54601813Y-49625135D01*
X54611832Y-49635804D01*
X54621970Y-49646601D01*
X54624545Y-49649522D01*
X54688232Y-49726505D01*
X54703610Y-49745094D01*
X54794034Y-49830008D01*
X54796769Y-49832743D01*
X54816937Y-49854220D01*
X54816942Y-49854225D01*
X54816943Y-49854226D01*
X54839635Y-49872998D01*
X54842538Y-49875557D01*
X54932970Y-49960478D01*
X55033324Y-50033389D01*
X55036380Y-50035760D01*
X55059087Y-50054545D01*
X55059096Y-50054552D01*
X55083968Y-50070335D01*
X55087173Y-50072513D01*
X55177169Y-50137898D01*
X55187520Y-50145419D01*
X55296213Y-50205173D01*
X55299567Y-50207157D01*
X55311131Y-50214495D01*
X55324425Y-50222932D01*
X55335532Y-50228158D01*
X55351068Y-50235470D01*
X55354538Y-50237238D01*
X55422915Y-50274828D01*
X55463234Y-50296994D01*
X55578574Y-50342660D01*
X55582126Y-50344197D01*
X55608752Y-50356727D01*
X55608762Y-50356731D01*
X55608779Y-50356739D01*
X55608793Y-50356743D01*
X55608809Y-50356750D01*
X55636798Y-50365843D01*
X55640447Y-50367157D01*
X55755775Y-50412819D01*
X55875921Y-50443667D01*
X55879644Y-50444749D01*
X55888422Y-50447601D01*
X55907661Y-50453852D01*
X55924491Y-50457062D01*
X55936600Y-50459373D01*
X55940374Y-50460216D01*
X56060527Y-50491066D01*
X56183578Y-50506610D01*
X56187403Y-50507217D01*
X56216341Y-50512737D01*
X56216346Y-50512738D01*
X56216354Y-50512738D01*
X56216357Y-50512739D01*
X56245769Y-50514589D01*
X56249614Y-50514953D01*
X56314767Y-50523183D01*
X56372672Y-50530499D01*
X56372682Y-50530500D01*
X56496680Y-50530500D01*
X56500575Y-50530622D01*
X56529964Y-50532472D01*
X56530000Y-50532472D01*
X56530036Y-50532472D01*
X56559422Y-50530622D01*
X56563317Y-50530500D01*
X56687318Y-50530500D01*
X56810391Y-50514952D01*
X56814227Y-50514589D01*
X56843643Y-50512739D01*
X56843646Y-50512738D01*
X56843652Y-50512738D01*
X56843655Y-50512737D01*
X56872596Y-50507217D01*
X56876416Y-50506611D01*
X56999473Y-50491066D01*
X57119652Y-50460209D01*
X57123373Y-50459377D01*
X57152339Y-50453852D01*
X57180378Y-50444741D01*
X57184043Y-50443676D01*
X57304225Y-50412819D01*
X57419575Y-50367148D01*
X57423208Y-50365841D01*
X57451221Y-50356739D01*
X57477876Y-50344195D01*
X57481412Y-50342665D01*
X57596766Y-50296994D01*
X57705499Y-50237217D01*
X57708902Y-50235483D01*
X57735575Y-50222932D01*
X57760445Y-50207148D01*
X57763766Y-50205184D01*
X57872484Y-50145416D01*
X57972830Y-50072509D01*
X57976031Y-50070334D01*
X58000916Y-50054542D01*
X58023635Y-50035747D01*
X58026655Y-50033404D01*
X58127030Y-49960478D01*
X58217494Y-49875526D01*
X58220329Y-49873027D01*
X58243060Y-49854223D01*
X58263261Y-49832710D01*
X58265932Y-49830039D01*
X58356390Y-49745094D01*
X58435485Y-49649484D01*
X58438003Y-49646628D01*
X58458187Y-49625135D01*
X58458201Y-49625115D01*
X58458209Y-49625106D01*
X58475514Y-49601288D01*
X58477872Y-49598247D01*
X58556947Y-49502663D01*
X58623440Y-49397885D01*
X58625564Y-49394761D01*
X58642907Y-49370891D01*
X58657116Y-49345044D01*
X58659059Y-49341759D01*
X58725537Y-49237007D01*
X58778353Y-49124766D01*
X58780096Y-49121343D01*
X58794304Y-49095501D01*
X58805160Y-49068079D01*
X58806668Y-49064594D01*
X58859503Y-48952315D01*
X58897845Y-48834310D01*
X58899148Y-48830694D01*
X58909992Y-48803306D01*
X58917319Y-48774769D01*
X58918395Y-48771063D01*
X58956731Y-48653079D01*
X58979980Y-48531199D01*
X58980820Y-48527447D01*
X58988146Y-48498916D01*
X58991840Y-48469668D01*
X58992439Y-48465885D01*
X59015688Y-48344015D01*
X59015688Y-48344012D01*
X59015689Y-48344009D01*
X59018753Y-48295289D01*
X59023477Y-48220197D01*
X59023842Y-48216347D01*
X59027532Y-48187138D01*
X59027533Y-48187131D01*
X59028167Y-48146716D01*
X59028278Y-48143886D01*
X59035444Y-48030000D01*
X59028279Y-47916116D01*
X59028167Y-47913280D01*
X59027533Y-47872869D01*
X59027532Y-47872862D01*
X59027532Y-47872854D01*
X59023842Y-47843650D01*
X59023477Y-47839796D01*
X59019203Y-47771855D01*
X59015689Y-47715990D01*
X59015687Y-47715982D01*
X58992436Y-47594093D01*
X58991838Y-47590313D01*
X58991836Y-47590300D01*
X58988146Y-47561084D01*
X58980825Y-47532569D01*
X58979975Y-47528767D01*
X58957013Y-47408400D01*
X58956731Y-47406921D01*
X58918399Y-47288950D01*
X58917318Y-47285226D01*
X58909994Y-47256701D01*
X58909993Y-47256699D01*
X58909992Y-47256694D01*
X58899134Y-47229269D01*
X58897844Y-47225686D01*
X58864214Y-47122183D01*
X58859504Y-47107687D01*
X58859503Y-47107685D01*
X58833199Y-47051787D01*
X58806682Y-46995435D01*
X58805157Y-46991912D01*
X58794304Y-46964499D01*
X58787158Y-46951500D01*
X58780113Y-46938685D01*
X58778344Y-46935213D01*
X58759334Y-46894816D01*
X58725537Y-46822993D01*
X58659061Y-46718244D01*
X58657095Y-46714917D01*
X58642907Y-46689109D01*
X58625579Y-46665259D01*
X58623427Y-46662093D01*
X58556947Y-46557337D01*
X58556946Y-46557336D01*
X58556945Y-46557334D01*
X58477898Y-46461782D01*
X58475511Y-46458704D01*
X58458221Y-46434906D01*
X58458191Y-46434871D01*
X58458187Y-46434865D01*
X58444102Y-46419866D01*
X58438028Y-46413397D01*
X58435462Y-46410487D01*
X58356390Y-46314906D01*
X58356388Y-46314904D01*
X58356384Y-46314899D01*
X58265973Y-46229998D01*
X58263221Y-46227246D01*
X58261864Y-46225801D01*
X58243060Y-46205777D01*
X58243059Y-46205776D01*
X58243057Y-46205774D01*
X58243049Y-46205766D01*
X58220361Y-46186998D01*
X58217439Y-46184422D01*
X58127031Y-46099523D01*
X58127021Y-46099515D01*
X58026688Y-46026619D01*
X58023609Y-46024231D01*
X58000918Y-46005459D01*
X58000900Y-46005446D01*
X57976030Y-45989663D01*
X57972807Y-45987473D01*
X57872485Y-45914584D01*
X57763788Y-45854826D01*
X57760439Y-45852845D01*
X57736435Y-45837614D01*
X57735575Y-45837068D01*
X57735574Y-45837067D01*
X57735567Y-45837063D01*
X57708929Y-45824528D01*
X57705460Y-45822760D01*
X57596759Y-45763002D01*
X57596756Y-45763001D01*
X57481463Y-45717354D01*
X57477887Y-45715807D01*
X57451239Y-45703268D01*
X57451199Y-45703252D01*
X57423198Y-45694154D01*
X57419532Y-45692834D01*
X57304227Y-45647181D01*
X57184091Y-45616335D01*
X57180353Y-45615249D01*
X57152336Y-45606147D01*
X57123418Y-45600630D01*
X57119619Y-45599781D01*
X56999471Y-45568933D01*
X56876435Y-45553390D01*
X56872588Y-45552781D01*
X56843666Y-45547264D01*
X56843644Y-45547261D01*
X56843643Y-45547261D01*
X56843640Y-45547260D01*
X56843594Y-45547255D01*
X56814219Y-45545407D01*
X56810342Y-45545040D01*
X56687330Y-45529500D01*
X56687318Y-45529500D01*
X56563273Y-45529500D01*
X56559402Y-45529378D01*
X56534162Y-45527790D01*
X56530002Y-45527529D01*
X56529998Y-45527529D01*
X56525837Y-45527790D01*
X56500597Y-45529378D01*
X56496727Y-45529500D01*
X56372682Y-45529500D01*
X56372680Y-45529500D01*
X56372667Y-45529501D01*
X56249656Y-45545040D01*
X56245779Y-45545407D01*
X56216395Y-45547255D01*
X56216338Y-45547262D01*
X56187410Y-45552781D01*
X56183563Y-45553390D01*
X56060530Y-45568933D01*
X56060528Y-45568933D01*
X55940386Y-45599779D01*
X55936589Y-45600628D01*
X55907669Y-45606146D01*
X55907665Y-45606147D01*
X55907661Y-45606148D01*
X55897385Y-45609486D01*
X55879651Y-45615248D01*
X55875913Y-45616334D01*
X55755769Y-45647182D01*
X55640466Y-45692834D01*
X55636801Y-45694154D01*
X55608808Y-45703249D01*
X55608760Y-45703268D01*
X55582129Y-45715800D01*
X55578554Y-45717347D01*
X55463233Y-45763005D01*
X55354538Y-45822761D01*
X55351069Y-45824529D01*
X55324433Y-45837063D01*
X55324422Y-45837069D01*
X55299557Y-45852847D01*
X55296208Y-45854828D01*
X55187512Y-45914585D01*
X55187510Y-45914587D01*
X55087184Y-45987478D01*
X55083962Y-45989667D01*
X55059114Y-46005436D01*
X55059073Y-46005466D01*
X55036391Y-46024229D01*
X55033315Y-46026616D01*
X54932966Y-46099524D01*
X54932965Y-46099525D01*
X54842569Y-46184413D01*
X54839647Y-46186989D01*
X54816961Y-46205756D01*
X54816933Y-46205782D01*
X54810207Y-46212945D01*
X54796772Y-46227252D01*
X54794018Y-46230005D01*
X54703611Y-46314904D01*
X54624545Y-46410476D01*
X54621972Y-46413396D01*
X54611547Y-46424497D01*
X54601828Y-46434847D01*
X54601782Y-46434902D01*
X54584492Y-46458701D01*
X54582105Y-46461778D01*
X54503053Y-46557335D01*
X54503048Y-46557342D01*
X54436593Y-46662058D01*
X54434405Y-46665278D01*
X54417086Y-46689118D01*
X54417082Y-46689125D01*
X54402897Y-46714926D01*
X54400916Y-46718276D01*
X54334464Y-46822990D01*
X54281649Y-46935223D01*
X54279877Y-46938701D01*
X54278375Y-46941433D01*
X54265713Y-46964465D01*
X54265701Y-46964489D01*
X54265696Y-46964499D01*
X54265693Y-46964506D01*
X54265687Y-46964519D01*
X54254854Y-46991879D01*
X54253308Y-46995452D01*
X54200500Y-47107676D01*
X54200496Y-47107687D01*
X54162168Y-47225644D01*
X54160850Y-47229307D01*
X54150009Y-47256689D01*
X54150004Y-47256703D01*
X54142679Y-47285230D01*
X54141593Y-47288969D01*
X54103269Y-47406918D01*
X54103268Y-47406924D01*
X54080029Y-47528749D01*
X54079179Y-47532550D01*
X54071858Y-47561059D01*
X54071852Y-47561093D01*
X54068162Y-47590300D01*
X54067553Y-47594146D01*
X54044312Y-47715982D01*
X54044310Y-47715999D01*
X54036522Y-47839781D01*
X54036156Y-47843658D01*
X54032466Y-47872869D01*
X54032466Y-47902314D01*
X54032344Y-47906207D01*
X54024556Y-48029994D01*
X54024556Y-48030005D01*
X53290000Y-48030005D01*
X53290000Y-44904000D01*
X53309685Y-44836961D01*
X53362489Y-44791206D01*
X53414000Y-44780000D01*
X177815767Y-44780000D01*
X177882806Y-44799685D01*
G37*
%TD.AperFunction*%
%TD*%
M02*
