M48
; DRILL file {KiCad 7.0.7} date Wed Dec 20 15:38:10 2023
; FORMAT={-:-/ absolute / metric / decimal}
; #@! TF.CreationDate,2023-12-20T15:38:10-07:00
; #@! TF.GenerationSoftware,Kicad,Pcbnew,7.0.7
; #@! TF.FileFunction,MixedPlating,1,2
FMAT,2
METRIC
; #@! TA.AperFunction,Plated,PTH,ComponentDrill
T1C0.700
; #@! TA.AperFunction,Plated,PTH,ComponentDrill
T2C1.000
; #@! TA.AperFunction,Plated,PTH,ComponentDrill
T3C1.200
%
G90
G05
T1
X74.168Y-66.532
X74.168Y-71.612
X76.216Y-98.552
X76.216Y-103.632
X99.06Y-66.532
X99.06Y-71.612
X124.46Y-67.04
X124.46Y-72.12
X133.588Y-72.644
X138.668Y-72.644
X144.256Y-83.312
X144.256Y-88.392
X154.416Y-68.072
X154.416Y-73.152
T2
X67.056Y-67.457
X67.056Y-69.997
X67.056Y-72.537
X67.056Y-98.552
X67.056Y-101.092
X67.056Y-103.632
X92.456Y-67.457
X92.456Y-69.997
X92.456Y-72.537
X92.456Y-98.552
X92.456Y-101.092
X92.456Y-103.632
X98.552Y-52.832
X113.792Y-52.832
X117.856Y-68.072
X117.856Y-70.612
X117.856Y-73.152
X119.616Y-98.552
X119.616Y-101.092
X119.616Y-103.632
X143.256Y-67.457
X143.256Y-69.997
X143.256Y-72.537
X143.256Y-98.552
X143.256Y-101.092
X143.256Y-103.632
X163.576Y-70.104
X163.576Y-86.36
X163.576Y-103.632
T3
X101.092Y-96.52
X111.252Y-96.52
T0
M30
