%TF.GenerationSoftware,KiCad,Pcbnew,7.0.7*%
%TF.CreationDate,2023-12-20T15:38:10-07:00*%
%TF.ProjectId,Control Pilot PCB,436f6e74-726f-46c2-9050-696c6f742050,rev?*%
%TF.SameCoordinates,Original*%
%TF.FileFunction,Soldermask,Bot*%
%TF.FilePolarity,Negative*%
%FSLAX46Y46*%
G04 Gerber Fmt 4.6, Leading zero omitted, Abs format (unit mm)*
G04 Created by KiCad (PCBNEW 7.0.7) date 2023-12-20 15:38:10*
%MOMM*%
%LPD*%
G01*
G04 APERTURE LIST*
%ADD10R,1.700000X1.700000*%
%ADD11C,1.400000*%
%ADD12O,1.400000X1.400000*%
%ADD13O,1.700000X1.700000*%
%ADD14R,2.400000X2.400000*%
%ADD15O,2.400000X2.400000*%
G04 APERTURE END LIST*
D10*
%TO.C,J1*%
X163576000Y-103632000D03*
%TD*%
%TO.C,J5*%
X98552000Y-52832000D03*
%TD*%
D11*
%TO.C,R6*%
X144256000Y-83312000D03*
D12*
X144256000Y-88392000D03*
%TD*%
D11*
%TO.C,R4*%
X124460000Y-72120000D03*
D12*
X124460000Y-67040000D03*
%TD*%
D10*
%TO.C,SW4*%
X67056000Y-103632000D03*
D13*
X67056000Y-101092000D03*
X67056000Y-98552000D03*
%TD*%
D10*
%TO.C,SW1*%
X143256000Y-103632000D03*
D13*
X143256000Y-101092000D03*
X143256000Y-98552000D03*
%TD*%
D11*
%TO.C,R5*%
X154416000Y-73152000D03*
D12*
X154416000Y-68072000D03*
%TD*%
D10*
%TO.C,SW8*%
X67056000Y-72537000D03*
D13*
X67056000Y-69997000D03*
X67056000Y-67457000D03*
%TD*%
D11*
%TO.C,R7*%
X133588000Y-72644000D03*
D12*
X138668000Y-72644000D03*
%TD*%
D11*
%TO.C,R1*%
X76216000Y-103632000D03*
D12*
X76216000Y-98552000D03*
%TD*%
D10*
%TO.C,SW2*%
X119616000Y-103632000D03*
D13*
X119616000Y-101092000D03*
X119616000Y-98552000D03*
%TD*%
D10*
%TO.C,J4*%
X113792000Y-52832000D03*
%TD*%
D11*
%TO.C,R3*%
X99060000Y-71612000D03*
D12*
X99060000Y-66532000D03*
%TD*%
D10*
%TO.C,SW3*%
X92456000Y-103632000D03*
D13*
X92456000Y-101092000D03*
X92456000Y-98552000D03*
%TD*%
D10*
%TO.C,SW6*%
X117856000Y-73152000D03*
D13*
X117856000Y-70612000D03*
X117856000Y-68072000D03*
%TD*%
D10*
%TO.C,SW7*%
X92456000Y-72537000D03*
D13*
X92456000Y-69997000D03*
X92456000Y-67457000D03*
%TD*%
D10*
%TO.C,J2*%
X163576000Y-86360000D03*
%TD*%
%TO.C,J3*%
X163576000Y-70104000D03*
%TD*%
%TO.C,SW5*%
X143256000Y-72537000D03*
D13*
X143256000Y-69997000D03*
X143256000Y-67457000D03*
%TD*%
D14*
%TO.C,D1*%
X101092000Y-96520000D03*
D15*
X111252000Y-96520000D03*
%TD*%
D11*
%TO.C,R2*%
X74168000Y-71612000D03*
D12*
X74168000Y-66532000D03*
%TD*%
M02*
