<?xml version="1.0" standalone="no"?>
 <!DOCTYPE svg PUBLIC "-//W3C//DTD SVG 1.1//EN" 
 "http://www.w3.org/Graphics/SVG/1.1/DTD/svg11.dtd"> 
<svg
  xmlns:svg="http://www.w3.org/2000/svg"
  xmlns="http://www.w3.org/2000/svg"
  xmlns:xlink="http://www.w3.org/1999/xlink"
  version="1.1"
  width="29.700220cm" height="21.000720cm" viewBox="0 0 297002200 210007200">
<title>SVG Picture created as Rectangle Control Module V1.0.4-B_Silkscreen.svg date 2022/09/14 13:48:18 </title>
  <desc>Picture generated by PCBNEW </desc>
<g style="fill:#000000; fill-opacity:1.000000;stroke:#000000; stroke-opacity:1.000000;
stroke-linecap:round; stroke-linejoin:round;"
 transform="translate(0 0) scale(1 1)">
</g>
<g style="fill:#000000; fill-opacity:0.0; 
stroke:#000000; stroke-width:0.000000; stroke-opacity:1; 
stroke-linecap:round; stroke-linejoin:round;">
</g>
<g style="fill:#000000; fill-opacity:0.0; 
stroke:#000000; stroke-width:86000.000000; stroke-opacity:1; 
stroke-linecap:round; stroke-linejoin:round;">
</g>
<g style="fill:#000000; fill-opacity:1.0; 
stroke:#000000; stroke-width:86000.000000; stroke-opacity:1; 
stroke-linecap:round; stroke-linejoin:round;">
<path style="fill:#000000; fill-opacity:1.0; 
stroke:#000000; stroke-width:86000.000000; stroke-opacity:1; 
stroke-linecap:round; stroke-linejoin:round;fill-rule:evenodd;"
d="M 107092344.000000,77497148.000000
107150672.000000,77500630.000000
107207181.000000,77506434.000000
107261870.000000,77514559.000000
107314739.000000,77525006.000000
107365790.000000,77537774.000000
107415021.000000,77552865.000000
107462433.000000,77570277.000000
107508025.000000,77590011.000000
107551798.000000,77612066.000000
107593752.000000,77636444.000000
107633887.000000,77663144.000000
107672202.000000,77692166.000000
107708699.000000,77723510.000000
107743376.000000,77757176.000000
107776233.000000,77793164.000000
107797512.000000,77819768.000000
107818746.000000,77848810.000000
107839936.000000,77880289.000000
107861082.000000,77914205.000000
107882184.000000,77950559.000000
107903241.000000,77989351.000000
107924255.000000,78030581.000000
107945223.000000,78074248.000000
107966147.000000,78120354.000000
107987027.000000,78168897.000000
108007862.000000,78219878.000000
108028652.000000,78273298.000000
108049397.000000,78329155.000000
108070098.000000,78387451.000000
108090753.000000,78448186.000000
108111364.000000,78511359.000000
108150931.000000,78636503.000000
108190151.000000,78751897.000000
108229024.000000,78857542.000000
108267546.000000,78953435.000000
108305715.000000,79039577.000000
108343529.000000,79115967.000000
108380986.000000,79182605.000000
108399580.000000,79212267.000000
108418084.000000,79239490.000000
108445684.000000,79276077.000000
108474526.000000,79310304.000000
108504611.000000,79342171.000000
108535938.000000,79371677.000000
108568507.000000,79398824.000000
108602318.000000,79423610.000000
108637372.000000,79446036.000000
108673668.000000,79466101.000000
108711206.000000,79483806.000000
108749988.000000,79499150.000000
108790011.000000,79512134.000000
108831277.000000,79522757.000000
108873786.000000,79531020.000000
108917538.000000,79536922.000000
108962532.000000,79540463.000000
109008770.000000,79541643.000000
109046708.000000,79540773.000000
109083847.000000,79538160.000000
109120187.000000,79533806.000000
109155729.000000,79527710.000000
109190471.000000,79519874.000000
109224414.000000,79510295.000000
109257559.000000,79498976.000000
109289905.000000,79485915.000000
109321452.000000,79471113.000000
109352201.000000,79454570.000000
109382151.000000,79436286.000000
109411303.000000,79416261.000000
109439656.000000,79394495.000000
109467211.000000,79370989.000000
109493968.000000,79345741.000000
109519926.000000,79318753.000000
109541247.000000,79294451.000000
109561193.000000,79269839.000000
109579763.000000,79244918.000000
109596958.000000,79219686.000000
109612777.000000,79194145.000000
109627220.000000,79168294.000000
109640288.000000,79142133.000000
109651980.000000,79115663.000000
109662297.000000,79088883.000000
109671238.000000,79061794.000000
109678803.000000,79034395.000000
109684994.000000,79006687.000000
109689808.000000,78978670.000000
109693247.000000,78950343.000000
109695310.000000,78921707.000000
109695998.000000,78892762.000000
109694733.000000,78831159.000000
109690938.000000,78771412.000000
109684613.000000,78713523.000000
109675759.000000,78657492.000000
109664375.000000,78603318.000000
109650462.000000,78551001.000000
109634019.000000,78500542.000000
109615048.000000,78451940.000000
109593548.000000,78405196.000000
109569520.000000,78360308.000000
109542963.000000,78317279.000000
109513878.000000,78276106.000000
109482264.000000,78236791.000000
109448123.000000,78199334.000000
109411454.000000,78163734.000000
109372258.000000,78129991.000000
109351334.000000,78113410.000000
109329745.000000,78097100.000000
109307491.000000,78081061.000000
109284573.000000,78065293.000000
109260989.000000,78049795.000000
109236740.000000,78034568.000000
109211826.000000,78019612.000000
109186246.000000,78004926.000000
109160001.000000,77990512.000000
109133091.000000,77976368.000000
109105515.000000,77962495.000000
109077273.000000,77948893.000000
109048365.000000,77935561.000000
109018791.000000,77922501.000000
108988550.000000,77909712.000000
108957644.000000,77897193.000000
108880791.000000,77867857.000000
108797901.000000,77839297.000000
108708974.000000,77811511.000000
108614012.000000,77784500.000000
108513015.000000,77758264.000000
108405983.000000,77732803.000000
108292918.000000,77708115.000000
108173821.000000,77684201.000000
108179325.000000,77639679.000000
109746940.000000,77639679.000000
109735949.000000,77647802.000000
109711463.000000,77664750.000000
109622007.000000,77725121.000000
109478585.000000,77820787.000000
109281207.000000,77951740.000000
109311891.000000,77973024.000000
109341466.000000,77994771.000000
109369930.000000,78016982.000000
109397284.000000,78039658.000000
109423529.000000,78062797.000000
109448664.000000,78086401.000000
109472689.000000,78110468.000000
109495605.000000,78135000.000000
109517412.000000,78159997.000000
109538110.000000,78185457.000000
109557699.000000,78211382.000000
109576179.000000,78237771.000000
109593550.000000,78264625.000000
109609813.000000,78291943.000000
109624967.000000,78319726.000000
109639013.000000,78347973.000000
109652073.000000,78377305.000000
109664293.000000,78407102.000000
109675672.000000,78437363.000000
109686210.000000,78468089.000000
109695908.000000,78499279.000000
109704763.000000,78530934.000000
109712777.000000,78563053.000000
109719949.000000,78595637.000000
109726278.000000,78628684.000000
109731765.000000,78662197.000000
109736408.000000,78696174.000000
109740208.000000,78730615.000000
109743164.000000,78765520.000000
109745276.000000,78800890.000000
109746543.000000,78836724.000000
109746966.000000,78873023.000000
109745946.000000,78920251.000000
109742885.000000,78966588.000000
109737783.000000,79012035.000000
109730640.000000,79056592.000000
109721456.000000,79100258.000000
109710232.000000,79143035.000000
109696966.000000,79184921.000000
109681659.000000,79225917.000000
109664311.000000,79266023.000000
109644922.000000,79305240.000000
109623491.000000,79343566.000000
109600019.000000,79381002.000000
109574506.000000,79417549.000000
109546951.000000,79453206.000000
109517354.000000,79487974.000000
109485716.000000,79521851.000000
109446379.000000,79560240.000000
109405046.000000,79596152.000000
109361716.000000,79629587.000000
109316389.000000,79660546.000000
109269066.000000,79689029.000000
109219745.000000,79715035.000000
109168428.000000,79738564.000000
109115114.000000,79759617.000000
109059803.000000,79778193.000000
109002496.000000,79794292.000000
108943192.000000,79807915.000000
108881891.000000,79819061.000000
108818593.000000,79827730.000000
108753299.000000,79833922.000000
108686008.000000,79837637.000000
108616720.000000,79838876.000000
108543504.000000,79837677.000000
108472950.000000,79834078.000000
108405058.000000,79828081.000000
108339829.000000,79819685.000000
108277262.000000,79808890.000000
108217358.000000,79795695.000000
108160116.000000,79780101.000000
108105537.000000,79762107.000000
108053620.000000,79741714.000000
108004365.000000,79718920.000000
107957773.000000,79693727.000000
107913844.000000,79666134.000000
107872577.000000,79636140.000000
107833972.000000,79603746.000000
107798030.000000,79568951.000000
107764751.000000,79531756.000000
107745516.000000,79506582.000000
107726148.000000,79478120.000000
107706646.000000,79446370.000000
107687011.000000,79411330.000000
107667243.000000,79373002.000000
107647341.000000,79331385.000000
107627307.000000,79286479.000000
107607138.000000,79238283.000000
107586837.000000,79186799.000000
107566403.000000,79132026.000000
107545835.000000,79073963.000000
107525134.000000,79012611.000000
107504300.000000,78947969.000000
107483332.000000,78880038.000000
107462232.000000,78808818.000000
107440998.000000,78734308.000000
107409131.000000,78620697.000000
107376027.000000,78515136.000000
107341685.000000,78417624.000000
107306103.000000,78328161.000000
107287847.000000,78286448.000000
107269280.000000,78246747.000000
107250403.000000,78209058.000000
107231216.000000,78173382.000000
107211717.000000,78139717.000000
107191908.000000,78108065.000000
107171788.000000,78078424.000000
107151357.000000,78050796.000000
107126772.000000,78020205.000000
107101300.000000,77991586.000000
107074941.000000,77964941.000000
107047695.000000,77940269.000000
107019562.000000,77917570.000000
106990541.000000,77896845.000000
106960633.000000,77878093.000000
106929838.000000,77861315.000000
106898155.000000,77846510.000000
106865585.000000,77833679.000000
106832127.000000,77822821.000000
106797783.000000,77813938.000000
106762550.000000,77807028.000000
106726430.000000,77802093.000000
106689423.000000,77799131.000000
106651528.000000,77798144.000000
106612368.000000,77799054.000000
106574406.000000,77801782.000000
106537642.000000,77806330.000000
106502077.000000,77812696.000000
106467709.000000,77820882.000000
106434539.000000,77830886.000000
106402567.000000,77842710.000000
106371793.000000,77856353.000000
106342217.000000,77871815.000000
106313840.000000,77889096.000000
106286661.000000,77908196.000000
106260679.000000,77929115.000000
106235896.000000,77951854.000000
106212311.000000,77976411.000000
106189925.000000,78002788.000000
106168736.000000,78030984.000000
106152223.000000,78054784.000000
106136777.000000,78079124.000000
106122398.000000,78104005.000000
106109085.000000,78129427.000000
106096839.000000,78155391.000000
106085658.000000,78181895.000000
106075544.000000,78208941.000000
106066496.000000,78236529.000000
106058512.000000,78264658.000000
106051594.000000,78293328.000000
106045741.000000,78322541.000000
106040953.000000,78352295.000000
106037229.000000,78382591.000000
106034569.000000,78413429.000000
106032974.000000,78444809.000000
106032442.000000,78476731.000000
106033773.000000,78522858.000000
106037766.000000,78568367.000000
106044421.000000,78613257.000000
106053739.000000,78657528.000000
106065718.000000,78701181.000000
106080360.000000,78744215.000000
106097664.000000,78786630.000000
106117630.000000,78828426.000000
106140259.000000,78869602.000000
106165551.000000,78910159.000000
106193504.000000,78950097.000000
106224121.000000,78989415.000000
106257399.000000,79028113.000000
106293341.000000,79066191.000000
106331945.000000,79103649.000000
106373212.000000,79140487.000000
106415743.000000,79176145.000000
106459561.000000,79210061.000000
106504665.000000,79242235.000000
106551055.000000,79272668.000000
106598733.000000,79301360.000000
106647697.000000,79328310.000000
106697948.000000,79353518.000000
106749485.000000,79376986.000000
106802310.000000,79398712.000000
106856421.000000,79418697.000000
106911820.000000,79436941.000000
106968505.000000,79453444.000000
107026478.000000,79468206.000000
107085737.000000,79481228.000000
107146284.000000,79492509.000000
107208118.000000,79502049.000000
107225145.000000,79546679.000000
105986926.000000,79546679.000000
105999448.000000,79532909.000000
106019951.000000,79511399.000000
106048439.000000,79482149.000000
106084911.000000,79445159.000000
106181814.000000,79347958.000000
106310670.000000,79219793.000000
106229028.000000,79116088.000000
106195130.000000,79071896.000000
106165847.000000,79032812.000000
106141178.000000,78998836.000000
106121123.000000,78969967.000000
106105681.000000,78946206.000000
106094853.000000,78927554.000000
106081793.000000,78901723.000000
106069574.000000,78875004.000000
106058194.000000,78847394.000000
106047656.000000,78818895.000000
106037959.000000,78789505.000000
106029103.000000,78759226.000000
106021089.000000,78728057.000000
106013917.000000,78695998.000000
106007588.000000,78663049.000000
106002101.000000,78629209.000000
105997458.000000,78594480.000000
105993658.000000,78558860.000000
105990702.000000,78522350.000000
105988590.000000,78484949.000000
105987323.000000,78446658.000000
105986900.000000,78407477.000000
105987127.000000,78407366.000000
105988325.000000,78361318.000000
105991919.000000,78316045.000000
105997909.000000,78271545.000000
106006295.000000,78227818.000000
106017078.000000,78184866.000000
106030256.000000,78142687.000000
106045831.000000,78101282.000000
106063803.000000,78060651.000000
106084170.000000,78020794.000000
106106934.000000,77981710.000000
106132094.000000,77943401.000000
106159650.000000,77905865.000000
106189603.000000,77869103.000000
106221952.000000,77833115.000000
106256698.000000,77797901.000000
106293840.000000,77763461.000000
106332002.000000,77731072.000000
106371228.000000,77700772.000000
106411519.000000,77672562.000000
106452874.000000,77646441.000000
106495294.000000,77622411.000000
106538779.000000,77600469.000000
106583329.000000,77580618.000000
106628944.000000,77562856.000000
106675623.000000,77547184.000000
106723367.000000,77533601.000000
106772176.000000,77522108.000000
106822050.000000,77512705.000000
106872990.000000,77505391.000000
106924994.000000,77500167.000000
106978063.000000,77497032.000000
107032197.000000,77495987.000000
Z" /> 
<path style="fill:#000000; fill-opacity:1.0; 
stroke:#000000; stroke-width:86000.000000; stroke-opacity:1; 
stroke-linecap:round; stroke-linejoin:round;fill-rule:evenodd;"
d="M 107495820.000000,81333284.000000
107335570.000000,81314466.000000
107179119.000000,81288122.000000
107026468.000000,81254251.000000
106877617.000000,81212853.000000
106732565.000000,81163928.000000
106591313.000000,81107475.000000
106453859.000000,81043496.000000
106320206.000000,80971990.000000
106190351.000000,80892957.000000
106064295.000000,80806397.000000
105942039.000000,80712310.000000
105823581.000000,80610696.000000
105708922.000000,80501554.000000
105598062.000000,80384886.000000
105505839.000000,80279725.000000
105419565.000000,80172988.000000
105339241.000000,80064673.000000
105264866.000000,79954782.000000
105196441.000000,79843314.000000
105133965.000000,79730269.000000
105077439.000000,79615646.000000
105026863.000000,79499447.000000
104982237.000000,79381671.000000
104943561.000000,79262317.000000
104910834.000000,79141386.000000
104884058.000000,79018879.000000
104863232.000000,78894794.000000
104848356.000000,78769131.000000
104839431.000000,78641891.000000
104836455.000000,78513074.000000
104836455.000000,78503882.000000
104928156.000000,78503882.000000
104931310.000000,78606678.000000
104940774.000000,78706321.000000
104956546.000000,78802810.000000
104978627.000000,78896145.000000
105007016.000000,78986327.000000
105041714.000000,79073355.000000
105082720.000000,79157228.000000
105130034.000000,79237948.000000
105183657.000000,79315513.000000
105243588.000000,79389925.000000
105309827.000000,79461181.000000
105382373.000000,79529284.000000
105461227.000000,79594232.000000
105546389.000000,79656025.000000
105637859.000000,79714663.000000
105735636.000000,79770147.000000
105831982.000000,79819036.000000
105932915.000000,79864770.000000
106038436.000000,79907351.000000
106148543.000000,79946777.000000
106263239.000000,79983049.000000
106382521.000000,80016166.000000
106506391.000000,80046129.000000
106634849.000000,80072938.000000
106767895.000000,80096593.000000
106905528.000000,80117094.000000
107047749.000000,80134441.000000
107194558.000000,80148634.000000
107345955.000000,80159673.000000
107501939.000000,80167558.000000
107662513.000000,80172288.000000
107827674.000000,80173865.000000
108169898.000000,80167558.000000
108332730.000000,80159673.000000
108490043.000000,80148634.000000
108641837.000000,80134441.000000
108788110.000000,80117094.000000
108928864.000000,80096593.000000
109064098.000000,80072938.000000
109193813.000000,80046129.000000
109318008.000000,80016166.000000
109436683.000000,79983049.000000
109549838.000000,79946777.000000
109657474.000000,79907351.000000
109759590.000000,79864770.000000
109856186.000000,79819036.000000
109947262.000000,79770147.000000
109990730.000000,79745021.000000
110032818.000000,79718964.000000
110073526.000000,79691974.000000
110112854.000000,79664053.000000
110150803.000000,79635199.000000
110187371.000000,79605414.000000
110222560.000000,79574696.000000
110256369.000000,79543047.000000
110288798.000000,79510465.000000
110319847.000000,79476951.000000
110349517.000000,79442506.000000
110377806.000000,79407128.000000
110404716.000000,79370819.000000
110430245.000000,79333577.000000
110454395.000000,79295404.000000
110477165.000000,79256298.000000
110498555.000000,79216261.000000
110518565.000000,79175292.000000
110537195.000000,79133391.000000
110554445.000000,79090558.000000
110570315.000000,79046793.000000
110584805.000000,79002097.000000
110597916.000000,78956468.000000
110609646.000000,78909908.000000
110619996.000000,78862416.000000
110628966.000000,78813992.000000
110636556.000000,78764637.000000
110642767.000000,78714349.000000
110647597.000000,78663130.000000
110651047.000000,78610979.000000
110653807.000000,78503882.000000
110653807.000000,77889143.000000
110650950.000000,77816740.000000
110647303.000000,77750931.000000
110642851.000000,77691715.000000
110637578.000000,77639094.000000
110631470.000000,77593067.000000
110624509.000000,77553636.000000
110616681.000000,77520800.000000
110612437.000000,77506856.000000
110607970.000000,77494560.000000
110603196.000000,77483296.000000
110598066.000000,77472463.000000
110592579.000000,77462064.000000
110586736.000000,77452096.000000
110580535.000000,77442561.000000
110573978.000000,77433457.000000
110567062.000000,77424785.000000
110559788.000000,77416544.000000
110552156.000000,77408735.000000
110544164.000000,77401356.000000
110535814.000000,77394408.000000
110527103.000000,77387890.000000
110518033.000000,77381803.000000
110508603.000000,77376146.000000
110498812.000000,77370918.000000
110488660.000000,77366120.000000
110477617.000000,77362786.000000
110465141.000000,77359667.000000
110451232.000000,77356766.000000
110435891.000000,77354080.000000
110419117.000000,77351610.000000
110400909.000000,77349357.000000
110381269.000000,77347318.000000
110360195.000000,77345495.000000
110313747.000000,77342494.000000
110261564.000000,77340353.000000
110203647.000000,77339069.000000
110139993.000000,77338641.000000
105442042.000000,77338641.000000
105376525.000000,77339057.000000
105317603.000000,77340310.000000
105265277.000000,77342415.000000
105219546.000000,77345382.000000
105180409.000000,77349224.000000
105147867.000000,77353953.000000
105121918.000000,77359581.000000
105111417.000000,77362736.000000
105102564.000000,77366120.000000
105093535.000000,77370930.000000
105084792.000000,77376167.000000
105076335.000000,77381833.000000
105068164.000000,77387927.000000
105060280.000000,77394450.000000
105052681.000000,77401402.000000
105045369.000000,77408783.000000
105038343.000000,77416594.000000
105031603.000000,77424833.000000
105025150.000000,77433503.000000
105018983.000000,77442603.000000
105013102.000000,77452133.000000
105007508.000000,77462094.000000
105002201.000000,77472485.000000
104997181.000000,77483307.000000
104992447.000000,77494560.000000
104987959.000000,77507677.000000
104983689.000000,77521798.000000
104979635.000000,77536924.000000
104975797.000000,77553053.000000
104972176.000000,77570186.000000
104968771.000000,77588323.000000
104965583.000000,77607464.000000
104962610.000000,77627609.000000
104957314.000000,77670910.000000
104952882.000000,77718225.000000
104949314.000000,77769554.000000
104946609.000000,77824898.000000
104942315.000000,77887690.000000
104938589.000000,77956791.000000
104935434.000000,78032201.000000
104932850.000000,78113919.000000
104929400.000000,78296283.000000
104928248.000000,78503882.000000
104928156.000000,78503882.000000
104836455.000000,78503882.000000
104836364.000000,74934562.000000
104928156.000000,74934562.000000
104929877.000000,75132699.000000
104935041.000000,75314207.000000
104943646.000000,75479084.000000
104955693.000000,75627331.000000
104971181.000000,75758948.000000
104990109.000000,75873934.000000
105012476.000000,75972289.000000
105024950.000000,76015229.000000
105038284.000000,76054012.000000
105042878.000000,76066305.000000
105047471.000000,76077953.000000
105052061.000000,76088957.000000
105056651.000000,76099316.000000
105061239.000000,76109030.000000
105065826.000000,76118100.000000
105070413.000000,76126524.000000
105074999.000000,76134302.000000
105079586.000000,76141435.000000
105084173.000000,76147923.000000
105088760.000000,76153764.000000
105093349.000000,76158959.000000
105097938.000000,76163508.000000
105102529.000000,76167411.000000
105107122.000000,76170667.000000
105111717.000000,76173276.000000
105121607.000000,76177728.000000
105132931.000000,76181891.000000
105145690.000000,76185767.000000
105159884.000000,76189354.000000
105175511.000000,76192654.000000
105192573.000000,76195667.000000
105211069.000000,76198391.000000
105230999.000000,76200829.000000
105252363.000000,76202979.000000
105275161.000000,76204843.000000
105299392.000000,76206419.000000
105325056.000000,76207708.000000
105352154.000000,76208711.000000
105380685.000000,76209427.000000
105442045.000000,76210000.000000
110140000.000000,76210000.000000
110205520.000000,76209427.000000
110264443.000000,76207709.000000
110316769.000000,76204843.000000
110362499.000000,76200830.000000
110401634.000000,76195668.000000
110418728.000000,76192656.000000
110434174.000000,76189356.000000
110447971.000000,76185768.000000
110460120.000000,76181892.000000
110470621.000000,76177728.000000
110479474.000000,76173276.000000
110481781.000000,76172042.000000
110484105.000000,76170628.000000
110486447.000000,76169034.000000
110488806.000000,76167261.000000
110491182.000000,76165308.000000
110493576.000000,76163176.000000
110495988.000000,76160864.000000
110498417.000000,76158373.000000
110503328.000000,76152852.000000
110508310.000000,76146614.000000
110513362.000000,76139659.000000
110518485.000000,76131987.000000
110523678.000000,76123598.000000
110528943.000000,76114493.000000
110534278.000000,76104671.000000
110539685.000000,76094133.000000
110545163.000000,76082879.000000
110550713.000000,76070909.000000
110556335.000000,76058224.000000
110562028.000000,76044823.000000
110566587.000000,76030338.000000
110571071.000000,76014421.000000
110579819.000000,75978289.000000
110588273.000000,75936427.000000
110596437.000000,75888833.000000
110604312.000000,75835505.000000
110611901.000000,75776441.000000
110619206.000000,75711642.000000
110626230.000000,75641104.000000
110632687.000000,75565836.000000
110638288.000000,75486838.000000
110643031.000000,75404111.000000
110646916.000000,75317655.000000
110649940.000000,75227472.000000
110652102.000000,75133561.000000
110653400.000000,75035925.000000
110653833.000000,74934562.000000
110754752.000000,74934562.000000
110754752.000000,78503882.000000
110751742.000000,78650369.000000
110742710.000000,78793918.000000
110727656.000000,78934528.000000
110706582.000000,79072200.000000
110679486.000000,79206932.000000
110646368.000000,79338726.000000
110607229.000000,79467581.000000
110562068.000000,79593497.000000
110510886.000000,79716474.000000
110453682.000000,79836512.000000
110390456.000000,79953611.000000
110321208.000000,80067770.000000
110245939.000000,80178990.000000
110164647.000000,80287271.000000
110077334.000000,80392612.000000
109983999.000000,80495014.000000
109879878.000000,80598348.000000
109771671.000000,80695014.000000
109659378.000000,80785014.000000
109542998.000000,80868347.000000
109422533.000000,80945013.000000
109297981.000000,81015012.000000
109169343.000000,81078345.000000
109036619.000000,81135010.000000
108899809.000000,81185009.000000
108758912.000000,81228342.000000
108613929.000000,81265007.000000
108464860.000000,81295006.000000
108311704.000000,81318339.000000
108154462.000000,81335005.000000
107993134.000000,81345004.000000
107827720.000000,81348338.000000
107827674.000000,81348337.000000
107659870.000000,81344574.000000
Z" /> 
</g>
<g style="fill:#000000; fill-opacity:1.0; 
stroke:#000000; stroke-width:150000.000000; stroke-opacity:1; 
stroke-linecap:round; stroke-linejoin:round;">
</g>
<g style="fill:#000000; fill-opacity:0.0; 
stroke:#000000; stroke-width:150000.000000; stroke-opacity:1; 
stroke-linecap:round; stroke-linejoin:round;">
<g transform="rotate(-90.000000 112821734.000000 78141451.000000)">
<text x="112821734.000000" y="78641451.000000"
transform="scale(-1 1) translate(-225643468.000000 0)"
textLength="20138333.000000" font-size="1333333.000000" lengthAdjust="spacingAndGlyphs"
text-anchor="middle" opacity="0">Sapient Design Technology</text>
</g>
<g class="stroked-text"><desc>Sapient Design Technology</desc>
<path d="M113226495 68165260
L113274114 68308117
L113274114 68546212
L113226495 68641451
L113178876 68689070
L113083638 68736689
L112988400 68736689
L112893162 68689070
L112845543 68641451
L112797924 68546212
L112750305 68355736
L112702686 68260498
L112655067 68212879
L112559829 68165260
L112464591 68165260
L112369353 68212879
L112321734 68260498
L112274114 68355736
L112274114 68593831
L112321734 68736689
" />
<path d="M113274114 69593831
L112750305 69593831
L112655067 69546212
L112607448 69450974
L112607448 69260498
L112655067 69165260
" />
<path d="M113226495 69593831
L113274114 69498593
L113274114 69260498
L113226495 69165260
L113131257 69117641
L113036019 69117641
L112940781 69165260
L112893162 69260498
L112893162 69498593
L112845543 69593831
" />
<path d="M112607448 70070022
L113607448 70070022
" />
<path d="M112655067 70070022
L112607448 70165260
L112607448 70355736
L112655067 70450974
L112702686 70498593
L112797924 70546212
L113083638 70546212
L113178876 70498593
L113226495 70450974
L113274114 70355736
L113274114 70165260
L113226495 70070022
" />
<path d="M113274114 70974784
L112607448 70974784
" />
<path d="M112274114 70974784
L112321734 70927165
L112369353 70974784
L112321734 71022403
L112274114 70974784
L112369353 70974784
" />
<path d="M113226495 71831927
L113274114 71736689
L113274114 71546212
L113226495 71450974
L113131257 71403355
L112750305 71403355
L112655067 71450974
L112607448 71546212
L112607448 71736689
L112655067 71831927
L112750305 71879546
L112845543 71879546
L112940781 71403355
" />
<path d="M112607448 72308117
L113274114 72308117
" />
<path d="M112702686 72308117
L112655067 72355736
L112607448 72450974
L112607448 72593831
L112655067 72689070
L112750305 72736689
L113274114 72736689
" />
<path d="M112607448 73070022
L112607448 73450974
" />
<path d="M112274114 73212879
L113131257 73212879
L113226495 73260498
L113274114 73355736
L113274114 73450974
" />
<path d="M113274114 74546212
L112274114 74546212
L112274114 74784308
L112321734 74927165
L112416972 75022403
L112512210 75070022
L112702686 75117641
L112845543 75117641
L113036019 75070022
L113131257 75022403
L113226495 74927165
L113274114 74784308
L113274114 74546212
" />
<path d="M113226495 75927165
L113274114 75831927
L113274114 75641451
L113226495 75546212
L113131257 75498593
L112750305 75498593
L112655067 75546212
L112607448 75641451
L112607448 75831927
L112655067 75927165
L112750305 75974784
L112845543 75974784
L112940781 75498593
" />
<path d="M113226495 76355736
L113274114 76450974
L113274114 76641451
L113226495 76736689
L113131257 76784308
L113083638 76784308
L112988400 76736689
L112940781 76641451
L112940781 76498593
L112893162 76403355
L112797924 76355736
L112750305 76355736
L112655067 76403355
L112607448 76498593
L112607448 76641451
L112655067 76736689
" />
<path d="M113274114 77212879
L112607448 77212879
" />
<path d="M112274114 77212879
L112321734 77165260
L112369353 77212879
L112321734 77260498
L112274114 77212879
L112369353 77212879
" />
<path d="M112607448 78117641
L113416972 78117641
L113512210 78070022
L113559829 78022403
L113607448 77927165
L113607448 77784308
L113559829 77689070
" />
<path d="M113226495 78117641
L113274114 78022403
L113274114 77831927
L113226495 77736689
L113178876 77689070
L113083638 77641451
L112797924 77641451
L112702686 77689070
L112655067 77736689
L112607448 77831927
L112607448 78022403
L112655067 78117641
" />
<path d="M112607448 78593831
L113274114 78593831
" />
<path d="M112702686 78593831
L112655067 78641451
L112607448 78736689
L112607448 78879546
L112655067 78974784
L112750305 79022403
L113274114 79022403
" />
<path d="M112274114 80117641
L112274114 80689070
" />
<path d="M113274114 80403355
L112274114 80403355
" />
<path d="M113226495 81403355
L113274114 81308117
L113274114 81117641
L113226495 81022403
L113131257 80974784
L112750305 80974784
L112655067 81022403
L112607448 81117641
L112607448 81308117
L112655067 81403355
L112750305 81450974
L112845543 81450974
L112940781 80974784
" />
<path d="M113226495 82308117
L113274114 82212879
L113274114 82022403
L113226495 81927165
L113178876 81879546
L113083638 81831927
L112797924 81831927
L112702686 81879546
L112655067 81927165
L112607448 82022403
L112607448 82212879
L112655067 82308117
" />
<path d="M113274114 82736689
L112274114 82736689
" />
<path d="M113274114 83165260
L112750305 83165260
L112655067 83117641
L112607448 83022403
L112607448 82879546
L112655067 82784308
L112702686 82736689
" />
<path d="M112607448 83641451
L113274114 83641451
" />
<path d="M112702686 83641451
L112655067 83689070
L112607448 83784308
L112607448 83927165
L112655067 84022403
L112750305 84070022
L113274114 84070022
" />
<path d="M113274114 84689070
L113226495 84593831
L113178876 84546212
L113083638 84498593
L112797924 84498593
L112702686 84546212
L112655067 84593831
L112607448 84689070
L112607448 84831927
L112655067 84927165
L112702686 84974784
L112797924 85022403
L113083638 85022403
L113178876 84974784
L113226495 84927165
L113274114 84831927
L113274114 84689070
" />
<path d="M113274114 85593831
L113226495 85498593
L113131257 85450974
L112274114 85450974
" />
<path d="M113274114 86117641
L113226495 86022403
L113178876 85974784
L113083638 85927165
L112797924 85927165
L112702686 85974784
L112655067 86022403
L112607448 86117641
L112607448 86260498
L112655067 86355736
L112702686 86403355
L112797924 86450974
L113083638 86450974
L113178876 86403355
L113226495 86355736
L113274114 86260498
L113274114 86117641
" />
<path d="M112607448 87308117
L113416972 87308117
L113512210 87260498
L113559829 87212879
L113607448 87117641
L113607448 86974784
L113559829 86879546
" />
<path d="M113226495 87308117
L113274114 87212879
L113274114 87022403
L113226495 86927165
L113178876 86879546
L113083638 86831927
L112797924 86831927
L112702686 86879546
L112655067 86927165
L112607448 87022403
L112607448 87212879
L112655067 87308117
" />
<path d="M112607448 87689070
L113274114 87927165
" />
<path d="M112607448 88165260
L113274114 87927165
L113512210 87831927
L113559829 87784308
L113607448 87689070
" />
</g><text x="101450000.000000" y="62270000.000000"
transform="scale(-1 1) translate(-202900000.000000 0)"
textLength="1805000.000000" font-size="1333333.000000" lengthAdjust="spacingAndGlyphs"
text-anchor="middle" opacity="0">U1</text>
<g class="stroked-text"><desc>U1</desc>
<path d="M102211904 61222380
L102211904 62031904
L102164285 62127142
L102116666 62174761
L102021428 62222380
L101830952 62222380
L101735714 62174761
L101688095 62127142
L101640476 62031904
L101640476 61222380
" />
<path d="M100640476 62222380
L101211904 62222380
" />
<path d="M100926190 62222380
L100926190 61222380
L101021428 61365238
L101116666 61460476
L101211904 61508095
" />
</g><text x="94890000.000000" y="59650000.000000"
transform="scale(-1 1) translate(-189780000.000000 0)"
textLength="1757381.000000" font-size="1333333.000000" lengthAdjust="spacingAndGlyphs"
text-anchor="middle" opacity="0">R7</text>
<g class="stroked-text"><desc>R7</desc>
<path d="M95056666 59602380
L95390000 59126190
" />
<path d="M95628095 59602380
L95628095 58602380
L95247142 58602380
L95151904 58650000
L95104285 58697619
L95056666 58792857
L95056666 58935714
L95104285 59030952
L95151904 59078571
L95247142 59126190
L95628095 59126190
" />
<path d="M94723333 58602380
L94056666 58602380
L94485238 59602380
" />
</g><text x="101600000.000000" y="52470000.000000"
transform="scale(-1 1) translate(-203200000.000000 0)"
textLength="1805000.000000" font-size="1333333.000000" lengthAdjust="spacingAndGlyphs"
text-anchor="middle" opacity="0">U2</text>
<g class="stroked-text"><desc>U2</desc>
<path d="M102361904 51422380
L102361904 52231904
L102314285 52327142
L102266666 52374761
L102171428 52422380
L101980952 52422380
L101885714 52374761
L101838095 52327142
L101790476 52231904
L101790476 51422380
" />
<path d="M101361904 51517619
L101314285 51470000
L101219047 51422380
L100980952 51422380
L100885714 51470000
L100838095 51517619
L100790476 51612857
L100790476 51708095
L100838095 51850952
L101409523 52422380
L100790476 52422380
" />
</g><text x="92990000.000000" y="68860000.000000"
transform="scale(-1 1) translate(-185980000.000000 0)"
textLength="1757381.000000" font-size="1333333.000000" lengthAdjust="spacingAndGlyphs"
text-anchor="middle" opacity="0">R6</text>
<g class="stroked-text"><desc>R6</desc>
<path d="M93156666 68812380
L93490000 68336190
" />
<path d="M93728095 68812380
L93728095 67812380
L93347142 67812380
L93251904 67860000
L93204285 67907619
L93156666 68002857
L93156666 68145714
L93204285 68240952
L93251904 68288571
L93347142 68336190
L93728095 68336190
" />
<path d="M92299523 67812380
L92490000 67812380
L92585238 67860000
L92632857 67907619
L92728095 68050476
L92775714 68240952
L92775714 68621904
L92728095 68717142
L92680476 68764761
L92585238 68812380
L92394761 68812380
L92299523 68764761
L92251904 68717142
L92204285 68621904
L92204285 68383809
L92251904 68288571
L92299523 68240952
L92394761 68193333
L92585238 68193333
L92680476 68240952
L92728095 68288571
L92775714 68383809
" />
</g><text x="107100000.000000" y="56660000.000000"
transform="scale(-1 1) translate(-214200000.000000 0)"
textLength="2709762.000000" font-size="1333333.000000" lengthAdjust="spacingAndGlyphs"
text-anchor="middle" opacity="0">R11</text>
<g class="stroked-text"><desc>R11</desc>
<path d="M107742857 56612380
L108076190 56136190
" />
<path d="M108314285 56612380
L108314285 55612380
L107933333 55612380
L107838095 55660000
L107790476 55707619
L107742857 55802857
L107742857 55945714
L107790476 56040952
L107838095 56088571
L107933333 56136190
L108314285 56136190
" />
<path d="M106790476 56612380
L107361904 56612380
" />
<path d="M107076190 56612380
L107076190 55612380
L107171428 55755238
L107266666 55850476
L107361904 55898095
" />
<path d="M105838095 56612380
L106409523 56612380
" />
<path d="M106123809 56612380
L106123809 55612380
L106219047 55755238
L106314285 55850476
L106409523 55898095
" />
</g><text x="92992500.000000" y="65880000.000000"
transform="scale(-1 1) translate(-185985000.000000 0)"
textLength="1757381.000000" font-size="1333333.000000" lengthAdjust="spacingAndGlyphs"
text-anchor="middle" opacity="0">R5</text>
<g class="stroked-text"><desc>R5</desc>
<path d="M93159166 65832380
L93492500 65356190
" />
<path d="M93730595 65832380
L93730595 64832380
L93349642 64832380
L93254404 64880000
L93206785 64927619
L93159166 65022857
L93159166 65165714
L93206785 65260952
L93254404 65308571
L93349642 65356190
L93730595 65356190
" />
<path d="M92254404 64832380
L92730595 64832380
L92778214 65308571
L92730595 65260952
L92635357 65213333
L92397261 65213333
L92302023 65260952
L92254404 65308571
L92206785 65403809
L92206785 65641904
L92254404 65737142
L92302023 65784761
L92397261 65832380
L92635357 65832380
L92730595 65784761
L92778214 65737142
" />
</g><path d="M98575000 62695000
L98575000 63345000
" />
<path d="M104325000 63270000
L105925000 63270000
" />
<path d="M98575000 73345000
L98575000 72695000
" />
<path d="M104325000 62695000
L104325000 63270000
" />
<path d="M104325000 73345000
L104325000 72695000
" />
<path d="M104325000 73345000
L98575000 73345000
" />
<path d="M104325000 62695000
L98575000 62695000
" />
</g>
<g style="fill:#000000; fill-opacity:0.0; 
stroke:#000000; stroke-width:120000.000000; stroke-opacity:1; 
stroke-linecap:round; stroke-linejoin:round;">
<path d="M95144724 61102500
L94635276 61102500
" />
<path d="M95144724 60057500
L94635276 60057500
" />
<path d="M101600000 52810000
L105050000 52810000
" />
<path d="M101600000 57930000
L103550000 57930000
" />
<path d="M101600000 57930000
L99650000 57930000
" />
<path d="M101600000 52810000
L99650000 52810000
" />
<path d="M92735276 66407500
L93244724 66407500
" />
<path d="M92735276 67452500
L93244724 67452500
" />
<path d="M106845276 55252500
L107354724 55252500
" />
<path d="M106845276 54207500
L107354724 54207500
" />
<path d="M92737776 63427500
L93247224 63427500
" />
<path d="M92737776 64472500
L93247224 64472500
" />
<g >
</g>
<g >
</g>
<g >
</g>
<g >
</g>
<g >
</g>
<g >
</g>
<g >
</g>
<g >
</g>
<g >
</g>
<g >
</g>
<g >
</g>
<g >
</g>
<g >
</g>
<g >
</g>
<g >
</g>
<g >
</g>
<g >
</g>
<g >
</g>
<g >
</g>
<g >
</g>
<g >
</g>
<g >
</g>
<g >
</g>
<g >
</g>
<g >
</g>
<g >
</g>
<g >
</g>
<g >
</g>
</g> 
</svg>
