<?xml version="1.0" standalone="no"?>
 <!DOCTYPE svg PUBLIC "-//W3C//DTD SVG 1.1//EN" 
 "http://www.w3.org/Graphics/SVG/1.1/DTD/svg11.dtd"> 
<svg
  xmlns:svg="http://www.w3.org/2000/svg"
  xmlns="http://www.w3.org/2000/svg"
  xmlns:xlink="http://www.w3.org/1999/xlink"
  version="1.1"
  width="29.700220cm" height="21.000720cm" viewBox="0 0 297002200 210007200">
<title>SVG Picture created as Rectangle Control Module V1.0.4-F_Mask.svg date 2022/09/14 13:48:18 </title>
  <desc>Picture generated by PCBNEW </desc>
<g style="fill:#000000; fill-opacity:1.000000;stroke:#000000; stroke-opacity:1.000000;
stroke-linecap:round; stroke-linejoin:round;"
 transform="translate(0 0) scale(1 1)">
</g>
<g style="fill:#000000; fill-opacity:0.0; 
stroke:#000000; stroke-width:0.000000; stroke-opacity:1; 
stroke-linecap:round; stroke-linejoin:round;">
<g >
</g>
<g style="fill:#000000; fill-opacity:0.0; 
stroke:#000000; stroke-width:1.000000; stroke-opacity:1; 
stroke-linecap:round; stroke-linejoin:round;">
</g>
<g style="fill:#000000; fill-opacity:1.0; 
stroke:#000000; stroke-width:1.000000; stroke-opacity:1; 
stroke-linecap:round; stroke-linejoin:round;">
<path style="fill:#000000; fill-opacity:1.0; 
stroke:#000000; stroke-width:1.000000; stroke-opacity:1; 
stroke-linecap:round; stroke-linejoin:round;fill-rule:evenodd;"
d="M 100750000.000000,84300000.000000
100750000.000000,83100000.000000
101450000.000000,83100000.000000
101450000.000000,84300000.000000
Z" /> 
<path style="fill:#000000; fill-opacity:1.0; 
stroke:#000000; stroke-width:1.000000; stroke-opacity:1; 
stroke-linecap:round; stroke-linejoin:round;fill-rule:evenodd;"
d="M 102740000.000000,84300000.000000
102740000.000000,83100000.000000
103500000.000000,83100000.000000
103500000.000000,84300000.000000
Z" /> 
<path style="fill:#000000; fill-opacity:1.0; 
stroke:#000000; stroke-width:1.000000; stroke-opacity:1; 
stroke-linecap:round; stroke-linejoin:round;fill-rule:evenodd;"
d="M 103950000.000000,84300000.000000
103950000.000000,83100000.000000
104750000.000000,83100000.000000
104750000.000000,84300000.000000
Z" /> 
<path style="fill:#000000; fill-opacity:1.0; 
stroke:#000000; stroke-width:1.000000; stroke-opacity:1; 
stroke-linecap:round; stroke-linejoin:round;fill-rule:evenodd;"
d="M 101750000.000000,84300000.000000
101750000.000000,83100000.000000
102450000.000000,83100000.000000
102450000.000000,84300000.000000
Z" /> 
<path style="fill:#000000; fill-opacity:1.0; 
stroke:#000000; stroke-width:1.000000; stroke-opacity:1; 
stroke-linecap:round; stroke-linejoin:round;fill-rule:evenodd;"
d="M 99700000.000000,84300000.000000
99700000.000000,83100000.000000
100460000.000000,83100000.000000
100460000.000000,84300000.000000
Z" /> 
<path style="fill:#000000; fill-opacity:1.0; 
stroke:#000000; stroke-width:1.000000; stroke-opacity:1; 
stroke-linecap:round; stroke-linejoin:round;fill-rule:evenodd;"
d="M 98450000.000000,84300000.000000
98450000.000000,83100000.000000
99250000.000000,83100000.000000
99250000.000000,84300000.000000
Z" /> 
<circle cx="97280000.000000" cy="83780000.000000" r="1005000.000000" /> 
</g>
<g style="fill:#000000; fill-opacity:1.0; 
stroke:#000000; stroke-width:21200.000000; stroke-opacity:1; 
stroke-linecap:round; stroke-linejoin:round;">
</g>
<g style="fill:#000000; fill-opacity:1.0; 
stroke:#000000; stroke-width:1.000000; stroke-opacity:1; 
stroke-linecap:round; stroke-linejoin:round;">
<circle cx="97280000.000000" cy="87580000.000000" r="1005000.000000" /> 
</g>
<g style="fill:#000000; fill-opacity:1.0; 
stroke:#000000; stroke-width:21200.000000; stroke-opacity:1; 
stroke-linecap:round; stroke-linejoin:round;">
</g>
<g style="fill:#000000; fill-opacity:1.0; 
stroke:#000000; stroke-width:1.000000; stroke-opacity:1; 
stroke-linecap:round; stroke-linejoin:round;">
<circle cx="105920000.000000" cy="87580000.000000" r="1005000.000000" /> 
</g>
<g style="fill:#000000; fill-opacity:1.0; 
stroke:#000000; stroke-width:21200.000000; stroke-opacity:1; 
stroke-linecap:round; stroke-linejoin:round;">
</g>
<g style="fill:#000000; fill-opacity:1.0; 
stroke:#000000; stroke-width:1.000000; stroke-opacity:1; 
stroke-linecap:round; stroke-linejoin:round;">
<circle cx="105920000.000000" cy="83780000.000000" r="1005000.000000" /> 
</g>
<g style="fill:#000000; fill-opacity:1.0; 
stroke:#000000; stroke-width:21200.000000; stroke-opacity:1; 
stroke-linecap:round; stroke-linejoin:round;">
</g>
<g >
</g>
<g style="fill:#000000; fill-opacity:1.0; 
stroke:#000000; stroke-width:21200.000000; stroke-opacity:1; 
stroke-linecap:round; stroke-linejoin:round;">
</g>
<g style="fill:#000000; fill-opacity:1.0; 
stroke:#000000; stroke-width:1.000000; stroke-opacity:1; 
stroke-linecap:round; stroke-linejoin:round;">
<path style="fill:#000000; fill-opacity:1.0; 
stroke:#000000; stroke-width:1.000000; stroke-opacity:1; 
stroke-linecap:round; stroke-linejoin:round;fill-rule:evenodd;"
d="M 111125000.000000,72642500.000000
111143079.000000,72551613.000000
111194562.000000,72474562.000000
111271613.000000,72423079.000000
111362500.000000,72405000.000000
111862500.000000,72405000.000000
111953387.000000,72423079.000000
112030438.000000,72474562.000000
112081921.000000,72551613.000000
112100000.000000,72642500.000000
112100000.000000,73117500.000000
112081921.000000,73208387.000000
112030438.000000,73285438.000000
111953387.000000,73336921.000000
111862500.000000,73355000.000000
111362500.000000,73355000.000000
111271613.000000,73336921.000000
111194562.000000,73285438.000000
111143079.000000,73208387.000000
111125000.000000,73117500.000000
Z" /> 
<path style="fill:#000000; fill-opacity:1.0; 
stroke:#000000; stroke-width:1.000000; stroke-opacity:1; 
stroke-linecap:round; stroke-linejoin:round;fill-rule:evenodd;"
d="M 109300000.000000,72642500.000000
109318079.000000,72551613.000000
109369562.000000,72474562.000000
109446613.000000,72423079.000000
109537500.000000,72405000.000000
110037500.000000,72405000.000000
110128387.000000,72423079.000000
110205438.000000,72474562.000000
110256921.000000,72551613.000000
110275000.000000,72642500.000000
110275000.000000,73117500.000000
110256921.000000,73208387.000000
110205438.000000,73285438.000000
110128387.000000,73336921.000000
110037500.000000,73355000.000000
109537500.000000,73355000.000000
109446613.000000,73336921.000000
109369562.000000,73285438.000000
109318079.000000,73208387.000000
109300000.000000,73117500.000000
Z" /> 
</g>
<g >
</g>
<g style="fill:#000000; fill-opacity:1.0; 
stroke:#000000; stroke-width:1.000000; stroke-opacity:1; 
stroke-linecap:round; stroke-linejoin:round;">
<path style="fill:#000000; fill-opacity:1.0; 
stroke:#000000; stroke-width:1.000000; stroke-opacity:1; 
stroke-linecap:round; stroke-linejoin:round;fill-rule:evenodd;"
d="M 100222500.000000,78762500.000000
100240579.000000,78671613.000000
100292062.000000,78594562.000000
100369113.000000,78543079.000000
100460000.000000,78525000.000000
101035000.000000,78525000.000000
101125887.000000,78543079.000000
101202938.000000,78594562.000000
101254421.000000,78671613.000000
101272500.000000,78762500.000000
101272500.000000,79237500.000000
101254421.000000,79328387.000000
101202938.000000,79405438.000000
101125887.000000,79456921.000000
101035000.000000,79475000.000000
100460000.000000,79475000.000000
100369113.000000,79456921.000000
100292062.000000,79405438.000000
100240579.000000,79328387.000000
100222500.000000,79237500.000000
Z" /> 
<path style="fill:#000000; fill-opacity:1.0; 
stroke:#000000; stroke-width:1.000000; stroke-opacity:1; 
stroke-linecap:round; stroke-linejoin:round;fill-rule:evenodd;"
d="M 101972500.000000,78762500.000000
101990579.000000,78671613.000000
102042062.000000,78594562.000000
102119113.000000,78543079.000000
102210000.000000,78525000.000000
102785000.000000,78525000.000000
102875887.000000,78543079.000000
102952938.000000,78594562.000000
103004421.000000,78671613.000000
103022500.000000,78762500.000000
103022500.000000,79237500.000000
103004421.000000,79328387.000000
102952938.000000,79405438.000000
102875887.000000,79456921.000000
102785000.000000,79475000.000000
102210000.000000,79475000.000000
102119113.000000,79456921.000000
102042062.000000,79405438.000000
101990579.000000,79328387.000000
101972500.000000,79237500.000000
Z" /> 
</g>
<g >
</g>
<g style="fill:#000000; fill-opacity:1.0; 
stroke:#000000; stroke-width:1.000000; stroke-opacity:1; 
stroke-linecap:round; stroke-linejoin:round;">
<path style="fill:#000000; fill-opacity:1.0; 
stroke:#000000; stroke-width:1.000000; stroke-opacity:1; 
stroke-linecap:round; stroke-linejoin:round;fill-rule:evenodd;"
d="M 105362500.000000,70812500.000000
105380579.000000,70721613.000000
105432062.000000,70644562.000000
105509113.000000,70593079.000000
105600000.000000,70575000.000000
106100000.000000,70575000.000000
106190887.000000,70593079.000000
106267938.000000,70644562.000000
106319421.000000,70721613.000000
106337500.000000,70812500.000000
106337500.000000,71287500.000000
106319421.000000,71378387.000000
106267938.000000,71455438.000000
106190887.000000,71506921.000000
106100000.000000,71525000.000000
105600000.000000,71525000.000000
105509113.000000,71506921.000000
105432062.000000,71455438.000000
105380579.000000,71378387.000000
105362500.000000,71287500.000000
Z" /> 
<path style="fill:#000000; fill-opacity:1.0; 
stroke:#000000; stroke-width:1.000000; stroke-opacity:1; 
stroke-linecap:round; stroke-linejoin:round;fill-rule:evenodd;"
d="M 107187500.000000,70812500.000000
107205579.000000,70721613.000000
107257062.000000,70644562.000000
107334113.000000,70593079.000000
107425000.000000,70575000.000000
107925000.000000,70575000.000000
108015887.000000,70593079.000000
108092938.000000,70644562.000000
108144421.000000,70721613.000000
108162500.000000,70812500.000000
108162500.000000,71287500.000000
108144421.000000,71378387.000000
108092938.000000,71455438.000000
108015887.000000,71506921.000000
107925000.000000,71525000.000000
107425000.000000,71525000.000000
107334113.000000,71506921.000000
107257062.000000,71455438.000000
107205579.000000,71378387.000000
107187500.000000,71287500.000000
Z" /> 
</g>
<g >
</g>
<g style="fill:#000000; fill-opacity:1.0; 
stroke:#000000; stroke-width:1.000000; stroke-opacity:1; 
stroke-linecap:round; stroke-linejoin:round;">
<path style="fill:#000000; fill-opacity:1.0; 
stroke:#000000; stroke-width:1.000000; stroke-opacity:1; 
stroke-linecap:round; stroke-linejoin:round;fill-rule:evenodd;"
d="M 100222500.000000,74762500.000000
100240579.000000,74671613.000000
100292062.000000,74594562.000000
100369113.000000,74543079.000000
100460000.000000,74525000.000000
101035000.000000,74525000.000000
101125887.000000,74543079.000000
101202938.000000,74594562.000000
101254421.000000,74671613.000000
101272500.000000,74762500.000000
101272500.000000,75237500.000000
101254421.000000,75328387.000000
101202938.000000,75405438.000000
101125887.000000,75456921.000000
101035000.000000,75475000.000000
100460000.000000,75475000.000000
100369113.000000,75456921.000000
100292062.000000,75405438.000000
100240579.000000,75328387.000000
100222500.000000,75237500.000000
Z" /> 
<path style="fill:#000000; fill-opacity:1.0; 
stroke:#000000; stroke-width:1.000000; stroke-opacity:1; 
stroke-linecap:round; stroke-linejoin:round;fill-rule:evenodd;"
d="M 101972500.000000,74762500.000000
101990579.000000,74671613.000000
102042062.000000,74594562.000000
102119113.000000,74543079.000000
102210000.000000,74525000.000000
102785000.000000,74525000.000000
102875887.000000,74543079.000000
102952938.000000,74594562.000000
103004421.000000,74671613.000000
103022500.000000,74762500.000000
103022500.000000,75237500.000000
103004421.000000,75328387.000000
102952938.000000,75405438.000000
102875887.000000,75456921.000000
102785000.000000,75475000.000000
102210000.000000,75475000.000000
102119113.000000,75456921.000000
102042062.000000,75405438.000000
101990579.000000,75328387.000000
101972500.000000,75237500.000000
Z" /> 
</g>
<g >
</g>
<g style="fill:#000000; fill-opacity:1.0; 
stroke:#000000; stroke-width:1.000000; stroke-opacity:1; 
stroke-linecap:round; stroke-linejoin:round;">
<path style="fill:#000000; fill-opacity:1.0; 
stroke:#000000; stroke-width:1.000000; stroke-opacity:1; 
stroke-linecap:round; stroke-linejoin:round;fill-rule:evenodd;"
d="M 113800000.000000,61960000.000000
112100000.000000,61960000.000000
112100000.000000,60260000.000000
113800000.000000,60260000.000000
Z" /> 
<circle cx="110390000.000000" cy="61100000.000000" r="850000.000000" /> 
<circle cx="107850000.000000" cy="61080000.000000" r="850000.000000" /> 
</g>
<g >
</g>
<g style="fill:#000000; fill-opacity:1.0; 
stroke:#000000; stroke-width:1.000000; stroke-opacity:1; 
stroke-linecap:round; stroke-linejoin:round;">
<path style="fill:#000000; fill-opacity:1.0; 
stroke:#000000; stroke-width:1.000000; stroke-opacity:1; 
stroke-linecap:round; stroke-linejoin:round;fill-rule:evenodd;"
d="M 99450000.000000,62350000.000000
97750000.000000,62350000.000000
97750000.000000,61350000.000000
99450000.000000,61350000.000000
Z" /> 
<path style="fill:#000000; fill-opacity:1.0; 
stroke:#000000; stroke-width:1.000000; stroke-opacity:1; 
stroke-linecap:round; stroke-linejoin:round;fill-rule:evenodd;"
d="M 105750000.000000,62350000.000000
104050000.000000,62350000.000000
104050000.000000,61350000.000000
105750000.000000,61350000.000000
Z" /> 
<path style="fill:#000000; fill-opacity:1.0; 
stroke:#000000; stroke-width:1.000000; stroke-opacity:1; 
stroke-linecap:round; stroke-linejoin:round;fill-rule:evenodd;"
d="M 99450000.000000,66150000.000000
97750000.000000,66150000.000000
97750000.000000,65150000.000000
99450000.000000,65150000.000000
Z" /> 
<path style="fill:#000000; fill-opacity:1.0; 
stroke:#000000; stroke-width:1.000000; stroke-opacity:1; 
stroke-linecap:round; stroke-linejoin:round;fill-rule:evenodd;"
d="M 105750000.000000,66150000.000000
104050000.000000,66150000.000000
104050000.000000,65150000.000000
105750000.000000,65150000.000000
Z" /> 
</g>
<g >
</g>
<g style="fill:#000000; fill-opacity:1.0; 
stroke:#000000; stroke-width:1.000000; stroke-opacity:1; 
stroke-linecap:round; stroke-linejoin:round;">
<path style="fill:#000000; fill-opacity:1.0; 
stroke:#000000; stroke-width:1.000000; stroke-opacity:1; 
stroke-linecap:round; stroke-linejoin:round;fill-rule:evenodd;"
d="M 91887500.000000,61520000.000000
91978387.000000,61538079.000000
92055438.000000,61589562.000000
92106921.000000,61666613.000000
92125000.000000,61757500.000000
92125000.000000,62257500.000000
92106921.000000,62348387.000000
92055438.000000,62425438.000000
91978387.000000,62476921.000000
91887500.000000,62495000.000000
91412500.000000,62495000.000000
91321613.000000,62476921.000000
91244562.000000,62425438.000000
91193079.000000,62348387.000000
91175000.000000,62257500.000000
91175000.000000,61757500.000000
91193079.000000,61666613.000000
91244562.000000,61589562.000000
91321613.000000,61538079.000000
91412500.000000,61520000.000000
Z" /> 
<path style="fill:#000000; fill-opacity:1.0; 
stroke:#000000; stroke-width:1.000000; stroke-opacity:1; 
stroke-linecap:round; stroke-linejoin:round;fill-rule:evenodd;"
d="M 91887500.000000,63345000.000000
91978387.000000,63363079.000000
92055438.000000,63414562.000000
92106921.000000,63491613.000000
92125000.000000,63582500.000000
92125000.000000,64082500.000000
92106921.000000,64173387.000000
92055438.000000,64250438.000000
91978387.000000,64301921.000000
91887500.000000,64320000.000000
91412500.000000,64320000.000000
91321613.000000,64301921.000000
91244562.000000,64250438.000000
91193079.000000,64173387.000000
91175000.000000,64082500.000000
91175000.000000,63582500.000000
91193079.000000,63491613.000000
91244562.000000,63414562.000000
91321613.000000,63363079.000000
91412500.000000,63345000.000000
Z" /> 
</g>
<g >
</g>
<g style="fill:#000000; fill-opacity:1.0; 
stroke:#000000; stroke-width:1.000000; stroke-opacity:1; 
stroke-linecap:round; stroke-linejoin:round;">
<circle cx="91600000.000000" cy="81445000.000000" r="800000.000000" /> 
</g>
<g style="fill:#000000; fill-opacity:1.0; 
stroke:#000000; stroke-width:21200.000000; stroke-opacity:1; 
stroke-linecap:round; stroke-linejoin:round;">
</g>
<g style="fill:#000000; fill-opacity:1.0; 
stroke:#000000; stroke-width:1.000000; stroke-opacity:1; 
stroke-linecap:round; stroke-linejoin:round;">
<circle cx="91600000.000000" cy="78905000.000000" r="800000.000000" /> 
</g>
<g >
</g>
<g style="fill:#000000; fill-opacity:1.0; 
stroke:#000000; stroke-width:1.000000; stroke-opacity:1; 
stroke-linecap:round; stroke-linejoin:round;">
<path style="fill:#000000; fill-opacity:1.0; 
stroke:#000000; stroke-width:1.000000; stroke-opacity:1; 
stroke-linecap:round; stroke-linejoin:round;fill-rule:evenodd;"
d="M 91462500.000000,69090000.000000
91371613.000000,69071921.000000
91294562.000000,69020438.000000
91243079.000000,68943387.000000
91225000.000000,68852500.000000
91225000.000000,68352500.000000
91243079.000000,68261613.000000
91294562.000000,68184562.000000
91371613.000000,68133079.000000
91462500.000000,68115000.000000
91937500.000000,68115000.000000
92028387.000000,68133079.000000
92105438.000000,68184562.000000
92156921.000000,68261613.000000
92175000.000000,68352500.000000
92175000.000000,68852500.000000
92156921.000000,68943387.000000
92105438.000000,69020438.000000
92028387.000000,69071921.000000
91937500.000000,69090000.000000
Z" /> 
<path style="fill:#000000; fill-opacity:1.0; 
stroke:#000000; stroke-width:1.000000; stroke-opacity:1; 
stroke-linecap:round; stroke-linejoin:round;fill-rule:evenodd;"
d="M 91462500.000000,67265000.000000
91371613.000000,67246921.000000
91294562.000000,67195438.000000
91243079.000000,67118387.000000
91225000.000000,67027500.000000
91225000.000000,66527500.000000
91243079.000000,66436613.000000
91294562.000000,66359562.000000
91371613.000000,66308079.000000
91462500.000000,66290000.000000
91937500.000000,66290000.000000
92028387.000000,66308079.000000
92105438.000000,66359562.000000
92156921.000000,66436613.000000
92175000.000000,66527500.000000
92175000.000000,67027500.000000
92156921.000000,67118387.000000
92105438.000000,67195438.000000
92028387.000000,67246921.000000
91937500.000000,67265000.000000
Z" /> 
</g>
<g >
</g>
<g style="fill:#000000; fill-opacity:1.0; 
stroke:#000000; stroke-width:1.000000; stroke-opacity:1; 
stroke-linecap:round; stroke-linejoin:round;">
<path style="fill:#000000; fill-opacity:1.0; 
stroke:#000000; stroke-width:1.000000; stroke-opacity:1; 
stroke-linecap:round; stroke-linejoin:round;fill-rule:evenodd;"
d="M 105560000.000000,78892500.000000
105578079.000000,78801613.000000
105629562.000000,78724562.000000
105706613.000000,78673079.000000
105797500.000000,78655000.000000
106297500.000000,78655000.000000
106388387.000000,78673079.000000
106465438.000000,78724562.000000
106516921.000000,78801613.000000
106535000.000000,78892500.000000
106535000.000000,79367500.000000
106516921.000000,79458387.000000
106465438.000000,79535438.000000
106388387.000000,79586921.000000
106297500.000000,79605000.000000
105797500.000000,79605000.000000
105706613.000000,79586921.000000
105629562.000000,79535438.000000
105578079.000000,79458387.000000
105560000.000000,79367500.000000
Z" /> 
<path style="fill:#000000; fill-opacity:1.0; 
stroke:#000000; stroke-width:1.000000; stroke-opacity:1; 
stroke-linecap:round; stroke-linejoin:round;fill-rule:evenodd;"
d="M 107385000.000000,78892500.000000
107403079.000000,78801613.000000
107454562.000000,78724562.000000
107531613.000000,78673079.000000
107622500.000000,78655000.000000
108122500.000000,78655000.000000
108213387.000000,78673079.000000
108290438.000000,78724562.000000
108341921.000000,78801613.000000
108360000.000000,78892500.000000
108360000.000000,79367500.000000
108341921.000000,79458387.000000
108290438.000000,79535438.000000
108213387.000000,79586921.000000
108122500.000000,79605000.000000
107622500.000000,79605000.000000
107531613.000000,79586921.000000
107454562.000000,79535438.000000
107403079.000000,79458387.000000
107385000.000000,79367500.000000
Z" /> 
</g>
<g >
</g>
<g style="fill:#000000; fill-opacity:1.0; 
stroke:#000000; stroke-width:1.000000; stroke-opacity:1; 
stroke-linecap:round; stroke-linejoin:round;">
<path style="fill:#000000; fill-opacity:1.0; 
stroke:#000000; stroke-width:1.000000; stroke-opacity:1; 
stroke-linecap:round; stroke-linejoin:round;fill-rule:evenodd;"
d="M 100210000.000000,70752500.000000
100228079.000000,70661613.000000
100279562.000000,70584562.000000
100356613.000000,70533079.000000
100447500.000000,70515000.000000
101022500.000000,70515000.000000
101113387.000000,70533079.000000
101190438.000000,70584562.000000
101241921.000000,70661613.000000
101260000.000000,70752500.000000
101260000.000000,71227500.000000
101241921.000000,71318387.000000
101190438.000000,71395438.000000
101113387.000000,71446921.000000
101022500.000000,71465000.000000
100447500.000000,71465000.000000
100356613.000000,71446921.000000
100279562.000000,71395438.000000
100228079.000000,71318387.000000
100210000.000000,71227500.000000
Z" /> 
<path style="fill:#000000; fill-opacity:1.0; 
stroke:#000000; stroke-width:1.000000; stroke-opacity:1; 
stroke-linecap:round; stroke-linejoin:round;fill-rule:evenodd;"
d="M 101960000.000000,70752500.000000
101978079.000000,70661613.000000
102029562.000000,70584562.000000
102106613.000000,70533079.000000
102197500.000000,70515000.000000
102772500.000000,70515000.000000
102863387.000000,70533079.000000
102940438.000000,70584562.000000
102991921.000000,70661613.000000
103010000.000000,70752500.000000
103010000.000000,71227500.000000
102991921.000000,71318387.000000
102940438.000000,71395438.000000
102863387.000000,71446921.000000
102772500.000000,71465000.000000
102197500.000000,71465000.000000
102106613.000000,71446921.000000
102029562.000000,71395438.000000
101978079.000000,71318387.000000
101960000.000000,71227500.000000
Z" /> 
</g>
<g >
</g>
<g style="fill:#000000; fill-opacity:1.0; 
stroke:#000000; stroke-width:1.000000; stroke-opacity:1; 
stroke-linecap:round; stroke-linejoin:round;">
<path style="fill:#000000; fill-opacity:1.0; 
stroke:#000000; stroke-width:1.000000; stroke-opacity:1; 
stroke-linecap:round; stroke-linejoin:round;fill-rule:evenodd;"
d="M 112835000.000000,86275000.000000
112815970.000000,86370671.000000
112761777.000000,86451777.000000
112680671.000000,86505970.000000
112585000.000000,86525000.000000
111910000.000000,86525000.000000
111814329.000000,86505970.000000
111733223.000000,86451777.000000
111679030.000000,86370671.000000
111660000.000000,86275000.000000
111660000.000000,85325000.000000
111679030.000000,85229329.000000
111733223.000000,85148223.000000
111814329.000000,85094030.000000
111910000.000000,85075000.000000
112585000.000000,85075000.000000
112680671.000000,85094030.000000
112761777.000000,85148223.000000
112815970.000000,85229329.000000
112835000.000000,85325000.000000
Z" /> 
<path style="fill:#000000; fill-opacity:1.0; 
stroke:#000000; stroke-width:1.000000; stroke-opacity:1; 
stroke-linecap:round; stroke-linejoin:round;fill-rule:evenodd;"
d="M 110760000.000000,86275000.000000
110740970.000000,86370671.000000
110686777.000000,86451777.000000
110605671.000000,86505970.000000
110510000.000000,86525000.000000
109835000.000000,86525000.000000
109739329.000000,86505970.000000
109658223.000000,86451777.000000
109604030.000000,86370671.000000
109585000.000000,86275000.000000
109585000.000000,85325000.000000
109604030.000000,85229329.000000
109658223.000000,85148223.000000
109739329.000000,85094030.000000
109835000.000000,85075000.000000
110510000.000000,85075000.000000
110605671.000000,85094030.000000
110686777.000000,85148223.000000
110740970.000000,85229329.000000
110760000.000000,85325000.000000
Z" /> 
</g>
<g >
</g>
<g style="fill:#000000; fill-opacity:1.0; 
stroke:#000000; stroke-width:1.000000; stroke-opacity:1; 
stroke-linecap:round; stroke-linejoin:round;">
<path style="fill:#000000; fill-opacity:1.0; 
stroke:#000000; stroke-width:1.000000; stroke-opacity:1; 
stroke-linecap:round; stroke-linejoin:round;fill-rule:evenodd;"
d="M 90975000.000000,72120000.000000
90986418.000000,72062597.000000
91018934.000000,72013934.000000
91067597.000000,71981418.000000
91125000.000000,71970000.000000
92300000.000000,71970000.000000
92357403.000000,71981418.000000
92406066.000000,72013934.000000
92438582.000000,72062597.000000
92450000.000000,72120000.000000
92450000.000000,72420000.000000
92438582.000000,72477403.000000
92406066.000000,72526066.000000
92357403.000000,72558582.000000
92300000.000000,72570000.000000
91125000.000000,72570000.000000
91067597.000000,72558582.000000
91018934.000000,72526066.000000
90986418.000000,72477403.000000
90975000.000000,72420000.000000
Z" /> 
<path style="fill:#000000; fill-opacity:1.0; 
stroke:#000000; stroke-width:1.000000; stroke-opacity:1; 
stroke-linecap:round; stroke-linejoin:round;fill-rule:evenodd;"
d="M 90975000.000000,74020000.000000
90986418.000000,73962597.000000
91018934.000000,73913934.000000
91067597.000000,73881418.000000
91125000.000000,73870000.000000
92300000.000000,73870000.000000
92357403.000000,73881418.000000
92406066.000000,73913934.000000
92438582.000000,73962597.000000
92450000.000000,74020000.000000
92450000.000000,74320000.000000
92438582.000000,74377403.000000
92406066.000000,74426066.000000
92357403.000000,74458582.000000
92300000.000000,74470000.000000
91125000.000000,74470000.000000
91067597.000000,74458582.000000
91018934.000000,74426066.000000
90986418.000000,74377403.000000
90975000.000000,74320000.000000
Z" /> 
<path style="fill:#000000; fill-opacity:1.0; 
stroke:#000000; stroke-width:1.000000; stroke-opacity:1; 
stroke-linecap:round; stroke-linejoin:round;fill-rule:evenodd;"
d="M 92850000.000000,73070000.000000
92861418.000000,73012597.000000
92893934.000000,72963934.000000
92942597.000000,72931418.000000
93000000.000000,72920000.000000
94175000.000000,72920000.000000
94232403.000000,72931418.000000
94281066.000000,72963934.000000
94313582.000000,73012597.000000
94325000.000000,73070000.000000
94325000.000000,73370000.000000
94313582.000000,73427403.000000
94281066.000000,73476066.000000
94232403.000000,73508582.000000
94175000.000000,73520000.000000
93000000.000000,73520000.000000
92942597.000000,73508582.000000
92893934.000000,73476066.000000
92861418.000000,73427403.000000
92850000.000000,73370000.000000
Z" /> 
</g>
<g >
</g>
<g style="fill:#000000; fill-opacity:1.0; 
stroke:#000000; stroke-width:1.000000; stroke-opacity:1; 
stroke-linecap:round; stroke-linejoin:round;">
<path style="fill:#000000; fill-opacity:1.0; 
stroke:#000000; stroke-width:1.000000; stroke-opacity:1; 
stroke-linecap:round; stroke-linejoin:round;fill-rule:evenodd;"
d="M 98045000.000000,57185000.000000
98025970.000000,57280671.000000
97971777.000000,57361777.000000
97890671.000000,57415970.000000
97795000.000000,57435000.000000
97120000.000000,57435000.000000
97024329.000000,57415970.000000
96943223.000000,57361777.000000
96889030.000000,57280671.000000
96870000.000000,57185000.000000
96870000.000000,56235000.000000
96889030.000000,56139329.000000
96943223.000000,56058223.000000
97024329.000000,56004030.000000
97120000.000000,55985000.000000
97795000.000000,55985000.000000
97890671.000000,56004030.000000
97971777.000000,56058223.000000
98025970.000000,56139329.000000
98045000.000000,56235000.000000
Z" /> 
<path style="fill:#000000; fill-opacity:1.0; 
stroke:#000000; stroke-width:1.000000; stroke-opacity:1; 
stroke-linecap:round; stroke-linejoin:round;fill-rule:evenodd;"
d="M 95970000.000000,57185000.000000
95950970.000000,57280671.000000
95896777.000000,57361777.000000
95815671.000000,57415970.000000
95720000.000000,57435000.000000
95045000.000000,57435000.000000
94949329.000000,57415970.000000
94868223.000000,57361777.000000
94814030.000000,57280671.000000
94795000.000000,57185000.000000
94795000.000000,56235000.000000
94814030.000000,56139329.000000
94868223.000000,56058223.000000
94949329.000000,56004030.000000
95045000.000000,55985000.000000
95720000.000000,55985000.000000
95815671.000000,56004030.000000
95896777.000000,56058223.000000
95950970.000000,56139329.000000
95970000.000000,56235000.000000
Z" /> 
</g>
<g >
</g>
<g style="fill:#000000; fill-opacity:1.0; 
stroke:#000000; stroke-width:1.000000; stroke-opacity:1; 
stroke-linecap:round; stroke-linejoin:round;">
<path style="fill:#000000; fill-opacity:1.0; 
stroke:#000000; stroke-width:1.000000; stroke-opacity:1; 
stroke-linecap:round; stroke-linejoin:round;fill-rule:evenodd;"
d="M 91120000.000000,55145000.000000
91120000.000000,53445000.000000
92820000.000000,53445000.000000
92820000.000000,55145000.000000
Z" /> 
<circle cx="91970000.000000" cy="56835000.000000" r="850000.000000" /> 
</g>
<g >
</g>
<g style="fill:#000000; fill-opacity:1.0; 
stroke:#000000; stroke-width:1.000000; stroke-opacity:1; 
stroke-linecap:round; stroke-linejoin:round;">
<path style="fill:#000000; fill-opacity:1.0; 
stroke:#000000; stroke-width:1.000000; stroke-opacity:1; 
stroke-linecap:round; stroke-linejoin:round;fill-rule:evenodd;"
d="M 94925000.000000,53405000.000000
94925000.000000,51955000.000000
95875000.000000,51955000.000000
95875000.000000,53405000.000000
Z" /> 
<path style="fill:#000000; fill-opacity:1.0; 
stroke:#000000; stroke-width:1.000000; stroke-opacity:1; 
stroke-linecap:round; stroke-linejoin:round;fill-rule:evenodd;"
d="M 96825000.000000,53405000.000000
96825000.000000,51955000.000000
97775000.000000,51955000.000000
97775000.000000,53405000.000000
Z" /> 
</g>
<g >
</g>
<g style="fill:#000000; fill-opacity:1.0; 
stroke:#000000; stroke-width:1.000000; stroke-opacity:1; 
stroke-linecap:round; stroke-linejoin:round;">
<path style="fill:#000000; fill-opacity:1.0; 
stroke:#000000; stroke-width:1.000000; stroke-opacity:1; 
stroke-linecap:round; stroke-linejoin:round;fill-rule:evenodd;"
d="M 105562500.000000,74852500.000000
105580579.000000,74761613.000000
105632062.000000,74684562.000000
105709113.000000,74633079.000000
105800000.000000,74615000.000000
106300000.000000,74615000.000000
106390887.000000,74633079.000000
106467938.000000,74684562.000000
106519421.000000,74761613.000000
106537500.000000,74852500.000000
106537500.000000,75327500.000000
106519421.000000,75418387.000000
106467938.000000,75495438.000000
106390887.000000,75546921.000000
106300000.000000,75565000.000000
105800000.000000,75565000.000000
105709113.000000,75546921.000000
105632062.000000,75495438.000000
105580579.000000,75418387.000000
105562500.000000,75327500.000000
Z" /> 
<path style="fill:#000000; fill-opacity:1.0; 
stroke:#000000; stroke-width:1.000000; stroke-opacity:1; 
stroke-linecap:round; stroke-linejoin:round;fill-rule:evenodd;"
d="M 107387500.000000,74852500.000000
107405579.000000,74761613.000000
107457062.000000,74684562.000000
107534113.000000,74633079.000000
107625000.000000,74615000.000000
108125000.000000,74615000.000000
108215887.000000,74633079.000000
108292938.000000,74684562.000000
108344421.000000,74761613.000000
108362500.000000,74852500.000000
108362500.000000,75327500.000000
108344421.000000,75418387.000000
108292938.000000,75495438.000000
108215887.000000,75546921.000000
108125000.000000,75565000.000000
107625000.000000,75565000.000000
107534113.000000,75546921.000000
107457062.000000,75495438.000000
107405579.000000,75418387.000000
107387500.000000,75327500.000000
Z" /> 
</g>
<g >
</g>
<g style="fill:#000000; fill-opacity:1.0; 
stroke:#000000; stroke-width:1.000000; stroke-opacity:1; 
stroke-linecap:round; stroke-linejoin:round;">
<path style="fill:#000000; fill-opacity:1.0; 
stroke:#000000; stroke-width:1.000000; stroke-opacity:1; 
stroke-linecap:round; stroke-linejoin:round;fill-rule:evenodd;"
d="M 109830000.000000,67332500.000000
109848079.000000,67241613.000000
109899562.000000,67164562.000000
109976613.000000,67113079.000000
110067500.000000,67095000.000000
110567500.000000,67095000.000000
110658387.000000,67113079.000000
110735438.000000,67164562.000000
110786921.000000,67241613.000000
110805000.000000,67332500.000000
110805000.000000,67807500.000000
110786921.000000,67898387.000000
110735438.000000,67975438.000000
110658387.000000,68026921.000000
110567500.000000,68045000.000000
110067500.000000,68045000.000000
109976613.000000,68026921.000000
109899562.000000,67975438.000000
109848079.000000,67898387.000000
109830000.000000,67807500.000000
Z" /> 
<path style="fill:#000000; fill-opacity:1.0; 
stroke:#000000; stroke-width:1.000000; stroke-opacity:1; 
stroke-linecap:round; stroke-linejoin:round;fill-rule:evenodd;"
d="M 111655000.000000,67332500.000000
111673079.000000,67241613.000000
111724562.000000,67164562.000000
111801613.000000,67113079.000000
111892500.000000,67095000.000000
112392500.000000,67095000.000000
112483387.000000,67113079.000000
112560438.000000,67164562.000000
112611921.000000,67241613.000000
112630000.000000,67332500.000000
112630000.000000,67807500.000000
112611921.000000,67898387.000000
112560438.000000,67975438.000000
112483387.000000,68026921.000000
112392500.000000,68045000.000000
111892500.000000,68045000.000000
111801613.000000,68026921.000000
111724562.000000,67975438.000000
111673079.000000,67898387.000000
111655000.000000,67807500.000000
Z" /> 
</g>
<g >
</g>
<g >
</g>
<g >
</g>
<g >
</g>
<g >
</g>
<g >
</g>
<g >
</g>
<g >
</g>
<g >
</g>
</g> 
</svg>
