<?xml version="1.0" standalone="no"?>
 <!DOCTYPE svg PUBLIC "-//W3C//DTD SVG 1.1//EN" 
 "http://www.w3.org/Graphics/SVG/1.1/DTD/svg11.dtd"> 
<svg
  xmlns:svg="http://www.w3.org/2000/svg"
  xmlns="http://www.w3.org/2000/svg"
  xmlns:xlink="http://www.w3.org/1999/xlink"
  version="1.1"
  width="29.700220cm" height="21.000720cm" viewBox="0 0 297002200 210007200">
<title>SVG Picture created as Rectangle Control Module V1.0.4-B_Mask.svg date 2022/09/14 13:48:18 </title>
  <desc>Picture generated by PCBNEW </desc>
<g style="fill:#000000; fill-opacity:1.000000;stroke:#000000; stroke-opacity:1.000000;
stroke-linecap:round; stroke-linejoin:round;"
 transform="translate(0 0) scale(1 1)">
</g>
<g style="fill:#000000; fill-opacity:0.0; 
stroke:#000000; stroke-width:0.000000; stroke-opacity:1; 
stroke-linecap:round; stroke-linejoin:round;">
<g >
</g>
<g style="fill:#000000; fill-opacity:1.0; 
stroke:#000000; stroke-width:1.000000; stroke-opacity:1; 
stroke-linecap:round; stroke-linejoin:round;">
<circle cx="97280000.000000" cy="83780000.000000" r="1005000.000000" /> 
</g>
<g style="fill:#000000; fill-opacity:1.0; 
stroke:#000000; stroke-width:21200.000000; stroke-opacity:1; 
stroke-linecap:round; stroke-linejoin:round;">
</g>
<g style="fill:#000000; fill-opacity:1.0; 
stroke:#000000; stroke-width:1.000000; stroke-opacity:1; 
stroke-linecap:round; stroke-linejoin:round;">
<circle cx="97280000.000000" cy="87580000.000000" r="1005000.000000" /> 
</g>
<g style="fill:#000000; fill-opacity:1.0; 
stroke:#000000; stroke-width:21200.000000; stroke-opacity:1; 
stroke-linecap:round; stroke-linejoin:round;">
</g>
<g style="fill:#000000; fill-opacity:1.0; 
stroke:#000000; stroke-width:1.000000; stroke-opacity:1; 
stroke-linecap:round; stroke-linejoin:round;">
<circle cx="105920000.000000" cy="87580000.000000" r="1005000.000000" /> 
</g>
<g style="fill:#000000; fill-opacity:1.0; 
stroke:#000000; stroke-width:21200.000000; stroke-opacity:1; 
stroke-linecap:round; stroke-linejoin:round;">
</g>
<g style="fill:#000000; fill-opacity:1.0; 
stroke:#000000; stroke-width:1.000000; stroke-opacity:1; 
stroke-linecap:round; stroke-linejoin:round;">
<circle cx="105920000.000000" cy="83780000.000000" r="1005000.000000" /> 
</g>
<g style="fill:#000000; fill-opacity:1.0; 
stroke:#000000; stroke-width:21200.000000; stroke-opacity:1; 
stroke-linecap:round; stroke-linejoin:round;">
</g>
<g >
</g>
<g >
</g>
<g >
</g>
<g >
</g>
<g >
</g>
<g style="fill:#000000; fill-opacity:1.0; 
stroke:#000000; stroke-width:21200.000000; stroke-opacity:1; 
stroke-linecap:round; stroke-linejoin:round;">
</g>
<g style="fill:#000000; fill-opacity:1.0; 
stroke:#000000; stroke-width:1.000000; stroke-opacity:1; 
stroke-linecap:round; stroke-linejoin:round;">
<path style="fill:#000000; fill-opacity:1.0; 
stroke:#000000; stroke-width:1.000000; stroke-opacity:1; 
stroke-linecap:round; stroke-linejoin:round;fill-rule:evenodd;"
d="M 113800000.000000,61960000.000000
112100000.000000,61960000.000000
112100000.000000,60260000.000000
113800000.000000,60260000.000000
Z" /> 
<circle cx="110390000.000000" cy="61100000.000000" r="850000.000000" /> 
<circle cx="107850000.000000" cy="61080000.000000" r="850000.000000" /> 
</g>
<g >
</g>
<g >
</g>
<g >
</g>
<g style="fill:#000000; fill-opacity:1.0; 
stroke:#000000; stroke-width:1.000000; stroke-opacity:1; 
stroke-linecap:round; stroke-linejoin:round;">
<circle cx="91600000.000000" cy="81445000.000000" r="800000.000000" /> 
</g>
<g style="fill:#000000; fill-opacity:1.0; 
stroke:#000000; stroke-width:21200.000000; stroke-opacity:1; 
stroke-linecap:round; stroke-linejoin:round;">
</g>
<g style="fill:#000000; fill-opacity:1.0; 
stroke:#000000; stroke-width:1.000000; stroke-opacity:1; 
stroke-linecap:round; stroke-linejoin:round;">
<circle cx="91600000.000000" cy="78905000.000000" r="800000.000000" /> 
</g>
<g >
</g>
<g >
</g>
<g >
</g>
<g >
</g>
<g >
</g>
<g >
</g>
<g >
</g>
<g style="fill:#000000; fill-opacity:1.0; 
stroke:#000000; stroke-width:1.000000; stroke-opacity:1; 
stroke-linecap:round; stroke-linejoin:round;">
<path style="fill:#000000; fill-opacity:1.0; 
stroke:#000000; stroke-width:1.000000; stroke-opacity:1; 
stroke-linecap:round; stroke-linejoin:round;fill-rule:evenodd;"
d="M 91120000.000000,55145000.000000
91120000.000000,53445000.000000
92820000.000000,53445000.000000
92820000.000000,55145000.000000
Z" /> 
<circle cx="91970000.000000" cy="56835000.000000" r="850000.000000" /> 
</g>
<g >
</g>
<g >
</g>
<g >
</g>
<g >
</g>
<g style="fill:#000000; fill-opacity:1.0; 
stroke:#000000; stroke-width:1.000000; stroke-opacity:1; 
stroke-linecap:round; stroke-linejoin:round;">
<path style="fill:#000000; fill-opacity:1.0; 
stroke:#000000; stroke-width:1.000000; stroke-opacity:1; 
stroke-linecap:round; stroke-linejoin:round;fill-rule:evenodd;"
d="M 105925000.000000,63570000.000000
105925000.000000,64020000.000000
104175000.000000,64020000.000000
104175000.000000,63570000.000000
Z" /> 
<path style="fill:#000000; fill-opacity:1.0; 
stroke:#000000; stroke-width:1.000000; stroke-opacity:1; 
stroke-linecap:round; stroke-linejoin:round;fill-rule:evenodd;"
d="M 105925000.000000,64220000.000000
105925000.000000,64670000.000000
104175000.000000,64670000.000000
104175000.000000,64220000.000000
Z" /> 
<path style="fill:#000000; fill-opacity:1.0; 
stroke:#000000; stroke-width:1.000000; stroke-opacity:1; 
stroke-linecap:round; stroke-linejoin:round;fill-rule:evenodd;"
d="M 105925000.000000,64870000.000000
105925000.000000,65320000.000000
104175000.000000,65320000.000000
104175000.000000,64870000.000000
Z" /> 
<path style="fill:#000000; fill-opacity:1.0; 
stroke:#000000; stroke-width:1.000000; stroke-opacity:1; 
stroke-linecap:round; stroke-linejoin:round;fill-rule:evenodd;"
d="M 105925000.000000,65520000.000000
105925000.000000,65970000.000000
104175000.000000,65970000.000000
104175000.000000,65520000.000000
Z" /> 
<path style="fill:#000000; fill-opacity:1.0; 
stroke:#000000; stroke-width:1.000000; stroke-opacity:1; 
stroke-linecap:round; stroke-linejoin:round;fill-rule:evenodd;"
d="M 105925000.000000,66170000.000000
105925000.000000,66620000.000000
104175000.000000,66620000.000000
104175000.000000,66170000.000000
Z" /> 
<path style="fill:#000000; fill-opacity:1.0; 
stroke:#000000; stroke-width:1.000000; stroke-opacity:1; 
stroke-linecap:round; stroke-linejoin:round;fill-rule:evenodd;"
d="M 105925000.000000,66820000.000000
105925000.000000,67270000.000000
104175000.000000,67270000.000000
104175000.000000,66820000.000000
Z" /> 
<path style="fill:#000000; fill-opacity:1.0; 
stroke:#000000; stroke-width:1.000000; stroke-opacity:1; 
stroke-linecap:round; stroke-linejoin:round;fill-rule:evenodd;"
d="M 105925000.000000,67470000.000000
105925000.000000,67920000.000000
104175000.000000,67920000.000000
104175000.000000,67470000.000000
Z" /> 
<path style="fill:#000000; fill-opacity:1.0; 
stroke:#000000; stroke-width:1.000000; stroke-opacity:1; 
stroke-linecap:round; stroke-linejoin:round;fill-rule:evenodd;"
d="M 105925000.000000,68120000.000000
105925000.000000,68570000.000000
104175000.000000,68570000.000000
104175000.000000,68120000.000000
Z" /> 
<path style="fill:#000000; fill-opacity:1.0; 
stroke:#000000; stroke-width:1.000000; stroke-opacity:1; 
stroke-linecap:round; stroke-linejoin:round;fill-rule:evenodd;"
d="M 105925000.000000,68770000.000000
105925000.000000,69220000.000000
104175000.000000,69220000.000000
104175000.000000,68770000.000000
Z" /> 
<path style="fill:#000000; fill-opacity:1.0; 
stroke:#000000; stroke-width:1.000000; stroke-opacity:1; 
stroke-linecap:round; stroke-linejoin:round;fill-rule:evenodd;"
d="M 105925000.000000,69420000.000000
105925000.000000,69870000.000000
104175000.000000,69870000.000000
104175000.000000,69420000.000000
Z" /> 
<path style="fill:#000000; fill-opacity:1.0; 
stroke:#000000; stroke-width:1.000000; stroke-opacity:1; 
stroke-linecap:round; stroke-linejoin:round;fill-rule:evenodd;"
d="M 105925000.000000,70070000.000000
105925000.000000,70520000.000000
104175000.000000,70520000.000000
104175000.000000,70070000.000000
Z" /> 
<path style="fill:#000000; fill-opacity:1.0; 
stroke:#000000; stroke-width:1.000000; stroke-opacity:1; 
stroke-linecap:round; stroke-linejoin:round;fill-rule:evenodd;"
d="M 105925000.000000,70720000.000000
105925000.000000,71170000.000000
104175000.000000,71170000.000000
104175000.000000,70720000.000000
Z" /> 
<path style="fill:#000000; fill-opacity:1.0; 
stroke:#000000; stroke-width:1.000000; stroke-opacity:1; 
stroke-linecap:round; stroke-linejoin:round;fill-rule:evenodd;"
d="M 105925000.000000,71370000.000000
105925000.000000,71820000.000000
104175000.000000,71820000.000000
104175000.000000,71370000.000000
Z" /> 
<path style="fill:#000000; fill-opacity:1.0; 
stroke:#000000; stroke-width:1.000000; stroke-opacity:1; 
stroke-linecap:round; stroke-linejoin:round;fill-rule:evenodd;"
d="M 105925000.000000,72020000.000000
105925000.000000,72470000.000000
104175000.000000,72470000.000000
104175000.000000,72020000.000000
Z" /> 
<path style="fill:#000000; fill-opacity:1.0; 
stroke:#000000; stroke-width:1.000000; stroke-opacity:1; 
stroke-linecap:round; stroke-linejoin:round;fill-rule:evenodd;"
d="M 98725000.000000,72020000.000000
98725000.000000,72470000.000000
96975000.000000,72470000.000000
96975000.000000,72020000.000000
Z" /> 
<path style="fill:#000000; fill-opacity:1.0; 
stroke:#000000; stroke-width:1.000000; stroke-opacity:1; 
stroke-linecap:round; stroke-linejoin:round;fill-rule:evenodd;"
d="M 98725000.000000,71370000.000000
98725000.000000,71820000.000000
96975000.000000,71820000.000000
96975000.000000,71370000.000000
Z" /> 
<path style="fill:#000000; fill-opacity:1.0; 
stroke:#000000; stroke-width:1.000000; stroke-opacity:1; 
stroke-linecap:round; stroke-linejoin:round;fill-rule:evenodd;"
d="M 98725000.000000,70720000.000000
98725000.000000,71170000.000000
96975000.000000,71170000.000000
96975000.000000,70720000.000000
Z" /> 
<path style="fill:#000000; fill-opacity:1.0; 
stroke:#000000; stroke-width:1.000000; stroke-opacity:1; 
stroke-linecap:round; stroke-linejoin:round;fill-rule:evenodd;"
d="M 98725000.000000,70070000.000000
98725000.000000,70520000.000000
96975000.000000,70520000.000000
96975000.000000,70070000.000000
Z" /> 
<path style="fill:#000000; fill-opacity:1.0; 
stroke:#000000; stroke-width:1.000000; stroke-opacity:1; 
stroke-linecap:round; stroke-linejoin:round;fill-rule:evenodd;"
d="M 98725000.000000,69420000.000000
98725000.000000,69870000.000000
96975000.000000,69870000.000000
96975000.000000,69420000.000000
Z" /> 
<path style="fill:#000000; fill-opacity:1.0; 
stroke:#000000; stroke-width:1.000000; stroke-opacity:1; 
stroke-linecap:round; stroke-linejoin:round;fill-rule:evenodd;"
d="M 98725000.000000,68770000.000000
98725000.000000,69220000.000000
96975000.000000,69220000.000000
96975000.000000,68770000.000000
Z" /> 
<path style="fill:#000000; fill-opacity:1.0; 
stroke:#000000; stroke-width:1.000000; stroke-opacity:1; 
stroke-linecap:round; stroke-linejoin:round;fill-rule:evenodd;"
d="M 98725000.000000,68120000.000000
98725000.000000,68570000.000000
96975000.000000,68570000.000000
96975000.000000,68120000.000000
Z" /> 
<path style="fill:#000000; fill-opacity:1.0; 
stroke:#000000; stroke-width:1.000000; stroke-opacity:1; 
stroke-linecap:round; stroke-linejoin:round;fill-rule:evenodd;"
d="M 98725000.000000,67470000.000000
98725000.000000,67920000.000000
96975000.000000,67920000.000000
96975000.000000,67470000.000000
Z" /> 
<path style="fill:#000000; fill-opacity:1.0; 
stroke:#000000; stroke-width:1.000000; stroke-opacity:1; 
stroke-linecap:round; stroke-linejoin:round;fill-rule:evenodd;"
d="M 98725000.000000,66820000.000000
98725000.000000,67270000.000000
96975000.000000,67270000.000000
96975000.000000,66820000.000000
Z" /> 
<path style="fill:#000000; fill-opacity:1.0; 
stroke:#000000; stroke-width:1.000000; stroke-opacity:1; 
stroke-linecap:round; stroke-linejoin:round;fill-rule:evenodd;"
d="M 98725000.000000,66170000.000000
98725000.000000,66620000.000000
96975000.000000,66620000.000000
96975000.000000,66170000.000000
Z" /> 
<path style="fill:#000000; fill-opacity:1.0; 
stroke:#000000; stroke-width:1.000000; stroke-opacity:1; 
stroke-linecap:round; stroke-linejoin:round;fill-rule:evenodd;"
d="M 98725000.000000,65520000.000000
98725000.000000,65970000.000000
96975000.000000,65970000.000000
96975000.000000,65520000.000000
Z" /> 
<path style="fill:#000000; fill-opacity:1.0; 
stroke:#000000; stroke-width:1.000000; stroke-opacity:1; 
stroke-linecap:round; stroke-linejoin:round;fill-rule:evenodd;"
d="M 98725000.000000,64870000.000000
98725000.000000,65320000.000000
96975000.000000,65320000.000000
96975000.000000,64870000.000000
Z" /> 
<path style="fill:#000000; fill-opacity:1.0; 
stroke:#000000; stroke-width:1.000000; stroke-opacity:1; 
stroke-linecap:round; stroke-linejoin:round;fill-rule:evenodd;"
d="M 98725000.000000,64220000.000000
98725000.000000,64670000.000000
96975000.000000,64670000.000000
96975000.000000,64220000.000000
Z" /> 
<path style="fill:#000000; fill-opacity:1.0; 
stroke:#000000; stroke-width:1.000000; stroke-opacity:1; 
stroke-linecap:round; stroke-linejoin:round;fill-rule:evenodd;"
d="M 98725000.000000,63570000.000000
98725000.000000,64020000.000000
96975000.000000,64020000.000000
96975000.000000,63570000.000000
Z" /> 
</g>
<g >
</g>
<g style="fill:#000000; fill-opacity:1.0; 
stroke:#000000; stroke-width:1.000000; stroke-opacity:1; 
stroke-linecap:round; stroke-linejoin:round;">
<path style="fill:#000000; fill-opacity:1.0; 
stroke:#000000; stroke-width:1.000000; stroke-opacity:1; 
stroke-linecap:round; stroke-linejoin:round;fill-rule:evenodd;"
d="M 96290000.000000,60817500.000000
96271921.000000,60908387.000000
96220438.000000,60985438.000000
96143387.000000,61036921.000000
96052500.000000,61055000.000000
95552500.000000,61055000.000000
95461613.000000,61036921.000000
95384562.000000,60985438.000000
95333079.000000,60908387.000000
95315000.000000,60817500.000000
95315000.000000,60342500.000000
95333079.000000,60251613.000000
95384562.000000,60174562.000000
95461613.000000,60123079.000000
95552500.000000,60105000.000000
96052500.000000,60105000.000000
96143387.000000,60123079.000000
96220438.000000,60174562.000000
96271921.000000,60251613.000000
96290000.000000,60342500.000000
Z" /> 
<path style="fill:#000000; fill-opacity:1.0; 
stroke:#000000; stroke-width:1.000000; stroke-opacity:1; 
stroke-linecap:round; stroke-linejoin:round;fill-rule:evenodd;"
d="M 94465000.000000,60817500.000000
94446921.000000,60908387.000000
94395438.000000,60985438.000000
94318387.000000,61036921.000000
94227500.000000,61055000.000000
93727500.000000,61055000.000000
93636613.000000,61036921.000000
93559562.000000,60985438.000000
93508079.000000,60908387.000000
93490000.000000,60817500.000000
93490000.000000,60342500.000000
93508079.000000,60251613.000000
93559562.000000,60174562.000000
93636613.000000,60123079.000000
93727500.000000,60105000.000000
94227500.000000,60105000.000000
94318387.000000,60123079.000000
94395438.000000,60174562.000000
94446921.000000,60251613.000000
94465000.000000,60342500.000000
Z" /> 
</g>
<g >
</g>
<g style="fill:#000000; fill-opacity:1.0; 
stroke:#000000; stroke-width:1.000000; stroke-opacity:1; 
stroke-linecap:round; stroke-linejoin:round;">
<path style="fill:#000000; fill-opacity:1.0; 
stroke:#000000; stroke-width:1.000000; stroke-opacity:1; 
stroke-linecap:round; stroke-linejoin:round;fill-rule:evenodd;"
d="M 105050000.000000,53615000.000000
105038582.000000,53672403.000000
105006066.000000,53721066.000000
104957403.000000,53753582.000000
104900000.000000,53765000.000000
103575000.000000,53765000.000000
103517597.000000,53753582.000000
103468934.000000,53721066.000000
103436418.000000,53672403.000000
103425000.000000,53615000.000000
103425000.000000,53315000.000000
103436418.000000,53257597.000000
103468934.000000,53208934.000000
103517597.000000,53176418.000000
103575000.000000,53165000.000000
104900000.000000,53165000.000000
104957403.000000,53176418.000000
105006066.000000,53208934.000000
105038582.000000,53257597.000000
105050000.000000,53315000.000000
Z" /> 
<path style="fill:#000000; fill-opacity:1.0; 
stroke:#000000; stroke-width:1.000000; stroke-opacity:1; 
stroke-linecap:round; stroke-linejoin:round;fill-rule:evenodd;"
d="M 105050000.000000,54885000.000000
105038582.000000,54942403.000000
105006066.000000,54991066.000000
104957403.000000,55023582.000000
104900000.000000,55035000.000000
103575000.000000,55035000.000000
103517597.000000,55023582.000000
103468934.000000,54991066.000000
103436418.000000,54942403.000000
103425000.000000,54885000.000000
103425000.000000,54585000.000000
103436418.000000,54527597.000000
103468934.000000,54478934.000000
103517597.000000,54446418.000000
103575000.000000,54435000.000000
104900000.000000,54435000.000000
104957403.000000,54446418.000000
105006066.000000,54478934.000000
105038582.000000,54527597.000000
105050000.000000,54585000.000000
Z" /> 
<path style="fill:#000000; fill-opacity:1.0; 
stroke:#000000; stroke-width:1.000000; stroke-opacity:1; 
stroke-linecap:round; stroke-linejoin:round;fill-rule:evenodd;"
d="M 105050000.000000,56155000.000000
105038582.000000,56212403.000000
105006066.000000,56261066.000000
104957403.000000,56293582.000000
104900000.000000,56305000.000000
103575000.000000,56305000.000000
103517597.000000,56293582.000000
103468934.000000,56261066.000000
103436418.000000,56212403.000000
103425000.000000,56155000.000000
103425000.000000,55855000.000000
103436418.000000,55797597.000000
103468934.000000,55748934.000000
103517597.000000,55716418.000000
103575000.000000,55705000.000000
104900000.000000,55705000.000000
104957403.000000,55716418.000000
105006066.000000,55748934.000000
105038582.000000,55797597.000000
105050000.000000,55855000.000000
Z" /> 
<path style="fill:#000000; fill-opacity:1.0; 
stroke:#000000; stroke-width:1.000000; stroke-opacity:1; 
stroke-linecap:round; stroke-linejoin:round;fill-rule:evenodd;"
d="M 105050000.000000,57425000.000000
105038582.000000,57482403.000000
105006066.000000,57531066.000000
104957403.000000,57563582.000000
104900000.000000,57575000.000000
103575000.000000,57575000.000000
103517597.000000,57563582.000000
103468934.000000,57531066.000000
103436418.000000,57482403.000000
103425000.000000,57425000.000000
103425000.000000,57125000.000000
103436418.000000,57067597.000000
103468934.000000,57018934.000000
103517597.000000,56986418.000000
103575000.000000,56975000.000000
104900000.000000,56975000.000000
104957403.000000,56986418.000000
105006066.000000,57018934.000000
105038582.000000,57067597.000000
105050000.000000,57125000.000000
Z" /> 
<path style="fill:#000000; fill-opacity:1.0; 
stroke:#000000; stroke-width:1.000000; stroke-opacity:1; 
stroke-linecap:round; stroke-linejoin:round;fill-rule:evenodd;"
d="M 99775000.000000,57425000.000000
99763582.000000,57482403.000000
99731066.000000,57531066.000000
99682403.000000,57563582.000000
99625000.000000,57575000.000000
98300000.000000,57575000.000000
98242597.000000,57563582.000000
98193934.000000,57531066.000000
98161418.000000,57482403.000000
98150000.000000,57425000.000000
98150000.000000,57125000.000000
98161418.000000,57067597.000000
98193934.000000,57018934.000000
98242597.000000,56986418.000000
98300000.000000,56975000.000000
99625000.000000,56975000.000000
99682403.000000,56986418.000000
99731066.000000,57018934.000000
99763582.000000,57067597.000000
99775000.000000,57125000.000000
Z" /> 
<path style="fill:#000000; fill-opacity:1.0; 
stroke:#000000; stroke-width:1.000000; stroke-opacity:1; 
stroke-linecap:round; stroke-linejoin:round;fill-rule:evenodd;"
d="M 99775000.000000,56155000.000000
99763582.000000,56212403.000000
99731066.000000,56261066.000000
99682403.000000,56293582.000000
99625000.000000,56305000.000000
98300000.000000,56305000.000000
98242597.000000,56293582.000000
98193934.000000,56261066.000000
98161418.000000,56212403.000000
98150000.000000,56155000.000000
98150000.000000,55855000.000000
98161418.000000,55797597.000000
98193934.000000,55748934.000000
98242597.000000,55716418.000000
98300000.000000,55705000.000000
99625000.000000,55705000.000000
99682403.000000,55716418.000000
99731066.000000,55748934.000000
99763582.000000,55797597.000000
99775000.000000,55855000.000000
Z" /> 
<path style="fill:#000000; fill-opacity:1.0; 
stroke:#000000; stroke-width:1.000000; stroke-opacity:1; 
stroke-linecap:round; stroke-linejoin:round;fill-rule:evenodd;"
d="M 99775000.000000,54885000.000000
99763582.000000,54942403.000000
99731066.000000,54991066.000000
99682403.000000,55023582.000000
99625000.000000,55035000.000000
98300000.000000,55035000.000000
98242597.000000,55023582.000000
98193934.000000,54991066.000000
98161418.000000,54942403.000000
98150000.000000,54885000.000000
98150000.000000,54585000.000000
98161418.000000,54527597.000000
98193934.000000,54478934.000000
98242597.000000,54446418.000000
98300000.000000,54435000.000000
99625000.000000,54435000.000000
99682403.000000,54446418.000000
99731066.000000,54478934.000000
99763582.000000,54527597.000000
99775000.000000,54585000.000000
Z" /> 
<path style="fill:#000000; fill-opacity:1.0; 
stroke:#000000; stroke-width:1.000000; stroke-opacity:1; 
stroke-linecap:round; stroke-linejoin:round;fill-rule:evenodd;"
d="M 99775000.000000,53615000.000000
99763582.000000,53672403.000000
99731066.000000,53721066.000000
99682403.000000,53753582.000000
99625000.000000,53765000.000000
98300000.000000,53765000.000000
98242597.000000,53753582.000000
98193934.000000,53721066.000000
98161418.000000,53672403.000000
98150000.000000,53615000.000000
98150000.000000,53315000.000000
98161418.000000,53257597.000000
98193934.000000,53208934.000000
98242597.000000,53176418.000000
98300000.000000,53165000.000000
99625000.000000,53165000.000000
99682403.000000,53176418.000000
99731066.000000,53208934.000000
99763582.000000,53257597.000000
99775000.000000,53315000.000000
Z" /> 
<path style="fill:#000000; fill-opacity:1.0; 
stroke:#000000; stroke-width:1.000000; stroke-opacity:1; 
stroke-linecap:round; stroke-linejoin:round;fill-rule:evenodd;"
d="M 102857000.000000,53770000.000000
102857000.000000,56970000.000000
100343000.000000,56970000.000000
100343000.000000,53770000.000000
Z" /> 
</g>
<g >
</g>
<g style="fill:#000000; fill-opacity:1.0; 
stroke:#000000; stroke-width:1.000000; stroke-opacity:1; 
stroke-linecap:round; stroke-linejoin:round;">
<path style="fill:#000000; fill-opacity:1.0; 
stroke:#000000; stroke-width:1.000000; stroke-opacity:1; 
stroke-linecap:round; stroke-linejoin:round;fill-rule:evenodd;"
d="M 91590000.000000,66692500.000000
91608079.000000,66601613.000000
91659562.000000,66524562.000000
91736613.000000,66473079.000000
91827500.000000,66455000.000000
92327500.000000,66455000.000000
92418387.000000,66473079.000000
92495438.000000,66524562.000000
92546921.000000,66601613.000000
92565000.000000,66692500.000000
92565000.000000,67167500.000000
92546921.000000,67258387.000000
92495438.000000,67335438.000000
92418387.000000,67386921.000000
92327500.000000,67405000.000000
91827500.000000,67405000.000000
91736613.000000,67386921.000000
91659562.000000,67335438.000000
91608079.000000,67258387.000000
91590000.000000,67167500.000000
Z" /> 
<path style="fill:#000000; fill-opacity:1.0; 
stroke:#000000; stroke-width:1.000000; stroke-opacity:1; 
stroke-linecap:round; stroke-linejoin:round;fill-rule:evenodd;"
d="M 93415000.000000,66692500.000000
93433079.000000,66601613.000000
93484562.000000,66524562.000000
93561613.000000,66473079.000000
93652500.000000,66455000.000000
94152500.000000,66455000.000000
94243387.000000,66473079.000000
94320438.000000,66524562.000000
94371921.000000,66601613.000000
94390000.000000,66692500.000000
94390000.000000,67167500.000000
94371921.000000,67258387.000000
94320438.000000,67335438.000000
94243387.000000,67386921.000000
94152500.000000,67405000.000000
93652500.000000,67405000.000000
93561613.000000,67386921.000000
93484562.000000,67335438.000000
93433079.000000,67258387.000000
93415000.000000,67167500.000000
Z" /> 
</g>
<g >
</g>
<g style="fill:#000000; fill-opacity:1.0; 
stroke:#000000; stroke-width:1.000000; stroke-opacity:1; 
stroke-linecap:round; stroke-linejoin:round;">
<path style="fill:#000000; fill-opacity:1.0; 
stroke:#000000; stroke-width:1.000000; stroke-opacity:1; 
stroke-linecap:round; stroke-linejoin:round;fill-rule:evenodd;"
d="M 105700000.000000,54492500.000000
105718079.000000,54401613.000000
105769562.000000,54324562.000000
105846613.000000,54273079.000000
105937500.000000,54255000.000000
106437500.000000,54255000.000000
106528387.000000,54273079.000000
106605438.000000,54324562.000000
106656921.000000,54401613.000000
106675000.000000,54492500.000000
106675000.000000,54967500.000000
106656921.000000,55058387.000000
106605438.000000,55135438.000000
106528387.000000,55186921.000000
106437500.000000,55205000.000000
105937500.000000,55205000.000000
105846613.000000,55186921.000000
105769562.000000,55135438.000000
105718079.000000,55058387.000000
105700000.000000,54967500.000000
Z" /> 
<path style="fill:#000000; fill-opacity:1.0; 
stroke:#000000; stroke-width:1.000000; stroke-opacity:1; 
stroke-linecap:round; stroke-linejoin:round;fill-rule:evenodd;"
d="M 107525000.000000,54492500.000000
107543079.000000,54401613.000000
107594562.000000,54324562.000000
107671613.000000,54273079.000000
107762500.000000,54255000.000000
108262500.000000,54255000.000000
108353387.000000,54273079.000000
108430438.000000,54324562.000000
108481921.000000,54401613.000000
108500000.000000,54492500.000000
108500000.000000,54967500.000000
108481921.000000,55058387.000000
108430438.000000,55135438.000000
108353387.000000,55186921.000000
108262500.000000,55205000.000000
107762500.000000,55205000.000000
107671613.000000,55186921.000000
107594562.000000,55135438.000000
107543079.000000,55058387.000000
107525000.000000,54967500.000000
Z" /> 
</g>
<g >
</g>
<g style="fill:#000000; fill-opacity:1.0; 
stroke:#000000; stroke-width:1.000000; stroke-opacity:1; 
stroke-linecap:round; stroke-linejoin:round;">
<path style="fill:#000000; fill-opacity:1.0; 
stroke:#000000; stroke-width:1.000000; stroke-opacity:1; 
stroke-linecap:round; stroke-linejoin:round;fill-rule:evenodd;"
d="M 91592500.000000,63712500.000000
91610579.000000,63621613.000000
91662062.000000,63544562.000000
91739113.000000,63493079.000000
91830000.000000,63475000.000000
92330000.000000,63475000.000000
92420887.000000,63493079.000000
92497938.000000,63544562.000000
92549421.000000,63621613.000000
92567500.000000,63712500.000000
92567500.000000,64187500.000000
92549421.000000,64278387.000000
92497938.000000,64355438.000000
92420887.000000,64406921.000000
92330000.000000,64425000.000000
91830000.000000,64425000.000000
91739113.000000,64406921.000000
91662062.000000,64355438.000000
91610579.000000,64278387.000000
91592500.000000,64187500.000000
Z" /> 
<path style="fill:#000000; fill-opacity:1.0; 
stroke:#000000; stroke-width:1.000000; stroke-opacity:1; 
stroke-linecap:round; stroke-linejoin:round;fill-rule:evenodd;"
d="M 93417500.000000,63712500.000000
93435579.000000,63621613.000000
93487062.000000,63544562.000000
93564113.000000,63493079.000000
93655000.000000,63475000.000000
94155000.000000,63475000.000000
94245887.000000,63493079.000000
94322938.000000,63544562.000000
94374421.000000,63621613.000000
94392500.000000,63712500.000000
94392500.000000,64187500.000000
94374421.000000,64278387.000000
94322938.000000,64355438.000000
94245887.000000,64406921.000000
94155000.000000,64425000.000000
93655000.000000,64425000.000000
93564113.000000,64406921.000000
93487062.000000,64355438.000000
93435579.000000,64278387.000000
93417500.000000,64187500.000000
Z" /> 
</g>
<g >
</g>
<g >
</g>
<g >
</g>
</g> 
</svg>
