<?xml version="1.0" standalone="no"?>
 <!DOCTYPE svg PUBLIC "-//W3C//DTD SVG 1.1//EN" 
 "http://www.w3.org/Graphics/SVG/1.1/DTD/svg11.dtd"> 
<svg
  xmlns:svg="http://www.w3.org/2000/svg"
  xmlns="http://www.w3.org/2000/svg"
  xmlns:xlink="http://www.w3.org/1999/xlink"
  version="1.1"
  width="29.700220cm" height="21.000720cm" viewBox="0 0 297002200 210007200">
<title>SVG Picture created as Rectangle Control Module V1.0.3-F_Paste.svg date 2022/08/30 08:28:12 </title>
  <desc>Picture generated by PCBNEW </desc>
<g style="fill:#000000; fill-opacity:1.000000;stroke:#000000; stroke-opacity:1.000000;
stroke-linecap:round; stroke-linejoin:round;"
 transform="translate(0 0) scale(1 1)">
</g>
<g style="fill:#000000; fill-opacity:0.0; 
stroke:#000000; stroke-width:0.000000; stroke-opacity:1; 
stroke-linecap:round; stroke-linejoin:round;">
</g>
<g style="fill:#000000; fill-opacity:1.0; 
stroke:#000000; stroke-width:21200.000000; stroke-opacity:1; 
stroke-linecap:round; stroke-linejoin:round;">
<rect x="167948810.000000" y="64975000.000000" width="43769047.000000" height="51475000.000000" rx="0.000000" />
</g>
<g style="fill:#FFFFFF; fill-opacity:1.0; 
stroke:#FFFFFF; stroke-width:21200.000000; stroke-opacity:1; 
stroke-linecap:round; stroke-linejoin:round;">
<g >
</g>
<g style="fill:#FFFFFF; fill-opacity:1.0; 
stroke:#FFFFFF; stroke-width:1.000000; stroke-opacity:1; 
stroke-linecap:round; stroke-linejoin:round;">
<path style="fill:#FFFFFF; fill-opacity:1.0; 
stroke:#FFFFFF; stroke-width:1.000000; stroke-opacity:1; 
stroke-linecap:round; stroke-linejoin:round;fill-rule:evenodd;"
d="M 181237500.000000,77600000.000000
181328387.000000,77618079.000000
181405438.000000,77669562.000000
181456921.000000,77746613.000000
181475000.000000,77837500.000000
181475000.000000,78337500.000000
181456921.000000,78428387.000000
181405438.000000,78505438.000000
181328387.000000,78556921.000000
181237500.000000,78575000.000000
180762500.000000,78575000.000000
180671613.000000,78556921.000000
180594562.000000,78505438.000000
180543079.000000,78428387.000000
180525000.000000,78337500.000000
180525000.000000,77837500.000000
180543079.000000,77746613.000000
180594562.000000,77669562.000000
180671613.000000,77618079.000000
180762500.000000,77600000.000000
Z" /> 
<path style="fill:#FFFFFF; fill-opacity:1.0; 
stroke:#FFFFFF; stroke-width:1.000000; stroke-opacity:1; 
stroke-linecap:round; stroke-linejoin:round;fill-rule:evenodd;"
d="M 181237500.000000,79425000.000000
181328387.000000,79443079.000000
181405438.000000,79494562.000000
181456921.000000,79571613.000000
181475000.000000,79662500.000000
181475000.000000,80162500.000000
181456921.000000,80253387.000000
181405438.000000,80330438.000000
181328387.000000,80381921.000000
181237500.000000,80400000.000000
180762500.000000,80400000.000000
180671613.000000,80381921.000000
180594562.000000,80330438.000000
180543079.000000,80253387.000000
180525000.000000,80162500.000000
180525000.000000,79662500.000000
180543079.000000,79571613.000000
180594562.000000,79494562.000000
180671613.000000,79443079.000000
180762500.000000,79425000.000000
Z" /> 
</g>
<g >
</g>
<g style="fill:#FFFFFF; fill-opacity:1.0; 
stroke:#FFFFFF; stroke-width:1.000000; stroke-opacity:1; 
stroke-linecap:round; stroke-linejoin:round;">
<path style="fill:#FFFFFF; fill-opacity:1.0; 
stroke:#FFFFFF; stroke-width:1.000000; stroke-opacity:1; 
stroke-linecap:round; stroke-linejoin:round;fill-rule:evenodd;"
d="M 195100000.000000,78262500.000000
195118079.000000,78171613.000000
195169562.000000,78094562.000000
195246613.000000,78043079.000000
195337500.000000,78025000.000000
195837500.000000,78025000.000000
195928387.000000,78043079.000000
196005438.000000,78094562.000000
196056921.000000,78171613.000000
196075000.000000,78262500.000000
196075000.000000,78737500.000000
196056921.000000,78828387.000000
196005438.000000,78905438.000000
195928387.000000,78956921.000000
195837500.000000,78975000.000000
195337500.000000,78975000.000000
195246613.000000,78956921.000000
195169562.000000,78905438.000000
195118079.000000,78828387.000000
195100000.000000,78737500.000000
Z" /> 
<path style="fill:#FFFFFF; fill-opacity:1.0; 
stroke:#FFFFFF; stroke-width:1.000000; stroke-opacity:1; 
stroke-linecap:round; stroke-linejoin:round;fill-rule:evenodd;"
d="M 196925000.000000,78262500.000000
196943079.000000,78171613.000000
196994562.000000,78094562.000000
197071613.000000,78043079.000000
197162500.000000,78025000.000000
197662500.000000,78025000.000000
197753387.000000,78043079.000000
197830438.000000,78094562.000000
197881921.000000,78171613.000000
197900000.000000,78262500.000000
197900000.000000,78737500.000000
197881921.000000,78828387.000000
197830438.000000,78905438.000000
197753387.000000,78956921.000000
197662500.000000,78975000.000000
197162500.000000,78975000.000000
197071613.000000,78956921.000000
196994562.000000,78905438.000000
196943079.000000,78828387.000000
196925000.000000,78737500.000000
Z" /> 
</g>
<g >
</g>
<g style="fill:#FFFFFF; fill-opacity:1.0; 
stroke:#FFFFFF; stroke-width:1.000000; stroke-opacity:1; 
stroke-linecap:round; stroke-linejoin:round;">
<path style="fill:#FFFFFF; fill-opacity:1.0; 
stroke:#FFFFFF; stroke-width:1.000000; stroke-opacity:1; 
stroke-linecap:round; stroke-linejoin:round;fill-rule:evenodd;"
d="M 190025000.000000,99737500.000000
190006921.000000,99828387.000000
189955438.000000,99905438.000000
189878387.000000,99956921.000000
189787500.000000,99975000.000000
189212500.000000,99975000.000000
189121613.000000,99956921.000000
189044562.000000,99905438.000000
188993079.000000,99828387.000000
188975000.000000,99737500.000000
188975000.000000,99262500.000000
188993079.000000,99171613.000000
189044562.000000,99094562.000000
189121613.000000,99043079.000000
189212500.000000,99025000.000000
189787500.000000,99025000.000000
189878387.000000,99043079.000000
189955438.000000,99094562.000000
190006921.000000,99171613.000000
190025000.000000,99262500.000000
Z" /> 
<path style="fill:#FFFFFF; fill-opacity:1.0; 
stroke:#FFFFFF; stroke-width:1.000000; stroke-opacity:1; 
stroke-linecap:round; stroke-linejoin:round;fill-rule:evenodd;"
d="M 188275000.000000,99737500.000000
188256921.000000,99828387.000000
188205438.000000,99905438.000000
188128387.000000,99956921.000000
188037500.000000,99975000.000000
187462500.000000,99975000.000000
187371613.000000,99956921.000000
187294562.000000,99905438.000000
187243079.000000,99828387.000000
187225000.000000,99737500.000000
187225000.000000,99262500.000000
187243079.000000,99171613.000000
187294562.000000,99094562.000000
187371613.000000,99043079.000000
187462500.000000,99025000.000000
188037500.000000,99025000.000000
188128387.000000,99043079.000000
188205438.000000,99094562.000000
188256921.000000,99171613.000000
188275000.000000,99262500.000000
Z" /> 
</g>
<g >
</g>
<g style="fill:#FFFFFF; fill-opacity:1.0; 
stroke:#FFFFFF; stroke-width:1.000000; stroke-opacity:1; 
stroke-linecap:round; stroke-linejoin:round;">
<path style="fill:#FFFFFF; fill-opacity:1.0; 
stroke:#FFFFFF; stroke-width:1.000000; stroke-opacity:1; 
stroke-linecap:round; stroke-linejoin:round;fill-rule:evenodd;"
d="M 189900000.000000,93737500.000000
189881921.000000,93828387.000000
189830438.000000,93905438.000000
189753387.000000,93956921.000000
189662500.000000,93975000.000000
189087500.000000,93975000.000000
188996613.000000,93956921.000000
188919562.000000,93905438.000000
188868079.000000,93828387.000000
188850000.000000,93737500.000000
188850000.000000,93262500.000000
188868079.000000,93171613.000000
188919562.000000,93094562.000000
188996613.000000,93043079.000000
189087500.000000,93025000.000000
189662500.000000,93025000.000000
189753387.000000,93043079.000000
189830438.000000,93094562.000000
189881921.000000,93171613.000000
189900000.000000,93262500.000000
Z" /> 
<path style="fill:#FFFFFF; fill-opacity:1.0; 
stroke:#FFFFFF; stroke-width:1.000000; stroke-opacity:1; 
stroke-linecap:round; stroke-linejoin:round;fill-rule:evenodd;"
d="M 188150000.000000,93737500.000000
188131921.000000,93828387.000000
188080438.000000,93905438.000000
188003387.000000,93956921.000000
187912500.000000,93975000.000000
187337500.000000,93975000.000000
187246613.000000,93956921.000000
187169562.000000,93905438.000000
187118079.000000,93828387.000000
187100000.000000,93737500.000000
187100000.000000,93262500.000000
187118079.000000,93171613.000000
187169562.000000,93094562.000000
187246613.000000,93043079.000000
187337500.000000,93025000.000000
187912500.000000,93025000.000000
188003387.000000,93043079.000000
188080438.000000,93094562.000000
188131921.000000,93171613.000000
188150000.000000,93262500.000000
Z" /> 
</g>
<g >
</g>
<g >
</g>
<g style="fill:#FFFFFF; fill-opacity:1.0; 
stroke:#FFFFFF; stroke-width:1.000000; stroke-opacity:1; 
stroke-linecap:round; stroke-linejoin:round;">
<path style="fill:#FFFFFF; fill-opacity:1.0; 
stroke:#FFFFFF; stroke-width:1.000000; stroke-opacity:1; 
stroke-linecap:round; stroke-linejoin:round;fill-rule:evenodd;"
d="M 185900000.000000,99737500.000000
185881921.000000,99828387.000000
185830438.000000,99905438.000000
185753387.000000,99956921.000000
185662500.000000,99975000.000000
185162500.000000,99975000.000000
185071613.000000,99956921.000000
184994562.000000,99905438.000000
184943079.000000,99828387.000000
184925000.000000,99737500.000000
184925000.000000,99262500.000000
184943079.000000,99171613.000000
184994562.000000,99094562.000000
185071613.000000,99043079.000000
185162500.000000,99025000.000000
185662500.000000,99025000.000000
185753387.000000,99043079.000000
185830438.000000,99094562.000000
185881921.000000,99171613.000000
185900000.000000,99262500.000000
Z" /> 
<path style="fill:#FFFFFF; fill-opacity:1.0; 
stroke:#FFFFFF; stroke-width:1.000000; stroke-opacity:1; 
stroke-linecap:round; stroke-linejoin:round;fill-rule:evenodd;"
d="M 184075000.000000,99737500.000000
184056921.000000,99828387.000000
184005438.000000,99905438.000000
183928387.000000,99956921.000000
183837500.000000,99975000.000000
183337500.000000,99975000.000000
183246613.000000,99956921.000000
183169562.000000,99905438.000000
183118079.000000,99828387.000000
183100000.000000,99737500.000000
183100000.000000,99262500.000000
183118079.000000,99171613.000000
183169562.000000,99094562.000000
183246613.000000,99043079.000000
183337500.000000,99025000.000000
183837500.000000,99025000.000000
183928387.000000,99043079.000000
184005438.000000,99094562.000000
184056921.000000,99171613.000000
184075000.000000,99262500.000000
Z" /> 
</g>
<g >
</g>
<g style="fill:#FFFFFF; fill-opacity:1.0; 
stroke:#FFFFFF; stroke-width:1.000000; stroke-opacity:1; 
stroke-linecap:round; stroke-linejoin:round;">
<path style="fill:#FFFFFF; fill-opacity:1.0; 
stroke:#FFFFFF; stroke-width:1.000000; stroke-opacity:1; 
stroke-linecap:round; stroke-linejoin:round;fill-rule:evenodd;"
d="M 184025000.000000,72000000.000000
184025000.000000,71550000.000000
185775000.000000,71550000.000000
185775000.000000,72000000.000000
Z" /> 
<path style="fill:#FFFFFF; fill-opacity:1.0; 
stroke:#FFFFFF; stroke-width:1.000000; stroke-opacity:1; 
stroke-linecap:round; stroke-linejoin:round;fill-rule:evenodd;"
d="M 184025000.000000,72650000.000000
184025000.000000,72200000.000000
185775000.000000,72200000.000000
185775000.000000,72650000.000000
Z" /> 
<path style="fill:#FFFFFF; fill-opacity:1.0; 
stroke:#FFFFFF; stroke-width:1.000000; stroke-opacity:1; 
stroke-linecap:round; stroke-linejoin:round;fill-rule:evenodd;"
d="M 184025000.000000,73300000.000000
184025000.000000,72850000.000000
185775000.000000,72850000.000000
185775000.000000,73300000.000000
Z" /> 
<path style="fill:#FFFFFF; fill-opacity:1.0; 
stroke:#FFFFFF; stroke-width:1.000000; stroke-opacity:1; 
stroke-linecap:round; stroke-linejoin:round;fill-rule:evenodd;"
d="M 184025000.000000,73950000.000000
184025000.000000,73500000.000000
185775000.000000,73500000.000000
185775000.000000,73950000.000000
Z" /> 
<path style="fill:#FFFFFF; fill-opacity:1.0; 
stroke:#FFFFFF; stroke-width:1.000000; stroke-opacity:1; 
stroke-linecap:round; stroke-linejoin:round;fill-rule:evenodd;"
d="M 184025000.000000,74600000.000000
184025000.000000,74150000.000000
185775000.000000,74150000.000000
185775000.000000,74600000.000000
Z" /> 
<path style="fill:#FFFFFF; fill-opacity:1.0; 
stroke:#FFFFFF; stroke-width:1.000000; stroke-opacity:1; 
stroke-linecap:round; stroke-linejoin:round;fill-rule:evenodd;"
d="M 184025000.000000,75250000.000000
184025000.000000,74800000.000000
185775000.000000,74800000.000000
185775000.000000,75250000.000000
Z" /> 
<path style="fill:#FFFFFF; fill-opacity:1.0; 
stroke:#FFFFFF; stroke-width:1.000000; stroke-opacity:1; 
stroke-linecap:round; stroke-linejoin:round;fill-rule:evenodd;"
d="M 184025000.000000,75900000.000000
184025000.000000,75450000.000000
185775000.000000,75450000.000000
185775000.000000,75900000.000000
Z" /> 
<path style="fill:#FFFFFF; fill-opacity:1.0; 
stroke:#FFFFFF; stroke-width:1.000000; stroke-opacity:1; 
stroke-linecap:round; stroke-linejoin:round;fill-rule:evenodd;"
d="M 184025000.000000,76550000.000000
184025000.000000,76100000.000000
185775000.000000,76100000.000000
185775000.000000,76550000.000000
Z" /> 
<path style="fill:#FFFFFF; fill-opacity:1.0; 
stroke:#FFFFFF; stroke-width:1.000000; stroke-opacity:1; 
stroke-linecap:round; stroke-linejoin:round;fill-rule:evenodd;"
d="M 184025000.000000,77200000.000000
184025000.000000,76750000.000000
185775000.000000,76750000.000000
185775000.000000,77200000.000000
Z" /> 
<path style="fill:#FFFFFF; fill-opacity:1.0; 
stroke:#FFFFFF; stroke-width:1.000000; stroke-opacity:1; 
stroke-linecap:round; stroke-linejoin:round;fill-rule:evenodd;"
d="M 184025000.000000,77850000.000000
184025000.000000,77400000.000000
185775000.000000,77400000.000000
185775000.000000,77850000.000000
Z" /> 
<path style="fill:#FFFFFF; fill-opacity:1.0; 
stroke:#FFFFFF; stroke-width:1.000000; stroke-opacity:1; 
stroke-linecap:round; stroke-linejoin:round;fill-rule:evenodd;"
d="M 184025000.000000,78500000.000000
184025000.000000,78050000.000000
185775000.000000,78050000.000000
185775000.000000,78500000.000000
Z" /> 
<path style="fill:#FFFFFF; fill-opacity:1.0; 
stroke:#FFFFFF; stroke-width:1.000000; stroke-opacity:1; 
stroke-linecap:round; stroke-linejoin:round;fill-rule:evenodd;"
d="M 184025000.000000,79150000.000000
184025000.000000,78700000.000000
185775000.000000,78700000.000000
185775000.000000,79150000.000000
Z" /> 
<path style="fill:#FFFFFF; fill-opacity:1.0; 
stroke:#FFFFFF; stroke-width:1.000000; stroke-opacity:1; 
stroke-linecap:round; stroke-linejoin:round;fill-rule:evenodd;"
d="M 184025000.000000,79800000.000000
184025000.000000,79350000.000000
185775000.000000,79350000.000000
185775000.000000,79800000.000000
Z" /> 
<path style="fill:#FFFFFF; fill-opacity:1.0; 
stroke:#FFFFFF; stroke-width:1.000000; stroke-opacity:1; 
stroke-linecap:round; stroke-linejoin:round;fill-rule:evenodd;"
d="M 184025000.000000,80450000.000000
184025000.000000,80000000.000000
185775000.000000,80000000.000000
185775000.000000,80450000.000000
Z" /> 
<path style="fill:#FFFFFF; fill-opacity:1.0; 
stroke:#FFFFFF; stroke-width:1.000000; stroke-opacity:1; 
stroke-linecap:round; stroke-linejoin:round;fill-rule:evenodd;"
d="M 191225000.000000,80450000.000000
191225000.000000,80000000.000000
192975000.000000,80000000.000000
192975000.000000,80450000.000000
Z" /> 
<path style="fill:#FFFFFF; fill-opacity:1.0; 
stroke:#FFFFFF; stroke-width:1.000000; stroke-opacity:1; 
stroke-linecap:round; stroke-linejoin:round;fill-rule:evenodd;"
d="M 191225000.000000,79800000.000000
191225000.000000,79350000.000000
192975000.000000,79350000.000000
192975000.000000,79800000.000000
Z" /> 
<path style="fill:#FFFFFF; fill-opacity:1.0; 
stroke:#FFFFFF; stroke-width:1.000000; stroke-opacity:1; 
stroke-linecap:round; stroke-linejoin:round;fill-rule:evenodd;"
d="M 191225000.000000,79150000.000000
191225000.000000,78700000.000000
192975000.000000,78700000.000000
192975000.000000,79150000.000000
Z" /> 
<path style="fill:#FFFFFF; fill-opacity:1.0; 
stroke:#FFFFFF; stroke-width:1.000000; stroke-opacity:1; 
stroke-linecap:round; stroke-linejoin:round;fill-rule:evenodd;"
d="M 191225000.000000,78500000.000000
191225000.000000,78050000.000000
192975000.000000,78050000.000000
192975000.000000,78500000.000000
Z" /> 
<path style="fill:#FFFFFF; fill-opacity:1.0; 
stroke:#FFFFFF; stroke-width:1.000000; stroke-opacity:1; 
stroke-linecap:round; stroke-linejoin:round;fill-rule:evenodd;"
d="M 191225000.000000,77850000.000000
191225000.000000,77400000.000000
192975000.000000,77400000.000000
192975000.000000,77850000.000000
Z" /> 
<path style="fill:#FFFFFF; fill-opacity:1.0; 
stroke:#FFFFFF; stroke-width:1.000000; stroke-opacity:1; 
stroke-linecap:round; stroke-linejoin:round;fill-rule:evenodd;"
d="M 191225000.000000,77200000.000000
191225000.000000,76750000.000000
192975000.000000,76750000.000000
192975000.000000,77200000.000000
Z" /> 
<path style="fill:#FFFFFF; fill-opacity:1.0; 
stroke:#FFFFFF; stroke-width:1.000000; stroke-opacity:1; 
stroke-linecap:round; stroke-linejoin:round;fill-rule:evenodd;"
d="M 191225000.000000,76550000.000000
191225000.000000,76100000.000000
192975000.000000,76100000.000000
192975000.000000,76550000.000000
Z" /> 
<path style="fill:#FFFFFF; fill-opacity:1.0; 
stroke:#FFFFFF; stroke-width:1.000000; stroke-opacity:1; 
stroke-linecap:round; stroke-linejoin:round;fill-rule:evenodd;"
d="M 191225000.000000,75900000.000000
191225000.000000,75450000.000000
192975000.000000,75450000.000000
192975000.000000,75900000.000000
Z" /> 
<path style="fill:#FFFFFF; fill-opacity:1.0; 
stroke:#FFFFFF; stroke-width:1.000000; stroke-opacity:1; 
stroke-linecap:round; stroke-linejoin:round;fill-rule:evenodd;"
d="M 191225000.000000,75250000.000000
191225000.000000,74800000.000000
192975000.000000,74800000.000000
192975000.000000,75250000.000000
Z" /> 
<path style="fill:#FFFFFF; fill-opacity:1.0; 
stroke:#FFFFFF; stroke-width:1.000000; stroke-opacity:1; 
stroke-linecap:round; stroke-linejoin:round;fill-rule:evenodd;"
d="M 191225000.000000,74600000.000000
191225000.000000,74150000.000000
192975000.000000,74150000.000000
192975000.000000,74600000.000000
Z" /> 
<path style="fill:#FFFFFF; fill-opacity:1.0; 
stroke:#FFFFFF; stroke-width:1.000000; stroke-opacity:1; 
stroke-linecap:round; stroke-linejoin:round;fill-rule:evenodd;"
d="M 191225000.000000,73950000.000000
191225000.000000,73500000.000000
192975000.000000,73500000.000000
192975000.000000,73950000.000000
Z" /> 
<path style="fill:#FFFFFF; fill-opacity:1.0; 
stroke:#FFFFFF; stroke-width:1.000000; stroke-opacity:1; 
stroke-linecap:round; stroke-linejoin:round;fill-rule:evenodd;"
d="M 191225000.000000,73300000.000000
191225000.000000,72850000.000000
192975000.000000,72850000.000000
192975000.000000,73300000.000000
Z" /> 
<path style="fill:#FFFFFF; fill-opacity:1.0; 
stroke:#FFFFFF; stroke-width:1.000000; stroke-opacity:1; 
stroke-linecap:round; stroke-linejoin:round;fill-rule:evenodd;"
d="M 191225000.000000,72650000.000000
191225000.000000,72200000.000000
192975000.000000,72200000.000000
192975000.000000,72650000.000000
Z" /> 
<path style="fill:#FFFFFF; fill-opacity:1.0; 
stroke:#FFFFFF; stroke-width:1.000000; stroke-opacity:1; 
stroke-linecap:round; stroke-linejoin:round;fill-rule:evenodd;"
d="M 191225000.000000,72000000.000000
191225000.000000,71550000.000000
192975000.000000,71550000.000000
192975000.000000,72000000.000000
Z" /> 
</g>
<g >
</g>
<g >
</g>
<g style="fill:#FFFFFF; fill-opacity:1.0; 
stroke:#FFFFFF; stroke-width:1.000000; stroke-opacity:1; 
stroke-linecap:round; stroke-linejoin:round;">
<path style="fill:#FFFFFF; fill-opacity:1.0; 
stroke:#FFFFFF; stroke-width:1.000000; stroke-opacity:1; 
stroke-linecap:round; stroke-linejoin:round;fill-rule:evenodd;"
d="M 198880000.000000,87655000.000000
198784329.000000,87635970.000000
198703223.000000,87581777.000000
198649030.000000,87500671.000000
198630000.000000,87405000.000000
198630000.000000,86855000.000000
198649030.000000,86759329.000000
198703223.000000,86678223.000000
198784329.000000,86624030.000000
198880000.000000,86605000.000000
199720000.000000,86605000.000000
199815671.000000,86624030.000000
199896777.000000,86678223.000000
199950970.000000,86759329.000000
199970000.000000,86855000.000000
199970000.000000,87405000.000000
199950970.000000,87500671.000000
199896777.000000,87581777.000000
199815671.000000,87635970.000000
199720000.000000,87655000.000000
Z" /> 
<path style="fill:#FFFFFF; fill-opacity:1.0; 
stroke:#FFFFFF; stroke-width:1.000000; stroke-opacity:1; 
stroke-linecap:round; stroke-linejoin:round;fill-rule:evenodd;"
d="M 198880000.000000,86395000.000000
198784329.000000,86375970.000000
198703223.000000,86321777.000000
198649030.000000,86240671.000000
198630000.000000,86145000.000000
198630000.000000,85595000.000000
198649030.000000,85499329.000000
198703223.000000,85418223.000000
198784329.000000,85364030.000000
198880000.000000,85345000.000000
199720000.000000,85345000.000000
199815671.000000,85364030.000000
199896777.000000,85418223.000000
199950970.000000,85499329.000000
199970000.000000,85595000.000000
199970000.000000,86145000.000000
199950970.000000,86240671.000000
199896777.000000,86321777.000000
199815671.000000,86375970.000000
199720000.000000,86395000.000000
Z" /> 
<path style="fill:#FFFFFF; fill-opacity:1.0; 
stroke:#FFFFFF; stroke-width:1.000000; stroke-opacity:1; 
stroke-linecap:round; stroke-linejoin:round;fill-rule:evenodd;"
d="M 197280000.000000,86395000.000000
197184329.000000,86375970.000000
197103223.000000,86321777.000000
197049030.000000,86240671.000000
197030000.000000,86145000.000000
197030000.000000,85595000.000000
197049030.000000,85499329.000000
197103223.000000,85418223.000000
197184329.000000,85364030.000000
197280000.000000,85345000.000000
198120000.000000,85345000.000000
198215671.000000,85364030.000000
198296777.000000,85418223.000000
198350970.000000,85499329.000000
198370000.000000,85595000.000000
198370000.000000,86145000.000000
198350970.000000,86240671.000000
198296777.000000,86321777.000000
198215671.000000,86375970.000000
198120000.000000,86395000.000000
Z" /> 
<path style="fill:#FFFFFF; fill-opacity:1.0; 
stroke:#FFFFFF; stroke-width:1.000000; stroke-opacity:1; 
stroke-linecap:round; stroke-linejoin:round;fill-rule:evenodd;"
d="M 197280000.000000,87655000.000000
197184329.000000,87635970.000000
197103223.000000,87581777.000000
197049030.000000,87500671.000000
197030000.000000,87405000.000000
197030000.000000,86855000.000000
197049030.000000,86759329.000000
197103223.000000,86678223.000000
197184329.000000,86624030.000000
197280000.000000,86605000.000000
198120000.000000,86605000.000000
198215671.000000,86624030.000000
198296777.000000,86678223.000000
198350970.000000,86759329.000000
198370000.000000,86855000.000000
198370000.000000,87405000.000000
198350970.000000,87500671.000000
198296777.000000,87581777.000000
198215671.000000,87635970.000000
198120000.000000,87655000.000000
Z" /> 
<path style="fill:#FFFFFF; fill-opacity:1.0; 
stroke:#FFFFFF; stroke-width:1.000000; stroke-opacity:1; 
stroke-linecap:round; stroke-linejoin:round;fill-rule:evenodd;"
d="M 196445000.000000,89950000.000000
196387597.000000,89938582.000000
196338934.000000,89906066.000000
196306418.000000,89857403.000000
196295000.000000,89800000.000000
196295000.000000,88475000.000000
196306418.000000,88417597.000000
196338934.000000,88368934.000000
196387597.000000,88336418.000000
196445000.000000,88325000.000000
196745000.000000,88325000.000000
196802403.000000,88336418.000000
196851066.000000,88368934.000000
196883582.000000,88417597.000000
196895000.000000,88475000.000000
196895000.000000,89800000.000000
196883582.000000,89857403.000000
196851066.000000,89906066.000000
196802403.000000,89938582.000000
196745000.000000,89950000.000000
Z" /> 
<path style="fill:#FFFFFF; fill-opacity:1.0; 
stroke:#FFFFFF; stroke-width:1.000000; stroke-opacity:1; 
stroke-linecap:round; stroke-linejoin:round;fill-rule:evenodd;"
d="M 197715000.000000,89950000.000000
197657597.000000,89938582.000000
197608934.000000,89906066.000000
197576418.000000,89857403.000000
197565000.000000,89800000.000000
197565000.000000,88475000.000000
197576418.000000,88417597.000000
197608934.000000,88368934.000000
197657597.000000,88336418.000000
197715000.000000,88325000.000000
198015000.000000,88325000.000000
198072403.000000,88336418.000000
198121066.000000,88368934.000000
198153582.000000,88417597.000000
198165000.000000,88475000.000000
198165000.000000,89800000.000000
198153582.000000,89857403.000000
198121066.000000,89906066.000000
198072403.000000,89938582.000000
198015000.000000,89950000.000000
Z" /> 
<path style="fill:#FFFFFF; fill-opacity:1.0; 
stroke:#FFFFFF; stroke-width:1.000000; stroke-opacity:1; 
stroke-linecap:round; stroke-linejoin:round;fill-rule:evenodd;"
d="M 198985000.000000,89950000.000000
198927597.000000,89938582.000000
198878934.000000,89906066.000000
198846418.000000,89857403.000000
198835000.000000,89800000.000000
198835000.000000,88475000.000000
198846418.000000,88417597.000000
198878934.000000,88368934.000000
198927597.000000,88336418.000000
198985000.000000,88325000.000000
199285000.000000,88325000.000000
199342403.000000,88336418.000000
199391066.000000,88368934.000000
199423582.000000,88417597.000000
199435000.000000,88475000.000000
199435000.000000,89800000.000000
199423582.000000,89857403.000000
199391066.000000,89906066.000000
199342403.000000,89938582.000000
199285000.000000,89950000.000000
Z" /> 
<path style="fill:#FFFFFF; fill-opacity:1.0; 
stroke:#FFFFFF; stroke-width:1.000000; stroke-opacity:1; 
stroke-linecap:round; stroke-linejoin:round;fill-rule:evenodd;"
d="M 200255000.000000,89950000.000000
200197597.000000,89938582.000000
200148934.000000,89906066.000000
200116418.000000,89857403.000000
200105000.000000,89800000.000000
200105000.000000,88475000.000000
200116418.000000,88417597.000000
200148934.000000,88368934.000000
200197597.000000,88336418.000000
200255000.000000,88325000.000000
200555000.000000,88325000.000000
200612403.000000,88336418.000000
200661066.000000,88368934.000000
200693582.000000,88417597.000000
200705000.000000,88475000.000000
200705000.000000,89800000.000000
200693582.000000,89857403.000000
200661066.000000,89906066.000000
200612403.000000,89938582.000000
200555000.000000,89950000.000000
Z" /> 
<path style="fill:#FFFFFF; fill-opacity:1.0; 
stroke:#FFFFFF; stroke-width:1.000000; stroke-opacity:1; 
stroke-linecap:round; stroke-linejoin:round;fill-rule:evenodd;"
d="M 200255000.000000,84675000.000000
200197597.000000,84663582.000000
200148934.000000,84631066.000000
200116418.000000,84582403.000000
200105000.000000,84525000.000000
200105000.000000,83200000.000000
200116418.000000,83142597.000000
200148934.000000,83093934.000000
200197597.000000,83061418.000000
200255000.000000,83050000.000000
200555000.000000,83050000.000000
200612403.000000,83061418.000000
200661066.000000,83093934.000000
200693582.000000,83142597.000000
200705000.000000,83200000.000000
200705000.000000,84525000.000000
200693582.000000,84582403.000000
200661066.000000,84631066.000000
200612403.000000,84663582.000000
200555000.000000,84675000.000000
Z" /> 
<path style="fill:#FFFFFF; fill-opacity:1.0; 
stroke:#FFFFFF; stroke-width:1.000000; stroke-opacity:1; 
stroke-linecap:round; stroke-linejoin:round;fill-rule:evenodd;"
d="M 198985000.000000,84675000.000000
198927597.000000,84663582.000000
198878934.000000,84631066.000000
198846418.000000,84582403.000000
198835000.000000,84525000.000000
198835000.000000,83200000.000000
198846418.000000,83142597.000000
198878934.000000,83093934.000000
198927597.000000,83061418.000000
198985000.000000,83050000.000000
199285000.000000,83050000.000000
199342403.000000,83061418.000000
199391066.000000,83093934.000000
199423582.000000,83142597.000000
199435000.000000,83200000.000000
199435000.000000,84525000.000000
199423582.000000,84582403.000000
199391066.000000,84631066.000000
199342403.000000,84663582.000000
199285000.000000,84675000.000000
Z" /> 
<path style="fill:#FFFFFF; fill-opacity:1.0; 
stroke:#FFFFFF; stroke-width:1.000000; stroke-opacity:1; 
stroke-linecap:round; stroke-linejoin:round;fill-rule:evenodd;"
d="M 197715000.000000,84675000.000000
197657597.000000,84663582.000000
197608934.000000,84631066.000000
197576418.000000,84582403.000000
197565000.000000,84525000.000000
197565000.000000,83200000.000000
197576418.000000,83142597.000000
197608934.000000,83093934.000000
197657597.000000,83061418.000000
197715000.000000,83050000.000000
198015000.000000,83050000.000000
198072403.000000,83061418.000000
198121066.000000,83093934.000000
198153582.000000,83142597.000000
198165000.000000,83200000.000000
198165000.000000,84525000.000000
198153582.000000,84582403.000000
198121066.000000,84631066.000000
198072403.000000,84663582.000000
198015000.000000,84675000.000000
Z" /> 
<path style="fill:#FFFFFF; fill-opacity:1.0; 
stroke:#FFFFFF; stroke-width:1.000000; stroke-opacity:1; 
stroke-linecap:round; stroke-linejoin:round;fill-rule:evenodd;"
d="M 196445000.000000,84675000.000000
196387597.000000,84663582.000000
196338934.000000,84631066.000000
196306418.000000,84582403.000000
196295000.000000,84525000.000000
196295000.000000,83200000.000000
196306418.000000,83142597.000000
196338934.000000,83093934.000000
196387597.000000,83061418.000000
196445000.000000,83050000.000000
196745000.000000,83050000.000000
196802403.000000,83061418.000000
196851066.000000,83093934.000000
196883582.000000,83142597.000000
196895000.000000,83200000.000000
196895000.000000,84525000.000000
196883582.000000,84582403.000000
196851066.000000,84631066.000000
196802403.000000,84663582.000000
196745000.000000,84675000.000000
Z" /> 
</g>
<g >
</g>
<g style="fill:#FFFFFF; fill-opacity:1.0; 
stroke:#FFFFFF; stroke-width:1.000000; stroke-opacity:1; 
stroke-linecap:round; stroke-linejoin:round;">
<path style="fill:#FFFFFF; fill-opacity:1.0; 
stroke:#FFFFFF; stroke-width:1.000000; stroke-opacity:1; 
stroke-linecap:round; stroke-linejoin:round;fill-rule:evenodd;"
d="M 187650000.000000,104520000.000000
187650000.000000,103320000.000000
188350000.000000,103320000.000000
188350000.000000,104520000.000000
Z" /> 
<path style="fill:#FFFFFF; fill-opacity:1.0; 
stroke:#FFFFFF; stroke-width:1.000000; stroke-opacity:1; 
stroke-linecap:round; stroke-linejoin:round;fill-rule:evenodd;"
d="M 189640000.000000,104520000.000000
189640000.000000,103320000.000000
190400000.000000,103320000.000000
190400000.000000,104520000.000000
Z" /> 
<path style="fill:#FFFFFF; fill-opacity:1.0; 
stroke:#FFFFFF; stroke-width:1.000000; stroke-opacity:1; 
stroke-linecap:round; stroke-linejoin:round;fill-rule:evenodd;"
d="M 190850000.000000,104520000.000000
190850000.000000,103320000.000000
191650000.000000,103320000.000000
191650000.000000,104520000.000000
Z" /> 
<path style="fill:#FFFFFF; fill-opacity:1.0; 
stroke:#FFFFFF; stroke-width:1.000000; stroke-opacity:1; 
stroke-linecap:round; stroke-linejoin:round;fill-rule:evenodd;"
d="M 188650000.000000,104520000.000000
188650000.000000,103320000.000000
189350000.000000,103320000.000000
189350000.000000,104520000.000000
Z" /> 
<path style="fill:#FFFFFF; fill-opacity:1.0; 
stroke:#FFFFFF; stroke-width:1.000000; stroke-opacity:1; 
stroke-linecap:round; stroke-linejoin:round;fill-rule:evenodd;"
d="M 186600000.000000,104520000.000000
186600000.000000,103320000.000000
187360000.000000,103320000.000000
187360000.000000,104520000.000000
Z" /> 
<path style="fill:#FFFFFF; fill-opacity:1.0; 
stroke:#FFFFFF; stroke-width:1.000000; stroke-opacity:1; 
stroke-linecap:round; stroke-linejoin:round;fill-rule:evenodd;"
d="M 185350000.000000,104520000.000000
185350000.000000,103320000.000000
186150000.000000,103320000.000000
186150000.000000,104520000.000000
Z" /> 
</g>
<g >
</g>
<g style="fill:#FFFFFF; fill-opacity:1.0; 
stroke:#FFFFFF; stroke-width:1.000000; stroke-opacity:1; 
stroke-linecap:round; stroke-linejoin:round;">
<path style="fill:#FFFFFF; fill-opacity:1.0; 
stroke:#FFFFFF; stroke-width:1.000000; stroke-opacity:1; 
stroke-linecap:round; stroke-linejoin:round;fill-rule:evenodd;"
d="M 185900000.000000,96737500.000000
185881921.000000,96828387.000000
185830438.000000,96905438.000000
185753387.000000,96956921.000000
185662500.000000,96975000.000000
185162500.000000,96975000.000000
185071613.000000,96956921.000000
184994562.000000,96905438.000000
184943079.000000,96828387.000000
184925000.000000,96737500.000000
184925000.000000,96262500.000000
184943079.000000,96171613.000000
184994562.000000,96094562.000000
185071613.000000,96043079.000000
185162500.000000,96025000.000000
185662500.000000,96025000.000000
185753387.000000,96043079.000000
185830438.000000,96094562.000000
185881921.000000,96171613.000000
185900000.000000,96262500.000000
Z" /> 
<path style="fill:#FFFFFF; fill-opacity:1.0; 
stroke:#FFFFFF; stroke-width:1.000000; stroke-opacity:1; 
stroke-linecap:round; stroke-linejoin:round;fill-rule:evenodd;"
d="M 184075000.000000,96737500.000000
184056921.000000,96828387.000000
184005438.000000,96905438.000000
183928387.000000,96956921.000000
183837500.000000,96975000.000000
183337500.000000,96975000.000000
183246613.000000,96956921.000000
183169562.000000,96905438.000000
183118079.000000,96828387.000000
183100000.000000,96737500.000000
183100000.000000,96262500.000000
183118079.000000,96171613.000000
183169562.000000,96094562.000000
183246613.000000,96043079.000000
183337500.000000,96025000.000000
183837500.000000,96025000.000000
183928387.000000,96043079.000000
184005438.000000,96094562.000000
184056921.000000,96171613.000000
184075000.000000,96262500.000000
Z" /> 
</g>
<g >
</g>
<g style="fill:#FFFFFF; fill-opacity:1.0; 
stroke:#FFFFFF; stroke-width:1.000000; stroke-opacity:1; 
stroke-linecap:round; stroke-linejoin:round;">
<path style="fill:#FFFFFF; fill-opacity:1.0; 
stroke:#FFFFFF; stroke-width:1.000000; stroke-opacity:1; 
stroke-linecap:round; stroke-linejoin:round;fill-rule:evenodd;"
d="M 181762500.000000,84900000.000000
181671613.000000,84881921.000000
181594562.000000,84830438.000000
181543079.000000,84753387.000000
181525000.000000,84662500.000000
181525000.000000,84162500.000000
181543079.000000,84071613.000000
181594562.000000,83994562.000000
181671613.000000,83943079.000000
181762500.000000,83925000.000000
182237500.000000,83925000.000000
182328387.000000,83943079.000000
182405438.000000,83994562.000000
182456921.000000,84071613.000000
182475000.000000,84162500.000000
182475000.000000,84662500.000000
182456921.000000,84753387.000000
182405438.000000,84830438.000000
182328387.000000,84881921.000000
182237500.000000,84900000.000000
Z" /> 
<path style="fill:#FFFFFF; fill-opacity:1.0; 
stroke:#FFFFFF; stroke-width:1.000000; stroke-opacity:1; 
stroke-linecap:round; stroke-linejoin:round;fill-rule:evenodd;"
d="M 181762500.000000,83075000.000000
181671613.000000,83056921.000000
181594562.000000,83005438.000000
181543079.000000,82928387.000000
181525000.000000,82837500.000000
181525000.000000,82337500.000000
181543079.000000,82246613.000000
181594562.000000,82169562.000000
181671613.000000,82118079.000000
181762500.000000,82100000.000000
182237500.000000,82100000.000000
182328387.000000,82118079.000000
182405438.000000,82169562.000000
182456921.000000,82246613.000000
182475000.000000,82337500.000000
182475000.000000,82837500.000000
182456921.000000,82928387.000000
182405438.000000,83005438.000000
182328387.000000,83056921.000000
182237500.000000,83075000.000000
Z" /> 
</g>
<g >
</g>
<g style="fill:#FFFFFF; fill-opacity:1.0; 
stroke:#FFFFFF; stroke-width:1.000000; stroke-opacity:1; 
stroke-linecap:round; stroke-linejoin:round;">
<path style="fill:#FFFFFF; fill-opacity:1.0; 
stroke:#FFFFFF; stroke-width:1.000000; stroke-opacity:1; 
stroke-linecap:round; stroke-linejoin:round;fill-rule:evenodd;"
d="M 176600000.000000,96762500.000000
176618079.000000,96671613.000000
176669562.000000,96594562.000000
176746613.000000,96543079.000000
176837500.000000,96525000.000000
177437500.000000,96525000.000000
177528387.000000,96543079.000000
177605438.000000,96594562.000000
177656921.000000,96671613.000000
177675000.000000,96762500.000000
177675000.000000,97237500.000000
177656921.000000,97328387.000000
177605438.000000,97405438.000000
177528387.000000,97456921.000000
177437500.000000,97475000.000000
176837500.000000,97475000.000000
176746613.000000,97456921.000000
176669562.000000,97405438.000000
176618079.000000,97328387.000000
176600000.000000,97237500.000000
Z" /> 
<path style="fill:#FFFFFF; fill-opacity:1.0; 
stroke:#FFFFFF; stroke-width:1.000000; stroke-opacity:1; 
stroke-linecap:round; stroke-linejoin:round;fill-rule:evenodd;"
d="M 178325000.000000,96762500.000000
178343079.000000,96671613.000000
178394562.000000,96594562.000000
178471613.000000,96543079.000000
178562500.000000,96525000.000000
179162500.000000,96525000.000000
179253387.000000,96543079.000000
179330438.000000,96594562.000000
179381921.000000,96671613.000000
179400000.000000,96762500.000000
179400000.000000,97237500.000000
179381921.000000,97328387.000000
179330438.000000,97405438.000000
179253387.000000,97456921.000000
179162500.000000,97475000.000000
178562500.000000,97475000.000000
178471613.000000,97456921.000000
178394562.000000,97405438.000000
178343079.000000,97328387.000000
178325000.000000,97237500.000000
Z" /> 
</g>
<g >
</g>
<g style="fill:#FFFFFF; fill-opacity:1.0; 
stroke:#FFFFFF; stroke-width:1.000000; stroke-opacity:1; 
stroke-linecap:round; stroke-linejoin:round;">
<path style="fill:#FFFFFF; fill-opacity:1.0; 
stroke:#FFFFFF; stroke-width:1.000000; stroke-opacity:1; 
stroke-linecap:round; stroke-linejoin:round;fill-rule:evenodd;"
d="M 191700000.000000,84900000.000000
191700000.000000,83600000.000000
193250000.000000,83600000.000000
193250000.000000,84900000.000000
Z" /> 
<path style="fill:#FFFFFF; fill-opacity:1.0; 
stroke:#FFFFFF; stroke-width:1.000000; stroke-opacity:1; 
stroke-linecap:round; stroke-linejoin:round;fill-rule:evenodd;"
d="M 183750000.000000,84900000.000000
183750000.000000,83600000.000000
185300000.000000,83600000.000000
185300000.000000,84900000.000000
Z" /> 
<path style="fill:#FFFFFF; fill-opacity:1.0; 
stroke:#FFFFFF; stroke-width:1.000000; stroke-opacity:1; 
stroke-linecap:round; stroke-linejoin:round;fill-rule:evenodd;"
d="M 191700000.000000,89400000.000000
191700000.000000,88100000.000000
193250000.000000,88100000.000000
193250000.000000,89400000.000000
Z" /> 
<path style="fill:#FFFFFF; fill-opacity:1.0; 
stroke:#FFFFFF; stroke-width:1.000000; stroke-opacity:1; 
stroke-linecap:round; stroke-linejoin:round;fill-rule:evenodd;"
d="M 183750000.000000,89400000.000000
183750000.000000,88100000.000000
185300000.000000,88100000.000000
185300000.000000,89400000.000000
Z" /> 
</g>
<g >
</g>
<g style="fill:#FFFFFF; fill-opacity:1.0; 
stroke:#FFFFFF; stroke-width:1.000000; stroke-opacity:1; 
stroke-linecap:round; stroke-linejoin:round;">
<path style="fill:#FFFFFF; fill-opacity:1.0; 
stroke:#FFFFFF; stroke-width:1.000000; stroke-opacity:1; 
stroke-linecap:round; stroke-linejoin:round;fill-rule:evenodd;"
d="M 176600000.000000,101262500.000000
176618079.000000,101171613.000000
176669562.000000,101094562.000000
176746613.000000,101043079.000000
176837500.000000,101025000.000000
177437500.000000,101025000.000000
177528387.000000,101043079.000000
177605438.000000,101094562.000000
177656921.000000,101171613.000000
177675000.000000,101262500.000000
177675000.000000,101737500.000000
177656921.000000,101828387.000000
177605438.000000,101905438.000000
177528387.000000,101956921.000000
177437500.000000,101975000.000000
176837500.000000,101975000.000000
176746613.000000,101956921.000000
176669562.000000,101905438.000000
176618079.000000,101828387.000000
176600000.000000,101737500.000000
Z" /> 
<path style="fill:#FFFFFF; fill-opacity:1.0; 
stroke:#FFFFFF; stroke-width:1.000000; stroke-opacity:1; 
stroke-linecap:round; stroke-linejoin:round;fill-rule:evenodd;"
d="M 178325000.000000,101262500.000000
178343079.000000,101171613.000000
178394562.000000,101094562.000000
178471613.000000,101043079.000000
178562500.000000,101025000.000000
179162500.000000,101025000.000000
179253387.000000,101043079.000000
179330438.000000,101094562.000000
179381921.000000,101171613.000000
179400000.000000,101262500.000000
179400000.000000,101737500.000000
179381921.000000,101828387.000000
179330438.000000,101905438.000000
179253387.000000,101956921.000000
179162500.000000,101975000.000000
178562500.000000,101975000.000000
178471613.000000,101956921.000000
178394562.000000,101905438.000000
178343079.000000,101828387.000000
178325000.000000,101737500.000000
Z" /> 
</g>
<g >
</g>
<g style="fill:#FFFFFF; fill-opacity:1.0; 
stroke:#FFFFFF; stroke-width:1.000000; stroke-opacity:1; 
stroke-linecap:round; stroke-linejoin:round;">
<path style="fill:#FFFFFF; fill-opacity:1.0; 
stroke:#FFFFFF; stroke-width:1.000000; stroke-opacity:1; 
stroke-linecap:round; stroke-linejoin:round;fill-rule:evenodd;"
d="M 176325000.000000,82400000.000000
176336418.000000,82342597.000000
176368934.000000,82293934.000000
176417597.000000,82261418.000000
176475000.000000,82250000.000000
177650000.000000,82250000.000000
177707403.000000,82261418.000000
177756066.000000,82293934.000000
177788582.000000,82342597.000000
177800000.000000,82400000.000000
177800000.000000,82700000.000000
177788582.000000,82757403.000000
177756066.000000,82806066.000000
177707403.000000,82838582.000000
177650000.000000,82850000.000000
176475000.000000,82850000.000000
176417597.000000,82838582.000000
176368934.000000,82806066.000000
176336418.000000,82757403.000000
176325000.000000,82700000.000000
Z" /> 
<path style="fill:#FFFFFF; fill-opacity:1.0; 
stroke:#FFFFFF; stroke-width:1.000000; stroke-opacity:1; 
stroke-linecap:round; stroke-linejoin:round;fill-rule:evenodd;"
d="M 176325000.000000,84300000.000000
176336418.000000,84242597.000000
176368934.000000,84193934.000000
176417597.000000,84161418.000000
176475000.000000,84150000.000000
177650000.000000,84150000.000000
177707403.000000,84161418.000000
177756066.000000,84193934.000000
177788582.000000,84242597.000000
177800000.000000,84300000.000000
177800000.000000,84600000.000000
177788582.000000,84657403.000000
177756066.000000,84706066.000000
177707403.000000,84738582.000000
177650000.000000,84750000.000000
176475000.000000,84750000.000000
176417597.000000,84738582.000000
176368934.000000,84706066.000000
176336418.000000,84657403.000000
176325000.000000,84600000.000000
Z" /> 
<path style="fill:#FFFFFF; fill-opacity:1.0; 
stroke:#FFFFFF; stroke-width:1.000000; stroke-opacity:1; 
stroke-linecap:round; stroke-linejoin:round;fill-rule:evenodd;"
d="M 178200000.000000,83350000.000000
178211418.000000,83292597.000000
178243934.000000,83243934.000000
178292597.000000,83211418.000000
178350000.000000,83200000.000000
179525000.000000,83200000.000000
179582403.000000,83211418.000000
179631066.000000,83243934.000000
179663582.000000,83292597.000000
179675000.000000,83350000.000000
179675000.000000,83650000.000000
179663582.000000,83707403.000000
179631066.000000,83756066.000000
179582403.000000,83788582.000000
179525000.000000,83800000.000000
178350000.000000,83800000.000000
178292597.000000,83788582.000000
178243934.000000,83756066.000000
178211418.000000,83707403.000000
178200000.000000,83650000.000000
Z" /> 
</g>
<g >
</g>
<g style="fill:#FFFFFF; fill-opacity:1.0; 
stroke:#FFFFFF; stroke-width:1.000000; stroke-opacity:1; 
stroke-linecap:round; stroke-linejoin:round;">
<path style="fill:#FFFFFF; fill-opacity:1.0; 
stroke:#FFFFFF; stroke-width:1.000000; stroke-opacity:1; 
stroke-linecap:round; stroke-linejoin:round;fill-rule:evenodd;"
d="M 190025000.000000,96737500.000000
190006921.000000,96828387.000000
189955438.000000,96905438.000000
189878387.000000,96956921.000000
189787500.000000,96975000.000000
189212500.000000,96975000.000000
189121613.000000,96956921.000000
189044562.000000,96905438.000000
188993079.000000,96828387.000000
188975000.000000,96737500.000000
188975000.000000,96262500.000000
188993079.000000,96171613.000000
189044562.000000,96094562.000000
189121613.000000,96043079.000000
189212500.000000,96025000.000000
189787500.000000,96025000.000000
189878387.000000,96043079.000000
189955438.000000,96094562.000000
190006921.000000,96171613.000000
190025000.000000,96262500.000000
Z" /> 
<path style="fill:#FFFFFF; fill-opacity:1.0; 
stroke:#FFFFFF; stroke-width:1.000000; stroke-opacity:1; 
stroke-linecap:round; stroke-linejoin:round;fill-rule:evenodd;"
d="M 188275000.000000,96737500.000000
188256921.000000,96828387.000000
188205438.000000,96905438.000000
188128387.000000,96956921.000000
188037500.000000,96975000.000000
187462500.000000,96975000.000000
187371613.000000,96956921.000000
187294562.000000,96905438.000000
187243079.000000,96828387.000000
187225000.000000,96737500.000000
187225000.000000,96262500.000000
187243079.000000,96171613.000000
187294562.000000,96094562.000000
187371613.000000,96043079.000000
187462500.000000,96025000.000000
188037500.000000,96025000.000000
188128387.000000,96043079.000000
188205438.000000,96094562.000000
188256921.000000,96171613.000000
188275000.000000,96262500.000000
Z" /> 
</g>
<g >
</g>
<g style="fill:#FFFFFF; fill-opacity:1.0; 
stroke:#FFFFFF; stroke-width:1.000000; stroke-opacity:1; 
stroke-linecap:round; stroke-linejoin:round;">
<path style="fill:#FFFFFF; fill-opacity:1.0; 
stroke:#FFFFFF; stroke-width:1.000000; stroke-opacity:1; 
stroke-linecap:round; stroke-linejoin:round;fill-rule:evenodd;"
d="M 197737500.000000,90600000.000000
197828387.000000,90618079.000000
197905438.000000,90669562.000000
197956921.000000,90746613.000000
197975000.000000,90837500.000000
197975000.000000,91337500.000000
197956921.000000,91428387.000000
197905438.000000,91505438.000000
197828387.000000,91556921.000000
197737500.000000,91575000.000000
197262500.000000,91575000.000000
197171613.000000,91556921.000000
197094562.000000,91505438.000000
197043079.000000,91428387.000000
197025000.000000,91337500.000000
197025000.000000,90837500.000000
197043079.000000,90746613.000000
197094562.000000,90669562.000000
197171613.000000,90618079.000000
197262500.000000,90600000.000000
Z" /> 
<path style="fill:#FFFFFF; fill-opacity:1.0; 
stroke:#FFFFFF; stroke-width:1.000000; stroke-opacity:1; 
stroke-linecap:round; stroke-linejoin:round;fill-rule:evenodd;"
d="M 197737500.000000,92425000.000000
197828387.000000,92443079.000000
197905438.000000,92494562.000000
197956921.000000,92571613.000000
197975000.000000,92662500.000000
197975000.000000,93162500.000000
197956921.000000,93253387.000000
197905438.000000,93330438.000000
197828387.000000,93381921.000000
197737500.000000,93400000.000000
197262500.000000,93400000.000000
197171613.000000,93381921.000000
197094562.000000,93330438.000000
197043079.000000,93253387.000000
197025000.000000,93162500.000000
197025000.000000,92662500.000000
197043079.000000,92571613.000000
197094562.000000,92494562.000000
197171613.000000,92443079.000000
197262500.000000,92425000.000000
Z" /> 
</g>
<g >
</g>
<g style="fill:#FFFFFF; fill-opacity:1.0; 
stroke:#FFFFFF; stroke-width:1.000000; stroke-opacity:1; 
stroke-linecap:round; stroke-linejoin:round;">
<path style="fill:#FFFFFF; fill-opacity:1.0; 
stroke:#FFFFFF; stroke-width:1.000000; stroke-opacity:1; 
stroke-linecap:round; stroke-linejoin:round;fill-rule:evenodd;"
d="M 185900000.000000,93737500.000000
185881921.000000,93828387.000000
185830438.000000,93905438.000000
185753387.000000,93956921.000000
185662500.000000,93975000.000000
185162500.000000,93975000.000000
185071613.000000,93956921.000000
184994562.000000,93905438.000000
184943079.000000,93828387.000000
184925000.000000,93737500.000000
184925000.000000,93262500.000000
184943079.000000,93171613.000000
184994562.000000,93094562.000000
185071613.000000,93043079.000000
185162500.000000,93025000.000000
185662500.000000,93025000.000000
185753387.000000,93043079.000000
185830438.000000,93094562.000000
185881921.000000,93171613.000000
185900000.000000,93262500.000000
Z" /> 
<path style="fill:#FFFFFF; fill-opacity:1.0; 
stroke:#FFFFFF; stroke-width:1.000000; stroke-opacity:1; 
stroke-linecap:round; stroke-linejoin:round;fill-rule:evenodd;"
d="M 184075000.000000,93737500.000000
184056921.000000,93828387.000000
184005438.000000,93905438.000000
183928387.000000,93956921.000000
183837500.000000,93975000.000000
183337500.000000,93975000.000000
183246613.000000,93956921.000000
183169562.000000,93905438.000000
183118079.000000,93828387.000000
183100000.000000,93737500.000000
183100000.000000,93262500.000000
183118079.000000,93171613.000000
183169562.000000,93094562.000000
183246613.000000,93043079.000000
183337500.000000,93025000.000000
183837500.000000,93025000.000000
183928387.000000,93043079.000000
184005438.000000,93094562.000000
184056921.000000,93171613.000000
184075000.000000,93262500.000000
Z" /> 
</g>
<g >
</g>
<g >
</g>
<g >
</g>
<g >
</g>
<g >
</g>
<g >
</g>
<g >
</g>
<g >
</g>
<g >
</g>
<g >
</g>
</g> 
</svg>
